<svg id="Layer_1_copy_14" data-name="Layer 1 copy 14" xmlns="http://www.w3.org/2000/svg" viewBox="0 0 752.27 607.89"><title>hollywood-content</title><g id="desc-hollywood"><path d="M385.22,482.89a13.31,13.31,0,0,1-9.78-4.18,13.23,13.23,0,0,1-9.73,4.18h-2.12A13.5,13.5,0,0,1,352,476.21a13.17,13.17,0,0,1-4.35.74h-6.17a13,13,0,0,1-2.71-.28,24.26,24.26,0,0,1-6.62.91A23.3,23.3,0,0,1,322,475.31a13.36,13.36,0,0,1-6.42,1.64h-5a13.35,13.35,0,0,1-4.68-.84,13.41,13.41,0,0,1-4.69.84H296.3a13.46,13.46,0,0,1-13.45-13.45V446.92a13.2,13.2,0,0,1,.22-11.69,12.93,12.93,0,0,1,4.74-5.05h-.72a27,27,0,0,1-14.36-4,23.18,23.18,0,0,1-10,3.8,13.57,13.57,0,0,1-12.09,7.42H245.9a13.6,13.6,0,0,1-12.28-7.81,29.52,29.52,0,0,1-5.7.55,27.89,27.89,0,0,1-5.16-.46,13.56,13.56,0,0,1-11.1,5.78h-2a13.32,13.32,0,0,1-9.77-4.18,13.27,13.27,0,0,1-9.73,4.18H188a13.48,13.48,0,0,1-11-5.74,27.89,27.89,0,0,1-5,.42,27.45,27.45,0,0,1-11.89-2.61,13.47,13.47,0,0,1-7.07,2h-5.36a13.47,13.47,0,0,1-6.94-1.9,13.47,13.47,0,0,1-6.94,1.9h-5.45a13.46,13.46,0,0,1-13.45-13.44V391.65a13.23,13.23,0,0,1,.22-11.69,13,13,0,0,1,11.53-7h26.4a13.56,13.56,0,0,1,12.37,8,29.21,29.21,0,0,1,6.59-.75,27.3,27.3,0,0,1,12.42,2.86,13.06,13.06,0,0,1,7.32-2.23h16.8a13.45,13.45,0,0,1,7.24,2.1,27.52,27.52,0,0,1,12.13-2.73,28,28,0,0,1,10.47,2,13,13,0,0,1,5.71-1.3h6.17a13.69,13.69,0,0,1,2.71.27,24.24,24.24,0,0,1,6.61-.91,23.32,23.32,0,0,1,13.07,4,27,27,0,0,1,14.42-4,27.89,27.89,0,0,1,10.14,1.85,13.29,13.29,0,0,1,5.62-1.22h4a14.08,14.08,0,0,1,4.85.86,13.53,13.53,0,0,1,4.75-.86h4.91a13.44,13.44,0,0,1,4.74.86,14.14,14.14,0,0,1,4.86-.86h3.37a13.13,13.13,0,0,1,10.28,5,13,13,0,0,1,10.3-5h16.81a13.42,13.42,0,0,1,7.23,2.1,27.42,27.42,0,0,1,12.14-2.73,26.66,26.66,0,0,1,16.49,5.43,13,13,0,0,1,13-12.69h19.64a13.6,13.6,0,0,1,12.11,7.32c.62,0,1.26-.06,1.9-.06A27.35,27.35,0,0,1,466.51,383a13,13,0,0,1,7.2-2.15h17.84a13.63,13.63,0,0,1,4.52.77,13.22,13.22,0,0,1,4.45-.77h12.69a16.57,16.57,0,0,1,30.31,0h5.88a21.34,21.34,0,0,1,5.84.82,13.69,13.69,0,0,1,4.66-.82H566a15.1,15.1,0,0,1,6.45,1.36,14.17,14.17,0,0,1,6.21-1.36h2.57a13.47,13.47,0,0,1,3.63.5,13.46,13.46,0,0,1,3.62-.5h16.81a13.41,13.41,0,0,1,2.9.31,13.57,13.57,0,0,1,2.91-.31h6.13a15.06,15.06,0,0,1,6.44,1.36,14.31,14.31,0,0,1,6.21-1.36h2.57a13.06,13.06,0,0,1,10.72,5.53,13.23,13.23,0,0,1,1.53,12.13l-11.07,29.82a13.46,13.46,0,0,1-13,9.05H618.1a13.31,13.31,0,0,1-7.3-2.15,13.59,13.59,0,0,1-2.38.21h-2a13.27,13.27,0,0,1-9.77-4.18,13.24,13.24,0,0,1-9.74,4.18h-2.12a13.51,13.51,0,0,1-6.11-1.46,13.61,13.61,0,0,1-9.25,3.4h-2.52a13.26,13.26,0,0,1-10.89-5.6,12.83,12.83,0,0,1-1.47-2.79,22,22,0,0,1-4.72.51H538.5a13.3,13.3,0,0,1-3.76-.54,13.32,13.32,0,0,1-3.77.54h-5a13.38,13.38,0,0,1-3.82-.56,13.52,13.52,0,0,1-3.84.56H513.4a13.58,13.58,0,0,1-7.16-2,20.67,20.67,0,0,1-8,2.43H497a13.51,13.51,0,0,1-3.84-.55,12.32,12.32,0,0,1-1.61.1h-4.91a13.58,13.58,0,0,1-7.16-2,20.67,20.67,0,0,1-8,2.43h-1.4a13,13,0,0,1,5.08,17.67,14.36,14.36,0,0,1-.78,1.24l-2.1,3,3.25,5.06.2.32A13,13,0,0,1,464.55,477h-6.17a14.35,14.35,0,0,1-6.35-1.39,14.24,14.24,0,0,1-6.22,1.39H442.7a13.16,13.16,0,0,1-5.39-1.16,28,28,0,0,1-10,1.79,27.18,27.18,0,0,1-13.46-3.43,21.78,21.78,0,0,1-10.73,2.8h-4.69a13.55,13.55,0,0,1-11.22,5.94Z" fill="#b1181e"/><path d="M316.51,441.74V463.5a1,1,0,0,1-.94.95h-5a1,1,0,0,1-1-.95v-8.29a1,1,0,0,0-1-1h-5.4a.92.92,0,0,0-.95.89v8.4a1,1,0,0,1-1,.95h-4.91a1,1,0,0,1-1-.95V445.62a5.59,5.59,0,0,0-1-3.74c-.4-.59-.22-1.09.27-1.09h6.63a1,1,0,0,1,1,.95v7.75a.93.93,0,0,0,.86,1h5.49a1,1,0,0,0,1-1v-7.75a1,1,0,0,1,1-.95h5A1,1,0,0,1,316.51,441.74Zm31.36,21.63c.41.58.23,1.08-.27,1.08h-6.17a1,1,0,0,1-1-1v-.68c0-.81-.5-.77-1-.32a10.9,10.9,0,0,1-7.3,2.62c-6.76,0-11.35-5.59-11.35-12.44s4.59-12.48,11.35-12.48a10.73,10.73,0,0,1,6.94,2.35c.63.49.95,0,.95-.18v-.59a1,1,0,0,1,1-1h4.91a1,1,0,0,1,.94,1v17.89A5.62,5.62,0,0,0,347.87,463.37ZM340,449.89a3.71,3.71,0,0,0-.5-1.84,6.51,6.51,0,0,0-5.5-3.56c-3.46,0-6.17,3.06-6.17,8.15s2.71,8.11,6.17,8.11c2.21,0,4.15-1.39,5.5-3.56a3.71,3.71,0,0,0,.5-1.84Zm48.74,11.85-.45,7.66a1,1,0,0,1-1,1h-2a1,1,0,0,1-1-1l-.9-3.92a1.19,1.19,0,0,0-1.08-1H368.68a1.19,1.19,0,0,0-1.08,1l-.9,3.92c-.14.54-.41,1-1,1h-2.12a1,1,0,0,1-1-1l-.45-7.66a1,1,0,0,1,1-.94h1.53c.86,0,1.13-.14,1.35-.95a42.22,42.22,0,0,0,2.08-12v-2.2a5.59,5.59,0,0,0-1-3.74c-.4-.59-.22-1.09.27-1.09h16.8a1,1,0,0,1,1,.95v18.07a1,1,0,0,0,1,1h1.57a1,1,0,0,1,1,.9Zm-10.5-16.26a1,1,0,0,0-1-1h-4.06a1,1,0,0,0-.94,1v2.34a40.73,40.73,0,0,1-1.9,12c-.18.63.05.95.73.95h6.17a1,1,0,0,0,1-1Zm33,12.39c0,3.42-3.47,6.58-8.11,6.58H391.84a1,1,0,0,1-.95-.95V445.62a5.7,5.7,0,0,0-1-3.74c-.41-.59-.23-1.09.27-1.09h12.61c4.06,0,7.16,2.8,7.16,5.91a5.72,5.72,0,0,1-2.52,4.59c-.4.27-.31.45,0,.68a6.77,6.77,0,0,1,3.8,5.9ZM397.79,449a1,1,0,0,0,.94,1h2.12a2.64,2.64,0,0,0,2.21-2.8,2.53,2.53,0,0,0-2.3-2.74h-2a.92.92,0,0,0-.94.9V449Zm6.3,8.34c0-1.85-1.21-3.65-2.92-3.65h-2.44a.92.92,0,0,0-.94.9v5.23a1,1,0,0,0,.94,1h2.44a3.27,3.27,0,0,0,2.92-3.49Zm36.63-4.69c0,7.17-5.36,12.44-13.38,12.44S414,459.81,414,452.64s5.41-12.48,13.34-12.48,13.38,5.32,13.38,12.48Zm-7.12,0c0-5.09-2.66-8.78-6.26-8.78s-6.22,3.69-6.22,8.78,2.71,8.74,6.22,8.74,6.26-3.75,6.26-8.75Zm24.06-.45a1,1,0,0,1,0-1.35l6.49-9.19a.51.51,0,0,0,0-.73.49.49,0,0,0-.4-.13h-3.11a1.78,1.78,0,0,0-1.58.86l-3.78,5.41c-.36.49-.68.45-1-.05l-3.34-5.36a1.44,1.44,0,0,0-1.57-.86h-7.17c-.72,0-.94.55-.22,1.09a13.54,13.54,0,0,1,3.29,3.74l4.14,6.57a1,1,0,0,1,0,1.35l-7.12,10.1a.49.49,0,0,0,.08.7.46.46,0,0,0,.37.11h3.11a1.78,1.78,0,0,0,1.58-.86l4.41-6.31c.36-.49.63-.49.95,0l4.05,6.31a1.44,1.44,0,0,0,1.58.86h6.17c.5,0,.72-.36.45-.81ZM153.05,385.53h-26.4c-.5,0-.68.49-.27,1.08a5.7,5.7,0,0,1,1,3.74v25.77a1,1,0,0,0,1,.94h5.45a1,1,0,0,0,1-.94V390.48a.94.94,0,0,1,.86-1h10a1,1,0,0,1,1,1v25.64a1,1,0,0,0,1,.94H153a1,1,0,0,0,1-.94v-29.6A1,1,0,0,0,153.05,385.53Zm32.34,19.73c0,7.16-5.36,12.43-13.38,12.43s-13.33-5.27-13.33-12.43,5.41-12.48,13.33-12.48S185.39,398.09,185.39,405.26Zm-7.11,0c0-5.09-2.66-8.79-6.27-8.79s-6.21,3.7-6.21,8.79S168.5,414,172,414,178.28,410.26,178.28,405.26Zm34.87,9.1L212.7,422a1,1,0,0,1-1,1h-2c-.58,0-.9-.45-1-1l-.9-3.92a1.2,1.2,0,0,0-1.09-1H193.1a1.19,1.19,0,0,0-1.08,1l-.9,3.92c-.14.54-.41,1-1,1H188a1,1,0,0,1-1-1l-.45-7.66a1,1,0,0,1,1-.95h1.53c.86,0,1.13-.13,1.35-.94a41.86,41.86,0,0,0,2.07-12v-2.21a5.7,5.7,0,0,0-1-3.74c-.41-.58-.23-1.08.27-1.08h16.8a1,1,0,0,1,1,.95v18.06a1,1,0,0,0,1,1h1.58a1,1,0,0,1,1,.93Zm-10.5-16.27a1,1,0,0,0-1-1H197.6a1,1,0,0,0-.95,1v2.35a41,41,0,0,1-1.89,12c-.18.63.05.94.72.94h6.17a1,1,0,0,0,1-1Zm38.65,7.17c0,7.16-5.36,12.43-13.38,12.43s-13.33-5.27-13.33-12.43,5.4-12.48,13.33-12.48,13.38,5.31,13.38,12.48Zm-7.11,0c0-5.09-2.66-8.79-6.27-8.79s-6.21,3.7-6.21,8.79,2.7,8.74,6.21,8.74,6.27-3.74,6.27-8.74Zm36.76,0c0,6.85-4.6,12.48-11.36,12.48a10.7,10.7,0,0,1-6.93-2.35c-.63-.49-.95,0-.95.18V424a1,1,0,0,1-1,1H245.9a1,1,0,0,1-1-1V398.27a5.69,5.69,0,0,0-1-3.73c-.41-.59-.23-1.09.27-1.09h6.17a1,1,0,0,1,1,1v.67c0,.81.5.77,1,.32a10.88,10.88,0,0,1,7.29-2.62c6.72,0,11.37,5.59,11.37,12.44Zm-7.08,0c0-5-2.7-8.11-6.17-8.11-2.21,0-4.14,1.4-5.49,3.56a3.71,3.71,0,0,0-.5,1.84V408a3.71,3.71,0,0,0,.5,1.84,6.5,6.5,0,0,0,5.49,3.56c3.47,0,6.17-3,6.17-8.14Zm23.21,12.43c-7.93,0-13.34-5.27-13.34-12.43s5.41-12.48,13.34-12.48,13.38,5.31,13.38,12.48-5.37,12.43-13.38,12.43Zm6.26-12.43c0-5.09-2.66-8.79-6.26-8.79s-6.22,3.7-6.22,8.79,2.7,8.74,6.22,8.74,6.26-3.74,6.26-8.74Zm8.15,11.8h5.32a2.31,2.31,0,0,0,2.07-.9l5.32-8.74a.94.94,0,0,1,.85-.5c.23,0,.41.19.41.64v8.56a1,1,0,0,0,1,.94h4.91a1,1,0,0,0,1-.94v-8.56c0-.45.18-.64.41-.64a.94.94,0,0,1,.85.5l5.32,8.74a2.31,2.31,0,0,0,2.07.9h5.32a.54.54,0,0,0,.56-.54.51.51,0,0,0-.16-.4l-8.51-12.26a.78.78,0,0,1,0-1.08l6.39-8.29c.46-.54.32-1.08-.27-1.08H331c-.5,0-.91.18-1.54.9l-5.72,7.61a1.12,1.12,0,0,1-.9.54c-.31,0-.45-.18-.45-.58V394.4a1,1,0,0,0-1-1h-4.91a1,1,0,0,0-1,1v7.48c0,.4-.14.58-.45.58a1.12,1.12,0,0,1-.9-.54l-5.72-7.61c-.64-.72-1-.9-1.54-.9h-4c-.72,0-.94.54-.18,1.08a19.65,19.65,0,0,1,3.43,3.74l3.51,4.55a.78.78,0,0,1,0,1.08l-8.51,12.26a.54.54,0,0,0,0,.78.52.52,0,0,0,.37.16Zm68.29-.08H356.26a1.19,1.19,0,0,0-1.08,1l-.9,3.92c-.13.54-.4,1-1,1h-2.12a1,1,0,0,1-1-1l-.45-7.66a1,1,0,0,1,1-.94h1.53c.86,0,1.13-.14,1.36-.95a42.56,42.56,0,0,0,2.07-12v-2.2a5.59,5.59,0,0,0-1-3.74c-.4-.59-.22-1.08.27-1.08h16.81a1,1,0,0,1,1,.94v18.07a1,1,0,0,0,1,1h1.58a1,1,0,0,1,1,.94l-.45,7.66a1,1,0,0,1-1,1h-2c-.59,0-.9-.45-1-1L371,418a1.17,1.17,0,0,0-1.2-1Zm-4-19a1,1,0,0,0-1-1h-4.06a1,1,0,0,0-.94,1v2.34a41,41,0,0,1-1.89,12c-.18.63,0,.95.72.95h6.17a1,1,0,0,0,1-1Zm11.94,7.16c0-7.16,5.41-12.47,13.34-12.47s13.38,5.31,13.38,12.47-5.36,12.44-13.38,12.44-13.31-5.24-13.31-12.41Zm7.12,0c0,5,2.7,8.74,6.22,8.74s6.26-3.74,6.26-8.74-2.66-8.78-6.26-8.78-6.19,3.72-6.19,8.81Zm56.9-15.67-.41-3.11a1.07,1.07,0,0,0-1.12-.95H420.6c-.5,0-.72.5-.32,1.08a5.65,5.65,0,0,1,1,3.74V416a1,1,0,0,0,.94,1h5.5a1,1,0,0,0,1-1V390.49a1,1,0,0,1,.94-1h7.08a12.68,12.68,0,0,1,4,.68c.67.18,1.12,0,1-.67Zm25.86,15.67c0,7.17-5.36,12.44-13.38,12.44s-13.33-5.27-13.33-12.44,5.4-12.47,13.33-12.47,13.41,5.33,13.41,12.5Zm-7.12,0c0-5.09-2.65-8.78-6.26-8.78s-6.22,3.69-6.22,8.78,2.71,8.74,6.22,8.74,6.29-3.71,6.29-8.71Zm31-11.84H473.71c-.49,0-.67.49-.27,1.08a5.59,5.59,0,0,1,1,3.74v4.23a27,27,0,0,1-1,8.2c-.54,1.44-1.71,3.15-3.6,2.84a.69.69,0,0,0-.88.39.67.67,0,0,0,0,.42l.49,2.66a.64.64,0,0,0,.72.55h.05a8,8,0,0,0,6.76-5,25.65,25.65,0,0,0,1.48-9.55V398a1,1,0,0,1,1-1h5.09a1,1,0,0,1,1,1v18a1,1,0,0,0,1,1h4.91a1,1,0,0,0,1-1V394.27a1,1,0,0,0-.84-.94Zm26.81,0H500.52c-.5,0-.68.49-.27,1.08a5.65,5.65,0,0,1,1,3.74v4.23a27,27,0,0,1-1,8.2c-.54,1.44-1.71,3.15-3.6,2.84a.67.67,0,0,0-.88.38.64.64,0,0,0,0,.43l.5,2.66a.62.62,0,0,0,.7.55H497a7.93,7.93,0,0,0,6.75-5,25.45,25.45,0,0,0,1.49-9.55V398a1,1,0,0,1,1-1h5.09a1,1,0,0,1,.94,1v18a1,1,0,0,0,1,1h4.91a1,1,0,0,0,1-1V394.27a1,1,0,0,0-.83-.94Zm10-9.87a7.72,7.72,0,1,0,.07,0Zm2.61,9.87h-6.66c-.5,0-.68.49-.27,1.08a5.7,5.7,0,0,1,1,3.74V416a1,1,0,0,0,.95,1h5a1,1,0,0,0,1-1V394.32a1,1,0,0,0-.92-1Zm26.94,17.07c0,3.42-3.46,6.58-8.11,6.58H538.5a1,1,0,0,1-1-1v-17.8a5.59,5.59,0,0,0-1-3.74c-.4-.59-.22-1.08.27-1.08H549.4c4.05,0,7.16,2.79,7.16,5.9a5.72,5.72,0,0,1-2.52,4.59c-.41.27-.32.45,0,.68a6.74,6.74,0,0,1,3.87,5.9Zm-13.47-8.87a1,1,0,0,0,1,1h2.12a2.63,2.63,0,0,0,2.2-2.8,2.52,2.52,0,0,0-2.28-2.74h-2a.93.93,0,0,0-1,.91v3.64Zm6.31,8.33c0-1.85-1.22-3.65-2.93-3.65h-2.43a.93.93,0,0,0-1,.91v5.27a1,1,0,0,0,1,1h2.43a3.3,3.3,0,0,0,3-3.5Zm30.5-16.53h-2.57c-.81,0-1.08.18-1.3.9l-4.46,12.16a.32.32,0,0,1-.32.32.38.38,0,0,1-.31-.32l-4.46-12.16c-.28-.72-.91-.9-1.81-.9H559.9c-.68,0-.9.54-.36,1.08a9,9,0,0,1,2.47,3.74l6.72,17.57a1.76,1.76,0,0,1,0,1.8L566.2,424c-.18.5,0,.9.68.9h2.52c.86,0,1-.18,1.31-.9l11-29.73c.22-.54.08-.94-.46-.94Zm28.65,20.94-.45,7.66a1,1,0,0,1-1,1h-2c-.59,0-.9-.45-1-1l-.9-3.92a1.17,1.17,0,0,0-1.08-1H589.86a1.2,1.2,0,0,0-1.09,1l-.9,3.92c-.13.54-.4,1-1,1h-2.12a1,1,0,0,1-1-1l-.45-7.66a1,1,0,0,1,1-.94h1.54c.85,0,1.12-.14,1.35-.95a42.56,42.56,0,0,0,2.07-12v-2.2a5.59,5.59,0,0,0-1-3.74c-.4-.59-.22-1.08.27-1.08h16.81a1,1,0,0,1,1,.94v18.07a1,1,0,0,0,1,1h1.58a1,1,0,0,1,1,.93ZM599.41,398a1,1,0,0,0-1-1h-4a1,1,0,0,0-1,1v2.34a41,41,0,0,1-1.89,12c-.18.63,0,1,.72,1h6.17a1,1,0,0,0,1-1Zm33.06-4.68H629.9c-.81,0-1.08.18-1.3.9l-4.46,12.16a.32.32,0,0,1-.32.32.38.38,0,0,1-.31-.32l-4.46-12.16c-.27-.72-.9-.9-1.8-.9h-6.13c-.68,0-.9.54-.36,1.08a9,9,0,0,1,2.48,3.74L620,415.72a1.76,1.76,0,0,1,0,1.8L617.43,424c-.18.5,0,.9.67.9h2.52c.86,0,1-.18,1.31-.9l11-29.73c.22-.54.07-.94-.46-.94Z" fill="#fff"/><g id="Layer_1_copy_15" data-name="Layer 1 copy 15"><rect x="-2167.57" y="-1316.34" width="5094.33" height="2865.56" fill="none"/><rect x="-580.4" y="-423.56" width="1920" height="1080" fill="none"/><path d="M473.8,435.34a.22.22,0,0,0,0-.42l-1.29-.45c-1-.33.54-2.91,1.29-2.19l1,.9a.23.23,0,0,0,.32-.06.26.26,0,0,0,0-.15l-.24-1.32c-.12-.54.54-.78,1.23-.78s1.41.27,1.29.75L477.2,433a.2.2,0,0,0,.17.23.18.18,0,0,0,.16-.05l1-.9c.84-.78,2.25,1.92,1.29,2.22l-1.29.45c-.21.06-.15.33,0,.39l1.29.45c1.05.33-.51,2.88-1.26,2.22l-1.05-.9a.19.19,0,0,0-.33.18l.24,1.35c.12.54-.54.78-1.23.78s-1.47-.27-1.32-.78l.3-1.35c.06-.18-.21-.33-.36-.18l-1.05.87c-.81.78-2.25-1.86-1.29-2.16Z" fill="#fff"/><path d="M485,435.34a.22.22,0,0,0,0-.42l-1.29-.45c-1-.33.54-2.91,1.29-2.19l1,.9a.23.23,0,0,0,.32-.06.26.26,0,0,0,0-.15l-.24-1.32c-.12-.54.54-.78,1.23-.78s1.41.27,1.29.75L488.4,433a.2.2,0,0,0,.17.23.18.18,0,0,0,.16-.05l1-.9c.84-.78,2.25,1.92,1.29,2.22l-1.29.45c-.21.06-.15.33,0,.39l1.29.45c1.05.33-.51,2.88-1.26,2.22l-1.05-.9a.19.19,0,0,0-.33.18l.24,1.35c.12.54-.54.78-1.23.78s-1.47-.27-1.32-.78l.3-1.35c.06-.18-.21-.33-.36-.18L485,438c-.81.78-2.25-1.86-1.29-2.16Z" fill="#fff"/><path d="M496.12,435.34a.22.22,0,0,0,0-.42l-1.29-.45c-1-.33.54-2.91,1.29-2.19l1,.9a.23.23,0,0,0,.32-.06.26.26,0,0,0,0-.15l-.24-1.32c-.12-.54.54-.78,1.23-.78s1.41.27,1.29.75l-.24,1.35a.2.2,0,0,0,.17.23.18.18,0,0,0,.16-.05l1-.9c.84-.78,2.25,1.92,1.29,2.22l-1.29.45c-.21.06-.15.33,0,.39l1.29.45c1.05.33-.51,2.88-1.26,2.22l-1.05-.9a.19.19,0,0,0-.33.18l.24,1.35c.12.54-.54.78-1.23.78s-1.47-.27-1.32-.78l.3-1.35c.06-.18-.21-.33-.36-.18l-1.05.87c-.81.78-2.25-1.86-1.29-2.16Z" fill="#fff"/><path d="M473.8,435.34a.22.22,0,0,0,0-.42l-1.29-.45c-1-.33.54-2.91,1.29-2.19l1,.9a.23.23,0,0,0,.32-.06.26.26,0,0,0,0-.15l-.24-1.32c-.12-.54.54-.78,1.23-.78s1.41.27,1.29.75L477.2,433a.2.2,0,0,0,.17.23.18.18,0,0,0,.16-.05l1-.9c.84-.78,2.25,1.92,1.29,2.22l-1.29.45c-.21.06-.15.33,0,.39l1.29.45c1.05.33-.51,2.88-1.26,2.22l-1.05-.9a.19.19,0,0,0-.33.18l.24,1.35c.12.54-.54.78-1.23.78s-1.47-.27-1.32-.78l.3-1.35c.06-.18-.21-.33-.36-.18l-1.05.87c-.81.78-2.25-1.86-1.29-2.16Z" fill="#fff"/><path d="M485,435.34a.22.22,0,0,0,0-.42l-1.29-.45c-1-.33.54-2.91,1.29-2.19l1,.9a.23.23,0,0,0,.32-.06.26.26,0,0,0,0-.15l-.24-1.32c-.12-.54.54-.78,1.23-.78s1.41.27,1.29.75L488.4,433a.2.2,0,0,0,.17.23.18.18,0,0,0,.16-.05l1-.9c.84-.78,2.25,1.92,1.29,2.22l-1.29.45c-.21.06-.15.33,0,.39l1.29.45c1.05.33-.51,2.88-1.26,2.22l-1.05-.9a.19.19,0,0,0-.33.18l.24,1.35c.12.54-.54.78-1.23.78s-1.47-.27-1.32-.78l.3-1.35c.06-.18-.21-.33-.36-.18L485,438c-.81.78-2.25-1.86-1.29-2.16Z" fill="#fff"/><path d="M496.12,435.34a.22.22,0,0,0,0-.42l-1.29-.45c-1-.33.54-2.91,1.29-2.19l1,.9a.23.23,0,0,0,.32-.06.26.26,0,0,0,0-.15l-.24-1.32c-.12-.54.54-.78,1.23-.78s1.41.27,1.29.75l-.24,1.35a.2.2,0,0,0,.17.23.18.18,0,0,0,.16-.05l1-.9c.84-.78,2.25,1.92,1.29,2.22l-1.29.45c-.21.06-.15.33,0,.39l1.29.45c1.05.33-.51,2.88-1.26,2.22l-1.05-.9a.19.19,0,0,0-.33.18l.24,1.35c.12.54-.54.78-1.23.78s-1.47-.27-1.32-.78l.3-1.35c.06-.18-.21-.33-.36-.18l-1.05.87c-.81.78-2.25-1.86-1.29-2.16Z" fill="#fff"/></g></g><path id="logo-hollywood" d="M122.14,247.18l20.15-3.56,16.59,94.07-20.16,3.55-6.5-36.88-13.51,2.38,6.52,36.93-20.16,3.55L88.48,253.13l20.16-3.55,6.52,37,13.51-2.38Zm69.42-23.34,15.84,11.09,11.86,67.28-11.09,15.85L181.3,322.8l-15.85-11.1-11.86-67.28,11.09-15.84Zm-3.13,21.33-13.51,2.38,9.49,53.81L197.92,299Zm47.79-27.9-20.15,3.55,16.64,94.32,47.1-8.3-3.55-20.15-27,4.75Zm53.85-9.49-20.15,3.55,16.63,94.32,47.11-8.31-3.56-20.15-27,4.75Zm71.43-4.22L356,231.63l-14.68-24.52-20.25,3.57,29,46.25,7.81,44.29L378,297.67l-7.81-44.3L381.68,200Zm87.19,41.19-17.27-50.69L420.64,196l1.1,53.54-20-50.21-20,3.53,34,91,21.49-3.79-.12-32.17L448,288.17l21.56-3.8.89-97.2-20.18,3.56ZM512,167.33l15.84,11.1,11.86,67.28-11.09,15.84-26.87,4.74-15.85-11.1L474,187.91l11.09-15.84Zm-3.13,21.33L495.39,191l9.49,53.81,13.5-2.38Zm67.76-32.73L592.5,167l11.87,67.28-11.1,15.84-26.87,4.74L550.56,243.8l-11.87-67.28,11.1-15.85Zm-3.13,21.34L560,179.65l9.49,53.81L583,231.08Zm85-13.51L670.43,231,659.3,246.67,619,253.78l-16.57-94,40.33-7.12ZM639.6,174l-13.51,2.38,9.49,53.81,13.5-2.38Z" fill="#fff"/><polygon id="star-hollywood" points="531.85 294.4 551.67 269.47 550.28 301.27 580.3 312.45 549.44 321.24 548.12 353.29 530.38 326.63 500.66 334.43 519.75 310.41 502.15 283.57 531.85 294.4" fill="#fff"/><path id="movie-hollywood" d="M211.33,157.74l-45.17-7h-.07l-13.42-2.07a2.77,2.77,0,0,0-3.15,2.3l-6.34,41.1h0a2.77,2.77,0,0,0,2.31,3.12l58.66,9a2.76,2.76,0,0,0,3.14-2.31l6.34-41.1A2.75,2.75,0,0,0,211.33,157.74Zm-48.48,6.43-9.52-1.46L159.7,153l9.51,1.47Zm24.66,17.22a2.35,2.35,0,0,1-1.25,1.74L174.88,189a2.32,2.32,0,0,1-1.44.24,2.46,2.46,0,0,1-1-.42,2.37,2.37,0,0,1-1-2.28l2.3-14.86a2.33,2.33,0,0,1,1.59-1.88,2.39,2.39,0,0,1,2.41.56l9.08,9a2.36,2.36,0,0,1,.69,2Zm-5.68-14.29-9.52-1.47,6.37-9.67,9.51,1.47Zm19,2.93-9.51-1.47,6.36-9.67,9.51,1.46Zm17.5-29.24L163.14,119a2.91,2.91,0,0,0-3.59,1.92l-3.8,9.59,1.31,3.86,55.17,21.83a2.89,2.89,0,0,0,3.58-1.92l3.8-9.59a2.89,2.89,0,0,0-1.27-3.88l0,0Zm-48.49-4.64-9-3.55,8.35-8,8.95,3.54Zm17.86,7.06-9-3.54,8.35-8,8.95,3.54Zm17.86,7.07-8.95-3.54,8.35-8,8.95,3.54Z" fill="#fff"/><g id="title-hollywood"><path d="M419.45,154.32a26.64,26.64,0,0,1-9.55-1.73,13.5,13.5,0,0,1-5.49,1.17h-3.28a13.42,13.42,0,0,1-7-2,13.42,13.42,0,0,1-7,2h-3.4a13.34,13.34,0,0,1-9.91-4.42,13.37,13.37,0,0,1-9.94,4.42h-3.4a13.1,13.1,0,0,1-3.78-.55,13.18,13.18,0,0,1-3.8.55h-3.28a13.42,13.42,0,0,1-7-2,13.42,13.42,0,0,1-7,2h-3.36a13.36,13.36,0,0,1-13.34-13.34V119a13.11,13.11,0,0,1,.36-11.34,13.58,13.58,0,0,1,1-1.62,13.21,13.21,0,0,1-4.69-1.57,29,29,0,0,1-10.26,1.85,27.9,27.9,0,0,1-17.62-6.09,13.45,13.45,0,0,1-10.88,5.53h-3.36A13.36,13.36,0,0,1,260,92.51V71a13.14,13.14,0,0,1,.38-11.32,12.92,12.92,0,0,1,11.49-6.92H288a13.43,13.43,0,0,1,6.36,1.57,29,29,0,0,1,24.09,1,12.93,12.93,0,0,1,7.81-2.6h17.51a13.35,13.35,0,0,1,7.54,2.33,29,29,0,0,1,24.34-.42,13.05,13.05,0,0,1,6.8-1.91H394A21.78,21.78,0,0,1,401.33,54a13.06,13.06,0,0,1,5.57-1.25h4.88a13.42,13.42,0,0,1,7,2,13.42,13.42,0,0,1,7-2h3.28a13.68,13.68,0,0,1,3.06.35,13.15,13.15,0,0,1,3-.35H440a13.42,13.42,0,0,1,7,2,13.44,13.44,0,0,1,7.06-2h3.53a13.4,13.4,0,0,1,6-6,12.54,12.54,0,0,1,1.46-.62l2.1-.74a13.17,13.17,0,0,1,4.44-.77,13,13,0,0,1,3.56.5,13.07,13.07,0,0,1,8,.27l2.11.74a12.94,12.94,0,0,1,1.44.61,13.28,13.28,0,0,1,7,8.74,13.34,13.34,0,0,1,5.35,10.68V92.42a13.4,13.4,0,0,1-13.42,13.34h-3.28a13.32,13.32,0,0,1-7-2,13.44,13.44,0,0,1-7,2H465a13.1,13.1,0,0,1-3.78-.55,13.18,13.18,0,0,1-3.8.55h-3.28a13.42,13.42,0,0,1-7-2,13.42,13.42,0,0,1-7,2h-3.4a13.46,13.46,0,0,1-2.45-.23,19,19,0,0,1,6.48,14.57,18.4,18.4,0,0,1-.73,5.11,19.91,19.91,0,0,1,1.81,8.25C441.83,145.35,432.21,154.32,419.45,154.32Z" fill="#b1181e"/><path d="M289,66.1l.36,2.4c.08.56-.32.76-.88.56a11.36,11.36,0,0,0-3.52-.6h-6.44a.84.84,0,0,0-.84.84V92.38a.9.9,0,0,1-.92.84H273.4a.87.87,0,0,1-.84-.84V69.54a5,5,0,0,0-.92-3.32c-.35-.52-.15-1,.29-1H288A1,1,0,0,1,289,66.1Zm31.46,13.2c0,8.2-6.36,14.52-15.2,14.52s-15.1-6.32-15.1-14.52,6.35-14.6,15.07-14.6,15.2,6.3,15.2,14.6Zm-5.6,0c0-6.36-4-11.36-9.6-11.36s-9.48,5-9.48,11.36,4,11.36,9.48,11.36,9.57-5,9.57-11.4Zm15.6-10.08a.65.65,0,0,1,.57-.72h7.62a.9.9,0,0,1,.88.92h0v23a.87.87,0,0,0,.84.84h3.4a.88.88,0,0,0,.88-.84V66.14a.9.9,0,0,0-.88-.88H326.23c-.44,0-.6.44-.24,1a5,5,0,0,1,1,3.32v5c0,3.08-.16,8.6-1.56,12.24-.52,1.52-1.72,3.44-3.48,3.08a.68.68,0,0,0-.87.41.7.7,0,0,0,0,.43l.32,2.36a.61.61,0,0,0,.61.61h.11c7.72-.64,8.36-12.88,8.36-18.6ZM348.8,79.3c0-8.28,6.36-14.6,15.08-14.6s15.19,6.3,15.19,14.6-6.36,14.52-15.19,14.52S348.8,87.5,348.8,79.3Zm5.6,0c0,6.36,4,11.36,9.48,11.36s9.59-5,9.59-11.36-4-11.36-9.59-11.36-9.48,5-9.48,11.32Zm27.78-13c-.36-.52-.2-1,.24-1H394c4.87,0,8.15,3.24,8.15,7.32a6.62,6.62,0,0,1-2.84,5.4c-.24.2-.28.48,0,.64a7.57,7.57,0,0,1,4.16,6.6c0,4.4-3.56,8-8.79,8H383.94a.87.87,0,0,1-.84-.84V69.54a5,5,0,0,0-.92-3.32Zm6,10.08a.64.64,0,0,0,.52.68h3.8a4.26,4.26,0,0,0,0-8.52h-3.68a.64.64,0,0,0-.64.66v7.18Zm0,13.08a.64.64,0,0,0,.52.68h4.08a4.94,4.94,0,0,0,.28-9.88h-4.24a.64.64,0,0,0-.64.64v8.56Zm40.91-24.12h-3.28a.9.9,0,0,0-.92.88h0V76.5a.88.88,0,0,1-.84.88H413.54a.82.82,0,0,1-.84-.82V66.14a.9.9,0,0,0-.92-.88H406.9c-.44,0-.6.44-.24,1a5,5,0,0,1,.92,3.32V92.42a.87.87,0,0,0,.84.84h3.36a.9.9,0,0,0,.92-.84v-11a.83.83,0,0,1,.78-.88h10.61a.88.88,0,0,1,.84.88v11a.9.9,0,0,0,.92.84h3.28a.9.9,0,0,0,.92-.84V66.14a.9.9,0,0,0-.92-.88h0Zm28.31,0h-3.28a1.25,1.25,0,0,0-1,.68L441.48,85.18c-.16.28-.48.2-.48-.12V66.14a.9.9,0,0,0-.92-.88H435.2c-.44,0-.6.44-.24,1a5,5,0,0,1,.92,3.32V92.42a.87.87,0,0,0,.84.84h3.4a1.26,1.26,0,0,0,1-.68L452.76,73.3c.16-.28.48-.2.48.12v19a.9.9,0,0,0,.92.84h3.28a.9.9,0,0,0,.92-.84V66.14a.9.9,0,0,0-.92-.88h0Zm17.82-1.92a6.85,6.85,0,0,0,6.4-4.48.77.77,0,0,0-.44-1h0L479,57.18a.57.57,0,0,0-.76.31.5.5,0,0,0,0,.13c-.52,1.76-1.6,3.12-3,3.12s-2.48-1.36-3-3.12a.58.58,0,0,0-.67-.48l-.13,0-2.16.76a.77.77,0,0,0-.44,1h0a6.86,6.86,0,0,0,6.44,4.4Zm10.48,1.92h-3.28a1.25,1.25,0,0,0-1,.68L469.78,85.18c-.16.28-.48.2-.48-.12V66.14a.9.9,0,0,0-.92-.88H463.5c-.44,0-.6.44-.24,1a5,5,0,0,1,.92,3.32V92.42a.87.87,0,0,0,.84.84h3.4a1.26,1.26,0,0,0,1-.68L481.06,73.3c.16-.28.48-.2.48.12v19a.9.9,0,0,0,.92.84h3.28a.9.9,0,0,0,.92-.84V66.14a.9.9,0,0,0-.92-.88h0Zm-132.87,48h-22.2c-.44,0-.6.44-.24,1a5,5,0,0,1,.92,3.32v22.88a.87.87,0,0,0,.84.84h3.36a.9.9,0,0,0,.92-.84v-23.2a.83.83,0,0,1,.78-.88h10.62a.88.88,0,0,1,.84.88v23.08a.9.9,0,0,0,.92.84h3.28a.9.9,0,0,0,.92-.84V114.14a.9.9,0,0,0-.92-.88h0Zm26.38,8.8a9,9,0,0,1-9.16,8.72h-4.52a.85.85,0,0,0-.84.84v8.8a.88.88,0,0,1-.88.84h-3.4a.87.87,0,0,1-.84-.84v-23a5,5,0,0,0-.92-3.32c-.36-.52-.2-1,.24-1h11.16a9,9,0,0,1,9.2,8.8v0Zm-5.36,0a5.3,5.3,0,0,0-5-5.59h-3.31a.79.79,0,0,0-.84.73.38.38,0,0,0,0,.15v9.32a.8.8,0,0,0,.69.88h3.27a5.27,5.27,0,0,0,5.25-5.27,2.81,2.81,0,0,0,0-.29Zm30.52-8.8h-3.28a1.25,1.25,0,0,0-1,.68l-11.63,19.24c-.16.28-.48.2-.48-.12v-19a.9.9,0,0,0-.92-.88h-4.88c-.44,0-.6.44-.24,1a5,5,0,0,1,.92,3.32v22.88a.87.87,0,0,0,.84.84h3.4a1.26,1.26,0,0,0,1-.68l11.63-19.28c.16-.28.48-.2.48.12v19a.9.9,0,0,0,.92.84h3.28a.9.9,0,0,0,.92-.84V114.14a.9.9,0,0,0-.92-.88h0ZM425,126.54c-.32-.16-.32-.44,0-.64a7.51,7.51,0,0,0,3.28-5.8c0-4.36-3.48-7.4-9.24-7.4a10.2,10.2,0,0,0-7.8,3.2,1.1,1.1,0,0,0,.08,1.32l1,1.6a.77.77,0,0,0,1.07.19.75.75,0,0,0,.29-.39,5,5,0,0,1,4.6-2.72c2.84,0,4.6,1.76,4.6,4.32a4.44,4.44,0,0,1-4.11,4.75H417a.91.91,0,0,0-.92.9v1.42a.9.9,0,0,0,.92.88h1.6c3.44,0,5.2,2,5.2,5.08a5,5,0,0,1-4.62,5.35,3.75,3.75,0,0,1-.58,0,8.71,8.71,0,0,1-6.6-3.32.73.73,0,0,0-1-.3l-.09.06-1.4.92a.64.64,0,0,0-.34.84.86.86,0,0,0,.1.16c2,3.08,5.84,4.88,10.2,4.88,6.12,0,9.88-3.72,9.88-8.36A7.93,7.93,0,0,0,425,126.54Z" fill="#fde619"/></g></svg>