<?xml version="1.0" encoding="utf-8"?>
<!-- Generator: Adobe Illustrator 21.1.0, SVG Export Plug-In . SVG Version: 6.00 Build 0)  -->
<svg version="1.1" id="Слой_1" xmlns="http://www.w3.org/2000/svg" xmlns:xlink="http://www.w3.org/1999/xlink" x="0px" y="0px"
	 viewBox="0 0 617.5 611.4" enable-background="new 0 0 617.5 611.4" xml:space="preserve">
<path fill="#00A3E2" d="M327.6,1507.4c-7.9,0-16-0.1-24.1-0.3c-8.1,0.2-16.2,0.3-24.2,0.3c-10.7,0-21.6-0.2-32.4-0.5
	c-10.8,0.4-21.7,0.5-32.4,0.5c-383.9,0-725.3-214.6-890.9-560c-35.9-74-64.3-162.4-80.2-248.9c-46.7-116.6-71.4-244.1-71.4-368.6
	v-148c0-544.9,443.3-988.2,988.2-988.2h279.5c544.9,0,988.2,443.3,988.2,988.2v148c0,102.9-20.4,221.3-55.9,325
	c-14.9,77.3-40.5,158.4-72,228.3c-144.8,378.8-502.2,623.6-910.5,623.6h-3.9c-4,0-8,0-12-0.1c-3.8,0.1-7.7,0.1-11.4,0.1
	C347.5,1507.3,335.3,1507.4,327.6,1507.4L327.6,1507.4z"/>
<path fill="#2371B9" d="M327.6,1494.9c-7.9,0-16-0.1-24.1-0.3c-8.1,0.2-16.2,0.3-24.2,0.3c-10.7,0-21.6-0.2-32.4-0.5
	c-10.8,0.4-21.7,0.5-32.4,0.5c-379.1,0-716.1-211.9-879.6-552.9c-35.6-73.5-63.8-161.2-79.4-247c-46.4-115.5-71-241.7-71-365.1v-148
	c0-538,437.7-975.7,975.7-975.7h279.5c538,0,975.7,437.7,975.7,975.7v148c0,101.9-20.2,219.1-55.5,321.8
	c-14.7,76.8-40.1,157.3-71.5,226.7c-142.8,374.2-495.7,615.9-899,615.9h-3.9c-4,0-8,0-12-0.1c-3.9,0.1-7.8,0.1-11.6,0.1
	C347.4,1494.8,335.2,1494.9,327.6,1494.9L327.6,1494.9z"/>
<path fill="#00A3E2" d="M327.6,1482.4c-8,0-16.1-0.1-24.1-0.3c-8.1,0.2-16.2,0.3-24.2,0.3c-10.7,0-21.6-0.2-32.4-0.6
	c-10.8,0.4-21.7,0.6-32.4,0.6c-374.2,0-707-209.1-868.3-545.8c-35.3-72.9-63.2-159.9-78.6-245.1c-46.1-114.3-70.5-239.4-70.5-361.7
	v-148c0-531.1,432.1-963.2,963.2-963.2h279.5c531.1,0,963.2,432.1,963.2,963.2v148c0,100.9-20.1,216.9-55.1,318.6
	c-14.5,76.3-39.7,156.2-70.9,225.1C1136,1243,787.7,1481.8,389.5,1481.8h-3.9c-4,0-8,0-12-0.1c-3.9,0.1-7.9,0.1-11.9,0.1
	C347.3,1482.3,335.2,1482.4,327.6,1482.4L327.6,1482.4z"/>
<path fill="#2371B9" d="M327.6,1469.9c-8,0-16.1-0.1-24.1-0.3c-18.9,0.5-37.7,0.4-56.6-0.3c-10.8,0.4-21.7,0.6-32.4,0.6
	c-369.4,0-697.8-206.4-857.1-538.7c-35-72.3-62.6-158.7-77.8-243.2c-45.9-113.2-70.1-237-70.1-358.2v-148
	c0-524.2,426.5-950.7,950.7-950.7h279.5c524.2,0,950.7,426.5,950.7,950.7v148c0,99.8-19.9,214.7-54.7,315.4
	c-14.4,75.8-39.3,155.1-70.3,223.5c-139,364.8-482.7,600.5-875.9,600.5h-3.9c-4,0-8,0-12-0.1c-4,0.1-8,0.1-11.9,0.1h-0.1
	C347.1,1469.8,335.1,1469.9,327.6,1469.9L327.6,1469.9z"/>
<path fill="#00A3E2" d="M327.6,1457.4c-8,0-16.1-0.1-24.1-0.3c-8.1,0.2-16.2,0.3-24.2,0.3c-10.7,0-21.6-0.2-32.4-0.6
	c-10.8,0.4-21.7,0.6-32.4,0.6c-364.5,0-688.6-203.7-845.8-531.6c-34.8-71.8-62.1-157.4-77-241.3c-45.6-112-69.7-234.7-69.7-354.7
	v-148c0-517.3,420.9-938.2,938.2-938.2h279.5c517.3,0,938.2,420.9,938.2,938.2v148c0,98.8-19.8,212.5-54.3,312.1
	c-14.2,75.2-38.9,154-69.8,222c-137,360.1-476.3,592.8-864.3,592.8h-3.9c-4,0-8.1,0-12-0.1c-3.9,0.1-8,0.1-11.9,0.1h-0.4
	C347,1457.3,335.1,1457.4,327.6,1457.4z"/>
<path fill="#2371B9" d="M327.6,1444.9c-8,0-16.1-0.1-24.1-0.3c-8.1,0.2-16.2,0.3-24.2,0.3c-10.7,0-21.6-0.2-32.4-0.6
	c-10.8,0.4-21.7,0.6-32.4,0.6c-359.7,0-679.4-201-834.5-524.5c-34.5-71.2-61.5-156.2-76.2-239.3c-45.3-110.9-69.3-232.3-69.3-351.2
	v-148c0-510.4,415.3-925.7,925.7-925.7h279.5c510.4,0,925.7,415.3,925.7,925.7v148c0,97.8-19.7,210.4-53.9,308.9
	c-14,74.7-38.6,152.9-69.2,220.4c-135.1,355.5-469.8,585.1-852.8,585.1h-3.9c-4.1,0-8.1,0-11.9-0.1c-3.9,0.1-7.9,0.1-11.9,0.1h-0.6
	C346.9,1444.8,335,1444.9,327.6,1444.9L327.6,1444.9z"/>
<path fill="#00A3E2" d="M327.6,1432.4c-8,0-16.1-0.1-24.1-0.3c-8,0.2-16.2,0.3-24.2,0.3c-10.7,0-21.6-0.2-32.4-0.6
	c-10.8,0.4-21.7,0.6-32.4,0.6c-354.8,0-670.3-198.3-823.2-517.4c-34.2-70.7-61-154.9-75.4-237.4c-45-109.8-68.8-230-68.8-347.7v-148
	c0-503.5,409.7-913.2,913.2-913.2h279.5c503.5,0,913.2,409.7,913.2,913.2v148c0,96.8-19.5,208.2-53.5,305.7
	c-13.8,74.2-38.2,151.8-68.6,218.8c-133.1,350.8-463.3,577.4-841.2,577.4h-3.9c-4,0-8.1,0-11.9-0.1c-3.9,0.1-7.9,0.1-11.9,0.1H361
	C346.7,1432.3,335,1432.4,327.6,1432.4L327.6,1432.4z"/>
<path fill="#2371B9" d="M327.6,1419.9c-8,0-16.1-0.1-24.1-0.3c-8,0.2-16.2,0.3-24.2,0.3c-10.7,0-21.6-0.2-32.4-0.6
	c-10.8,0.4-21.6,0.6-32.4,0.6c-350,0-661.1-195.5-812-510.3c-33.9-70.1-60.4-153.7-74.5-235.5c-44.8-108.6-68.4-227.6-68.4-344.2
	v-148c0-496.6,404-900.7,900.7-900.7h279.5c496.7,0,900.7,404,900.7,900.7v148c0,95.8-19.4,206-53.2,302.5
	c-13.6,73.7-37.8,150.7-68.1,217.2c-131.2,346.1-456.8,569.7-829.7,569.7h-3.9c-4,0-8,0-12-0.1c-3.9,0.1-7.9,0.1-11.9,0.1h-1
	C346.6,1419.8,334.9,1419.9,327.6,1419.9L327.6,1419.9z"/>
<path fill="#00A3E2" d="M327.6,1407.4c-8,0-16.1-0.1-24.1-0.3c-18.9,0.5-37.7,0.4-56.6-0.3c-10.8,0.4-21.7,0.6-32.4,0.6
	c-345.1,0-651.9-192.8-800.7-503.2c-33.7-69.5-59.8-152.4-73.7-233.6c-44.5-107.5-68-225.3-68-340.7v-148
	c0-489.8,398.5-888.2,888.2-888.2h279.5c489.8,0,888.2,398.5,888.2,888.2v148c0,94.8-19.2,203.8-52.8,299.3
	c-13.5,73.1-37.4,149.6-67.5,215.6c-129.2,341.5-450.3,562-818.2,562h-3.9c-4,0-8,0-12-0.1c-3.9,0.1-7.9,0.1-11.9,0.1h-1.2
	C346.5,1407.3,334.9,1407.4,327.6,1407.4L327.6,1407.4z"/>
<path fill="#2371B9" d="M327.6,1394.9c-8,0-16.1-0.1-24.1-0.3c-8,0.2-16.2,0.3-24.2,0.3c-10.7,0-21.6-0.2-32.4-0.6
	c-10.8,0.4-21.7,0.6-32.4,0.6c-340.2,0-642.7-190.1-789.4-496.1c-33.4-69-59.3-151.2-72.9-231.7c-44.2-106.3-67.6-222.9-67.6-337.3
	v-148c0-482.9,392.8-875.7,875.7-875.7h279.5c482.9,0,875.7,392.8,875.7,875.7v148c0,93.8-19.1,201.6-52.4,296
	c-13.3,72.6-37,148.6-66.9,214c-127.3,336.8-443.9,554.4-806.6,554.4h-3.9c-4,0-8,0-12-0.1c-3.9,0.1-7.9,0.1-11.9,0.1h-1.5
	C346.4,1394.8,334.8,1394.9,327.6,1394.9L327.6,1394.9z"/>
<path fill="#00A3E2" d="M327.6,1382.4c-8,0-16.1-0.1-24.1-0.3c-8,0.2-16.2,0.3-24.2,0.3c-10.7,0-21.6-0.2-32.4-0.6
	c-10.8,0.4-21.7,0.6-32.4,0.6c-335.4,0-633.6-187.4-778.2-489c-33.1-68.4-58.7-149.9-72.1-229.8c-43.9-105.2-67.2-220.6-67.2-333.8
	v-148c0-476,387.2-863.2,863.2-863.2h279.5c476,0,863.2,387.2,863.2,863.2v148c0,92.8-18.9,199.5-52,292.8
	c-13.1,72.1-36.6,147.5-66.3,212.4c-125.4,332.1-437.4,546.7-795.1,546.7h-3.9c-4,0-8.1,0-12-0.1c-3.9,0.1-7.9,0.1-11.9,0.1h-1.7
	C346.3,1382.3,334.8,1382.4,327.6,1382.4L327.6,1382.4z"/>
<path fill="#2371B9" d="M327.6,1369.9c-8,0-16.1-0.1-24.1-0.3c-8,0.2-16.2,0.3-24.2,0.3c-10.7,0-21.6-0.2-32.4-0.6
	c-10.8,0.4-21.7,0.6-32.4,0.6c-330.5,0-624.4-184.7-766.9-481.9c-32.8-67.8-58.2-148.7-71.3-227.8c-43.7-104-66.8-218.2-66.8-330.3
	v-148c0-469.1,381.6-850.7,850.7-850.7h279.5c469.1,0,850.7,381.6,850.7,850.7v148c0,91.8-18.8,197.3-51.6,289.6
	c-12.9,71.6-36.2,146.4-65.8,210.8c-123.4,327.4-430.9,539-783.5,539h-3.9c-4,0-8.1,0-12-0.1c-3.9,0.1-7.9,0.1-11.9,0.1h-1.9
	C346.1,1369.8,334.7,1369.9,327.6,1369.9L327.6,1369.9z"/>
<path fill="#00A3E2" d="M327.6,1357.4c-8,0-16.1-0.1-24.1-0.3c-8,0.2-16.2,0.3-24.2,0.3c-10.7,0-21.6-0.2-32.4-0.6
	c-10.8,0.4-21.7,0.6-32.4,0.6c-325.7,0-615.2-181.9-755.6-474.8c-32.6-67.3-57.6-147.5-70.5-225.9
	c-43.4-102.9-66.3-215.9-66.3-326.8v-148c0-462.2,376-838.2,838.2-838.2h279.5c462.2,0,838.2,376,838.2,838.2v148
	c0,90.8-18.7,195.1-51.3,286.4c-12.7,71-35.8,145.3-65.2,209.2c-121.4,322.8-424.4,531.3-772,531.3h-3.9c-4,0-8,0-12-0.1
	c-3.9,0.1-7.9,0.1-11.9,0.1h-2.1C346,1357.3,334.7,1357.4,327.6,1357.4L327.6,1357.4z"/>
<path fill="#2371B9" d="M327.6,1344.9c-8,0-16.1-0.1-24.1-0.4c-8,0.2-16.2,0.4-24.2,0.4c-10.6,0-21.5-0.2-32.2-0.6h-0.4
	c-10.7,0.4-21.6,0.6-32.2,0.6c-320.8,0-606-179.2-744.3-467.7c-32.3-66.7-57-146.2-69.6-224c-43.2-101.8-66-213.5-66-323.3v-148
	c0-455.3,370.4-825.7,825.7-825.7h279.5c455.3,0,825.7,370.4,825.7,825.7v148c0,89.8-18.5,192.9-50.9,283.1
	c-12.5,70.5-35.4,144.2-64.6,207.7c-119.5,318.1-417.9,523.6-760.4,523.6h-3.9c-4,0-8,0-12-0.1c-3.9,0.1-8,0.1-11.9,0.1h-2.4
	C345.9,1344.8,334.6,1344.9,327.6,1344.9L327.6,1344.9z"/>
<path fill="#00A3E2" d="M327.6,1332.4c-8,0-16.1-0.1-24.1-0.4c-8,0.2-16.2,0.4-24.2,0.4c-10.6,0-21.3-0.2-32-0.6h-0.9
	c-10.6,0.4-21.4,0.6-32,0.6c-316,0-596.9-176.5-733.1-460.6c-32-66.2-56.5-145-68.8-222.1c-42.9-100.6-65.5-211.1-65.5-319.8v-148
	c0-448.4,364.8-813.2,813.2-813.2h279.5c448.4,0,813.2,364.8,813.2,813.2v148c0,88.8-18.4,190.8-50.5,279.9
	c-12.3,70-35.1,143.1-64,206.1c-117.6,313.5-411.5,515.9-748.9,515.9h-3.9c-4,0-8,0-12-0.1c-3.9,0.1-8,0.1-11.9,0.1h-2.6
	C345.7,1332.3,334.6,1332.4,327.6,1332.4L327.6,1332.4z"/>
<path fill="#2371B9" d="M327.6,1319.9c-8,0-16.1-0.1-24.1-0.4c-8.1,0.3-16.2,0.4-24.2,0.4c-10.5,0-21.1-0.2-31.7-0.6h-1.3
	c-10.6,0.4-21.3,0.6-31.7,0.6c-311.1,0-587.7-173.8-721.8-453.5c-31.8-65.6-55.9-143.7-68-220.2c-42.6-99.4-65.2-208.8-65.2-316.3
	v-148c0-441.5,359.2-800.7,800.7-800.7h279.5c441.5,0,800.7,359.2,800.7,800.7v148c0,87.8-18.3,188.6-50.1,276.7
	c-12.2,69.5-34.7,142-63.4,204.5c-115.6,308.8-405,508.2-737.3,508.2h-3.9c-4,0-8,0-12-0.1c-4,0.1-8,0.1-11.9,0.1h-2.9
	C345.6,1319.8,334.5,1319.9,327.6,1319.9L327.6,1319.9z"/>
<path fill="#00A3E2" d="M327.6,1307.4c-8,0-16.1-0.1-24.1-0.4c-8.1,0.3-16.2,0.4-24.2,0.4c-10.4,0-21-0.2-31.5-0.6H246
	c-10.5,0.4-21.1,0.6-31.5,0.6c-306.3,0-578.5-171.1-710.5-446.5c-31.5-65-55.3-142.5-67.2-218.3c-42.4-98.3-64.8-206.4-64.8-312.8
	v-148c0-434.6,353.6-788.2,788.2-788.2h279.5c434.6,0,788.2,353.6,788.2,788.2v148c0,86.8-18.1,186.4-49.8,273.5
	c-11.9,69-34.3,140.9-62.9,202.9c-113.7,304.1-398.5,500.6-725.8,500.6h-3.9c-4,0-8,0-12-0.1c-4,0.1-8,0.1-11.9,0.1h-3.1
	C345.5,1307.3,334.5,1307.4,327.6,1307.4L327.6,1307.4z"/>
<path fill="#2371B9" d="M327.6,1294.9c-8,0-16.1-0.1-24.1-0.4c-8.1,0.3-16.2,0.4-24.2,0.4c-10.3,0-20.8-0.2-31.2-0.6h-2.3
	c-10.4,0.4-20.9,0.6-31.2,0.6c-301.4,0-569.3-168.3-699.3-439.3c-31.2-64.5-54.8-141.3-66.3-216.4c-42.1-97.1-64.4-204-64.4-309.3
	v-148c0-427.7,348-775.7,775.7-775.7h279.5c427.7,0,775.7,348,775.7,775.7v148c0,85.8-18,184.2-49.4,270.2
	c-11.8,68.4-33.8,139.9-62.3,201.3c-111.7,299.4-392,492.9-714.3,492.9h-3.9c-3.9,0-8,0-12-0.1c-4,0.1-8,0.1-11.9,0.1h-3.3
	C345.3,1294.8,334.4,1294.9,327.6,1294.9L327.6,1294.9z"/>
<path fill="#00A3E2" d="M327.6,1282.4c-8,0-16.1-0.1-24.1-0.4c-8.1,0.3-16.2,0.4-24.2,0.4c-10.2,0-20.6-0.2-31-0.6h-2.9
	c-10.3,0.4-20.8,0.6-31,0.6c-296.5,0-560.2-165.6-688-432.3c-31-63.9-54.2-140-65.5-214.5c-41.9-96-64-201.7-64-305.8v-148
	c0-420.8,342.4-763.2,763.2-763.2h279.5c420.8,0,763.2,342.4,763.2,763.2v148c0,84.8-17.8,182-49,267
	c-11.6,67.9-33.4,138.8-61.7,199.7c-109.8,294.8-385.5,485.2-702.7,485.2h-3.9c-3.9,0-7.9,0-12-0.1c-4,0.1-8,0.1-11.9,0.1h-3.6
	C345.2,1282.3,334.4,1282.4,327.6,1282.4L327.6,1282.4z"/>
<path fill="#2371B9" d="M327.6,1269.9c-7.9,0-16-0.1-24.1-0.4c-8.1,0.3-16.2,0.4-24.2,0.4c-10.1,0-20.5-0.2-30.7-0.6h-3.4
	c-10.3,0.4-20.6,0.6-30.7,0.6c-291.7,0-551-162.9-676.7-425.2c-30.7-63.4-53.6-138.8-64.6-212.5c-41.6-94.8-63.6-199.3-63.6-302.3
	v-148c0-413.9,336.8-750.7,750.7-750.7h279.5c413.9,0,750.7,336.8,750.7,750.7v148c0,83.8-17.7,179.9-48.6,263.8
	c-11.4,67.4-33,137.7-61.1,198.1c-107.8,290.1-379.1,477.5-691.2,477.5h-3.9c-3.9,0-8,0-12-0.1c-4,0.1-8,0.1-11.9,0.1H358
	C345.1,1269.8,334.3,1269.9,327.6,1269.9L327.6,1269.9z"/>
<path fill="#00A3E2" d="M327.6,1257.4c-7.9,0-16-0.1-24.1-0.4c-8.1,0.3-16.2,0.4-24.2,0.4c-10.1,0-20.3-0.2-30.4-0.6H245
	c-10.2,0.4-20.4,0.6-30.5,0.6c-286.8,0-541.8-160.2-665.4-418.1c-30.4-62.8-53-137.6-63.8-210.6c-41.3-93.7-63.2-197-63.2-298.8
	v-148c0-407,331.2-738.2,738.2-738.2h279.5c407,0,738.2,331.2,738.2,738.2v148c0,82.8-17.6,177.7-48.3,260.6
	c-11.2,66.9-32.6,136.6-60.5,196.5c-105.9,285.4-372.6,469.8-679.6,469.8h-3.9c-3.9,0-7.9,0-12-0.1c-4,0.1-8,0.1-11.9,0.1h-4.1
	C344.9,1257.3,334.3,1257.4,327.6,1257.4L327.6,1257.4z"/>
<path fill="#2371B9" d="M327.6,1244.9c-7.9,0-16-0.1-24.1-0.4c-8.1,0.3-16.2,0.4-24.2,0.4c-10,0-20.1-0.2-30.2-0.6h-4.4
	c-10.1,0.4-20.2,0.6-30.2,0.6c-282,0-532.7-157.5-654.2-411c-30.1-62.2-52.5-136.3-62.9-208.7c-41.1-92.5-62.8-194.6-62.8-295.3
	v-148c0-400.1,325.5-725.7,725.7-725.7h279.5c400.1,0,725.7,325.5,725.7,725.7v148c0,81.8-17.4,175.5-47.9,257.3
	c-11,66.3-32.2,135.5-59.9,194.9c-103.9,280.8-366.1,462.1-668.1,462.1h-3.9c-3.9,0-7.9,0-12-0.1c-4,0.1-8,0.1-11.9,0.1h-4.3
	C344.8,1244.8,334.2,1244.9,327.6,1244.9L327.6,1244.9z"/>
<path fill="#00A3E2" d="M327.6,1232.4c-7.9,0-16-0.1-24.1-0.4c-8.1,0.3-16.2,0.4-24.2,0.4c-9.9,0-20-0.2-29.9-0.6h-4.9
	c-10,0.4-20.1,0.6-29.9,0.6c-277.1,0-523.5-154.8-642.9-403.9c-29.9-61.7-51.9-135.1-62.1-206.8c-40.9-91.4-62.4-192.2-62.4-291.8
	v-148c0-393.3,319.9-713.2,713.2-713.2h279.5c393.3,0,713.2,319.9,713.2,713.2v148c0,80.8-17.3,173.3-47.5,254.1
	c-10.8,65.8-31.8,134.4-59.3,193.3c-102,276.1-359.6,454.5-656.5,454.5h-3.9c-3.9,0-8,0-12-0.1c-4,0.1-8,0.1-11.9,0.1h-4.6
	C344.6,1232.3,334.2,1232.4,327.6,1232.4L327.6,1232.4z"/>
<path fill="#2371B9" d="M327.6,1219.9c-7.9,0-16-0.1-24.1-0.4c-8.1,0.3-16.2,0.4-24.2,0.4c-9.8,0-19.8-0.2-29.7-0.6h-5.4
	c-9.9,0.4-19.9,0.6-29.7,0.6c-272.3,0-514.3-152-631.6-396.8c-29.6-61.1-51.3-133.8-61.2-204.9c-40.6-90.2-62.1-189.9-62.1-288.3
	v-148c0-386.4,314.3-700.7,700.7-700.7h279.5c386.4,0,700.7,314.3,700.7,700.7v148c0,79.8-17.2,171.2-47.2,250.9
	c-10.5,65.3-31.4,133.3-58.8,191.8c-100,271.4-353.2,446.8-645,446.8h-3.9c-3.9,0-7.9,0-12-0.1c-4,0.1-8,0.1-11.9,0.1h-4.8
	C344.5,1219.8,334.1,1219.9,327.6,1219.9L327.6,1219.9z"/>
<path fill="#00A3E2" d="M327.6,1207.4c-8,0-16.1-0.1-24.1-0.4c-8.1,0.3-16.2,0.4-24.2,0.4c-9.7,0-19.6-0.2-29.4-0.6h-6
	c-9.8,0.4-19.7,0.6-29.4,0.6c-267.4,0-505.1-149.3-620.3-389.7c-29.3-60.6-50.8-132.6-60.4-203c-40.4-89-61.7-187.5-61.7-284.8v-148
	c0-379.5,308.7-688.2,688.2-688.2h279.5c379.5,0,688.2,308.7,688.2,688.2v148c0,78.8-17.1,169-46.8,247.6
	c-10.3,64.8-31,132.2-58.2,190.2l0,0c-98.1,266.7-346.7,439.1-633.4,439.1h-3.9c-3.9,0-7.9,0-12-0.1c-4,0.1-8,0.1-11.9,0.1h-5.1
	C344.3,1207.3,334.1,1207.4,327.6,1207.4z"/>
<path fill="#2371B9" d="M327.6,1194.9c-7.9,0-16-0.2-24.1-0.4c-8.1,0.3-16.2,0.4-24.2,0.4c-9.6,0-19.4-0.2-29.1-0.6h-6.5
	c-9.7,0.4-19.5,0.6-29.1,0.6c-262.6,0-496-146.6-609.1-382.6c-29.1-60-50.2-131.4-59.5-201.1c-40.1-87.9-61.4-185.1-61.4-281.3v-148
	c0-372.6,303.1-675.7,675.7-675.7h279.5c372.6,0,675.7,303.1,675.7,675.7v148c0,77.8-16.9,166.8-46.5,244.4
	c-10.1,64.2-30.5,131.1-57.5,188.5l-0.2,0.5c-96.3,261.8-340.3,430.9-621.7,430.9h-3.9c-3.9,0-8,0-12-0.1c-4,0.1-8,0.1-11.9,0.1
	h-5.4C346.8,1194.7,337.2,1194.9,327.6,1194.9L327.6,1194.9z"/>
<path fill="#00A3E2" d="M327.6,1182.4c-7.9,0-16-0.2-24.1-0.4c-8.1,0.3-16.2,0.4-24.2,0.4c-9.5,0-19.2-0.2-28.9-0.6h-7.1
	c-9.6,0.4-19.4,0.6-28.9,0.6c-257.7,0-486.8-143.9-597.8-375.5c-28.8-59.5-49.6-130.2-58.6-199.2c-39.9-86.7-61-182.7-61-277.8v-148
	c0-365.7,297.5-663.2,663.2-663.2h279.5c365.7,0,663.2,297.5,663.2,663.2v148c0,76.8-16.8,164.6-46.1,241.2
	c-9.9,63.7-30.1,130-56.9,186.9l-0.4,1.1c-94.4,256.8-333.8,422.8-610,422.8h-3.9c-3.9,0-7.9,0-12-0.1c-4,0.1-8,0.1-11.9,0.1h-5.6
	C344,1182.3,333.9,1182.4,327.6,1182.4L327.6,1182.4z"/>
<path fill="#2371B9" d="M327.6,1169.9c-7.9,0-16-0.2-24.1-0.4c-8.1,0.3-16.2,0.4-24.2,0.4c-9.4,0-19-0.2-28.6-0.6h-7.6
	c-9.6,0.4-19.2,0.6-28.6,0.6c-252.9,0-477.6-141.2-586.5-368.4c-28.5-58.9-49-128.9-57.7-197.3c-39.7-85.5-60.7-180.4-60.7-274.3
	v-148c0-358.8,291.9-650.7,650.7-650.7h279.5c358.8,0,650.7,291.9,650.7,650.7v148c0,75.8-16.7,162.5-45.8,238
	c-9.7,63.1-29.6,128.8-56.3,185.2l-0.6,1.6c-92.6,251.9-327.4,414.7-598.3,414.7h-3.9c-3.9,0-7.9,0-12-0.1c-4,0.1-8,0.1-11.9,0.1
	h-5.9C343.9,1169.8,333.9,1169.9,327.6,1169.9L327.6,1169.9z"/>
<path fill="#00A3E2" d="M327.6,1157.4c-7.9,0-16-0.2-24.1-0.5c-8.1,0.3-16.2,0.5-24.2,0.5c-9.3,0-18.9-0.2-28.3-0.6h-8.1
	c-9.5,0.4-19,0.6-28.3,0.6c-248,0-468.4-138.4-575.3-361.3c-28.3-58.4-48.4-127.7-56.9-195.4c-39.5-84.4-60.3-178-60.3-270.8v-148
	c0-351.9,286.3-638.2,638.2-638.2h279.5c351.9,0,638.2,286.3,638.2,638.2v148c0,74.8-16.5,160.3-45.4,234.7
	c-9.5,62.6-29.2,127.7-55.6,183.6l-0.8,2c-90.8,247-321,406.6-586.6,406.6h-3.9c-3.9,0-7.9,0-12-0.1c-4,0.1-8,0.1-11.9,0.1h-6.2
	C343.7,1157.3,333.8,1157.4,327.6,1157.4L327.6,1157.4z"/>
<path fill="#2371B9" d="M327.6,1144.9c-7.9,0-16-0.2-24.1-0.5c-8.1,0.3-16.2,0.5-24.2,0.5c-9.3,0-18.7-0.2-28.1-0.6h-8.7
	c-9.4,0.4-18.8,0.6-28.1,0.6c-243.1,0-459.3-135.7-564-354.2c-28-57.8-47.9-126.5-56-193.5c-39.2-83.2-60-175.6-60-267.3v-148
	c0-345,280.7-625.7,625.7-625.7h279.5c345,0,625.7,280.7,625.7,625.7v148c0,73.9-16.4,158.1-45.1,231.5c-9.2,62-28.7,126.6-55,181.9
	l-1,2.6c-88.9,242-314.6,398.4-574.9,398.4h-3.9c-3.9,0-8,0-12-0.1c-4,0.1-8,0.1-11.9,0.1h-6.4
	C343.6,1144.8,333.8,1144.9,327.6,1144.9L327.6,1144.9z"/>
<path fill="#00A3E2" d="M327.6,1132.4c-8,0-16.1-0.2-24.1-0.5c-8.1,0.3-16.2,0.5-24.2,0.5c-9.2,0-18.5-0.2-27.8-0.6
	c-0.7,0-1.4,0-2.1,0h-7.1c-9.3,0.4-18.7,0.6-27.8,0.6c-238.3,0-450.1-133-552.7-347.1c-27.6-57-47.1-124.7-55-190.7
	c-0.1-0.5-0.2-0.9-0.3-1.4c-38.9-81.9-59.4-173-59.4-263.4v-148c0-338.1,275.1-613.2,613.2-613.2h279.5
	c338.1,0,613.2,275.1,613.2,613.2v148c0,72.9-16.3,156-44.7,228.3c-9,61.5-28.3,125.4-54.4,180.3l-1.2,3.1
	c-87.1,237.1-308.1,390.3-563.2,390.3h-3.9c-3.9,0-7.9,0-12-0.1c-4,0.1-8,0.1-11.9,0.1H355C343.4,1132.3,333.7,1132.4,327.6,1132.4
	L327.6,1132.4z"/>
<path fill="#2371B9" d="M327.6,1119.9c-8,0-16.1-0.2-24.1-0.5c-17.2,0.7-34.5,0.7-51.7-0.2c-0.8,0-1.6,0-2.4,0h-5
	c-0.8,0-1.5,0-2.3,0c-9.2,0.4-18.5,0.6-27.6,0.6c-233.4,0-440.9-130.3-541.4-340c-27.1-56-46.2-122.5-53.9-187.4
	c-0.3-1.1-0.5-2.2-0.8-3.3c-38.5-80.6-58.8-170.2-58.8-259.3v-148c0-331.2,269.5-600.7,600.7-600.7h279.5
	c331.2,0,600.7,269.5,600.7,600.7v148c0,71.9-16.2,153.8-44.4,225c-8.8,60.9-27.8,124.3-53.7,178.6l-1.4,3.7
	c-85.3,232.1-301.7,382.1-551.4,382.1h-3.9c-3.9,0-7.9,0-12-0.1c-4,0.1-8,0.1-11.9,0.1h-7C343.3,1119.8,333.6,1119.9,327.6,1119.9
	L327.6,1119.9z"/>
<path fill="#00A3E2" d="M327.6,1107.4c-8,0-16.1-0.2-24.1-0.5c-8,0.3-16.2,0.5-24.2,0.5c-9,0-18.2-0.2-27.3-0.6c-0.9,0-1.8,0-2.6,0
	h-5c-0.9,0-1.7,0-2.6,0c-9.1,0.4-18.3,0.6-27.3,0.6c-228.6,0-431.7-127.6-530.2-332.9c-26.6-55-45.4-120.4-52.8-184.2
	c-0.4-1.7-0.8-3.5-1.2-5.3c-38.1-79.2-58.2-167.4-58.2-255.1v-148c0-324.3,263.9-588.2,588.2-588.2h279.5
	c324.3,0,588.2,263.9,588.2,588.2v148c0,70.9-16,151.6-44,221.8c-8.5,60.4-27.3,123.1-53,176.9l-1.6,4.2
	c-83.4,227.2-295.3,374-539.7,374h-3.9c-3.9,0-7.9,0-12-0.1c-4,0.1-8,0.1-11.9,0.1h-7.3C343.1,1107.3,333.6,1107.4,327.6,1107.4
	L327.6,1107.4z"/>
<path fill="#2371B9" d="M327.6,1094.9c-8,0-16.1-0.2-24.1-0.5c-8.1,0.3-16.2,0.5-24.2,0.5c-8.9,0-18-0.2-27-0.6c-1,0-1.9,0-2.9,0h-5
	c-0.9,0-1.9,0-2.8,0c-9.1,0.4-18.1,0.6-27.1,0.6c-223.7,0-422.6-124.8-518.9-325.8c-26.2-54-44.5-118.3-51.8-181
	c-0.6-2.4-1.1-4.8-1.7-7.3c-37.7-77.9-57.6-164.6-57.6-251v-148c0-317.4,258.3-575.7,575.7-575.7h279.5
	c317.4,0,575.7,258.3,575.7,575.7v148c0,69.9-15.9,149.5-43.7,218.5c-8.3,59.8-26.8,122-52.4,175.3l-1.8,4.7
	c-81.6,222.3-288.9,365.9-528,365.9h-3.9c-3.9,0-7.9,0-12-0.1c-4,0.1-8,0.1-11.9,0.1h-7.5C342.9,1094.8,333.5,1094.9,327.6,1094.9
	L327.6,1094.9z"/>
<path fill="#00A3E2" d="M327.6,1082.4c-8,0-16.1-0.2-24.1-0.5c-17,0.7-34,0.7-51-0.1c-1.1,0-2.1,0-3.1,0h-5c-1,0-2,0-3.1,0
	c-9,0.4-18,0.6-26.8,0.6c-218.9,0-413.4-122.1-507.6-318.7c-25.7-53.1-43.7-116.2-50.7-177.7c-0.7-3-1.4-6.2-2.1-9.3
	c-37.3-76.5-57-161.9-57-246.8v-148c0-310.5,252.6-563.2,563.2-563.2h279.5c310.6,0,563.2,252.6,563.2,563.2v148
	c0,68.9-15.8,147.3-43.4,215.3c-8,59.3-26.4,120.8-51.7,173.6l-2,5.2c-79.8,217.3-282.5,357.8-516.3,357.8h-3.9c-3.9,0-7.9,0-12-0.1
	c-4,0.1-8,0.1-11.9,0.1H354C342.8,1082.3,333.5,1082.4,327.6,1082.4L327.6,1082.4z"/>
<path fill="#2371B9" d="M327.6,1069.9c-7.9,0-16-0.2-24.1-0.5c-8.1,0.4-16.2,0.5-24.2,0.5c-8.8,0-17.7-0.2-26.5-0.6
	c-1.1,0-2.3,0-3.4,0h-5c-1.1,0-2.2,0-3.3,0c-8.9,0.4-17.8,0.6-26.6,0.6c-214,0-404.2-119.4-496.4-311.6
	c-25.2-52.1-42.9-114-49.6-174.5c-0.9-3.8-1.8-7.5-2.6-11.3c-36.9-75.2-56.4-159.1-56.4-242.7v-148c0-303.7,247-550.7,550.7-550.7
	h279.5c303.7,0,550.7,247,550.7,550.7v148c0,67.9-15.7,145.1-43.1,212.1c-7.8,58.7-25.9,119.7-51,171.9l-2.2,5.7
	c-78,212.4-276.1,349.7-504.6,349.7h-3.9c-3.9,0-7.9,0-12-0.1c-4,0.1-8,0.1-11.9,0.1h-5.5c-0.9,0-1.7,0-2.6,0
	C342.6,1069.8,333.4,1069.9,327.6,1069.9L327.6,1069.9z"/>
<path fill="#00A3E2" d="M327.6,1057.4c-8,0-16.1-0.2-24.1-0.6c-8.1,0.4-16.2,0.6-24.2,0.6c-8.7,0-17.5-0.2-26.3-0.7
	c-1.2,0-2.4,0-3.7,0h-5c-1.2,0-2.4,0-3.6,0c-8.8,0.4-17.6,0.7-26.3,0.7c-209.2,0-395-116.7-485.1-304.5
	c-24.8-51.1-42-111.9-48.6-171.2c-1-4.3-2.1-8.8-3-13.3c-36.5-73.9-55.7-156.3-55.7-238.5v-148c0-296.8,241.4-538.2,538.2-538.2
	h279.5c296.8,0,538.2,241.4,538.2,538.2v148c0,67-15.6,143-42.8,208.8c-7.5,58.1-25.4,118.5-50.4,170.2l-2.3,6.2
	c-76.2,207.5-269.7,341.6-492.9,341.6h-3.9c-3.9,0-7.9-0.1-12-0.1c-4,0.1-8,0.1-11.9,0.1h-5.5c-1,0-1.9,0-2.9,0
	C342.5,1057.3,333.4,1057.4,327.6,1057.4L327.6,1057.4z"/>
<path fill="#2371B9" d="M327.6,1044.9c-8,0-16-0.2-24.1-0.6c-8.1,0.4-16.2,0.6-24.2,0.6c-8.6,0-17.3-0.2-26-0.7c-1.3,0-2.6,0-3.9,0
	h-5c-1.3,0-2.6,0-3.8,0c-8.7,0.4-17.5,0.7-26,0.7c-204.3,0-385.9-114-473.8-297.4c-24.3-50.1-41.1-109.8-47.5-168
	c-1.2-4.9-2.4-10.1-3.5-15.3c-36.1-72.5-55.1-153.5-55.1-234.4v-148c0-289.9,235.8-525.7,525.7-525.7h279.5
	c289.9,0,525.7,235.8,525.7,525.7v148c0,66-15.5,140.8-42.4,205.6c-7.2,57.6-24.8,117.3-49.7,168.5l-2.5,6.8
	c-74.4,202.6-263.3,333.5-481.2,333.5h-3.9c-3.9,0-7.9-0.1-12-0.1c-4,0.1-8,0.1-11.9,0.1h-5.5c-1,0-2.1,0-3.1,0
	C342.3,1044.8,333.3,1044.9,327.6,1044.9L327.6,1044.9z"/>
<path fill="#00A3E2" d="M327.6,1032.4c-8,0-16.1-0.2-24.1-0.6c-8.1,0.4-16.2,0.6-24.2,0.6c-8.5,0-17.1-0.2-25.7-0.7
	c-1.4,0-2.8,0-4.2,0h-5c-1.4,0-2.7,0-4.1,0c-8.6,0.4-17.3,0.7-25.8,0.7C15,1032.4-162.2,921.1-248,742.1
	c-23.8-49.2-40.3-107.7-46.5-164.7c-1.4-5.6-2.7-11.5-3.9-17.3c-35.7-71.2-54.5-150.7-54.5-230.2v-148
	c0-283,230.2-513.2,513.2-513.2h279.5c283,0,513.2,230.2,513.2,513.2v148c0,65-15.3,138.6-42.1,202.3c-7,57-24.3,116.2-49,166.8
	l-2.8,7.3c-72.6,197.7-256.9,325.4-469.5,325.4h-3.9c-3.9,0-7.9-0.1-12-0.1c-4,0.1-8,0.1-11.9,0.1h-5.5c-1.1,0-2.3,0-3.4,0
	C342.2,1032.3,333.2,1032.4,327.6,1032.4L327.6,1032.4z"/>
<path fill="#2371B9" d="M327.6,1019.9c-8,0-16.1-0.2-24.1-0.6c-8.1,0.4-16.2,0.6-24.2,0.6c-8.4,0-16.9-0.2-25.4-0.7h-0.3
	c-1.4,0-2.8,0-4.2,0h-5c-1.4,0-2.8,0-4.2,0h-0.2c-8.5,0.4-17.1,0.7-25.4,0.7c-194.6,0-367.5-108.5-451.3-283.2
	c-23.3-48.2-39.5-105.5-45.4-161.5c-1.5-6.2-3-12.8-4.4-19.3c-35.3-69.8-53.9-147.9-53.9-226.1v-148
	c0-276.1,224.6-500.7,500.7-500.7h279.5c276.1,0,500.7,224.6,500.7,500.7v148c0,64-15.2,136.5-41.8,199.1
	c-6.7,56.4-23.8,115-48.3,165.1l-3,7.8c-70.8,192.7-250.5,317.3-457.8,317.3h-3.9c-3.9,0-7.9,0-12-0.2c-4,0.1-8,0.2-11.9,0.2h-5.5
	c-1.2,0-2.4,0-3.6,0C342,1019.8,333.2,1019.9,327.6,1019.9L327.6,1019.9z"/>
<g id="bg1-lg">
	<path fill="#00A3E2" d="M327.6,1007.4c-8,0-16.1-0.2-24.1-0.6c-8.1,0.4-16.2,0.6-24.2,0.6c-8.2,0-16.6-0.2-25-0.7l-0.7,0
		c-1.4,0-2.8,0-4.2,0h-5c-1.4,0-2.8,0-4.2,0h-0.6c-8.4,0.4-16.8,0.7-25.1,0.7c-189.8,0-358.4-105.8-440-276.1
		c-22.9-47.2-38.6-103.4-44.3-158.2c-1.7-6.9-3.3-14.2-4.8-21.3c-34.9-68.5-53.3-145.1-53.3-221.9v-148
		c0-269.2,219-488.2,488.2-488.2h279.5c269.2,0,488.2,219,488.2,488.2v148c0,63.1-15.1,134.3-41.5,195.9
		c-6.4,55.8-23.3,113.8-47.6,163.4l-3.2,8.4c-69,187.8-244.1,309.3-446.1,309.3h-3.9c-3.9,0-7.9,0-12-0.2c-4,0.1-8,0.2-11.9,0.2
		h-5.5c-1.3,0-2.6,0-3.9,0C341.9,1007.3,333.1,1007.4,327.6,1007.4L327.6,1007.4z"/>
	<path fill="#2371B9" d="M327.6,994.9c-8,0-16.1-0.2-24.1-0.6c-8.1,0.4-16.2,0.6-24.2,0.6c-8.1,0-16.4-0.2-24.6-0.6l-1.1,0
		c-1.4,0-2.8,0-4.2,0h-5c-1.4,0-2.8,0-4.2,0l-1,0c-8.3,0.4-16.6,0.6-24.7,0.6c-184.9,0-349.2-103.1-428.7-269
		c-22.4-46.3-37.8-101.3-43.2-155c-1.9-7.5-3.7-15.5-5.2-23.3c-34.5-67.1-52.8-142.4-52.8-217.8v-148
		c0-262.3,213.4-475.7,475.7-475.7h279.5c262.3,0,475.7,213.4,475.7,475.7v148c0,62.1-15,132.2-41.3,192.6
		c-6.1,55.3-22.7,112.6-46.8,161.7l-3.4,9C756.8,876,586.2,994.3,389.5,994.3h-3.9c-3.9,0-8,0-12-0.2c-4,0.1-8,0.2-11.9,0.2h-5.5
		c-1.4,0-2.8,0-4.2,0C341.7,994.8,333.1,994.9,327.6,994.9L327.6,994.9z"/>
	<path fill="#00A3E2" d="M327.6,982.4c-7.9,0-16-0.2-24-0.6h-0.1c-8,0.4-16.2,0.6-24.1,0.6c-8,0-16.2-0.2-24.3-0.6l-1.4,0
		c-1.4,0-2.8,0-4.2,0h-5c-1.4,0-2.8,0-4.2,0l-1.3,0c-8.1,0.4-16.3,0.6-24.3,0.6c-180,0-340-100.4-417.5-261.9
		c-21.9-45.3-36.9-99.2-42.2-151.7c-2.1-8.1-4-16.8-5.6-25.3c-34.1-65.7-52.2-139.5-52.2-213.6v-148
		c0-255.4,207.8-463.2,463.2-463.2h279.5C695.2-281.4,903-73.6,903,181.8v148c0,61.1-14.9,130-41,189.4
		c-5.8,54.7-22.1,111.4-46.1,160l-3.6,9.5c-65.4,178-231.3,293.1-422.8,293.1h-3.9c-3.9,0-8,0-12-0.2c-4,0.1-8,0.2-11.9,0.2h-5.5
		c-1.5,0-3,0-4.5,0C341.6,982.3,333,982.4,327.6,982.4L327.6,982.4z"/>
	<path fill="#2371B9" d="M327.6,969.9c-7.8,0-15.8-0.2-23.7-0.6h-0.8c-7.9,0.4-16,0.6-23.8,0.6c-7.9,0-15.9-0.2-23.9-0.6l-1.8,0
		c-1.4,0-2.8,0-4.2,0h-5c-1.4,0-2.8,0-4.2,0l-1.7,0c-8,0.4-16.1,0.6-24,0.6c-175.2,0-330.8-97.7-406.2-254.8
		c-21.5-44.3-36.1-97-41.1-148.5c-2.3-9-4.3-18.1-6.1-27.3c-33.8-64.4-51.6-136.7-51.6-209.4v-148c0-248.5,202.2-450.7,450.7-450.7
		h279.5c248.5,0,450.7,202.2,450.7,450.7v148c0,60.1-14.8,127.9-40.7,186.1c-5.5,54.1-21.6,110.2-45.3,158.2l-3.8,10.1
		c-63.6,173.1-224.9,285-411,285h-3.9c-3.9,0-8-0.1-12-0.2c-4,0.1-8,0.2-11.9,0.2h-5.5c-1.6,0-3.1,0-4.7,0
		C341.4,969.8,332.9,969.9,327.6,969.9L327.6,969.9z"/>
	<path fill="#00A3E2" d="M327.6,957.4c-7.7,0-15.6-0.2-23.4-0.6h-1.4c-7.8,0.4-15.7,0.6-23.5,0.6c-7.8,0-15.7-0.2-23.5-0.6l-2.2,0
		c-1.4,0-2.8,0-4.2,0h-5c-1.4,0-2.8,0-4.2,0l-2.1,0c-7.9,0.4-15.8,0.6-23.6,0.6c-170.3,0-321.6-94.9-394.9-247.7
		c-21-43.4-35.2-94.9-40-145.3c-2.4-9.4-4.6-19.5-6.5-29.3c-33.4-63-51-133.9-51-205.3v-148c0-241.6,196.6-438.2,438.2-438.2h279.5
		c241.6,0,438.2,196.6,438.2,438.2v148c0,59.2-14.7,125.7-40.5,182.9c-5.2,53.5-21,109-44.6,156.5l-4,10.8
		c-61.7,168.1-218.5,276.8-399.3,276.8h-3.9c-3.9,0-7.9-0.1-12-0.2c-4,0.1-8,0.2-11.9,0.2h-5.5c-1.6,0-3.3,0-5,0
		C341.3,957.3,332.9,957.4,327.6,957.4L327.6,957.4z"/>
	<path fill="#2371B9" d="M327.6,944.9c-7.6,0-15.4-0.2-23-0.6h-2.1c-7.7,0.4-15.5,0.6-23.1,0.6c-7.6,0-15.4-0.2-23.1-0.6
		c-0.9,0-1.7,0-2.6,0c-1.4,0-2.8,0-4.2,0h-5c-1.4,0-2.8,0-4.2,0c-0.8,0-1.7,0-2.5,0c-7.8,0.4-15.6,0.6-23.2,0.6
		C49,944.9-98,852.7-169.1,704.2c-20.5-42.4-34.3-92.8-38.9-142c-2.7-10.3-5-20.8-6.9-31.3c-33-61.6-50.5-131.1-50.5-201.1v-148
		c0-234.7,191-425.7,425.7-425.7h279.5c234.7,0,425.7,191,425.7,425.7v148c0,58.2-14.6,123.6-40.2,179.6
		c-4.8,52.9-20.4,107.8-43.8,154.7l-4.3,11.4c-59.9,163.2-212.1,268.7-387.6,268.7h-3.9c-3.9,0-7.9-0.1-12-0.2
		c-4,0.1-8,0.2-11.9,0.2h-5.5c-1.7,0-3.5,0-5.3,0C341.1,944.8,332.8,944.9,327.6,944.9L327.6,944.9z"/>
	<path fill="#00A3E2" d="M327.6,932.4c-7.5,0-15.1-0.2-22.7-0.6h-2.8c-7.6,0.4-15.3,0.6-22.8,0.6c-7.5,0-15.2-0.2-22.8-0.6
		c-1,0-2,0-3,0c-1.4,0-2.8,0-4.2,0h-5c-1.4,0-2.8,0-4.2,0c-1,0-1.9,0-2.9,0c-7.6,0.4-15.3,0.6-22.8,0.6
		c-160.6,0-303.3-89.5-372.4-233.5c-20.1-41.4-33.5-90.7-37.9-138.8c-2.9-11-5.3-22.1-7.3-33.3c-32.7-60.3-49.9-128.3-49.9-196.9
		v-148c0-227.8,185.4-413.2,413.2-413.2h279.5c227.8,0,413.2,185.4,413.2,413.2v148c0,57.3-14.5,121.4-40,176.4
		c-4.5,52.3-19.7,106.5-43,153l-4.5,12c-58.1,158.3-205.7,260.6-375.9,260.6h-3.9c-3.9,0-7.9-0.1-12-0.2c-4,0.1-8,0.2-11.9,0.2h-5.5
		c-1.8,0-3.7,0-5.5,0C341,932.3,332.8,932.4,327.6,932.4L327.6,932.4z"/>
	<path fill="#2371B9" d="M327.6,919.9c-7.4,0-14.9-0.2-22.4-0.6h-3.5c-7.5,0.4-15,0.6-22.5,0.6c-7.4,0-14.9-0.2-22.4-0.6
		c-1.1,0-2.2,0-3.3,0c-1.4,0-2.8,0-4.2,0h-5c-1.4,0-2.8,0-4.2,0c-1.1,0-2.1,0-3.2,0c-7.5,0.4-15.1,0.6-22.5,0.6
		c-155.8,0-294.1-86.8-361.1-226.5c-19.6-40.5-32.6-88.6-36.8-135.5c-3-11.3-5.6-23.5-7.7-35.3c-32.3-58.9-49.4-125.5-49.4-192.7
		v-148c0-220.9,179.8-400.7,400.7-400.7h279.5c220.9,0,400.7,179.8,400.7,400.7v148c0,56.3-14.5,119.3-39.7,173.1
		c-4.2,51.7-19.1,105.3-42.2,151.2l-4.7,12.6c-56.3,153.4-199.3,252.5-364.2,252.5h-3.9c-3.9,0-7.9-0.1-12-0.2
		c-4,0.1-8,0.2-11.9,0.2h-5.5c-1.9,0-3.9,0-5.8,0C340.8,919.8,332.7,919.9,327.6,919.9L327.6,919.9z"/>
	<path fill="#00A3E2" d="M327.6,907.4c-7.3,0-14.7-0.2-22-0.6h-4.2c-7.4,0.4-14.8,0.6-22.1,0.6c-7.3,0-14.7-0.2-22-0.6
		c-1.3,0-2.5,0-3.7,0c-1.4,0-2.8,0-4.2,0h-5c-1.4,0-2.8,0-4.2,0c-1.2,0-2.4,0-3.6,0c-7.4,0.4-14.8,0.6-22.1,0.6
		c-150.9,0-285-84-349.8-219.4c-19.1-39.5-31.8-86.4-35.7-132.3c-3.2-12-6-24.8-8.1-37.4c-32-57.5-48.8-122.6-48.8-188.5v-148
		c0-214.1,174.1-388.2,388.2-388.2h279.5c214.1,0,388.2,174.1,388.2,388.2v148c0,55.4-14.4,117.1-39.5,169.8
		c-3.8,51.1-18.4,104.1-41.4,149.5l-5,13.2c-54.5,148.4-192.9,244.4-352.5,244.4h-3.9c-3.9,0-7.9-0.1-12-0.2c-4,0.1-8,0.2-11.9,0.2
		h-5.5c-2,0-4,0-6,0C340.7,907.3,332.7,907.4,327.6,907.4L327.6,907.4z"/>
	<path fill="#2371B9" d="M327.6,894.9c-7.1,0-14.4-0.2-21.6-0.6H301c-7.2,0.4-14.5,0.6-21.8,0.6c-7.1,0-14.4-0.2-21.7-0.6
		c-1.4,0-2.7,0-4.1,0c-1.4,0-2.8,0-4.2,0h-5c-1.4,0-2.8,0-4.2,0l-4,0c-7.3,0.4-14.6,0.6-21.7,0.6c-146.1,0-275.8-81.3-338.5-212.3
		c-18.7-38.5-30.9-84.3-34.6-129c-3.4-12.6-6.4-26.2-8.5-39.4c-31.6-56.1-48.3-119.8-48.3-184.3v-148
		c0-207.2,168.5-375.7,375.7-375.7h279.5c207.2,0,375.7,168.5,375.7,375.7v148c0,54.4-14.3,115-39.3,166.6
		c-3.4,50.5-17.8,102.8-40.5,147.7l-5.2,13.9c-52.7,143.5-186.5,236.3-340.8,236.3h-3.9c-3.9,0-7.9-0.1-12-0.2
		c-4,0.1-8,0.2-11.9,0.2h-5.5c-2.1,0-4.2,0-6.3-0.1C340.5,894.8,332.6,894.9,327.6,894.9L327.6,894.9z"/>
	<path fill="#00A3E2" d="M327.6,882.4c-7,0-14.2-0.2-21.3-0.6h-5.6c-7.1,0.4-14.3,0.6-21.4,0.6c-7,0-14.2-0.2-21.3-0.6h-0.1
		c-1.5,0-2.9,0-4.3,0c-1.4,0-2.8,0-4.2,0h-5c-1.4,0-2.8,0-4.2,0c-1.4,0-2.8,0-4.2,0h-0.1c-7.1,0.4-14.3,0.6-21.4,0.6
		c-141.2,0-266.6-78.6-327.3-205.2c-18.2-37.6-30.1-82.2-33.5-125.8c-3.7-13.3-6.7-27.5-8.9-41.4c-31.3-54.7-47.8-117-47.8-180.1
		v-148c0-200.3,162.9-363.2,363.2-363.2h279.5c200.3,0,363.2,162.9,363.2,363.2v148c0,53.5-14.2,112.9-39.1,163.3
		c-3,49.9-17,101.6-39.7,145.9l-5.5,14.5c-50.9,138.6-180.1,228.2-329.1,228.2h-3.9c-3.9,0-7.9-0.1-12-0.2c-4,0.1-8,0.2-11.9,0.2
		h-5.5c-2.2,0-4.4,0-6.6-0.1C340.4,882.3,332.5,882.4,327.6,882.4L327.6,882.4z"/>
	<path fill="#2371B9" d="M327.6,869.9c-6.9,0-13.9-0.2-20.9-0.6h-6.4c-7,0.4-14,0.6-21,0.6c-6.9,0-13.9-0.2-20.9-0.6h-0.5
		c-1.5,0-2.9,0-4.3,0c-1.4,0-2.8,0-4.2,0h-5c-1.4,0-2.8,0-4.2,0c-1.4,0-2.8,0-4.2,0h-0.5c-7,0.4-14.1,0.6-21,0.6
		c-136.4,0-257.4-75.9-316-198.1c-17.7-36.6-29.2-80.1-32.4-122.6c-3.9-13.9-7.1-28.9-9.2-43.5c-31-53.4-47.3-114.1-47.3-175.9v-148
		c0-193.4,157.3-350.7,350.7-350.7h279.5c193.4,0,350.7,157.3,350.7,350.7v148c0,52.6-14.2,110.7-39,160
		c-2.6,49.3-16.3,100.3-38.8,144.1l-5.7,15.2c-49.1,133.7-173.7,220.1-317.4,220.1h-3.9c-3.9,0-7.9-0.1-12-0.2
		c-4,0.1-8,0.2-11.9,0.2h-5.5c-2.3,0-4.5,0-6.8-0.1C340.2,869.8,332.5,869.9,327.6,869.9L327.6,869.9z"/>
	<path fill="#00A3E2" d="M327.6,857.4c-6.8,0-13.7-0.2-20.5-0.6h-7.1c-6.9,0.4-13.8,0.6-20.6,0.6c-6.8,0-13.7-0.2-20.5-0.6h-0.9
		c-1.5,0-2.9,0-4.3,0c-1.4,0-2.8,0-4.2,0h-5c-1.4,0-2.8,0-4.2,0c-1.4,0-2.8,0-4.2,0h-0.9c-6.9,0.4-13.9,0.6-20.6,0.6
		c-131.5,0-248.3-73.2-304.7-191c-17.3-35.7-28.4-78-31.3-119.3c-4.1-14.6-7.4-30.2-9.6-45.5c-30.6-52-46.8-111.3-46.8-171.7v-148
		c0-186.5,151.7-338.2,338.2-338.2h279.5c186.5,0,338.2,151.7,338.2,338.2v148c0,51.7-14.1,108.6-38.8,156.8
		c-2.2,48.7-15.6,99-37.9,142.3l-6,15.8c-47.3,128.8-167.3,212-305.7,212h-3.9c-3.9,0-7.9-0.1-12-0.2c-4,0.2-8,0.2-11.9,0.2h-5.5
		c-2.3,0-4.7,0-7.1-0.1C340.1,857.3,332.4,857.4,327.6,857.4z"/>
	<path fill="#2371B9" d="M327.6,844.9c-6.7,0-13.5-0.2-20.2-0.6c-0.6,0-1.3,0-1.9,0h-6c-6.7,0.4-13.5,0.6-20.3,0.6
		c-6.7,0-13.4-0.2-20.2-0.6h-1.3c-1.5,0-2.9,0-4.3,0c-1.4,0-2.8,0-4.2,0h-5c-1.4,0-2.8,0-4.2,0c-1.4,0-2.8,0-4.2,0h-1.2
		c-6.8,0.4-13.6,0.6-20.3,0.6C87.9,844.9-24.6,774.4-78.9,661c-16.8-34.7-27.5-75.9-30.2-116.1c-4.4-15.2-7.8-31.6-9.9-47.5
		c-30.3-50.6-46.4-108.4-46.4-167.5v-148c0-179.6,146.1-325.7,325.7-325.7h279.5c179.6,0,325.7,146.1,325.7,325.7v148
		c0,50.7-14.1,106.5-38.7,153.5c-1.7,48-14.8,97.8-37,140.5l-6.2,16.5c-45.5,123.8-160.9,203.9-294,203.9h-3.9
		c-3.9,0-7.9-0.1-12-0.2c-4,0.2-8,0.2-11.9,0.2h-5.5c-2.4,0-4.9,0-7.4-0.1C339.9,844.8,332.4,844.9,327.6,844.9L327.6,844.9z"/>
	<path fill="#00A3E2" d="M327.6,832.4c-6.5,0-13.2-0.2-19.8-0.6c-0.8,0-1.5,0-2.3,0h-6.4c-13.2,0.8-26.5,0.8-39.7,0h-1.6
		c-1.5,0-2.9,0-4.3,0c-1.4,0-2.8,0-4.2,0h-5c-1.4,0-2.8,0-4.2,0c-1.4,0-2.8,0-4.2,0h-1.6c-6.7,0.4-13.4,0.6-19.9,0.6
		c-121.8,0-229.9-67.7-282.2-176.8c-16.3-33.7-26.7-73.8-29.1-112.9c-4.7-15.9-8.2-32.9-10.2-49.6c-30.1-49.1-45.9-105.6-45.9-163.3
		v-148c0-172.7,140.5-313.2,313.2-313.2h279.5c172.7,0,313.2,140.5,313.2,313.2v148c0,49.8-14,104.4-38.6,150.2
		c-1.2,47.4-13.9,96.5-36,138.7l-6.5,17.3c-43.7,118.9-154.5,195.8-282.3,195.8h-3.9c-3.9,0-8-0.1-12-0.2c-4,0.2-8,0.2-11.9,0.2
		h-5.5c-2.5,0-5.1,0-7.6-0.1C339.8,832.3,332.3,832.4,327.6,832.4L327.6,832.4z"/>
	<path fill="#2371B9" d="M327.6,819.9c-6.4,0-13-0.2-19.5-0.6c-0.9,0-1.7,0-2.6,0h-5c-0.6,0-1.2,0-1.8,0c-6.5,0.4-13,0.6-19.5,0.6
		c-6.4,0-12.9-0.2-19.4-0.6h-2.1c-1.5,0-2.9,0-4.3,0c-1.4,0-2.8,0-4.2,0h-5c-1.4,0-2.8,0-4.2,0c-1.4,0-2.8,0-4.2,0h-2
		c-6.5,0.4-13.1,0.6-19.5,0.6c-116.9,0-220.7-65-270.9-169.7c-15.9-32.8-25.8-71.7-27.9-109.6c-4.9-16.5-8.6-34.3-10.6-51.6
		c-29.8-47.7-45.5-102.7-45.5-159.1v-148c0-165.8,134.9-300.7,300.7-300.7h279.5c165.8,0,300.7,134.9,300.7,300.7v148
		c0,48.9-14,102.3-38.5,146.9c-0.7,46.7-13.1,95.2-35,136.8l-6.8,18c-41.9,114-148.1,187.7-270.6,187.7h-3.9c-3.9,0-8-0.1-12-0.3
		c-4,0.2-8,0.3-11.9,0.3h-5.5c-2.6,0-5.3,0-7.9-0.1C339.6,819.8,332.3,819.9,327.6,819.9L327.6,819.9z"/>
	<path fill="#00A3E2" d="M327.6,807.4c-6.3,0-12.8-0.2-19.1-0.7c-1,0-2,0-3,0h-5c-0.7,0-1.4,0-2.1,0c-6.4,0.4-12.8,0.6-19.1,0.6
		c-6.3,0-12.7-0.2-19-0.6h-2.5c-1.4,0-2.8,0-4.3,0c-1.4,0-2.8,0-4.2,0h-5c-1.4,0-2.8,0-4.2,0c-1.4,0-2.8,0-4.2,0h-2.4
		c-6.4,0.4-12.8,0.6-19.1,0.6c-112.1,0-211.6-62.3-259.6-162.6c-15.4-31.8-24.9-69.6-26.8-106.4c-5.2-17.2-8.9-35.6-10.8-53.7
		c-29.5-46.3-45.1-99.8-45.1-154.9v-148c0-158.9,129.3-288.2,288.2-288.2h279.5c158.9,0,288.2,129.3,288.2,288.2v148
		c0,48-14,100.2-38.5,143.6c-0.2,46.1-12.2,93.9-33.9,135l-7,18.7c-40.1,109.1-141.7,179.6-258.9,179.6h-3.9c-3.9,0-8-0.1-12-0.3
		c-4,0.2-8,0.3-11.9,0.3h-5.5c-2.7,0-5.4,0-8.1-0.1C339.5,807.3,332.2,807.4,327.6,807.4L327.6,807.4z"/>
	<path fill="#2371B9" d="M327.6,794.9c-6.2,0-12.5-0.2-18.8-0.7c-1.1,0-2.2,0-3.3,0h-5c-0.8,0-1.7,0-2.5,0
		c-6.2,0.4-12.5,0.6-18.8,0.6c-6.1,0-12.4-0.2-18.6-0.6h-2.9c-1.4,0-2.8,0-4.2,0c-1.4,0-2.8,0-4.2,0h-5c-1.4,0-2.8,0-4.2,0
		c-1.4,0-2.8,0-4.2,0h-2.8c-6.3,0.4-12.5,0.6-18.7,0.6c-107.2,0-202.4-59.6-248.4-155.5c-15-30.9-24.1-67.5-25.7-103.2
		c-5.5-17.8-9.4-37-11.1-55.8c-29.3-44.9-44.8-96.9-44.8-150.6v-148c0-152,123.7-275.7,275.7-275.7h279.5
		c152,0,275.7,123.7,275.7,275.7v148c0,47.2-14,98.1-38.5,140.3c0,0.8,0,1.6,0,2.4c0,44.6-11.7,91-32.8,130.7l-7.3,19.5
		c-38.3,104.2-135.3,171.5-247.2,171.5h-3.9c-3.9,0-8-0.1-12-0.3c-4,0.2-8,0.3-11.9,0.3h-5.5c-2.8,0-5.6,0-8.4-0.1
		C339.3,794.8,332.1,794.9,327.6,794.9L327.6,794.9z"/>
	<path fill="#00A3E2" d="M327.6,782.4c-6.1,0-12.3-0.2-18.4-0.7c-1.2,0-2.5,0-3.7,0h-5c-1,0-1.9,0-2.9,0c-6.1,0.4-12.3,0.7-18.4,0.7
		c-6,0-12.1-0.2-18.2-0.6h-3.3c-1.4,0-2.8,0-4.2,0c-1.4,0-2.8,0-4.2,0h-5c-1.4,0-2.8,0-4.2,0c-1.4,0-2.8,0-4.2,0h-3.2
		c-6.1,0.4-12.2,0.6-18.3,0.6c-102.4,0-193.2-56.9-237.1-148.4c-14.5-29.9-23.2-65.4-24.5-99.9c-5.9-18.4-9.8-38.3-11.3-57.8
		c-29.1-43.5-44.5-94-44.5-146.4v-148c0-145.1,118.1-263.2,263.2-263.2h279.5c145.1,0,263.2,118.1,263.2,263.2v148
		c0,46.3-14,96-38.6,137c0,1.9,0.1,3.9,0.1,5.8c0,42.9-11.3,87.4-31.8,125.5l-7.6,20.2c-36.5,99.3-128.9,163.4-235.5,163.4h-3.9
		c-3.9,0-8-0.1-12-0.3c-4,0.2-8,0.3-11.9,0.3h-5.5c-2.9,0-5.8,0-8.7-0.2C339.2,782.3,332.1,782.4,327.6,782.4L327.6,782.4z"/>
	<path fill="#2371B9" d="M327.6,769.9c-6,0-12-0.2-18.1-0.7c-1.3,0-2.7,0-4,0h-5c-1,0-1.9,0-2.9,0l-0.5,0c-5.9,0.4-12,0.6-17.9,0.6
		c-5.9,0-11.8-0.2-17.7-0.6h-3.8c-1.4,0-2.8,0-4.2,0c-1.4,0-2.8,0-4.2,0h-5c-1.4,0-2.8,0-4.2,0c-1.4,0-2.8,0-4.2,0h-3.6
		c-5.9,0.4-11.9,0.6-17.8,0.6c-97.5,0-184.1-54.1-225.8-141.3c-14-29-22.3-63.3-23.4-96.7c-6.2-19.1-10.2-39.7-11.5-59.9
		c-28.9-42-44.2-91.1-44.2-142.1v-148C-90.4,43.6,22-68.9,160.3-68.9h279.5c138.2,0,250.7,112.5,250.7,250.7v148
		c0,45.5-14.1,93.9-38.7,133.6c0.1,3.1,0.2,6.1,0.2,9.1c0,41.2-10.9,83.9-30.7,120.3l-7.9,21c-34.6,94.3-122.5,155.3-223.8,155.3
		h-3.9c-3.9,0-8-0.1-12-0.3c-4,0.2-8,0.3-11.9,0.3h-5.5c-2.9,0-5.9-0.1-8.9-0.2C339,769.8,332,769.9,327.6,769.9L327.6,769.9z"/>
	<path fill="#00A3E2" d="M327.6,757.4c-5.9,0-11.8-0.2-17.7-0.7c-1.5,0-2.9,0-4.4,0h-5c-1,0-1.9,0-2.9,0c-0.3,0-0.7,0-1,0
		c-5.8,0.4-11.6,0.6-17.4,0.6c-5.7,0-11.5-0.2-17.3-0.6h-4.2c-1.4,0-2.8,0-4.2,0c-1.4,0-2.8,0-4.2,0h-5c-1.4,0-2.8,0-4.2,0
		c-1.4,0-2.8,0-4.2,0h-4.1c-5.8,0.4-11.6,0.6-17.4,0.6c-92.7,0-174.9-51.4-214.6-134.2c-13.6-28-21.5-61.2-22.2-93.5
		c-6.6-19.7-10.7-41-11.7-62c-0.5-0.7-1-1.4-1.5-2.1c-27.8-40.1-42.5-87-42.5-135.8v-148c0-131.3,106.9-238.2,238.2-238.2h279.5
		c131.3,0,238.2,106.9,238.2,238.2v148c0,44.6-14.1,91.9-38.9,130.3c0.2,4.2,0.3,8.4,0.3,12.4c0,39.4-10.5,80.3-29.5,115.1
		l-8.2,21.8c-32.8,89.4-116.1,147.2-212.1,147.2h-3.9c-3.9,0-8-0.1-12-0.3c-4,0.2-8,0.3-11.9,0.3h-5.5c-3,0-6.1-0.1-9.2-0.2
		C338.9,757.2,332,757.4,327.6,757.4z"/>
	<path fill="#2371B9" d="M327.6,744.9c-5.7,0-11.6-0.2-17.4-0.7c-1.6,0-3.1,0-4.7,0h-5c-1,0-1.9,0-2.9,0c-0.5,0-1,0-1.5,0
		c-11.2,0.8-22.5,0.8-33.7,0h-4.7c-1.4,0-2.8,0-4.2,0c-1.4,0-2.8,0-4.2,0h-5c-1.4,0-2.8,0-4.2,0c-1.4,0-2.8,0-4.2,0h-4.6
		c-5.6,0.4-11.3,0.6-16.9,0.6c-87.8,0-165.7-48.7-203.3-127.1c-13.1-27.1-20.6-59.1-21-90.3c-7.1-20.4-11.1-42.4-11.9-64.1
		c-1.2-1.6-2.4-3.3-3.5-4.9c-26.3-38-40.3-82.5-40.3-128.7v-148c0-124.4,101.3-225.7,225.7-225.7h279.5
		c124.5,0,225.7,101.3,225.7,225.7v148c0,43.8-14.2,89.8-39.1,126.9c0.4,5.4,0.6,10.7,0.6,15.8c0,37.7-10.1,76.7-28.4,109.9
		l-8.5,22.7c-31,84.5-109.7,139.1-200.4,139.1h-3.9c-3.9,0-8-0.1-12-0.3c-4,0.2-8,0.3-11.9,0.3h-5.5c-3.1,0-6.3-0.1-9.5-0.2
		C338.7,744.7,331.9,744.9,327.6,744.9L327.6,744.9z"/>
	<path fill="#00A3E2" d="M327.6,732.4c-5.6,0-11.3-0.2-17-0.7c-1.7,0-3.4,0.1-5.1,0.1h-5c-1,0-1.9,0-2.9,0c-0.7,0-1.4,0-2,0
		c-10.9,0.8-21.8,0.8-32.7,0h-5.2c-1.4,0-2.8,0-4.2,0c-1.4,0-2.8,0-4.2,0h-5c-1.4,0-2.8,0-4.2,0c-1.4,0-2.8,0-4.2,0h-5
		c-5.5,0.4-11,0.6-16.5,0.6c-82.9,0-156.5-46-192-120c-12.7-26.2-19.7-57-19.8-87.1c-7.5-21-11.6-43.8-11.9-66.2
		c-1.9-2.5-3.8-5.1-5.6-7.8c-24.9-35.9-38-77.9-38-121.6v-148c0-117.6,95.6-213.2,213.2-213.2h279.5c117.6,0,213.2,95.6,213.2,213.2
		v148c0,43-14.3,87.8-39.4,123.5c0.6,6.5,0.9,13,0.9,19.2c0,35.9-9.7,73-27.3,104.6l-8.8,23.5c-29.2,79.6-103.3,131-188.7,131h-3.9
		c-3.9,0-8-0.1-12-0.4c-4,0.2-8,0.4-11.9,0.4h-5.5c-3.2,0-6.4-0.1-9.7-0.2C338.6,732.2,331.9,732.4,327.6,732.4L327.6,732.4z"/>
	<path fill="#2371B9" d="M327.6,719.9c-5.5,0-11.1-0.2-16.7-0.7c-1.8,0-3.6,0.1-5.4,0.1h-5c-1,0-1.9,0-2.9,0c-0.9,0-1.7,0-2.5,0
		c-10.5,0.8-21.2,0.8-31.7,0h-5.7c-1.4,0-2.8,0-4.2,0c-1.4,0-2.8,0-4.2,0h-5c-1.4,0-2.8,0-4.2,0c-1.4,0-2.8,0-4.2,0h-5.5
		c-5.3,0.4-10.7,0.6-16,0.6c-78.1,0-147.4-43.3-180.7-112.9c-12.2-25.3-18.8-55-18.6-83.9c-8-21.7-12.1-45.1-11.9-68.3
		c-2.7-3.5-5.4-7-7.9-10.6c-23.4-33.8-35.8-73.3-35.8-114.4v-148c0-110.7,90-200.7,200.7-200.7h279.5c110.7,0,200.7,90,200.7,200.7
		v148c0,42.3-14.5,85.7-39.8,120c0.9,7.7,1.3,15.4,1.3,22.7c0,34.2-9.3,69.4-26.2,99.3l-9.2,24.4c-27.4,74.7-96.9,123-177,123h-3.9
		c-3.9,0-8-0.1-12-0.4c-4,0.3-8,0.4-11.9,0.4h-5.5c-3.3,0-6.6-0.1-10-0.3C338.5,719.7,331.8,719.9,327.6,719.9L327.6,719.9z"/>
	<path fill="#00A3E2" d="M327.6,707.4c-5.4,0-10.9-0.2-16.3-0.7c-1.9,0.1-3.9,0.1-5.8,0.1h-5c-1,0-1.9,0-2.9,0c-1,0-1.9,0-2.9,0
		h-0.2c-5.1,0.4-10.2,0.6-15.3,0.6c-5.1,0-10.3-0.2-15.4-0.6h-6.2c-1.4,0-2.8,0-4.2,0c-1.4,0-2.8,0-4.2,0h-5c-1.4,0-2.8,0-4.2,0
		c-1.4,0-2.8,0-4.2,0h-6c-5.1,0.4-10.4,0.6-15.5,0.6c-73.2,0-138.2-40.5-169.5-105.8c-11.8-24.3-17.9-52.9-17.3-80.7
		c-8.6-22.3-12.7-46.5-11.9-70.4c-3.6-4.3-7-8.8-10.2-13.4c-22-31.6-33.6-68.8-33.6-107.3v-148C-27.9,78,56.5-6.4,160.3-6.4h279.5
		c103.8,0,188.2,84.4,188.2,188.2v148c0,41.5-14.7,83.7-40.4,116.5c1.2,8.8,1.8,17.7,1.8,26.2c0,32.4-8.9,65.8-25,94l-9.5,25.3
		c-25.6,69.7-90.5,114.8-165.3,114.8h-3.9c-4,0-8-0.1-12-0.4c-4,0.3-8,0.4-11.9,0.4h-5.5c-3.4,0-6.8-0.1-10.2-0.3
		C338.3,707.2,331.8,707.4,327.6,707.4L327.6,707.4z"/>
	<path fill="#2371B9" d="M327.6,694.9c-5.3,0-10.7-0.3-16-0.8c-2,0.1-4.1,0.1-6.1,0.1h-5c-1,0-1.9,0-2.9,0c-1,0-1.9,0-2.9,0h-0.7
		c-9.9,0.8-19.8,0.8-29.7,0c-0.6,0-1.1,0-1.7,0h-5c-1.4,0-2.8,0-4.2,0c-1.4,0-2.8,0-4.2,0h-5c-1.4,0-2.8,0-4.2,0c-1.4,0-2.8,0-4.2,0
		h-5c-0.5,0-1,0-1.5,0c-5,0.4-10,0.6-15,0.6c-68.4,0-129-37.8-158.2-98.7c-11.3-23.4-17-50.8-16-77.5C31.1,496,27,470.6,28.6,446.2
		C24,441,19.8,435.6,15.9,430c-20.5-29.5-31.3-64.2-31.3-100.2v-148c0-96.9,78.8-175.7,175.7-175.7h279.5
		c96.9,0,175.7,78.8,175.7,175.7v148c0,40.8-14.9,81.6-41.1,113c1.7,9.9,2.5,20.1,2.5,29.8c0,30.6-8.5,62.1-23.9,88.7l-9.9,26.3
		c-23.8,64.8-84.1,106.8-153.6,106.8h-3.9c-4,0-8-0.2-12-0.4c-4,0.3-8,0.4-11.9,0.4h-5.5c-3.5,0-7-0.1-10.5-0.3
		C338.2,694.7,331.7,694.9,327.6,694.9L327.6,694.9z"/>
	<path fill="#00A3E2" d="M327.6,682.4c-5.2,0-10.4-0.3-15.6-0.8c-2.2,0.1-4.3,0.1-6.5,0.1h-5c-1,0-1.9,0-2.9,0c-1,0-1.9,0-2.9,0
		h-1.2c-4.7,0.4-9.5,0.6-14.3,0.6c-4.8,0-9.6-0.2-14.4-0.7c-0.7,0-1.4,0-2.1,0h-5c-1.4,0-2.8,0-4.2-0.1c-1.4,0-2.8,0.1-4.2,0.1h-5
		c-1.4,0-2.8,0-4.2-0.1c-1.4,0-2.8,0.1-4.2,0.1h-5c-0.7,0-1.3,0-2,0c-4.8,0.4-9.7,0.6-14.6,0.6c-63.5,0-119.8-35.1-146.9-91.6
		c-10.9-22.5-16.1-48.8-14.7-74.3c-10-23.4-14-49.6-11.5-74.7c-5.5-5.9-10.7-12.2-15.3-18.9c-19-27.4-29.1-59.6-29.1-93v-148
		c0-90,73.2-163.2,163.2-163.2h279.5c90,0,163.2,73.2,163.2,163.2v148c0,40.2-15.2,79.6-42,109.3c2.3,11,3.4,22.5,3.4,33.4
		c0,28.8-8,58.4-22.7,83.3l-10.3,27.3c-22,59.9-77.7,98.7-141.9,98.7h-3.9c-4,0-8-0.2-12-0.5c-4,0.3-8,0.5-11.9,0.5h-5.5
		c-3.5,0-7.1-0.1-10.7-0.4C338,682.2,331.7,682.4,327.6,682.4L327.6,682.4z"/>
	<path fill="#2371B9" d="M327.6,669.9c-5.1,0-10.2-0.3-15.3-0.8c-2.3,0.1-4.5,0.2-6.8,0.2h-5c-1,0-1.9,0-2.9,0c-1,0-1.9,0-2.9,0H293
		c-4.5,0.4-9.2,0.6-13.7,0.6c-4.6,0-9.3-0.2-14-0.7c-0.9,0-1.8,0-2.6,0h-5c-1.4,0-2.8,0-4.2-0.1c-1.4,0-2.8,0.1-4.2,0.1h-5
		c-1.4,0-2.8,0-4.2-0.1c-1.4,0-2.8,0.1-4.2,0.1h-5c-0.8,0-1.6,0-2.4,0c-4.7,0.4-9.4,0.7-14.1,0.7c-58.7,0-110.7-32.4-135.6-84.5
		c-10.5-21.6-15.1-46.8-13.3-71.1C55,490.8,51,464.1,54.4,438.7l0.2-1.4c-6.7-6.6-12.7-13.8-18.1-21.6c-17.6-25.3-26.9-55-26.9-85.9
		v-148c0-83.1,67.6-150.7,150.7-150.7h279.5c83.1,0,150.7,67.6,150.7,150.7v148c0,39.6-15.6,77.6-43.1,105.6
		c3,12.1,4.6,24.8,4.6,37.1c0,27-7.6,54.6-21.5,77.8c-2.1,5.5-10.6,28.3-10.6,28.3c-20.2,55-71.3,90.5-130.2,90.5h-3.9
		c-4,0-8-0.2-12-0.5c-4,0.3-8,0.5-11.9,0.5h-5.5c-3.6,0-7.3-0.2-11-0.4C337.9,669.7,331.6,669.9,327.6,669.9L327.6,669.9z"/>
	<path fill="#00A3E2" d="M327.6,657.4c-5,0-10-0.3-14.9-0.8c-2.4,0.1-4.8,0.2-7.1,0.2h-5c-1,0-1.9,0-2.9,0c-1,0-1.9,0-2.9,0h-2.4
		c-4.4,0.4-8.8,0.6-13.1,0.6c-4.5,0-9-0.2-13.5-0.7c-1,0-2.1,0-3.1,0h-5c-1.4,0-2.8,0-4.2-0.1c-1.4,0-2.8,0.1-4.2,0.1h-5
		c-1.4,0-2.8,0-4.2-0.1c-1.4,0-2.8,0.1-4.2,0.1h-5c-1,0-1.9,0-2.9,0c-4.5,0.4-9.1,0.7-13.6,0.7c-53.8,0-101.5-29.7-124.4-77.4
		c-9.9-20.5-14.1-44.4-11.8-67.5c-0.1-0.4-0.2-0.7-0.3-1.1c-10.5-21.9-14.5-47-11.3-71l0.4-2.8c0.3-2.1,0.4-2.8,0.5-3.4
		c0.1-0.5,0.2-1,0.3-1.5c-7.9-7.1-15-15.2-21.2-24.1c-16.1-23.2-24.6-50.5-24.6-78.8v-148c0-76.2,62-138.2,138.2-138.2h279.5
		c76.2,0,138.2,62,138.2,138.2v148c0,39.1-16.2,75.7-44.6,101.8c4,13.2,6.1,27.2,6.1,41c0,25.2-7.2,50.9-20.3,72.4
		c-0.7,2-11,29.3-11,29.3c-18.4,50-64.9,82.5-118.5,82.5h-3.9c-4,0-8-0.2-12-0.6c-4,0.4-8,0.6-11.9,0.6h-5.5
		c-3.7,0-7.5-0.2-11.2-0.5C337.8,657.2,331.6,657.4,327.6,657.4L327.6,657.4z"/>
	<path fill="#2371B9" d="M327.6,644.9c-4.9,0-9.8-0.3-14.6-0.9c-2.5,0.2-5,0.3-7.5,0.3h-5c-1,0-1.9,0-2.9,0c-1,0-1.9,0-2.9,0h-3
		c-4.1,0.4-8.4,0.6-12.5,0.6c-4.3,0-8.7-0.2-13-0.7c-1.2,0-2.4,0.1-3.5,0.1h-5c-1.4,0-2.8,0-4.2-0.1c-1.4,0-2.8,0.1-4.2,0.1h-5
		c-1.4,0-2.8,0-4.2-0.1c-1.4,0-2.8,0.1-4.2,0.1h-5c-1.1,0-2.2,0-3.4,0c-4.4,0.5-8.8,0.7-13.2,0.7c-49,0-92.3-27-113.1-70.3
		c-9.3-19.2-13-41.5-10.4-62.9c-0.4-1.5-0.7-2.9-1-4.4c-9.9-20-13.7-43.1-10.8-65.2l0.4-2.8c0.3-1.8,0.3-2.5,0.4-3.1
		c0.4-2.8,1-5.5,1.6-8.3c-9.4-7.5-17.6-16.4-24.6-26.4c-14.7-21.1-22.4-45.9-22.4-71.6v-148c0-69.3,56.4-125.7,125.7-125.7h279.5
		c69.3,0,125.7,56.4,125.7,125.7v148c0,38.3-17.3,74.1-46.7,97.8c5.3,14.2,8.2,29.6,8.2,44.9c0,23.4-6.8,47.1-19.1,66.9
		c0,0,0,0,0,0.1c-0.2,0.6-0.2,0.6-10.5,27.9l-0.9,2.5c-16.6,45.1-58.5,74.4-106.8,74.4h-3.9c-4,0-8-0.2-12-0.6
		c-4,0.4-8,0.6-11.9,0.6h-5.5c-3.8,0-7.6-0.2-11.4-0.6C337.7,644.7,331.6,644.9,327.6,644.9L327.6,644.9z"/>
	<path fill="#00A3E2" d="M327.6,632.4c-4.8,0-9.5-0.3-14.3-0.9c-2.6,0.2-5.2,0.3-7.8,0.3h-5c-1,0-1.9,0-2.9,0c-1,0-1.9,0-2.9,0h-3.6
		c-3.9,0.4-7.9,0.6-11.9,0.6c-4.2,0-8.4-0.2-12.6-0.7c-1.3,0-2.7,0.1-4,0.1h-5c-1.4,0-2.8,0-4.2-0.1c-1.4,0.1-2.8,0.1-4.2,0.1h-5
		c-1.4,0-2.8,0-4.2-0.1c-1.4,0.1-2.8,0.1-4.2,0.1h-5c-1.3,0-2.5,0-3.8-0.1c-4.2,0.5-8.5,0.7-12.7,0.7c-44.1,0-83.1-24.2-101.8-63.2
		c-8.7-17.9-11.8-38.5-9-58.4c-0.7-2.5-1.3-5.1-1.8-7.7c-9.3-18.2-13-39.2-10.3-59.4l0.4-2.8c0.2-1.6,0.3-2.1,0.4-2.7
		c0.8-5.1,2-10.2,3.6-15.1c-11.2-7.7-20.8-17.3-28.6-28.6c-13.2-19-20.2-41.3-20.2-64.5v-148c0-62.4,50.8-113.2,113.2-113.2h279.5
		c62.4,0,113.2,50.8,113.2,113.2v148c0,37.9-18.7,72.7-49.5,93.6c7.2,15.2,11,32,11,49.1c0,21.6-6.4,43.3-17.9,61.4
		c-0.1,0.4-0.3,0.8-0.5,1.3c-0.2,0.6-0.6,1.7-11.4,30.3c-14.8,40.2-52.1,66.3-95.1,66.3h-3.9c-4,0-8-0.2-12-0.7
		c-4,0.5-7.9,0.7-11.9,0.7h-5.5c-3.9,0-7.8-0.2-11.7-0.7C337.6,632.2,331.5,632.4,327.6,632.4L327.6,632.4z"/>
	<path fill="#2371B9" d="M327.6,619.9c-4.6,0-9.3-0.3-13.9-1c-2.7,0.3-5.5,0.4-8.1,0.4h-5c-1,0-1.9,0-2.9,0c-1,0-1.9,0-2.9,0h-4.3
		c-3.7,0.4-7.5,0.6-11.2,0.6c-4,0-8.1-0.3-12.1-0.7c-1.5,0.1-3,0.1-4.5,0.1h-5c-1.4,0-2.8,0-4.2-0.1c-1.4,0.1-2.8,0.1-4.2,0.1h-5
		c-1.4,0-2.8,0-4.2-0.1c-1.4,0.1-2.8,0.1-4.2,0.1h-5c-1.4,0-2.8,0-4.3-0.1c-4.1,0.5-8.2,0.7-12.3,0.7c-39.3,0-74-21.5-90.6-56.1
		c-8-16.6-10.7-35.6-7.5-53.8c-1.1-3.6-2-7.3-2.7-11c-8.8-16.3-12.3-35.2-9.8-53.6l0.4-2.9c0.2-1.4,0.3-1.9,0.3-2.4
		c1.2-7.7,3.4-15.2,6.5-22.3c-13.3-7.4-24.8-17.8-33.7-30.6c-11.7-16.9-18-36.8-18-57.4v-148c0-55.5,45.2-100.7,100.7-100.7h279.5
		c55.5,0,100.7,45.2,100.7,100.7v148c0,37.9-21,71.9-53.7,89.1c9.9,15.9,15.2,34.4,15.2,53.6c0,19.8-5.9,39.5-16.8,55.9
		c-0.3,0.8-0.6,1.7-0.9,2.5c-0.2,0.5-0.8,2.2-11.3,30.1c-13,35.3-45.7,58.2-83.4,58.2h-3.9c-4,0-8-0.3-12-0.8
		c-3.9,0.5-7.9,0.8-11.9,0.8h-5.5c-4,0-7.9-0.3-11.9-0.8C338.8,619.4,333.2,619.9,327.6,619.9L327.6,619.9z"/>
	<path fill="#00A3E2" d="M327.6,607.4c-4.6,0-9.1-0.4-13.6-1.1c-2.8,0.3-5.7,0.5-8.5,0.5h-5c-1,0-1.9,0-2.9,0c-1,0-1.9,0-2.9,0h-5
		c-3.5,0.4-7,0.6-10.5,0.6c-3.9,0-7.8-0.3-11.7-0.8c-1.6,0.1-3.3,0.2-4.9,0.2h-5c-1.4,0-2.8,0-4.2-0.1c-1.4,0.1-2.8,0.1-4.2,0.1h-5
		c-1.4,0-2.8,0-4.2-0.1c-1.4,0.1-2.8,0.1-4.2,0.1h-5c-1.6,0-3.1,0-4.7-0.2c-3.9,0.5-7.9,0.8-11.8,0.8c-34.4,0-64.8-18.8-79.3-49
		c-7.2-14.9-9.4-32-6.1-48.3l0-1.6c-1.6-4.5-2.7-9-3.4-13.7c-8.3-14.4-11.6-31.2-9.4-47.8l0.4-2.9c0.2-1.1,0.2-1.6,0.3-2
		c1.7-10.7,5.6-20.9,11.5-29.9C95.2,399.3,72,367,72,329.8v-148c0-48.6,39.6-88.2,88.2-88.2h279.5c48.6,0,88.2,39.6,88.2,88.2v148
		c0,39-25.5,72.2-60.7,83.8c14.1,15.8,22.2,36.5,22.2,58.9c0,18-5.5,35.8-15.6,50.4c-0.4,1.3-0.8,2.5-1.2,3.7
		c-0.1,0.4-1.3,3.5-11.3,30c-11.1,30.4-39.3,50-71.7,50h-3.9c-4,0-8-0.3-12-0.9c-3.9,0.6-7.9,0.9-11.9,0.9h-5.5c-4,0-8.1-0.3-12.1-1
		C337.4,607.1,331.5,607.4,327.6,607.4L327.6,607.4z"/>
	<path fill="#2371B9" d="M327.6,594.9c-4.5,0-8.9-0.4-13.3-1.2c-2.9,0.4-5.9,0.6-8.8,0.6h-5c-1,0-1.9,0-2.9-0.1
		c-1,0-1.9,0.1-2.9,0.1H289c-3.2,0.4-6.5,0.6-9.7,0.6c-3.8,0-7.5-0.3-11.2-0.9c-1.8,0.2-3.6,0.2-5.3,0.2h-5c-1.4,0-2.8,0-4.2-0.1
		c-1.4,0.1-2.8,0.1-4.2,0.1h-5c-1.4,0-2.8,0-4.2-0.1c-1.4,0.1-2.8,0.1-4.2,0.1h-5c-1.7,0-3.4-0.1-5.1-0.2c-3.8,0.6-7.6,0.8-11.4,0.8
		c-29.6,0-55.6-16.1-68-41.9c-6.3-13-8-27.7-4.8-41.8c-0.1-1.3-0.1-2.6-0.1-3.9c0-0.3,0-0.6,0-1c-2-5.1-3.3-10.3-3.9-15.7
		c-7.8-12.5-11-27.2-9.1-41.9l0.4-2.9c0.1-0.9,0.2-1.3,0.2-1.6c2.4-15.7,10.4-29.4,22-39c-37.6-4.4-66.8-36.5-66.8-75.2v-148
		c0-41.7,34-75.7,75.7-75.7h279.5c41.7,0,75.7,34,75.7,75.7v148c0,41.7-34,75.7-75.7,75.7h-3.3c24.3,12.3,40.4,37.8,40.4,67
		c0,16.2-5.1,32-14.5,44.9c-0.5,1.7-1,3.3-1.6,5c-0.1,0.3-2,5.4-11.3,30c-9.3,25.4-32.9,41.9-60,41.9h-3.9c-4,0-8.1-0.4-12-1.1
		c-3.9,0.7-7.9,1.1-11.9,1.1h-5.5c-4.1,0-8.2-0.4-12.3-1.2C338.6,594.3,333.1,594.9,327.6,594.9L327.6,594.9z"/>
	<path fill="#00A3E2" d="M439.7,118.6H160.3c-34.8,0-63.2,28.3-63.2,63.2v148c0,34.9,28.3,63.2,63.2,63.2h13.3
		c1.8,4,4.1,7.8,6.8,11.1c-19.9,4.7-35.4,20.8-38.7,41.8c-0.1,0.3-0.1,0.6-0.2,1.3l-0.4,3c-1.7,12.8,1.5,25.6,8.8,36
		c0.4,6.1,1.8,12.1,4.3,17.8c-0.1,1.1-0.1,2.2-0.1,3.3c0,1.7,0,3.3,0.2,5c-3.1,11.8-1.9,24.2,3.5,35.3c10.3,21.5,32,34.8,56.7,34.8
		c3.7,0,7.4-0.3,11-0.9c1.8,0.2,3.7,0.3,5.5,0.3h5c1.4,0,2.8-0.1,4.2-0.2c1.4,0.1,2.8,0.2,4.2,0.2h5c1.4,0,2.8-0.1,4.2-0.2
		c1.4,0.1,2.8,0.2,4.2,0.2h5c1.9,0,3.8-0.1,5.8-0.3c3.6,0.6,7.2,1,10.8,1c3,0,5.9-0.2,8.9-0.6h6.6c1,0,1.9,0,2.9-0.1
		c1,0,1.9,0.1,2.9,0.1h5c3.1,0,6.1-0.3,9.1-0.8c4.2,1,8.6,1.4,13,1.4c3.3,0,9.4-0.3,16.3-2.2c4,1,8.2,1.5,12.4,1.5h5.5
		c4,0,8-0.5,11.9-1.4c3.9,0.9,8,1.4,12,1.4h3.9c21.9,0,40.8-13.2,48.3-33.7c7.6-20.3,11.1-29.6,11.2-29.9c0.7-2,1.3-4.1,1.8-6.2
		c8.8-11.1,13.5-24.9,13.5-39.4c0-31.5-21.8-56.9-51.3-61.6c5.6-4.9,10.2-10.9,13.3-17.9h13.3c34.9,0,63.2-28.4,63.2-63.2v-148
		C502.9,147,474.6,118.6,439.7,118.6L439.7,118.6z"/>
	<path fill="#00A3E2" d="M219.4,398.1c-11.9,0-22.2-8.5-24.5-20.2c-0.7-3.3-0.6-6.7,0.1-9.8h-34.7c-21.1,0-38.2-17.1-38.2-38.2v-148
		c0-21.1,17.1-38.2,38.2-38.2h279.5c21.1,0,38.2,17.1,38.2,38.2v148c0,21.1-17.1,38.2-38.2,38.2h-34.7c0.7,3.2,0.7,6.5,0,9.8
		c-2.3,11.7-12.6,20.2-24.5,20.2L219.4,398.1L219.4,398.1z"/>
	<path fill="#2371B9" d="M327.6,569.9c-4.4,0-8.6-0.6-12.7-1.8c-3,0.8-6.2,1.1-9.4,1.1h-5c-1,0-1.9,0-2.9-0.1
		c-1,0.1-1.9,0.1-2.9,0.1h-6.2c-0.4,0-0.9,0-1.3,0c-2.6,0.4-5.3,0.7-8,0.7c-3.5,0-7-0.4-10.5-1.1c-2,0.3-4.1,0.5-6.1,0.5h-5
		c-1.4,0-2.8-0.1-4.2-0.2c-1.4,0.2-2.8,0.2-4.2,0.2h-5c-1.4,0-2.8-0.1-4.2-0.2c-1.4,0.2-2.8,0.2-4.2,0.2h-5c-2,0-3.9-0.2-5.9-0.5
		c-3.4,0.7-7,1.1-10.6,1.1c-19.8,0-37.3-10.6-45.5-27.8c-4.3-8.9-5.1-19.2-2.1-28.7c-0.2-2-0.3-4-0.3-6.1c0-1.9,0.1-3.8,0.4-5.7
		c-3-5.6-4.7-12-4.7-18.4v-1.5c-7.1-8.2-10.3-19.1-8.9-30l0.4-3c0.1-0.5,0.1-0.7,0.1-1c2.9-18.9,19-32.6,38.2-32.6h22.8
		c8.8,0,17.1,2.9,23.9,8.2c0.6,0.1,1.1,0.2,1.6,0.4c2.4-0.5,4.8-0.7,7.3-0.7h17.8c2.3,0,4.6,0.2,6.9,0.6c3.8-0.8,7.6-1.3,11.5-1.3
		c3.6,0,7.3,0.4,10.8,1.1c2-0.3,3.9-0.5,5.9-0.5h1.6c7.5-6.4,17-9.9,26.9-9.9c10.1,0,19.9,3.8,27.5,10.4c0.6,0.1,1.1,0.3,1.7,0.4
		c4.2-1.1,8.6-1.6,13.1-1.6c3.6,0,7.2,0.4,10.7,1.1c1.8-0.3,3.6-0.4,5.4-0.4h6.2c0.4,0,0.9,0,1.3,0c2.6-0.4,5.3-0.6,8-0.6
		c27.4,0,48.9,21.9,48.9,49.9c0,12.7-4.6,24.7-12.7,33.9c-0.4,2.5-1,5.1-1.9,7.5c0,0-1.4,3.6-11.2,29.8c-5.6,15.5-20,25.5-36.6,25.5
		h-3.9c-4.1,0-8.2-0.6-12-1.9c-3.8,1.2-7.8,1.9-11.8,1.9h-5.5c-4.3,0-8.5-0.7-12.5-2.1C336.9,569.6,330.4,569.9,327.6,569.9
		L327.6,569.9z"/>
	<path fill="#00A3E2" d="M327.6,557.4c-4.4,0-8.6-0.8-12.6-2.4c-3,1.2-6.3,1.8-9.5,1.8h-5c-1,0-1.9,0-2.9-0.2
		c-1,0.1-1.9,0.2-2.9,0.2h-6.2c-0.7,0-1.4,0-2.1-0.1c-2.4,0.5-4.8,0.7-7.3,0.7c-3.5,0-6.9-0.5-10.1-1.4c-2.1,0.5-4.3,0.8-6.4,0.8h-5
		c-1.4,0-2.8-0.1-4.2-0.3c-1.4,0.2-2.8,0.3-4.2,0.3h-5c-1.4,0-2.8-0.1-4.2-0.3c-1.4,0.2-2.8,0.3-4.2,0.3h-5c-2.1,0-4.2-0.3-6.2-0.8
		c-3.3,0.9-6.8,1.4-10.4,1.4c-15,0-28.1-7.9-34.2-20.7c-3.4-6.9-3.5-15-0.5-22c-0.5-2.4-0.7-4.8-0.7-7.3c0-2.8,0.4-5.6,1.1-8.3
		c-3.5-4.5-5.4-10.1-5.4-15.8v-6.7c-1.1-0.9-2.1-1.8-3-2.9c-4.8-5.5-7-12.9-6-20.2l0.4-3c0-0.3,0.1-0.4,0.1-0.6
		c2-12.8,12.9-22.1,25.8-22.1H215c7,0,13.6,2.8,18.4,7.5c2.4,0.3,4.7,0.8,7,1.5c2.4-0.7,4.9-1.1,7.4-1.1h17.8c2.4,0,4.8,0.3,7,1
		c3.6-1.1,7.4-1.6,11.4-1.6c3.6,0,7.1,0.5,10.5,1.4c2-0.5,4.1-0.7,6.1-0.7h6.6c5.5-6.3,13.5-9.9,21.8-9.9c8.3,0,16.1,3.6,21.5,9.5
		c2.6,0.3,5.1,1,7.5,1.9c4.2-1.4,8.6-2.2,13.2-2.2c3.6,0,7.1,0.5,10.4,1.3c1.9-0.4,3.8-0.6,5.7-0.6h6.2c0.7,0,1.4,0,2.1,0.1
		c2.4-0.5,4.8-0.7,7.3-0.7c20.4,0,36.4,16.4,36.4,37.4c0,11.2-4.6,21.3-12.3,28.3c0,3-0.5,6-1.5,8.8c0,0-1.3,3.5-11.2,29.7
		c-3.9,10.7-13.4,17.4-24.8,17.4h-3.9c-4.3,0-8.4-1-12.1-2.8c-3.6,1.8-7.6,2.8-11.8,2.8h-5.5c-4.5,0-8.8-1.1-12.5-3.2
		c-0.5,0.3-1.1,0.6-1.7,0.8C336.1,557.2,329.5,557.4,327.6,557.4L327.6,557.4z"/>
</g>
<g id="desc-lg">
	<path fill="#2371B9" d="M327.6,544.9c-5,0-9.4-1.6-12.7-4.4c-2.5,2.4-5.9,3.8-9.3,3.8h-5c-1,0-2-0.1-2.9-0.3
		c-0.9,0.2-1.9,0.3-2.9,0.3h-6.2c-0.9,0-1.8-0.1-2.7-0.3c-2.1,0.6-4.3,0.9-6.6,0.9c-3.6,0-7.1-0.8-10.1-2.3c-2,1.1-4.2,1.6-6.5,1.6
		h-5c-1.5,0-2.9-0.2-4.2-0.7c-1.3,0.4-2.7,0.7-4.2,0.7h-5c-1.5,0-2.9-0.2-4.2-0.7c-1.3,0.4-2.7,0.7-4.2,0.7h-5
		c-2.2,0-4.3-0.5-6.2-1.5c-3.1,1.4-6.6,2.1-10.4,2.1c-10.1,0-18.9-5.2-22.9-13.5c-2-4-1.9-8.9,0.3-12.7l1.4-2.5
		c-1-2.4-1.6-5.2-1.6-8.5c0-4.5,1.5-8.5,3.9-11.8c-4.8-2.1-8.2-6.9-8.2-12.4v-13.9c-2.3-0.7-4.4-2-6-3.9c-2.5-2.8-3.6-6.6-3.1-10.4
		l0.4-3.1c0-0.1,0-0.2,0-0.3c1-6.7,6.7-11.5,13.5-11.5h22.8c5.2,0,9.8,2.9,12.1,7.3c0.5,0,1.1,0,1.6,0c4.4,0,8.4,1,12,2.7
		c2.1-1.4,4.5-2.1,7.1-2.1h17.8c2.5,0,4.9,0.7,6.9,1.9c3.4-1.6,7.4-2.5,11.6-2.5c3.8,0,7.4,0.7,10.6,2.1c1.8-1,3.9-1.5,6-1.5h12.6
		c0.2,0,0.5,0,0.7,0c2.6-5.8,8.4-9.9,15.2-9.9c6.5,0,12.2,3.8,14.9,9.3c0.6,0,1.2-0.1,1.8-0.1c4.5,0,8.7,1.3,12.1,3.4
		c3.9-2.2,8.5-3.4,13.4-3.4c3.8,0,7.3,0.7,10.5,2c1.7-0.8,3.7-1.3,5.7-1.3h6.2c0.9,0,1.8,0.1,2.7,0.3c2.1-0.6,4.3-0.9,6.6-0.9
		c13.4,0,23.9,11,23.9,24.9c0,10.1-5.5,18.7-13.6,22.6c1.5,3.1,1.7,6.8,0.5,10.2c0,0-11.2,29.7-11.2,29.7c-2,5.8-6.9,9.2-13.1,9.2
		h-3.9c-5.2,0-9.6-2.6-12.1-7c-2.3,4.2-6.7,7-11.8,7h-5.5c-5.6,0-10.5-3.5-12.5-8.4c-1.2,3.1-3.6,5.7-6.9,7.2
		C333,544.8,328.1,544.9,327.6,544.9L327.6,544.9z"/>
	<path fill="#FFFFFF" d="M206.4,484.4h-5.5c-0.5,0-1-0.5-1-1v-25.5c0-0.6-0.4-1-1-1h-3.2c-1.5,0-2.9,0.3-4,0.7c-0.6,0.2-1.1,0-1-0.6
		l0.4-3.1c0.1-0.6,0.5-1,1.1-1H215c0.6,0,1,0.4,1.1,1l0.4,3.1c0.1,0.6-0.4,0.9-1,0.6c-1.1-0.4-2.5-0.7-4-0.7h-3.2
		c-0.5,0-0.9,0.5-0.9,1v25.5C207.4,483.9,206.9,484.4,206.4,484.4L206.4,484.4z M215.5,472.6c0-7.3,5.3-12.5,13.2-12.5
		c7.7,0,13,5.2,13,12.5v0.1c0,0.7-0.7,1.4-1.4,1.4h-16.8c-0.4,0-0.6,0.2-0.5,0.7c0.4,3.4,3.2,6.4,7.2,6.4c3.1,0,5.4-1.4,7.2-3.6
		c0.3-0.3,0.7-0.4,1-0.1l1.8,1.4c0.3,0.3,0.4,0.8,0.1,1.2c-2.6,3.3-6.2,4.9-11,4.9C221.2,485,215.5,479.9,215.5,472.6L215.5,472.6z
		 M223.4,470.5h10.1c0.4,0,0.6-0.2,0.5-0.9c-0.4-3.3-2.8-5.8-5.6-5.8c-2.8,0-5.1,2.5-5.5,5.9C222.9,470.3,223.1,470.5,223.4,470.5
		L223.4,470.5z M265.6,460.7h-17.8c-0.5,0-0.7,0.5-0.3,1.1c0.5,0.7,1,1.6,1,3.7v4.2c0,2.4-0.1,5.7-0.9,8.2c-0.5,1.4-1.7,3.1-3.6,2.8
		c-0.6-0.1-1,0.3-0.9,0.8l0.5,2.7c0,0.2,0.2,0.6,0.8,0.5c3.3-0.3,5.6-2.3,6.8-5c1.2-2.9,1.5-6.5,1.5-9.5v-4.8c0-0.6,0.4-1,1-1h5.1
		c0.5,0,1,0.5,1,1v18c0,0.5,0.5,1,1,1h4.9c0.5,0,1-0.5,1-1v-21.8C266.6,461.2,266.2,460.7,265.6,460.7L265.6,460.7z M297,472.6v0.1
		c0,0.7-0.7,1.4-1.4,1.4h-16.8c-0.4,0-0.6,0.2-0.5,0.7c0.5,3.4,3.2,6.4,7.2,6.4c3.1,0,5.5-1.4,7.2-3.6c0.3-0.3,0.7-0.4,1-0.1
		l1.8,1.4c0.3,0.3,0.4,0.8,0.1,1.2c-2.6,3.3-6.2,4.9-11,4.9c-7.8,0-13.6-5.1-13.6-12.4c0-7.3,5.3-12.5,13.2-12.5
		C291.7,460.1,297,465.3,297,472.6L297,472.6z M289.4,469.6c-0.5-3.3-2.8-5.8-5.6-5.8c-2.8,0-5.1,2.5-5.5,5.9
		c-0.1,0.6,0.1,0.8,0.5,0.8H289C289.4,470.4,289.5,470.2,289.4,469.6z M300.4,461.8c-0.4-0.6-0.2-1.1,0.3-1.1h12.6
		c4,0,7.2,2.8,7.2,5.9c0,2-1.1,3.5-2.5,4.6c-0.4,0.3-0.3,0.5,0,0.7c2.2,1.2,3.8,3.2,3.8,5.9c0,3.4-3.5,6.6-8.1,6.6h-11.3
		c-0.5,0-1-0.5-1-1v-17.9C301.4,463.4,300.9,462.5,300.4,461.8z M308.3,468.9c0,0.5,0.4,1,1,1h2.1c1.1,0,2.2-1.2,2.2-2.8
		c0-1.9-1.3-2.8-2.5-2.8h-1.8c-0.5,0-1,0.3-1,1L308.3,468.9L308.3,468.9z M308.3,479.7c0,0.5,0.4,1,1,1h2.4c1.7,0,2.9-1.7,2.9-3.5
		c0-1.9-1.2-3.6-2.9-3.6h-2.4c-0.5,0-1,0.4-1,1V479.7z M331.8,460.7h-6.7c-0.5,0-0.7,0.5-0.3,1.1c0.5,0.7,1,1.6,1,3.7v17.9
		c0,0.5,0.5,1,1,1h5c0.5,0,1-0.5,1-1v-21.7C332.7,461.2,332.3,460.7,331.8,460.7z M329.1,450.9c-2.3,0-4,1.8-4,4s1.8,4,4,4
		s4-1.8,4-4C333.2,452.7,331.4,450.9,329.1,450.9z M355.4,477.7c0-2.5-1.5-4.5-4-5.8c-0.4-0.2-0.4-0.4,0-0.7c1.6-1.2,2.6-2.8,2.6-5
		c0-3.2-3.2-6.1-8.2-6.1c-2.6,0-5.6,1-7.1,2.5c-0.5,0.5-0.4,1-0.1,1.5l1,2c0.3,0.5,1,0.5,1.3,0c0.7-1.3,1.9-2.3,3.4-2.3
		c1.8,0,2.9,1,2.9,2.9c0,2-1.2,3.2-2.8,3.2h-0.7c-0.5,0-1,0.5-1,1v1.9c0,0.7,0.5,0.9,1.2,0.9h0.7c2.5,0,3.6,1.6,3.6,3.6
		c0,2.5-1.3,4.1-3.9,4.1c-1.4,0-3.4-0.9-4.4-2.2c-0.3-0.4-0.7-0.9-1.3-0.5l-1.6,0.9c-0.8,0.4-0.7,0.9-0.5,1.1
		c1.5,2.4,4.5,4.5,9.7,4.5C351.4,485,355.4,481.8,355.4,477.7z M358.1,472.6c0-7.2,5.4-12.5,13.3-12.5c8,0,13.4,5.3,13.4,12.5
		c0,7.2-5.4,12.4-13.4,12.4C363.5,485,358.1,479.7,358.1,472.6z M365.2,472.6c0,5,2.7,8.7,6.2,8.7c3.6,0,6.3-3.7,6.3-8.7
		c0-5.1-2.7-8.8-6.3-8.8C367.9,463.8,365.2,467.5,365.2,472.6z M414.4,472.6c0,6.9-4.6,12.5-11.4,12.5c-2.8,0-5.1-0.9-6.9-2.3
		c-0.6-0.5-1,0-1,0.2v8.4c0,0.5-0.5,1-1,1h-4.8c-0.6,0-1-0.5-1-1v-25.7c0-2.1-0.5-3.1-1-3.7c-0.4-0.6-0.2-1.1,0.3-1.1h6.2
		c0.5,0,1,0.5,1,1v0.7c0,0.8,0.5,0.8,1,0.3c1.9-1.6,4.4-2.6,7.3-2.6C409.8,460.1,414.4,465.7,414.4,472.6L414.4,472.6z M407.4,472.6
		c0-5-2.7-8.1-6.2-8.1c-2.2,0-4.1,1.4-5.5,3.6c-0.3,0.5-0.5,1.1-0.5,1.9v5.5c0,0.7,0.2,1.4,0.5,1.9c1.3,2.2,3.3,3.6,5.5,3.6
		C404.6,480.7,407.4,477.7,407.4,472.6L407.4,472.6z M216.8,511.5c-3.3-1.7-6-2.9-6-5c0-1.8,1.3-2.9,3.6-2.9c2.8,0,4.7,1.8,5.6,3.1
		c0.4,0.6,1.2,0.7,1.5,0l1.6-2.6c0.3-0.5,0.3-1.1-0.1-1.5c-1.9-1.9-4.8-3-8.7-3c-5.4,0-10,3.1-10.1,8.1c-0.1,5.8,4.4,8.5,9,10.7
		c3.1,1.6,5.9,3,5.9,5.9c0,2.4-1.7,4.1-4.8,4.1c-4,0-7.3-3.3-8.1-6.9c-0.2-0.8-1.1-0.8-1.4-0.3l-1.9,3.5c-0.2,0.3-0.1,0.9,0,1.3
		c1.7,3.6,5.9,6.5,11.7,6.5c6.8,0,10.9-4.2,10.9-9.5C225.4,516.8,220.7,513.6,216.8,511.5L216.8,511.5z M255.8,507.5
		c-2.7,0-4.4,0.8-6.7,2.5c-0.4,0.4-0.7,0.3-0.9,0c-1.2-1.6-3.1-2.5-5.4-2.5c-2.8,0-4.2,1-5.6,2.3c-0.4,0.4-0.6,0.3-0.6-0.4v-0.3
		c0-0.5-0.4-1-1-1h-6.2c-0.5,0-0.7,0.5-0.3,1.1c0.5,0.7,1,1.6,1,3.7v17.9c0,0.5,0.4,1,0.9,1h5c0.6,0,1-0.5,1-1v-13.1
		c0-3.2,2-5.7,3.6-5.7c1.9,0,2.8,1.2,2.8,4.4v14.4c0,0.5,0.4,1,0.9,1h5c0.5,0,0.9-0.5,0.9-1v-13.2c0-3.2,2-5.7,3.6-5.7
		c1.9,0,2.8,1.2,2.8,4.4v14.5c0,0.5,0.5,1,1,1h5c0.5,0,1-0.5,1-1v-15.5C263.7,509.9,260.4,507.5,255.8,507.5L255.8,507.5z
		 M295.1,530.7c0.4,0.6,0.2,1.1-0.3,1.1h-6.2c-0.5,0-1-0.5-1-1v-0.7c0-0.8-0.5-0.8-1-0.3c-1.9,1.6-4.4,2.6-7.3,2.6
		c-6.8,0-11.4-5.6-11.4-12.4c0-6.8,4.6-12.5,11.4-12.5c2.8,0,5.1,0.9,6.9,2.3c0.6,0.5,1,0,1-0.2V509c0-0.5,0.5-1,1-1h4.9
		c0.5,0,1,0.5,1,1v17.9C294,529,294.6,530,295.1,530.7L295.1,530.7z M287.2,517.2c0-0.7-0.2-1.4-0.5-1.8c-1.3-2.2-3.3-3.6-5.5-3.6
		c-3.5,0-6.2,3.1-6.2,8.2c0,5,2.7,8.1,6.2,8.1c2.2,0,4.1-1.4,5.5-3.6c0.3-0.5,0.5-1.1,0.5-1.8V517.2L287.2,517.2z M315.1,507.8
		c-0.5-0.2-1.5-0.4-2.4-0.4c-2.9,0-4.5,1.2-5.9,2.5c-0.4,0.4-0.7,0.3-0.7-0.2v-0.6c0-0.5-0.5-1-1-1h-6.2c-0.5,0-0.7,0.5-0.3,1.1
		c0.5,0.7,1,1.6,1,3.7v17.9c0,0.5,0.5,1,1,1h5c0.5,0,1-0.5,1-1v-12.9c0-3.2,1.3-5.1,3.5-5.1c1.1,0,2,0.6,2.6,1.2
		c0.4,0.5,1.2,0.5,1.4-0.4l1.7-4.6C315.9,508.3,315.6,508,315.1,507.8L315.1,507.8z M331.4,508.1h-2.8c-0.5,0-0.9-0.4-0.9-0.9v-3.5
		c0-0.5-0.5-1-1-1h-4.9c-0.5,0-1,0.5-1,1v3.5c0,0.5-0.4,0.9-1,0.9h-1.5c-0.5,0-1,0.5-1,1v1.8c0,0.6,0.5,1,1,1h1.5c0.6,0,1,0.4,1,1
		v13.7c0,3.7,2.7,6,6.8,6c1.4,0,3.4-0.4,4-0.7c0.5-0.2,0.6-0.4,0.5-0.9l-0.3-1.9c0-0.4-0.2-0.6-0.8-0.5c-0.4,0.1-0.7,0.3-1.4,0.3
		c-1.1,0-1.9-0.8-1.9-2.2v-13.7c0-0.6,0.4-1,0.9-1h2.8c0.5,0,1-0.4,1-1v-1.8C332.3,508.6,331.9,508.1,331.4,508.1L331.4,508.1z
		 M370.4,500.2h-22.8c-0.6,0-1,0.4-1.1,1l-0.4,3.1c-0.1,0.6,0.4,0.9,1,0.6c1.1-0.4,2.5-0.7,4-0.7h3.2c0.5,0,1,0.5,1,1v25.5
		c0,0.5,0.5,1,1,1h5.5c0.5,0,1-0.5,1-1v-25.5c0-0.6,0.5-1,1-1h3.2c1.5,0,2.9,0.3,4,0.7c0.6,0.2,1.1,0,1-0.6l-0.4-3.1
		C371.4,500.6,371,500.2,370.4,500.2L370.4,500.2z M401.4,500.2H398c-0.8,0-1,0.3-1.3,1l-7.6,20.5c-0.1,0.5-0.6,0.4-0.7,0l-7.4-20.5
		c-0.3-0.8-0.5-1-1.3-1h-7.1c-0.6,0-0.9,0.5-0.3,1.1c0.7,0.6,1.4,1.6,2.2,3.7l9.8,25.8c0.3,0.8,0.5,1,1.3,1h3.9c0.9,0,1.1-0.1,1.4-1
		l11.2-29.7C402.2,500.6,402,500.2,401.4,500.2z"/>
	<path fill="#FFFFFF" d="M412,502.6c0.2-0.1,0.2-0.4,0-0.4l-1.3-0.5c-1-0.3,0.5-2.9,1.3-2.2l1,0.9c0.1,0.1,0.4,0,0.4-0.2l-0.2-1.3
		c-0.1-0.5,0.5-0.8,1.2-0.8s1.4,0.3,1.3,0.8l-0.2,1.4c0,0.2,0.2,0.3,0.3,0.2l1-0.9c0.8-0.8,2.3,1.9,1.3,2.2l-1.3,0.5
		c-0.2,0.1-0.1,0.3,0,0.4l1.3,0.5c1,0.3-0.5,2.9-1.3,2.2l-1-0.9c-0.1-0.1-0.4,0-0.3,0.2l0.2,1.4c0.1,0.5-0.5,0.8-1.2,0.8
		c-0.7,0-1.5-0.3-1.3-0.8l0.3-1.4c0.1-0.2-0.2-0.3-0.4-0.2l-1,0.9c-0.8,0.8-2.3-1.9-1.3-2.2L412,502.6z M423.1,502.6
		c0.2-0.1,0.2-0.4,0-0.4l-1.3-0.5c-1-0.3,0.5-2.9,1.3-2.2l1,0.9c0.1,0.1,0.4,0,0.4-0.2l-0.2-1.3c-0.1-0.5,0.5-0.8,1.2-0.8
		s1.4,0.3,1.3,0.8l-0.2,1.4c0,0.2,0.2,0.3,0.3,0.2l1-0.9c0.8-0.8,2.3,1.9,1.3,2.2l-1.3,0.5c-0.2,0.1-0.1,0.3,0,0.4l1.3,0.5
		c1,0.3-0.5,2.9-1.3,2.2l-1-0.9c-0.1-0.1-0.4,0-0.3,0.2l0.2,1.4c0.1,0.5-0.5,0.8-1.2,0.8c-0.7,0-1.5-0.3-1.3-0.8l0.3-1.4
		c0.1-0.2-0.2-0.3-0.4-0.2l-1,0.9c-0.8,0.8-2.3-1.9-1.3-2.2L423.1,502.6z"/>
</g>
<path fill="none" d="M27.5-31.4h590v673.9h-590L27.5-31.4z"/>
<g id="title-lg">
	<path fill="#2371B9" d="M318.8,121.9c-4.5,0-8.5-2.2-10.9-5.8c-2.5,3.6-6.5,5.8-10.9,5.8h-1.6c-4.7,0-8.8-2.4-11.2-6.1
		c-1.8,0.3-3.7,0.5-5.6,0.5c-2.2,0-4.3-0.2-6.4-0.7c-2.4,3.8-6.5,6.2-11.3,6.2h-1.6c-4.6,0-8.7-2.4-11.1-6.1h-19.1
		c-7.4,0-13.3-6-13.3-13.3V81.1c-1.6-3.7-1.5-7.8,0.4-11.3c2.2-4.3,6.6-6.9,11.5-6.9h4.9c1.6,0,3.2,0.3,4.6,0.8
		c1.4-0.5,3-0.8,4.6-0.8h3.4c1.6,0,3.2,0.3,4.6,0.8c1.4-0.5,3-0.8,4.6-0.8h3.4c2.9,0,5.6,0.9,7.8,2.5c3.8-2,8.3-3.1,13-3.1
		c4.9,0,9.5,1.2,13.5,3.3c2.2-1.8,5-2.8,8-2.8h17.1c1.3,0,2.5,0.2,3.6,0.5c1.2-0.3,2.4-0.5,3.6-0.5h4.9c2.6,0,5,0.7,7,2
		c2-1.3,4.5-2,7-2h3.3c2.3,0,4.5,0.6,6.4,1.6c2.5-1,5.3-1.6,8.2-1.6h9.5c7.4,0,13.4,6,13.4,13.4v26.3c0,7.4-6,13.3-13.3,13.3h-3.4
		c-2,0-3.9-0.4-5.6-1.2c-1.8,0.8-3.7,1.2-5.7,1.2h-4.2c-0.9,0-1.8-0.1-2.7-0.3c-0.9,0.2-1.8,0.3-2.7,0.3h-3.3c-2.6,0-5-0.7-7-2
		c-1.4,0.9-3,1.5-4.6,1.8c-2.4,3.8-6.6,6.3-11.4,6.3L318.8,121.9L318.8,121.9z"/>
	<path fill="#FDE619" d="M262.2,101l-0.4,7.5c0,0.5-0.4,0.9-0.9,0.9h-1.6c-0.5,0-0.8-0.4-0.9-0.9l-1.2-4.3c-0.2-0.5-0.6-0.9-1.1-0.9
		h-27c-0.4,0-0.8-0.4-0.8-0.8V79.6c0-1.9-0.5-2.7-0.9-3.3c-0.4-0.5-0.2-1,0.2-1h4.9c0.5,0,0.9,0.4,0.9,0.9v23c0,0.5,0.4,0.9,0.8,0.9
		h5.8c0.4,0,0.8-0.4,0.8-0.9v-23c0-0.5,0.4-0.9,0.9-0.9h3.4c0.5,0,0.9,0.4,0.9,0.9v23c0,0.5,0.4,0.9,0.9,0.9h5.8
		c0.5,0,0.9-0.4,0.9-0.9v-23c0-0.5,0.4-0.9,0.8-0.9h3.4c0.4,0,0.8,0.4,0.8,0.9v23c0,0.5,0.4,0.9,0.9,0.9h1.8
		C261.9,100.1,262.2,100.5,262.2,101L262.2,101z M293.8,89.4c0,8.2-6.4,14.5-15.2,14.5c-8.7,0-15.1-6.3-15.1-14.5
		c0-8.3,6.4-14.6,15.1-14.6C287.4,74.8,293.8,81.1,293.8,89.4z M288.2,89.3c0-6.4-4-11.4-9.6-11.4c-5.5,0-9.5,5-9.5,11.4
		s4,11.4,9.5,11.4C284.2,100.7,288.2,95.7,288.2,89.3z M321.7,101l-0.4,7.5c0,0.5-0.4,0.9-0.9,0.9h-1.6c-0.5,0-0.8-0.4-0.9-0.9
		l-1.2-4.3c-0.2-0.5-0.6-0.9-1.1-0.9h-15.6c-0.4,0-0.9,0.4-1.1,0.9l-1.2,4.3c-0.1,0.5-0.4,0.9-0.9,0.9h-1.6c-0.5,0-0.8-0.4-0.9-0.9
		l-0.4-7.5c0-0.5,0.3-0.9,0.8-0.9h1.6c0.8,0,1-0.1,1.2-0.8c2-5.4,3.2-11.7,3.2-16.8v-2.9c0-1.9-0.5-2.7-0.9-3.3
		c-0.4-0.5-0.2-1,0.2-1h17.1c0.5,0,0.9,0.4,0.9,0.9v23c0,0.5,0.4,0.9,0.9,0.9h1.8C321.3,100.1,321.7,100.5,321.7,101L321.7,101z
		 M313,79.4c0-0.5-0.4-0.9-0.9-0.9h-6.9c-0.5,0-0.9,0.4-0.9,0.9v2.4c0,5.7-1.1,12.3-2.9,17.5c-0.1,0.4,0.1,0.8,0.6,0.8h10
		c0.5,0,0.9-0.4,0.9-0.9V79.4L313,79.4z M346.7,75.3h-3.3c-0.5,0-0.9,0.4-0.9,0.9v10.4c0,0.5-0.4,0.9-0.8,0.9h-10.5
		c-0.5,0-0.8-0.4-0.8-0.9V76.2c0-0.5-0.4-0.9-0.9-0.9h-4.9c-0.4,0-0.6,0.4-0.2,1c0.4,0.6,0.9,1.4,0.9,3.3v22.9
		c0,0.4,0.4,0.8,0.8,0.8h3.4c0.5,0,0.9-0.4,0.9-0.8v-11c0-0.5,0.3-0.9,0.8-0.9h10.6c0.4,0,0.8,0.4,0.8,0.9v11c0,0.4,0.4,0.8,0.9,0.8
		h3.3c0.5,0,0.9-0.4,0.9-0.8V76.2C347.6,75.7,347.2,75.3,346.7,75.3L346.7,75.3z M371.7,76.2v26.3c0,0.4-0.4,0.8-0.8,0.8h-3.4
		c-0.5,0-0.9-0.4-0.9-0.8v-8.8c0-0.5-0.3-0.9-0.8-0.9h-2.2c-0.7,0-1,0.2-1.3,0.8l-4.7,8.9c-0.2,0.5-0.9,0.8-1.4,0.8h-4.2
		c-0.5,0-0.6-0.4-0.4-0.8l5.6-9.7c0.3-0.4,0-0.9-0.4-1.2c-2.7-1.5-4.8-4-4.8-7.4c0-4.9,4.2-8.9,9.2-8.9h9.5
		C371.3,75.3,371.7,75.7,371.7,76.2L371.7,76.2z M366.6,79.5c0-0.5-0.4-1-0.8-1h-3.1c-3,0-5.1,2.5-5.1,5.6c0,3,2.1,5.5,5.1,5.5h3.1
		c0.5,0,0.8-0.4,0.8-1V79.5z"/>
</g>
<path fill="none" d="M-2889.7-1330.3h5094.3v2865.6h-5094.3V-1330.3z"/>
<path fill="none" d="M-1302.5-437.5h1920v1080h-1920V-437.5z"/>
<path fill="none" d="M223,243.3c0,2.8,2.3,5.1,5.1,5.1c2.8,0,5.1-2.3,5.1-5.1c0-2.8-2.3-5.1-5.1-5.1
	C225.3,238.2,223,240.4,223,243.3z"/>
<g id="icon-lg">
	<path fill="#2371B9" d="M219.4,385.6c-6,0-11.1-4.2-12.3-10.1s2-11.7,7.5-14l14.5-6h-69c-14.2,0-25.7-11.5-25.7-25.7v-148
		c0-14.2,11.5-25.7,25.7-25.7h279.5c14.2,0,25.7,11.5,25.7,25.7v148c0,14.2-11.5,25.7-25.7,25.7h-68.9l14.5,6
		c5.5,2.3,8.7,8.1,7.5,14c-1.2,5.9-6.3,10.1-12.3,10.1L219.4,385.6L219.4,385.6z"/>
	<path fill="#FFFFFF" d="M439.7,168.6H160.3c-7.3,0-13.2,5.9-13.2,13.2v148c0,7.3,5.9,13.2,13.2,13.2h132.5l-73.3,30h161.1l-73.3-30
		h132.5c7.3,0,13.2-5.9,13.2-13.2v-148C452.9,174.6,447,168.6,439.7,168.6L439.7,168.6z"/>
	<path fill="#6F6F6E" d="M322.9,228h-13.7v59.3h42.1v-11.5h-28.4L322.9,228z M381.4,264.7h11.2v10.4c-2.1,0.8-6.1,1.6-9.9,1.6
		c-12.3,0-16.5-6.3-16.5-19c0-12.1,3.9-19.3,16.3-19.3c6.9,0,10.8,2.1,14,6.3l8.5-7.8c-5.2-7.4-14.3-9.7-22.8-9.7
		c-19.2,0-29.3,10.5-29.3,30.5c0,19.9,9.1,30.6,29.2,30.6c9.2,0,18.2-2.4,23.1-5.8v-28.8h-23.8L381.4,264.7L381.4,264.7z"/>
	
		<radialGradient id="SVGID_1_" cx="-1428.3201" cy="705.3044" r="1.498" gradientTransform="matrix(31.9334 0 0 31.9334 45852.168 -22266.2578)" gradientUnits="userSpaceOnUse">
		<stop  offset="0" style="stop-color:#BD0738"/>
		<stop  offset="0.5" style="stop-color:#BD0738"/>
		<stop  offset="0.756" style="stop-color:#BB0737"/>
		<stop  offset="0.864" style="stop-color:#B40834"/>
		<stop  offset="0.944" style="stop-color:#A7092E"/>
		<stop  offset="1" style="stop-color:#990B28"/>
	</radialGradient>
	<path fill="url(#SVGID_1_)" d="M242.7,212c-25.3,0-45.9,20.5-45.9,45.9c0,25.4,20.6,45.9,45.9,45.9c25.3,0,45.7-20.4,45.9-45.5
		v-0.7C288.5,232.4,268,212,242.7,212L242.7,212z"/>
	
		<radialGradient id="SVGID_2_" cx="799.7884" cy="631.8181" r="84.263" gradientTransform="matrix(0.6971 0 0 -0.6971 -330.301 682.0617)" gradientUnits="userSpaceOnUse">
		<stop  offset="0" style="stop-color:#FFFFFF"/>
		<stop  offset="0.35" style="stop-color:#FFFFFF"/>
		<stop  offset="0.531" style="stop-color:#FBFBFC"/>
		<stop  offset="0.718" style="stop-color:#EEF1F2"/>
		<stop  offset="0.908" style="stop-color:#DADFE3"/>
		<stop  offset="1" style="stop-color:#CDD4D9"/>
	</radialGradient>
	<path fill="url(#SVGID_2_)" d="M240.9,237.8V278h12.8v-3.6h-9.1v-36.6L240.9,237.8L240.9,237.8z M242.2,219.5
		c-20.9,0.3-37.9,17.4-37.9,38.4c0,10.3,4,19.9,11.3,27.2c7.2,7.3,16.9,11.3,27.1,11.3c10.3,0,19.9-4,27.2-11.3
		c7.3-7.3,11.2-16.9,11.2-27.2v-1.8l-1.5,0h-25.9v3.6h23.8c0,0.1,0,0.5,0,0.5c-1.2,18.1-16.3,32.5-34.8,32.5
		c-9.3,0-18-3.6-24.6-10.2c-6.6-6.6-10.2-15.3-10.2-24.6c0-9.3,3.6-18.1,10.2-24.6c6.6-6.6,15.3-10.2,24.6-10.2c0.4,0,1.4,0,1.8,0
		v-3.6c-0.4,0-1,0-1.4,0L242.2,219.5L242.2,219.5z"/>
	
		<radialGradient id="SVGID_3_" cx="797.7154" cy="632.3961" r="12.304" gradientTransform="matrix(0.6971 0 0 -0.6971 -330.301 682.0617)" gradientUnits="userSpaceOnUse">
		<stop  offset="0" style="stop-color:#FFFFFF"/>
		<stop  offset="0.35" style="stop-color:#FFFFFF"/>
		<stop  offset="0.568" style="stop-color:#FBFBFC"/>
		<stop  offset="0.792" style="stop-color:#EEF1F2"/>
		<stop  offset="1" style="stop-color:#DCE1E4"/>
	</radialGradient>
	<path fill="url(#SVGID_3_)" d="M222.6,243.3c0,3,2.5,5.5,5.5,5.5c3,0,5.5-2.4,5.5-5.5c0-3.1-2.5-5.5-5.5-5.5
		S222.6,240.2,222.6,243.3"/>
</g>
</svg>
