<?xml version="1.0" encoding="utf-8"?>
<!-- Generator: Adobe Illustrator 21.1.0, SVG Export Plug-In . SVG Version: 6.00 Build 0)  -->
<svg version="1.1" id="test" xmlns="http://www.w3.org/2000/svg" xmlns:xlink="http://www.w3.org/1999/xlink" x="0px" y="0px"
	 viewBox="0 0 477 618.2" enable-background="new 0 0 477 618.2" xml:space="preserve">
<path fill="#008453" d="M99.9,877.8c-104.6,0-208.5-52.1-271.3-136.1c-15.7-19.3-29.9-41.5-41.4-64.2
	c-48.1-59.8-76.9-140.1-76.9-215.2v-36c0-61.4,17.7-124.2,49.9-177.2c-1.6-14.3-2.4-28.8-2.4-42.1c0-218.6,177.9-396.5,396.5-396.5
	c16.7,0,34.8,1.2,52.3,3.6c17.5-2.3,35.6-3.6,52.3-3.6c93.9,0,185,33.5,256.6,94.4c18.5,15.7,36.5,34.3,52.4,54
	c90.4,62.3,146.5,168.7,146.5,278.3V331c12,36.5,18.6,76.7,18.6,113.3c0,75.1-23,147-66.5,208.1c-19.2,45.8-49.2,89.2-84.5,122.2
	c-65.7,61.5-151.9,95.3-242.6,95.3h-12.1c-1.4,0-2.9,0-4.3,0c-1.4,0-2.9,0-4.3,0h-5.4c-2.3,0-4.6,0-6.9-0.1c-2.3,0-4.7,0.1-6.9,0.1
	h-5.5c-4.3,0-8.6-0.1-12.8-0.3c-4.3,0.2-8.7,0.3-13,0.3h-11.3c-3.3,0-6.6,0-9.9-0.2c-3.3,0.1-6.6,0.2-9.9,0.2h-5c-1.5,0-3.1,0-4.7,0
	c-1.6,0-3.1,0-4.7,0h-4.9c-1.3,0-2.5,0-3.8,0c-1.3,0-2.5,0-3.8,0h-5c-1.2,0-2.3,0-3.5,0c-1.2,0-2.4,0-3.5,0h-3.8c-1.1,0-2.3,0-3.4,0
	c-1.1,0-2.3,0-3.4,0h-2.3c-2.1,0-4.3,0-6.6-0.1c-0.5,0-0.9,0-1.4,0c-23.8,5.2-48.8,7.9-72.4,7.9L99.9,877.8L99.9,877.8z"/>
<g id="bg1">
	<path fill="#00AA4F" d="M99.9,865.3C-0.9,865.3-101.1,815-161.6,734c-15.5-19-29.5-40.9-40.7-63.3
		c-46.9-57.8-74.9-135.6-74.9-208.4v-36c0-60.7,17.8-122.5,50.3-174.4c-1.8-15.3-2.8-30.7-2.8-44.9c0-211.7,172.3-384,384-384
		c16.8,0,34.8,1.3,52.3,3.7c17.5-2.4,35.6-3.7,52.3-3.7c90.9,0,179.1,32.5,248.5,91.4c18.3,15.6,36.3,34.1,51.9,53.7
		C647.4,28.1,702,131,702,237.2v95.8c12,35.8,18.6,75.3,18.6,111.3c0,73-22.5,142.8-65,201.9c-18.5,44.7-47.6,87-82,119.2
		c-63.4,59.3-146.5,92-234.1,92h-12.1c-1.4,0-2.9,0-4.3,0c-1.4,0-2.9,0-4.3,0h-5.4c-2.3,0-4.6,0-6.9-0.1c-2.3,0-4.6,0.1-6.9,0.1
		h-5.5c-4.2,0-8.6-0.1-12.8-0.3c-4.3,0.2-8.7,0.3-13,0.3h-11.3c-3.3,0-6.6,0-9.9-0.2c-3.3,0.1-6.6,0.2-9.9,0.2h-5
		c-1.5,0-3.1,0-4.7,0c-1.6,0-3.1,0-4.7,0h-4.9c-1.3,0-2.5,0-3.8,0c-1.3,0-2.5,0-3.8,0h-5c-1.2,0-2.3,0-3.5,0c-1.2,0-2.4,0-3.5,0
		h-3.8c-1.1,0-2.3,0-3.4,0c-1.1,0-2.3,0-3.4,0h-2.3c-2.1,0-4.4,0-6.6-0.1c-0.9,0-1.9,0-2.8,0c-23.3,5.2-47.8,7.9-71,7.9L99.9,865.3
		L99.9,865.3z"/>
	<path fill="#008453" d="M99.9,852.8c-97,0-193.4-48.5-251.6-126.5c-15.2-18.7-29-40.3-39.9-62.5c-45.7-55.8-73-131-73-201.6v-36
		c0-60,18-120.7,50.8-171.4c-2.1-16.2-3.3-32.7-3.3-47.8c0-204.8,166.6-371.5,371.5-371.5c16.8,0,34.8,1.3,52.3,3.8
		c17.5-2.5,35.5-3.8,52.3-3.8c87.9,0,173.3,31.4,240.4,88.4c18.2,15.5,36,34,51.4,53.5C636.4,35,689.5,134.3,689.5,237.2v97.9
		c12,35.1,18.6,73.8,18.6,109.2c0,70.9-21.9,138.5-63.5,195.8c-17.8,43.6-46.1,84.8-79.6,116.2c-61.1,57.1-141.2,88.6-225.6,88.6
		h-12.1c-1.4,0-2.9,0-4.3,0c-1.4,0-2.9,0-4.3,0h-5.4c-2.3,0-4.6,0-6.9-0.1c-2.3,0-4.7,0.1-6.9,0.1h-5.5c-4.2,0-8.5-0.1-12.8-0.3
		c-4.3,0.2-8.7,0.3-13,0.3h-11.3c-3.3,0-6.6,0-9.9-0.2c-3.3,0.1-6.6,0.2-9.9,0.2h-5c-1.5,0-3.1,0-4.7,0c-1.6,0-3.1,0-4.7,0h-4.9
		c-1.3,0-2.5,0-3.8,0c-1.3,0-2.5,0-3.8,0h-5c-1.2,0-2.3,0-3.5,0c-1.2,0-2.4,0-3.5,0h-3.8c-1.1,0-2.3,0-3.4,0c-1.1,0-2.3,0-3.4,0
		h-2.3c-2.1,0-4.4,0-6.6-0.1c-1.4,0-2.8,0-4.2,0.1c-22.8,5.2-46.8,7.9-69.5,7.9L99.9,852.8L99.9,852.8z"/>
	<path fill="#00AA4F" d="M99.9,840.3c-93.3,0-185.9-46.6-241.7-121.7c-15-18.4-28.6-39.7-39.2-61.6
		c-44.5-53.7-71.1-126.4-71.1-194.8v-36c0-59.3,18.2-119,51.3-168.5c-2.5-17.2-3.8-34.6-3.8-50.8c0-197.9,161-359,359-359
		c16.8,0,34.8,1.4,52.3,3.9c17.5-2.6,35.5-3.9,52.3-3.9c85,0,167.5,30.4,232.3,85.5c18.1,15.4,35.7,33.8,50.9,53.3
		C625.4,41.8,677,137.6,677,237.2v100c12,34.4,18.6,72.4,18.6,107.1c0,68.8-21.4,134.3-62,189.7c-17.2,42.5-44.5,82.7-77.1,113.2
		c-58.8,55-135.8,85.2-217,85.2h-12.1c-1.4,0-2.9,0-4.3,0c-1.4,0-2.9,0-4.3,0h-5.4c-2.3,0-4.6,0-6.9-0.1c-2.3,0-4.6,0.1-6.9,0.1
		h-5.5c-4.2,0-8.5-0.1-12.8-0.3c-4.3,0.2-8.7,0.3-13,0.3h-11.3c-3.3,0-6.6,0-9.9-0.2c-3.3,0.1-6.6,0.2-9.9,0.2h-5
		c-1.5,0-3.1,0-4.7,0c-1.6,0-3.1,0-4.7,0h-4.9c-1.3,0-2.5,0-3.8,0c-1.3,0-2.5,0-3.8,0h-5c-1.2,0-2.3,0-3.5,0c-1.2,0-2.4,0-3.5,0
		h-3.8c-1.1,0-2.3,0-3.4,0c-1.1,0-2.3,0-3.4,0h-2.3c-2.1,0-4.4,0-6.6-0.1c-1.9,0-3.8,0.1-5.7,0.1c-22.3,5.2-45.9,7.9-68.1,7.9
		L99.9,840.3L99.9,840.3z"/>
	<path fill="#008453" d="M99.9,827.8C10.4,827.8-78.4,783-132,711c-14.8-18.1-28.1-39.1-38.5-60.7c-43.3-51.7-69.2-121.8-69.2-187.9
		v-36c0-58.6,18.4-117.2,51.9-165.5c-2.9-18.1-4.4-36.6-4.4-53.8c0-191.1,155.4-346.5,346.5-346.5c16.8,0,34.8,1.4,52.3,4.1
		c17.5-2.7,35.5-4.1,52.3-4.1c82,0,161.6,29.3,224.2,82.5c18,15.3,35.4,33.6,50.4,53c80.8,52.6,130.9,144.8,130.9,241.1v102.1
		c12,33.6,18.6,70.8,18.6,105c0,66.6-20.9,130.1-60.5,183.6c-16.5,41.4-42.9,80.5-74.6,110.2C491.5,790.9,417.5,820,339.5,820h-12.1
		c-1.4,0-2.9,0-4.3,0c-1.5,0-2.9,0-4.3,0h-5.4c-2.3,0-4.6,0-6.9-0.1c-2.3,0.1-4.6,0.1-6.9,0.1h-5.5c-4.2,0-8.5-0.1-12.8-0.3
		c-4.4,0.2-8.7,0.3-13,0.3h-11.3c-3.3,0-6.6-0.1-9.9-0.2c-3.3,0.1-6.6,0.2-9.9,0.2h-5c-1.5,0-3.1,0-4.7,0c-1.6,0-3.1,0-4.7,0h-4.9
		c-1.3,0-2.5,0-3.8,0c-1.3,0-2.5,0-3.8,0h-5c-1.2,0-2.3,0-3.5,0c-1.2,0-2.4,0-3.5,0h-3.8c-1.1,0-2.3,0-3.4,0c-1.1,0-2.3,0-3.4,0
		h-2.3c-2.1,0-4.4,0-6.6-0.1c-2.3,0-4.5,0.1-6.7,0.1h-0.4c-21.8,5.2-44.8,7.9-66.6,7.9L99.9,827.8L99.9,827.8z"/>
	<path fill="#00AA4F" d="M99.9,815.3c-85.8,0-170.8-42.9-222-112c-14.6-17.8-27.7-38.5-37.8-59.8c-42.2-49.7-67.3-117.2-67.3-181.1
		v-36c0-58,18.6-115.4,52.6-162.5c-3.3-19.1-5.1-38.6-5.1-56.8c0-184.2,149.8-334,334-334c16.8,0,34.9,1.4,52.3,4.2
		c17.5-2.8,35.5-4.2,52.3-4.2c79,0,155.8,28.2,216.1,79.5c17.9,15.2,35.1,33.5,49.9,52.8c78.4,50.1,127,138.7,127,231.8v104.3
		c12,32.9,18.6,69.3,18.6,102.8c0,64.5-20.4,125.8-59,177.4c-15.8,40.3-41.3,78.3-72.2,107.2c-54.1,50.6-125.1,78.5-199.9,78.5
		h-12.1c-1.4,0-2.9,0-4.3,0c-1.5,0-2.9,0-4.3,0h-5.4c-2.3,0-4.6,0-6.9-0.1c-2.3,0.1-4.6,0.1-6.9,0.1h-5.5c-4.2,0-8.5-0.1-12.8-0.3
		c-4.4,0.2-8.8,0.3-13,0.3h-11.3c-3.3,0-6.6-0.1-9.9-0.2c-3.3,0.1-6.6,0.2-9.9,0.2h-5c-1.5,0-3.1,0-4.7,0c-1.6,0-3.1,0-4.7,0h-4.9
		c-1.3,0-2.5,0-3.8,0c-1.3,0-2.5,0-3.8,0h-5c-1.2,0-2.3,0-3.5,0c-1.2,0-2.4,0-3.5,0h-3.8c-1.1,0-2.3,0-3.4,0c-1.1,0-2.3,0-3.4,0
		h-2.3c-2.1,0-4.4,0-6.6-0.1c-2.3,0-4.5,0.1-6.7,0.1H170c-21.3,5.2-43.8,7.9-65.2,7.9L99.9,815.3L99.9,815.3z"/>
	<path fill="#008453" d="M99.9,802.8c-82,0-163.3-41.1-212.1-107.2c-14.4-17.6-27.2-37.9-37-59c-41-47.6-65.4-112.6-65.4-174.3v-36
		c0-57.3,18.9-113.7,53.3-159.5c-3.8-20.1-5.8-40.6-5.8-59.8c0-177.3,144.2-321.5,321.5-321.5c16.8,0,34.9,1.5,52.3,4.4
		c17.4-2.9,35.5-4.4,52.3-4.4c76.1,0,150,27.2,208,76.6c17.8,15.1,34.8,33.3,49.4,52.7c76,47.7,123.1,132.7,123.1,222.4v106.5
		c12,32.1,18.6,67.7,18.6,100.6c0,62.1-19.8,121.2-57.2,170.8c-0.1,0.2-0.3,0.3-0.4,0.5c-15,39.2-39.7,76.2-69.7,104.2
		c-51.8,48.4-119.8,75.1-191.4,75.1h-12.1c-1.4,0-2.9,0-4.3,0c-1.5,0-2.9,0-4.3,0h-5.4c-2.3,0-4.6,0-6.9-0.1
		c-2.3,0.1-4.6,0.1-6.9,0.1h-5.5c-4.2,0-8.5-0.1-12.8-0.3c-4.4,0.2-8.8,0.3-13,0.3h-11.3c-3.3,0-6.6-0.1-9.9-0.2
		c-3.3,0.1-6.6,0.2-9.9,0.2h-5c-1.5,0-3.1,0-4.7,0c-1.6,0-3.1,0-4.7,0h-4.9c-1.3,0-2.5,0-3.8,0c-1.3,0-2.5,0-3.8,0h-5
		c-1.2,0-2.3,0-3.5,0c-1.2,0-2.4,0-3.5,0h-3.8c-1.1,0-2.3,0-3.4,0c-1.1,0-2.3,0-3.4,0h-2.3c-2.1,0-4.3,0-6.6-0.1
		c-2.3,0.1-4.5,0.1-6.7,0.1h-3.4c-20.8,5.2-42.8,7.9-63.7,7.9L99.9,802.8L99.9,802.8z"/>
	<path fill="#00AA4F" d="M99.9,790.3c-78.3,0-155.7-39.2-202.3-102.4c-14.2-17.3-26.8-37.3-36.3-58.2
		c-39.8-45.5-63.5-108-63.5-167.4v-36c0-56.6,19.2-111.9,54.2-156.3c-4.4-21.1-6.7-42.7-6.7-63c0-170.4,138.6-309,309-309
		c16.9,0,34.9,1.6,52.3,4.6c17.4-3,35.5-4.6,52.3-4.6c73.1,0,144.1,26.1,199.9,73.6c17.7,15.1,34.6,33.2,48.9,52.5
		C581.3,69.4,627,150.8,627,237.2v108.8c12,31.3,18.6,66.1,18.6,98.3c0,59.4-18.9,115.9-54.6,163.3c-0.5,0.6-1,1.3-1.4,1.9
		c-14.3,38.1-38.1,74-67.2,101.2c-49.5,46.3-114.4,71.8-182.9,71.8h-12.1c-1.4,0-2.9,0-4.3,0c-1.5,0-2.9,0-4.3,0h-5.4
		c-2.3,0-4.6,0-6.9-0.1c-2.3,0.1-4.6,0.1-6.9,0.1h-5.5c-4.2,0-8.5-0.1-12.8-0.3c-4.4,0.2-8.8,0.3-13.1,0.3h-11.3
		c-3.3,0-6.6-0.1-9.9-0.2c-3.3,0.1-6.6,0.2-9.9,0.2h-5c-1.5,0-3.1,0-4.7,0c-1.6,0-3.1,0-4.7,0h-4.9c-1.3,0-2.5,0-3.8,0
		c-1.3,0-2.5,0-3.8,0h-5c-1.2,0-2.3,0-3.5,0c-1.2,0-2.4,0-3.5,0h-3.8c-1.1,0-2.3,0-3.4,0c-1.1,0-2.3,0-3.4,0h-2.3
		c-2.1,0-4.4,0-6.6-0.1c-2.3,0.1-4.5,0.1-6.7,0.1h-5c-20.3,5.2-41.8,7.9-62.1,7.9L99.9,790.3L99.9,790.3z"/>
	<path fill="#008453" d="M99.9,777.8c-74.5,0-148.2-37.4-192.4-97.6c-14-17-26.3-36.8-35.5-57.3c-38.6-43.5-61.6-103.3-61.6-160.5
		v-36c0-55.9,19.6-110.1,55.2-153.1c-5.1-22.1-7.7-44.8-7.7-66.1c0-163.5,133-296.5,296.5-296.5c16.9,0,34.9,1.6,52.3,4.7
		c17.4-3.1,35.4-4.7,52.3-4.7c70.2,0,138.3,25.1,191.9,70.6c17.6,15,34.3,33.1,48.3,52.4c71.2,42.7,115.3,120.7,115.3,203.7v108.5
		c0,0.9,0,1.8,0,2.7c12,30.5,18.6,64.5,18.6,96c0,56.7-18,110.5-52.1,155.8c-0.8,1.1-1.7,2.2-2.5,3.3c-13.6,37-36.5,71.8-64.6,98.2
		c-47.1,44.1-109,68.4-174.3,68.4h-12.1c-1.4,0-2.9,0-4.3,0c-1.5,0-2.9,0-4.3,0h-5.4c-2.3,0-4.6,0-6.9-0.1c-2.3,0.1-4.6,0.1-6.9,0.1
		h-5.5c-4.2,0-8.5-0.1-12.8-0.3c-4.4,0.2-8.8,0.3-13.1,0.3h-11.3c-3.3,0-6.6-0.1-9.9-0.2c-3.3,0.1-6.6,0.2-9.9,0.2h-5
		c-1.5,0-3.1,0-4.7,0c-1.6,0-3.1,0-4.7,0h-4.9c-1.3,0-2.6,0-3.8,0c-1.3,0-2.5,0-3.8,0h-5c-1.2,0-2.3,0-3.5,0c-1.2,0-2.4,0-3.5,0
		h-3.8c-1.1,0-2.3,0-3.4,0c-1.1,0-2.3,0-3.4,0h-2.3c-2.1,0-4.3,0-6.6-0.1c-2.3,0.1-4.5,0.1-6.7,0.1h-6.5
		c-19.8,5.2-40.7,7.9-60.5,7.9L99.9,777.8L99.9,777.8z"/>
	<path fill="#00AA4F" d="M99.9,765.3c-70.8,0-140.7-35.5-182.6-92.8c-13.9-16.7-25.9-36.2-34.8-56.5
		c-37.4-41.4-59.7-98.7-59.7-153.7v-36c0-54.2,19.4-106.7,54.6-147.9c0.6-0.7,1.1-1.3,1.7-2c-5.8-23.1-8.9-46.9-8.9-69.4
		c0-156.6,127.4-284,284-284c16.9,0,34.9,1.7,52.3,4.9c17.4-3.2,35.4-4.9,52.3-4.9c67.2,0,132.4,24,183.7,67.6
		c17.6,14.9,34.1,33,47.8,52.3c0.6,0.4,1.2,0.7,1.8,1.1c67.6,40.4,109.6,114.4,109.6,193.1v108.5c0,1.6,0,3.3-0.1,5
		c12,29.6,18.7,62.8,18.7,93.7c0,53.9-17.2,105.2-49.6,148.2c-1.2,1.5-2.4,3.1-3.6,4.7c-12.8,35.9-34.8,69.7-62.1,95.2
		c-44.8,41.9-103.7,65-165.8,65h-12.1c-1.4,0-2.9,0-4.3,0c-1.5,0-2.9,0-4.3,0h-5.4c-2.3,0-4.6,0-6.9-0.1c-2.3,0.1-4.6,0.1-6.9,0.1
		h-5.5c-4.2,0-8.5-0.1-12.8-0.4c-4.4,0.2-8.8,0.4-13.1,0.4h-11.3c-3.3,0-6.6-0.1-9.9-0.2c-3.3,0.1-6.6,0.2-9.9,0.2h-5
		c-1.5,0-3.1,0-4.7,0c-1.6,0-3.1,0-4.7,0h-4.9c-1.3,0-2.6,0-3.8,0c-1.3,0-2.5,0-3.8,0h-5c-1.2,0-2.3,0-3.5,0c-1.2,0-2.4,0-3.5,0
		h-3.8c-1.1,0-2.3,0-3.4,0c-1.1,0-2.3,0-3.4,0h-2.3c-2.1,0-4.4,0-6.6-0.1c-2.3,0.1-4.5,0.1-6.7,0.1h-8.2
		c-19.2,5.2-39.5,7.9-58.9,7.9H99.9L99.9,765.3z"/>
	<path fill="#008453" d="M99.9,752.8c-67,0-133.1-33.7-172.7-88c-13.7-16.4-25.4-35.7-34-55.7c-36.3-39.3-57.8-94-57.8-146.8v-36
		c0-51.2,18.3-100.9,51.6-139.8c1.9-2.3,3.9-4.5,6-6.7c-6.7-24.1-10.2-49.1-10.2-72.8c0-149.7,121.8-271.5,271.5-271.5
		c16.9,0,35,1.8,52.3,5.2c17.3-3.4,35.4-5.2,52.3-5.2c64.2,0,126.6,23,175.7,64.6c17.5,14.9,33.8,32.9,47.3,52.2
		c1.4,0.8,2.7,1.6,4.1,2.4C549.8,93,589.5,162.9,589.5,237.2v108.5c0,2.4,0,4.8-0.1,7.3c12.1,28.8,18.7,61.1,18.7,91.4
		c0,51.2-16.3,99.8-47.1,140.7c-1.5,2-3.1,4-4.7,6c-12.1,34.8-33.2,67.5-59.6,92.2c-42.5,39.7-98.3,61.6-157.3,61.6h-12.1
		c-1.4,0-2.9,0-4.3,0c-1.5,0-2.9,0-4.3,0h-5.4c-2.3,0-4.6,0-6.9-0.1c-2.3,0.1-4.6,0.1-6.9,0.1h-5.5c-4.2,0-8.5-0.1-12.8-0.4
		c-4.4,0.3-8.8,0.4-13.1,0.4h-11.3c-3.3,0-6.6-0.1-9.9-0.2c-3.3,0.2-6.6,0.2-9.9,0.2h-5c-1.5,0-3.1,0-4.7,0c-1.6,0-3.1,0-4.7,0h-4.9
		c-1.3,0-2.6,0-3.8,0c-1.3,0-2.5,0-3.8,0h-5c-1.2,0-2.3,0-3.5,0c-1.2,0-2.4,0-3.5,0h-3.8c-1.1,0-2.3,0-3.4,0c-1.1,0-2.3,0-3.4,0
		h-2.3c-2.1,0-4.4,0-6.6-0.1c-2.3,0.1-4.5,0.1-6.7,0.1h-9.8c-18.6,5.2-38.4,7.9-57.2,7.9L99.9,752.8L99.9,752.8z"/>
	<path fill="#00AA4F" d="M99.9,740.3c-63.3,0-125.6-31.8-162.8-83.2c-13.5-16.2-25-35.1-33.2-54.9c-35.1-37.2-56-89.3-56-139.9v-36
		c0-48.2,17.3-95,48.6-131.7c3.3-3.9,6.8-7.7,10.5-11.4c-7.7-25.1-11.7-51.3-11.7-76.3c0-142.8,116.2-259,259-259
		c17,0,35,1.9,52.3,5.4c17.3-3.5,35.3-5.4,52.3-5.4c61.3,0,120.8,21.9,167.6,61.7c17.4,14.8,33.6,32.8,46.8,52.2
		c2.1,1.2,4.2,2.4,6.3,3.6c60.1,35.9,97.4,101.7,97.4,171.7v108.5c0,3.2-0.1,6.4-0.2,9.6c12.2,28,18.8,59.5,18.8,89.1
		c0,48.5-15.4,94.5-44.6,133.2c-1.9,2.5-3.8,5-5.8,7.4c-11.3,33.8-31.5,65.4-57,89.2c-40.2,37.6-93,58.3-148.7,58.3h-12.1
		c-1.4,0-2.9,0-4.3,0c-1.5,0-2.9,0-4.3,0h-5.4c-2.3,0-4.6,0-6.9-0.1c-2.3,0.1-4.6,0.1-6.9,0.1h-5.5c-4.2,0-8.5-0.1-12.8-0.4
		c-4.4,0.3-8.8,0.4-13.1,0.4h-11.3c-3.3,0-6.6-0.1-9.9-0.2c-3.3,0.2-6.6,0.2-9.9,0.2h-5c-1.5,0-3.1,0-4.7,0c-1.6,0-3.1,0-4.7,0h-4.9
		c-1.3,0-2.6,0-3.8,0c-1.3,0-2.5,0-3.8,0h-5c-1.2,0-2.3,0-3.5,0c-1.2,0-2.4,0-3.5,0h-3.8c-1.1,0-2.3,0-3.4,0c-1.1,0-2.3,0-3.4,0
		h-2.3c-2.1,0-4.4,0-6.6-0.1c-2.3,0.1-4.5,0.1-6.7,0.1h-11.6c-18,5.2-37.2,7.9-55.5,7.9H99.9L99.9,740.3z"/>
	<path fill="#008453" d="M99.9,727.8c-59.5,0-118.1-30-153-78.3c-13.3-15.9-24.5-34.6-32.4-54.2c-34-35.1-54.2-84.6-54.2-133v-36
		c0-45.3,16.2-89.1,45.6-123.5c4.7-5.5,9.8-10.8,15.3-15.9c-8.7-25.8-13.5-53.9-13.5-79.9c0-135.9,110.6-246.5,246.5-246.5
		c17,0,35,2,52.3,5.7c17.3-3.7,35.3-5.7,52.3-5.7c58.3,0,114.9,20.8,159.5,58.7c17.4,14.8,33.3,32.8,46.2,52.2
		c2.9,1.5,5.8,3.1,8.5,4.8c56.3,33.7,91.3,95.3,91.3,161v108.5c0,3.9-0.1,7.9-0.4,11.9c12.3,27.1,19,57.8,19,86.7
		c0,45.7-14.5,89.2-42,125.7c-2.2,2.9-4.6,5.9-7,8.8c-10.5,32.7-29.8,63.2-54.4,86.3c-37.8,35.4-87.6,54.9-140.2,54.9h-12.1
		c-1.4,0-2.9,0-4.3,0c-1.5,0-2.9,0-4.3,0h-5.4c-2.3,0-4.6,0-6.9-0.1c-2.3,0.1-4.6,0.1-6.9,0.1h-5.5c-4.2,0-8.5-0.2-12.8-0.4
		c-4.4,0.3-8.8,0.4-13.1,0.4h-11.3c-3.3,0-6.6-0.1-9.9-0.3c-3.3,0.2-6.6,0.3-9.9,0.3h-5c-1.5,0-3.1,0-4.7-0.1
		c-1.6,0-3.1,0.1-4.7,0.1h-4.9c-1.3,0-2.6,0-3.8,0c-1.3,0-2.5,0-3.8,0h-5c-1.2,0-2.3,0-3.5,0c-1.2,0-2.4,0-3.5,0h-3.8
		c-1.1,0-2.3,0-3.4,0c-1.1,0-2.3,0-3.4,0h-2.3c-2.1,0-4.4,0-6.6-0.1c-2.3,0.1-4.5,0.1-6.7,0.1h-11c-0.8,0-1.6,0-2.4,0
		c-17.4,5.2-36,7.9-53.8,7.9L99.9,727.8L99.9,727.8z"/>
	<path fill="#00AA4F" d="M99.9,715.3c-55.8,0-110.5-28.2-143.1-73.5c-13.2-15.6-24.1-34-31.6-53.4c-32.8-32.9-52.4-79.8-52.4-126
		v-36c0-42.3,15.1-83.3,42.6-115.4c6.1-7.1,13-14,20.5-20.3c-10.1-26.7-15.6-56.2-15.6-83.6c0-129,105-234,234-234
		c17.1,0,35.1,2.1,52.3,6c17.2-3.9,35.3-6,52.3-6c55.3,0,109.1,19.8,151.4,55.7c17.4,14.7,33.1,32.8,45.6,52.3
		c3.7,1.9,7.3,3.8,10.8,5.9c52.6,31.4,85.2,89,85.2,150.2v108.5c0,4.7-0.2,9.5-0.6,14.2c12.4,26.3,19.2,56.1,19.2,84.4
		c0,43-13.7,83.8-39.5,118.1c-2.6,3.4-5.3,6.8-8.2,10.1c-9.7,31.6-28,61.1-51.8,83.3c-35.5,33.2-82.3,51.5-131.6,51.5h-12.1
		c-1.4,0-2.9,0-4.3,0c-1.5,0-2.9,0-4.3,0h-5.4c-2.3,0-4.6,0-6.9-0.1c-2.3,0.1-4.7,0.1-6.9,0.1h-5.5c-4.2,0-8.5-0.2-12.8-0.5
		c-4.4,0.3-8.8,0.5-13.1,0.5h-11.3c-3.3,0-6.6-0.1-9.9-0.3c-3.3,0.2-6.6,0.3-9.9,0.3h-5c-1.5,0-3.1,0-4.7-0.1
		c-1.6,0-3.1,0.1-4.7,0.1h-4.9c-1.3,0-2.6,0-3.8,0c-1.3,0-2.5,0-3.8,0h-5c-1.2,0-2.3,0-3.5,0c-1.2,0-2.4,0-3.5,0h-3.8
		c-1.1,0-2.3,0-3.4,0c-1.1,0-2.3,0-3.4,0h-2.3c-2.1,0-4.4,0-6.6-0.1c-2.3,0.1-4.5,0.1-6.7,0.1h-11c-1.3,0-2.6,0-3.8,0
		c-0.1,0-0.2,0-0.3,0c-16.8,5.2-34.8,7.9-52,7.9L99.9,715.3L99.9,715.3z"/>
	<path fill="#008453" d="M99.9,702.8c-52,0-103-26.3-133.2-68.7c-13-15.4-23.6-33.5-30.7-52.7c-31.7-30.8-50.6-75-50.6-119v-36
		c0-39.3,14.1-77.4,39.6-107.3c7.3-8.5,15.9-16.6,25-23.7v-3c-11.1-26.9-17.2-57.1-17.2-85.3C-67.2,85,32.2-14.4,154.3-14.4
		c17.1,0,35.1,2.2,52.3,6.3c17.2-4.1,35.2-6.3,52.3-6.3c52.4,0,103.3,18.7,143.3,52.7c17.3,14.7,32.8,32.8,45,52.4
		c4.5,2.1,8.8,4.5,13,7c48.8,29.2,79.2,82.6,79.2,139.5v108.5c0,5.5-0.3,11-0.8,16.5c12.6,25.4,19.5,54.4,19.5,82.1
		c0,40.2-12.8,78.5-37,110.6c-2.9,3.9-6.1,7.7-9.4,11.4c-8.9,30.5-26.2,59-49.1,80.4c-33.2,31-76.9,48.2-123.1,48.2h-12.1
		c-1.4,0-2.9,0-4.3-0.1c-1.4,0-2.9,0.1-4.3,0.1h-5.4c-2.3,0-4.6,0-6.9-0.2c-2.3,0.1-4.6,0.2-6.9,0.2h-5.5c-4.2,0-8.5-0.2-12.7-0.5
		c-4.4,0.3-8.8,0.5-13.1,0.5h-11.3c-3.3,0-6.6-0.1-9.9-0.3c-3.3,0.2-6.6,0.3-9.9,0.3h-5c-1.5,0-3.1,0-4.7-0.1
		c-1.6,0-3.1,0.1-4.7,0.1h-4.9c-1.3,0-2.6,0-3.8,0c-1.3,0-2.5,0-3.8,0h-5c-1.2,0-2.3,0-3.5,0c-1.2,0-2.4,0-3.5,0h-3.8
		c-1.1,0-2.3,0-3.4,0c-1.1,0-2.3,0-3.4,0h-2.3c-2.1,0-4.4,0-6.6-0.1c-2.3,0.1-4.5,0.1-6.7,0.1H161c-1.3,0-2.6,0-3.8,0
		c-0.8,0-1.5,0-2.3,0c-16.1,5.2-33.4,7.9-50,7.9L99.9,702.8L99.9,702.8z"/>
	<path fill="#00AA4F" d="M99.9,690.3c-48.3,0-95.5-24.5-123.4-63.9c-12.9-15.1-23.2-33-29.8-52c-30.7-28.6-48.9-70.2-48.9-112v-36
		c0-36.3,13-71.5,36.6-99.2c8.1-9.4,17.7-18.2,28-25.5v-11.9c-11.1-26-17.2-55.3-17.2-82.8c0-115.2,93.7-209,209-209
		c17.2,0,35.2,2.3,52.3,6.7c17.1-4.4,35.1-6.7,52.3-6.7c49.4,0,97.4,17.7,135.2,49.8c17.3,14.7,32.6,32.9,44.4,52.6
		c5.3,2.4,10.4,5.1,15.3,8C499,135.4,527,184.8,527,237.3v108.5c0,6.3-0.4,12.6-1.2,18.9c12.8,24.5,19.8,52.6,19.8,79.8
		c0,37.5-11.9,73.1-34.5,103.1c-3.3,4.4-6.9,8.7-10.6,12.8c-8,29.5-24.4,56.8-46.4,77.5c-30.9,28.9-71.5,44.8-114.5,44.8h-12.1
		c-1.4,0-2.9,0-4.3-0.1c-1.4,0-2.9,0.1-4.3,0.1h-5.4c-2.3,0-4.6,0-6.9-0.2c-2.3,0.1-4.6,0.2-6.9,0.2h-5.5c-4.2,0-8.5-0.2-12.7-0.5
		c-4.4,0.4-8.8,0.5-13.1,0.5h-11.3c-3.3,0-6.6-0.1-9.9-0.3c-3.3,0.2-6.6,0.3-9.9,0.3h-5c-1.5,0-3.1,0-4.7-0.1
		c-1.6,0-3.2,0.1-4.7,0.1h-4.9c-1.3,0-2.6,0-3.8,0c-1.3,0-2.5,0-3.8,0h-5c-1.2,0-2.3,0-3.5,0c-1.2,0-2.4,0-3.5,0h-3.8
		c-1.1,0-2.3,0-3.4,0c-1.1,0-2.3,0-3.4,0h-2.3c-2.2,0-4.4,0-6.6-0.1c-2.3,0.1-4.5,0.1-6.7,0.1H161c-1.3,0-2.6,0-3.8,0
		c-1.3,0-2.6,0-3.8,0h-0.5c-15.4,5.2-32,7.9-48,7.9L99.9,690.3L99.9,690.3z"/>
	<path fill="#008453" d="M99.9,677.8c-44.5,0-87.9-22.6-113.5-59.1c-12.8-14.8-22.7-32.5-28.9-51.4c-29.6-26.3-47.2-65.3-47.2-105
		v-36c0-33.4,11.9-65.7,33.6-91c8.8-10.3,19.5-19.6,31-27v-21.1c-11.1-25.1-17.2-53.5-17.2-80.2C-42.2,98.7,46,10.6,154.3,10.6
		c17.2,0,35.3,2.5,52.3,7.1c17.1-4.7,35.1-7.1,52.3-7.1c46.5,0,91.6,16.6,127.1,46.8c17.4,14.8,32.4,33,43.8,52.9
		c6.1,2.5,12,5.5,17.7,8.9c41.3,24.7,67,69.9,67,118v108.5c0,7.1-0.5,14.2-1.6,21.2c13.1,23.5,20.2,50.9,20.2,77.5
		c0,34.8-11.1,67.8-32,95.6c-3.7,4.9-7.7,9.6-11.9,14.1c-7.1,28.4-22.5,54.8-43.7,74.5c-28.5,26.7-66.2,41.4-106,41.4h-12.1
		c-1.4,0-2.9,0-4.3-0.1c-1.5,0-2.9,0.1-4.3,0.1h-5.4c-2.3,0-4.6-0.1-6.9-0.2c-2.3,0.1-4.6,0.2-6.9,0.2h-5.5c-4.2,0-8.5-0.2-12.7-0.6
		c-4.4,0.4-8.8,0.6-13.2,0.6h-11.3c-3.3,0-6.6-0.1-9.9-0.3c-3.3,0.2-6.6,0.3-9.9,0.3h-5c-1.5,0-3.1,0-4.7-0.1
		c-1.6,0-3.1,0.1-4.7,0.1h-4.9c-1.3,0-2.6,0-3.8,0c-1.3,0-2.5,0-3.8,0h-5c-1.2,0-2.3,0-3.5,0c-1.2,0-2.4,0-3.5,0h-3.8
		c-1.1,0-2.3,0-3.4,0c-1.1,0-2.3,0-3.4,0h-2.3c-2.2,0-4.4,0-6.5-0.2c-2.3,0.1-4.5,0.2-6.7,0.2H161c-1.3,0-2.6,0-3.8,0
		c-1.3,0-2.6,0-3.8,0h-2.6c-14.7,5.2-30.6,7.9-45.9,7.9L99.9,677.8L99.9,677.8z"/>
	<path fill="#00AA4F" d="M99.9,665.3c-40.8,0-80.4-20.8-103.6-54.3c-12.7-14.6-22.3-32.1-27.9-50.9c-28.6-24-45.5-60.3-45.5-97.8
		v-36c0-30.4,10.9-59.8,30.6-82.9c9.6-11.2,21.2-20.8,34-28.1v-30.8c-11.1-24.1-17.2-51.5-17.2-77.5c0-101.4,82.5-184,184-184
		c17.3,0,35.3,2.6,52.3,7.6c17-5,35-7.6,52.3-7.6c43.5,0,85.8,15.6,119,43.8c17.4,14.8,32.3,33.2,43.1,53.3c6.9,2.6,13.6,5.9,20,9.7
		c37.6,22.4,60.9,63.6,60.9,107.3v108.5c0,7.9-0.7,15.8-2.2,23.5c13.5,22.6,20.8,49.1,20.8,75.1c0,32-10.2,62.5-29.5,88.1
		c-4.1,5.4-8.5,10.5-13.3,15.3c-6.1,27.3-20.5,52.7-40.8,71.7c-26.2,24.5-60.8,38-97.5,38h-12.1c-1.4,0-2.9,0-4.3-0.1
		c-1.4,0-2.9,0.1-4.3,0.1h-5.4c-2.3,0-4.6-0.1-6.9-0.2c-2.3,0.1-4.6,0.2-6.9,0.2h-5.5c-4.2,0-8.5-0.2-12.7-0.6
		c-4.4,0.4-8.8,0.6-13.2,0.6h-11.3c-3.3,0-6.6-0.1-9.9-0.4c-3.3,0.3-6.6,0.4-9.9,0.4h-5c-1.5,0-3.1,0-4.7-0.1
		c-1.6,0.1-3.2,0.1-4.7,0.1h-4.9c-1.3,0-2.6,0-3.8-0.1c-1.3,0-2.5,0.1-3.8,0.1h-5c-1.2,0-2.4,0-3.5,0c-1.2,0-2.4,0-3.5,0h-3.8
		c-1.1,0-2.3,0-3.4,0c-1.1,0-2.3,0-3.4,0h-2.3c-2.2,0-4.4-0.1-6.5-0.2c-2.3,0.1-4.5,0.2-6.8,0.2h-11c-1.3,0-2.6,0-3.8-0.1
		c-1.3,0-2.6,0.1-3.8,0.1h-4.8c-14,5.2-29,7.9-43.7,7.9L99.9,665.3L99.9,665.3z"/>
	<path fill="#008453" d="M99.9,652.8c-37,0-72.8-18.9-93.7-49.5C-6.5,589-15.7,571.7-20.7,553c-27.6-21.7-44-55.2-44-90.6v-36
		c0-27.4,9.8-54,27.6-74.8c10.3-12,22.9-21.8,37-28.7v-41.1c-11.1-23.1-17.2-49.6-17.2-74.7c0-94.6,76.9-171.5,171.5-171.5
		c17.4,0,35.4,2.8,52.3,8.2c16.9-5.4,34.9-8.2,52.3-8.2c40.5,0,79.9,14.5,110.9,40.8c17.5,14.9,32.1,33.4,42.4,54
		c7.8,2.6,15.3,6,22.4,10.3c33.8,20.2,54.8,57.2,54.8,96.6v108.5c0,8.7-1,17.4-3,25.8c14,21.6,21.6,47.2,21.6,72.8
		c0,29.3-9.3,57.1-27,80.5c-4.5,5.9-9.4,11.5-14.8,16.6c-5.1,26.3-18.5,50.6-37.9,68.8c-23.9,22.3-55.5,34.7-88.9,34.7h-12.1
		c-1.4,0-2.9,0-4.3-0.1c-1.4,0-2.9,0.1-4.3,0.1h-5.4c-2.3,0-4.6-0.1-6.9-0.2c-2.3,0.1-4.6,0.2-6.9,0.2h-5.5c-4.2,0-8.5-0.2-12.7-0.7
		c-4.4,0.5-8.8,0.7-13.2,0.7h-11.3c-3.3,0-6.6-0.2-9.9-0.4c-3.3,0.3-6.6,0.4-9.9,0.4h-5c-1.5,0-3.1,0-4.7-0.1
		c-1.6,0.1-3.1,0.1-4.7,0.1h-4.9c-1.3,0-2.6,0-3.8-0.1c-1.3,0-2.6,0.1-3.8,0.1h-5c-1.2,0-2.4,0-3.5,0c-1.2,0-2.4,0-3.5,0h-3.8
		c-1.1,0-2.3,0-3.4,0c-1.1,0-2.3,0-3.4,0h-2.3c-2.1,0-4.4-0.1-6.5-0.2c-2.3,0.1-4.5,0.2-6.8,0.2H161c-1.3,0-2.6,0-3.8-0.1
		c-1.3,0-2.6,0.1-3.8,0.1h-4.9c-0.7,0-1.4,0-2.1,0c-13.2,5.2-27.5,7.9-41.5,7.9L99.9,652.8L99.9,652.8z"/>
	<path fill="#00AA4F" d="M99.9,640.3c-33.3,0-65.3-17.1-83.8-44.7c-12.6-14.1-21.4-31.3-25.7-50c-26.8-19.2-42.6-50-42.6-83.3v-36
		c0-24.4,8.8-48.1,24.6-66.7c10.9-12.8,24.6-22.6,40-28.7v-52.1C1.4,256.8-4.7,231.4-4.7,207.1c0-87.7,71.3-159,159-159
		c17.5,0,35.5,3.1,52.3,8.9c16.8-5.8,34.8-8.9,52.3-8.9c37.6,0,74.1,13.5,102.8,37.9c17.7,15,32,33.9,41.6,54.8
		c8.7,2.4,17,5.9,24.9,10.6c30,17.9,48.7,50.8,48.7,85.8v108.5c0,9.6-1.3,19-4,28.1c14.6,20.5,22.6,45.3,22.6,70.5
		c0,26.5-8.5,51.8-24.4,73c-4.9,6.4-10.3,12.4-16.4,17.8c-4,25.3-16.3,48.6-34.9,66c-21.6,20.2-50.1,31.3-80.4,31.3h-12.1
		c-1.4,0-2.9,0-4.3-0.1c-1.4,0.1-2.9,0.1-4.3,0.1h-5.4c-2.3,0-4.6-0.1-6.9-0.2c-2.3,0.2-4.6,0.2-6.9,0.2h-5.5
		c-4.2,0-8.4-0.3-12.6-0.8c-4.4,0.5-8.8,0.8-13.2,0.8h-11.3c-3.3,0-6.6-0.2-9.9-0.5c-3.3,0.3-6.6,0.5-9.9,0.5h-5
		c-1.5,0-3.1,0-4.7-0.1c-1.6,0.1-3.1,0.1-4.7,0.1h-4.9c-1.3,0-2.5,0-3.8-0.1c-1.3,0-2.6,0.1-3.8,0.1h-5c-1.2,0-2.3,0-3.5-0.1
		c-1.2,0-2.4,0.1-3.5,0.1h-3.8c-1.1,0-2.3,0-3.4-0.1c-1.1,0-2.3,0.1-3.4,0.1h-2.3c-2.2,0-4.4-0.1-6.5-0.2c-2.3,0.1-4.5,0.2-6.8,0.2
		H161c-1.3,0-2.5,0-3.8-0.1c-1.3,0-2.6,0.1-3.8,0.1h-4.9c-1.4,0-2.9,0-4.3-0.1c-12.4,5.2-25.9,8-39.2,8L99.9,640.3L99.9,640.3z"/>
	<path fill="#008453" d="M99.9,627.8c-29.5,0-57.8-15.3-73.9-39.9c-12.5-13.7-21-31.2-24.3-49.8c-25.6-16.5-41.3-45-41.3-75.8v-36
		c0-21.5,7.7-42.2,21.6-58.5c11.4-13.3,26.4-23,43-28v-64c-11.1-21-17.2-45.3-17.2-68.8c0-80.8,65.7-146.5,146.5-146.5
		c17.7,0,35.7,3.3,52.3,9.7c16.7-6.3,34.6-9.7,52.3-9.7c34.6,0,68.2,12.4,94.7,34.9c17.9,15.2,31.9,34.5,40.8,56
		c9.7,2,18.9,5.5,27.4,10.6c26.3,15.7,42.6,44.5,42.6,75.1v108.5c0,10.5-1.8,20.7-5.5,30.4c15.6,19.3,24.1,43.3,24.1,68.2
		c0,23.8-7.6,46.5-21.9,65.5c-5.3,7-11.4,13.3-18.2,18.9c-2.8,24.4-13.9,46.7-31.7,63.3c-19.3,18-44.8,27.9-71.9,27.9h-12.1
		c-1.4,0-2.9,0-4.3-0.1c-1.4,0.1-2.9,0.1-4.3,0.1h-5.4c-2.3,0-4.6-0.1-6.9-0.3c-2.3,0.2-4.6,0.3-6.9,0.3h-5.5
		c-4.2,0-8.4-0.3-12.6-0.9c-4.4,0.6-8.8,0.9-13.3,0.9h-11.3c-3.3,0-6.6-0.2-9.9-0.5c-3.3,0.4-6.6,0.5-9.9,0.5h-5
		c-1.5,0-3.1,0-4.7-0.1c-1.6,0.1-3.1,0.1-4.7,0.1h-4.9c-1.3,0-2.6,0-3.8-0.1c-1.3,0.1-2.6,0.1-3.8,0.1h-5c-1.2,0-2.3,0-3.5-0.1
		c-1.2,0-2.4,0.1-3.5,0.1h-3.8c-1.1,0-2.3,0-3.4-0.1c-1.1,0-2.3,0.1-3.4,0.1h-2.3c-2.1,0-4.3-0.1-6.5-0.2c-2.3,0.2-4.5,0.2-6.8,0.2
		H161c-1.3,0-2.6,0-3.8-0.1c-1.3,0-2.6,0.1-3.8,0.1h-4.9c-1.9,0-3.8-0.1-5.8-0.2l-1.3,0.2c-11.5,5.2-24,7.9-36.5,7.9L99.9,627.8
		L99.9,627.8z"/>
	<path fill="#00AA4F" d="M99.9,615.3c-25.8,0-50.2-13.4-64-35c-12.6-13.5-20.6-31.2-22.7-49.8C-11.6,517-27.2,491-27.2,462.3v-36
		c0-38.5,28.1-70.5,64.8-76.6v0c-0.1-1.9-0.2-3.7-0.2-5.5v-71.6c-11.1-19.9-17.2-43-17.2-65.6c0-73.9,60.1-134,134-134
		c17.9,0,35.8,3.7,52.3,10.7c16.5-7,34.5-10.7,52.3-10.7c31.6,0,62.4,11.3,86.6,31.9c18.3,15.5,31.9,35.3,39.8,57.7
		c10.6,1.2,20.9,4.7,30.1,10.1C438,186.3,452,211,452,237.3v108.5c0,11.3-2.6,22.5-7.5,32.7c16.7,17.8,26.1,41.3,26.1,65.9
		c0,21.1-6.7,41.1-19.4,58c-5.7,7.6-12.5,14.3-20.2,19.8c-2.8,48.3-42,85.3-91.5,85.3h-12.1c-1.4,0-2.9,0-4.3-0.1
		c-1.4,0.1-2.9,0.1-4.3,0.1h-5.4c-2.3,0-4.6-0.1-6.9-0.3c-2.3,0.2-4.6,0.3-6.9,0.3h-5.5c-4.2,0-8.4-0.3-12.5-1
		c-4.4,0.7-8.9,1-13.3,1h-11.3c-3.3,0-6.6-0.2-9.9-0.7c-3.3,0.4-6.6,0.7-9.9,0.7h-5c-1.5,0-3.1,0-4.7-0.1c-1.6,0.1-3.1,0.1-4.7,0.1
		h-4.9c-1.3,0-2.5,0-3.8-0.1c-1.3,0.1-2.6,0.1-3.8,0.1h-5c-1.2,0-2.3,0-3.5-0.1c-1.2,0-2.4,0.1-3.5,0.1h-3.8c-1.1,0-2.3,0-3.4-0.1
		c-1.1,0-2.3,0.1-3.4,0.1h-2.3c-2.1,0-4.3-0.1-6.5-0.3c-2.3,0.2-4.6,0.3-6.8,0.3h-11c-1.3,0-2.6,0-3.8-0.1c-1.3,0.1-2.6,0.1-3.8,0.1
		h-4.9c-2,0-4.1-0.1-6.1-0.3c-1.1,0.1-2.1,0.3-3.2,0.4c-0.4,0-0.8,0.1-1.1,0.1c-10.4,5-21.8,7.7-33.2,7.7L99.9,615.3L99.9,615.3z"/>
	<path fill="#008453" d="M99.9,602.8c-22.1,0-42.6-11.5-54.1-30.3c-12.8-13.3-20.3-31.4-20.7-50.2c-23.8-10.1-39.8-33.5-39.8-60v-36
		c0-36,29.3-65.2,65.2-65.2h1.1c-0.4-2.3-0.8-4.5-1.1-6.9l0-0.3c-0.2-1.6-0.3-3.3-0.4-4.9c-0.1-1.6-0.1-3.2-0.1-4.8v-74.9
		c-11.1-18.7-17.2-40.6-17.2-62.3c0-67,54.5-121.5,121.5-121.5c18.1,0,36,4.1,52.3,11.8c16.3-7.8,34.3-11.8,52.3-11.8
		c28.7,0,56.6,10.3,78.5,28.9c18.7,15.9,32.1,36.9,38.6,60.2c0.3,0,0.6,0,0.9,0c11.3,0,22.4,3.1,32.1,8.9
		c18.8,11.2,30.4,31.8,30.4,53.7v108.5c0,12.5-3.8,24.7-10.7,35c18.4,15.8,29.3,39.1,29.3,63.7c0,18.3-5.8,35.8-16.9,50.4
		c-6.1,8.1-13.8,15.2-22.5,20.6c0,0.4,0,0.8,0,1.2c0,43.9-34.8,78.3-79.2,78.3h-12.1c-1.4,0-2.9,0-4.3-0.2c-1.4,0.1-2.9,0.2-4.3,0.2
		h-5.4c-2.3,0-4.6-0.1-6.9-0.4c-2.3,0.3-4.6,0.4-6.9,0.4h-5.5c-4.2,0-8.4-0.4-12.5-1.2c-4.4,0.8-8.9,1.2-13.4,1.2h-11.3
		c-3.3,0-6.6-0.3-9.9-0.8c-3.3,0.5-6.6,0.8-9.9,0.8h-5c-1.5,0-3.1-0.1-4.7-0.2c-1.6,0.1-3.1,0.2-4.7,0.2h-4.9c-1.3,0-2.5,0-3.8-0.1
		c-1.3,0.1-2.6,0.1-3.8,0.1h-5c-1.2,0-2.3,0-3.5-0.1c-1.2,0.1-2.4,0.1-3.5,0.1h-3.8c-1.1,0-2.3,0-3.4-0.1c-1.1,0.1-2.3,0.1-3.4,0.1
		h-2.3c-2.1,0-4.3-0.1-6.5-0.3c-2.3,0.2-4.6,0.3-6.8,0.3h-11c-1.3,0-2.6,0-3.8-0.1c-1.3,0.1-2.6,0.1-3.8,0.1h-4.9
		c-2.1,0-4.3-0.1-6.4-0.3c-1.4,0.2-2.7,0.4-4.1,0.5c-0.4,0-0.8,0.1-1.1,0.1c-0.7,0-1.4,0.1-2.1,0.1c-9.2,4.9-19.5,7.5-29.8,7.5
		L99.9,602.8L99.9,602.8z"/>
	<path fill="#00AA4F" d="M99.9,590.3c-18.4,0-35.1-9.7-44.1-25.4c-11.6-11.4-18.2-27.4-18.2-44.2c0-2.4,0.1-4.8,0.4-7.1
		c-23-5.6-40.1-26.5-40.1-51.2v-36c0-29.1,23.6-52.7,52.7-52.7h8.2c3.3,0,6.6,0.3,9.8,0.9c0.1,0,0.2,0,0.4-0.1
		c-3-6.8-5-14.1-5.9-21.6c0,0,0-0.3,0-0.4c-0.1-1.1-0.2-2.2-0.3-3.3c0-0.3,0-0.6-0.1-0.9c-0.1-1.4-0.1-2.7-0.1-4.1v-78.5
		c-11.1-17.4-17.2-38.1-17.2-58.7c0-60.1,48.9-109,109-109c18.3,0,36.3,4.6,52.3,13.4c16-8.8,34-13.4,52.3-13.4
		c53.5,0,98.4,39.1,107.4,90.3c3.5-0.8,7.1-1.1,10.7-1.1c9,0,17.9,2.4,25.6,7.1c15,9,24.4,25.4,24.4,42.9v108.5
		c0,14.2-6.2,27.8-16.5,37.1c21,12.4,35.2,35.4,35.2,61.5c0,15.6-5,30.4-14.4,42.9c-6.7,8.9-15.6,16.2-25.5,21.1
		c0.3,2.7,0.5,5.5,0.5,8.2c0,36.9-29.3,65.8-66.7,65.8h-12.1c-1.4,0-2.9-0.1-4.3-0.2c-1.4,0.1-2.9,0.2-4.3,0.2h-5.4
		c-2.3,0-4.6-0.2-6.9-0.5c-2.3,0.3-4.6,0.5-6.9,0.5h-5.5c-4.2,0-8.3-0.5-12.4-1.5c-4.4,1-8.9,1.5-13.5,1.5h-11.3
		c-3.3,0-6.6-0.3-9.9-1c-3.3,0.6-6.6,1-9.9,1h-5c-1.6,0-3.1-0.1-4.7-0.2c-1.6,0.1-3.1,0.2-4.7,0.2h-4.9c-1.3,0-2.5,0-3.8-0.1
		c-1.3,0.1-2.6,0.1-3.8,0.1h-5c-1.2,0-2.4,0-3.5-0.1c-1.2,0.1-2.3,0.1-3.5,0.1h-3.8c-1.1,0-2.3,0-3.4-0.1c-1.1,0.1-2.3,0.1-3.4,0.1
		h-2.3c-2.1,0-4.3-0.1-6.4-0.4c-2.3,0.3-4.6,0.4-6.9,0.4h-11c-1.3,0-2.6,0-3.8-0.1c-1.3,0.1-2.6,0.1-3.8,0.1h-4.9
		c-2.3,0-4.5-0.2-6.7-0.5c-1.6,0.3-3.3,0.5-4.9,0.7c-0.3,0-0.6,0-0.9,0.1c-1.3,0.1-2.6,0.2-3.9,0.2h-0.7c-8,4.8-17.2,7.4-26.4,7.4
		L99.9,590.3L99.9,590.3z"/>
	<path fill="#008453" d="M99.9,577.8c-14.5,0-27.5-8-34.1-20.7c-10-9.2-15.7-22.3-15.7-36.5c0-6.3,1.1-12.5,3.2-18.1h-2.8
		c-22.2,0-40.2-18-40.2-40.2v-36c0-22.2,18-40.2,40.2-40.2h8.2c3.3,0,6.6,0.4,9.8,1.2c3.2-0.8,6.4-1.2,9.8-1.2h8.2
		c1.7,0,3.3,0.1,4.9,0.3c-0.1-0.1-0.7-0.8-0.7-0.8c-0.3-0.3-0.6-0.6-0.8-1c-8.1-9.5-13.1-21-14.5-33.3l0-0.2
		c-0.1-0.9-0.2-1.9-0.3-2.8c0-0.2,0-0.4-0.1-0.6c-0.1-1.2-0.1-2.3-0.1-3.4V262c-11.1-16-17.2-35.4-17.2-55
		c0-53.2,43.3-96.5,96.5-96.5c18.5,0,36.8,5.4,52.3,15.4c15.5-10,33.8-15.4,52.3-15.4c52.9,0,96,42.8,96.5,95.6l3.8-2
		c5.5-2.9,11.6-4.5,17.8-4.5c6.8,0,13.4,1.8,19.2,5.3c11.3,6.7,18.3,19.1,18.3,32.2v108.5c0,13.1-7,25.5-18.3,32.2
		c-5.8,3.5-12.5,5.3-19.2,5.3c-6.2,0-12.3-1.5-17.8-4.5l-18.1-9.7c-2.4,5.6-5.6,10.7-9.5,15.4c-1.1,1.3-2.2,2.6-3.4,3.8
		c5,1.5,9.7,3.7,14.2,6.5c9.4-6,20.4-9.3,31.8-9.3c32.5,0,58.9,26.4,58.9,58.9c0,26.5-17.6,49-41.8,56.4c1.6,5.1,2.4,10.5,2.4,15.9
		c0,29.9-23.8,53.3-54.2,53.3h-12.1c-1.4,0-2.9-0.1-4.3-0.2c-1.4,0.2-2.9,0.2-4.3,0.2h-5.4c-2.3,0-4.6-0.2-6.9-0.6
		c-2.3,0.4-4.6,0.6-6.9,0.6h-5.5c-4.1,0-8.3-0.7-12.2-2c-4.4,1.3-9,2-13.6,2h-11.3c-3.4,0-6.7-0.4-9.9-1.3c-3.2,0.9-6.5,1.3-9.9,1.3
		h-5c-1.6,0-3.1-0.1-4.7-0.3c-1.5,0.2-3.1,0.3-4.7,0.3h-4.9c-1.3,0-2.6-0.1-3.8-0.2c-1.3,0.1-2.5,0.2-3.8,0.2h-5
		c-1.2,0-2.4,0-3.5-0.2c-1.2,0.1-2.3,0.2-3.5,0.2h-3.8c-1.1,0-2.3,0-3.4-0.2c-1.1,0.1-2.3,0.2-3.4,0.2h-2.3c-2.1,0-4.3-0.2-6.3-0.5
		c-2.3,0.3-4.6,0.5-7,0.5h-11c-1.3,0-2.6-0.1-3.8-0.2c-1.3,0.1-2.6,0.2-3.8,0.2h-4.9c-2.4,0-4.7-0.2-7-0.6c-2.2,0.5-4.3,0.8-6.6,1
		c-0.9,0.1-2,0.1-2.9,0.1c-1.4,0-2.8-0.1-4.1-0.2c-6.6,4.9-14.7,7.7-23,7.7L99.9,577.8L99.9,577.8z"/>
	<path fill="#00AA4F" d="M420.6,444.4c0-25.6-20.8-46.4-46.4-46.4c-12.1,0-23.4,4.6-31.7,12.5c-8.4-7.9-19.9-12.5-32-12.5
		c-5.8,0-18.7,0.2-30.5,0.4c17.2-1.8,32.3-10,42-21.9c5.6-6.6,9.5-14.8,11-23.6c0.1-0.4,0.1-0.8,0.2-1.2c0-0.3,0.1-0.6,0.1-0.9
		l31.8,17.1c7.7,4.2,17.1,4,24.7-0.6c7.5-4.5,12.2-12.7,12.2-21.5V237.2c0-8.8-4.7-17-12.2-21.5c-3.9-2.3-8.3-3.5-12.8-3.5
		c-4.1,0-8.2,1-11.8,3l-25,13.5c1.9-7,2.8-14.3,2.8-21.6c0-46.3-37.7-84-84-84c-19.1,0-37.6,6.5-52.3,18.3
		c-14.7-11.7-33.2-18.3-52.3-18.3c-46.3,0-84,37.7-84,84c0,18.5,6.1,36.4,17.2,50.9v86.3c0,1.1,0,2.1,0.1,3.2
		c0.1,0.8,0.1,1.5,0.2,2.3c0,0.1,0,0.1,0,0.2c1.1,10.1,5.3,19.3,11.6,26.7c0.3,0.4,0.6,0.7,0.9,1c0.1,0,0.1,0.1,0.1,0.2
		c11.1,12.6,28.4,20.8,47.7,20.8h-31.4c-5.6,0-10.8,1.7-15.2,4.5c-4.4-2.9-9.6-4.5-15.2-4.5h-8.2c-3.4,0-6.7,0.6-9.8,1.8
		c-3.1-1.2-6.4-1.8-9.8-1.8h-8.2c-15.3,0-27.7,12.4-27.7,27.7v36c0,15.3,12.4,27.7,27.7,27.7h8.2c3.4,0,6.7-0.6,9.8-1.8
		c2.1,0.8,4.2,1.3,6.4,1.6c-0.6,1.4-1.1,2.8-1.5,4.2c-7,6.8-10.9,16.2-10.9,26.6c0,11.6,4.9,22,13.4,28.8c4,9.6,13.5,15.9,23.9,15.9
		h5c7.1,0,13.8-3,18.6-7.9h3.6c1.6,0.3,3.2,0.5,4.9,0.5c0.6,0,1.3,0,2-0.1c0.2,0,0.3,0,0.5,0c2.3-0.2,4.6-0.7,6.8-1.3
		c2.3,0.7,4.8,1,7.2,1h4.9c1.3,0,2.6-0.1,3.8-0.3c1.3,0.2,2.5,0.3,3.8,0.3h10.9c2.4,0,4.8-0.3,7.1-0.7c2,0.5,4.1,0.7,6.2,0.7h2.3
		c1.1,0,2.3-0.1,3.4-0.2c1.1,0.2,2.3,0.2,3.4,0.2h3.8c1.2,0,2.3-0.1,3.5-0.2c1.2,0.2,2.3,0.2,3.5,0.2h5c1.3,0,2.6-0.1,3.8-0.3
		c1.3,0.2,2.5,0.3,3.8,0.3h4.9c1.6,0,3.1-0.1,4.7-0.4c1.5,0.3,3.1,0.4,4.7,0.4h5c3.4,0,6.8-0.7,9.9-2c3.1,1.3,6.5,2,9.9,2h11.3
		c4.9,0,9.6-1,13.9-2.9c3.6,1.9,7.7,2.9,11.9,2.9h5.5c2.4,0,4.7-0.3,6.9-0.9c2.3,0.6,4.6,0.9,6.9,0.9h5.4c1.5,0,2.9-0.1,4.3-0.4
		c1.4,0.2,2.9,0.4,4.3,0.4h12.1c23.4,0,41.7-17.9,41.7-40.8c0-9.9-3.5-18.9-9.3-25.9c0.8,0,1.5,0.1,2.3,0.1
		C399.8,490.8,420.6,469.9,420.6,444.4L420.6,444.4z"/>
</g>
<g id="desc">
	<path fill="#008453" d="M99.5,553c-6.7,0-12.2-4.9-13.3-11.2c-7.1-4.1-11.6-11.8-11.6-21.1c0-8.6,3.9-15.8,10.1-20.2
		c0-2.2,0.5-4.3,1.5-6.3c2.2-4.3,6.7-7,11.5-7h6.7c3.2,0,6.2,1.1,8.5,3c3-2.5,6.8-3.9,10.7-3.9c6.8,0,12.6,4.1,15.2,9.9h13.5
		c1,0,2.1,0.1,3,0.3c1-0.2,2-0.3,3-0.3h6.8c3.4,0,6.6,1.3,9,3.4c2.4-2.2,5.6-3.4,8.9-3.4h8.1c2.2,0,4.4,0.5,6.3,1.5
		c1.9-1,4.1-1.5,6.3-1.5h6.3c1,0,2.1,0.1,3,0.3c1-0.2,2-0.3,3-0.3h6.7c1.7,0,3.3,0.3,4.8,0.9c1.5-0.6,3.1-0.9,4.8-0.9h5
		c3.6,0,6.8,1.4,9.2,3.6c2.5-2.3,5.7-3.6,9.1-3.6h12.8c4.4,0,8.5,1.3,11.8,3.6c0.2-1.6,0.6-3.1,1.4-4.6c2.3-4.3,6.7-7,11.7-7h6.5
		c2.5,0,4.9,0.7,6.9,1.9c2-1.2,4.4-1.9,6.9-1.9h5.3c1.2,0,2.3,0.2,3.4,0.4c1.1-0.3,2.2-0.4,3.4-0.4h13.7c16.2,0,28.9,12.3,28.9,28
		c0,15.7-12.7,28-28.9,28h-12.1c0,0-2.9,0.4-4.3,0c-1.4,0.5-2.8,0.7-4.3,0h-5.4c-2.5,0.7-4.9,0-6.9-1.2c-2,1.2-4.4,1.9-6.9,1.2H294
		c-4.6,0.7-8.6-1.6-11.1-5.1c-3.8,3.6-9,5.8-14.8,5.1h-11.3c-3.9,0.7-7.4-1-9.9-3.7c-2.5,2.8-6.1,4.3-9.9,3.7h-5
		c-1.6,0.7-3.2,0.4-4.7-0.1c-1.5,0.5-3,0.8-4.7,0.1h-4.9c-1.3,0.7-2.6,0.5-3.8,0.1c-1.2,0.4-2.5,0.6-3.8-0.1h-5
		c-1.2,0.7-2.4,0.5-3.5,0.2c-1.1,0.3-2.3,0.5-3.5-0.2h-3.8c-1.2,0.7-2.3,0.5-3.4,0.2c-1.1,0.3-2.3,0.5-3.4-0.2h-2.3
		c-2.1,0.7-4.1,0.2-5.8-0.6c-2.3,0.9-4.8,1.3-7.5,0.6h-11c-1.3,0.7-2.6,0.5-3.8,0.1c-1.2,0.4-2.5,0.5-3.8-0.1h-4.9
		c-2.6,0.7-5.1-0.1-7.2-1.4c-2.5,1.3-5.2,2.2-8,2.4c-0.1,0-0.1,0-0.2,0c-1.6,0.1-3.3,0-4.8-0.5c-0.5,0.1-1.5,0.4-1.5,0.4h-5.1
		c-1.5,0-3-0.2-4.3-0.7c-2,5.1-7,8.7-12.8,8.7h-5L99.5,553z M372.5,478c-14.5,0-26.9-9.2-31.6-22c-4.1,13.2-16,22-31.2,22
		c-14.2,0-26.2-8-31.5-19.8c-5.3,11.7-17.1,19.8-30.7,19.8c-13.6,0-25.3-8.1-30.6-19.6c-4.8,11.9-16.1,19.6-30.3,19.6
		c-12,0-22.5-5.7-28.6-14.7c-0.6,7.8-7.1,13.9-15.1,13.9h-26.4c-8,0-14.5-6.2-15.1-14.1c-0.5,7.8-7.1,14.1-15.1,14.1h-8.2
		c-3.7,0-7.1-1.3-9.7-3.5c-2.7,2.3-6.2,3.5-9.7,3.5h-8.1c-8.4,0-15.2-6.8-15.2-15.2v-35.6c0-8.4,6.8-15.2,15.2-15.2h8.1
		c3.6,0,7,1.3,9.7,3.5c2.7-2.2,6.1-3.5,9.7-3.5h8.2c8,0,14.5,6.2,15.1,14.1c0.5-7.8,7.1-14.1,15.1-14.1h26.4c8,0,14.6,6.2,15.1,14.1
		c6.1-8.9,16.4-14.8,28-14.8c11.6,0,22.5,5.8,28.4,15.3c1,1.6,1.7,3.4,2.1,5.3c5.1-12,17.1-20.5,31-20.5c13.7,0,25.5,8.2,30.7,19.9
		c5.3-11.7,17.2-19.9,30.9-19.9c11.6,0,22.5,5.8,28.4,15.3c1.5,2.4,2.3,5.2,2.3,8c0.1,0.2,0.2,0.4,0.4,0.6
		c4.6-14.9,19.2-25.4,35.9-23.7c16.1,1.7,28.9,15,30,31.2C407.5,461.6,391.9,478,372.5,478L372.5,478z"/>
	<path fill="#FFFFFF" d="M106.6,508.8c-0.5,0-0.2-0.8-0.2-0.8v-7.2c0,0-1.1-1-1.6-1.6h-6.7c-0.5,0.6-0.7,1.1-0.3,1.7
		c0.5,0.7,1,1.6,0.6,3.7v3.4c0.5,0.5,0.3,0.8-0.3,0.8c-6.7,0.6-10.6,5.4-10.6,11.8c0,6.3,3.9,11.2,10.6,11.8c0.5,0,0.8,0.3,0.3,0.8
		v6.2c0.5,0.5,1.4,0.9,1.4,0.9h5c0,0,1-0.4,0.6-0.9v-6.2c0.4-0.5,0.7-0.8,1.2-0.8c6.7-0.6,10.5-5.4,10.5-11.8
		S113.3,509.4,106.6,508.8L106.6,508.8z M98.5,528.1c0,0.6-0.3,0.8-0.6,0.7c-2.2-0.8-3.7-3.8-3.7-8.2c0-4.4,1.5-7.4,3.7-8.1
		c0.3,0,0.6,0.1,0.6,0.7V528.1L98.5,528.1z M106.1,528.7c-0.3,0.1-0.6-0.1-0.6-0.7v-14.8c0-0.6,0.3-0.8,0.6-0.7
		c2.2,0.7,3.7,3.7,3.7,8.1C109.8,525,108.3,528,106.1,528.7L106.1,528.7z M127.5,509.2v22c0,0.5-0.5,1-1,1h-5c-0.5,0-0.9-0.4-0.9-1
		v-18.2c0-2.2-0.5-3.1-1.1-3.8c-0.4-0.6-0.2-1.1,0.3-1.1h6.8C127,508.2,127.4,508.7,127.5,509.2z M128.1,502.9c0,2.2-1.8,4-4,4
		s-4.1-1.8-4.1-4s1.8-4,4.1-4C126.3,498.9,128.1,500.7,128.1,502.9z M154.5,510.2v21.1c0,0.5-0.5,0.9-1,0.9h-5c-0.6,0-1-0.4-1-0.9
		v-18c0-0.6-0.4-1-1-1h-5c-0.6,0-1,0.5-1,1v4.8c0,3.1-0.3,6.7-1.5,9.5c-1.1,2.7-3.4,4.7-6.6,5c-0.6,0-0.7-0.3-0.8-0.5l-0.5-2.7
		c-0.1-0.5,0.3-1,0.9-0.8c1.9,0.3,3-1.4,3.5-2.8c0.8-2.5,0.9-5.8,0.9-8.2v-3.6c0-2.1-0.5-3.1-1-3.7c-0.4-0.6-0.2-1.1,0.3-1.1h17.8
		C154,509.2,154.5,509.7,154.5,510.2L154.5,510.2z M172.4,516.2h-4c-0.5,0-1-0.5-1-1.1v-5.9c0-0.5-0.5-1-1-1h-6.8
		c-0.5,0-0.7,0.5-0.3,1.1c0.5,0.7,1.1,1.7,1.1,3.8v18.1c0,0.5,0.4,1,0.9,1h11.1c4.7,0,8.6-3.5,8.6-7.9S177.1,516.2,172.4,516.2
		L172.4,516.2z M169.4,529.2h-2c-0.5,0-0.9-0.5-0.9-1.1v-6.9c0-0.6,0.4-1,0.9-1h2c2.2,0,3.6,1.8,3.6,4.4
		C173.1,527.2,171.7,529.2,169.4,529.2z M211.5,509.2v22.2c0,0.5-0.4,0.9-0.9,0.9h-5.1c-0.5,0-1-0.4-1-0.9v-11.6
		c0-0.5-0.5-0.5-0.7-0.1l-4.2,11.7c-0.2,0.5-0.8,0.9-1.3,0.9h-3.8c-0.5,0-1.1-0.4-1.2-0.9l-4.1-11.7c-0.1-0.4-0.7-0.3-0.6,0.1v11.5
		c0,0.5-0.5,0.9-0.9,0.9h-2.2c-0.5,0-0.9-0.4-0.9-0.9v-18.2c0-2.2-0.5-3.1-1-3.8c-0.4-0.6-0.2-1.1,0.3-1.1h8c0.5,0,1,0.4,1.2,0.9
		l4.7,13.8c0,0.2,0.2,0.3,0.3,0.3c0.1,0,0.2-0.1,0.3-0.3l4.8-13.8c0.2-0.5,0.7-0.9,1.2-0.9h6.3C211.1,508.2,211.4,508.7,211.5,509.2
		L211.5,509.2z M237.5,509.7v21.8c0,0,0.2,1-0.3,0.8h-5c-0.5,0.2-0.7-0.8-0.7-0.8v-12.7c0-0.4-0.3-0.5-0.5-0.1l-6.7,12.8
		c-0.3,0.5-0.6,0.8-1.1,0.8h-4.8c-0.5,0-1-0.4-1-1v-18.2c0-2.2-0.5-3.1-1-3.8c-0.4-0.6-0.2-1.1,0.3-1.1h6c0,0,1,1,0.7,1.5v12.3
		c0.3,0.4,0.6,0.5,0.8,0.1l6.8-12.6c0.3-0.5,0.6-0.8,1.1-0.4h5c0.5-0.5,1,0,1,0.5L237.5,509.7z M273.2,519.6c-0.4-0.2-0.5-0.4,0-0.7
		c1.5-1.1,2.6-2.6,2.6-4.7c0-3.2-3.2-6-7.3-6h-12.8c-0.5,0-0.7,0.5-0.3,1.1c0.5,0.7,1.1,1.6,1.1,3.8v18.2c0,0.5,0.4,1,1,1h11.5
		c4.7,0,8.2-3.2,8.2-6.7C277.1,522.9,275.4,520.8,273.2,519.6z M262.5,513.2c0-0.7,0.5-1,1-1h2c1.3,0,2.7,0.9,2.7,3
		c0,1.7-1.2,3-2.4,3h-2.3c-0.6,0-1-0.5-1-1.1L262.5,513.2L262.5,513.2z M265.8,528.2h-2.4c-0.5,0-1-0.4-1-1v-5.1c0-0.5,0.4-1,1-1
		h2.4c1.7,0,2.9,1.8,2.9,3.6C268.7,526.6,267.5,528.2,265.8,528.2z M319.5,502.2v29.1c0,0.5-0.4,0.9-1,0.9h-5c-0.6,0-1-0.4-1-0.9
		v-12.1c0-0.5-0.4-1-0.9-1h-10.2c-0.6,0-0.9,0.4-0.9,1v12.1c0,0.5-0.4,0.9-1,0.9h-5.1c-0.5,0-1-0.4-1-1v-25.4c0-2-0.5-3-1-3.6
		c-0.4-0.6-0.2-1,0.3-1h6.7c0.6,0,1,0.4,1,1v11.1c0,0.5,0.3,1,0.9,1h10.2c0.5,0,0.9-0.4,0.9-1v-11.1c0-0.5,0.4-1,1-1h5
		C319,501.2,319.4,501.7,319.5,502.2L319.5,502.2z M339.7,500.2h-14c-0.5,0-0.7,0.5-0.3,1.1c0.5,0.7,1.1,1.6,1.1,3.8v26.2
		c0,0.5,0.4,1,1,1h12.3c9.7,0,17-7.2,17-16C356.7,507.4,349.4,500.2,339.7,500.2L339.7,500.2z M338.1,528.2h-3.6c-0.6,0-1-0.4-1-1
		v-21.9c0-0.6,0.4-1.1,1-1.1h3.6c5.9,0,10.1,4.7,10.1,12C348.2,523.6,343.9,528.2,338.1,528.2z M78.2,426.2h8.2v36h-8V440l-9.5,16.2
		H68L58.5,440v22.2h-8v-36h8.2l9.8,16L78.2,426.2L78.2,426.2z M116.5,462.2h27v-8h-18v-6h18v-8h-18v-6h18v-8h-27V462.2z
		 M186.5,449.2h9.6c-1.3,3.3-4.4,5.4-9.2,5.4c-7,0-11.3-4.3-11.3-10.3c0-6.1,4.5-10.5,10.6-10.5c4.1,0,7.3,1.8,8.8,4.1l7-3.9
		c-3-4.7-8.8-8-15.7-8c-10.6,0-18.8,8.1-18.8,18.2c0,10,8.1,18.1,19.4,18.1c10.1,0,17.7-6.5,17.7-17.2v-3h-18V449.2L186.5,449.2z
		 M267.2,444.4c0,10.6-8.4,18.7-18.7,18.7c-10.3,0-18.7-8.1-18.7-18.7s8.4-18.7,18.7-18.7C258.8,425.7,267.2,433.8,267.2,444.4z
		 M259,444.4c0-6.4-4.6-10.7-10.5-10.7c-5.9,0-10.5,4.3-10.5,10.7s4.6,10.7,10.5,10.7C254.4,455,259,450.8,259,444.4z M310.5,449.2
		h9.6c-1.3,3.3-4.4,5.4-9.2,5.4c-7,0-11.3-4.3-11.3-10.3c0-6.1,4.5-10.5,10.6-10.5c4.1,0,7.3,1.8,8.8,4.1l7-3.9c-3-4.7-8.8-8-15.7-8
		c-10.6,0-18.8,8.1-18.8,18.2c0,10,8.1,18.1,19.4,18.1c10.1,0,17.7-6.5,17.7-17.2v-3h-18V449.2L310.5,449.2z M392.9,444.4
		c0,10.6-8.4,18.7-18.7,18.7c-10.3,0-18.7-8.1-18.7-18.7s8.4-18.7,18.7-18.7C384.5,425.7,392.9,433.8,392.9,444.4z M384.6,444.4
		c0-6.4-4.6-10.7-10.5-10.7s-10.5,4.3-10.5,10.7s4.6,10.7,10.5,10.7C380,455,384.6,450.8,384.6,444.4z"/>
	<path fill="#FFFFFF" d="M364,503.3c0.2-0.1,0.2-0.4,0-0.4l-1.3-0.5c-1-0.3,0.5-2.9,1.3-2.2l1,0.9c0.1,0.1,0.4,0,0.4-0.2l-0.2-1.3
		c-0.1-0.5,0.5-0.8,1.2-0.8s1.4,0.3,1.3,0.8l-0.2,1.4c0,0.2,0.2,0.3,0.3,0.2l1-0.9c0.8-0.8,2.3,1.9,1.3,2.2l-1.3,0.5
		c-0.2,0.1-0.1,0.3,0,0.4l1.3,0.5c1,0.3-0.5,2.9-1.3,2.2l-1-0.9c-0.1-0.1-0.4,0-0.3,0.2l0.2,1.4c0.1,0.5-0.5,0.8-1.2,0.8
		c-0.7,0-1.5-0.3-1.3-0.8l0.3-1.4c0.1-0.2-0.2-0.3-0.4-0.2l-1,0.9c-0.8,0.8-2.3-1.9-1.3-2.2L364,503.3z"/>
</g>
<g id="icon">
	<path fill="#008453" d="M137.5,381.7c-20.7,0-37.5-16.8-37.5-37.5v-90.7c-11.1-12.9-17.2-29.2-17.2-46.5
		c0-39.4,32.1-71.5,71.5-71.5c20.2,0,39,8.4,52.3,22.8c13.3-14.3,32.1-22.8,52.3-22.8c39.4,0,71.5,32.1,71.5,71.5
		c0,13.1-3.5,25.6-10.1,36.7c0.3,1.4,0.5,2.8,0.7,4.1h9.8l40.3-21.7c1.9-1,3.9-1.5,5.9-1.5c2.2,0,4.4,0.6,6.4,1.8
		c3.8,2.3,6.1,6.3,6.1,10.7v108.5c0,4.4-2.3,8.5-6.1,10.7c-1.9,1.2-4.2,1.8-6.4,1.8c-2,0-4.1-0.5-5.9-1.5L330.7,335h-9.5v9.2
		c0,20.7-16.8,37.5-37.5,37.5L137.5,381.7L137.5,381.7z"/>
	<path fill="#FFFFFF" d="M333.9,260.4h-25.2V252c0-3.6-0.8-7.1-2.2-10.1c7.1-9.8,11.4-21.8,11.4-34.8c0-32.6-26.4-59-59-59
		c-22.7,0-42.5,12.9-52.3,31.7c-9.8-18.9-29.6-31.7-52.3-31.7c-32.6,0-59,26.4-59,59c0,16.3,6.6,31.1,17.4,41.8
		c-0.1,1-0.2,2.1-0.2,3.1v92.3c0,13.8,11.2,25,25,25h146.3c13.8,0,25-11.2,25-25v-21.7h25.2l43.1,23.2V237.2L333.9,260.4
		L333.9,260.4z"/>
</g>
<g id="title">
	<path fill="#008453" d="M368.6,122.6c-4.5,0-8.5-2.2-10.9-5.8c-2.5,3.6-6.5,5.8-10.9,5.8h-1.6c-4.7,0-8.8-2.4-11.2-6.1
		c-1.8,0.3-3.7,0.5-5.6,0.5c-3.5,0-6.9-0.6-9.9-1.7c-1.7,0.8-3.5,1.2-5.4,1.2h-4.3c-2.6,0-5.1-0.6-7.2-1.8c-2,1.2-4.4,1.8-6.7,1.8
		h-3.4c-3.7,0-7-1.5-9.5-3.9c-2.4,2.4-5.8,3.9-9.5,3.9h-3.3c-2.6,0-5-0.7-7-2c-2.1,1.3-4.6,2-7,2h-3.4c-1.1,0-2.1-0.1-3.1-0.4
		c-1,0.2-2,0.4-3.1,0.4H230c-0.8,0-1.6-0.1-2.4-0.2c-0.8,0.1-1.6,0.2-2.4,0.2h-4.2c-2.3,0-4.5-0.5-6.4-1.4c-1.8,0.9-3.8,1.4-6,1.4
		h-3.3c-2.1,0-4.1-0.5-5.9-1.4c-1.9,0.9-4.1,1.4-6.4,1.4H189c-2,0-3.8-0.4-5.5-1.2c-3.1,1.2-6.5,1.8-10.1,1.8
		c-3.5,0-6.9-0.6-9.9-1.7c-1.7,0.8-3.5,1.2-5.4,1.2h-4.3c-2.6,0-5.1-0.6-7.2-1.8c-2,1.2-4.4,1.8-6.7,1.8h-3.4c-3,0-5.9-1-8.1-2.8
		c-2.3,1.8-5.2,2.8-8.1,2.8h-3.8c-3.6,0-6.9-1.4-9.4-3.7c-2.5,2.3-5.9,3.7-9.4,3.7h-2c-1.5,0-2.9-0.3-4.3-0.7
		c-2.5,0.8-5.1,1.3-8,1.3c-8.6,0-16.4-3.9-20.7-10.5c-3.9-5.9-2.5-13.6,3.2-17.8c-0.1-0.2-0.2-0.3-0.3-0.5l-0.9-1.5
		c-3.1-4.9-2.9-11.2,0.6-15.7l0.1-0.2c4-4.9,10.5-7.9,17.5-7.9c5,0,9.5,1.3,13,3.6c2.3-2,5.3-3.1,8.4-3.1h5.3c5.7,0,11,3.7,13,9
		c0.2-0.7,0.5-1.4,0.9-2.1c2.2-4.3,6.6-6.9,11.5-6.9h4.8c2.5,0,4.8,0.7,6.7,1.8c2.6-1.4,5.2-1.8,7.2-1.8h2.5c2.2,0,4.3,0.6,6.2,1.6
		c3.3-1.4,7-2.1,10.9-2.1c3.8,0,7.4,0.7,10.6,2c1.8-0.9,3.9-1.4,6-1.4h3.1c2.3,0,4.5,0.5,6.4,1.4c1.8-0.9,3.8-1.4,6-1.4h3.3
		c2.1,0,4.2,0.5,6,1.4c2-0.9,4.1-1.4,6.5-1.4h2.2c0.9,0,1.7,0.1,2.5,0.3c0.8-0.2,1.7-0.3,2.5-0.3H245c0.9,0,1.8,0.1,2.6,0.3
		c0.8-0.2,1.7-0.3,2.6-0.3h4.9c2.6,0,5,0.7,7,2c2-1.3,4.5-2,7-2h3.3c3.4,0,6.5,1.2,8.8,3.3c2.3-2.1,5.4-3.3,8.7-3.3h4.8
		c2.5,0,4.8,0.7,6.7,1.8c2.6-1.4,5.2-1.8,7.2-1.8h2.5c2.2,0,4.3,0.6,6.2,1.6c3.3-1.4,7-2.1,10.9-2.1c4.9,0,9.5,1.2,13.5,3.3
		c2.2-1.8,5-2.8,8-2.8h17.1c7.4,0,13.4,6,13.4,13.4v15.7l0,0c2.4,2.7,3.7,6.2,3.5,9.8l-0.4,7.5l0,0.4c-0.6,7-6.3,12.3-13.3,12.3
		L368.6,122.6L368.6,122.6z"/>
	<path fill="#FDE619" d="M93.2,96.2c0,4.6-3.8,8.4-9.9,8.4c-4.4,0-8.2-1.8-10.2-4.9c-0.2-0.2-0.2-0.6,0.2-1l1.4-0.9
		c0.5-0.3,0.8-0.1,1.1,0.2c1.4,2,4.2,3.3,6.6,3.3c3,0,5.2-2,5.2-5.4c0-3-1.8-5.1-5.2-5.1h-1.6c-0.5,0-0.9-0.4-0.9-0.9v-1.4
		c0-0.5,0.4-0.9,0.9-0.9h1.6c2.3-0.1,4.3-1.8,4.3-4.8c0-2.6-1.8-4.3-4.6-4.3c-2.4,0-3.9,1.4-4.6,2.7c-0.3,0.6-1,0.7-1.4,0.2l-1-1.6
		c-0.3-0.5-0.4-1-0.1-1.3c1.5-1.8,4.4-3.2,7.8-3.2c5.8,0,9.2,3,9.2,7.4c0,2.3-1.5,4.5-3.3,5.8c-0.3,0.2-0.3,0.5,0,0.6
		C91.5,90.6,93.2,93.4,93.2,96.2z M120.9,103.2c0.2,0.4-0.1,0.8-0.6,0.8h-3.8c-0.5,0-1-0.4-1.2-0.8l-2.3-6.4c-0.2-0.4-0.5-0.6-1-0.6
		h-9.8c-0.6,0-0.9,0.2-1.1,0.6l-2.3,6.4c-0.2,0.4-0.7,0.8-1.2,0.8h-2c-0.6,0-0.8-0.4-0.7-0.8l8.7-22.9c0.3-0.9,0.4-1.5,0.4-2
		c0-0.6-0.1-1-0.3-1.3c-0.2-0.5,0.1-1,0.5-1h5.3c0.6,0,1.1,0.4,1.3,0.9L120.9,103.2L120.9,103.2z M111.3,92.1l-3.8-10.8
		c0-0.2-0.2-0.3-0.3-0.3s-0.3,0.1-0.4,0.3l-3.9,10.8c-0.2,0.6,0,0.9,0.5,0.9h7.4C111.3,93,111.5,92.7,111.3,92.1z M147.4,89.3
		c-0.4-0.5-0.5-0.7-0.1-1.1l9.2-11.3c0.4-0.5,0.3-0.9-0.2-0.9h-2.5c-0.9,0-1.4,0.3-1.9,0.9l-8.5,10.6c-0.2,0.2-0.5,0.4-0.8,0.4h-1.2
		c-0.4,0-0.6-0.2-0.6-0.7V76.9c0-0.5-0.4-0.9-0.9-0.9H135c-0.4,0-0.6,0.4-0.3,1c0.4,0.6,0.9,1.4,0.9,3.3v22.9c0,0.4,0.4,0.8,0.8,0.8
		h3.4c0.5,0,0.9-0.4,0.9-0.8V91.8c0-0.4,0.3-0.7,0.6-0.7h0.8c0.3,0,0.5,0.2,0.7,0.4l9,11.6c0.4,0.6,1.2,0.8,2,0.8h4.3
		c0.5,0,0.7-0.4,0.3-0.8L147.4,89.3L147.4,89.3z M188.6,90c0,8.2-6.4,14.5-15.2,14.5c-8.7,0-15.1-6.3-15.1-14.5
		c0-8.3,6.4-14.6,15.1-14.6C182.2,75.4,188.6,81.8,188.6,90z M183,90c0-6.4-4-11.4-9.6-11.4c-5.5,0-9.5,5-9.5,11.4s4,11.4,9.5,11.4
		C179,101.3,183,96.3,183,90z M215.9,89.3c-0.3-0.4-0.4-0.8-0.2-1.1l8-11.3c0.4-0.5,0.3-0.9-0.2-0.9h-2.2c-0.9,0-1.4,0.2-1.9,0.9
		l-7.4,10.6c-0.2,0.2-0.5,0.4-0.8,0.4h-0.8c-0.4,0-0.6-0.2-0.6-0.7V76.9c0-0.5-0.4-0.9-0.9-0.9h-3.3c-0.5,0-0.9,0.4-0.9,0.9v10.4
		c0,0.4-0.2,0.7-0.6,0.7h-0.8c-0.3,0-0.6-0.2-0.8-0.4l-7.4-10.6c-0.4-0.6-1-0.9-1.9-0.9H190c-0.6,0-0.7,0.7,0,1
		c0.8,0.4,1.6,1.2,2.8,2.9l5.8,8.3c0.2,0.4,0.1,0.8-0.2,1.1l-9.8,13.8c-0.4,0.4-0.2,0.8,0.3,0.8h4.2c0.8,0,1.4-0.2,1.8-0.8l7.9-11.6
		c0.2-0.2,0.4-0.4,0.7-0.4h0.4c0.4,0,0.6,0.3,0.6,0.7v11.3c0,0.4,0.4,0.8,0.9,0.8h3.3c0.5,0,0.9-0.4,0.9-0.8V91.8
		c0-0.4,0.3-0.7,0.6-0.7h0.4c0.3,0,0.6,0.2,0.7,0.4l7.9,11.6c0.4,0.6,1,0.8,1.8,0.8h4.2c0.5,0,0.7-0.4,0.3-0.8L215.9,89.3z
		 M245.6,100.8h-10.5c-0.5,0-0.8-0.4-0.8-0.9v-7.7c0-0.5,0.4-0.9,0.8-0.9h8c0.4,0,0.8-0.4,0.8-0.9V89c0-0.4-0.4-0.8-0.8-0.8h-8
		c-0.5,0-0.8-0.4-0.8-0.9v-7.2c0-0.5,0.4-0.9,0.8-0.9h6.8c1.3,0,2.6,0.3,3.5,0.6c0.6,0.2,1,0,0.9-0.6l-0.4-2.4
		c-0.1-0.5-0.5-0.8-1-0.8h-16.5c-0.4,0-0.6,0.4-0.2,1c0.4,0.6,0.9,1.4,0.9,3.3v22.9c0,0.4,0.4,0.8,0.8,0.8h15.6
		c0.5,0,0.9-0.4,0.9-0.8v-1.5C246.5,101.2,246.1,100.8,245.6,100.8L245.6,100.8z M272.5,76h-3.3c-0.5,0-0.9,0.4-0.9,0.9v10.4
		c0,0.5-0.4,0.9-0.8,0.9h-10.6c-0.5,0-0.8-0.4-0.8-0.9V76.9c0-0.5-0.4-0.9-0.9-0.9h-4.9c-0.4,0-0.6,0.4-0.2,1
		c0.4,0.6,0.9,1.4,0.9,3.3v22.9c0,0.4,0.4,0.8,0.8,0.8h3.4c0.5,0,0.9-0.4,0.9-0.8v-11c0-0.5,0.3-0.9,0.8-0.9h10.6
		c0.4,0,0.8,0.4,0.8,0.9v11c0,0.4,0.4,0.8,0.9,0.8h3.3c0.5,0,0.9-0.4,0.9-0.8V76.9C273.5,76.4,273.1,76,272.5,76z M302.4,89.3
		c-0.4-0.5-0.5-0.7-0.1-1.1l9.2-11.3c0.4-0.5,0.3-0.9-0.2-0.9h-2.5c-0.9,0-1.4,0.3-1.9,0.9l-8.5,10.6c-0.2,0.2-0.5,0.4-0.8,0.4h-1.2
		c-0.4,0-0.6-0.2-0.6-0.7V76.9c0-0.5-0.4-0.9-0.9-0.9H290c-0.4,0-0.6,0.4-0.3,1c0.4,0.6,0.9,1.4,0.9,3.3v22.9c0,0.4,0.4,0.8,0.8,0.8
		h3.4c0.5,0,0.9-0.4,0.9-0.8V91.8c0-0.4,0.3-0.7,0.6-0.7h0.8c0.3,0,0.5,0.2,0.7,0.4l9,11.6c0.4,0.6,1.2,0.8,2,0.8h4.3
		c0.5,0,0.7-0.4,0.3-0.8L302.4,89.3z M343.6,90c0,8.2-6.4,14.5-15.2,14.5c-8.7,0-15.1-6.3-15.1-14.5c0-8.3,6.4-14.6,15.1-14.6
		C337.2,75.4,343.6,81.8,343.6,90z M338,90c0-6.4-4-11.4-9.6-11.4c-5.5,0-9.5,5-9.5,11.4s4,11.4,9.5,11.4C334,101.3,338,96.3,338,90
		z M371.5,101.7l-0.4,7.5c0,0.5-0.4,0.9-0.9,0.9h-1.6c-0.5,0-0.8-0.4-0.9-0.9l-1.2-4.3c-0.2-0.5-0.6-0.9-1.1-0.9h-15.6
		c-0.4,0-0.9,0.4-1.1,0.9l-1.2,4.3c-0.1,0.5-0.4,0.9-0.9,0.9h-1.6c-0.5,0-0.8-0.4-0.9-0.9l-0.4-7.5c0-0.5,0.3-0.9,0.8-0.9h1.6
		c0.8,0,1-0.1,1.2-0.8c2-5.4,3.2-11.7,3.2-16.8v-2.9c0-1.9-0.5-2.7-0.9-3.3c-0.4-0.5-0.2-1,0.2-1h17.1c0.5,0,0.9,0.4,0.9,0.9v23
		c0,0.5,0.4,0.9,0.9,0.9h1.8C371.1,100.8,371.5,101.2,371.5,101.7L371.5,101.7z M362.8,80.1c0-0.5-0.4-0.9-0.9-0.9h-6.9
		c-0.5,0-0.9,0.4-0.9,0.9v2.4c0,5.7-1.1,12.3-2.9,17.5c-0.1,0.4,0.1,0.8,0.6,0.8h10c0.5,0,0.9-0.4,0.9-0.9V80.1L362.8,80.1z"/>
</g>
<path fill="none" d="M-88.3-30.7h590v673.9h-590V-30.7z"/>
<path fill="none" d="M-1311.5-1389.7h5094.3v2865.6h-5094.3V-1389.7z"/>
<path fill="none" d="M275.7-497h1920V583h-1920L275.7-497z"/>
</svg>
