<svg id="Слой_1" data-name="Слой 1" xmlns="http://www.w3.org/2000/svg" viewBox="0 0 476.95 618.24"><title>megogo</title><g id="bg"><path d="M99.89,1515.32c-296.34,0-592.94-146.22-774.07-381.56a1019.06,1019.06,0,0,1-76.52-111.85C-861.19,861.62-927.15,652.47-927.15,462.33v-36c0-100.74,18.31-211.32,51.57-311.54a1027.57,1027.57,0,0,1,78.25-312.1A1037.46,1037.46,0,0,1-247.75-745.53,1026.67,1026.67,0,0,1,154.31-826.9c16.55,0,34.62.48,52.31,1.39,17.69-.91,35.76-1.39,52.31-1.39A1034.78,1034.78,0,0,1,928.41-580.74a1055.52,1055.52,0,0,1,77.42,73.18C1219.33-325.7,1352-40.37,1352,237.25v17.89c12,62.69,18.61,129.84,18.61,189.22a995.15,995.15,0,0,1-146.31,519.79c-52,102-125.36,200-206.64,276-184.26,172.37-425.1,267.3-678.15,267.3H327.35l-4.3,0-4.3,0h-5.36c-2.29,0-4.61,0-6.94,0s-4.64,0-6.94,0h-5.45c-4.37,0-8.7,0-12.89-.09s-8.54.09-13,.09H256.89c-3.26,0-6.58,0-9.89-.05s-6.63.05-9.89.05h-5l-4.34,0a998.6,998.6,0,0,1-122.93,7.91H99.89Z" fill="#00aa4f"/><path d="M99.89,1502.82c-292.58,0-585.39-144.35-764.21-376.75a1008.47,1008.47,0,0,1-75.84-110.89c-109.27-158.33-174.5-365-174.5-552.84v-36c0-100,18.25-209.62,51.39-309a1014.9,1014.9,0,0,1,77.43-309.76,1019,1019,0,0,1,218.89-323.5A1018.87,1018.87,0,0,1-242.89-734a1014.14,1014.14,0,0,1,397.2-80.38c16.54,0,34.62.49,52.31,1.41,17.69-.92,35.76-1.41,52.31-1.41A1022.29,1022.29,0,0,1,920.32-571.2a1045,1045,0,0,1,76.93,72.76c211.1,179.54,342.21,461.38,342.21,735.7v19.08c12,62.28,18.61,129,18.61,188a982.66,982.66,0,0,1-144.72,513.68c-51.36,100.86-123.89,197.79-204.27,273C827.14,1401.23,589.34,1495,339.47,1495H327.35l-4.3,0-4.3,0h-5.36c-2.29,0-4.61,0-6.94,0s-4.64,0-6.94,0h-5.45c-4.34,0-8.67,0-12.89-.09s-8.56.09-13,.09H256.89c-3.26,0-6.58,0-9.89-.05s-6.63.05-9.89.05h-5l-4.65,0H227a985.56,985.56,0,0,1-122.13,7.9H99.89Z" fill="#008453"/><path d="M99.89,1490.32c-288.81,0-577.86-142.52-754.35-371.94a993,993,0,0,1-75.16-109.94c-108-156.39-172.53-360.5-172.53-546.11v-36c0-99.16,18.18-207.92,51.22-306.42a1002.49,1002.49,0,0,1,76.61-307.42A1012.49,1012.49,0,0,1-238-722.49a1001.78,1001.78,0,0,1,392.33-79.4c16.54,0,34.61.49,52.31,1.43,17.7-.93,35.77-1.43,52.31-1.43A1009.79,1009.79,0,0,1,912.24-561.68a1032.53,1032.53,0,0,1,76.43,72.34C1197.36-312.11,1327-33.77,1327,237.26v20.28c12,61.87,18.61,128.17,18.61,186.84a970.11,970.11,0,0,1-143.14,507.57c-50.73,99.75-122.41,195.61-201.89,270-179.61,168-414.38,260.55-661.07,260.55H327.35l-4.3,0-4.3,0h-5.36c-2.29,0-4.61,0-6.94,0s-4.64,0-6.94,0h-5.45c-4.35,0-8.69,0-12.89-.09s-8.55.09-13,.09H256.89c-3.26,0-6.58,0-9.89-.05s-6.63.05-9.89.05h-5l-4.65,0h-1.34a972.11,972.11,0,0,1-121.28,7.9H99.89Z" fill="#00aa4f"/><path d="M99.89,1477.82c-285.06,0-570.33-140.68-744.5-367.13a981.09,981.09,0,0,1-74.47-109c-106.81-154.43-170.58-356-170.58-539.38v-36c0-98.37,18.12-206.22,51-303.86a990,990,0,0,1,75.78-305.09,994,994,0,0,1,213.55-315.6A994,994,0,0,1-233.14-711a989.28,989.28,0,0,1,387.46-78.41c16.54,0,34.61.5,52.31,1.44,17.7-.94,35.77-1.44,52.31-1.44a997.3,997.3,0,0,1,645.2,237.23,1018.11,1018.11,0,0,1,75.94,71.92c206.27,174.9,334.39,449.77,334.39,717.5v21.48c12,61.46,18.61,127.33,18.61,185.63a957.69,957.69,0,0,1-141.55,501.46c-50.1,98.66-120.94,193.44-199.51,266.94-177.29,165.85-409,257.18-652.53,257.18H327.35l-4.3,0-4.3,0h-5.36c-2.29,0-4.61,0-6.94,0s-4.64,0-6.94,0h-5.45c-4.33,0-8.67,0-12.89-.09s-8.57.09-13,.09H256.89c-3.26,0-6.58,0-9.89-.05s-6.63.05-9.89.05h-5l-4.66,0-2.17,0a960.39,960.39,0,0,1-120.44,7.89H99.89Z" fill="#008453"/><path d="M99.89,1465.32c-281.3,0-562.79-138.83-734.64-362.31a967.45,967.45,0,0,1-73.79-108C-814.13,842.5-877.16,643.41-877.16,462.33v-36c0-97.58,18.06-204.52,50.88-301.3a977.7,977.7,0,0,1,75-302.75,987.49,987.49,0,0,1,523-521.81A977,977,0,0,1,154.31-776.9c16.54,0,34.61.51,52.31,1.46,17.7-1,35.77-1.46,52.31-1.46A984.75,984.75,0,0,1,896-542.65a1005.77,1005.77,0,0,1,75.44,71.5C1175.33-298.57,1302-27.19,1302,237.24v22.69c12,61,18.61,126.49,18.61,184.42a945.06,945.06,0,0,1-140,495.34c-49.47,97.56-119.47,191.27-197.14,263.92-175,163.67-403.67,253.81-644,253.81H327.35l-4.3,0-4.3,0h-5.36c-2.29,0-4.61,0-6.94,0s-4.64,0-6.94,0h-5.45c-4.36,0-8.69,0-12.89-.09s-8.6.09-13,.09H256.89c-3.26,0-6.58,0-9.89-.05s-6.63.05-9.89.05h-5l-4.67,0-3,0a947.41,947.41,0,0,1-119.61,7.89H99.89Z" fill="#00aa4f"/><path d="M99.89,1452.82c-277.55,0-555.26-137-724.78-357.5A954.17,954.17,0,0,1-698,988.24C-802.36,837.71-864.65,641.15-864.65,462.33v-36c0-96.79,18-202.82,50.71-298.74a964.79,964.79,0,0,1,74.12-300.41,968.92,968.92,0,0,1,208.2-307.69A969.16,969.16,0,0,1-223.4-688a964.41,964.41,0,0,1,377.72-76.43c16.54,0,34.61.51,52.31,1.48,17.69-1,35.76-1.48,52.31-1.48a972.24,972.24,0,0,1,629,231.28,993.47,993.47,0,0,1,75,71.08c201.46,170.27,326.57,438.15,326.57,699.28v23.91c12,60.63,18.61,125.64,18.61,183.2a932.56,932.56,0,0,1-138.39,489.23c-48.85,96.46-118,189.1-194.76,260.91C802.28,1356,576.61,1444.94,339.47,1444.94H327.35l-4.3,0-4.3,0h-5.36c-2.29,0-4.61,0-6.94,0s-4.64,0-6.94,0h-5.45c-4.36,0-8.7,0-12.9-.09s-8.59.09-13,.09H256.89c-3.26,0-6.58,0-9.89-.06s-6.63.06-9.89.06h-5l-4.68,0-3.81,0a934.24,934.24,0,0,1-118.78,7.88h-5Z" fill="#008453"/><path d="M99.89,1440.32c-273.79,0-547.73-135.15-714.93-352.69A942.87,942.87,0,0,1-687.46,981.5c-103.13-148.57-164.7-342.62-164.7-519.17v-36c0-96,17.94-201.11,50.54-296.18a952.41,952.41,0,0,1,73.29-298.08A956.55,956.55,0,0,1-522.8-471.62,956.58,956.58,0,0,1-218.54-676.45,952.05,952.05,0,0,1,154.31-751.9c16.54,0,34.61.52,52.31,1.5,17.69-1,35.77-1.5,52.31-1.5A959.75,959.75,0,0,1,879.84-523.6a981.37,981.37,0,0,1,74.46,70.66C1153.33-285,1277-20.6,1277,237.23v25.14c12,60.21,18.61,124.78,18.61,182a920,920,0,0,1-136.8,483.12c-48.22,95.36-116.53,186.93-192.38,257.89-170.32,159.33-393,247.07-626.91,247.07H327.35l-4.3,0-4.3,0h-5.36c-2.29,0-4.61,0-6.94,0s-4.64,0-6.94,0h-5.45c-4.34,0-8.68,0-12.9-.09s-8.62.09-13,.09H256.89c-3.26,0-6.58,0-9.89-.06s-6.63.06-9.89.06h-5l-4.68,0-4.63,0a921.35,921.35,0,0,1-118,7.88H99.89Z" fill="#00aa4f"/><path d="M99.89,1427.82c-270,0-540.19-133.3-705.06-347.87a930.3,930.3,0,0,1-71.74-105.18C-778.82,828.15-839.65,636.63-839.65,462.33v-36c0-95.21,17.88-199.41,50.38-293.61A940,940,0,0,1-716.82-163,944.19,944.19,0,0,1-514-462.77a944.26,944.26,0,0,1,300.3-202.17,939.51,939.51,0,0,1,368-74.46c16.54,0,34.61.52,52.31,1.52,17.7-1,35.77-1.52,52.31-1.52A947.18,947.18,0,0,1,871.75-514.07a967.43,967.43,0,0,1,74,70.25c196.63,165.63,318.75,426.53,318.75,681.07v26.38c12,59.79,18.61,123.92,18.61,180.73a907.49,907.49,0,0,1-135.22,477c-47.59,94.26-115.05,184.76-190,254.87-168,157.15-387.6,243.7-618.37,243.7H327.35l-4.3,0-4.3,0h-5.36c-2.29,0-4.61,0-6.94,0s-4.64,0-6.94,0h-5.45c-4.29,0-8.63,0-12.9-.09s-8.67.09-13,.09H256.89c-3.26,0-6.58,0-9.89-.06s-6.63.06-9.89.06h-5l-4.68,0-4.69,0H222a908.55,908.55,0,0,1-117.14,7.88Z" fill="#008453"/><path d="M99.89,1415.32c-266.27,0-532.65-131.44-695.2-343A917.73,917.73,0,0,1-666.37,968c-100.69-144.67-160.79-333.67-160.79-505.7v-36c0-94.42,17.83-197.7,50.22-291a927.69,927.69,0,0,1,71.61-293.42A937.43,937.43,0,0,1-208.8-653.42a927.18,927.18,0,0,1,363.11-73.47c16.54,0,34.61.53,52.31,1.54,17.7-1,35.77-1.54,52.31-1.54A934.76,934.76,0,0,1,863.65-504.54a955.5,955.5,0,0,1,73.47,69.83C1131.35-271.4,1252-14,1252,237.24v27.63c12,59.37,18.61,123,18.61,179.49a894.9,894.9,0,0,1-133.64,470.9c-47,93.16-113.58,182.59-187.62,251.85-165.67,155-382.25,240.33-609.83,240.33H327.35l-4.3,0-4.3,0h-5.36c-2.29,0-4.61,0-6.94,0s-4.64,0-6.94,0h-5.45c-4.3,0-8.64,0-12.89-.1s-8.66.1-13,.1H256.89c-3.26,0-6.58,0-9.89-.06s-6.63.06-9.89.06h-5l-4.68,0-4.69,0h-1.59a895.69,895.69,0,0,1-116.31,7.88H99.89Z" fill="#00aa4f"/><path d="M99.89,1402.82c-262.51,0-525.12-129.61-685.35-338.25A902.36,902.36,0,0,1-655.82,961.3c-99.46-142.72-158.83-329.2-158.83-499v-36c0-93.62,17.77-196,50.06-288.48a915.11,915.11,0,0,1,70.77-291.09,925,925,0,0,1,489.9-488.73A914.64,914.64,0,0,1,154.32-714.4c16.54,0,34.61.54,52.31,1.56,17.7-1,35.77-1.56,52.31-1.56A922.17,922.17,0,0,1,855.56-495a941.89,941.89,0,0,1,73,69.42c191.8,161,310.92,414.91,310.92,662.85v28.88c12,58.93,18.61,122.18,18.61,178.23A882.41,882.41,0,0,1,1126,909.15c-46.33,92.06-112.11,180.42-185.25,248.83-163.35,152.8-376.89,237-601.29,237H327.35l-4.3,0-4.3,0h-5.36c-2.29,0-4.61,0-6.94,0s-4.64,0-6.94,0h-5.45c-4.28,0-8.62,0-12.89-.1s-8.68.1-13,.1H256.89c-3.26,0-6.58,0-9.89-.06s-6.63.06-9.89.06h-5l-4.68,0-4.69,0h-2.41a883.11,883.11,0,0,1-115.49,7.89H99.89Z" fill="#008453"/><path d="M99.89,1390.32c-258.75,0-517.58-127.76-675.49-333.43a892.06,892.06,0,0,1-69.68-102.32C-743.52,813.8-802.15,629.84-802.15,462.34v-36c0-92.84,17.72-194.31,49.9-285.91a902.32,902.32,0,0,1,69.93-288.76A912.53,912.53,0,0,1-199-630.39a902.29,902.29,0,0,1,353.37-71.5c16.54,0,34.61.55,52.31,1.58,17.7-1,35.77-1.58,52.31-1.58a909.68,909.68,0,0,1,588.53,216.4,930.28,930.28,0,0,1,72.49,69c189.4,158.68,307,409.1,307,653.73V267.4c12,58.5,18.61,121.3,18.61,177A869.85,869.85,0,0,1,1115.11,903c-45.7,91-110.63,178.24-182.87,245.82-161,150.63-371.53,233.58-592.76,233.58H327.35l-4.3,0-4.3,0h-5.36c-2.29,0-4.61,0-6.94,0s-4.64,0-6.94,0h-5.45c-4.27,0-8.61,0-12.89-.1s-8.69.1-13,.1H256.89c-3.26,0-6.58,0-9.89-.06s-6.63.06-9.89.06h-5l-4.68,0-4.69,0h-3.25a870.41,870.41,0,0,1-114.65,7.89H99.89Z" fill="#00aa4f"/><path d="M99.89,1377.82c-255,0-510-125.92-665.64-328.63a876.55,876.55,0,0,1-69-101.37c-97-138.81-154.91-320.26-154.91-485.5v-36c0-92,17.66-192.6,49.75-283.34A890.1,890.1,0,0,1-670.82-143.4,900,900,0,0,1-194.18-618.89a889.74,889.74,0,0,1,348.5-70.51c16.54,0,34.61.55,52.31,1.6,17.7-1,35.77-1.6,52.31-1.6A897.16,897.16,0,0,1,839.37-476a915,915,0,0,1,72,68.59c187,156.36,303.1,403.29,303.1,644.62v31.42c12,58.07,18.61,120.41,18.61,175.69a857.36,857.36,0,0,1-128.89,452.57C1059.11,986.78,995,1073,923.69,1139.72,765,1288.18,557.51,1369.93,339.47,1369.93H327.35l-4.3,0-4.3,0h-5.36c-2.29,0-4.61,0-6.94,0s-4.64,0-6.94,0h-5.45c-4.26,0-8.59,0-12.89-.1s-8.71.1-13,.1H256.89c-3.26,0-6.58,0-9.89-.06s-6.63.06-9.89.06h-5l-4.68,0-4.69,0h-4.09a857.79,857.79,0,0,1-113.81,7.89H99.89Z" fill="#008453"/><path d="M99.89,1365.32c-251.23,0-502.5-124.08-655.79-323.82a863.57,863.57,0,0,1-68.3-100.41c-95.79-136.86-153-315.79-153-478.76v-36c0-91.26,17.61-190.9,49.6-280.77A877.48,877.48,0,0,1-659.32-138.5a887.53,887.53,0,0,1,470-468.88A877.37,877.37,0,0,1,154.31-676.9c16.55,0,34.62.56,52.31,1.62,17.69-1.06,35.76-1.62,52.31-1.62A884.64,884.64,0,0,1,831.26-466.45a903.45,903.45,0,0,1,71.5,68.18C1087.33-244.23,1202-.8,1202,237.24v32.7c12,57.63,18.61,119.52,18.61,174.41a844.7,844.7,0,0,1-127.32,446.46c-44.44,88.76-107.68,173.9-178.1,239.78-156.37,146.28-360.82,226.84-575.68,226.84H327.35l-4.3,0-4.3,0h-5.36c-2.29,0-4.61,0-6.94,0s-4.64,0-6.94,0h-5.45c-4.28,0-8.61,0-12.89-.1s-8.69.1-13,.1H256.89c-3.26,0-6.58,0-9.89-.06s-6.63.06-9.89.06h-5l-4.68,0-4.69,0H217.8a845.12,845.12,0,0,1-113,7.89H99.89Z" fill="#00aa4f"/><path d="M99.89,1352.82c-247.46,0-495-122.23-645.93-319a852.93,852.93,0,0,1-67.62-99.46c-94.55-134.9-151-311.32-151-472v-36c0-90.47,17.56-189.2,49.46-278.2a864.8,864.8,0,0,1,67.38-281.78A875,875,0,0,1-184.44-595.86,864.66,864.66,0,0,1,154.31-664.4c16.55,0,34.62.57,52.31,1.65,17.69-1.08,35.76-1.65,52.31-1.65A872.16,872.16,0,0,1,823.17-456.93a892.08,892.08,0,0,1,71,67.77C1076.33-237.44,1189.46,2.5,1189.46,237.23v34c12,57.19,18.61,118.61,18.61,173.12a832.22,832.22,0,0,1-125.74,440.35c-43.81,87.66-106.2,171.73-175.72,236.76-154,144.11-355.46,223.47-567.14,223.47H327.35l-4.3,0-4.3,0h-5.36c-2.29,0-4.61,0-6.94,0s-4.64,0-6.94,0h-5.45c-4.32,0-8.65,0-12.88-.1s-8.65.1-13,.1H256.89c-3.26,0-6.58,0-9.89-.06s-6.63.06-9.89.06h-5l-4.68,0-4.69,0h-5.79a832.32,832.32,0,0,1-112.11,7.89H99.89Z" fill="#008453"/><path d="M99.89,1340.32c-243.7,0-487.41-120.38-636.07-314.19a838.68,838.68,0,0,1-66.94-98.52c-93.33-133-149-306.84-149-465.28v-36c0-89.69,17.5-187.49,49.31-275.62A852.55,852.55,0,0,1-636.33-128.7,862.47,862.47,0,0,1-179.59-584.35a852.42,852.42,0,0,1,333.9-67.55c16.54,0,34.62.58,52.31,1.67,17.69-1.09,35.76-1.67,52.31-1.67A859.61,859.61,0,0,1,815.07-447.4,877.42,877.42,0,0,1,885.59-380C1065.34-230.63,1177,5.81,1177,237.25v35.3c12,56.74,18.61,117.71,18.61,171.82A819.7,819.7,0,0,1,1071.4,878.61c-43.18,86.56-104.72,169.55-173.34,233.75-151.73,141.93-350.11,220.1-558.6,220.1H327.35l-4.3,0-4.3,0h-5.36c-2.29,0-4.61,0-6.94,0s-4.64,0-6.94,0h-5.45c-4.31,0-8.64,0-12.88-.1s-8.66.1-13,.1H256.89c-3.26,0-6.58,0-9.89-.06s-6.64.06-9.89.06h-5l-4.68,0-4.69,0h-6.65a819.7,819.7,0,0,1-111.25,7.89H99.89Z" fill="#00aa4f"/><path d="M99.89,1327.82c-239.93,0-479.87-118.54-626.21-309.37a826.56,826.56,0,0,1-66.26-97.58c-92.1-131-147.08-302.37-147.08-458.54v-36c0-88.9,17.46-185.79,49.18-273A840.05,840.05,0,0,1-624.82-123.8a850,850,0,0,1,450.11-449,840.16,840.16,0,0,1,329-66.56c16.54,0,34.61.58,52.31,1.69,17.7-1.11,35.77-1.69,52.31-1.69A847.14,847.14,0,0,1,807-437.87a867.89,867.89,0,0,1,70,67c177.33,147.08,287.45,380,287.45,608.16v36.61c12,56.29,18.61,116.79,18.61,170.5a807.16,807.16,0,0,1-122.58,428.13c-42.55,85.46-103.24,167.38-171,230.73C740.13,1243,544.78,1319.95,339.47,1319.95H327.35l-4.3,0-4.3,0h-5.36c-2.29,0-4.61,0-6.94,0s-4.64,0-6.94,0h-5.45c-4.33,0-8.66,0-12.88-.11s-8.65.11-13,.11H256.89c-3.26,0-6.58,0-9.89-.07s-6.64.07-9.89.07h-5l-4.68,0-4.69,0h-7.49a807.23,807.23,0,0,1-110.41,7.89H99.89Z" fill="#008453"/><path d="M99.89,1315.32c-236.16,0-472.32-116.69-616.35-304.55A813.26,813.26,0,0,1-582,914.13c-90.87-129-145.12-297.89-145.12-451.8v-36c0-88.11,17.41-184.09,49-270.46a827.3,827.3,0,0,1,64.8-274.83A832.09,832.09,0,0,1-434.51-383.13a832.29,832.29,0,0,1,264.67-178.2A827.61,827.61,0,0,1,154.31-626.9c16.55,0,34.62.59,52.31,1.72,17.69-1.12,35.76-1.72,52.31-1.72a834.57,834.57,0,0,1,540,198.55,853.39,853.39,0,0,1,69.53,66.55C1043.32-217.06,1152,12.41,1152,237.24v37.93c12,55.84,18.61,115.86,18.61,169.18a794.69,794.69,0,0,1-121,422c-41.92,84.36-101.77,165.21-168.58,227.71-147.08,137.58-339.39,213.35-541.52,213.35H327.35l-4.3,0-4.3,0h-5.36c-2.29,0-4.61,0-6.94,0s-4.64,0-6.94,0h-5.45c-4.3,0-8.63,0-12.87-.11s-8.67.11-13,.11H256.89c-3.26,0-6.58,0-9.89-.07s-6.64.07-9.89.07h-5l-4.68,0-4.69,0h-8.32a793.59,793.59,0,0,1-109.58,7.9H99.89Z" fill="#00aa4f"/><path d="M99.89,1302.82c-232.4,0-464.78-114.86-606.49-299.74a801.11,801.11,0,0,1-64.9-95.69C-661.15,780.31-714.66,614-714.66,462.33v-36c0-87.33,17.36-182.38,48.91-267.88A814.93,814.93,0,0,1-601.82-114,825,825,0,0,1-165-549.81,815.2,815.2,0,0,1,154.31-614.4c16.55,0,34.62.6,52.31,1.74,17.69-1.14,35.75-1.74,52.31-1.74A822.13,822.13,0,0,1,790.79-418.83a839.1,839.1,0,0,1,69,66.15c172.5,142.42,279.63,368.38,279.63,589.92v39.27c12,55.38,18.61,114.93,18.61,167.85a782.16,782.16,0,0,1-119.42,415.91c-41.28,83.26-100.29,163-166.19,224.69-144.75,135.41-334,210-533,210H327.35l-4.3,0-4.3,0h-5.36c-2.29,0-4.61,0-6.94,0s-4.64,0-6.94,0h-5.45c-4.3,0-8.63,0-12.87-.11s-8.67.11-13,.11H256.89c-3.23,0-6.55,0-9.89-.07s-6.67.07-9.89.07h-5l-4.68,0-4.69,0h-4.91l-3.83,0h-.47a780.75,780.75,0,0,1-108.69,7.9h-5Z" fill="#008453"/><path d="M99.89,1290.32c-228.64,0-457.24-113-596.63-294.92a787.74,787.74,0,0,1-64.21-94.74c-88.42-125.12-141.2-288.93-141.2-438.32v-36c0-86.54,17.31-180.67,48.78-265.29a802.5,802.5,0,0,1,63.06-270.2A812.48,812.48,0,0,1-160.09-538.29a802.75,802.75,0,0,1,314.41-63.6c16.55,0,34.62.61,52.31,1.77,17.69-1.16,35.75-1.77,52.31-1.77A809.6,809.6,0,0,1,782.7-409.3a826.62,826.62,0,0,1,68.55,65.74C1021.33-203.47,1127,19,1127,237.24v40.61c12,54.92,18.61,114,18.61,166.5a769.71,769.71,0,0,1-117.84,409.8c-40.65,82.16-98.81,160.86-163.81,221.67-142.43,133.24-328.68,206.61-524.44,206.61H327.35l-4.3,0-4.3,0h-5.36c-2.29,0-4.61,0-6.94,0s-4.64,0-6.94,0h-5.45c-4.32,0-8.65,0-12.88-.11s-8.66.11-13,.11H256.89c-3.25,0-6.57,0-9.89-.07s-6.64.07-9.89.07h-5l-4.68,0-4.69,0h-4.91l-3.82,0h-1.43a768.79,768.79,0,0,1-107.75,7.89H99.89Z" fill="#00aa4f"/><path d="M99.89,1277.82c-224.87,0-449.7-111.16-586.77-290.1a774.77,774.77,0,0,1-63.53-93.81c-87.2-123.16-139.25-284.45-139.25-431.58v-36c0-85.76,17.27-179,48.66-262.7a790.13,790.13,0,0,1,62.18-267.89A800,800,0,0,1-155.23-526.79,790.39,790.39,0,0,1,154.31-589.4c16.56,0,34.63.62,52.31,1.8,17.68-1.18,35.75-1.8,52.31-1.8A797.07,797.07,0,0,1,774.6-399.78a816,816,0,0,1,68.06,65.34c167.67,137.76,271.8,356.73,271.8,571.68v42c12,54.45,18.61,113,18.61,165.15A757.08,757.08,0,0,1,1016.8,848c-40,81.06-97.33,158.69-161.43,218.65-140.1,131.06-323.32,203.24-515.9,203.24H327.35l-4.3,0-4.3,0h-5.36c-2.29,0-4.61,0-6.94,0s-4.64,0-6.94,0h-5.45c-4.29,0-8.62,0-12.87-.11s-8.69.11-13,.11H256.89c-3.25,0-6.58,0-9.89-.07s-6.64.07-9.89.07h-5l-4.68,0-4.69,0h-4.91l-3.83,0h-2.34a755.58,755.58,0,0,1-106.82,7.89h-5Z" fill="#008453"/><path d="M99.89,1265.32C-121.23,1265.32-342.28,1156-477,980a762.39,762.39,0,0,1-62.85-92.86c-86-121.2-137.29-280-137.29-424.84v-36c0-85,17.23-177.27,48.54-260.11a777.66,777.66,0,0,1,61.3-265.59,787.57,787.57,0,0,1,417-416A777.85,777.85,0,0,1,154.31-576.9c16.56,0,34.63.63,52.31,1.82,17.68-1.19,35.74-1.82,52.31-1.82A784.54,784.54,0,0,1,766.5-390.26a805.34,805.34,0,0,1,67.57,64.94C999.34-189.89,1102,25.58,1102,237.24v43.33c12,54,18.61,112.09,18.61,163.78a744.62,744.62,0,0,1-114.69,397.58c-39.38,80-95.84,156.52-159,215.63-137.78,128.89-318,199.87-507.36,199.87H327.35l-4.3,0-4.3,0h-5.36c-2.29,0-4.61,0-6.94,0s-4.64,0-6.94,0h-5.45c-4.29,0-8.62,0-12.88-.12-4.32.08-8.68.12-13,.12H256.89c-3.23,0-6.55,0-9.89-.07s-6.66.07-9.89.07h-5l-4.68,0-4.69,0h-4.91l-3.83,0-3.27,0a742.57,742.57,0,0,1-105.89,7.88H99.89Z" fill="#00aa4f"/><path d="M99.89,1252.82c-217.36,0-434.63-107.47-567-280.48a748.59,748.59,0,0,1-62.16-91.92c-84.75-119.24-135.33-275.49-135.33-418.09v-36c0-84.19,17.19-175.56,48.42-257.52A765.11,765.11,0,0,1-555.81-94.42,775,775,0,0,1-145.48-503.76,765.26,765.26,0,0,1,154.31-564.4c16.56,0,34.63.64,52.31,1.85,17.68-1.21,35.74-1.85,52.31-1.85A772,772,0,0,1,758.4-380.73a790.17,790.17,0,0,1,67.08,64.54c162.85,133.1,264,345.08,264,553.43V282c12,53.51,18.61,111.13,18.61,162.4A732.09,732.09,0,0,1,994.94,835.82c-38.75,78.85-94.36,154.34-156.66,212.62-135.46,126.71-312.61,196.5-498.82,196.5H327.35l-4.3,0-4.3,0h-5.36c-2.29,0-4.61,0-6.94,0s-4.64,0-6.94,0h-5.45c-4.31,0-8.64,0-12.87-.12-4.3.08-8.67.12-13,.12H256.89c-3.25,0-6.58,0-9.89-.07s-6.64.07-9.89.07h-5l-4.68,0-4.69,0h-4.91l-3.83,0-3.83,0h-.36a729.62,729.62,0,0,1-105,7.88h-5Z" fill="#008453"/><path d="M99.89,1240.32c-213.6,0-427.09-105.62-557.19-275.66a734.59,734.59,0,0,1-61.48-91c-83.52-117.28-133.37-271-133.37-411.35v-36c0-83.41,17.15-173.86,48.31-254.93a752.56,752.56,0,0,1,59.53-261A762.51,762.51,0,0,1-140.62-492.26,752.94,752.94,0,0,1,154.31-551.9c16.56,0,34.63.65,52.31,1.88,17.68-1.23,35.74-1.88,52.31-1.88A759.55,759.55,0,0,1,750.31-371.21a776.71,776.71,0,0,1,66.58,64.14C977.32-176.3,1077,32.18,1077,237.24v46.1c12,53,18.61,110.16,18.61,161A719.55,719.55,0,0,1,984,829.71c-38.11,77.76-92.88,152.17-154.27,209.6-133.13,124.54-307.25,193.13-490.29,193.13H327.35l-4.3,0-4.3,0h-5.36c-2.29,0-4.61,0-6.94,0s-4.64,0-6.94,0h-5.45c-4.29,0-8.62,0-12.87-.12-4.32.08-8.69.12-13,.12H256.89c-3.25,0-6.58,0-9.89-.07s-6.64.07-9.89.07h-5l-4.68,0-4.69,0h-4.91l-3.83,0-3.83,0h-1.28a716.89,716.89,0,0,1-104.05,7.88h-5Z" fill="#00aa4f"/><path d="M99.89,1227.82c-209.84,0-419.55-103.78-547.34-270.86a721.6,721.6,0,0,1-60.79-90c-82.3-115.32-131.42-266.52-131.42-404.6v-36c0-82.63,17.11-172.15,48.21-252.33A740.28,740.28,0,0,1-532.81-84.63,750,750,0,0,1-135.75-480.74,740.62,740.62,0,0,1,154.31-539.4c16.57,0,34.64.66,52.31,1.91,17.67-1.25,35.74-1.91,52.31-1.91A747,747,0,0,1,742.21-361.68a763.61,763.61,0,0,1,66.09,63.75c158,128.43,256.15,333.41,256.15,535.18v47.5c12,52.55,18.61,109.17,18.61,159.61a707,707,0,0,1-110,379.25c-37.48,76.66-91.4,150-151.88,206.58-130.81,122.37-301.9,189.75-481.75,189.75H327.35l-4.3,0-4.3,0h-5.36c-2.29,0-4.61,0-6.94,0s-4.64,0-6.94,0h-5.45c-4.29,0-8.62,0-12.86-.12-4.32.08-8.69.12-13,.12H256.89c-3.24,0-6.57,0-9.89-.07s-6.65.07-9.89.07h-5l-4.68,0-4.69,0h-4.91l-3.83,0-3.83,0H208a704.15,704.15,0,0,1-103.12,7.88h-5Z" fill="#008453"/><path d="M99.89,1215.32c-206.07,0-412-101.94-537.49-266a707.54,707.54,0,0,1-60.09-89.08c-81.07-113.35-129.46-262-129.46-397.86v-36c0-81.85,17.08-170.44,48.11-249.72a727.68,727.68,0,0,1,57.73-256.4A737.54,737.54,0,0,1-130.88-469.23,728.12,728.12,0,0,1,154.31-526.9c16.57,0,34.64.67,52.31,2,17.67-1.27,35.73-2,52.31-2A734.52,734.52,0,0,1,734.12-352.16a750.5,750.5,0,0,1,65.6,63.35C955.32-162.72,1052,38.76,1052,237.24v48.92c12,52.06,18.61,108.18,18.61,158.2A694.39,694.39,0,0,1,962.17,817.49C925.33,893,872.26,965.32,812.68,1021c-128.48,120.19-296.54,186.38-473.21,186.38H327.35l-4.3,0-4.3,0h-5.36c-2.29,0-4.61,0-6.94,0s-4.64,0-6.94,0h-5.45c-4.26,0-8.59,0-12.86-.12-4.3.08-8.68.12-13,.12H256.89c-3.21,0-6.54,0-9.89-.07s-6.68.07-9.89.07h-5l-4.68,0-4.69,0h-4.91l-3.83,0-3.83,0H207a691.38,691.38,0,0,1-102.18,7.88h-5Z" fill="#00aa4f"/><path d="M99.89,1202.82c-202.31,0-404.47-100.09-527.63-261.24a697.28,697.28,0,0,1-59.41-88.13C-567,742.07-614.65,595.91-614.65,462.34v-36c0-81.07,17-168.74,48-247.12A715.18,715.18,0,0,1-509.8-74.83,725.07,725.07,0,0,1-126-457.71a715.75,715.75,0,0,1,280.32-56.68c16.57,0,34.64.68,52.31,2,17.67-1.3,35.73-2,52.31-2A721.94,721.94,0,0,1,726-342.62a737.73,737.73,0,0,1,65.11,63c153.18,123.75,248.32,321.73,248.32,516.92v50.35c12,51.57,18.61,107.19,18.61,156.77a681.87,681.87,0,0,1-106.82,367c-36.2,74.45-88.43,145.65-147.11,200.55C678,1130,513,1195,339.47,1195H327.35l-4.3,0-4.3,0h-5.36c-2.29,0-4.61,0-6.94,0s-4.64,0-6.94,0h-5.45c-4.24,0-8.57,0-12.86-.13-4.32.08-8.69.13-13,.13H256.89c-3.22,0-6.55,0-9.89-.08s-6.67.08-9.89.08h-5l-4.68,0-4.69,0h-4.91l-3.83,0-3.83,0h-4.1a678.6,678.6,0,0,1-101.23,7.88H99.89Z" fill="#008453"/><path d="M99.89,1190.32c-198.54,0-396.93-98.26-517.77-256.42a683.31,683.31,0,0,1-58.72-87.2c-78.62-109.42-125.55-253-125.55-384.37v-36c0-80.29,17-167,47.93-244.51A702.81,702.81,0,0,1-498.3-69.94,712.48,712.48,0,0,1-121.14-446.2a703.21,703.21,0,0,1,275.45-55.69c16.58,0,34.65.7,52.31,2,17.66-1.32,35.73-2,52.31-2a709.47,709.47,0,0,1,459,168.79,726.5,726.5,0,0,1,64.62,62.57C933.32-149.12,1027,45.35,1027,237.25V289c12,51.08,18.61,106.18,18.61,155.33A669.27,669.27,0,0,1,940.31,805.28c-35.56,73.35-86.94,143.48-144.72,197.53-123.84,115.84-285.83,179.64-456.13,179.64H327.35l-4.3,0-4.3,0h-5.36c-2.29,0-4.61,0-6.94,0s-4.64,0-6.94,0h-5.45c-4.24,0-8.57,0-12.86-.13-4.32.08-8.69.13-13,.13H256.89c-3.2,0-6.53,0-9.89-.08s-6.69.08-9.89.08h-5l-4.68,0-4.69,0h-4.91l-3.83,0-3.83,0h-5.06a665.71,665.71,0,0,1-100.27,7.88h-5Z" fill="#00aa4f"/><path d="M99.89,1177.82c-194.79,0-389.4-96.42-507.92-251.61a670.8,670.8,0,0,1-58-86.26c-77.4-107.45-123.59-248.56-123.59-377.62v-36c0-79.51,17-165.31,47.85-241.9a690.54,690.54,0,0,1,55-249.53A700,700,0,0,1-116.27-434.7a690.85,690.85,0,0,1,270.58-54.7c16.58,0,34.65.71,52.31,2,17.66-1.34,35.72-2,52.31-2a697,697,0,0,1,450.9,165.81A712.63,712.63,0,0,1,774-261.41c148.36,119.06,240.49,310,240.49,498.64v53.24c12,50.58,18.61,105.16,18.61,153.87a656.77,656.77,0,0,1-103.68,354.8C894.45,871.39,843.93,940.44,787,993.65c-121.51,113.67-280.47,176.27-447.59,176.27H327.35l-4.3,0-4.3,0h-5.36c-2.29,0-4.61,0-6.94,0s-4.64,0-6.94,0h-5.45c-4.24,0-8.56,0-12.86-.13-4.33.09-8.7.13-13,.13H256.89c-3.17,0-6.49,0-9.89-.08s-6.73.08-9.89.08h-5l-4.68,0-4.69,0h-4.91l-3.83,0-3.83,0h-6a653,653,0,0,1-99.3,7.88H99.89Z" fill="#008453"/><path d="M99.89,1165.32c-191,0-381.87-94.57-498.06-246.8a658.3,658.3,0,0,1-57.35-85.32C-531.7,727.71-577.16,589.13-577.16,462.33v-36c0-78.73,17-163.61,47.78-239.28A678.15,678.15,0,0,1-475.31-60.15a687.52,687.52,0,0,1,363.91-363,678.35,678.35,0,0,1,265.71-53.72c16.59,0,34.65.72,52.31,2.09,17.66-1.37,35.72-2.09,52.31-2.09A684.46,684.46,0,0,1,701.74-314.07a700.44,700.44,0,0,1,63.64,61.8C911.32-135.55,1002,51.92,1002,237.24v54.71c12,50.07,18.61,104.13,18.61,152.4A644.19,644.19,0,0,1,918.46,793c-34.29,71.15-84,139.13-139.94,191.5-119.19,111.49-275.11,172.9-439,172.9H327.35l-4.3,0-4.3,0h-5.36c-2.29,0-4.61,0-6.94,0s-4.64,0-6.94,0h-5.45c-4.23,0-8.56,0-12.86-.13-4.33.09-8.7.13-13,.13H256.89c-3.18,0-6.5,0-9.89-.08s-6.72.08-9.89.08h-5l-4.68,0-4.69,0h-4.91l-3.83,0-3.83,0h-7a640.56,640.56,0,0,1-98.36,7.89H99.89Z" fill="#00aa4f"/><path d="M99.89,1152.82c-187.28,0-374.33-92.72-488.2-242A644,644,0,0,1-445,826.45c-74.95-103.52-119.68-239.58-119.68-364.12v-36c0-78,16.93-161.9,47.71-236.66a665.47,665.47,0,0,1,53.14-245A675,675,0,0,1-106.52-411.66a666,666,0,0,1,260.85-52.73c16.59,0,34.66.73,52.31,2.12,17.65-1.39,35.72-2.12,52.31-2.12A671.93,671.93,0,0,1,693.66-304.53a687,687,0,0,1,63.15,61.41C900.34-128.74,989.47,55.22,989.47,237.24v56.2c12,49.56,18.61,103.09,18.61,150.92A631.72,631.72,0,0,1,907.54,786.94c-33.65,70-82.47,137-137.55,188.48-116.86,109.32-269.76,169.53-430.51,169.53H327.35l-4.3,0-4.3,0h-5.36c-2.29,0-4.62,0-6.94,0s-4.64,0-6.94,0h-5.45c-4.23,0-8.55-.05-12.86-.14-4.33.09-8.71.14-13,.14H256.89c-3.19,0-6.52,0-9.89-.08s-6.7.08-9.89.08h-5l-4.68,0-4.69,0h-4.91l-3.83,0-3.83,0h-7.92a627.06,627.06,0,0,1-97.41,7.9H99.89Z" fill="#008453"/><path d="M99.89,1140.32c-183.52,0-366.79-90.88-478.34-237.17a631.74,631.74,0,0,1-56-83.45c-73.72-101.54-117.73-235.08-117.73-357.37v-36c0-77.18,16.91-160.19,47.65-234a653.1,653.1,0,0,1,52.2-242.7,662.48,662.48,0,0,1,350.64-349.8,653.63,653.63,0,0,1,256-51.74c16.59,0,34.66.75,52.31,2.16,17.65-1.42,35.71-2.16,52.31-2.16A659.4,659.4,0,0,1,685.54-295a673.9,673.9,0,0,1,62.66,61C889.32-121.94,977,58.52,977,237.25V295c12,49,18.61,102,18.61,149.42a619.23,619.23,0,0,1-99,336.47c-33,69-81,134.79-135.15,185.46-114.54,107.15-264.4,166.15-422,166.15H327.35l-4.3,0-4.3,0h-5.36c-2.29,0-4.62,0-6.94,0s-4.64,0-6.94,0h-5.45c-4.22,0-8.55-.05-12.86-.14-4.34.09-8.71.14-13,.14H256.89c-3.17,0-6.5,0-9.89-.08s-6.72.08-9.89.08h-5l-4.68,0-4.69,0h-4.91l-3.83,0-3.83,0h-5l-3.52,0h-.34a614.34,614.34,0,0,1-96.43,7.9H99.89Z" fill="#00aa4f"/><path d="M99.89,1127.82c-179.75,0-359.25-89-468.48-232.36a618.33,618.33,0,0,1-55.29-82.52c-72.5-99.57-115.77-230.58-115.77-350.62v-36c0-76.4,16.89-158.48,47.6-231.4A640.65,640.65,0,0,1-440.8-45.46a650,650,0,0,1,344-343.19,641.1,641.1,0,0,1,251.11-50.76c16.6,0,34.66.76,52.31,2.21,17.65-1.44,35.71-2.21,52.31-2.21A646.92,646.92,0,0,1,677.46-285.5a662.39,662.39,0,0,1,62.18,60.66C878.35-115.15,964.47,61.8,964.47,237.23v59.21c12,48.53,18.61,101,18.61,147.9a606.64,606.64,0,0,1-97.41,330.35C853.3,842.53,806.18,907.3,752.91,957.13c-112.22,105-259,162.78-413.43,162.78H327.35l-4.3,0-4.3,0h-5.36c-2.29,0-4.62,0-6.94,0s-4.64,0-6.94,0h-5.45c-4.22,0-8.54-.05-12.85-.14-4.34.09-8.72.14-13,.14H256.89c-3.17,0-6.5,0-9.89-.08s-6.72.08-9.89.08h-5l-4.68,0-4.69,0h-4.91l-3.83,0-3.83,0h-5l-3.51,0h-1.4a602.21,602.21,0,0,1-95.37,7.89H99.89Z" fill="#008453"/><path d="M99.89,1115.32c-176,0-351.7-87.18-458.63-227.54a606.19,606.19,0,0,1-54.6-81.58c-71.28-97.61-113.82-226.09-113.82-343.86v-36c0-75.63,16.88-156.77,47.56-228.76A628.32,628.32,0,0,1-429.31-40.54,637.48,637.48,0,0,1-91.93-377.11a628.77,628.77,0,0,1,246.24-49.77c16.6,0,34.67.78,52.31,2.25,17.64-1.47,35.7-2.25,52.31-2.25A634.36,634.36,0,0,1,669.35-275.94,649.66,649.66,0,0,1,731-215.66C867.33-108.31,952,65.13,952,237.27V298c12,48,18.61,99.91,18.61,146.37a594.17,594.17,0,0,1-95.84,324.24C843,835.37,796.72,899.06,744.36,948c-109.89,102.8-253.68,159.41-404.89,159.41H327.35l-4.3,0-4.3,0h-5.36c-2.29,0-4.62,0-6.94,0s-4.64,0-6.94,0h-5.45c-4.21,0-8.53-.05-12.86-.15-4.35.1-8.72.15-13,.15H256.89c-3.2,0-6.52,0-9.89-.09s-6.69.09-9.89.09h-5l-4.68,0-4.69,0h-4.91l-3.83,0-3.83,0h-5l-3.51,0-2.45,0a589,589,0,0,1-94.32,7.89H99.89Z" fill="#00aa4f"/><path d="M99.89,1102.82c-172.22,0-344.17-85.34-448.77-222.73a592.38,592.38,0,0,1-53.91-80.65c-70.06-95.63-111.86-221.59-111.86-337.11v-36c0-74.86,16.87-155,47.53-226.12A616.06,616.06,0,0,1-417.79-35.66,625,625,0,0,1-87-365.62,616.23,616.23,0,0,1,154.32-414.4c16.61,0,34.67.79,52.31,2.29,17.64-1.5,35.7-2.29,52.31-2.29a621.93,621.93,0,0,1,402.33,148,637.25,637.25,0,0,1,61.2,59.91c133.88,105,217,274.93,217,443.77v62.29c12,47.46,18.61,98.83,18.61,144.82A581.63,581.63,0,0,1,863.8,762.48c-31.08,65.64-76.5,128.27-128,176.41-107.57,100.62-248.33,156-396.35,156H327.35l-4.3,0-4.3,0h-5.36c-2.29,0-4.62,0-6.94,0s-4.64,0-6.94,0h-5.45c-4.2,0-8.53-.05-12.85-.15-4.35.1-8.73.15-13,.15H256.9c-3.18,0-6.51,0-9.89-.09s-6.71.09-9.89.09h-5l-4.68,0-4.69,0h-4.91l-3.83,0-3.83,0h-5l-3.51,0-3.49,0a576.08,576.08,0,0,1-93.28,7.88h-5Z" fill="#008453"/><path d="M99.89,1090.32c-168.47,0-336.64-83.5-438.91-217.92a580.44,580.44,0,0,1-53.22-79.71C-461.08,699-502.15,575.6-502.15,462.34v-36c0-74.08,16.86-153.34,47.51-223.47A603.5,603.5,0,0,1-406.29-30.75,612.51,612.51,0,0,1-82.18-354.09a603.87,603.87,0,0,1,236.5-47.79c16.61,0,34.67.81,52.31,2.34,17.64-1.53,35.7-2.34,52.31-2.34a609.33,609.33,0,0,1,394.23,145,623.9,623.9,0,0,1,60.71,59.54C845.34-94.7,927,71.72,927,237.27v63.86c12,46.92,18.61,97.73,18.61,143.26a569.09,569.09,0,0,1-92.71,312C822.42,821,777.85,882.5,727.29,929.8c-105.24,98.45-243,152.67-387.81,152.67H327.35l-4.3,0-4.3,0h-5.36c-2.29,0-4.62,0-6.94,0s-4.64,0-6.94,0h-5.45c-4.2,0-8.52-.05-12.85-.15-4.36.1-8.73.15-13,.15H256.89c-3.18,0-6.5,0-9.89-.09s-6.71.09-9.89.09h-5l-4.68,0-4.69,0h-4.91l-3.83,0-3.83,0h-5l-3.51,0-3.51,0h-1a563.35,563.35,0,0,1-92.24,7.88H99.89Z" fill="#00aa4f"/><path d="M99.89,1077.82c-164.71,0-329.09-81.65-429-213.1a567.36,567.36,0,0,1-52.54-78.79c-67.61-91.69-108-212.59-108-323.59v-36c0-73.32,16.85-151.62,47.49-220.82.82-328.22,268.09-595,596.48-595,16.61,0,34.68.82,52.31,2.39,17.63-1.56,35.69-2.39,52.31-2.39a596.86,596.86,0,0,1,386.14,142,611.88,611.88,0,0,1,60.22,59.17C834.34-87.92,914.46,75,914.46,237.24v65.44c12,46.38,18.61,96.63,18.61,141.68a556.59,556.59,0,0,1-91.15,305.91c-29.79,63.44-73.51,123.92-123.17,170.38C615.83,1016.92,481.14,1070,339.48,1070H327.35l-4.3,0-4.3,0h-5.36c-2.29,0-4.62,0-6.94-.05s-4.64.05-6.94.05h-5.45c-4.22,0-8.54-.05-12.86-.16-4.33.1-8.71.16-13,.16H256.89c-3.19,0-6.52,0-9.89-.09s-6.7.09-9.89.09h-5l-4.68,0-4.69,0h-4.91l-3.83,0-3.83,0h-5l-3.51,0-3.51,0H196a550.44,550.44,0,0,1-91.18,7.88h-5Z" fill="#008453"/><path d="M99.89,1065.32C-61,1065.32-221.66,985.52-319.3,857a552.44,552.44,0,0,1-51.84-77.86c-66.39-89.71-106-208.08-106-316.84v-36c0-72.55,16.85-149.9,47.49-218.16v-1.14c0-322,262-584,584-584,16.62,0,34.68.84,52.31,2.44,17.63-1.59,35.69-2.44,52.31-2.44a584.38,584.38,0,0,1,378,139,598,598,0,0,1,59.73,58.81C823.35-81.11,902,78.29,902,237.24v67c12,45.83,18.61,95.5,18.61,140.08A544.08,544.08,0,0,1,831,744.15c-29.15,62.34-72,121.75-120.77,167.36-100.59,94.1-232.26,145.92-370.73,145.92H327.35l-4.3,0-4.3,0h-5.36c-2.29,0-4.62,0-6.94-.05s-4.64.05-6.94.05h-5.45c-4.23,0-8.55-.05-12.85-.16-4.32.11-8.7.16-13,.16H256.89c-3.17,0-6.5,0-9.89-.09s-6.72.09-9.89.09h-5l-4.68,0-4.69,0h-4.91l-3.83,0-3.83,0h-5l-3.51,0-3.51,0H195a537.7,537.7,0,0,1-90.12,7.89H99.89Z" fill="#00aa4f"/><path d="M99.89,1052.82c-157.18,0-314-78-409.33-203.48a540.92,540.92,0,0,1-51.15-76.93c-65.17-87.74-104.06-203.58-104.06-310.08v-36c0-71.78,16.86-148.19,47.51-215.5,0-1.29,0-2.56,0-3.8C-417.16-108-160.8-364.4,154.32-364.4c16.62,0,34.68.86,52.31,2.49,17.63-1.63,35.69-2.49,52.31-2.49a571.85,571.85,0,0,1,370,136.06,584.43,584.43,0,0,1,59.24,58.45C812.34-74.3,889.46,81.58,889.46,237.24V305.9c12,45.27,18.61,94.37,18.61,138.46A531.6,531.6,0,0,1,820,738c-28.5,61.24-70.51,119.58-118.37,164.35-98.27,91.93-226.9,142.55-362.19,142.55H327.35l-4.3,0-4.3,0h-5.36c-2.29,0-4.62,0-6.94-.05s-4.64.05-6.94.05h-5.45c-4.23,0-8.55-.05-12.85-.16-4.32.11-8.7.16-13,.16H256.89c-3.17,0-6.49,0-9.89-.1s-6.72.1-9.89.1h-5l-4.68,0-4.69,0h-4.91l-3.83,0-3.83,0h-5l-3.51,0-3.51,0h-4.21a525,525,0,0,1-89,7.89h-5Z" fill="#008453"/><path d="M99.89,1040.32c-153.42,0-306.48-76.12-399.48-198.67a527.37,527.37,0,0,1-50.46-76c-64-85.76-102.1-199.07-102.1-303.31v-36c0-71,16.87-146.48,47.54-212.83q0-3.33,0-6.47c0-308.22,250.76-559,559-559,16.63,0,34.69.88,52.31,2.54,17.62-1.66,35.68-2.54,52.31-2.54A559.32,559.32,0,0,1,620.79-218.82a572.17,572.17,0,0,1,58.75,58.09C801.34-67.48,877,84.88,877,237.24v70.3c12,44.7,18.61,93.22,18.61,136.82a519,519,0,0,1-86.48,287.57c-27.85,60.14-69,117.4-116,161.33C597.19,983,471.59,1032.44,339.48,1032.44H327.35l-4.3,0-4.3,0h-5.36c-2.29,0-4.62,0-6.94-.05s-4.64.05-6.94.05h-5.45c-4.21,0-8.53-.06-12.85-.17-4.35.11-8.72.17-13,.17H256.89c-3.19,0-6.51,0-9.89-.1s-6.7.1-9.89.1h-5l-4.68,0-4.69,0h-4.91l-3.83,0-3.83,0h-5l-3.51,0-3.51,0h-5.3a512.36,512.36,0,0,1-88,7.89h-5Z" fill="#00aa4f"/><path d="M99.89,1027.82C-49.77,1027.82-199,953.55-289.72,834a515.34,515.34,0,0,1-49.77-75.09c-62.72-83.77-100.15-194.56-100.15-296.55v-36c0-70.26,16.89-144.78,47.59-210.16-.06-3.17-.09-6.23-.09-9.13,0-301.33,245.15-546.48,546.48-546.48,16.63,0,34.69.9,52.31,2.6,17.61-1.7,35.67-2.6,52.31-2.6A546.84,546.84,0,0,1,612.72-209.28,559.24,559.24,0,0,1,671-151.54c119.4,90.89,193.5,239.73,193.5,388.79v72c12,44.13,18.61,92,18.61,135.16a506.5,506.5,0,0,1-84.92,281.45c-27.2,59-67.5,115.23-113.56,158.32C591,971.72,468.42,1020,339.49,1020H327.35l-4.3,0-4.3,0h-5.36c-2.29,0-4.62,0-6.94,0s-4.64,0-6.94,0h-5.45c-4.21,0-8.53-.06-12.85-.17-4.34.11-8.71.17-13,.17H256.89c-3.2,0-6.53,0-9.89-.1s-6.69.1-9.89.1h-5l-4.68,0-4.69,0h-4.91l-3.83,0-3.83,0h-5l-3.51,0-3.51,0h-6.37a499,499,0,0,1-86.89,7.89H99.89Z" fill="#008453"/><path d="M99.89,1015.32c-145.9,0-291.4-72.44-379.76-189A501.84,501.84,0,0,1-329,752.11c-61.51-81.79-98.21-190-98.21-289.78v-36c0-69.51,16.91-143.06,47.65-207.49-.1-4.09-.16-8.12-.16-11.81,0-294.44,239.54-534,534-534,16.64,0,34.7.92,52.31,2.66,17.61-1.74,35.67-2.66,52.31-2.66A534.31,534.31,0,0,1,604.59-199.77a548.58,548.58,0,0,1,57.78,57.39C779.34-53.85,852,91.48,852,237.24v73.64c12,43.54,18.61,90.87,18.61,133.48A494,494,0,0,1,787.2,719.7C760.65,777.64,721.21,832.76,676,875c-91.3,85.4-210.83,132.44-336.58,132.44H327.35l-4.3,0-4.3,0h-5.36c-2.29,0-4.62,0-6.94,0s-4.64,0-6.94,0h-5.45c-4.23,0-8.55-.06-12.85-.18-4.32.12-8.69.18-13,.18H256.89c-3.22,0-6.54,0-9.89-.1s-6.67.1-9.89.1h-5l-4.68,0-4.69,0h-4.91l-3.83,0-3.83,0h-5l-3.51,0-3.51,0h-3.79l-3.43,0h-.25a486.45,486.45,0,0,1-85.8,7.9H99.89Z" fill="#00aa4f"/><path d="M99.89,1002.82C-42.26,1002.82-184,932.24-270,818.6a488.79,488.79,0,0,1-48.39-73.25c-60.29-79.8-96.26-185.52-96.26-283v-36c0-68.76,16.94-141.36,47.73-204.8-.16-5-.24-10-.24-14.5,0-287.54,233.93-521.48,521.48-521.48,16.65,0,34.7.94,52.31,2.72,17.61-1.78,35.66-2.72,52.31-2.72A521.78,521.78,0,0,1,596.5-190.24a534.4,534.4,0,0,1,57.29,57.05C768.35-47,839.46,94.77,839.46,237.24v75.34c12,43,18.61,89.68,18.61,131.77a481.47,481.47,0,0,1-81.82,269.23c-25.89,56.83-64.48,110.88-108.74,152.29-89,83.23-205.47,129.07-328,129.07H327.35l-4.3,0-4.3,0h-5.36c-2.29,0-4.62,0-6.94,0s-4.64,0-6.94,0h-5.45c-4.22,0-8.54-.06-12.85-.18-4.33.12-8.7.18-13,.18H256.89c-3.23,0-6.56,0-9.89-.11s-6.66.11-9.89.11h-5l-4.68,0-4.69,0h-4.91l-3.83,0-3.83,0h-5l-3.51,0-3.51,0h-3.79l-3.42,0h-1.44a474.06,474.06,0,0,1-84.62,7.89H99.89Z" fill="#008453"/><path d="M99.89,990.32c-138.38,0-276.32-68.74-360-179.41a475.6,475.6,0,0,1-47.69-72.33c-59.07-77.81-94.31-181-94.31-276.25v-36c0-68,17-139.65,47.83-202.11-.22-5.92-.34-11.81-.34-17.19,0-280.65,228.33-509,509-509a515,515,0,0,1,52.31,2.79,517.77,517.77,0,0,1,52.31-2.79A509.32,509.32,0,0,1,588.41-180.72,523.28,523.28,0,0,1,645.21-124C757.35-40.21,827,98.07,827,237.24v77.07c12,42.36,18.61,88.47,18.61,130A469,469,0,0,1,765.3,707.47c-25.24,55.73-63,108.71-106.33,149.27-86.65,81-200.11,125.69-319.5,125.69H327.35l-4.3,0-4.3,0h-5.36c-2.29,0-4.62,0-6.94,0s-4.64,0-6.94,0h-5.45c-4.22,0-8.54-.06-12.85-.19-4.32.12-8.7.19-13,.19H256.89c-3.24,0-6.57,0-9.89-.11s-6.65.11-9.89.11h-5l-4.68,0-4.69,0h-4.91l-3.83,0-3.83,0h-5l-3.51,0-3.51,0h-3.79l-3.42,0-2.62,0a460.89,460.89,0,0,1-83.43,7.88H99.89Z" fill="#00aa4f"/><path d="M99.89,977.82c-134.62,0-268.79-66.9-350.18-174.6a463,463,0,0,1-47-71.42c-57.85-75.82-92.36-176.48-92.36-269.47v-36c0-67.27,17-137.94,48-199.41-.3-6.85-.46-13.66-.46-19.89,0-273.76,222.72-496.48,496.48-496.48a506.59,506.59,0,0,1,52.31,2.85,503.81,503.81,0,0,1,52.31-2.85A496.78,496.78,0,0,1,580.32-171.19a509,509,0,0,1,56.31,56.38C746.35-33.39,814.46,101.36,814.46,237.24V316c12,41.75,18.61,87.24,18.61,128.3a456.41,456.41,0,0,1-78.73,257C729.76,756,692.89,807.89,650.43,847.61c-84.32,78.88-194.76,122.32-311,122.32H327.35l-4.3,0-4.3,0h-5.36c-2.29,0-4.62,0-6.94-.06s-4.64.06-6.94.06h-5.45c-4.24,0-8.56-.06-12.85-.19-4.31.13-8.68.19-13,.19H256.89c-3.26,0-6.59,0-9.89-.11s-6.63.11-9.89.11h-5l-4.68,0-4.69,0h-4.91l-3.83,0-3.83,0h-5l-3.51,0-3.51,0h-3.79l-3.42,0-3.42,0h-.37a448.06,448.06,0,0,1-82.26,7.88H99.89Z" fill="#008453"/><path d="M99.89,965.32c-130.86,0-261.25-65-340.32-169.78A449.83,449.83,0,0,1-286.73,725c-56.64-73.83-90.42-172-90.42-262.7v-36c0-66.53,17.06-136.23,48.09-196.69-.39-7.77-.6-15.52-.6-22.61,0-266.87,217.11-484,484-484A490.71,490.71,0,0,1,206.62-274a490.55,490.55,0,0,1,52.31-2.93A484.23,484.23,0,0,1,572.21-161.67,496.78,496.78,0,0,1,628-105.62C735.35-26.57,802,104.66,802,237.24v80.59c12,41.14,18.61,86,18.61,126.53a443.85,443.85,0,0,1-77.18,250.88c-23.93,53.52-59.94,104.36-101.51,143.24-82,76.71-189.4,119-302.42,119H327.35l-4.3,0-4.3,0h-5.36c-2.29,0-4.62,0-6.94-.06s-4.64.06-6.94.06h-5.45c-4.25,0-8.57-.07-12.85-.2-4.32.13-8.7.2-13,.2H256.89c-3.28,0-6.6,0-9.89-.12-3.29.08-6.61.12-9.89.12h-5l-4.68,0-4.69,0h-4.91l-3.83,0-3.83,0h-5l-3.51,0-3.51,0h-3.79l-3.42,0-3.42,0h-1.55a435.31,435.31,0,0,1-81.08,7.88H99.89Z" fill="#00aa4f"/><path d="M99.89,952.82c-127.1,0-253.71-63.21-330.46-165a438.06,438.06,0,0,1-45.61-69.6c-55.42-71.84-88.48-167.42-88.48-255.92v-36c0-65.79,17.12-134.52,48.25-194-.5-8.7-.76-17.39-.76-25.34,0-260,211.5-471.48,471.48-471.48a480.57,480.57,0,0,1,52.31,3,478.06,478.06,0,0,1,52.31-3A471.75,471.75,0,0,1,564.11-152.15a484.25,484.25,0,0,1,55.33,55.74c104.9,76.67,170,204.37,170,333.65v82.39c12,40.52,18.61,84.73,18.61,124.73a431.4,431.4,0,0,1-75.64,244.77C709.16,741.56,674,791.32,633.34,829.37,553.66,903.9,449.3,945,339.46,945H327.35l-4.3,0-4.3,0h-5.36c-2.29,0-4.62,0-6.94-.06s-4.64.06-6.94.06h-5.45c-4.24,0-8.56-.07-12.85-.2-4.33.13-8.71.2-13,.2H256.89c-3.28,0-6.61,0-9.89-.12-3.28.08-6.61.12-9.89.12h-5l-4.68,0-4.69,0h-4.91l-3.83,0-3.83,0h-5l-3.51,0-3.51,0h-3.79l-3.42,0-3.42,0h-2.75a422.56,422.56,0,0,1-79.88,7.89H99.89Z" fill="#008453"/><path d="M99.89,940.32c-123.34,0-246.17-61.36-320.6-160.15a423.6,423.6,0,0,1-44.91-68.7c-54.2-69.84-86.54-162.88-86.54-249.14v-36c0-65.06,17.18-132.8,48.45-191.22-.63-9.62-.95-19.26-.95-28.08,0-253.08,205.9-459,459-459a468.49,468.49,0,0,1,52.31,3.08,466.11,466.11,0,0,1,52.31-3.08A459.24,459.24,0,0,1,556-142.62,471.94,471.94,0,0,1,610.87-87.2C713.36-12.92,777,111.25,777,237.24v84.21c12,39.88,18.61,83.45,18.61,122.9A418.87,418.87,0,0,1,721.47,683c-22.59,51.33-56.88,100-96.65,137.22-77.37,72.36-178.7,112.21-285.35,112.21H327.35l-4.3,0-4.3,0h-5.36c-2.29,0-4.63,0-6.94-.06s-4.64.06-6.94.06h-5.45c-4.25,0-8.57-.07-12.85-.21-4.32.14-8.7.21-13,.21H256.89c-3.27,0-6.6,0-9.89-.12-3.29.08-6.62.12-9.89.12h-5l-4.68,0-4.69,0h-4.91l-3.83,0-3.83,0h-5l-3.51,0-3.51,0h-3.79l-3.42,0-3.42,0h-4a409.8,409.8,0,0,1-78.67,7.89H99.89Z" fill="#00aa4f"/><path d="M99.89,927.82c-119.58,0-238.63-59.52-310.74-155.34a411.3,411.3,0,0,1-44.21-67.79c-53-67.84-84.6-158.34-84.6-242.36v-36c0-64.32,17.26-131.09,48.67-188.46-.77-10.56-1.17-21.14-1.17-30.84,0-246.19,200.29-446.48,446.48-446.48a452.69,452.69,0,0,1,52.31,3.17,454.79,454.79,0,0,1,52.31-3.17,446.71,446.71,0,0,1,289,106.3A457.92,457.92,0,0,1,602.28-78C702.35-6.09,764.46,114.53,764.46,237.24v86.07c12,39.24,18.61,82.14,18.61,121A406.4,406.4,0,0,1,710.5,676.88c-21.93,50.23-55.35,97.85-94.23,134.21-75,70.18-173.33,108.84-276.8,108.84H327.35l-4.3,0-4.3,0h-5.36c-2.29,0-4.63,0-6.94-.06s-4.64.06-6.94.06h-5.45c-4.25,0-8.56-.07-12.84-.21-4.33.14-8.7.21-13,.21H256.89c-3.28,0-6.61,0-9.89-.13-3.28.08-6.6.13-9.89.13h-5l-4.68,0-4.69,0h-4.91l-3.83,0-3.83,0h-5l-3.51,0-3.51,0h-3.79l-3.42,0-3.42,0h-5.16a396.67,396.67,0,0,1-77.47,7.9H99.89Z" fill="#008453"/><path d="M99.89,915.32c-115.82,0-231.09-57.67-300.88-150.53a398.41,398.41,0,0,1-43.5-66.89c-51.78-65.84-82.66-153.8-82.66-235.57v-36c0-63.59,17.35-129.36,48.92-185.68-.93-11.49-1.42-23-1.42-33.62,0-239.3,194.68-434,434-434a442.14,442.14,0,0,1,52.31,3.26A442.14,442.14,0,0,1,259-226.9a434.21,434.21,0,0,1,280.9,103.33,445.79,445.79,0,0,1,53.86,54.82C691.38.75,752,117.83,752,237.25v88c12,38.58,18.61,80.82,18.61,119.16a393.92,393.92,0,0,1-71,226.42c-21.26,49.12-53.82,95.68-91.79,131.2-72.7,68-168,105.46-268.26,105.46H327.35l-4.3,0-4.3,0h-5.36c-2.26,0-4.6,0-6.94-.07s-4.67.07-6.94.07h-5.45c-4.23,0-8.55-.07-12.84-.22-4.34.15-8.72.22-13,.22H256.89c-3.28,0-6.61,0-9.89-.13-3.28.09-6.61.13-9.89.13h-5l-4.68,0-4.69,0h-4.91l-3.83,0-3.83,0h-5l-3.51,0-3.51,0h-3.79l-3.42,0-3.42,0h-2.25l-4.11,0a384.44,384.44,0,0,1-76.27,7.91h-5Z" fill="#00aa4f"/><path d="M99.89,902.82c-112.07,0-223.56-55.83-291-145.71a385.22,385.22,0,0,1-42.8-66c-50.56-63.83-80.72-149.25-80.72-228.78v-36c0-62.87,17.45-127.64,49.2-182.88-1.12-12.42-1.71-24.93-1.71-36.42,0-232.4,189.07-421.48,421.48-421.48A429.92,429.92,0,0,1,206.63-211a429.92,429.92,0,0,1,52.31-3.35A421.7,421.7,0,0,1,531.74-114a433.4,433.4,0,0,1,53.37,54.53c95.26,67.1,154.36,180.64,154.36,296.76v89.87c12,37.92,18.61,79.47,18.61,117.25a381.34,381.34,0,0,1-69.52,220.3c-20.58,48-52.28,93.5-89.36,128.19C528.82,858.7,436.59,894.95,339.48,894.95H327.35l-4.3,0-4.3,0h-5.36c-2.25,0-4.58,0-6.94-.07s-4.68.07-6.93.07h-5.45c-4.23,0-8.55-.08-12.84-.23-4.34.15-8.72.23-13,.23H256.9c-3.29,0-6.62,0-9.89-.14-3.27.09-6.6.14-9.89.14h-5l-4.68,0-4.69,0h-4.91l-3.83,0-3.83,0h-5l-3.51,0-3.51,0h-3.79l-3.42,0-3.42,0h-2.25c-1.72,0-3.5,0-5.31,0a371,371,0,0,1-75.06,7.92h-5Z" fill="#008453"/><path d="M99.89,890.32c-108.31,0-216-54-281.16-140.9a372,372,0,0,1-42.09-65.1c-49.35-61.82-78.79-144.7-78.79-222v-36c0-62.14,17.56-125.91,49.52-180.06-1.33-13.36-2-26.84-2-39.24,0-225.51,183.47-409,409-409a416.52,416.52,0,0,1,52.31,3.45,416.52,416.52,0,0,1,52.31-3.45,409.17,409.17,0,0,1,264.71,97.38,419.46,419.46,0,0,1,52.87,54.25C669.36,14.44,727,124.43,727,237.26v91.82c12,37.24,18.61,78.1,18.61,115.3a368.89,368.89,0,0,1-68,214.18c-19.91,46.92-50.74,91.33-86.92,125.18-68,63.66-157.26,98.72-251.18,98.72H327.35l-4.3,0-4.3,0h-5.36c-2.25,0-4.59,0-6.94-.07s-4.68.07-6.93.07h-5.45c-4.24,0-8.55-.08-12.84-.24-4.33.16-8.71.24-13,.24H256.9c-3.27,0-6.6,0-9.89-.14-3.29.09-6.61.14-9.89.14h-5l-4.68,0-4.69,0h-4.91l-3.83,0-3.83,0h-5l-3.51,0-3.51,0h-3.79l-3.42,0-3.42,0h-2.25c-2.1,0-4.29,0-6.52-.06a358.42,358.42,0,0,1-73.85,8h-5Z" fill="#00aa4f"/><path d="M99.89,877.82c-104.55,0-208.48-52.14-271.3-136.09a359.06,359.06,0,0,1-41.38-64.21c-48.15-59.8-76.86-140.13-76.86-215.18v-36c0-61.43,17.69-124.18,49.89-177.22a392.16,392.16,0,0,1-2.4-42.08c0-218.62,177.86-396.48,396.48-396.48a403.73,403.73,0,0,1,52.31,3.56,403.73,403.73,0,0,1,52.31-3.56A396.69,396.69,0,0,1,515.55-95a407.44,407.44,0,0,1,52.38,54c90.43,62.29,146.54,168.73,146.54,278.26V331c12,36.55,18.61,76.7,18.61,113.31A356.39,356.39,0,0,1,666.6,652.42c-19.23,45.83-49.19,89.17-84.47,122.17-65.73,61.49-151.9,95.35-242.64,95.35H327.35l-4.3,0-4.3,0h-5.36c-2.27,0-4.61,0-6.94-.07s-4.66.07-6.93.07h-5.45c-4.25,0-8.56-.08-12.83-.25-4.32.16-8.7.25-13,.25H256.9c-3.28,0-6.6,0-9.89-.15-3.29.1-6.61.15-9.89.15h-5l-4.68,0-4.69,0h-4.91l-3.83,0-3.83,0h-5l-3.51,0-3.51,0h-3.79l-3.42,0-3.42,0h-2.25c-2.13,0-4.34,0-6.6-.07l-1.35,0a345.41,345.41,0,0,1-72.43,7.93h-5Z" fill="#008453"/><path d="M99.89,865.32C-.9,865.32-101.06,815-161.56,734a346,346,0,0,1-40.67-63.33c-46.94-57.78-74.93-135.57-74.93-208.38v-36c0-60.72,17.84-122.45,50.3-174.35a381.33,381.33,0,0,1-2.81-44.95c0-211.73,172.25-384,384-384a391.93,391.93,0,0,1,52.31,3.67,391.93,391.93,0,0,1,52.31-3.67A384.2,384.2,0,0,1,507.45-85.48a394.63,394.63,0,0,1,51.88,53.72C647.36,28.12,702,131,702,237.24v95.82c12,35.84,18.61,75.28,18.61,111.29a343.91,343.91,0,0,1-65,201.94c-18.54,44.72-47.63,87-82,119.17-63.4,59.31-146.54,92-234.1,92H327.35l-4.3,0-4.3,0h-5.36c-2.3,0-4.63,0-6.94-.07s-4.64.07-6.94.07h-5.45c-4.24,0-8.56-.09-12.83-.26-4.33.17-8.71.26-13,.26H256.89c-3.27,0-6.6,0-9.89-.15-3.29.1-6.62.15-9.89.15h-5l-4.68,0-4.69,0h-4.91l-3.83,0-3.83,0h-5l-3.51,0-3.51,0h-3.79l-3.42,0-3.42,0h-2.25c-2.13,0-4.35,0-6.6-.07l-2.79,0a332.42,332.42,0,0,1-71,7.91h-5Z" fill="#00aa4f"/><path d="M99.89,852.82c-97,0-193.41-48.45-251.58-126.47a332.92,332.92,0,0,1-39.95-62.45c-45.74-55.76-73-131-73-201.57v-36c0-60,18-120.71,50.77-171.45a369.65,369.65,0,0,1-3.28-47.85c0-204.83,166.64-371.48,371.48-371.48a379.27,379.27,0,0,1,52.31,3.79,379.16,379.16,0,0,1,52.31-3.79A371.62,371.62,0,0,1,499.36-76a382.54,382.54,0,0,1,51.39,53.48C636.37,35,689.47,134.3,689.47,237.24v97.88c12,35.12,18.61,73.83,18.61,109.24a331.38,331.38,0,0,1-63.47,195.81C626.76,683.79,598.54,725,565,756.33,504,813.47,423.85,844.94,339.48,844.94H327.35l-4.3,0-4.3,0h-5.36c-2.28,0-4.61,0-6.94-.08s-4.66.08-6.94.08h-5.45c-4.23,0-8.54-.09-12.83-.27-4.34.18-8.72.27-13,.27H256.89c-3.27,0-6.59,0-9.89-.16-3.3.1-6.62.16-9.89.16h-5c-1.54,0-3.11,0-4.68,0s-3.14,0-4.69,0h-4.91l-3.83,0c-1.28,0-2.55,0-3.83,0h-5l-3.51,0-3.51,0h-3.79l-3.42,0-3.42,0h-2.25c-2.13,0-4.35,0-6.6-.07l-4.24.06a319.68,319.68,0,0,1-69.54,7.89H99.89Z" fill="#008453"/><path d="M99.89,840.32C6.61,840.32-86,793.71-141.84,718.66a320.29,320.29,0,0,1-39.23-61.58c-44.54-53.73-71.09-126.41-71.09-194.75v-36a306,306,0,0,1,51.3-168.51,359.3,359.3,0,0,1-3.81-50.79c0-197.94,161-359,359-359A365.88,365.88,0,0,1,206.62-148a365.88,365.88,0,0,1,52.31-3.92A359.19,359.19,0,0,1,491.26-66.43a368.78,368.78,0,0,1,50.89,53.25C625.36,41.84,677,137.59,677,237.24v100c12,34.39,18.61,72.35,18.61,107.14A318.92,318.92,0,0,1,633.6,634c-17.16,42.52-44.5,82.66-77.1,113.16-58.76,55-135.83,85.23-217,85.23H327.35l-4.3,0-4.3,0h-5.36c-2.29,0-4.62,0-6.94-.08s-4.64.08-6.94.08h-5.45c-4.23,0-8.54-.09-12.82-.28-4.34.18-8.72.28-13,.28H256.89c-3.25,0-6.58,0-9.89-.16-3.31.11-6.64.16-9.89.16h-5c-1.54,0-3.11,0-4.68,0s-3.14,0-4.69,0h-4.91c-1.28,0-2.55,0-3.83,0s-2.55,0-3.83,0h-5l-3.51,0-3.51,0h-3.79l-3.42,0-3.42,0h-2.25c-2.13,0-4.35,0-6.59-.08-1.91,0-3.82.07-5.69.07a307.18,307.18,0,0,1-68.09,7.89h-5Z" fill="#00aa4f"/><path d="M99.89,827.82C10.36,827.82-78.45,783-132,711a306.89,306.89,0,0,1-38.5-60.71c-43.34-51.7-69.18-121.82-69.18-187.93v-36a292.72,292.72,0,0,1,51.9-165.54,346.64,346.64,0,0,1-4.4-53.76c0-191.05,155.43-346.48,346.48-346.48a353.44,353.44,0,0,1,52.31,4.06,353.33,353.33,0,0,1,52.31-4.06,346.61,346.61,0,0,1,224.23,82.5,355.7,355.7,0,0,1,50.38,53c80.8,52.58,130.91,144.76,130.91,241.11V339.38c12,33.64,18.61,70.83,18.61,105a306.46,306.46,0,0,1-60.48,183.56C606.13,669.36,579.67,708.43,548,738.1,491.53,790.89,417.49,820,339.48,820H327.35l-4.3,0-4.3,0h-5.36c-2.3,0-4.63,0-6.94-.08s-4.64.08-6.94.08h-5.45c-4.22,0-8.53-.1-12.82-.29-4.35.19-8.73.29-13,.29H256.89c-3.26,0-6.58-.06-9.89-.17-3.31.11-6.63.17-9.89.17h-5c-1.54,0-3.11,0-4.68,0s-3.14,0-4.69,0h-4.91c-1.28,0-2.55,0-3.83,0s-2.55,0-3.83,0h-5l-3.51,0-3.51,0h-3.79l-3.42,0-3.42,0h-2.25c-2.14,0-4.35,0-6.59-.08s-4.5.08-6.7.08h-.44a294.2,294.2,0,0,1-66.64,7.88h-5Z" fill="#008453"/><path d="M99.89,815.32c-85.77,0-170.81-42.92-222-112a294.18,294.18,0,0,1-37.77-59.85c-42.15-49.65-67.27-117.22-67.27-181.1v-36a279.53,279.53,0,0,1,52.57-162.52,335.49,335.49,0,0,1-5.08-56.78c0-184.16,149.82-334,334-334a340.59,340.59,0,0,1,52.31,4.21,340.59,340.59,0,0,1,52.31-4.21A334.1,334.1,0,0,1,475.06-47.37,342.92,342.92,0,0,1,524.94,5.47c78.4,50.14,127,138.73,127,231.78v104.3c12,32.87,18.61,69.29,18.61,102.81a294,294,0,0,1-59,177.43c-15.75,40.32-41.33,78.32-72.15,107.16-54.11,50.62-125.12,78.49-199.94,78.49H327.35l-4.3,0-4.3,0h-5.36c-2.29,0-4.62,0-6.94-.09s-4.65.09-6.94.09h-5.45c-4.23,0-8.54-.1-12.81-.3-4.36.2-8.75.3-13,.3H256.89c-3.27,0-6.59-.06-9.89-.18-3.29.12-6.62.18-9.89.18h-5c-1.54,0-3.11,0-4.68,0s-3.14,0-4.69,0h-4.91c-1.28,0-2.55,0-3.83,0s-2.55,0-3.83,0h-5l-3.51,0-3.51,0h-3.79l-3.42,0-3.43,0h-2.25c-2.14,0-4.35,0-6.59-.08s-4.5.08-6.7.08H170a281.41,281.41,0,0,1-65.17,7.88h-5Z" fill="#00aa4f"/><path d="M99.89,802.82c-82,0-163.27-41.07-212.14-107.22a280.69,280.69,0,0,1-37-59c-41-47.6-65.37-112.6-65.37-174.26v-36a266.34,266.34,0,0,1,53.34-159.46,323.9,323.9,0,0,1-5.84-59.84c0-177.26,144.21-321.48,321.48-321.48A328.59,328.59,0,0,1,206.64-110,328.59,328.59,0,0,1,259-114.39,321.57,321.57,0,0,1,467-37.84a330.34,330.34,0,0,1,49.37,52.66c76,47.68,123.11,132.68,123.11,222.43V343.79c12,32.09,18.61,67.71,18.61,100.57a281.66,281.66,0,0,1-57.16,170.81l-.37.5c-15,39.22-39.72,76.15-69.66,104.16-51.78,48.44-119.76,75.12-191.4,75.12H327.35c-1.42,0-2.86,0-4.3,0s-2.88,0-4.3,0h-5.36c-2.31,0-4.64,0-6.94-.09s-4.63.09-6.94.09h-5.45c-4.22,0-8.53-.11-12.81-.31-4.37.21-8.75.31-13,.31H256.89c-3.26,0-6.58-.06-9.89-.19-3.31.13-6.63.19-9.89.19h-5c-1.54,0-3.11,0-4.68,0s-3.14,0-4.69,0h-4.91c-1.28,0-2.55,0-3.83,0s-2.55,0-3.83,0h-5l-3.51,0c-1.17,0-2.35,0-3.51,0h-3.79l-3.42,0-3.43,0h-2.25c-2.12,0-4.34,0-6.59-.08s-4.51.08-6.7.08h-3.41a268.67,268.67,0,0,1-63.67,7.88h-5Z" fill="#008453"/><path d="M99.89,790.32c-78.26,0-155.73-39.23-202.28-102.41a268,268,0,0,1-36.29-58.17c-39.78-45.55-63.47-108-63.47-167.41v-36A253.21,253.21,0,0,1-147.94,270a312.2,312.2,0,0,1-6.71-63c0-170.37,138.61-309,309-309a315.21,315.21,0,0,1,52.31,4.55A315.21,315.21,0,0,1,259-101.9,309.07,309.07,0,0,1,458.89-28.33a317.34,317.34,0,0,1,48.86,52.51C581.35,69.39,627,150.78,627,237.24V346.07c12,31.28,18.61,66.09,18.61,98.28a269.3,269.3,0,0,1-54.64,163.29l-1.44,1.89c-14.31,38.13-38.11,74-67.15,101.16-49.46,46.27-114.4,71.75-182.86,71.75H327.35c-1.42,0-2.86,0-4.3,0s-2.88,0-4.3,0h-5.36c-2.3,0-4.63,0-6.94-.1s-4.64.1-6.94.1h-5.45c-4.23,0-8.53-.11-12.8-.33-4.36.22-8.75.33-13.06.33H256.89c-3.27,0-6.59-.07-9.89-.2-3.3.13-6.62.2-9.89.2h-5c-1.54,0-3.11,0-4.68,0s-3.14,0-4.69,0h-4.91c-1.28,0-2.55,0-3.83,0s-2.55,0-3.83,0h-5l-3.51,0c-1.17,0-2.35,0-3.51,0h-3.79l-3.42,0c-1.15,0-2.29,0-3.43,0h-2.25c-2.13,0-4.35,0-6.59-.09s-4.53.09-6.7.09h-5a255.85,255.85,0,0,1-62.13,7.88H99.89Z" fill="#00aa4f"/><path d="M99.89,777.82c-74.5,0-148.2-37.39-192.42-97.6a255.11,255.11,0,0,1-35.54-57.34c-38.6-43.48-61.59-103.33-61.59-160.55v-36a240.31,240.31,0,0,1,55.2-153.15,300.37,300.37,0,0,1-7.71-66.15c0-163.48,133-296.48,296.48-296.48a302.87,302.87,0,0,1,52.31,4.73,302.88,302.88,0,0,1,52.31-4.73A296.54,296.54,0,0,1,450.78-18.8a304.74,304.74,0,0,1,48.34,52.38A238.64,238.64,0,0,1,614.45,237.25V345.72c0,.88,0,1.77,0,2.67,12,30.47,18.62,64.45,18.62,96a256.75,256.75,0,0,1-52.13,155.76c-.81,1.08-1.65,2.17-2.51,3.27-13.58,37-36.48,71.83-64.64,98.17C466.63,745.66,404.73,770,339.45,770h-12.1c-1.42,0-2.86,0-4.3,0s-2.88,0-4.3,0h-5.36c-2.3,0-4.63,0-6.94-.1s-4.64.1-6.94.1h-5.45c-4.22,0-8.52-.12-12.8-.35-4.37.23-8.76.35-13.06.35H256.89c-3.27,0-6.6-.07-9.89-.21-3.29.14-6.62.21-9.89.21h-5c-1.54,0-3.11,0-4.68,0s-3.14,0-4.69,0h-4.91c-1.28,0-2.56,0-3.83,0s-2.55,0-3.83,0h-5q-1.76,0-3.51,0c-1.17,0-2.35,0-3.51,0h-3.79l-3.42,0c-1.15,0-2.29,0-3.43,0h-2.25c-2.13,0-4.34,0-6.59-.09s-4.54.09-6.7.09h-6.54a243,243,0,0,1-60.54,7.88H99.89Z" fill="#008453"/><path d="M99.89,765.32c-70.75,0-140.67-35.54-182.56-92.79A241.54,241.54,0,0,1-117.44,616c-37.42-41.4-59.71-98.68-59.71-153.68v-36a227.77,227.77,0,0,1,54.63-147.91q.84-1,1.71-2a288.27,288.27,0,0,1-8.85-69.41c0-156.59,127.39-284,284-284A290.64,290.64,0,0,1,206.62-72a290.64,290.64,0,0,1,52.31-4.94A284,284,0,0,1,442.68-9.28,291.53,291.53,0,0,1,490.5,43l1.85,1.09a226.11,226.11,0,0,1,109.6,193.15V345.71c0,1.64,0,3.31-.06,5,12,29.65,18.66,62.8,18.66,93.67A244.39,244.39,0,0,1,570.94,592.6c-1.17,1.55-2.37,3.11-3.6,4.65-12.84,35.94-34.83,69.67-62.11,95.19-44.81,41.92-103.69,65-165.78,65h-12.1c-1.42,0-2.86,0-4.3,0s-2.89,0-4.3,0h-5.36c-2.3,0-4.63,0-6.94-.11s-4.64.11-6.94.11h-5.45c-4.22,0-8.52-.12-12.79-.37-4.37.24-8.76.37-13.07.37H256.89c-3.27,0-6.6-.07-9.89-.22-3.29.14-6.62.22-9.89.22h-5c-1.54,0-3.11,0-4.68,0s-3.15,0-4.69,0h-4.91c-1.28,0-2.56,0-3.83,0s-2.55,0-3.83,0h-5q-1.76,0-3.51,0c-1.17,0-2.35,0-3.51,0h-3.79q-1.71,0-3.42,0l-3.43,0h-2.25c-2.14,0-4.35,0-6.58-.1s-4.53.1-6.71.1h-8.17a230.13,230.13,0,0,1-58.92,7.88H99.89Z" fill="#00aa4f"/><path d="M99.89,752.82c-67,0-133.13-33.7-172.69-88a228.61,228.61,0,0,1-34-55.72c-36.26-39.3-57.85-94-57.85-146.79v-36A215.19,215.19,0,0,1-113,286.61c1.94-2.26,4-4.52,6-6.74a276.31,276.31,0,0,1-10.16-72.77c0-149.72,121.77-271.5,271.46-271.5a276.83,276.83,0,0,1,52.31,5.17,277.65,277.65,0,0,1,52.31-5.17A271.59,271.59,0,0,1,434.59.24a278.66,278.66,0,0,1,47.29,52.21c1.38.78,2.74,1.58,4.07,2.37a213.53,213.53,0,0,1,103.5,182.42V345.71q0,3.62-.13,7.28C601.41,381.81,608,414.13,608,444.35A232,232,0,0,1,561,585.06c-1.51,2-3.08,4-4.7,6-12.08,34.85-33.17,67.52-59.56,92.21-42.49,39.74-98.33,61.63-157.25,61.63h-12.1c-1.42,0-2.86,0-4.3,0s-2.89,0-4.3,0h-5.36c-2.29,0-4.62,0-6.94-.11-2.31.08-4.65.11-6.94.11h-5.45c-4.22,0-8.52-.13-12.78-.39-4.37.26-8.76.39-13.08.39H256.89c-3.27,0-6.59-.08-9.89-.23-3.3.15-6.62.23-9.89.23h-5c-1.54,0-3.11,0-4.68,0s-3.15,0-4.69,0h-4.91c-1.28,0-2.56,0-3.83,0s-2.55,0-3.83,0h-5q-1.76,0-3.51,0c-1.17,0-2.35,0-3.51,0h-3.79c-1.13,0-2.28,0-3.42,0l-3.43,0h-2.25c-2.14,0-4.35,0-6.58-.1s-4.53.1-6.71.1h-9.84a217.33,217.33,0,0,1-57.24,7.88H99.89Z" fill="#008453"/><path d="M99.89,740.32c-63.25,0-125.6-31.85-162.83-83.16a215.45,215.45,0,0,1-33.21-54.94c-35.11-37.19-56-89.3-56-139.89v-36a202.73,202.73,0,0,1,48.63-131.66c3.31-3.87,6.84-7.68,10.55-11.39a264.35,264.35,0,0,1-11.69-76.25c0-142.8,116.18-259,259-259a265,265,0,0,1,52.31,5.41,265,265,0,0,1,52.31-5.41A259,259,0,0,1,426.5,9.77a265.86,265.86,0,0,1,46.75,52.18c2.13,1.17,4.24,2.38,6.3,3.61A201,201,0,0,1,577,237.25V345.72c0,3.17-.08,6.38-.23,9.59,12.16,28,18.84,59.48,18.84,89.05A219.6,219.6,0,0,1,551,577.55c-1.86,2.47-3.82,5-5.83,7.39-11.31,33.76-31.48,65.37-57,89.24-40.16,37.57-93,58.26-148.71,58.26H327.35c-1.42,0-2.86,0-4.3,0s-2.89,0-4.31,0h-5.36c-2.3,0-4.63,0-6.94-.12-2.31.08-4.64.12-6.94.12h-5.45c-4.22,0-8.52-.14-12.77-.41-4.37.27-8.77.41-13.09.41H256.88c-3.27,0-6.59-.08-9.89-.24-3.3.16-6.62.24-9.89.24h-5c-1.54,0-3.11,0-4.68,0s-3.15,0-4.69,0h-4.91c-1.28,0-2.56,0-3.83,0s-2.55,0-3.83,0h-5q-1.76,0-3.51,0c-1.17,0-2.35,0-3.51,0H194.3c-1.13,0-2.28,0-3.42,0l-3.43,0H185.2c-2.15,0-4.36,0-6.58-.11s-4.52.11-6.71.11H160.35a204.51,204.51,0,0,1-55.52,7.88H99.89Z" fill="#00aa4f"/><path d="M99.89,727.82c-59.5,0-118.06-30-153-78.35a202.6,202.6,0,0,1-32.4-54.17c-34-35.07-54.18-84.57-54.18-133v-36A190.22,190.22,0,0,1-94,302.85,186.14,186.14,0,0,1-78.68,287a255.16,255.16,0,0,1-13.47-79.86C-92.17,71.17,18.4-39.4,154.31-39.4a251.38,251.38,0,0,1,52.31,5.69,252.06,252.06,0,0,1,52.31-5.69A246.53,246.53,0,0,1,418.4,19.29a252.47,252.47,0,0,1,46.2,52.19c2.9,1.53,5.76,3.14,8.53,4.8a188.42,188.42,0,0,1,91.33,161V345.71c0,3.94-.13,7.93-.38,11.91a214.85,214.85,0,0,1,19,86.74A207.22,207.22,0,0,1,541,570c-2.22,2.94-4.56,5.88-7,8.75a206.24,206.24,0,0,1-54.4,86.27c-37.84,35.4-87.62,54.89-140.17,54.89H327.35c-1.42,0-2.86,0-4.3,0s-2.89,0-4.31,0h-5.36c-2.29,0-4.62,0-6.94-.13-2.32.09-4.65.13-6.94.13h-5.45c-4.22,0-8.51-.15-12.76-.44-4.37.29-8.77.44-13.1.44H256.88c-3.27,0-6.6-.09-9.89-.26-3.29.17-6.62.26-9.89.26h-5c-1.54,0-3.11,0-4.68-.06s-3.15.06-4.69.06h-4.91c-1.28,0-2.56,0-3.83,0s-2.55,0-3.83,0h-5q-1.76,0-3.51,0c-1.17,0-2.35,0-3.51,0H194.3c-1.13,0-2.28,0-3.42,0l-3.43,0H185.2c-2.14,0-4.35,0-6.57-.12-2.27.08-4.53.12-6.72.12h-13.3a191.61,191.61,0,0,1-53.78,7.9H99.89Z" fill="#008453"/><path d="M99.89,715.32c-55.75,0-110.53-28.17-143.1-73.54a189.61,189.61,0,0,1-31.57-53.43c-32.84-32.92-52.37-79.81-52.37-126v-36A177.7,177.7,0,0,1-84.52,311a180.51,180.51,0,0,1,20.45-20.26,241.89,241.89,0,0,1-15.6-83.64c0-129,105-234,234-234a239.17,239.17,0,0,1,52.31,6,239.17,239.17,0,0,1,52.31-6A234,234,0,0,1,410.3,28.82a239.57,239.57,0,0,1,45.63,52.26c3.67,1.86,7.29,3.85,10.78,5.94A175.84,175.84,0,0,1,552,237.25V345.72c0,4.71-.19,9.48-.58,14.22a201.6,201.6,0,0,1,19.19,84.42A194.75,194.75,0,0,1,531,562.5c-2.58,3.42-5.31,6.81-8.16,10.1a193.15,193.15,0,0,1-51.78,83.32c-35.51,33.22-82.26,51.52-131.63,51.52h-12.1c-1.42,0-2.86,0-4.3,0s-2.89,0-4.31,0h-5.36c-2.28,0-4.61,0-6.94-.14-2.32.09-4.66.14-6.94.14h-5.45c-4.22,0-8.5-.16-12.75-.47-4.36.31-8.77.47-13.11.47H256.88c-3.27,0-6.59-.09-9.89-.28-3.29.19-6.62.28-9.89.28h-5c-1.54,0-3.11,0-4.68-.06s-3.15.06-4.69.06h-4.91c-1.28,0-2.56,0-3.83,0s-2.55,0-3.83,0h-5c-1.17,0-2.34,0-3.51,0s-2.35,0-3.51,0H194.3c-1.13,0-2.28,0-3.42,0l-3.43,0H185.2c-2.15,0-4.35,0-6.57-.12-2.27.08-4.53.12-6.72.12H161c-1.27,0-2.56,0-3.83,0h-.3a179,179,0,0,1-52,7.92H99.89Z" fill="#00aa4f"/><path d="M99.89,702.82c-52,0-103-26.32-133.23-68.73a176.76,176.76,0,0,1-30.72-52.72c-31.73-30.75-50.6-75-50.6-119v-36A165.2,165.2,0,0,1-75,319.1a169.29,169.29,0,0,1,25-23.7v-3A229,229,0,0,1-67.17,207.1C-67.17,85,32.18-14.38,154.31-14.38a225.78,225.78,0,0,1,52.31,6.33,226.32,226.32,0,0,1,52.31-6.33A221.51,221.51,0,0,1,402.21,38.36a226.53,226.53,0,0,1,45,52.39c4.46,2.14,8.84,4.5,13,7a163.29,163.29,0,0,1,79.15,139.5V345.73a163.72,163.72,0,0,1-.84,16.54,188.34,188.34,0,0,1,19.45,82.11A182.37,182.37,0,0,1,521,555c-2.94,3.9-6.09,7.74-9.37,11.44a180.11,180.11,0,0,1-49.12,80.38c-33.19,31-76.9,48.15-123.09,48.15H327.35c-1.41,0-2.86,0-4.3-.06s-2.89.06-4.3.06h-5.36c-2.29,0-4.62,0-6.94-.15-2.32.1-4.65.15-6.94.15h-5.45c-4.21,0-8.49-.17-12.73-.5-4.37.33-8.78.5-13.13.5H256.89c-3.27,0-6.59-.1-9.89-.3-3.3.2-6.62.3-9.89.3h-5c-1.53,0-3.1,0-4.68-.07s-3.15.07-4.69.07h-4.91c-1.28,0-2.56,0-3.83,0s-2.55,0-3.83,0h-5c-1.17,0-2.34,0-3.51,0s-2.35,0-3.51,0h-3.79c-1.13,0-2.28,0-3.42,0s-2.29,0-3.43,0h-2.25c-2.15,0-4.35,0-6.56-.13-2.27.09-4.53.13-6.73.13H161c-1.27,0-2.56,0-3.83,0l-2.31,0a165.8,165.8,0,0,1-50,7.89H99.89Z" fill="#008453"/><path d="M99.89,690.32c-48.25,0-95.46-24.48-123.36-63.92a163.52,163.52,0,0,1-29.83-52c-30.65-28.55-48.86-70.16-48.86-112v-36a152.74,152.74,0,0,1,36.63-99.17,155.73,155.73,0,0,1,28-25.52V289.83a215.8,215.8,0,0,1-17.17-82.75c0-115.24,93.75-209,209-209a212.94,212.94,0,0,1,52.31,6.71A213.35,213.35,0,0,1,258.93-1.9,208.94,208.94,0,0,1,394.11,47.87a213.37,213.37,0,0,1,44.44,52.6A150.08,150.08,0,0,1,527,237.25V345.72a152.69,152.69,0,0,1-1.18,18.86,175,175,0,0,1,19.79,79.79,170,170,0,0,1-34.5,103.09c-3.31,4.39-6.87,8.67-10.63,12.76A167.07,167.07,0,0,1,454,637.67c-30.87,28.87-71.55,44.78-114.55,44.78H327.35c-1.41,0-2.86,0-4.3-.06s-2.89.06-4.3.06h-5.36c-2.29,0-4.62,0-6.94-.16-2.32.11-4.65.16-6.94.16h-5.45c-4.21,0-8.48-.18-12.72-.54-4.38.36-8.79.54-13.14.54H256.89c-3.27,0-6.59-.11-9.89-.33-3.3.22-6.62.33-9.89.33h-5c-1.52,0-3.09,0-4.68-.07s-3.16.07-4.69.07h-4.91c-1.28,0-2.56,0-3.83,0s-2.55,0-3.83,0h-5c-1.17,0-2.34,0-3.51,0s-2.35,0-3.51,0h-3.79c-1.13,0-2.28,0-3.42,0s-2.29,0-3.43,0h-2.25c-2.16,0-4.36,0-6.56-.14-2.26.09-4.52.14-6.73.14H161c-1.27,0-2.56,0-3.83,0s-2.56,0-3.83,0h-.49a153.12,153.12,0,0,1-48,7.88H99.89Z" fill="#00aa4f"/><path d="M99.89,677.82c-44.5,0-87.92-22.63-113.49-59.11a150.52,150.52,0,0,1-28.89-51.43,141.94,141.94,0,0,1-47.16-105v-36a140.17,140.17,0,0,1,33.63-91,142.56,142.56,0,0,1,31-27V287.25a202.47,202.47,0,0,1-17.17-80.16C-42.16,98.75,46,10.61,154.32,10.61a200.19,200.19,0,0,1,52.31,7.14,200.13,200.13,0,0,1,52.31-7.14A196.46,196.46,0,0,1,386,57.4a200.15,200.15,0,0,1,43.8,52.91,137.54,137.54,0,0,1,84.63,126.94V345.72a138.9,138.9,0,0,1-1.63,21.18,161.66,161.66,0,0,1,20.24,77.47,157.6,157.6,0,0,1-32,95.57A160.69,160.69,0,0,1,489.14,554a154,154,0,0,1-43.66,74.55c-28.54,26.7-66.19,41.4-106,41.4H327.35c-1.41,0-2.85,0-4.3-.07s-2.89.07-4.3.07h-5.36c-2.29,0-4.63-.06-6.94-.17-2.31.12-4.64.17-6.94.17h-5.45c-4.2,0-8.47-.2-12.7-.59-4.38.39-8.8.59-13.16.59H256.89c-3.27,0-6.59-.12-9.89-.35-3.3.24-6.62.35-9.89.35h-5c-1.53,0-3.1,0-4.68-.08s-3.15.08-4.69.08h-4.91c-1.28,0-2.56,0-3.83,0s-2.55,0-3.83,0h-5c-1.17,0-2.34,0-3.51,0s-2.35,0-3.51,0h-3.79c-1.13,0-2.28,0-3.42,0s-2.29,0-3.43,0h-2.25c-2.16,0-4.36,0-6.55-.16-2.26.1-4.52.16-6.74.16H161c-1.27,0-2.56,0-3.83,0s-2.56,0-3.83,0h-2.57a140.26,140.26,0,0,1-45.9,7.88H99.89Z" fill="#008453"/><path d="M99.89,665.32c-40.76,0-80.39-20.79-103.61-54.3a137.41,137.41,0,0,1-27.9-50.87,128.67,128.67,0,0,1-45.53-97.83v-36a127.71,127.71,0,0,1,30.63-82.92,129.26,129.26,0,0,1,34-28.1v-30.8a189.29,189.29,0,0,1-17.17-77.48c0-101.45,82.53-184,184-184a187.06,187.06,0,0,1,52.31,7.64,187.32,187.32,0,0,1,52.31-7.64,183.93,183.93,0,0,1,119,43.82,187,187,0,0,1,43.13,53.35,125.09,125.09,0,0,1,80.91,117V345.7a124.82,124.82,0,0,1-2.22,23.5,148.34,148.34,0,0,1,20.82,75.15,145.22,145.22,0,0,1-29.46,88.05,146.74,146.74,0,0,1-13.32,15.33A140.89,140.89,0,0,1,437,619.4c-26.22,24.53-60.83,38-97.47,38H327.35c-1.42,0-2.86,0-4.3-.07s-2.88.07-4.3.07h-5.36c-2.3,0-4.63-.06-6.94-.19-2.31.13-4.64.19-6.94.19h-5.45c-4.2,0-8.46-.22-12.68-.64-4.38.43-8.81.64-13.18.64H256.89c-3.27,0-6.59-.13-9.89-.39-3.3.26-6.62.39-9.89.39h-5c-1.52,0-3.1,0-4.68-.09s-3.16.09-4.69.09h-4.91c-1.28,0-2.57,0-3.83-.06s-2.55.06-3.83.06h-5c-1.17,0-2.35,0-3.52,0s-2.35,0-3.51,0H194.3c-1.13,0-2.28,0-3.42,0s-2.29,0-3.43,0H185.2c-2.16,0-4.35-.06-6.54-.17-2.26.11-4.53.17-6.75.17H161c-1.27,0-2.56,0-3.83-.06s-2.56.06-3.83.06h-4.75a127.43,127.43,0,0,1-43.72,7.88H99.89Z" fill="#00aa4f"/><path d="M99.89,652.82A114.86,114.86,0,0,1,6.16,603.33,124.78,124.78,0,0,1-20.67,553a115.39,115.39,0,0,1-44-90.62v-36A115.2,115.2,0,0,1-37,351.58,116,116,0,0,1,0,322.87v-41.1a176.11,176.11,0,0,1-17.17-74.69c0-94.55,76.92-171.48,171.48-171.48a174.22,174.22,0,0,1,52.31,8.21,174.22,174.22,0,0,1,52.31-8.21A171.39,171.39,0,0,1,369.82,76.44a173.75,173.75,0,0,1,42.42,54,112.59,112.59,0,0,1,77.21,106.83V345.71a112.22,112.22,0,0,1-3,25.82,135,135,0,0,1,21.6,72.83,132.73,132.73,0,0,1-27,80.52,134.28,134.28,0,0,1-14.8,16.56,127.88,127.88,0,0,1-37.92,68.83,129.54,129.54,0,0,1-88.93,34.66H327.35c-1.41,0-2.86,0-4.3-.08s-2.89.08-4.3.08h-5.36c-2.3,0-4.63-.07-6.94-.21-2.31.14-4.64.21-6.94.21h-5.45a114.42,114.42,0,0,1-12.66-.71,124.21,124.21,0,0,1-13.2.71H256.89c-3.28,0-6.6-.15-9.89-.43-3.29.29-6.61.43-9.89.43h-5c-1.53,0-3.1,0-4.68-.1s-3.15.1-4.69.1h-4.91c-1.27,0-2.56,0-3.83-.07s-2.56.07-3.83.07h-5c-1.17,0-2.35,0-3.52,0s-2.35,0-3.51,0H194.3c-1.13,0-2.28,0-3.42,0s-2.29,0-3.43,0H185.2c-2.15,0-4.35-.06-6.53-.19-2.26.13-4.53.19-6.76.19H161c-1.26,0-2.55,0-3.83-.07s-2.57.07-3.83.07h-4.91l-2.09,0a114.44,114.44,0,0,1-41.48,7.9H99.89Z" fill="#008453"/><path d="M99.89,640.32a102,102,0,0,1-83.84-44.67,111.89,111.89,0,0,1-25.65-50,102.18,102.18,0,0,1-42.56-83.31v-36A102.86,102.86,0,0,1,12.5,331V278.89A162.91,162.91,0,0,1-4.67,207.1c0-87.66,71.32-159,159-159A161.14,161.14,0,0,1,206.62,57a161.14,161.14,0,0,1,52.31-8.88A159.43,159.43,0,0,1,403.37,140.8,100,100,0,0,1,477,237.25V345.72a99.23,99.23,0,0,1-4,28.13,121.66,121.66,0,0,1,22.64,70.51,121.3,121.3,0,0,1-40.82,90.75,114.87,114.87,0,0,1-34.89,66,117.06,117.06,0,0,1-80.39,31.29H327.35c-1.42,0-2.87,0-4.3-.09s-2.88.09-4.3.09h-5.36c-2.3,0-4.63-.08-6.94-.24-2.31.16-4.64.24-6.94.24h-5.45a100.76,100.76,0,0,1-12.62-.8,110.7,110.7,0,0,1-13.24.8H256.89c-3.28,0-6.6-.16-9.89-.49-3.29.32-6.61.49-9.89.49h-5c-1.53,0-3.1,0-4.68-.11s-3.15.11-4.69.11h-4.91c-1.27,0-2.55,0-3.83-.07s-2.56.07-3.83.07h-5c-1.16,0-2.34,0-3.52-.06s-2.35.06-3.51.06H194.3c-1.13,0-2.28,0-3.42-.06s-2.29.06-3.43.06H185.2c-2.16,0-4.35-.07-6.52-.21-2.26.14-4.53.21-6.77.21H161c-1.26,0-2.54,0-3.83-.07s-2.57.07-3.83.07h-4.91c-1.44,0-2.89,0-4.34-.09a101.62,101.62,0,0,1-39.22,8H99.89Z" fill="#00aa4f"/><path d="M99.89,627.82A89.24,89.24,0,0,1,26,588,100.36,100.36,0,0,1,1.64,538.18a90.09,90.09,0,0,1-41.3-75.84v-36A90.34,90.34,0,0,1,25,339.88v-64A149.73,149.73,0,0,1,7.83,207.1c0-80.77,65.71-146.48,146.48-146.48a148.19,148.19,0,0,1,52.31,9.68,148.19,148.19,0,0,1,52.31-9.68,147,147,0,0,1,135.48,90.9,87,87,0,0,1,27.42,10.63,87.92,87.92,0,0,1,42.62,75.11V345.73A86.58,86.58,0,0,1,459,376.17,108.74,108.74,0,0,1,443,528.7,102,102,0,0,1,411.32,592,104.64,104.64,0,0,1,339.47,620H327.35c-1.42,0-2.87,0-4.3-.1s-2.88.1-4.3.1h-5.36c-2.3,0-4.63-.09-6.94-.27-2.31.18-4.64.27-6.94.27h-5.45a88.39,88.39,0,0,1-12.58-.9,98.22,98.22,0,0,1-13.28.9H256.89a91.2,91.2,0,0,1-9.89-.55,88.73,88.73,0,0,1-9.89.55h-5c-1.54,0-3.11,0-4.68-.12-1.57.08-3.14.12-4.69.12h-4.91c-1.27,0-2.56,0-3.83-.08s-2.56.08-3.83.08h-5c-1.16,0-2.34,0-3.52-.07s-2.35.07-3.51.07H194.3c-1.13,0-2.28,0-3.42-.07s-2.3.07-3.43.07H185.2c-2.15,0-4.33-.08-6.5-.24q-3.39.24-6.79.24H161c-1.27,0-2.55,0-3.83-.08s-2.56.08-3.83.08h-4.91c-1.91,0-3.84-.06-5.77-.19l-1.3.15a89,89,0,0,1-36.49,7.93H99.89Z" fill="#008453"/><path d="M99.89,615.32a76.41,76.41,0,0,1-64-35,88.11,88.11,0,0,1-22.72-49.79,77.48,77.48,0,0,1-40.3-68.14v-36a77.81,77.81,0,0,1,64.82-76.63h0c-.1-1.88-.15-3.67-.15-5.45V272.7a136.53,136.53,0,0,1-17.17-65.6c0-73.88,60.1-134,134-134a135,135,0,0,1,52.31,10.65,134.21,134.21,0,0,1,178.71,79A75,75,0,0,1,452,237.26V345.73a74.51,74.51,0,0,1-7.54,32.72A96.27,96.27,0,0,1,431,522.17c-2.79,48.26-42,85.29-91.55,85.29H327.35c-1.43,0-2.87,0-4.3-.12-1.43.08-2.88.12-4.31.12h-5.36c-2.3,0-4.63-.11-6.94-.32-2.31.21-4.64.32-6.94.32h-5.45a76.3,76.3,0,0,1-12.53-1,86,86,0,0,1-13.33,1H256.88a76.27,76.27,0,0,1-9.89-.65,76.16,76.16,0,0,1-9.89.65h-5c-1.54,0-3.11,0-4.68-.14-1.56.1-3.14.14-4.69.14h-4.91c-1.26,0-2.55,0-3.83-.1s-2.57.1-3.83.1h-5c-1.16,0-2.34,0-3.52-.08s-2.36.08-3.51.08h-3.79c-1.13,0-2.28,0-3.42-.08s-2.29.08-3.43.08h-2.25c-2.14,0-4.32-.09-6.48-.28-2.27.18-4.56.28-6.81.28H161c-1.26,0-2.55,0-3.83-.1s-2.57.1-3.83.1h-4.91c-2,0-4.07-.08-6.11-.25-1.07.14-2.15.27-3.21.37l-1.09.09a76.13,76.13,0,0,1-33.16,7.67H99.89Z" fill="#00aa4f"/><path d="M99.89,602.82A63.54,63.54,0,0,1,45.8,572.57a75.11,75.11,0,0,1-20.69-50.19,65,65,0,0,1-39.76-60v-36a65.28,65.28,0,0,1,65.2-65.2h1.12c-.44-2.27-.8-4.55-1.07-6.86l0-.34q-.26-2.45-.41-4.91T50,344.28V269.34a123.34,123.34,0,0,1-17.17-62.26A121.46,121.46,0,0,1,206.64,97.45,121.68,121.68,0,0,1,376,174.75H377a62.5,62.5,0,0,1,62.5,62.5V345.71a62.62,62.62,0,0,1-10.73,35,84.34,84.34,0,0,1,29.34,63.68,83.16,83.16,0,0,1-16.87,50.43,84.83,84.83,0,0,1-22.52,20.65c0,.4,0,.8,0,1.19,0,43.91-34.79,78.31-79.21,78.31H327.35c-1.43,0-2.87,0-4.3-.15-1.43.1-2.87.15-4.31.15h-5.36a64.7,64.7,0,0,1-6.94-.38,64.55,64.55,0,0,1-6.94.38h-5.45a63.59,63.59,0,0,1-12.46-1.24,73.1,73.1,0,0,1-13.4,1.24H256.88a62.91,62.91,0,0,1-9.89-.78,64.13,64.13,0,0,1-9.89.78h-5c-1.55,0-3.12-.06-4.68-.17-1.56.12-3.14.17-4.69.17h-4.91c-1.26,0-2.55,0-3.83-.12-1.28.08-2.57.12-3.83.12h-5c-1.16,0-2.34,0-3.52-.1s-2.35.1-3.51.1h-3.79c-1.13,0-2.28,0-3.42-.09s-2.3.09-3.43.09h-2.25a63.46,63.46,0,0,1-6.45-.33c-2.28.22-4.57.33-6.84.33H161c-1.27,0-2.56,0-3.83-.12-1.27.08-2.56.12-3.83.12h-4.91a62.92,62.92,0,0,1-6.43-.33c-1.35.21-2.71.37-4.06.5l-1.12.1c-.72,0-1.43.1-2.14.13a63.46,63.46,0,0,1-29.81,7.49H99.89Z" fill="#008453"/><path d="M99.89,590.32a50.73,50.73,0,0,1-44.13-25.44,62.2,62.2,0,0,1-18.17-44.24,67.21,67.21,0,0,1,.38-7.12A52.79,52.79,0,0,1-2.16,462.34v-36a52.76,52.76,0,0,1,52.7-52.7h8.22a53.15,53.15,0,0,1,9.76.91l.36-.07A74.65,74.65,0,0,1,63,352.9s0-.3,0-.36q-.18-1.64-.29-3.29c0-.31,0-.58-.06-.85q-.12-2.05-.12-4.11V265.8A109,109,0,0,1,154.31,98.09a108.83,108.83,0,0,1,52.31,13.38,108.83,108.83,0,0,1,52.31-13.38c53.54,0,98.44,39.13,107.37,90.3A50,50,0,0,1,427,237.24V345.71a50.29,50.29,0,0,1-16.55,37.15,71.43,71.43,0,0,1,35.16,61.5,70.67,70.67,0,0,1-14.36,42.9,72.28,72.28,0,0,1-25.54,21.15,66.21,66.21,0,0,1,.51,8.22c0,36.9-29.3,65.81-66.71,65.81H327.35c-1.43,0-2.87-.06-4.3-.18-1.43.12-2.87.18-4.31.18h-5.36a52.09,52.09,0,0,1-6.94-.47,52,52,0,0,1-6.94.47h-5.45a50.62,50.62,0,0,1-12.37-1.53,59.62,59.62,0,0,1-13.49,1.53H256.88a51.18,51.18,0,0,1-9.89-1,51.17,51.17,0,0,1-9.89,1h-5q-2.34,0-4.68-.21c-1.56.14-3.13.21-4.69.21h-4.91c-1.27,0-2.55,0-3.83-.14-1.28.1-2.56.14-3.83.14h-5c-1.17,0-2.35,0-3.52-.12q-1.76.12-3.51.12h-3.79c-1.13,0-2.28,0-3.42-.12-1.15.08-2.29.12-3.43.12h-2.25a50.68,50.68,0,0,1-6.4-.4,59,59,0,0,1-6.89.4H161c-1.27,0-2.55,0-3.83-.14-1.27.1-2.56.14-3.83.14h-4.91a50.5,50.5,0,0,1-6.73-.45c-1.63.29-3.29.52-4.94.68l-.92.08c-1.3.1-2.62.15-3.86.15h-.69a51.35,51.35,0,0,1-26.43,7.43H99.89Z" fill="#00aa4f"/><path d="M99.89,577.82a38.33,38.33,0,0,1-34.1-20.65,49.23,49.23,0,0,1-15.7-36.53,51.13,51.13,0,0,1,3.24-18.1H50.55a40.24,40.24,0,0,1-40.2-40.2v-36a40.24,40.24,0,0,1,40.2-40.2h8.22a40,40,0,0,1,9.76,1.2,40,40,0,0,1,9.76-1.2h8.22a40.86,40.86,0,0,1,4.95.3l-.69-.79c-.28-.32-.56-.64-.83-1a62.14,62.14,0,0,1-14.49-33.32l0-.24c-.1-.92-.18-1.85-.25-2.84,0-.24,0-.43-.05-.63-.06-1.19-.1-2.31-.1-3.41V262A96.49,96.49,0,0,1,206.64,126a96.48,96.48,0,0,1,148.79,80.24l3.78-2a37.51,37.51,0,0,1,55.27,33V345.71a37.5,37.5,0,0,1-55.26,33L341.09,369a62.39,62.39,0,0,1-9.5,15.37c-1.08,1.31-2.2,2.58-3.38,3.81a60,60,0,0,1,14.16,6.52,58.93,58.93,0,1,1,48.89,106,53.43,53.43,0,0,1,2.42,15.9c0,29.9-23.81,53.31-54.21,53.31H327.35a38.74,38.74,0,0,1-4.3-.24,38.78,38.78,0,0,1-4.31.24h-5.36a38.45,38.45,0,0,1-6.94-.63,38.45,38.45,0,0,1-6.94.63h-5.45a38.43,38.43,0,0,1-12.21-2,46.87,46.87,0,0,1-13.65,2H256.88a37.82,37.82,0,0,1-9.89-1.3,38.25,38.25,0,0,1-9.89,1.3h-5a40.66,40.66,0,0,1-4.68-.28,38.59,38.59,0,0,1-4.69.28h-4.91a37.63,37.63,0,0,1-3.83-.19,37.63,37.63,0,0,1-3.83.19h-5c-1.17,0-2.35,0-3.52-.16-1.17.11-2.34.16-3.51.16h-3.79q-1.71,0-3.42-.15c-1.14.1-2.29.15-3.43.15h-2.25a38.16,38.16,0,0,1-6.33-.52,47.64,47.64,0,0,1-7,.52H161a37.92,37.92,0,0,1-3.83-.19,37.77,37.77,0,0,1-3.83.19h-4.91a38.14,38.14,0,0,1-7-.64,45.78,45.78,0,0,1-6.55,1c-.95.07-2,.11-2.9.11a38.15,38.15,0,0,1-4.14-.22,38.76,38.76,0,0,1-23,7.65H99.89Z" fill="#008453"/><path d="M420.56,444.35a46.46,46.46,0,0,0-78.14-33.92,47,47,0,0,0-32-12.48c-5.77,0-18.74.18-30.52.36,17.21-1.76,32.26-10,42-21.93a49.8,49.8,0,0,0,11-23.65c.07-.4.12-.81.18-1.22s.1-.6.14-.9l31.82,17.12a25,25,0,0,0,36.84-22V237.24a25,25,0,0,0-36.84-22l-25,13.46a84,84,0,0,0-133.47-87.31A84,84,0,0,0,87.5,258v86.31q0,1.59.11,3.17c.05.78.11,1.55.2,2.32a1.36,1.36,0,0,1,0,.2,49.71,49.71,0,0,0,11.63,26.69c.3.36.61.7.91,1l.14.16c11.12,12.65,28.36,20.8,47.68,20.8H116.81a27.49,27.49,0,0,0-15.16,4.55,27.53,27.53,0,0,0-15.16-4.55H78.27a27.66,27.66,0,0,0-9.76,1.78,27.66,27.66,0,0,0-9.76-1.78H50.53a27.74,27.74,0,0,0-27.7,27.7v36A27.74,27.74,0,0,0,50.53,490h8.22a27.66,27.66,0,0,0,9.76-1.78,28.07,28.07,0,0,0,6.41,1.57A26.36,26.36,0,0,0,73.45,494,37.82,37.82,0,0,0,76,549.43a25.88,25.88,0,0,0,23.93,15.89h5a26.2,26.2,0,0,0,18.62-7.88h3.62a26.46,26.46,0,0,0,4.88.46c.62,0,1.34,0,2-.07l.47,0a33.67,33.67,0,0,0,6.81-1.35,26,26,0,0,0,7.2,1h4.91a25.68,25.68,0,0,0,3.83-.28,25.68,25.68,0,0,0,3.83.28h10.95a34.29,34.29,0,0,0,7.1-.74,26.09,26.09,0,0,0,6.19.74h2.25a26.12,26.12,0,0,0,3.43-.23,26,26,0,0,0,3.42.23h3.79a25.88,25.88,0,0,0,3.51-.24,25.81,25.81,0,0,0,3.52.24h5a25.78,25.78,0,0,0,3.83-.28,25.68,25.68,0,0,0,3.83.28h4.91a26.22,26.22,0,0,0,4.69-.42,26.11,26.11,0,0,0,4.68.42h5a25.82,25.82,0,0,0,9.89-2,25.82,25.82,0,0,0,9.89,2h11.31a34.32,34.32,0,0,0,13.93-2.91,25.87,25.87,0,0,0,11.93,2.91h5.45a26.16,26.16,0,0,0,6.94-.94,26.1,26.1,0,0,0,6.94.94h5.36a25.85,25.85,0,0,0,4.31-.36,25.61,25.61,0,0,0,4.29.36h12.12c23.39,0,41.71-17.93,41.71-40.81a40.14,40.14,0,0,0-9.32-25.93c.77,0,1.53.06,2.31.06a46.47,46.47,0,0,0,46.37-46.42Z" fill="#00aa4f"/></g><g id="desc"><path d="M99.45,553a13.52,13.52,0,0,1-13.3-11.22c-7.12-4.13-11.58-11.81-11.58-21.08,0-8.6,3.85-15.84,10.13-20.16a13,13,0,0,1,13-13.26h6.69a13.48,13.48,0,0,1,8.53,3,16.62,16.62,0,0,1,25.94,6h13.47a14.17,14.17,0,0,1,3,.33,13.26,13.26,0,0,1,3-.33h6.76a13.65,13.65,0,0,1,9,3.39,13.17,13.17,0,0,1,8.85-3.39h8.08a14,14,0,0,1,6.31,1.52,13.78,13.78,0,0,1,6.31-1.52H210a13.55,13.55,0,0,1,3,.34,13.42,13.42,0,0,1,3-.34h6.71a13.8,13.8,0,0,1,4.78.85,13.63,13.63,0,0,1,4.77-.85h5a13.55,13.55,0,0,1,9.23,3.61,13.18,13.18,0,0,1,9.08-3.61h12.79a20.78,20.78,0,0,1,11.81,3.63,13.1,13.1,0,0,1,13.08-11.63h6.52a13.41,13.41,0,0,1,6.87,1.89,13.38,13.38,0,0,1,6.87-1.89h5.31a13.51,13.51,0,0,1,3.44.45,13.24,13.24,0,0,1,3.39-.45h13.7c16.23,0,28.94,12.28,28.94,28s-12.71,28-28.94,28H327.35a13.06,13.06,0,0,1-4.29,0,5.62,5.62,0,0,1-4.32,0h-5.36a8.86,8.86,0,0,1-6.94-1.21,8.81,8.81,0,0,1-6.94,1.21H294A11.38,11.38,0,0,1,283,539.12a18.25,18.25,0,0,1-14.8,5.12H256.88a10.82,10.82,0,0,1-9.89-3.65,10.78,10.78,0,0,1-9.89,3.65h-5a6.14,6.14,0,0,1-4.68-.14,6.13,6.13,0,0,1-4.69.14h-4.91a4.83,4.83,0,0,1-3.83.13,4.88,4.88,0,0,1-3.83-.13h-5a4.36,4.36,0,0,1-3.52.22,4.37,4.37,0,0,1-3.51-.22h-3.79a4.15,4.15,0,0,1-3.41.24,4.23,4.23,0,0,1-3.43-.24H185.2a7.59,7.59,0,0,1-5.82-.64,12.22,12.22,0,0,1-7.47.64H161a4.85,4.85,0,0,1-3.82.14,4.9,4.9,0,0,1-3.84-.14h-4.91a9,9,0,0,1-7.16-1.35,20.72,20.72,0,0,1-8,2.43l-.22,0a13.51,13.51,0,0,1-4.84-.5,11.24,11.24,0,0,0-1.52.4h-5.07a13.34,13.34,0,0,1-4.34-.71,13.71,13.71,0,0,1-12.77,8.71h-5Zm273-75a33.77,33.77,0,0,1-31.63-22c-4.13,13.23-16,22-31.17,22-14.21,0-26.17-8-31.48-19.79a33.72,33.72,0,0,1-61.34.14C212.1,470.2,200.79,478,186.54,478A34.38,34.38,0,0,1,158,463.3a15.11,15.11,0,0,1-15.07,13.94H116.5a15.12,15.12,0,0,1-15.08-14.06,15.13,15.13,0,0,1-15.08,14.06H78.16a15,15,0,0,1-9.71-3.53,15.07,15.07,0,0,1-9.71,3.53h-8.1A15.2,15.2,0,0,1,35.45,462v-35.6a15.2,15.2,0,0,1,15.2-15.2h8.1a15.12,15.12,0,0,1,9.71,3.53,15.12,15.12,0,0,1,9.71-3.53h8.18a15.12,15.12,0,0,1,15.08,14.06,15.13,15.13,0,0,1,15.08-14.06h26.38A15.13,15.13,0,0,1,158,425.34a33.88,33.88,0,0,1,28-14.8c11.64,0,22.53,5.85,28.44,15.26a15.25,15.25,0,0,1,2.06,5.26,33.72,33.72,0,0,1,61.77-.63,33.92,33.92,0,0,1,30.88-19.88c11.64,0,22.53,5.85,28.44,15.26a15.11,15.11,0,0,1,2.32,8c.13.19.25.39.37.58A33.72,33.72,0,1,1,372.49,478Z" fill="#008453"/><path d="M106.64,508.83c-.54,0-.19-.81-.19-.81v-7.21s-1.07-1-1.61-1.57H98.17c-.5.58-.68,1.08-.27,1.66s1,1.62.55,3.74V508c.49.5.26.77-.28.81-6.71.59-10.59,5.45-10.59,11.8s3.87,11.22,10.59,11.76c.54,0,.77.32.28.81v6.17a5,5,0,0,0,1.44.87h5s1-.37.6-.87V533.2c.39-.5.66-.77,1.2-.81,6.67-.59,10.54-5.41,10.54-11.76s-3.88-11.22-10.55-11.8Zm-8.19,19.23c0,.59-.32.81-.63.72-2.21-.77-3.74-3.79-3.74-8.2s1.53-7.39,3.74-8.11c.32,0,.63.13.63.72v14.87Zm7.63.68c-.32.09-.63-.14-.63-.72V513.2c0-.59.32-.77.63-.72,2.21.72,3.74,3.69,3.74,8.11s-1.53,7.38-3.74,8.15Zm21.37-19.5v22a1,1,0,0,1-1,1h-5a1,1,0,0,1-.95-.95V513.13a5.72,5.72,0,0,0-1.06-3.8c-.42-.6-.22-1.1.27-1.1h6.77A1,1,0,0,1,127.45,509.24Zm.64-6.32a4.05,4.05,0,1,1-4.05-4A4,4,0,0,1,128.09,502.92Zm26.36,7.27v21.1a1,1,0,0,1-1,.95h-5a1,1,0,0,1-1-.95v-18a1,1,0,0,0-1-1h-5a1,1,0,0,0-1,1v4.82a25.89,25.89,0,0,1-1.46,9.55,7.83,7.83,0,0,1-6.64,5,.63.63,0,0,1-.76-.54l-.49-2.66a.67.67,0,0,1,.88-.81c1.86.32,3-1.4,3.54-2.84a27.66,27.66,0,0,0,.93-8.2v-3.59a5.65,5.65,0,0,0-1-3.74c-.41-.59-.23-1.08.27-1.08h17.75a1,1,0,0,1,1,1Zm18,6.05h-4a1,1,0,0,1-1-1.11v-5.92a1,1,0,0,0-1-1h-6.78c-.51,0-.69.5-.27,1.11a5.82,5.82,0,0,1,1.06,3.84v18.11a1,1,0,0,0,.95.95h11.06c4.68,0,8.59-3.54,8.59-7.95s-3.91-8.05-8.6-8.05Zm-3,13h-2a1,1,0,0,1-.95-1.09v-6.87a1,1,0,0,1,.95-1h2c2.23,0,3.65,1.8,3.65,4.35S171.66,529.24,169.44,529.24Zm42-20.09v22.19a.9.9,0,0,1-.9.9h-5.14a.92.92,0,0,1-1-.9V519.76c0-.45-.55-.5-.69-.09l-4.19,11.67a1.42,1.42,0,0,1-1.27.9h-3.83a1.41,1.41,0,0,1-1.23-.9l-4.15-11.67a.33.33,0,1,0-.64.14v11.53a.91.91,0,0,1-.91.9h-2.19a.9.9,0,0,1-.9-.9V513.13a5.74,5.74,0,0,0-1-3.8c-.41-.6-.23-1.1.27-1.1h8a1.39,1.39,0,0,1,1.23.91l4.73,13.76a.33.33,0,0,0,.32.27.33.33,0,0,0,.27-.27L203,509.15a1.42,1.42,0,0,1,1.23-.91h6.27a.89.89,0,0,1,.91.91Zm26,.58v21.76s.16,1-.34.75h-5c-.54.2-.66-.75-.66-.75V518.76c0-.37-.31-.46-.49-.14l-6.69,12.8c-.27.51-.58.82-1.06.82H218.4a1,1,0,0,1-1-1V513.13a5.84,5.84,0,0,0-1-3.8c-.4-.6-.23-1.1.27-1.1h6s1,1,.72,1.49v12.34c.32.36.64.45.82.14l6.8-12.61c.27-.5.59-.81,1.08-.36h5c.5-.46,1,0,1,.49Zm35.76,9.85c-.37-.22-.46-.41,0-.69a5.81,5.81,0,0,0,2.56-4.67c0-3.15-3.15-6-7.26-6H255.67c-.51,0-.69.5-.27,1.1a5.71,5.71,0,0,1,1.05,3.79v18.16a1,1,0,0,0,1,1h11.49c4.71,0,8.23-3.2,8.23-6.67A7,7,0,0,0,273.21,519.58Zm-10.75-6.34a1,1,0,0,1,1-1h2a2.73,2.73,0,0,1,2.73,3c0,1.71-1.22,3-2.39,3h-2.3a1,1,0,0,1-1-1.07v-3.93Zm3.31,15H263.4a1,1,0,0,1-1-1v-5.1a1,1,0,0,1,1-1h2.37c1.68,0,2.88,1.77,2.88,3.59A3.18,3.18,0,0,1,265.77,528.24Zm53.68-26v29.1a1,1,0,0,1-1,.94h-5a1,1,0,0,1-1-.94V519.22a1,1,0,0,0-.89-1H301.34a.91.91,0,0,0-.89,1V531.3a1,1,0,0,1-1,.94H294.4a1,1,0,0,1-1-1v-25.4a5.53,5.53,0,0,0-1-3.61c-.39-.57-.21-1,.25-1h6.75a1,1,0,0,1,1,1v11.09a.89.89,0,0,0,.9,1h10.21a1,1,0,0,0,.89-1V502.2a1,1,0,0,1,1-1h5a1,1,0,0,1,1,1Zm20.25-2h-14c-.51,0-.68.51-.27,1.1a5.69,5.69,0,0,1,1.06,3.79v26.16a1,1,0,0,0,1,1h12.31c9.69,0,17-7.17,17-16s-7.27-16-17-16Zm-1.65,28h-3.63a1,1,0,0,1-1-1V505.3a1,1,0,0,1,1-1.06h3.63c5.89,0,10.11,4.69,10.11,12S343.94,528.24,338.05,528.24Zm-259.83-102h8.23v36h-8V440l-9.53,16.19H68L58.45,440v22.19h-8v-36h8.23l9.77,16,9.77-16Zm38.23,36h27v-8h-18v-6h18v-8h-18v-6h18v-8h-27Zm70-13H196c-1.28,3.34-4.41,5.4-9.17,5.4-7,0-11.28-4.35-11.28-10.29a10.18,10.18,0,0,1,10.56-10.49c4.05,0,7.28,1.8,8.77,4.09l7-3.9a18.49,18.49,0,0,0-15.69-8c-10.56,0-18.82,8.09-18.82,18.23s8.11,18.12,19.39,18.12c10.05,0,17.69-6.49,17.69-17.18v-3h-18v7Zm80.76-4.89a18.7,18.7,0,1,1-18.7-18.7A18.54,18.54,0,0,1,267.21,444.35Zm-8.22,0A10.48,10.48,0,1,0,248.51,455C254.37,455,259,450.77,259,444.35Zm51.46,4.89H320c-1.28,3.34-4.41,5.4-9.17,5.4-7,0-11.28-4.35-11.28-10.29a10.18,10.18,0,0,1,10.56-10.49c4.05,0,7.28,1.8,8.77,4.09l7-3.9a18.49,18.49,0,0,0-15.69-8c-10.56,0-18.82,8.09-18.82,18.23s8.11,18.12,19.39,18.12c10.05,0,17.69-6.49,17.69-17.18v-3h-18v7Zm82.41-4.89a18.7,18.7,0,1,1-18.7-18.7A18.54,18.54,0,0,1,392.86,444.35Zm-8.21,0A10.48,10.48,0,1,0,374.17,455,10.22,10.22,0,0,0,384.65,444.35Z" fill="#fff"/></g><g id="icon"><path d="M137.47,381.74A37.5,37.5,0,0,1,100,344.28V253.55a71.49,71.49,0,0,1,106.62-95.21,71.49,71.49,0,0,1,113.66,85.42,36.48,36.48,0,0,1,.69,4.14h9.76l40.31-21.68a12.5,12.5,0,0,1,18.42,11V345.7a12.5,12.5,0,0,1-18.42,11L330.74,335h-9.53v9.24a37.5,37.5,0,0,1-37.46,37.46H137.47Z" fill="#008453"/><path d="M333.88,260.41H308.7V252a24.72,24.72,0,0,0-2.16-10.15,59,59,0,1,0-99.92-62,59,59,0,1,0-93.91,69,25.12,25.12,0,0,0-.21,3.15v92.25a25,25,0,0,0,25,25H283.73a25,25,0,0,0,25-25V322.54h25.18l43.08,23.17V237.24l-43.07,23.17Z" fill="#fff"/></g><g id="title"><path d="M368.63,122.57a13.31,13.31,0,0,1-10.94-5.78,13.32,13.32,0,0,1-10.94,5.78h-1.56a13.28,13.28,0,0,1-11.2-6.05,29.28,29.28,0,0,1-5.59.53,28.78,28.78,0,0,1-9.91-1.73,13.05,13.05,0,0,1-5.41,1.17H308.8a15.31,15.31,0,0,1-7.24-1.79,13.41,13.41,0,0,1-6.72,1.79h-3.36a13.28,13.28,0,0,1-9.45-3.94,13.42,13.42,0,0,1-9.51,3.94h-3.28a13.4,13.4,0,0,1-7-2,13.4,13.4,0,0,1-7,2H251.8a12.9,12.9,0,0,1-3.07-.36,13.59,13.59,0,0,1-3.08.36H230a13.53,13.53,0,0,1-2.39-.21,13.17,13.17,0,0,1-2.35.21h-4.16a15.17,15.17,0,0,1-6.41-1.38,13.32,13.32,0,0,1-6,1.38h-3.28a13.44,13.44,0,0,1-5.94-1.38,15.17,15.17,0,0,1-6.41,1.38H189a13.19,13.19,0,0,1-5.54-1.23,29.35,29.35,0,0,1-20,.06,13.05,13.05,0,0,1-5.41,1.17h-4.28a15.31,15.31,0,0,1-7.24-1.79,13.41,13.41,0,0,1-6.72,1.79h-3.36a13.3,13.3,0,0,1-8.1-2.75,13.27,13.27,0,0,1-8.1,2.75h-3.76a13.83,13.83,0,0,1-9.42-3.73,13.8,13.8,0,0,1-9.42,3.73h-2a13.52,13.52,0,0,1-4.31-.71,25.24,25.24,0,0,1-8,1.27c-8.63,0-16.35-3.94-20.66-10.53A13,13,0,0,1,65.9,88.69l-.34-.51-.95-1.51A13.58,13.58,0,0,1,65.22,71l.12-.15c4-4.93,10.52-7.87,17.54-7.87a23.77,23.77,0,0,1,13,3.63,13.09,13.09,0,0,1,8.45-3.07h5.28a14,14,0,0,1,13,9,13.6,13.6,0,0,1,.86-2.06,12.92,12.92,0,0,1,11.48-6.92h4.84a13.36,13.36,0,0,1,6.73,1.81,14.83,14.83,0,0,1,7.19-1.81h2.48a13,13,0,0,1,6.22,1.58,28.56,28.56,0,0,1,10.94-2.14,29,29,0,0,1,10.65,2,13.05,13.05,0,0,1,6-1.44h3.08a15.06,15.06,0,0,1,6.44,1.41,13.38,13.38,0,0,1,6-1.41h3.28a13.41,13.41,0,0,1,6,1.41,15.07,15.07,0,0,1,6.45-1.41h2.24a12.38,12.38,0,0,1,2.52.25,13.34,13.34,0,0,1,2.54-.25H245a13.53,13.53,0,0,1,2.65.26,13,13,0,0,1,2.58-.26h4.88a13.4,13.4,0,0,1,7,2,13.4,13.4,0,0,1,7-2h3.28a13.38,13.38,0,0,1,8.81,3.3,13,13,0,0,1,8.67-3.3h4.84a13.36,13.36,0,0,1,6.73,1.81,14.83,14.83,0,0,1,7.19-1.81h2.48a13,13,0,0,1,6.22,1.58,29.05,29.05,0,0,1,24.45,1.19,12.93,12.93,0,0,1,8-2.77h17.12a13.39,13.39,0,0,1,13.38,13.38V92.61h0a13.32,13.32,0,0,1,3.49,9.77l-.4,7.46,0,.38a13.33,13.33,0,0,1-13.34,12.34h-1.55Z" fill="#008453"/><path d="M93.21,96.19c0,4.64-3.76,8.36-9.88,8.36-4.36,0-8.2-1.8-10.2-4.88a.64.64,0,0,1,.24-1l1.4-.92a.73.73,0,0,1,1.08.24,8.68,8.68,0,0,0,6.6,3.32A5,5,0,0,0,87.65,96c0-3-1.76-5.08-5.2-5.08h-1.6a.9.9,0,0,1-.92-.88v-1.4a.91.91,0,0,1,.92-.92h1.6A4.44,4.44,0,0,0,86.73,83c0-2.56-1.76-4.32-4.6-4.32a4.94,4.94,0,0,0-4.6,2.72.77.77,0,0,1-1.36.2l-1-1.6a1.09,1.09,0,0,1-.08-1.32,10.18,10.18,0,0,1,7.8-3.2c5.76,0,9.24,3,9.24,7.4a7.51,7.51,0,0,1-3.28,5.8c-.28.2-.28.48,0,.64A7.94,7.94,0,0,1,93.21,96.19Zm27.67,7a.61.61,0,0,1-.64.84h-3.76a1.42,1.42,0,0,1-1.2-.84L113,96.79a.91.91,0,0,0-1-.6h-9.76c-.56,0-.92.16-1.08.6l-2.32,6.36a1.37,1.37,0,0,1-1.2.84h-2c-.56,0-.84-.4-.68-.84l8.72-22.88a6,6,0,0,0,.44-2,2.76,2.76,0,0,0-.28-1.28.63.63,0,0,1,.52-1h5.28a1.41,1.41,0,0,1,1.28.88l10,26.28Zm-9.56-11-3.84-10.84a.34.34,0,0,0-.32-.28.38.38,0,0,0-.36.28l-3.92,10.84c-.2.56,0,.88.52.88h7.36C111.32,93,111.52,92.67,111.32,92.12Zm36-2.8c-.4-.48-.48-.68-.12-1.12l9.16-11.32c.4-.48.28-.88-.2-.88h-2.48a2.19,2.19,0,0,0-1.88.88l-8.52,10.64a1,1,0,0,1-.8.4h-1.2c-.4,0-.6-.24-.6-.68V76.88a.9.9,0,0,0-.92-.88H135c-.44,0-.64.44-.28,1a5,5,0,0,1,.92,3.32v22.88a.87.87,0,0,0,.84.84h3.36a.89.89,0,0,0,.92-.84V91.83a.65.65,0,0,1,.64-.72h.76a1,1,0,0,1,.72.4l9,11.64a2.43,2.43,0,0,0,2,.84H158c.48,0,.68-.4.32-.84l-11-13.83Zm41.19.72c0,8.2-6.36,14.52-15.2,14.52S158.27,98.24,158.27,90s6.36-14.6,15.08-14.6S188.55,81.76,188.55,90ZM183,90c0-6.36-4-11.36-9.6-11.36s-9.48,5-9.48,11.36,4,11.36,9.48,11.36S183,96.35,183,90Zm32.92-.68a.94.94,0,0,1-.2-1.12l8-11.32c.4-.48.28-.88-.2-.88h-2.24a2,2,0,0,0-1.88.88l-7.44,10.64a1,1,0,0,1-.8.4h-.8c-.4,0-.6-.24-.6-.68V76.88a.9.9,0,0,0-.92-.88h-3.28a.9.9,0,0,0-.92.88V87.24c0,.44-.2.68-.6.68h-.8a1,1,0,0,1-.8-.4l-7.44-10.64a2,2,0,0,0-1.88-.88H190c-.6,0-.72.68,0,1a9,9,0,0,1,2.8,2.88l5.84,8.28a.94.94,0,0,1-.2,1.12l-9.76,13.84c-.36.44-.16.84.32.84h4.16a2,2,0,0,0,1.84-.84l7.88-11.64a.84.84,0,0,1,.72-.4h.36a.65.65,0,0,1,.64.72v11.32a.89.89,0,0,0,.92.84h3.28a.89.89,0,0,0,.92-.84V91.83a.65.65,0,0,1,.64-.72h.36a.84.84,0,0,1,.72.4l7.88,11.64a2,2,0,0,0,1.84.84h4.16c.48,0,.68-.4.32-.84Zm29.78,11.47H235.17a.83.83,0,0,1-.84-.88V92.2a.85.85,0,0,1,.84-.88h8a.88.88,0,0,0,.84-.88V89a.87.87,0,0,0-.84-.84h-8a.85.85,0,0,1-.84-.88V80.08a.88.88,0,0,1,.84-.88H242a11.33,11.33,0,0,1,3.52.6c.56.2,1,0,.88-.56l-.36-2.4a1,1,0,0,0-1-.84H228.53c-.44,0-.6.44-.24,1a5,5,0,0,1,.92,3.32v22.88a.87.87,0,0,0,.84.84h15.6a.88.88,0,0,0,.88-.84v-1.48a.89.89,0,0,0-.88-.89ZM272.53,76h-3.28a.9.9,0,0,0-.92.88V87.24a.88.88,0,0,1-.84.88H256.93a.83.83,0,0,1-.84-.88V76.88a.9.9,0,0,0-.92-.88h-4.88c-.44,0-.6.44-.24,1a5,5,0,0,1,.92,3.32v22.88a.87.87,0,0,0,.84.84h3.36a.89.89,0,0,0,.92-.84v-11a.83.83,0,0,1,.84-.88h10.56a.88.88,0,0,1,.84.88v11a.89.89,0,0,0,.92.84h3.28a.89.89,0,0,0,.92-.84V76.88A.9.9,0,0,0,272.53,76Zm29.88,13.32c-.4-.48-.48-.68-.12-1.12l9.16-11.32c.4-.48.28-.88-.2-.88h-2.48a2.19,2.19,0,0,0-1.88.88l-8.52,10.64a1,1,0,0,1-.8.4h-1.2c-.4,0-.6-.24-.6-.68V76.88a.9.9,0,0,0-.92-.88H290c-.44,0-.64.44-.28,1a5,5,0,0,1,.92,3.32v22.88a.87.87,0,0,0,.84.84h3.36a.89.89,0,0,0,.92-.84V91.83a.65.65,0,0,1,.64-.72h.76a1,1,0,0,1,.72.4l9,11.64a2.43,2.43,0,0,0,2,.84h4.28c.48,0,.68-.4.32-.84ZM343.6,90c0,8.2-6.36,14.52-15.2,14.52S313.32,98.24,313.32,90s6.36-14.6,15.08-14.6S343.6,81.76,343.6,90ZM338,90c0-6.36-4-11.36-9.6-11.36s-9.48,5-9.48,11.36,4,11.36,9.48,11.36S338,96.35,338,90Zm33.47,11.67-.4,7.52a.92.92,0,0,1-.88.88h-1.56c-.48,0-.76-.4-.88-.88l-1.2-4.28a1.27,1.27,0,0,0-1.08-.92H349.91a1.27,1.27,0,0,0-1.08.92l-1.2,4.28c-.12.48-.4.88-.88.88h-1.56a.92.92,0,0,1-.88-.88l-.4-7.52a.77.77,0,0,1,.76-.88h1.56c.8,0,1-.12,1.2-.8a50.5,50.5,0,0,0,3.2-16.84V80.27a5,5,0,0,0-.92-3.32c-.36-.52-.2-1,.24-1h17.12a.89.89,0,0,1,.88.88v23a.86.86,0,0,0,.88.88h1.76a.86.86,0,0,1,.88.88Zm-8.64-21.55a.9.9,0,0,0-.88-.92h-6.88a.9.9,0,0,0-.88.92v2.36A57,57,0,0,1,351.31,100a.59.59,0,0,0,.6.8h10a.86.86,0,0,0,.88-.88V80.12Z" fill="#fde619"/></g></svg>