<?xml version="1.0" encoding="utf-8"?>
<!-- Generator: Adobe Illustrator 23.0.1, SVG Export Plug-In . SVG Version: 6.00 Build 0)  -->
<svg version="1.1" xmlns="http://www.w3.org/2000/svg" xmlns:xlink="http://www.w3.org/1999/xlink" x="0px" y="0px"
	 viewBox="0 0 701.01 233.47" enable-background="new 0 0 701.01 233.47" xml:space="preserve">
<g id="Layer_1_copy_6">
	<rect x="-628" y="-93.8" fill="none" width="1920" height="406.13"/>
</g>
<g id="Layer_1_copy_15">
	<rect x="-2215.16" y="-986.58" fill="none" width="5094.33" height="2865.56"/>
	<rect x="-628" y="-93.8" fill="none" width="1920" height="1080"/>
	<g>
		<g>
			<path fill="#ED1D24" d="M14.33,10.56l85.89,0.17l-0.19,95.89l-26.58-0.05l0.14-72.6L40.86,33.9l-0.14,72.6l-26.58-0.05
				L14.33,10.56z"/>
			<path fill="#ED1D24" d="M113.57,32.54l26.03,0.05l-0.02,9.86c5.08-6.15,11.39-11.48,22.49-11.46
				c17.67,0.03,32.85,14.72,32.8,38.69c-0.05,24.11-15.28,38.74-32.82,38.7c-11.23-0.02-17.8-5.1-22.58-10.73l-0.06,30.96
				l-26.03-0.05L113.57,32.54z M169.25,69.5c0.02-9.73-6.68-16.73-15.17-16.74c-8.36-0.02-15.08,6.96-15.1,16.96
				c-0.02,9.86,6.68,16.86,15.04,16.88C162.5,86.61,169.23,79.77,169.25,69.5z"/>
			<path fill="#ED1D24" d="M204.49,32.72l25.21,0.05l-0.07,37.12l24.73-37.08l23.97,0.05l-0.15,74.11l-25.21-0.05l0.07-37.12
				l-24.73,37.08l-23.97-0.05L204.49,32.72z"/>
			<path fill="#ED1D24" d="M284.1,98.63l10.31-16.14c6.02,4.67,16.56,7.43,22.18,7.44c7.53,0.01,10.55-2.03,10.56-5.87
				c0.01-2.74-1.77-6.17-10.26-6.18l-9.32-0.02l0.03-16.3l9.18,0.02c6.99,0.01,8.64-3.55,8.64-6.28c0-2.47-2.87-5.07-8.89-5.09
				c-6.71-0.01-15.35,3.26-20.01,7.36l-10.38-14.27c7.82-7.24,19.2-12.02,33.72-11.99c20.41,0.04,31.22,8.69,31.19,20.2
				c-0.02,8.77-4.82,13.83-11.81,16.83c7.94,2.76,13.82,7.97,13.8,17.29c-0.03,13.29-10.87,23.4-36.21,23.35
				C301.89,108.94,294.08,106.32,284.1,98.63z"/>
		</g>
		<g>
			<path fill="#ED1D24" d="M384.72,67.74l22.36,0.04c4.74,0.01,8.08,1.2,10.3,3.43c1.53,1.47,2.43,3.49,2.43,6.13
				c-0.01,4.39-2.52,6.96-5.87,8.42c4.59,1.54,7.17,4.12,7.16,9.35c-0.01,6.48-5.31,10.37-14.3,10.35l-22.15-0.04L384.72,67.74z
				 M402.03,82.75c3.06,0.01,4.74-1.31,4.74-3.33c0-1.88-1.6-3.21-4.52-3.21l-4.67-0.01l-0.01,6.55L402.03,82.75z M402.98,96.89
				c3.13,0.01,4.88-1.38,4.88-3.54c0-1.88-1.6-3.49-5.01-3.49l-5.29-0.01l-0.01,7.03L402.98,96.89z"/>
			<path fill="#ED1D24" d="M444.33,67.86l13.23,0.03l-0.03,14l10.27-13.98l14.97,0.03l-12.91,15.44l13.19,22.24l-14.56-0.03
				l-7.15-12.06l-3.84,4.59l-0.01,7.45l-13.23-0.03L444.33,67.86z"/>
			<path fill="#ED1D24" d="M481.86,86.81c0.02-10.73,8.81-19.69,20.93-19.67c12.05,0.02,20.74,8.89,20.72,19.75
				c-0.02,10.73-8.81,19.69-20.93,19.67C490.53,106.54,481.84,97.67,481.86,86.81z M510.63,86.86c0.01-4.6-3.33-8.5-7.99-8.51
				c-4.81-0.01-7.88,3.82-7.89,8.48c-0.01,4.6,3.33,8.5,7.99,8.51C507.55,95.36,510.62,91.53,510.63,86.86z"/>
			<path fill="#ED1D24" d="M535.56,83.5L522.7,68.01l14.97,0.03l10.21,14.02l0.03-14l13.23,0.03l-0.03,14l10.27-13.98l14.97,0.03
				l-12.98,15.44l13.26,22.24l-14.56-0.03l-7.64-12.9l-3.35,4.03l-0.02,8.85l-13.23-0.03l0.02-8.85l-3.41-4.05l-7.62,12.87
				l-14.56-0.03L535.56,83.5z"/>
			<path fill="#ED1D24" d="M588.91,68.14l13.23,0.03l-0.03,13.37l10.87,0.02l0.03-13.37l13.23,0.03l-0.07,37.68l-13.23-0.03
				l0.03-13.65l-10.87-0.02l-0.03,13.65l-13.23-0.03L588.91,68.14z"/>
			<path fill="#ED1D24" d="M632.59,55.07l13.79,0.03l-0.02,9.75l-13.79-0.03L632.59,55.07z M632.84,68.23l13.23,0.03L646,105.93
				l-13.23-0.03L632.84,68.23z"/>
			<path fill="#ED1D24" d="M652.32,68.27l12.82,0.03l-0.04,18.87l12.57-18.85l12.19,0.02l-0.07,37.68l-12.82-0.03l0.04-18.87
				l-12.57,18.85l-12.19-0.02L652.32,68.27z M659.94,54.84l6.9-1.24c0.83,2.44,2.15,4.04,4.59,4.05c2.44,0,3.76-1.59,4.6-4.03
				l6.89,1.27c-0.99,6.61-5.24,10.37-11.51,10.35C665.14,65.23,660.9,61.46,659.94,54.84z"/>
		</g>
		<g>
			<path fill="#ED1D24" d="M112.86,145.04l71.22,0.14l-0.14,72.97l-25.63-0.05l0.1-52.33l-19.96-0.04l-0.1,52.33L112.72,218
				L112.86,145.04z"/>
			<path fill="#ED1D24" d="M192.46,196.98c0.03-15.11,11.51-22.91,28.64-22.87c6.74,0.01,13.35,1.38,17.53,2.87l0-1.21
				c0.01-7.55-4.7-11.88-14.54-11.9c-7.69-0.02-13.63,1.46-20.11,4.01l-5.22-18.08c8.23-3.36,17.01-5.63,29.55-5.61
				c13.08,0.03,21.98,3.15,27.77,8.96c5.52,5.41,7.8,12.96,7.78,23.21l-0.08,41.95l-25.36-0.05l0.01-7.55
				c-5,5.52-11.89,9.15-21.46,9.13C203.07,219.8,192.43,211.82,192.46,196.98z M238.86,191.82l0.01-3.37
				c-2.56-1.08-6.2-1.9-9.98-1.91c-7.42-0.01-11.74,3.62-11.75,9.28c-0.01,4.99,3.76,7.97,9.02,7.98
				C233.58,203.81,238.85,199.1,238.86,191.82z"/>
			<path fill="#ED1D24" d="M316.03,194.93c-4.45,2.01-12.96,3.21-18.08,3.2c-14.84-0.03-25.88-8.82-25.85-24.46l0.06-28.32
				l25.76,0.05l-0.04,20.64c-0.01,7.28,2,11.2,7.67,11.21c4.05,0.01,7.69-0.66,10.53-2.81l0.06-29l25.63,0.05l-0.14,72.97
				l-25.63-0.05L316.03,194.93z"/>
			<path fill="#ED1D24" d="M409.49,218.59l-55.44-0.11l0.14-72.97l25.63,0.05l-0.1,52.33l19.96,0.04l0.1-52.33l25.63,0.05
				l-0.1,52.33l8.5,0.02l-2.5,35.47l-21.85-0.04L409.49,218.59z"/>
			<path fill="#ED1D24" d="M440.42,120.18l26.71,0.05l-0.04,18.88l-26.71-0.05L440.42,120.18z M440.91,145.68l25.63,0.05
				l-0.14,72.97l-25.63-0.05L440.91,145.68z"/>
			<path fill="#ED1D24" d="M479.36,135.77l0.02-11.46l29.13,0.06l-0.02,11.46l-7.93,52.18l-13.49-0.03L479.36,135.77z M480.45,195.8
				l26.71,0.05l-0.04,22.93l-26.71-0.05L480.45,195.8z"/>
		</g>
	</g>
	<g>
		<path fill="#ED1D24" d="M523.13,126.97c0.24-0.06,0.24-0.45,0-0.51l-1.05-0.27c-1.23-0.33,0.72-3.54,1.56-2.58l0.66,0.75
			c0.15,0.15,0.51-0.03,0.45-0.24l-0.3-0.99c-0.18-0.63,0.6-0.93,1.44-0.93c0.87,0,1.77,0.33,1.59,0.9l-0.3,0.99
			c-0.06,0.24,0.27,0.39,0.39,0.24l0.72-0.78c0.93-1.02,2.7,2.4,1.53,2.67l-1.02,0.24c-0.27,0.06-0.18,0.42,0,0.45l1.02,0.24
			c1.29,0.3-0.66,3.54-1.5,2.67l-0.75-0.78c-0.18-0.18-0.45-0.03-0.39,0.21l0.3,1.05c0.18,0.63-0.66,0.9-1.5,0.9
			c-0.9,0-1.83-0.3-1.59-0.9l0.39-1.02c0.09-0.24-0.24-0.42-0.45-0.24l-0.72,0.75c-0.96,0.99-2.73-2.31-1.56-2.58L523.13,126.97z"/>
	</g>
</g>
</svg>
