<svg xmlns="http://www.w3.org/2000/svg" width="297.83" height="90.17"><g data-name="Layer 2"><g data-name="prizes copy 5"><path d="M81.27 49.48h-8.82V34.82a4.28 4.28 0 0 0-4.28-4.27H4.28A4.28 4.28 0 0 0 0 34.82V85.9a4.28 4.28 0 0 0 4.28 4.27h63.89a4.28 4.28 0 0 0 4.28-4.27V71.24h8.82l15.1 8.12v-38z" fill="#fde619"/><path d="M49.41 63.87L34.93 74.38A3.31 3.31 0 0 1 33 75a3.34 3.34 0 0 1-1.5-.36 3.31 3.31 0 0 1-1.8-2.94v-21a3.31 3.31 0 0 1 5.23-2.7l14.48 10.52a3.28 3.28 0 0 1 1.36 2.67 3.34 3.34 0 0 1-1.36 2.68z" fill="#ed1d24"/><path d="M10.54 6.94C2.31 17.8 16.46 32.28 36.23 27.7 36.23 6 18.77-3.92 10.54 6.94zm51.37 0C70.14 17.8 56 32.28 36.23 27.7 36.23 6 53.68-3.92 61.91 6.94z" fill="none" stroke="#fde619" stroke-linecap="round" stroke-linejoin="round" stroke-width="5"/><path d="M135.89 30.77c0 5.17-4.13 9.15-9.93 9.15s-9.85-4-9.85-9.15 4.13-9.2 9.85-9.2 9.93 3.98 9.93 9.2zm-4.46 0c0-3.89-2.29-6.94-5.47-6.94s-5.39 3.05-5.39 6.94 2.29 6.93 5.39 6.93 5.47-3.07 5.47-6.95zm17-4.44a.55.55 0 0 1 .53.53l.2 1.57c.05.32-.22.43-.58.3a5.29 5.29 0 0 0-2.09-.35h-.75a.56.56 0 0 0-.56.58V39a.55.55 0 0 1-.55.53h-2.78a.55.55 0 0 1-.53-.53V29a.56.56 0 0 0-.55-.58H140a5.38 5.38 0 0 0-2.09.35c-.35.13-.63 0-.58-.3l.2-1.57a.55.55 0 0 1 .53-.53zM155 43.42a.57.57 0 0 1-.58.56h-2.68a.57.57 0 0 1-.58-.56V29.06a3.11 3.11 0 0 0-.56-2.06c-.22-.33-.12-.61.16-.61h3.45a.55.55 0 0 1 .55.55v.38c0 .46.28.43.58.18a6.13 6.13 0 0 1 4.09-1.5c3.78 0 6.35 3.12 6.35 7s-2.57 7-6.35 7a6 6 0 0 1-3.89-1.31c-.35-.28-.52 0-.52.1zm0-12v3.08a2.13 2.13 0 0 0 .27 1 3.66 3.66 0 0 0 3.08 2c1.94 0 3.45-1.72 3.45-4.57s-1.51-4.53-3.45-4.53a3.74 3.74 0 0 0-3.08 2 2.09 2.09 0 0 0-.27 1.05zm24.56-5.09a.55.55 0 0 1 .53.53V39a.55.55 0 0 1-.53.53h-2.8a.55.55 0 0 1-.55-.53v-6.87c0-.2-.18-.25-.28-.07l-3.81 7c-.15.28-.32.46-.6.46h-2.75a.55.55 0 0 1-.53-.53V29a3.16 3.16 0 0 0-.58-2.09c-.23-.33-.12-.61.15-.61h3.71a.57.57 0 0 1 .58.53v6.91c0 .2.17.25.27.08l3.81-7.06c.15-.28.33-.46.61-.46zm3.89 2.67a3.21 3.21 0 0 0-.58-2.09c-.23-.33-.13-.61.15-.61h4.46a.76.76 0 0 1 .68.51l2.62 7.59a.19.19 0 0 0 .18.15s.12 0 .15-.15l2.65-7.59a.79.79 0 0 1 .68-.51h3.48a.49.49 0 0 1 .5.51v12.25a.48.48 0 0 1-.5.51h-2.83a.52.52 0 0 1-.53-.51v-6.47c0-.26-.3-.28-.37-.05l-2.32 6.52a.78.78 0 0 1-.71.51H189a.77.77 0 0 1-.68-.51l-2.29-6.52c-.08-.23-.38-.18-.35.07v6.45a.51.51 0 0 1-.51.51H184a.48.48 0 0 1-.5-.51zm18.28 0a5 5 0 0 0-1.38-2.09c-.31-.3-.18-.61.2-.61H204c.51 0 .86.11 1 .51l2.5 6.8a.2.2 0 0 0 .18.18c.1 0 .15-.07.17-.18l2.5-6.8c.12-.4.27-.51.73-.51h1.44c.3 0 .37.23.27.51l-6.19 16.67c-.15.4-.26.5-.73.5h-1.42c-.35 0-.48-.23-.37-.5l1.41-3.61a1 1 0 0 0 0-1zm24.79-2.67a.55.55 0 0 1 .53.53V39a.55.55 0 0 1-.53.53h-2.8a.55.55 0 0 1-.55-.53v-6.87c0-.2-.18-.25-.28-.07l-3.8 7c-.16.28-.33.46-.61.46h-2.75a.55.55 0 0 1-.53-.53V29a3.16 3.16 0 0 0-.58-2.09c-.22-.33-.12-.61.16-.61h3.7a.57.57 0 0 1 .58.53v6.91c0 .2.18.25.28.08l3.8-7.06c.16-.28.33-.46.61-.46zm-9.8-4.16a.49.49 0 0 1 .3-.62l1.59-.56a.37.37 0 0 1 .5.25c.33 1.06 1 2.17 1.89 2.17s1.56-1.11 1.89-2.17a.38.38 0 0 1 .51-.25l1.58.56a.5.5 0 0 1 .31.62 4.56 4.56 0 0 1-8.57 0zM240.91 39a.55.55 0 0 1-.56.53h-2.77a.55.55 0 0 1-.53-.53V29a3.16 3.16 0 0 0-.58-2.09c-.22-.33-.12-.61.15-.61h3.73a.57.57 0 0 1 .56.56v4.18c0 .23.07.33.25.33a.62.62 0 0 0 .5-.3l3.66-4.26c.35-.4.58-.51.86-.51h1.94c.33 0 .4.31.15.61l-3.93 4.64a.43.43 0 0 0 0 .6L249.4 39a.31.31 0 0 1-.22.53h-3a1.29 1.29 0 0 1-1.16-.51l-3.43-4.89a.52.52 0 0 0-.47-.27c-.13 0-.23.1-.23.35zm14.18 4.42a.57.57 0 0 1-.58.56h-2.68a.57.57 0 0 1-.58-.56V29.06a3.11 3.11 0 0 0-.58-2.09c-.22-.33-.12-.61.16-.61h3.45a.55.55 0 0 1 .55.55v.38c0 .46.28.43.58.18A6.13 6.13 0 0 1 259.5 26c3.78 0 6.35 3.12 6.35 7s-2.57 7-6.35 7a6 6 0 0 1-3.88-1.31c-.36-.28-.53 0-.53.1zm0-12v3.08a2.13 2.13 0 0 0 .27 1 3.66 3.66 0 0 0 3.08 2c1.94 0 3.45-1.72 3.45-4.57s-1.51-4.53-3.45-4.53a3.74 3.74 0 0 0-3.08 2 2.09 2.09 0 0 0-.27 1.05zM267.58 29a5 5 0 0 0-1.38-2.09c-.31-.3-.18-.61.2-.61h3.42c.51 0 .86.11 1 .51l2.5 6.8a.2.2 0 0 0 .17.18c.11 0 .16-.07.18-.18l2.5-6.8c.12-.4.27-.51.73-.51h1.43c.31 0 .38.23.28.51l-6.17 16.64c-.16.4-.26.5-.74.5h-1.4c-.35 0-.48-.23-.37-.5l1.41-3.61a1 1 0 0 0 0-1zM291 26.33a.55.55 0 0 1 .53.53l.2 1.57c.05.32-.23.43-.58.3a5.38 5.38 0 0 0-2.09-.35h-.76a.56.56 0 0 0-.55.58V39a.56.56 0 0 1-.56.53h-2.77a.55.55 0 0 1-.53-.53V29a.56.56 0 0 0-.56-.58h-.75a5.29 5.29 0 0 0-2.09.35c-.36.13-.63 0-.58-.3l.2-1.57c.05-.3.22-.53.53-.53zm2.72 2.67a3.16 3.16 0 0 0-.58-2.09c-.23-.33-.13-.61.15-.61H297a.57.57 0 0 1 .56.56V39a.56.56 0 0 1-.56.53h-2.77a.55.55 0 0 1-.53-.53zm4.11-6a2.27 2.27 0 1 1-2.27-2.25 2.26 2.26 0 0 1 2.27 2.31zM139.76 69.28a.55.55 0 0 1-.55.53h-2.77a.55.55 0 0 1-.53-.53v-10a3.16 3.16 0 0 0-.58-2.09c-.23-.33-.13-.61.15-.61h3.73a.56.56 0 0 1 .55.56v4.18c0 .23.08.33.26.33a.64.64 0 0 0 .5-.3l3.66-4.26c.35-.4.58-.51.85-.51H147c.33 0 .41.31.15.61l-3.93 4.64a.43.43 0 0 0 0 .6l5.07 6.86a.31.31 0 0 1-.23.53h-3a1.28 1.28 0 0 1-1.16-.51l-3.43-4.89a.52.52 0 0 0-.48-.27c-.12 0-.23.1-.23.35zm10.35-10.01a3.16 3.16 0 0 0-.58-2.09c-.23-.33-.13-.61.15-.61h3.73a.57.57 0 0 1 .56.56v12.15a.56.56 0 0 1-.56.53h-2.77a.55.55 0 0 1-.53-.53zm4.11-6a2.27 2.27 0 1 1-2.22-2.22 2.26 2.26 0 0 1 2.22 2.25zm6.31 3.3a.57.57 0 0 1 .58.53v4.34a.52.52 0 0 0 .53.58h3a.56.56 0 0 0 .56-.58V57.1a.56.56 0 0 1 .55-.53h2.8a.55.55 0 0 1 .53.53v12.18a.55.55 0 0 1-.53.53h-2.8a.55.55 0 0 1-.55-.53v-4.64a.56.56 0 0 0-.56-.58h-3a.52.52 0 0 0-.53.58v4.64a.56.56 0 0 1-.58.53h-2.75a.55.55 0 0 1-.53-.53v-10a3.16 3.16 0 0 0-.58-2.09c-.22-.33-.12-.61.15-.61zm26.04 6.63c0 4-3 7-7.49 7s-7.46-3-7.46-7 3-7 7.46-7 7.49 3 7.49 7zm-4 0c0-2.84-1.48-4.91-3.5-4.91s-3.48 2.07-3.48 4.91 1.51 4.89 3.48 4.89 3.51-2.09 3.51-4.89zm6.09-1.41a.61.61 0 0 1 .58-.58H196a.68.68 0 0 1 .6.58v.88a.7.7 0 0 1-.6.61h-6.73a.63.63 0 0 1-.58-.61zm21.75-5.22a.55.55 0 0 1 .53.53v12.18a.55.55 0 0 1-.53.53h-2.8a.55.55 0 0 1-.55-.53V59.2a.56.56 0 0 0-.56-.58h-3a.51.51 0 0 0-.53.58v10.08a.56.56 0 0 1-.58.53h-2.75a.55.55 0 0 1-.53-.53v-10a3.16 3.16 0 0 0-.58-2.09c-.22-.33-.12-.61.15-.61zm7.7 17.1a.56.56 0 0 1-.58.55h-2.67a.56.56 0 0 1-.58-.55V59.3a3.17 3.17 0 0 0-.58-2.09c-.23-.33-.13-.61.15-.61h3.45a.56.56 0 0 1 .56.55v.38c0 .46.27.43.57.18a6.13 6.13 0 0 1 4.09-1.46c3.78 0 6.35 3.12 6.35 7s-2.57 7-6.35 7a6 6 0 0 1-3.88-1.31c-.36-.28-.53 0-.53.1zm0-12v3a2.13 2.13 0 0 0 .27 1 3.67 3.67 0 0 0 3.08 2c1.94 0 3.45-1.72 3.45-4.57s-1.51-4.53-3.45-4.53a3.74 3.74 0 0 0-3.08 2 2.09 2.09 0 0 0-.27 1.12zm24.54-5.1a.55.55 0 0 1 .53.53v12.18a.55.55 0 0 1-.53.53h-2.8a.55.55 0 0 1-.55-.53v-6.91c0-.2-.18-.25-.28-.07l-3.8 7c-.16.28-.33.46-.61.46h-2.75a.55.55 0 0 1-.53-.53v-10a3.16 3.16 0 0 0-.58-2.09c-.22-.33-.12-.61.16-.61h3.7a.57.57 0 0 1 .58.53V64c0 .2.18.25.28.08l3.8-7.06c.16-.28.33-.46.61-.46zm5.05 3a.42.42 0 0 1-.73 0l-.56-1.13a.64.64 0 0 1 .08-.84 6 6 0 0 1 4-1.41c2.8 0 4.58 1.64 4.58 3.43a3.38 3.38 0 0 1-1.46 2.8c-.22.15-.2.28 0 .38a3.61 3.61 0 0 1 2.22 3.22c0 2.3-2.24 4.11-5.09 4.11s-4.61-1.13-5.45-2.49c-.07-.16-.12-.41.31-.63l.88-.48c.33-.18.55.1.7.3a3.26 3.26 0 0 0 2.45 1.23 2 2 0 0 0 2.17-2.29 1.83 1.83 0 0 0-2-2h-.41c-.35 0-.65-.1-.65-.48v-1a.57.57 0 0 1 .55-.53h.4a1.59 1.59 0 0 0 1.54-1.79 1.48 1.48 0 0 0-1.61-1.64 2.27 2.27 0 0 0-1.92 1.24zm21.89-3a.55.55 0 0 1 .53.53v12.18a.55.55 0 0 1-.53.53h-2.8a.55.55 0 0 1-.55-.53v-6.91c0-.2-.18-.25-.28-.07l-3.81 7c-.15.28-.32.46-.6.46h-2.75a.55.55 0 0 1-.53-.53v-10a3.16 3.16 0 0 0-.58-2.09c-.22-.33-.12-.61.15-.61h3.71a.57.57 0 0 1 .58.53V64c0 .2.18.25.28.08l3.8-7.06c.15-.28.33-.46.61-.46zm8.56 11.35a2.27 2.27 0 1 1-2.27-2.25 2.26 2.26 0 0 1 2.27 2.25zm-4.49-15a.91.91 0 0 1 .94-.78h2.54c.63 0 1 .36 1 .78l-.71 10.57a.88.88 0 0 1-1 .78h-1.13a.85.85 0 0 1-1-.78z" fill="#fff"/></g></g></svg>