<svg xmlns="http://www.w3.org/2000/svg" xmlns:xlink="http://www.w3.org/1999/xlink" viewBox="0 0 994 326.11"><defs><linearGradient id="a" x1="49.93" y1="289.38" x2="49.93" y2="93.79" gradientUnits="userSpaceOnUse"><stop offset="0" stop-color="#fff"/><stop offset="0.25" stop-color="#00a3e2"/><stop offset="0.5" stop-color="#2371b9"/><stop offset="0.58" stop-color="#1a558b"/><stop offset="0.68" stop-color="#113759"/><stop offset="0.78" stop-color="#0a1f33"/><stop offset="0.87" stop-color="#040e17"/><stop offset="0.94" stop-color="#010406"/><stop offset="1"/></linearGradient><linearGradient id="b" x1="161.78" y1="289.38" x2="161.78" y2="93.79" xlink:href="#a"/><linearGradient id="c" x1="267.82" y1="289.38" x2="267.82" y2="93.79" xlink:href="#a"/><linearGradient id="d" x1="361.01" y1="289.38" x2="361.01" y2="93.79" xlink:href="#a"/><linearGradient id="e" x1="458.75" y1="289.38" x2="458.75" y2="93.79" xlink:href="#a"/><linearGradient id="f" x1="587.18" y1="289.38" x2="587.18" y2="93.79" xlink:href="#a"/><linearGradient id="g" x1="716.34" y1="289.38" x2="716.34" y2="93.79" xlink:href="#a"/><linearGradient id="h" x1="828.19" y1="289.38" x2="828.19" y2="93.79" xlink:href="#a"/><linearGradient id="i" x1="940.04" y1="289.38" x2="940.04" y2="93.79" xlink:href="#a"/><linearGradient id="j" x1="49.93" y1="-31.87" x2="49.93" y2="330.19" gradientUnits="userSpaceOnUse"><stop offset="0" stop-color="#fff"/><stop offset="0.05" stop-color="#fffffc"/><stop offset="0.1" stop-color="#fffef1"/><stop offset="0.14" stop-color="#fffce0"/><stop offset="0.18" stop-color="#fff9c8"/><stop offset="0.22" stop-color="#fef6a8"/><stop offset="0.25" stop-color="#fef181"/><stop offset="0.29" stop-color="#feec53"/><stop offset="0.33" stop-color="#fde720"/><stop offset="0.33" stop-color="#fde619"/><stop offset="1" stop-color="#fcc403"/></linearGradient><linearGradient id="k" x1="161.78" y1="-31.87" x2="161.78" y2="330.19" xlink:href="#j"/><linearGradient id="l" x1="267.82" y1="-31.87" x2="267.82" y2="330.19" xlink:href="#j"/><linearGradient id="m" x1="361.01" y1="-31.87" x2="361.01" y2="330.19" xlink:href="#j"/><linearGradient id="n" x1="458.75" y1="-31.87" x2="458.75" y2="330.19" xlink:href="#j"/><linearGradient id="o" x1="587.18" y1="-31.87" x2="587.18" y2="330.19" xlink:href="#j"/><linearGradient id="p" x1="716.34" y1="-31.87" x2="716.34" y2="330.19" xlink:href="#j"/><linearGradient id="q" x1="828.19" y1="-31.87" x2="828.19" y2="330.19" xlink:href="#j"/><linearGradient id="r" x1="940.04" y1="-31.87" x2="940.04" y2="330.19" xlink:href="#j"/></defs><title>hollywood</title><g style="isolation:isolate"><rect x="-2405.45" y="-1631.44" width="5093.24" height="4066.8" fill="none"/><rect x="-818.83" y="-163.04" width="1920" height="1080" fill="none"/><g opacity="0.68" style="mix-blend-mode:multiply"><path d="M96.49,307.48H61.61V243.39H38.24v64H3.37V144.62H38.24v63.9H61.61V144.71H96.49Z" fill="url(#a)"/><path d="M208.34,302.8,185,326.11h-46.5l-23.3-23.31V186.37l23.3-23.31H185l23.31,23.31ZM150.09,198.12v93.11h23.37V198.12Z" fill="url(#b)"/><path d="M308.58,195.57H261.94V323.91H227.07V160.69h81.51Z" fill="url(#c)"/><path d="M401.76,195.57H355.12V323.91H320.25V160.69h81.51Z" fill="url(#d)"/><path d="M476.24,309.85l-17.49-45.5-17.38,45.5h-35l35-86.2V147h34.87v76.66l34.92,86.2Z" fill="url(#e)"/><path d="M629,305.11l-18.65-90.19-14,90.19H577.74l-14-90.19-18.66,90.19H510.4l30.15-162.86h37.2l9.32,54,9.33-54h37.31L664,305.11Z" fill="url(#f)"/><path d="M762.9,302.8l-23.3,23.31h-46.5L669.78,302.8V186.37l23.31-23.31h46.5l23.3,23.31ZM704.66,198.12v93.11H728V198.12Z" fill="url(#g)"/><path d="M874.75,302.8l-23.3,23.31H804.94L781.63,302.8V186.37l23.31-23.31h46.51l23.3,23.31ZM816.5,198.12v93.11h23.37V198.12Z" fill="url(#h)"/><path d="M986.59,288.74,963.28,312h-69.8V149.37h69.8l23.31,23ZM928.35,184.06v93.12h23.37V184.06Z" fill="url(#i)"/></g><path d="M96.49,181.4H61.61V117.58H38.24v63.9H3.37V18.66H38.24v64H61.61V18.62H96.49Z" fill="url(#j)"/><path d="M208.34,139.74,185,163h-46.5l-23.3-23.31V23.31L138.52,0H185l23.31,23.31ZM173.46,128V34.88H150.09V128Z" fill="url(#k)"/><path d="M308.58,165.42H227.07V2.2h34.87V130.54h46.64Z" fill="url(#l)"/><path d="M401.76,165.42H320.25V2.2h34.87V130.54h46.64Z" fill="url(#m)"/><path d="M511.17,16.25l-34.92,86.21v76.66H441.37V102.46l-35-86.21h35l17.38,45.49,17.49-45.49Z" fill="url(#n)"/><path d="M664,21,633.71,183.86H596.4l-9.33-54-9.32,54h-37.2L510.4,21h34.7l18.66,90.18,14-90.18H596.4l14,90.18L629,21Z" fill="url(#o)"/><path d="M762.9,139.74,739.6,163h-46.5l-23.31-23.31V23.31L693.09,0h46.5l23.3,23.31ZM728,128V34.88H704.66V128Z" fill="url(#p)"/><path d="M874.75,139.74,851.44,163H804.94l-23.31-23.31V23.31L804.94,0h46.51l23.3,23.31ZM839.87,128V34.88H816.5V128Z" fill="url(#q)"/><path d="M986.59,153.77l-23.31,23h-69.8V14.06h69.8l23.31,23.31ZM951.72,142V48.93H928.35V142Z" fill="url(#r)"/></g></svg>