<svg xmlns="http://www.w3.org/2000/svg" viewBox="0 0 617.51 611.42"><title>lg-bg-01</title><path d="M327.58,1507.39c-7.94,0-16.05-.1-24.11-.3-8.08.2-16.22.3-24.18.3-10.67,0-21.57-.18-32.39-.54-10.83.36-21.73.54-32.4.54-383.93,0-725.29-214.58-890.87-560-35.86-74-64.32-162.42-80.17-248.92-46.7-116.62-71.38-244.06-71.38-368.63v-148c0-544.9,443.31-988.2,988.2-988.2H439.73c544.9,0,988.2,443.31,988.2,988.2v148c0,102.86-20.36,221.28-55.87,325-14.89,77.34-40.46,158.37-72,228.31C1155.24,1262,797.88,1506.75,389.52,1506.75h-3.87c-4,0-8,0-11.95-.08s-7.67.07-11.41.08C347.54,1507.28,335.28,1507.39,327.58,1507.39Z" fill="#00a3e2"/><path d="M327.58,1494.89c-7.94,0-16.05-.1-24.11-.3-8.09.2-16.22.3-24.18.3-10.68,0-21.58-.18-32.39-.54-10.82.36-21.72.54-32.4.54-379.08,0-716.12-211.86-879.6-552.9-35.59-73.48-63.76-161.17-79.38-247-46.42-115.48-70.95-241.71-70.95-365.14v-148c0-538,437.7-975.7,975.7-975.7H439.72c538,0,975.7,437.7,975.7,975.7v148c0,101.86-20.22,219.09-55.48,321.81-14.72,76.82-40.08,157.28-71.47,226.72-142.85,374.15-495.67,615.88-899,615.88h-3.87c-4,0-8,0-11.95-.08s-7.78.08-11.63.08C347.41,1494.78,335.23,1494.89,327.58,1494.89Z" fill="#2371b9"/><path d="M327.58,1482.39c-7.95,0-16.06-.1-24.12-.31-8.11.2-16.24.31-24.18.31-10.69,0-21.58-.18-32.39-.55-10.82.36-21.72.55-32.4.55-374.22,0-706.95-209.14-868.33-545.8-35.31-72.92-63.2-159.92-78.58-245.08-46.14-114.33-70.52-239.37-70.52-361.66v-148c0-531.11,432.09-963.2,963.2-963.2H439.71c531.11,0,963.2,432.09,963.2,963.2v148c0,100.85-20.07,216.91-55.09,318.59-14.54,76.29-39.7,156.2-70.9,225.13C1136,1243,787.72,1481.75,389.5,1481.75h-3.87c-4,0-8,0-11.95-.08s-7.92.08-11.85.08C347.27,1482.28,335.18,1482.39,327.58,1482.39Z" fill="#00a3e2"/><path d="M327.58,1469.89c-8,0-16.07-.1-24.11-.31-8.1.21-16.24.31-24.18.31-10.68,0-21.57-.19-32.39-.56-10.82.37-21.72.56-32.4.56-369.37,0-697.77-206.42-857-538.71-35-72.35-62.64-158.67-77.77-243.16-45.86-113.19-70.1-237-70.1-358.17v-148c0-524.22,426.48-950.7,950.7-950.7H439.73c524.22,0,950.7,426.48,950.7,950.7v148c0,99.84-19.93,214.73-54.7,315.37-14.36,75.77-39.32,155.1-70.33,223.54-139,364.82-482.73,600.49-875.87,600.49h-3.87c-4,0-8,0-12-.08s-8,.08-11.93.08h-.15C347.13,1469.78,335.12,1469.89,327.58,1469.89Z" fill="#2371b9"/><path d="M327.58,1457.39c-8,0-16.09-.11-24.11-.31-8.08.21-16.21.31-24.18.31-10.69,0-21.58-.19-32.39-.56-10.82.37-21.72.56-32.4.56-364.51,0-688.6-203.7-845.78-531.61-34.76-71.78-62.08-157.42-77-241.25-45.58-112-69.67-234.67-69.67-354.68v-148c0-517.33,420.88-938.2,938.2-938.2H439.73c517.33,0,938.2,420.88,938.2,938.2v148c0,98.83-19.79,212.54-54.31,312.15-14.18,75.24-38.94,154-69.76,222-137,360.11-476.26,592.8-864.33,592.8h-3.87c-4,0-8.06,0-12-.08s-7.95.08-11.93.08h-.36C347,1457.28,335.07,1457.39,327.58,1457.39Z" fill="#00a3e2"/><path d="M327.58,1444.89c-8,0-16.1-.11-24.11-.32-8.08.21-16.21.32-24.18.32-10.69,0-21.58-.19-32.39-.57-10.82.38-21.71.57-32.4.57-359.66,0-679.43-201-834.51-524.51-34.49-71.21-61.52-156.17-76.16-239.33-45.31-110.91-69.25-232.32-69.25-351.2v-148c0-510.43,415.27-925.7,925.7-925.7H439.73c510.43,0,925.7,415.27,925.7,925.7v148c0,97.82-19.65,210.37-53.93,308.93-14,74.72-38.56,152.92-69.2,220.37-135.08,355.45-469.77,585.12-852.78,585.12h-3.87c-4.06,0-8.07,0-11.94-.08s-7.93.08-11.93.08h-.58C346.87,1444.78,335,1444.89,327.58,1444.89Z" fill="#2371b9"/><path d="M327.58,1432.39c-8,0-16.09-.11-24.11-.32-8.05.21-16.18.32-24.18.32-10.7,0-21.59-.2-32.39-.58-10.8.38-21.7.58-32.4.58-354.81,0-670.25-198.26-823.24-517.42-34.21-70.65-61-154.92-75.36-237.42-45-109.77-68.83-230-68.83-347.71v-148c0-503.54,409.66-913.2,913.2-913.2H439.72c503.54,0,913.2,409.66,913.2,913.2v148c0,96.82-19.51,208.19-53.54,305.71-13.82,74.19-38.18,151.83-68.63,218.78-133.12,350.78-463.29,577.42-841.24,577.42h-3.87c-4.05,0-8.07,0-11.94-.08s-7.94.08-11.94.08H361C346.73,1432.28,335,1432.39,327.58,1432.39Z" fill="#00a3e2"/><path d="M327.58,1419.89c-8,0-16.09-.11-24.11-.33-8.05.22-16.18.33-24.18.33-10.69,0-21.59-.2-32.39-.59-10.81.39-21.71.59-32.4.59-349.95,0-661.08-195.54-812-510.32-33.94-70.08-60.4-153.68-74.55-235.5-44.76-108.62-68.41-227.62-68.41-344.22v-148c0-496.65,404-900.7,900.7-900.7H439.72c496.65,0,900.7,404.05,900.7,900.7v148c0,95.81-19.37,206-53.16,302.49-13.64,73.66-37.79,150.74-68,217.19C1088,1195.64,762.4,1419.26,389.51,1419.26h-3.87c-4,0-8,0-11.95-.08s-7.91.08-11.93.08h-1C346.61,1419.78,334.92,1419.89,327.58,1419.89Z" fill="#2371b9"/><path d="M327.58,1407.39c-8,0-16.1-.11-24.11-.33-8,.22-16.18.33-24.18.33-10.7,0-21.59-.2-32.38-.59-10.8.39-21.7.59-32.4.59-345.1,0-651.91-192.82-800.69-503.22-33.67-69.52-59.84-152.44-73.74-233.58-44.49-107.48-68-225.26-68-340.73v-148c0-489.76,398.45-888.2,888.2-888.2H439.74c489.76,0,888.2,398.45,888.2,888.2v148c0,94.81-19.23,203.82-52.77,299.26-13.46,73.14-37.41,149.65-67.48,215.6-129.24,341.46-450.33,562.05-818.15,562.05h-3.87c-4,0-8.05,0-11.95-.08s-7.9.08-11.93.08h-1.24C346.49,1407.28,334.87,1407.39,327.58,1407.39Z" fill="#00a3e2"/><path d="M327.58,1394.89c-8,0-16.09-.11-24.12-.34-8,.22-16.18.34-24.18.34-10.7,0-21.6-.2-32.38-.6-10.8.4-21.7.6-32.4.6-340.24,0-642.73-190.1-789.42-496.13-33.39-69-59.28-151.19-72.92-231.67C-692,560.76-715.42,444.18-715.42,329.84v-148c0-482.86,392.84-875.7,875.7-875.7H439.73c482.86,0,875.7,392.84,875.7,875.7v148c0,93.8-19.09,201.64-52.39,296-13.28,72.62-37,148.56-66.91,214-127.3,336.79-443.86,554.36-806.61,554.36h-3.87c-4,0-8,0-11.95-.08s-7.92.08-11.93.08h-1.46C346.37,1394.78,334.83,1394.89,327.58,1394.89Z" fill="#2371b9"/><path d="M327.58,1382.39c-8,0-16.09-.12-24.12-.34-8,.23-16.18.34-24.18.34-10.71,0-21.6-.21-32.38-.61-10.8.41-21.7.61-32.4.61-335.39,0-633.56-187.39-778.15-489-33.12-68.39-58.71-149.94-72.11-229.75-43.94-105.18-67.17-220.56-67.17-333.76v-148c0-476,387.23-863.2,863.2-863.2H439.72c476,0,863.2,387.23,863.2,863.2v148c0,92.8-19,199.46-52,292.82-13.09,72.09-36.63,147.47-66.33,212.42-125.36,332.1-437.39,546.67-795.06,546.67h-3.87c-4,0-8.06,0-11.95-.09s-7.89.09-11.93.09h-1.68C346.25,1382.28,334.78,1382.39,327.58,1382.39Z" fill="#00a3e2"/><path d="M327.58,1369.89c-8,0-16.1-.12-24.12-.35-8,.23-16.17.35-24.17.35-10.71,0-21.6-.21-32.38-.62-10.8.41-21.7.62-32.4.62-330.54,0-624.39-184.67-766.88-481.93-32.85-67.83-58.15-148.71-71.29-227.84-43.68-104-66.76-218.2-66.76-330.27v-148c0-469.08,381.62-850.7,850.7-850.7H439.73c469.08,0,850.7,381.62,850.7,850.7v148c0,91.79-18.81,197.29-51.63,289.59C1225.89,691,1202.56,765.81,1173,830.26c-123.4,327.43-430.9,539-783.52,539h-3.87c-4,0-8.06,0-11.95-.09s-7.89.09-11.93.09h-1.91C346.13,1369.78,334.74,1369.89,327.58,1369.89Z" fill="#2371b9"/><path d="M327.58,1357.39c-8,0-16.09-.12-24.12-.35-8,.23-16.18.35-24.17.35-10.71,0-21.61-.21-32.38-.63-10.79.42-21.69.63-32.4.63-325.68,0-615.21-182-755.61-474.84-32.58-67.27-57.59-147.46-70.47-225.93C-655,553.73-677.92,440.77-677.92,329.84v-148c0-462.19,376-838.2,838.2-838.2H439.73c462.19,0,838.2,376,838.2,838.2v148c0,90.79-18.67,195.1-51.25,286.37-12.72,71-35.85,145.29-65.18,209.24-121.45,322.77-424.42,531.3-772,531.3h-3.87c-4,0-8,0-11.95-.09s-7.91.09-11.93.09h-2.14C346,1357.28,334.69,1357.39,327.58,1357.39Z" fill="#00a3e2"/><path d="M327.58,1344.89c-8,0-16.09-.12-24.12-.36-8,.24-16.18.36-24.18.36-10.65,0-21.49-.21-32.2-.63h-.36c-10.73.42-21.57.63-32.22.63-320.83,0-606-179.23-744.33-467.74-32.31-66.71-57-146.22-69.64-224-43.15-101.75-65.95-213.49-65.95-323.29v-148c0-455.29,370.41-825.7,825.7-825.7H439.73c455.29,0,825.7,370.41,825.7,825.7v148c0,89.79-18.54,192.93-50.87,283.14C1202,683.5,1179.11,757.19,1150,820.64,1030.44,1138.75,732,1344.25,389.52,1344.25h-3.87c-4,0-8,0-11.95-.09s-7.95.09-11.93.09H359.4C345.88,1344.78,334.64,1344.89,327.58,1344.89Z" fill="#2371b9"/><path d="M327.58,1332.39c-8,0-16.09-.12-24.12-.36-8,.24-16.18.36-24.17.36-10.57,0-21.32-.21-32-.63h-.85c-10.65.42-21.41.63-32,.63-316,0-596.87-176.51-733.06-460.64-32-66.15-56.46-145-68.82-222.1-42.89-100.6-65.54-211.14-65.54-319.79v-148c0-448.4,364.8-813.2,813.2-813.2H439.73c448.4,0,813.2,364.8,813.2,813.2v148c0,88.79-18.4,190.75-50.5,279.92-12.34,70-35,143.11-64,206.07-117.57,313.45-411.47,515.93-748.88,515.93h-3.87c-4,0-8,0-11.95-.09s-7.95.09-11.93.09h-2.61C345.74,1332.28,334.59,1332.39,327.58,1332.39Z" fill="#00a3e2"/><path d="M327.58,1319.89c-8,0-16.08-.12-24.12-.37-8.06.25-16.19.37-24.17.37-10.49,0-21.15-.21-31.71-.63h-1.34c-10.57.42-21.25.63-31.73.63-311.12,0-587.69-173.79-721.79-453.55-31.76-65.59-55.89-143.74-68-220.19-42.62-99.44-65.15-208.78-65.15-316.3v-148c0-441.51,359.19-800.7,800.7-800.7H439.73c441.51,0,800.7,359.19,800.7,800.7v148c0,87.79-18.26,188.57-50.12,276.69-12.15,69.47-34.66,142-63.45,204.48-115.62,308.75-405,508.24-737.34,508.24h-3.87c-4,0-8,0-11.95-.09s-8,.09-11.93.09h-2.85C345.61,1319.78,334.54,1319.89,327.58,1319.89Z" fill="#2371b9"/><path d="M327.58,1307.39c-8,0-16.08-.13-24.12-.38-8.06.25-16.19.38-24.17.38-10.4,0-21-.21-31.46-.63H246c-10.49.42-21.08.63-31.48.63C-91.75,1307.39-364,1136.32-496,860.94c-31.49-65-55.32-142.5-67.15-218.28-42.36-98.29-64.75-206.42-64.75-312.81v-148c0-434.62,353.59-788.2,788.2-788.2H439.74c434.62,0,788.2,353.59,788.2,788.2v148c0,86.79-18.13,186.39-49.75,273.47-12,69-34.26,140.93-62.87,202.89-113.67,304.09-398.51,500.56-725.79,500.56h-3.87c-4,0-8,0-12-.09s-8,.09-11.93.09h-3.09C345.47,1307.28,334.49,1307.39,327.58,1307.39Z" fill="#00a3e2"/><path d="M327.58,1294.89c-8,0-16.07-.13-24.12-.38-8.07.25-16.2.38-24.18.38-10.32,0-20.82-.21-31.21-.63h-2.34c-10.41.42-20.92.63-31.23.63-301.41,0-569.34-168.35-699.25-439.35-31.22-64.47-54.76-141.26-66.32-216.37a784,784,0,0,1-64.36-309.32v-148c0-427.72,348-775.7,775.7-775.7H439.72c427.72,0,775.7,348,775.7,775.7v148c0,85.79-18,184.22-49.37,270.24-11.76,68.43-33.85,139.85-62.28,201.3-111.73,299.43-392,492.87-714.25,492.87h-3.87c-3.93,0-7.95,0-11.95-.09s-8,.09-11.93.09h-3.33C345.33,1294.78,334.43,1294.89,327.58,1294.89Z" fill="#2371b9"/><path d="M327.58,1282.39c-8,0-16.07-.13-24.12-.39-8.07.26-16.2.39-24.18.39-10.23,0-20.64-.21-31-.63h-2.85c-10.33.42-20.75.63-31,.63-296.55,0-560.17-165.63-688-432.26-30.95-63.91-54.19-140-65.48-214.46a771.11,771.11,0,0,1-64-305.82v-148c0-420.83,342.37-763.2,763.2-763.2H439.71c420.83,0,763.2,342.37,763.2,763.2v148c0,84.79-17.85,182-49,267-11.56,67.9-33.45,138.76-61.7,199.71-109.78,294.75-385.55,485.19-702.71,485.19h-3.87c-3.92,0-7.94,0-11.95-.1s-8,.1-11.93.1h-3.58C345.2,1282.28,334.38,1282.39,327.58,1282.39Z" fill="#00a3e2"/><path d="M327.58,1269.89c-7.94,0-16.05-.13-24.12-.39-8.09.26-16.22.39-24.17.39-10.15,0-20.47-.21-30.7-.63h-3.36c-10.25.42-20.58.63-30.72.63-291.7,0-551-162.91-676.7-425.16-30.68-63.36-53.62-138.79-64.64-212.55a758.47,758.47,0,0,1-63.58-302.33v-148c0-413.94,336.76-750.7,750.7-750.7H439.74c413.94,0,750.7,336.76,750.7,750.7v148c0,83.79-17.72,179.86-48.63,263.79-11.36,67.39-33,137.67-61.11,198.12-107.82,290.09-379.06,477.51-691.16,477.51h-3.87c-3.94,0-8,0-11.95-.1s-8,.1-11.93.1H358C345.06,1269.78,334.33,1269.89,327.58,1269.89Z" fill="#2371b9"/><path d="M327.58,1257.39c-7.94,0-16.05-.13-24.12-.4-8.08.27-16.22.4-24.17.4-10.06,0-20.3-.21-30.44-.63H245c-10.16.42-20.41.63-30.47.63-286.84,0-541.82-160.19-665.43-418.06-30.41-62.8-53.05-137.56-63.79-210.65a745.66,745.66,0,0,1-63.2-298.83v-148c0-407,331.16-738.2,738.2-738.2H439.74c407,0,738.2,331.16,738.2,738.2v148c0,82.79-17.58,177.69-48.27,260.56C1118.51,657.26,1097,727,1069.15,786.93c-105.87,285.43-372.58,469.82-679.61,469.82h-3.87c-3.92,0-7.94,0-11.95-.1s-8,.1-11.93.1h-4.07C344.92,1257.28,334.28,1257.39,327.58,1257.39Z" fill="#00a3e2"/><path d="M327.58,1244.89c-7.93,0-16-.14-24.12-.41-8.1.27-16.23.41-24.18.41-10,0-20.13-.21-30.18-.63h-4.39c-10.08.42-20.24.63-30.21.63-282,0-532.65-157.47-654.16-411-30.14-62.24-52.48-136.32-62.94-208.74a732.74,732.74,0,0,1-62.83-295.33v-148c0-400.15,325.55-725.7,725.7-725.7H439.72c400.15,0,725.7,325.55,725.7,725.7v148c0,81.79-17.45,175.51-47.9,257.33-11,66.34-32.22,135.49-59.93,194.94-103.93,280.77-366.1,462.14-668.07,462.14h-3.87c-3.91,0-7.93,0-11.95-.1s-8,.1-11.93.1h-4.32C344.79,1244.78,334.23,1244.89,327.58,1244.89Z" fill="#2371b9"/><path d="M327.58,1232.39c-7.94,0-16.05-.14-24.12-.41-8.09.27-16.22.41-24.18.41-9.88,0-19.95-.21-29.92-.63h-4.91c-10,.42-20.07.63-29.95.63-277.13,0-523.47-154.75-642.89-403.87-29.87-61.69-51.9-135.09-62.09-206.84a720.07,720.07,0,0,1-62.45-291.83v-148c0-393.26,319.94-713.2,713.2-713.2H439.72c393.26,0,713.2,319.94,713.2,713.2v148c0,80.8-17.32,173.34-47.54,254.1-10.75,65.81-31.8,134.4-59.34,193.35-102,276.09-359.63,454.46-656.52,454.46h-3.87c-3.93,0-7.95,0-11.95-.1s-8,.1-11.93.1H357.2C344.64,1232.28,334.17,1232.39,327.58,1232.39Z" fill="#00a3e2"/><path d="M327.58,1219.89c-7.94,0-16.05-.14-24.12-.42-8.09.28-16.22.42-24.18.42-9.79,0-19.77-.21-29.66-.63h-5.43c-9.91.42-19.89.63-29.69.63-272.28,0-514.3-152-631.62-396.77-29.6-61.13-51.33-133.85-61.23-204.93a707.28,707.28,0,0,1-62.08-288.34v-148c0-386.37,314.33-700.7,700.7-700.7H439.72c386.37,0,700.7,314.33,700.7,700.7v148c0,79.8-17.19,171.16-47.18,250.87C1082.7,646,1061.86,714,1034.49,772.47c-100,271.44-353.15,446.78-645,446.78h-3.87c-3.92,0-7.94,0-11.95-.11s-8,.11-11.93.11h-4.83C344.49,1219.78,334.11,1219.89,327.58,1219.89Z" fill="#2371b9"/><path d="M327.58,1207.39c-7.95,0-16.06-.14-24.11-.43-8.08.28-16.21.43-24.18.43-9.7,0-19.59-.21-29.39-.63h-6c-9.82.42-19.72.63-29.42.63-267.43,0-505.13-149.32-620.34-389.68-29.34-60.58-50.75-132.63-60.36-203a694.54,694.54,0,0,1-61.72-284.84v-148c0-379.48,308.73-688.2,688.2-688.2H439.74c379.48,0,688.2,308.73,688.2,688.2v148c0,78.8-17.06,169-46.82,247.64-10.33,64.77-31,132.22-58.15,190.16v0c-98.1,266.72-346.72,439.07-633.42,439.07h-3.87c-3.92,0-7.94,0-11.95-.11s-8,.11-11.93.11H356.7C344.34,1207.28,334.06,1207.39,327.58,1207.39Z" fill="#00a3e2"/><path d="M327.58,1194.89c-7.94,0-16.05-.15-24.11-.44-8.08.29-16.22.44-24.18.44-9.61,0-19.41-.21-29.13-.63h-6.51c-9.73.42-19.54.63-29.15.63-262.57,0-496-146.6-609.07-382.58-29.07-60-50.18-131.4-59.49-201.12a681.66,681.66,0,0,1-61.36-281.34v-148c0-372.58,303.12-675.7,675.7-675.7H439.73c372.58,0,675.7,303.12,675.7,675.7v148c0,77.81-16.93,166.82-46.46,244.41-10.12,64.22-30.52,131.1-57.53,188.52l-.21.55C915,1025.1,670.94,1194.25,389.52,1194.25h-3.87c-3.92,0-7.95,0-11.95-.11s-8,.11-11.93.11h-5.36C344.19,1194.78,334,1194.89,327.58,1194.89Z" fill="#2371b9"/><path d="M327.58,1182.39c-7.94,0-16.05-.15-24.11-.44-8.09.29-16.22.44-24.18.44-9.52,0-19.23-.21-28.86-.63h-7.05c-9.64.42-19.36.63-28.88.63-257.72,0-486.78-143.88-597.8-375.48-28.8-59.48-49.6-130.17-58.62-199.22a668.86,668.86,0,0,1-61-277.84v-148c0-365.69,297.51-663.2,663.2-663.2H439.72c365.69,0,663.2,297.51,663.2,663.2v148c0,76.82-16.8,164.65-46.11,241.18-9.9,63.67-30.08,130-56.9,186.88l-.4,1.06c-94.42,256.84-333.85,422.79-610,422.79h-3.87c-3.9,0-7.92,0-11.95-.11s-8,.11-11.93.11h-5.63C344,1182.28,333.94,1182.39,327.58,1182.39Z" fill="#00a3e2"/><path d="M327.58,1169.89c-7.94,0-16.05-.15-24.11-.45-8.09.3-16.22.45-24.18.45-9.43,0-19.05-.21-28.59-.63h-7.6c-9.55.42-19.17.63-28.6.63-252.86,0-477.61-141.16-586.53-368.39-28.54-58.93-49-128.94-57.74-197.32a656.11,656.11,0,0,1-60.66-274.33v-148c0-358.8,291.9-650.7,650.7-650.7H439.72c358.8,0,650.7,291.9,650.7,650.7v148c0,75.83-16.67,162.48-45.76,238C1035,630.92,1015,696.62,988.39,753l-.59,1.57c-92.57,251.86-327.42,414.66-598.28,414.66h-3.87c-3.9,0-7.92,0-11.95-.11s-8,.11-11.93.11h-5.9C343.89,1169.78,333.88,1169.89,327.58,1169.89Z" fill="#2371b9"/><path d="M327.58,1157.39c-7.94,0-16.05-.16-24.11-.46-8.09.31-16.22.46-24.18.46-9.34,0-18.87-.21-28.31-.63h-8.13c-9.47.42-19,.63-28.34.63-248,0-468.43-138.44-575.26-361.29C-389,737.72-409.19,668.39-417.6,600.68a643.37,643.37,0,0,1-60.31-270.83v-148c0-351.91,286.3-638.2,638.2-638.2H439.74c351.91,0,638.2,286.3,638.2,638.2v148c0,74.84-16.54,160.3-45.41,234.72-9.45,62.58-29.18,127.7-55.64,183.58l-.77,2.05c-90.77,247-321,406.56-586.58,406.56h-3.87c-3.91,0-7.92,0-11.95-.12-4,.08-8,.12-11.93.12h-6.17C343.74,1157.28,333.82,1157.39,327.58,1157.39Z" fill="#00a3e2"/><path d="M327.58,1144.89c-7.94,0-16-.16-24.11-.47-8.09.31-16.22.47-24.18.47-9.27,0-18.7-.21-28.05-.63h-8.67c-9.39.42-18.84.63-28.07.63-243.15,0-459.26-135.72-564-354.19-28-57.8-47.86-126.5-56-193.52a630.62,630.62,0,0,1-60-267.32v-148c0-345,280.69-625.7,625.7-625.7H439.73c345,0,625.7,280.69,625.7,625.7v148c0,73.85-16.42,158.13-45.07,231.48-9.22,62-28.73,126.56-55,181.93l-1,2.57c-88.93,242-314.58,398.43-574.87,398.43h-3.87c-3.94,0-8,0-11.95-.12-4,.08-8,.12-11.93.12h-6.44C343.58,1144.78,333.77,1144.89,327.58,1144.89Z" fill="#2371b9"/><path d="M327.58,1132.39c-7.95,0-16.06-.16-24.11-.48-8.07.32-16.21.48-24.18.48-9.19,0-18.54-.21-27.8-.64h-9.17c-9.3.42-18.66.63-27.82.63-238.3,0-450.09-133-552.71-347.1-27.58-56.95-47.09-124.65-55-190.69-.11-.46-.21-.91-.32-1.37a617.87,617.87,0,0,1-59.44-263.39v-148c0-338.12,275.08-613.2,613.2-613.2H439.73c338.12,0,613.2,275.08,613.2,613.2v148c0,72.86-16.29,156-44.73,228.25-9,61.48-28.27,125.42-54.36,180.27l-1.17,3.12c-87.1,237.08-308.14,390.28-563.15,390.28h-3.87c-3.92,0-7.94,0-11.95-.12-4,.08-8,.12-11.93.12h-6.72C343.42,1132.28,333.7,1132.39,327.58,1132.39Z" fill="#00a3e2"/><path d="M327.58,1119.89c-7.95,0-16.06-.17-24.11-.49-8.07.33-16.2.49-24.19.49-9.09,0-18.36-.21-27.54-.64h-9.67c-9.22.42-18.49.64-27.57.64-233.44,0-440.91-130.28-541.44-340-27.11-56-46.24-122.53-53.89-187.44-.26-1.1-.51-2.22-.77-3.35a605.06,605.06,0,0,1-58.82-259.25v-148c0-331.23,269.47-600.7,600.7-600.7H439.73c331.23,0,600.7,269.47,600.7,600.7v148c0,71.87-16.17,153.8-44.39,225-8.75,60.93-27.8,124.28-53.71,178.6L941,737.12c-85.25,232.1-301.71,382.13-551.43,382.13h-3.87c-3.91,0-7.93,0-11.95-.12-4,.08-8,.12-11.93.12h-7C343.26,1119.78,333.64,1119.89,327.58,1119.89Z" fill="#2371b9"/><path d="M327.58,1107.39c-8,0-16.07-.17-24.11-.5-8.05.33-16.19.5-24.19.5-9,0-18.19-.21-27.29-.64H241.8c-9.13.42-18.31.64-27.31.64-228.59,0-431.74-127.56-530.17-332.9-26.64-55-45.4-120.4-52.83-184.19-.41-1.74-.82-3.53-1.23-5.33a592.44,592.44,0,0,1-58.2-255.12v-148c0-324.34,263.87-588.2,588.2-588.2H439.71c324.34,0,588.2,263.87,588.2,588.2v148c0,70.89-16.05,151.63-44.05,221.78-8.51,60.38-27.33,123.13-53.05,176.93l-1.57,4.17c-83.44,227.18-295.31,374-539.73,374h-3.87c-3.91,0-7.93,0-11.95-.13-4,.08-8,.13-11.93.13h-7.28C343.1,1107.28,333.58,1107.39,327.58,1107.39Z" fill="#00a3e2"/><path d="M327.58,1094.89c-8,0-16.07-.17-24.11-.51-8.06.34-16.2.51-24.19.51-8.93,0-18-.22-27-.64h-10.7c-9.05.42-18.15.64-27.06.64-223.73,0-422.56-124.84-518.9-325.81-26.17-54-44.55-118.28-51.77-181-.56-2.37-1.13-4.85-1.68-7.31a579.75,579.75,0,0,1-57.58-251v-148c0-317.44,258.26-575.7,575.7-575.7H439.71c317.44,0,575.7,258.26,575.7,575.7v148c0,69.91-15.93,149.46-43.72,218.54-8.27,59.83-26.85,122-52.39,175.26l-1.76,4.67c-81.63,222.26-288.91,365.93-528,365.93h-3.87c-3.91,0-7.92,0-11.95-.13-4,.08-8,.13-11.92.13h-7.55C342.94,1094.78,333.52,1094.89,327.58,1094.89Z" fill="#2371b9"/><path d="M327.58,1082.39c-7.95,0-16.06-.18-24.1-.52-8.07.35-16.2.52-24.19.52-8.84,0-17.85-.22-26.77-.64H241.31c-9,.43-18,.64-26.8.64-218.88,0-413.39-122.12-507.62-318.71-25.7-53.06-43.7-116.15-50.71-177.7-.71-3-1.44-6.16-2.13-9.29a567,567,0,0,1-57-246.84v-148c0-310.55,252.65-563.2,563.2-563.2H439.73c310.55,0,563.2,252.65,563.2,563.2v148c0,68.92-15.81,147.3-43.4,215.31-8,59.27-26.36,120.82-51.72,173.58l-1.95,5.19C826,941.26,623.35,1081.75,389.53,1081.75h-3.87c-3.9,0-7.92,0-12-.13-4,.09-8,.13-11.92.13H354C342.78,1082.28,333.46,1082.39,327.58,1082.39Z" fill="#00a3e2"/><path d="M327.58,1069.89c-7.94,0-16.05-.18-24.1-.54-8.08.36-16.21.54-24.19.54-8.76,0-17.67-.22-26.51-.64H241.06c-8.87.43-17.8.64-26.55.64-214,0-404.22-119.4-496.35-311.61-25.23-52.09-42.85-114-49.64-174.46-.87-3.64-1.75-7.49-2.58-11.28a554.3,554.3,0,0,1-56.35-242.69v-148c0-303.66,247-550.7,550.7-550.7H439.74c303.66,0,550.7,247,550.7,550.7v148c0,67.94-15.69,145.13-43.07,212.07-7.76,58.71-25.86,119.66-51,171.9l-2.15,5.7c-78,212.42-276.11,349.74-504.64,349.74h-3.87c-3.9,0-7.92,0-12-.13-4,.09-8,.13-11.92.13h-8.08C342.64,1069.77,333.4,1069.89,327.58,1069.89Z" fill="#2371b9"/><path d="M327.58,1057.39c-7.95,0-16.06-.18-24.1-.55-8.07.36-16.2.55-24.19.55-8.68,0-17.51-.22-26.25-.65l-3.66,0h-5l-3.58,0c-8.79.43-17.64.65-26.29.65-209.17,0-395-116.68-485.08-304.52-24.75-51.11-42-111.9-48.58-171.21-1-4.29-2.07-8.83-3-13.27a541.59,541.59,0,0,1-55.74-238.54v-148c0-296.77,241.44-538.2,538.2-538.2H439.74c296.77,0,538.2,241.44,538.2,538.2v148c0,67-15.57,143-42.76,208.83-7.5,58.14-25.36,118.5-50.37,170.21l-2.34,6.23c-76.21,207.5-269.72,341.64-492.94,341.64h-3.87c-3.9,0-7.92,0-12-.14-4,.09-8,.14-11.92.14h-8.35C342.49,1057.27,333.35,1057.39,327.58,1057.39Z" fill="#00a3e2"/><path d="M327.58,1044.89c-7.95,0-16.05-.19-24.1-.56-8.07.37-16.21.56-24.19.56-8.58,0-17.32-.22-26-.65l-3.92,0h-5l-3.84,0c-8.71.43-17.47.65-26,.65-204.32,0-385.87-114-473.81-297.42-24.29-50.14-41.15-109.78-47.51-168-1.19-4.92-2.38-10.14-3.47-15.26a528.92,528.92,0,0,1-55.14-234.4v-148c0-289.87,235.83-525.7,525.7-525.7H439.73c289.87,0,525.7,235.83,525.7,525.7v148c0,66-15.46,140.8-42.44,205.59C915.75,593,898.14,652.76,873.31,704l-2.54,6.76c-74.41,202.58-263.32,333.54-481.24,333.54h-3.87c-3.89,0-7.91,0-12-.14-4,.09-8,.14-11.92.14h-8.61C342.34,1044.77,333.29,1044.89,327.58,1044.89Z" fill="#2371b9"/><path d="M327.58,1032.39c-7.95,0-16.06-.19-24.1-.57-8.07.38-16.2.57-24.19.57-8.49,0-17.15-.22-25.73-.65l-4.19,0h-5l-4.1,0c-8.63.43-17.3.65-25.77.65C15,1032.39-162.2,921.14-248,742.07c-23.82-49.17-40.31-107.65-46.45-164.72-1.35-5.56-2.69-11.48-3.91-17.25a516.14,516.14,0,0,1-54.54-230.24v-148c0-283,230.22-513.2,513.2-513.2H439.71c283,0,513.2,230.22,513.2,513.2v148c0,65-15.35,138.64-42.14,202.34-7,57-24.33,116.15-49,166.82L859,706.31C786.44,904,602.12,1031.75,389.5,1031.75h-3.87c-3.91,0-7.93,0-12-.14-4,.09-8,.14-11.92.14h-8.88C342.19,1032.27,333.23,1032.39,327.58,1032.39Z" fill="#00a3e2"/><path d="M327.58,1019.89c-8,0-16.06-.2-24.1-.59-8.06.39-16.2.59-24.2.59-8.37,0-16.91-.22-25.38-.65h-.33l-4.2,0h-5l-4.19,0H240c-8.51.43-17.07.65-25.44.65C19.9,1019.89-153,911.36-236.75,736.66c-23.35-48.2-39.46-105.53-45.38-161.48-1.53-6.22-3-12.83-4.35-19.25a503.39,503.39,0,0,1-53.94-226.08v-148c0-276.09,224.61-500.7,500.7-500.7H439.73c276.09,0,500.7,224.61,500.7,500.7v148c0,64-15.24,136.48-41.84,199.1-6.69,56.43-23.8,115-48.27,165.11l-3,7.85c-70.79,192.74-250.52,317.35-457.84,317.35h-3.87c-3.92,0-7.94,0-12-.15-4,.1-8,.15-11.92.15h-9.15C342,1019.77,333.17,1019.89,327.58,1019.89Z" fill="#2371b9"/><path d="M327.58,1007.39c-8,0-16.06-.2-24.09-.6-8.06.4-16.2.6-24.2.6-8.24,0-16.65-.22-25-.65h-.7l-4.2,0h-5l-4.19,0h-.6c-8.39.43-16.82.65-25.08.65-189.75,0-358.35-105.81-440-276.13C-248.36,684-264.09,627.84-269.79,573c-1.7-6.86-3.34-14.16-4.78-21.25a490.6,490.6,0,0,1-53.34-221.93v-148c0-269.2,219-488.2,488.2-488.2H439.74c269.2,0,488.2,219,488.2,488.2v148c0,63.06-15.13,134.32-41.54,195.86-6.4,55.85-23.26,113.78-47.56,163.4l-3.16,8.41c-69,187.83-244.12,309.25-446.14,309.25h-3.87c-3.91,0-7.93,0-11.95-.15-4,.1-8,.15-11.92.15h-5.5l-3.92,0C341.88,1007.27,333.12,1007.39,327.58,1007.39Z" fill="#00a3e2"/><path d="M327.58,994.89c-8,0-16.06-.21-24.09-.62-8.06.41-16.2.62-24.2.62s-16.42-.22-24.64-.64h-1.07l-4.2,0h-5l-4.19,0h-1c-8.26.43-16.57.64-24.71.64-184.9,0-349.17-103.09-428.72-269-22.41-46.27-37.76-101.28-43.24-155-1.87-7.5-3.66-15.49-5.21-23.26a477.94,477.94,0,0,1-52.76-217.76v-148c0-262.3,213.4-475.7,475.7-475.7H439.73c262.3,0,475.7,213.4,475.7,475.7v148c0,62.08-15,132.17-41.26,192.61-6.11,55.27-22.7,112.59-46.83,161.68l-3.38,9C756.78,876,586.24,994.25,389.52,994.25h-3.87c-3.93,0-7.95,0-11.95-.16-4,.1-8,.16-11.92.16h-5.5l-4.18,0C341.72,994.77,333.05,994.89,327.58,994.89Z" fill="#2371b9"/><path d="M327.58,982.39c-7.94,0-16-.21-24-.63h-.1c-8,.42-16.17.63-24.15.63s-16.17-.22-24.27-.64h-1.44l-4.2,0h-5l-4.2,0h-1.33c-8.13.42-16.32.64-24.33.64-180,0-340-100.37-417.45-261.94-21.94-45.29-36.9-99.16-42.16-151.74-2-8.14-4-16.81-5.64-25.27a465.21,465.21,0,0,1-52.17-213.6v-148c0-255.41,207.79-463.2,463.2-463.2H439.75c255.41,0,463.2,207.79,463.2,463.2v148c0,61.12-14.92,130-41,189.36-5.81,54.69-22.14,111.38-46.09,159.95l-3.59,9.54C746.9,866.69,581,981.76,389.53,981.76h-3.87c-3.93,0-8,0-12-.16-4,.11-8,.16-11.92.16h-5.5l-4.45,0C341.57,982.27,333,982.39,327.58,982.39Z" fill="#00a3e2"/><path d="M327.58,969.89c-7.83,0-15.81-.21-23.71-.63h-.76c-7.93.42-15.95.63-23.82.63s-15.93-.21-23.9-.64h-1.82l-4.2,0h-5l-4.2,0h-1.71c-8,.42-16.07.64-24,.64-175.19,0-330.83-97.65-406.18-254.84-21.47-44.33-36-97-41.09-148.5-2.23-8.78-4.31-18.15-6.06-27.28a452.53,452.53,0,0,1-51.6-209.43v-148c0-248.52,202.18-450.7,450.7-450.7H439.72c248.52,0,450.7,202.18,450.7,450.7v148C890.42,390,875.6,457.7,849.71,516c-5.5,54.11-21.56,110.18-45.34,158.22l-3.81,10.13c-63.58,173.11-224.92,285-411,285h-3.87c-3.94,0-8-.06-12-.17-4,.11-8,.17-11.92.17h-5.5l-4.71,0C341.41,969.77,332.93,969.89,327.58,969.89Z" fill="#2371b9"/><path d="M327.58,957.39c-7.72,0-15.58-.21-23.38-.63h-1.42c-7.82.42-15.72.63-23.49.63s-15.67-.21-23.52-.64l-2.2,0-4.2,0h-5l-4.2,0-2.09,0c-7.88.42-15.81.64-23.58.64-170.34,0-321.65-94.93-394.9-247.74-21-43.36-35.2-94.92-40-145.25-2.42-9.43-4.64-19.49-6.48-29.29a439.77,439.77,0,0,1-51-205.26v-148c0-241.63,196.58-438.2,438.2-438.2H439.73c241.63,0,438.2,196.58,438.2,438.2v148c0,59.19-14.73,125.71-40.45,182.86-5.18,53.52-21,109-44.58,156.48l-4,10.76C727.11,848.06,570.36,956.75,389.52,956.75h-3.87c-3.92,0-7.94-.06-12-.17-4,.11-8,.17-11.92.17h-5.5l-5,0C341.26,957.27,332.88,957.39,327.58,957.39Z" fill="#00a3e2"/><path d="M327.58,944.89c-7.61,0-15.36-.21-23-.63h-2.1c-7.71.42-15.5.63-23.15.63s-15.41-.21-23.14-.63l-2.58,0-4.19,0h-5l-4.19,0-2.48,0c-7.76.42-15.57.63-23.2.63C49,944.89-98,852.68-169.12,704.24c-20.53-42.39-34.35-92.8-38.93-142-2.61-10.07-5-20.83-6.89-31.3a427.09,427.09,0,0,1-50.47-201.08v-148c0-234.73,191-425.7,425.7-425.7H439.74c234.73,0,425.7,191,425.7,425.7v148c0,58.24-14.63,123.56-40.2,179.61-4.85,52.92-20.37,107.76-43.81,154.73l-4.27,11.36c-59.93,163.2-212.09,268.71-387.63,268.71h-3.87c-3.91,0-7.93-.06-12-.17-4,.12-8,.17-11.92.17h-5.5l-5.25,0C341.11,944.77,332.82,944.89,327.58,944.89Z" fill="#2371b9"/><path d="M327.58,932.39c-7.5,0-15.13-.21-22.7-.63h-2.79c-7.59.42-15.27.63-22.81.63s-15.17-.21-22.76-.63l-3,0-4.19,0h-5l-4.19,0-2.85,0c-7.63.42-15.31.63-22.83.63-160.63,0-303.31-89.49-372.36-233.55-20.06-41.42-33.5-90.68-37.85-138.77-2.8-10.71-5.31-22.17-7.3-33.32a414.35,414.35,0,0,1-49.92-196.9v-148c0-227.84,185.36-413.2,413.2-413.2H439.72c227.84,0,413.2,185.36,413.2,413.2v148c0,57.28-14.55,121.42-40,176.35-4.51,52.33-19.74,106.54-43,153l-4.5,12c-58.12,158.28-205.7,260.62-375.93,260.62h-3.87c-3.92,0-7.94-.06-12-.18-4,.12-8,.18-11.92.18h-5.5c-1.82,0-3.67,0-5.51,0C341,932.27,332.76,932.39,327.58,932.39Z" fill="#00a3e2"/><path d="M327.58,919.89c-7.38,0-14.9-.21-22.35-.63h-3.48c-7.48.42-15,.63-22.46.63s-14.91-.21-22.39-.63l-3.33,0-4.2,0h-5l-4.2,0-3.22,0c-7.52.42-15.07.63-22.46.63-155.77,0-294.13-86.77-361.09-226.45-19.6-40.46-32.64-88.56-36.76-135.52-3-11.35-5.65-23.5-7.7-35.34a401.59,401.59,0,0,1-49.37-192.72v-148c0-220.95,179.75-400.7,400.7-400.7H439.72c220.95,0,400.7,179.75,400.7,400.7v148c0,56.33-14.46,119.28-39.73,173.09-4.15,51.73-19.1,105.31-42.21,151.22l-4.74,12.58c-56.32,153.36-199.3,252.52-364.23,252.52h-3.87c-3.92,0-7.94-.06-12-.19-4,.12-8,.19-11.92.19h-5.5c-1.91,0-3.85,0-5.78,0C340.81,919.77,332.7,919.89,327.58,919.89Z" fill="#2371b9"/><path d="M327.58,907.39c-7.27,0-14.67-.21-22-.63h-4.19c-7.36.42-14.79.63-22.11.63s-14.67-.21-22-.63l-3.7,0-4.19,0h-5l-4.19,0-3.59,0c-7.4.42-14.82.63-22.09.63-150.92,0-285-84-349.81-219.36-19.13-39.5-31.79-86.44-35.67-132.28-3.22-12-6-24.85-8.09-37.37a388.88,388.88,0,0,1-48.84-188.53v-148c0-214.06,174.15-388.2,388.2-388.2H439.74c214.06,0,388.2,174.15,388.2,388.2v148c0,55.39-14.38,117.14-39.51,169.83C784.64,550.79,770,603.74,747,649.12l-5,13.21c-54.51,148.44-192.9,244.42-352.53,244.42h-3.87c-3.92,0-7.94-.06-12-.19-4,.13-8,.19-11.92.19h-5.5q-3,0-6.05,0C340.66,907.27,332.65,907.39,327.58,907.39Z" fill="#00a3e2"/><path d="M327.58,894.89c-7.15,0-14.42-.21-21.63-.63H301c-7.24.42-14.55.63-21.75.63s-14.42-.21-21.66-.63c-1.41,0-2.74,0-4.07,0l-4.19,0h-5l-4.19,0-4,0c-7.28.42-14.58.63-21.72.63C68.44,894.89-61.29,813.56-124,682.63c-18.66-38.53-30.94-84.33-34.58-129a389.53,389.53,0,0,1-8.48-39.4,376.17,376.17,0,0,1-48.32-184.34v-148c0-207.16,168.54-375.7,375.7-375.7H439.73c207.16,0,375.7,168.54,375.7,375.7v148c0,54.44-14.31,115-39.31,166.56a390.83,390.83,0,0,1-40.55,147.67l-5.21,13.86c-52.71,143.52-186.5,236.32-340.83,236.32h-3.87c-3.91,0-7.93-.07-12-.2-4,.13-8,.2-11.92.2h-5.5c-2.08,0-4.2,0-6.31-.06C340.51,894.77,332.59,894.89,327.58,894.89Z" fill="#2371b9"/><path d="M327.58,882.39c-7,0-14.18-.21-21.27-.63h-5.65c-7.11.42-14.3.63-21.38.63s-14.18-.21-21.29-.63h-.1c-1.51,0-2.93,0-4.33,0l-4.19,0h-5l-4.19,0-4.19,0h-.13c-7.15.42-14.34.63-21.36.63-141.21,0-266.61-78.61-327.27-205.16-18.2-37.57-30.08-82.21-33.49-125.8A376,376,0,0,1-155.12,510a363.53,363.53,0,0,1-47.81-180.15v-148c0-200.27,162.93-363.2,363.2-363.2H439.72c200.27,0,363.2,162.93,363.2,363.2v148c0,53.51-14.24,112.87-39.13,163.3A377,377,0,0,1,724.1,639l-5.46,14.51c-50.9,138.6-180.11,228.22-329.13,228.22h-3.87c-3.92,0-7.94-.07-12-.21-4,.14-8,.21-11.92.21h-5.5c-2.17,0-4.38,0-6.58-.06C340.35,882.26,332.53,882.39,327.58,882.39Z" fill="#00a3e2"/><path d="M327.58,869.89c-6.91,0-13.94-.21-20.89-.63H300.3c-7,.42-14.05.63-21,.63s-13.94-.21-20.92-.63h-.47c-1.51,0-2.92,0-4.33,0l-4.19,0h-5l-4.19,0-4.19,0h-.49c-7,.42-14.1.63-21,.63-136.35,0-257.44-75.89-316-198.07-17.73-36.61-29.22-80.1-32.39-122.56a360.4,360.4,0,0,1-9.22-43.46,350.83,350.83,0,0,1-47.32-175.95v-148c0-193.38,157.32-350.7,350.7-350.7H439.73c193.38,0,350.7,157.32,350.7,350.7v148c0,52.58-14.18,110.74-39,160A363.55,363.55,0,0,1,712.66,634L707,649.13C657.86,782.81,533.24,869.25,389.52,869.25h-3.87c-3.92,0-7.94-.07-12-.21-4,.14-8,.21-11.92.21h-5.5c-2.25,0-4.55,0-6.84-.07C340.21,869.76,332.48,869.89,327.58,869.89Z" fill="#2371b9"/><path d="M327.58,857.39c-6.79,0-13.69-.21-20.53-.63h-7.12c-6.86.42-13.8.63-20.63.63s-13.68-.21-20.55-.63h-.86c-1.49,0-2.91,0-4.32,0l-4.19,0h-5l-4.19,0-4.19,0h-.85c-6.92.42-13.86.63-20.64.63-131.5,0-248.26-73.18-304.73-191-17.27-35.65-28.37-78-31.29-119.33a346.89,346.89,0,0,1-9.57-45.5,338.09,338.09,0,0,1-46.84-171.74v-148c0-186.49,151.72-338.2,338.2-338.2H439.73c186.49,0,338.2,151.72,338.2,338.2v148c0,51.66-14.13,108.62-38.82,156.75a349.89,349.89,0,0,1-37.89,142.29l-6,15.85C648,773.5,528,856.76,389.53,856.76h-3.87c-3.92,0-7.94-.07-12-.22-4,.15-8,.22-11.92.22h-5.5c-2.33,0-4.72,0-7.1-.08C340.06,857.26,332.42,857.39,327.58,857.39Z" fill="#00a3e2"/><path d="M327.58,844.89c-6.67,0-13.46-.21-20.17-.64h-7.87c-6.73.42-13.54.63-20.25.63s-13.44-.21-20.17-.63h-1.25c-1.48,0-2.89,0-4.3,0l-4.19,0h-5l-4.19,0-4.19,0h-1.22c-6.79.42-13.61.63-20.27.63C87.87,844.89-24.58,774.43-78.94,661c-16.8-34.69-27.51-75.88-30.18-116.09A334.15,334.15,0,0,1-119,497.39a325.38,325.38,0,0,1-46.38-167.53v-148c0-179.59,146.11-325.7,325.7-325.7H439.73c179.59,0,325.7,146.11,325.7,325.7v148c0,50.74-14.08,106.5-38.7,153.47a336.14,336.14,0,0,1-37,140.48l-6.22,16.54c-45.48,123.84-160.91,203.93-294,203.93h-3.87c-3.92,0-7.94-.08-12-.23-4,.15-8,.23-11.92.23h-5.5c-2.41,0-4.88,0-7.36-.09C339.91,844.76,332.36,844.89,327.58,844.89Z" fill="#2371b9"/><path d="M327.58,832.39c-6.55,0-13.22-.21-19.82-.64h-8.6c-6.6.42-13.28.63-19.87.63s-13.19-.21-19.79-.63h-1.65c-1.46,0-2.87,0-4.28,0l-4.19,0h-5l-4.19,0-4.19,0h-1.6c-6.66.42-13.35.63-19.89.63-121.79,0-229.92-67.74-282.18-176.78C-84,621.87-94.32,581.84-96.73,542.75A318.16,318.16,0,0,1-107,493.16a312.71,312.71,0,0,1-45.94-163.32v-148c0-172.7,140.5-313.2,313.2-313.2H439.74c172.7,0,313.2,140.5,313.2,313.2v148c0,49.83-14.05,104.38-38.61,150.18a322.55,322.55,0,0,1-36,138.66l-6.49,17.25C628.18,754.85,517.35,831.76,389.53,831.76h-3.87c-3.93,0-8-.08-12-.24-4,.16-8,.24-11.92.24h-5.5c-2.51,0-5.07,0-7.63-.1C339.76,832.26,332.31,832.39,327.58,832.39Z" fill="#00a3e2"/><path d="M327.58,819.89c-6.44,0-13-.22-19.47-.64h-9.32c-6.48.42-13,.64-19.5.64s-12.93-.21-19.4-.63h-2.06c-1.45,0-2.86,0-4.27,0l-4.19,0h-5l-4.19,0-4.19,0h-2c-6.53.42-13.08.63-19.5.63-116.94,0-220.74-65-270.91-169.68-15.88-32.78-25.79-71.67-27.94-109.63A303.91,303.91,0,0,1-94.9,488.94a300,300,0,0,1-45.52-159.1v-148c0-165.81,134.89-300.7,300.7-300.7H439.73c165.81,0,300.7,134.89,300.7,300.7v148c0,48.93-14,102.27-38.54,146.89a309,309,0,0,1-35,136.83l-6.76,18c-41.87,114-148.11,187.73-270.63,187.73h-3.87c-3.93,0-8-.08-12-.25-4,.17-8,.25-11.92.25h-5.5c-2.61,0-5.26,0-7.89-.11C339.62,819.76,332.26,819.89,327.58,819.89Z" fill="#2371b9"/><path d="M327.58,807.39c-6.33,0-12.76-.22-19.12-.65l-2.95,0h-7.08c-6.35.42-12.79.64-19.14.64s-12.66-.21-19-.63h-2.48c-1.43,0-2.84,0-4.25,0l-4.19,0h-5l-4.19,0-4.19,0h-2.39c-6.39.42-12.81.63-19.1.63-112.08,0-211.57-62.3-259.64-162.58C-60.55,613-70,575.25-71.94,538.41a290.11,290.11,0,0,1-10.84-53.7,287.33,287.33,0,0,1-45.14-154.87v-148c0-158.92,129.29-288.2,288.2-288.2H439.73c158.92,0,288.2,129.29,288.2,288.2v148c0,48.05-14,100.18-38.51,143.59a295.59,295.59,0,0,1-33.92,135l-7,18.7C608.4,736.21,506.75,806.76,389.53,806.76h-3.87c-3.93,0-8-.09-12-.26-4,.17-8,.26-11.92.26h-5.5c-2.69,0-5.43,0-8.15-.12C339.47,807.25,332.2,807.39,327.58,807.39Z" fill="#00a3e2"/><path d="M327.58,794.89c-6.21,0-12.52-.22-18.77-.65l-3.31,0h-7.45c-6.23.43-12.54.64-18.77.64s-12.39-.21-18.58-.63h-2.91c-1.42,0-2.83,0-4.24,0l-4.19,0h-5l-4.19,0-4.19,0h-2.8c-6.25.42-12.53.63-18.69.63-107.23,0-202.39-59.58-248.37-155.49-15-30.88-24.06-67.46-25.67-103.17a275.58,275.58,0,0,1-11.1-55.76,274.67,274.67,0,0,1-44.78-150.63v-148c0-152,123.68-275.7,275.7-275.7H439.72c152,0,275.7,123.68,275.7,275.7v148c0,47.17-14,98.09-38.53,140.28,0,.82,0,1.63,0,2.44a282.59,282.59,0,0,1-32.84,130.7l-7.32,19.45C598.48,726.88,501.42,794.24,389.5,794.24h-3.87c-3.94,0-8-.09-12-.27-4,.18-8,.27-11.92.27h-5.5c-2.78,0-5.61,0-8.41-.14C339.32,794.75,332.14,794.89,327.58,794.89Z" fill="#2371b9"/><path d="M327.58,782.39c-6.08,0-12.28-.22-18.41-.66l-3.66,0h-5l-2.86,0c-6.11.43-12.3.65-18.41.65s-12.11-.21-18.16-.63h-3.34c-1.41,0-2.82,0-4.23,0s-2.81,0-4.19,0h-5c-1.38,0-2.78,0-4.19,0s-2.81,0-4.19,0h-3.22c-6.1.42-12.24.63-18.27.63C112.12,782.39,21.27,725.53-22.6,634c-14.5-29.93-23.19-65.37-24.53-99.94a261.28,261.28,0,0,1-11.34-57.82,262,262,0,0,1-44.46-146.39v-148c0-145.13,118.07-263.2,263.2-263.2H439.72c145.13,0,263.2,118.07,263.2,263.2v148c0,46.31-14,96-38.58,137,0,1.94.07,3.86.07,5.76a269.7,269.7,0,0,1-31.75,125.53l-7.61,20.23C588.6,717.57,496.13,781.75,389.51,781.75h-3.87c-3.93,0-7.95-.1-12-.29-4,.19-8,.29-11.92.29h-5.5c-2.86,0-5.77,0-8.67-.15C339.18,782.25,332.09,782.39,327.58,782.39Z" fill="#00a3e2"/><path d="M327.58,769.89c-6,0-12.05-.22-18.06-.66l-4,0h-5l-2.88,0h-.48c-5.94.43-12,.64-17.9.64s-11.82-.21-17.72-.63h-3.78c-1.4,0-2.81,0-4.22,0s-2.81,0-4.19,0h-5c-1.38,0-2.78,0-4.19,0s-2.82,0-4.19,0h-3.65c-5.95.42-11.95.63-17.84.63-97.52,0-184-54.14-225.82-141.29-14-29-22.32-63.27-23.37-96.72A247.61,247.61,0,0,1-46.23,472,249.56,249.56,0,0,1-90.41,329.85v-148c0-138.24,112.46-250.7,250.7-250.7H439.74c138.24,0,250.7,112.46,250.7,250.7v148c0,45.47-14.07,93.93-38.69,133.63.12,3.07.18,6.11.18,9.09A256.86,256.86,0,0,1,621.28,592.9l-7.91,21c-34.64,94.33-122.52,155.34-223.84,155.34h-3.87c-3.93,0-8-.1-12-.3-4,.2-8,.3-11.92.3h-5.5c-2.93,0-5.93-.06-8.93-.17C339,769.75,332,769.89,327.58,769.89Z" fill="#2371b9"/><path d="M327.58,757.39c-5.86,0-11.82-.23-17.71-.67-1.45,0-2.92,0-4.37,0h-5l-2.87,0h-1c-5.76.42-11.6.64-17.37.64s-11.53-.21-17.28-.63h-4.24c-1.39,0-2.8,0-4.21,0s-2.82,0-4.19,0h-5c-1.37,0-2.78,0-4.19,0s-2.82,0-4.19,0h-4.1c-5.8.42-11.65.63-17.39.63C121.83,757.39,39.62,706-.06,623.19c-13.58-28-21.45-61.18-22.2-93.5a234.18,234.18,0,0,1-11.73-62c-.49-.69-1-1.38-1.45-2.07a237.16,237.16,0,0,1-42.5-135.8v-148c0-131.34,106.86-238.2,238.2-238.2H439.71c131.34,0,238.2,106.86,238.2,238.2v148c0,44.64-14.12,91.87-38.86,130.28.23,4.21.34,8.38.34,12.44a244,244,0,0,1-29.54,115.12l-8.21,21.83C568.8,698.92,485.52,756.75,389.5,756.75h-3.87c-3.93,0-7.95-.11-12-.32-4,.21-8,.32-11.92.32h-5.5c-3,0-6.1-.06-9.19-.19C338.88,757.24,332,757.39,327.58,757.39Z" fill="#00a3e2"/><path d="M327.58,744.89c-5.74,0-11.58-.23-17.36-.68-1.56,0-3.15,0-4.71,0h-5l-2.88,0-1.52,0c-5.6.42-11.27.63-16.86.63s-11.22-.21-16.82-.63h-4.7c-1.38,0-2.79,0-4.2,0s-2.82,0-4.19,0h-5c-1.37,0-2.78,0-4.19,0s-2.82,0-4.19,0h-4.55c-5.64.42-11.34.63-16.94.63-87.81,0-165.7-48.7-203.28-127.1-13.13-27.11-20.57-59.1-21-90.29a220.19,220.19,0,0,1-11.86-64.06c-1.2-1.64-2.38-3.28-3.51-4.92A224.69,224.69,0,0,1-65.41,329.85v-148c0-124.45,101.25-225.7,225.7-225.7H439.74c124.45,0,225.7,101.25,225.7,225.7v148c0,43.83-14.21,89.81-39.09,126.9.39,5.37.58,10.67.58,15.82A231,231,0,0,1,598.5,582.44L590,605.1c-31,84.49-109.72,139.14-200.44,139.14h-3.87c-3.93,0-8-.11-12-.34-4,.22-8,.34-11.92.34h-5.5c-3.09,0-6.27-.07-9.45-.21C338.74,744.74,331.93,744.89,327.58,744.89Z" fill="#2371b9"/><path d="M327.58,732.39c-5.62,0-11.34-.23-17-.7-1.7,0-3.4.07-5.06.07h-5l-2.88,0-2,0c-5.42.42-10.92.63-16.35.63s-10.91-.21-16.35-.63h-5.18c-1.38,0-2.78,0-4.2,0s-2.82,0-4.19,0h-5c-1.37,0-2.78,0-4.19,0s-2.82,0-4.19,0h-5c-5.48.42-11,.63-16.47.63-82.95,0-156.53-46-192-120-12.67-26.18-19.67-57-19.79-87.08A206.25,206.25,0,0,1-9.24,459.15c-1.95-2.55-3.84-5.15-5.65-7.76a212.26,212.26,0,0,1-38-121.55v-148c0-117.56,95.64-213.2,213.2-213.2H439.73c117.56,0,213.2,95.64,213.2,213.2v148c0,43-14.32,87.75-39.41,123.49.6,6.54.9,13,.9,19.23a218.25,218.25,0,0,1-27.3,104.62l-8.85,23.52c-29.22,79.57-103.32,131-188.74,131h-3.87c-3.94,0-8-.12-12-.36-4,.24-8,.36-11.91.36h-5.5c-3.18,0-6.44-.08-9.7-.24C338.6,732.23,331.88,732.39,327.58,732.39Z" fill="#00a3e2"/><path d="M327.58,719.89c-5.51,0-11.11-.24-16.67-.71-1.82.05-3.64.08-5.41.08h-5l-2.88,0-2.54,0c-5.25.42-10.58.63-15.84.63s-10.59-.21-15.86-.63h-5.67c-1.37,0-2.78,0-4.19,0s-2.82,0-4.19,0h-5c-1.37,0-2.78,0-4.19,0s-2.82,0-4.19,0h-5.5c-5.31.42-10.69.63-16,.63-78.1,0-147.35-43.26-180.73-112.91C21.54,581.73,15,552,15.2,523.11A193,193,0,0,1,3.25,454.84c-2.74-3.45-5.38-7-7.86-10.58a199.82,199.82,0,0,1-35.8-114.42v-148c0-110.67,90-200.7,200.7-200.7H439.74c110.67,0,200.7,90,200.7,200.7v148c0,42.27-14.46,85.71-39.83,120a200.52,200.52,0,0,1-24.85,122l-9.18,24.41c-27.42,74.65-96.92,123-177,123h-3.87c-3.94,0-8-.13-12-.38-4,.25-8,.38-11.91.38h-5.5c-3.28,0-6.62-.09-10-.27C338.45,719.73,331.82,719.89,327.58,719.89Z" fill="#2371b9"/><path d="M327.58,707.39c-5.4,0-10.88-.24-16.32-.73-1.94.06-3.87.1-5.76.1h-5l-2.88,0c-1,0-1.93,0-2.88,0h-.16c-5.08.42-10.23.63-15.33.63s-10.26-.21-15.37-.63h-6.16c-1.37,0-2.78,0-4.19,0s-2.82,0-4.19,0h-5c-1.37,0-2.78,0-4.19,0s-2.82,0-4.19,0h-6c-5.15.42-10.36.63-15.5.63-73.24,0-138.18-40.54-169.46-105.81a179.35,179.35,0,0,1-17.31-80.67,179.21,179.21,0,0,1-11.9-70.4c-3.59-4.31-7-8.79-10.19-13.38A187.35,187.35,0,0,1-27.93,329.84v-148C-27.93,78,56.5-6.38,160.27-6.38H439.72c103.78,0,188.2,84.43,188.2,188.2v148c0,41.53-14.66,83.67-40.37,116.53a188.56,188.56,0,0,1-23.17,120.21l-9.53,25.32c-25.61,69.73-90.52,114.85-165.34,114.85h-3.87c-3.95,0-8-.14-12-.41-4,.27-8,.41-11.91.41h-5.5c-3.36,0-6.79-.1-10.21-.3C338.31,707.22,331.77,707.39,327.58,707.39Z" fill="#00a3e2"/><path d="M327.58,694.89c-5.29,0-10.66-.25-16-.75-2.05.08-4.1.12-6.1.12h-5l-2.88,0-2.88,0h-.68c-4.91.42-9.89.63-14.82.63s-10-.21-14.9-.64h-6.64c-1.37,0-2.78,0-4.19,0s-2.82,0-4.19,0h-5c-1.37,0-2.78,0-4.19,0s-2.82,0-4.19,0h-6.47c-5,.42-10,.64-15,.64-68.39,0-129-37.82-158.19-98.71a166.36,166.36,0,0,1-16-77.47,167.77,167.77,0,0,1-11.74-72.55A182.18,182.18,0,0,1,15.91,430,174.91,174.91,0,0,1-15.43,329.86v-148c0-96.88,78.82-175.7,175.7-175.7H439.72c96.88,0,175.7,78.82,175.7,175.7v148a178.24,178.24,0,0,1-41.06,113A176.19,176.19,0,0,1,553,561.23l-9.88,26.27C519.36,652.31,459,694.25,389.52,694.25h-3.87c-3.95,0-8-.15-12-.44-4,.29-8,.44-11.91.44h-5.5c-3.45,0-7-.11-10.47-.34A177.81,177.81,0,0,1,327.58,694.89Z" fill="#2371b9"/><path d="M327.58,682.39c-5.18,0-10.43-.26-15.62-.77-2.16.09-4.33.14-6.45.14h-5l-2.88,0-2.88,0h-1.21c-4.73.42-9.53.63-14.28.63s-9.63-.22-14.43-.65l-2.15,0h-5c-1.37,0-2.78,0-4.19-.06s-2.82.06-4.19.06h-5c-1.37,0-2.78,0-4.19-.06s-2.82.06-4.19.06h-6.94c-4.83.43-9.73.64-14.55.64-63.53,0-119.83-35.11-146.92-91.62a153.31,153.31,0,0,1-14.67-74.28,153.61,153.61,0,0,1-11.46-74.73,165.14,165.14,0,0,1-15.27-18.88,162.46,162.46,0,0,1-29.11-93v-148c0-90,73.21-163.2,163.2-163.2H439.73c90,0,163.2,73.21,163.2,163.2v148A164.52,164.52,0,0,1,561,439.17a168.91,168.91,0,0,1,3.44,33.39,166.64,166.64,0,0,1-22.7,83.28L531.47,583.1c-22,59.89-77.73,98.65-141.94,98.65h-3.87c-4,0-8-.16-12-.47-4,.31-8,.47-11.91.47h-5.5c-3.54,0-7.14-.13-10.71-.38A164.55,164.55,0,0,1,327.58,682.39Z" fill="#00a3e2"/><path d="M327.58,669.89a147.54,147.54,0,0,1-15.28-.8c-2.27.11-4.55.17-6.8.17h-5l-2.88,0-2.88,0H293c-4.54.42-9.16.63-13.72.63s-9.33-.22-14-.66l-2.62,0h-5c-1.37,0-2.78,0-4.19-.06s-2.82.06-4.19.06h-5c-1.37,0-2.78,0-4.19-.06s-2.82.06-4.19.06h-5l-2.45,0c-4.68.43-9.42.65-14.09.65-58.68,0-110.66-32.39-135.65-84.52a140.37,140.37,0,0,1-13.26-71.1,140.27,140.27,0,0,1-11.2-75.54l.18-1.41a152.53,152.53,0,0,1-18.13-21.56A150,150,0,0,1,9.56,329.85v-148c0-83.1,67.6-150.7,150.7-150.7H439.71c83.1,0,150.7,67.6,150.7,150.7v148a151,151,0,0,1-43.1,105.61,155.63,155.63,0,0,1,4.59,37.11,153.8,153.8,0,0,1-21.51,77.85c-2.07,5.52-10.64,28.28-10.64,28.28-20.19,55-71.33,90.55-130.24,90.55h-3.87c-4,0-8-.17-12-.52-4,.34-8,.52-11.9.52h-5.5c-3.62,0-7.3-.15-11-.44A149,149,0,0,1,327.58,669.89Z" fill="#2371b9"/><path d="M327.58,657.39a135.69,135.69,0,0,1-14.93-.83c-2.38.13-4.78.2-7.14.2h-5l-2.88,0-2.88,0h-2.36c-4.35.42-8.77.63-13.14.63s-9-.22-13.5-.67c-1,0-2.07,0-3.08,0h-5c-1.38,0-2.78,0-4.19-.07s-2.82.07-4.19.07h-5c-1.37,0-2.78,0-4.19-.07s-2.82.07-4.19.07h-5l-2.91,0c-4.52.44-9.1.66-13.63.66C160.66,657.39,113,627.72,90.12,580A127.63,127.63,0,0,1,78.3,512.48c-.09-.36-.17-.72-.25-1.09a127.32,127.32,0,0,1-11.26-71l.36-2.75c.29-2.08.39-2.75.5-3.41.08-.51.16-1,.25-1.53a139.07,139.07,0,0,1-21.17-24.06,137.59,137.59,0,0,1-24.64-78.78v-148c0-76.21,62-138.2,138.2-138.2H439.74c76.21,0,138.2,62,138.2,138.2v148a137.47,137.47,0,0,1-44.62,101.78A139.53,139.53,0,0,1,519.12,545c-.73,2-11,29.35-11,29.35-18.38,50.05-64.93,82.46-118.54,82.46h-3.87c-4,0-8-.19-12-.57-4,.38-8,.57-11.9.57h-5.5c-3.71,0-7.47-.17-11.2-.5A142.6,142.6,0,0,1,327.58,657.39Z" fill="#00a3e2"/><path d="M327.58,644.89A120.66,120.66,0,0,1,313,644c-2.49.16-5,.25-7.48.25h-5c-.95,0-1.92,0-2.88,0s-1.93,0-2.88,0h-3a124.22,124.22,0,0,1-25.57-.06c-1.19,0-2.38.06-3.54.06h-5c-1.38,0-2.79,0-4.19-.08s-2.81.08-4.19.08h-5c-1.38,0-2.79,0-4.19-.08s-2.81.08-4.19.08h-5c-1.11,0-2.24,0-3.37,0a128.93,128.93,0,0,1-13.17.68c-49,0-92.31-26.95-113.1-70.33A114.65,114.65,0,0,1,91,511.63c-.37-1.45-.72-2.92-1-4.38A114.52,114.52,0,0,1,79.16,442l.36-2.78c.25-1.83.35-2.45.45-3.06.43-2.75,1-5.51,1.6-8.26a126,126,0,0,1-47-98.08v-148a125.84,125.84,0,0,1,125.7-125.7H439.72a125.84,125.84,0,0,1,125.7,125.7v148a125.49,125.49,0,0,1-46.66,97.8,127.12,127.12,0,0,1-10.95,111.8l0,.06c-.22.62-.22.62-10.5,27.92l-.93,2.48c-16.58,45.13-58.53,74.36-106.84,74.36h-3.87a114.6,114.6,0,0,1-12-.63,113.08,113.08,0,0,1-11.9.63h-5.5a112.31,112.31,0,0,1-11.43-.58A128.29,128.29,0,0,1,327.58,644.89Z" fill="#2371b9"/><path d="M327.58,632.39a109.8,109.8,0,0,1-14.26-.93c-2.6.2-5.23.3-7.82.3h-5c-1,0-1.92,0-2.88,0s-1.93,0-2.88,0h-3.61a112.06,112.06,0,0,1-24.46-.08c-1.34.05-2.68.08-4,.08h-5c-1.39,0-2.79,0-4.19-.09s-2.8.09-4.19.09h-5c-1.39,0-2.79,0-4.19-.09s-2.8.09-4.19.09h-5c-1.26,0-2.54,0-3.82-.07a115,115,0,0,1-12.71.7c-44.12,0-83.13-24.23-101.83-63.23a101.78,101.78,0,0,1-9-58.37c-.72-2.54-1.33-5.11-1.85-7.69a101.67,101.67,0,0,1-10.27-59.43l.37-2.82c.22-1.59.31-2.15.39-2.71A101.24,101.24,0,0,1,95.88,423a113.42,113.42,0,0,1-48.81-93.16v-148a113.33,113.33,0,0,1,113.2-113.2H439.72a113.33,113.33,0,0,1,113.2,113.2v148a112.82,112.82,0,0,1-49.5,93.61A114.63,114.63,0,0,1,496.5,534l-.45,1.27c-.21.58-.64,1.71-11.38,30.27-14.77,40.22-52.13,66.26-95.15,66.26h-3.87a102.58,102.58,0,0,1-12-.71,100.89,100.89,0,0,1-11.89.71h-5.5a103.59,103.59,0,0,1-11.66-.67A115.27,115.27,0,0,1,327.58,632.39Z" fill="#00a3e2"/><path d="M327.58,619.89a96.66,96.66,0,0,1-13.92-1c-2.71.25-5.45.38-8.15.38h-5c-.95,0-1.92,0-2.89,0s-1.93,0-2.88,0h-4.29a99.83,99.83,0,0,1-23.33-.11c-1.49.08-3,.11-4.45.11h-5c-1.38,0-2.79,0-4.19-.1s-2.81.1-4.19.1h-5c-1.38,0-2.79,0-4.19-.1s-2.81.1-4.19.1h-5c-1.41,0-2.84,0-4.27-.1a102.64,102.64,0,0,1-12.26.73c-39.26,0-74-21.51-90.56-56.13A89.09,89.09,0,0,1,116.46,510a89.13,89.13,0,0,1-2.7-11A88.79,88.79,0,0,1,104,445.34l.37-2.86c.19-1.35.26-1.86.34-2.37a88.1,88.1,0,0,1,6.53-22.29,100.83,100.83,0,0,1-51.62-88v-148a100.81,100.81,0,0,1,100.7-100.7H439.72a100.81,100.81,0,0,1,100.7,100.7v148a100.51,100.51,0,0,1-53.7,89.08,102,102,0,0,1-1.56,109.54c-.28.84-.56,1.68-.86,2.49-.18.5-.82,2.18-11.34,30.14a88,88,0,0,1-83.45,58.16h-3.87a91.15,91.15,0,0,1-12-.8,89.35,89.35,0,0,1-11.88.8h-5.5a89.24,89.24,0,0,1-11.88-.8A101.22,101.22,0,0,1,327.58,619.89Z" fill="#2371b9"/><path d="M327.58,607.39a84.67,84.67,0,0,1-13.6-1.1,77.6,77.6,0,0,1-8.48.47h-5c-1,0-1.92,0-2.89,0s-1.93,0-2.88,0h-5a87.09,87.09,0,0,1-22.16-.16c-1.64.11-3.28.16-4.9.16h-5c-1.38,0-2.79,0-4.19-.12-1.4.08-2.81.12-4.19.12h-5c-1.38,0-2.79,0-4.19-.12-1.4.08-2.81.12-4.19.12h-5c-1.56,0-3.14,0-4.71-.15a89.67,89.67,0,0,1-11.82.78c-34.41,0-64.79-18.79-79.29-49A76.39,76.39,0,0,1,129.14,510l0-1.6a75.29,75.29,0,0,1-3.4-13.69A75.84,75.84,0,0,1,116.32,447l.38-2.89c.15-1.12.22-1.57.29-2a76.14,76.14,0,0,1,11.46-29.93,88.25,88.25,0,0,1-56.4-82.3v-148a88.3,88.3,0,0,1,88.2-88.2H439.7a88.3,88.3,0,0,1,88.2,88.2v148a88.37,88.37,0,0,1-60.71,83.82,88,88,0,0,1,22.2,58.91A89.28,89.28,0,0,1,473.77,523c-.38,1.26-.8,2.51-1.24,3.73-.15.41-1.31,3.5-11.3,30a75.65,75.65,0,0,1-71.73,50h-3.87a77.76,77.76,0,0,1-12-.94,76.29,76.29,0,0,1-11.87.94h-5.5a76.25,76.25,0,0,1-12.07-1A90.38,90.38,0,0,1,327.58,607.39Z" fill="#00a3e2"/><path d="M327.58,594.89a71.81,71.81,0,0,1-13.28-1.24,64.7,64.7,0,0,1-8.79.61h-5c-1,0-1.93,0-2.89-.07s-1.92.07-2.88.07H289a75,75,0,0,1-9.7.63A74,74,0,0,1,268,594c-1.78.15-3.56.23-5.33.23h-5c-1.39,0-2.79,0-4.19-.14-1.4.09-2.8.14-4.19.14h-5c-1.39,0-2.79,0-4.19-.14-1.4.09-2.8.14-4.19.14h-5c-1.7,0-3.42-.07-5.14-.21a77.25,77.25,0,0,1-11.39.84c-29.55,0-55.61-16.07-68-41.94a63.66,63.66,0,0,1-4.77-41.79c-.06-1.31-.08-2.62-.08-3.92,0-.32,0-.65,0-1a63.78,63.78,0,0,1-3.87-15.72,63,63,0,0,1-9-41.91l.38-2.93c.12-.88.18-1.26.24-1.65a63.28,63.28,0,0,1,22-39,75.81,75.81,0,0,1-66.78-75.18v-148a75.79,75.79,0,0,1,75.7-75.7H439.73a75.79,75.79,0,0,1,75.7,75.7v148a75.79,75.79,0,0,1-75.7,75.7h-3.25c24.33,12.34,40.43,37.83,40.43,67a76.25,76.25,0,0,1-14.54,44.89c-.46,1.68-1,3.35-1.57,5-.12.33-2,5.36-11.27,30a63.26,63.26,0,0,1-60,41.86h-3.87a65.3,65.3,0,0,1-12-1.12,63,63,0,0,1-11.86,1.12h-5.5A63.74,63.74,0,0,1,344,593.05,75.91,75.91,0,0,1,327.58,594.89Z" fill="#2371b9"/><path d="M439.73,118.62H160.28a63.27,63.27,0,0,0-63.2,63.2v148a63.27,63.27,0,0,0,63.2,63.2h13.33a49.45,49.45,0,0,0,6.76,11.15A50.75,50.75,0,0,0,141.71,446c-.05.32-.1.64-.19,1.3l-.39,3a50.75,50.75,0,0,0,8.84,36,51.11,51.11,0,0,0,4.3,17.76c-.07,1.09-.11,2.18-.12,3.28,0,1.66,0,3.32.16,5a51,51,0,0,0,3.46,35.25c10.3,21.49,32,34.84,56.74,34.84a64.87,64.87,0,0,0,11-.93,51.42,51.42,0,0,0,5.54.3h5c1.39,0,2.8-.06,4.19-.17,1.39.11,2.8.17,4.19.17h5c1.39,0,2.8-.06,4.19-.17,1.39.11,2.8.17,4.19.17h5a50.38,50.38,0,0,0,5.75-.33,62,62,0,0,0,19.68.33h6.64c1,0,1.92,0,2.88-.08s1.93.08,2.89.08h5a51.13,51.13,0,0,0,9.09-.81,58.68,58.68,0,0,0,13,1.44,64.59,64.59,0,0,0,16.31-2.15,51.14,51.14,0,0,0,12.39,1.52h5.5a50.92,50.92,0,0,0,11.85-1.4,52.19,52.19,0,0,0,12,1.4h3.87A50.87,50.87,0,0,0,437.83,548l11.24-29.88a51.67,51.67,0,0,0,1.82-6.23,63.28,63.28,0,0,0,13.55-39.37c0-31.51-21.84-56.87-51.29-61.62A50.24,50.24,0,0,0,426.43,393h13.32a63.27,63.27,0,0,0,63.2-63.2v-148A63.3,63.3,0,0,0,439.73,118.62Z" fill="#00a3e2"/><path d="M219.44,410.57a37.59,37.59,0,0,1-36.75-30H160.28a50.76,50.76,0,0,1-50.7-50.7v-148a50.76,50.76,0,0,1,50.7-50.7H439.73a50.76,50.76,0,0,1,50.7,50.7v148a50.76,50.76,0,0,1-50.7,50.7H417.32a37.58,37.58,0,0,1-36.75,30H219.44Z" fill="#2371b9"/><path d="M219.44,398.07a25.05,25.05,0,0,1-24.53-20.17,24.68,24.68,0,0,1,.05-9.84H160.29a38.25,38.25,0,0,1-38.2-38.2v-148a38.25,38.25,0,0,1,38.2-38.2H439.74a38.25,38.25,0,0,1,38.2,38.2v148a38.25,38.25,0,0,1-38.2,38.2H405.07a25,25,0,0,1-24.48,30H219.44Z" fill="#00a3e2"/><path d="M327.58,569.89a46,46,0,0,1-12.73-1.77,38.48,38.48,0,0,1-9.35,1.14h-5c-1,0-1.93,0-2.89-.11s-1.92.11-2.88.11H288.6l-1.3,0a50.18,50.18,0,0,1-8,.65,49.26,49.26,0,0,1-10.45-1.12,38.2,38.2,0,0,1-6.13.49h-5a39.08,39.08,0,0,1-4.19-.23,39.08,39.08,0,0,1-4.19.23h-5a39.08,39.08,0,0,1-4.19-.23,39.08,39.08,0,0,1-4.19.23h-5a37.86,37.86,0,0,1-5.91-.46,52.09,52.09,0,0,1-10.63,1.09c-19.84,0-37.27-10.63-45.47-27.75a38.76,38.76,0,0,1-2.06-28.66,51,51,0,0,1-.33-6.07,46.58,46.58,0,0,1,.4-5.68,38.74,38.74,0,0,1-4.66-18.35v-1.49a38.15,38.15,0,0,1-8.86-30l.39-3c.06-.46.1-.71.14-1a38.41,38.41,0,0,1,38.17-32.64h22.75a38.45,38.45,0,0,1,23.9,8.23c.55.11,1.1.22,1.64.35a38.25,38.25,0,0,1,7.26-.69h17.84a38.69,38.69,0,0,1,6.88.62,53.78,53.78,0,0,1,22.3-.16,38.62,38.62,0,0,1,5.88-.46h1.59a41.5,41.5,0,0,1,54.39.57c.56.13,1.11.26,1.66.41a53.45,53.45,0,0,1,13.09-1.61,54,54,0,0,1,10.74,1.07,38.07,38.07,0,0,1,5.44-.39h6.17l1.29,0a50.21,50.21,0,0,1,8-.65c27.39,0,48.85,21.93,48.85,49.93a50.78,50.78,0,0,1-12.73,33.85,37.64,37.64,0,0,1-1.89,7.5s-1.36,3.61-11.21,29.79a38.49,38.49,0,0,1-36.57,25.55h-3.87a39.77,39.77,0,0,1-12.05-1.87,38.65,38.65,0,0,1-11.83,1.87h-5.5a38.78,38.78,0,0,1-12.47-2.07A51.06,51.06,0,0,1,327.58,569.89Z" fill="#2371b9"/><path d="M327.58,557.39A33.64,33.64,0,0,1,315,555a25.88,25.88,0,0,1-9.51,1.79h-5a25.32,25.32,0,0,1-2.89-.16,25,25,0,0,1-2.88.16H288.6c-.69,0-1.38,0-2.07-.08a37.44,37.44,0,0,1-7.25.71A35.88,35.88,0,0,1,269.13,556a25.81,25.81,0,0,1-6.43.81h-5a25.47,25.47,0,0,1-4.19-.34,25.47,25.47,0,0,1-4.19.34h-5a25.47,25.47,0,0,1-4.19-.34,26.61,26.61,0,0,1-4.19.34h-5a25.75,25.75,0,0,1-6.18-.75,38.58,38.58,0,0,1-10.35,1.38c-15,0-28.09-7.91-34.2-20.65a26.43,26.43,0,0,1-.49-22,35.57,35.57,0,0,1-.67-7.27,33.47,33.47,0,0,1,1.12-8.28,26,26,0,0,1-5.38-15.84v-6.67a25.24,25.24,0,0,1-3-2.89,25.7,25.7,0,0,1-6-20.23l.4-3c0-.26.06-.44.09-.62a26,26,0,0,1,25.83-22.09H215a26,26,0,0,1,18.39,7.52,39.11,39.11,0,0,1,7,1.45,25.53,25.53,0,0,1,7.4-1.08H265.6a26.19,26.19,0,0,1,7,1,41.1,41.1,0,0,1,21.88-.23,25.75,25.75,0,0,1,6.12-.74h6.65a29,29,0,0,1,43.34-.32,35,35,0,0,1,7.55,1.86,41.41,41.41,0,0,1,23.64-.84,25.75,25.75,0,0,1,5.73-.65h6.17c.69,0,1.38,0,2.07.08a37.46,37.46,0,0,1,7.26-.71c20.38,0,36.35,16.44,36.35,37.43a37.73,37.73,0,0,1-12.33,28.3,25.94,25.94,0,0,1-1.54,8.78l-11.18,29.73a25.78,25.78,0,0,1-24.84,17.38h-3.87a26.65,26.65,0,0,1-12.07-2.84,25.91,25.91,0,0,1-11.81,2.84h-5.5a26,26,0,0,1-12.5-3.18q-.82.45-1.68.84A37.36,37.36,0,0,1,327.58,557.39Z" fill="#00a3e2"/><rect x="27.51" y="-31.37" width="590" height="673.87" fill="none"/></svg>