<svg xmlns="http://www.w3.org/2000/svg" viewBox="0 0 254.23 111.89"><title>Vector Smart Object21111111</title><path d="M152.67,109.27a19.91,19.91,0,0,1-12.74-4.38,13.47,13.47,0,0,1-9.34,3.75h-5a13.78,13.78,0,0,1-2.9-.31,13.64,13.64,0,0,1-2.87.31H113.7a14.15,14.15,0,0,1-2.71-.27,24.71,24.71,0,0,1-6.62.9A23.39,23.39,0,0,1,94.25,107a13.52,13.52,0,0,1-6.45,1.64h-5a13.23,13.23,0,0,1-4.19-.67,13.23,13.23,0,0,1-4.19.67h-5a13.12,13.12,0,0,1-4.18-.67,13.29,13.29,0,0,1-4.2.67h-5A13.4,13.4,0,0,1,50,107.15a25.77,25.77,0,0,1-10.38,2.12c-10.14,0-18.92-5.19-22.93-13.55A14,14,0,0,1,16.92,83l1.37-2.52A21.76,21.76,0,0,1,16.73,72a19.78,19.78,0,0,1,3.95-11.8,13.52,13.52,0,0,1-8.21-12.42V33.91a12.92,12.92,0,0,1-6-3.9A13.15,13.15,0,0,1,3.39,19.63l.4-3.08c0-.1,0-.2,0-.3A13.57,13.57,0,0,1,17.31,4.72H40.06A13.56,13.56,0,0,1,52.16,12c.53,0,1.06,0,1.6,0a26.72,26.72,0,0,1,12,2.74,13.07,13.07,0,0,1,7.13-2.11H90.7a13.53,13.53,0,0,1,6.86,1.87,27.89,27.89,0,0,1,22.16-.4,13,13,0,0,1,6-1.47h12.61l.7,0a16.57,16.57,0,0,1,30.06-.57c.63-.05,1.23-.08,1.82-.08A22.42,22.42,0,0,1,183,15.39,27.26,27.26,0,0,1,196.48,12,27.88,27.88,0,0,1,207,14a13.09,13.09,0,0,1,5.7-1.3h6.18a13.54,13.54,0,0,1,2.71.27,24.64,24.64,0,0,1,6.61-.9C241.53,12,252,23,252,37c0,10.13-5.48,18.67-13.57,22.63a13.27,13.27,0,0,1,.46,10.19L227.72,99.45a13.38,13.38,0,0,1-13.11,9.19h-3.87a13.42,13.42,0,0,1-12.06-7,13.52,13.52,0,0,1-11.82,7h-5.5a13.52,13.52,0,0,1-12.49-8.39,13.19,13.19,0,0,1-6.91,7.19A25,25,0,0,1,152.67,109.27Z" fill="#2371b9"/><path d="M31.46,48.76H26a1,1,0,0,1-1-1V22.26a1,1,0,0,0-1-1H20.74a12.49,12.49,0,0,0-4,.68c-.63.22-1.08,0-1-.64l.41-3.1a1.08,1.08,0,0,1,1.12-1H40.06a1.08,1.08,0,0,1,1.13,1l.4,3.1c.09.64-.36.86-1,.64a12.48,12.48,0,0,0-4-.68H33.4a1,1,0,0,0-.95,1v25.5A1,1,0,0,1,31.46,48.76ZM40.6,37c0-7.3,5.32-12.48,13.16-12.48,7.66,0,13,5.18,13,12.48v.14a1.55,1.55,0,0,1-1.44,1.44H48.49c-.41,0-.63.22-.54.72a7.3,7.3,0,0,0,7.16,6.44,8.71,8.71,0,0,0,7.21-3.6.67.67,0,0,1,1-.09l1.76,1.35a.94.94,0,0,1,.13,1.17c-2.61,3.29-6.17,4.87-11,4.87C46.32,49.39,40.6,44.25,40.6,37Zm7.93-2.12H58.67c.4,0,.58-.22.49-.85-.45-3.34-2.83-5.81-5.58-5.81s-5.09,2.47-5.54,5.9C48,34.65,48.17,34.83,48.53,34.83ZM90.7,25.1H72.86c-.5,0-.68.5-.27,1.08a5.71,5.71,0,0,1,1,3.74v4.24a27.24,27.24,0,0,1-.95,8.2c-.54,1.44-1.71,3.15-3.6,2.84a.68.68,0,0,0-.91.81l.5,2.65a.64.64,0,0,0,.77.55,7.93,7.93,0,0,0,6.75-5.05,25.48,25.48,0,0,0,1.49-9.55V29.79a1,1,0,0,1,1-1h5.09a1,1,0,0,1,.94,1v18a1,1,0,0,0,1,.95H90.7a1,1,0,0,0,1-.95V26.05A1,1,0,0,0,90.7,25.1ZM122.1,37v.14a1.55,1.55,0,0,1-1.44,1.44h-16.8c-.41,0-.64.22-.55.72a7.31,7.31,0,0,0,7.17,6.44,8.71,8.71,0,0,0,7.21-3.6.67.67,0,0,1,1-.09l1.75,1.35a.94.94,0,0,1,.14,1.17c-2.61,3.29-6.17,4.87-11,4.87C101.69,49.39,96,44.25,96,37s5.32-12.48,13.16-12.48C116.79,24.47,122.1,29.65,122.1,37Zm-7.57-3c-.45-3.34-2.84-5.81-5.58-5.81s-5.09,2.47-5.55,5.9c-.09.58.14.76.5.76H114C114.44,34.83,114.62,34.61,114.53,34Zm11-7.8c-.41-.58-.23-1.08.27-1.08h12.61c4.06,0,7.17,2.8,7.17,5.91A5.71,5.71,0,0,1,143,35.6c-.4.27-.31.45.05.68a6.78,6.78,0,0,1,3.83,5.9c0,3.42-3.47,6.58-8.11,6.58H127.46a1,1,0,0,1-.94-.95V29.92A5.65,5.65,0,0,0,125.48,26.18Zm7.93,7.12a1,1,0,0,0,.94,1h2.12a2.63,2.63,0,0,0,2.21-2.79,2.53,2.53,0,0,0-2.52-2.75h-1.81a.92.92,0,0,0-.94.95Zm0,10.81a1,1,0,0,0,.94,1h2.44c1.71,0,2.93-1.67,2.93-3.47S138.5,38,136.79,38h-2.44a.91.91,0,0,0-.94.94Zm23.42-19h-6.66c-.5,0-.68.5-.27,1.08a5.72,5.72,0,0,1,1,3.74V47.81a1,1,0,0,0,.95.95h5a1,1,0,0,0,1-.95V26.09A1,1,0,0,0,156.83,25.1Zm-2.61-9.86a4,4,0,1,0,4.06,4A4,4,0,0,0,154.22,15.24ZM180.49,42c0-2.52-1.49-4.46-4-5.76-.36-.18-.4-.41,0-.68a6.05,6.05,0,0,0,2.61-5c0-3.2-3.19-6.13-8.19-6.13-2.62,0-5.64,1-7.08,2.53a1.12,1.12,0,0,0-.13,1.48l1,2a.75.75,0,0,0,1.3-.05,4.07,4.07,0,0,1,3.38-2.29,2.64,2.64,0,0,1,2.89,2.93c0,2-1.17,3.19-2.75,3.19h-.72a1,1,0,0,0-1,1v1.89c0,.68.54.86,1.17.86h.72a3.25,3.25,0,0,1,3.56,3.6c0,2.48-1.26,4.1-3.88,4.1A5.84,5.84,0,0,1,165,43.48c-.27-.36-.67-.85-1.26-.54l-1.57.86c-.77.4-.68.86-.54,1.13,1.48,2.43,4.46,4.46,9.73,4.46C176.48,49.39,180.49,46.14,180.49,42ZM183.15,37c0-7.16,5.4-12.48,13.33-12.48S209.86,29.79,209.86,37s-5.36,12.44-13.38,12.44S183.15,44.11,183.15,37Zm7.11,0c0,5,2.71,8.74,6.22,8.74S202.74,42,202.74,37s-2.65-8.78-6.26-8.78S190.26,31.86,190.26,37Zm49.24,0c0,6.85-4.59,12.48-11.35,12.48a10.75,10.75,0,0,1-6.94-2.34c-.63-.5-.94-.05-.94.18v8.38a1,1,0,0,1-1,1h-4.77a1,1,0,0,1-1-1V30a5.61,5.61,0,0,0-1-3.74c-.4-.59-.22-1.08.27-1.08h6.18a1,1,0,0,1,1,1v.68c0,.81.49.76,1,.31a10.94,10.94,0,0,1,7.3-2.61C234.91,24.52,239.5,30.1,239.5,37Zm-7.07,0c0-5-2.7-8.11-6.17-8.11-2.21,0-4.14,1.4-5.5,3.56a3.74,3.74,0,0,0-.49,1.85V39.7a3.74,3.74,0,0,0,.49,1.85,6.55,6.55,0,0,0,5.5,3.56C229.73,45.11,232.43,42,232.43,37Zm-190.59,39c-3.33-1.71-6-2.93-6-5,0-1.81,1.31-2.89,3.56-2.89A6.93,6.93,0,0,1,45,71.05c.4.58,1.17.67,1.48,0l1.58-2.61A1.28,1.28,0,0,0,48,67c-1.94-1.85-4.78-3-8.7-3-5.45,0-10,3.16-10,8.11-.05,5.81,4.37,8.47,9,10.72,3.16,1.58,5.86,3,5.86,5.91,0,2.43-1.71,4.05-4.82,4.05-4,0-7.3-3.33-8.11-6.94a.74.74,0,0,0-1.35-.27L27.88,89a1.54,1.54,0,0,0,0,1.26c1.71,3.61,5.95,6.49,11.67,6.49,6.8,0,10.9-4.19,10.9-9.51C50.49,81.18,45.76,77.94,41.84,75.91Zm39.06-4c-2.66,0-4.37.76-6.67,2.52-.45.41-.67.32-.94,0a6.56,6.56,0,0,0-5.45-2.48,7.28,7.28,0,0,0-5.59,2.29c-.4.37-.63.32-.63-.36v-.31a1,1,0,0,0-1-1H54.41c-.49,0-.67.49-.27,1.08a5.61,5.61,0,0,1,1,3.74V95.19a1,1,0,0,0,.94,1h5a1,1,0,0,0,1-1V82.08c0-3.19,2-5.67,3.6-5.67,1.85,0,2.84,1.17,2.84,4.41V95.19a1,1,0,0,0,.95,1h5a1,1,0,0,0,1-1V82c0-3.24,2-5.72,3.64-5.72,1.85,0,2.84,1.17,2.84,4.41V95.19a1,1,0,0,0,1,1h5a1,1,0,0,0,1-1V79.74C88.79,74.29,85.5,71.86,80.9,71.86Zm39.24,23.2c.41.58.23,1.08-.27,1.08H113.7a1,1,0,0,1-1-1v-.68c0-.81-.5-.76-1-.31a10.92,10.92,0,0,1-7.3,2.61C97.62,96.77,93,91.18,93,84.34s4.6-12.48,11.35-12.48a10.73,10.73,0,0,1,6.94,2.34c.63.5,1,0,1-.18v-.59a1,1,0,0,1,1-.94h4.91a1,1,0,0,1,1,.94V91.32A5.7,5.7,0,0,0,120.14,95.06Zm-7.88-13.47a3.74,3.74,0,0,0-.5-1.85,6.51,6.51,0,0,0-5.49-3.56c-3.47,0-6.18,3.07-6.18,8.16s2.71,8.11,6.18,8.11c2.2,0,4.14-1.4,5.49-3.56a3.74,3.74,0,0,0,.5-1.85Zm27.88-9.37a8.29,8.29,0,0,0-2.38-.36,8,8,0,0,0-5.91,2.48c-.4.36-.72.27-.72-.23v-.63a1,1,0,0,0-1-1h-6.22c-.49,0-.67.49-.27,1.08a5.61,5.61,0,0,1,1,3.74V95.19a1,1,0,0,0,1,1h5a1,1,0,0,0,1-1V82.26c0-3.15,1.31-5.13,3.47-5.13a3.53,3.53,0,0,1,2.57,1.17.78.78,0,0,0,1.4-.36l1.71-4.64C141,72.71,140.64,72.4,140.14,72.22Zm16.31.27H153.7a.88.88,0,0,1-.9-.9V68.12a1,1,0,0,0-1-1h-4.91a1,1,0,0,0-1,1v3.47a.93.93,0,0,1-1,.9h-1.53a1,1,0,0,0-1,.94v1.76a.93.93,0,0,0,1,1h1.53a.94.94,0,0,1,1,1V90.82c0,3.65,2.7,6,6.76,6a12.83,12.83,0,0,0,4.05-.68c.5-.22.59-.36.5-.9l-.32-1.93c0-.36-.22-.63-.76-.45a3.88,3.88,0,0,1-1.45.27c-1.12,0-1.89-.81-1.89-2.21V77.13a.9.9,0,0,1,.9-1h2.75a.92.92,0,0,0,1-1V73.43A1,1,0,0,0,156.45,72.49Zm39-7.89H172.71a1.08,1.08,0,0,0-1.12,1l-.41,3.11c-.09.63.36.85,1,.63a12.83,12.83,0,0,1,4-.68h3.24a1,1,0,0,1,1,1v25.5a1,1,0,0,0,1,1h5.5a1,1,0,0,0,1-1V69.65a1,1,0,0,1,1-1H192a12.83,12.83,0,0,1,4,.68c.63.22,1.08,0,1-.63l-.41-3.11A1.08,1.08,0,0,0,195.47,64.6Zm31,0h-3.38c-.81,0-1,.27-1.31,1l-7.56,20.49a.34.34,0,0,1-.68,0L206.14,65.6c-.31-.82-.49-1-1.3-1h-7.12c-.63,0-.9.54-.27,1.13a9,9,0,0,1,2.2,3.7l9.78,25.76c.32.81.5,1,1.31,1h3.87c.86,0,1.08-.14,1.35-1L227.14,65.5C227.32,65,227.09,64.6,226.46,64.6Z" fill="#fff"/><rect x="-1252.01" y="-1430.4" width="5094.33" height="2865.56" fill="none"/></svg>