<svg xmlns="http://www.w3.org/2000/svg" xmlns:xlink="http://www.w3.org/1999/xlink" viewBox="0 0 330.85 229.44"><defs><radialGradient id="a" cx="922.32" cy="-227.02" r="1.5" gradientTransform="matrix(31.93, 0, 0, -31.93, -29346.47, -7148.99)" gradientUnits="userSpaceOnUse"><stop offset="0" stop-color="#bd0738"/><stop offset="0.5" stop-color="#bd0738"/><stop offset="0.76" stop-color="#bb0737"/><stop offset="0.86" stop-color="#b40834"/><stop offset="0.94" stop-color="#a7092e"/><stop offset="1" stop-color="#990b28"/></radialGradient><linearGradient id="b" x1="89.38" y1="61.82" x2="113.59" y2="128.35" gradientUnits="userSpaceOnUse"><stop offset="0" stop-color="#f08998"/><stop offset="0.11" stop-color="#e67086"/><stop offset="0.33" stop-color="#d44364"/><stop offset="0.53" stop-color="#c8224c"/><stop offset="0.69" stop-color="#c00e3d"/><stop offset="0.8" stop-color="#bd0738"/><stop offset="1" stop-color="#bd0738"/></linearGradient><linearGradient id="c" x1="77.55" y1="78.26" x2="133.09" y2="133.8" gradientUnits="userSpaceOnUse"><stop offset="0" stop-color="#cc3c58"/><stop offset="0.06" stop-color="#c23450"/><stop offset="0.23" stop-color="#ae2341"/><stop offset="0.41" stop-color="#9f1736"/><stop offset="0.64" stop-color="#971030"/><stop offset="1" stop-color="#940e2e"/></linearGradient><linearGradient id="d" x1="109.53" y1="99.89" x2="110.55" y2="99.89" gradientUnits="userSpaceOnUse"><stop offset="0" stop-color="#c2c6c9"/><stop offset="0.1" stop-color="#b1b5b8"/><stop offset="0.53" stop-color="#6d7174"/><stop offset="0.84" stop-color="#43474a"/><stop offset="1" stop-color="#33373a"/></linearGradient><linearGradient id="e" x1="118.66" y1="120.08" x2="119.56" y2="120.08" gradientUnits="userSpaceOnUse"><stop offset="0" stop-color="#bec3c8"/><stop offset="0.11" stop-color="#acb1b6"/><stop offset="0.53" stop-color="#6b6f72"/><stop offset="0.84" stop-color="#424648"/><stop offset="1" stop-color="#323638"/></linearGradient><linearGradient id="f" x1="921.74" y1="-301.45" x2="922.78" y2="-301.45" gradientTransform="matrix(8.1, 8.1, 8.1, -8.1, -4936.75, -9828.27)" gradientUnits="userSpaceOnUse"><stop offset="0" stop-color="#bac3c9"/><stop offset="1" stop-color="#26292b"/></linearGradient><linearGradient id="g" x1="949.34" y1="-231.89" x2="950.39" y2="-231.89" gradientTransform="matrix(53.1, 53.1, 53.1, -53.1, -38023.09, -62651.56)" gradientUnits="userSpaceOnUse"><stop offset="0" stop-color="#c2c6c9"/><stop offset="1" stop-color="#404548"/></linearGradient><linearGradient id="h" x1="968.1" y1="-213.51" x2="969.14" y2="-213.51" gradientTransform="matrix(-67.41, 0, 0, 67.41, 65397.89, 14493.41)" gradientUnits="userSpaceOnUse"><stop offset="0" stop-color="#c2c6c9"/><stop offset="1" stop-color="#4c5155"/></linearGradient><linearGradient id="i" x1="109.58" y1="65.17" x2="110.47" y2="65.17" xlink:href="#e"/><radialGradient id="j" cx="-449.57" cy="-182.54" r="84.26" gradientTransform="translate(406.04 212.75) scale(0.7)" gradientUnits="userSpaceOnUse"><stop offset="0" stop-color="#fff"/><stop offset="0.35" stop-color="#fff"/><stop offset="0.53" stop-color="#fbfbfc"/><stop offset="0.72" stop-color="#eef1f2"/><stop offset="0.91" stop-color="#dadfe3"/><stop offset="1" stop-color="#cdd4d9"/></radialGradient><radialGradient id="k" cx="-451.64" cy="-183.12" r="12.3" gradientTransform="translate(406.04 212.75) scale(0.7)" gradientUnits="userSpaceOnUse"><stop offset="0" stop-color="#fff"/><stop offset="0.35" stop-color="#fff"/><stop offset="0.57" stop-color="#fbfbfc"/><stop offset="0.79" stop-color="#eef1f2"/><stop offset="1" stop-color="#dce1e4"/></radialGradient></defs><title>Vector Smart Object21111111</title><path d="M84.85,229.44a12.49,12.49,0,0,1-4.73-24.06l14.54-5.95h-69A25.73,25.73,0,0,1,0,173.72V25.7A25.73,25.73,0,0,1,25.7,0H305.15a25.73,25.73,0,0,1,25.7,25.7v148a25.73,25.73,0,0,1-25.7,25.71H236.2l14.53,5.95A12.49,12.49,0,0,1,246,229.44Z" fill="#2371b9"/><path d="M305.15,12.5H25.7A13.24,13.24,0,0,0,12.5,25.7v148a13.25,13.25,0,0,0,13.2,13.21H158.2l-73.35,30H246l-73.35-30h132.5a13.25,13.25,0,0,0,13.2-13.21V25.7A13.24,13.24,0,0,0,305.15,12.5Z" fill="#fff"/><rect x="-1108.67" y="-1699.61" width="5094.33" height="2865.56" fill="none"/><polygon points="188.3 71.86 174.59 71.86 174.59 131.2 216.7 131.2 216.7 119.64 188.3 119.64 188.3 71.86" fill="#6f6f6e"/><path d="M246.86,108.58H258V119a31.68,31.68,0,0,1-9.89,1.57c-12.34,0-16.45-6.27-16.45-19,0-12.14,3.91-19.29,16.25-19.29,6.86,0,10.77,2.15,14,6.27l8.53-7.84c-5.2-7.44-14.31-9.69-22.82-9.69-19.19,0-29.28,10.48-29.28,30.45s9.1,30.65,29.18,30.65c9.2,0,18.21-2.35,23.11-5.78V97.52H246.86Z" fill="#6f6f6e"/><path d="M108.15,55.89a45.9,45.9,0,1,0,45.93,46.25v-.72A45.91,45.91,0,0,0,108.15,55.89Z" fill="url(#a)"/><path d="M77.1,70.71c-15.34,15.34-16.89,38.72-3.42,52.19s36.82,11.92,52.16-3.43,16.91-38.74,3.45-52.21a32,32,0,0,0-22.94-9.17A41.84,41.84,0,0,0,77.1,70.71" fill="url(#b)"/><path d="M105.79,122.35l1.14-.65V82.93l-.28-.45.28-.09v0h.2l3.43-1.18.62,1.06a.39.39,0,0,1,.08.29l0,35.31h8.34l.67,1.05c.06.07.1.16.1.43v3.55a.28.28,0,0,1-.25.3H107.31a1.17,1.17,0,0,1-.64-.19ZM147.2,99.67H118.81v4.55l.71.94h0a.33.33,0,0,0,.24.09h23.76a34.61,34.61,0,0,1-58.92,22,34.67,34.67,0,0,1-.19-48.73C91,72,99.21,68.61,109.08,68.39l1.87,0h.21c.13,0,.24,0,.24-.3V64.34a.74.74,0,0,0-.1-.41l-.83-1-1.89.27-1,.32c-21.56,0-37.72,18-37.72,39.48a39.22,39.22,0,0,0,66.77,27.26,38.48,38.48,0,0,0,11.46-27.5v-2.24Zm-53.11-18a6.13,6.13,0,1,0,6.17,6.13A6.15,6.15,0,0,0,94.09,81.7Z" fill="url(#c)"/><polygon points="106.73 121.46 105.8 122.35 119.56 122.35 118.66 121.43 106.73 121.46" fill="#6b7277"/><polygon points="118.66 118.69 119.56 117.82 110.55 117.82 109.48 118.69 118.66 118.69" fill="#96a2a9"/><polygon points="110.55 81.16 105.8 81.16 106.69 82.01 109.53 82.01 110.55 81.16" fill="#98a1a8"/><polygon points="109.56 118.62 110.55 117.82 110.55 81.16 109.53 82.01 109.56 118.62" fill="url(#d)"/><polygon points="118.66 118.69 118.66 121.43 119.56 122.35 119.56 117.82 118.66 118.69" fill="url(#e)"/><polygon points="105.8 81.16 105.8 122.35 106.73 121.46 106.69 82.01 105.8 81.16" fill="#c2c6c9"/><path d="M88.4,87.13A5.11,5.11,0,1,0,93.51,82,5.09,5.09,0,0,0,88.4,87.13Z" fill="none"/><path d="M87.52,87.13a6,6,0,1,0,6-6A6,6,0,0,0,87.52,87.13Zm11.09,0A5.11,5.11,0,1,1,93.51,82,5.09,5.09,0,0,1,98.61,87.13Z" fill="url(#f)"/><polygon points="143.32 103.18 119.53 103.16 118.65 104.09 142.41 104.09 142.88 103.59 143.32 103.18" fill="#555c5e"/><polygon points="119.53 100.47 146.14 100.43 147.04 99.52 118.65 99.53 119.53 100.47" fill="#9ea5aa"/><path d="M147,101.77V99.52l-.9.91v1.34a38,38,0,1,1-38-38l1.45,0,.89-.86-2.34,0A38.91,38.91,0,1,0,147,101.77Z" fill="url(#g)"/><path d="M109.58,66.57l-1,0h-.94a35.24,35.24,0,0,0,.06,70.47h.91a35.34,35.34,0,0,0,34.7-32.85l0-1-.45.41-.47.5a34.35,34.35,0,1,1-34.26-36.65l2.32,0Z" fill="url(#h)"/><polygon points="119.53 100.47 118.65 99.53 118.65 104.09 119.53 103.16 119.53 100.47" fill="#c2c6c9"/><polygon points="109.58 66.57 110.47 67.46 110.47 62.88 109.58 63.74 109.58 66.57" fill="url(#i)"/><path d="M106.3,81.64v40.23h12.79v-3.59H110V81.64Zm1.34-18.29a38.43,38.43,0,1,0,38.89,38.42V100H119.12v3.56h23.76c0,.09,0,.45,0,.53A34.83,34.83,0,1,1,108.13,67H110V63.37l-1.43,0Z" fill="url(#j)"/><path d="M88,87.13a5.51,5.51,0,1,0,5.52-5.51A5.51,5.51,0,0,0,88,87.13" fill="url(#k)"/><path d="M94.48,82.61a5.44,5.44,0,0,1,3.34,1.17,5.45,5.45,0,0,0-4.33-2.16A5.51,5.51,0,0,0,88,87.13a5.44,5.44,0,0,0,2.14,4.3A5.44,5.44,0,0,1,89,88.12a5.52,5.52,0,0,1,5.52-5.51" fill="#fff"/><path d="M110,63.37l-1.85,0A38.43,38.43,0,0,0,81,128.93c.23.24.48.45.71.68a38.15,38.15,0,0,1-10.61-26.49C71.07,82,86,64.43,110,63.37" fill="#fff"/><path d="M110,118.28s2.64.77,9.12.77v-.77Z" fill="#fff"/><path d="M110,82.78V81.64H106.3v40.23s1.14-6.12,1.14-39.09Z" fill="#fff"/><path d="M146.53,100H119.12v3.56h1V101c23.89,0,26.42-1,26.42-1" fill="#fff"/><path d="M142.89,103.59c0,.08,0,.46,0,.53a34.82,34.82,0,0,1-68.27,7A35.29,35.29,0,0,0,108.72,137a34.89,34.89,0,0,0,34.62-33.43Z" fill="#fff"/></svg>