<svg xmlns="http://www.w3.org/2000/svg" viewBox="0 0 175.65 66.07"><title>Vector Smart Object21111111</title><path d="M108.29,64.19a13.31,13.31,0,0,1-10.94-5.78,13.32,13.32,0,0,1-10.94,5.78H84.85a13.28,13.28,0,0,1-11.2-6,29.62,29.62,0,0,1-12-.17,13.26,13.26,0,0,1-11.31,6.22H48.8a13.34,13.34,0,0,1-11.14-6.08h-19A13.35,13.35,0,0,1,5.27,44.77V23.36A13.08,13.08,0,0,1,5.63,12a12.88,12.88,0,0,1,11.46-6.9H22a13.37,13.37,0,0,1,4.62.82,13.32,13.32,0,0,1,4.62-.82h3.36A13.25,13.25,0,0,1,39.25,6a13.24,13.24,0,0,1,4.63-.83h3.44A13.26,13.26,0,0,1,55.1,7.63a29,29,0,0,1,26.48.26,12.92,12.92,0,0,1,8-2.77h17.12a13.57,13.57,0,0,1,3.62.49,13.21,13.21,0,0,1,3.57-.49h4.88a13.4,13.4,0,0,1,7,2,13.4,13.4,0,0,1,7-2h3.28a13.33,13.33,0,0,1,6.38,1.61,21.67,21.67,0,0,1,8.23-1.61h9.48A13.41,13.41,0,0,1,173.67,18.5V44.77a13.35,13.35,0,0,1-13.34,13.34H157a13.34,13.34,0,0,1-5.58-1.21,13.8,13.8,0,0,1-5.66,1.21h-4.16a12.64,12.64,0,0,1-2.68-.28,12.9,12.9,0,0,1-2.73.28h-3.28a13.39,13.39,0,0,1-7-2,13.31,13.31,0,0,1-4.64,1.77,13.29,13.29,0,0,1-11.35,6.29Z" fill="#2371b9"/><path d="M51.64,43.29l-.4,7.52a.92.92,0,0,1-.88.88H48.8c-.48,0-.76-.4-.88-.88l-1.2-4.28a1.27,1.27,0,0,0-1.08-.92h-27a.87.87,0,0,1-.84-.84V21.9a5,5,0,0,0-.92-3.32c-.36-.52-.2-1,.24-1H22a.89.89,0,0,1,.88.88v23a.83.83,0,0,0,.84.88h5.8a.85.85,0,0,0,.84-.88v-23a.89.89,0,0,1,.88-.88h3.36a.88.88,0,0,1,.87.88v23a.87.87,0,0,0,.88.88h5.76a.87.87,0,0,0,.92-.88v-23a.85.85,0,0,1,.84-.88h3.44a.88.88,0,0,1,.84.88v23a.86.86,0,0,0,.88.88h1.8A.8.8,0,0,1,51.64,43.29ZM83.26,31.65c0,8.2-6.36,14.52-15.2,14.52S53,39.85,53,31.65s6.36-14.59,15.08-14.59S83.26,23.38,83.26,31.65Zm-5.6,0c0-6.35-4-11.35-9.6-11.35s-9.48,5-9.48,11.35S62.58,43,68.06,43,77.66,38,77.66,31.61Zm33.47,11.68-.4,7.52a.92.92,0,0,1-.88.88h-1.56c-.48,0-.76-.4-.88-.88l-1.2-4.28a1.27,1.27,0,0,0-1.08-.92H89.57a1.27,1.27,0,0,0-1.08.92l-1.2,4.28c-.12.48-.4.88-.88.88H84.85a.92.92,0,0,1-.88-.88l-.4-7.52a.77.77,0,0,1,.76-.88h1.56c.8,0,1-.12,1.2-.8a50.49,50.49,0,0,0,3.2-16.83V21.9a5,5,0,0,0-.92-3.32c-.36-.52-.2-1,.24-1h17.12a.89.89,0,0,1,.88.88v23a.86.86,0,0,0,.88.88h1.76A.86.86,0,0,1,111.13,43.29Zm-8.64-21.55a.9.9,0,0,0-.88-.92H94.73a.9.9,0,0,0-.88.92V24.1A57,57,0,0,1,91,41.61a.59.59,0,0,0,.6.8h10a.86.86,0,0,0,.88-.88Zm33.67-4.12h-3.28a.9.9,0,0,0-.92.88V28.86a.88.88,0,0,1-.84.88H120.56a.83.83,0,0,1-.84-.88V18.5a.9.9,0,0,0-.92-.88h-4.88c-.44,0-.6.44-.24,1a5,5,0,0,1,.92,3.32V44.77a.87.87,0,0,0,.84.84h3.36a.89.89,0,0,0,.92-.84v-11a.83.83,0,0,1,.84-.88h10.56a.88.88,0,0,1,.84.88v11a.89.89,0,0,0,.92.84h3.28a.89.89,0,0,0,.92-.84V18.5A.9.9,0,0,0,136.16,17.62Zm25,.88V44.77a.87.87,0,0,1-.84.84H157a.89.89,0,0,1-.92-.84V36a.81.81,0,0,0-.84-.88h-2.16a1.23,1.23,0,0,0-1.28.8l-4.68,8.88a1.75,1.75,0,0,1-1.36.84h-4.16c-.48,0-.64-.4-.4-.84l5.64-9.68c.32-.44,0-.92-.4-1.16-2.68-1.48-4.8-4-4.8-7.39a9.08,9.08,0,0,1,9.16-8.92h9.48A.9.9,0,0,1,161.17,18.5Zm-5.12,3.28a.9.9,0,0,0-.84-1h-3.12c-3,0-5.12,2.52-5.12,5.6a5.18,5.18,0,0,0,5.12,5.47h3.12c.52,0,.84-.43.84-1Z" fill="#fde619"/><rect x="-1205.98" y="-1189.53" width="5094.33" height="2865.56" fill="none"/></svg>