<svg xmlns="http://www.w3.org/2000/svg" width="308.06" height="90.17" viewBox="0 0 308.06 90.17">
  <title>Asset 3</title>
  <g id="Layer_2" data-name="Layer 2">
    <g id="prizes_copy_4" data-name="prizes copy 4">
      <g>
        <g>
          <path d="M135.83,30.77c0,5.17-4.13,9.15-9.93,9.15s-9.86-4-9.86-9.15,4.14-9.2,9.86-9.2S135.83,25.55,135.83,30.77Zm-4.46,0c0-3.89-2.3-6.94-5.47-6.94s-5.4,3.05-5.4,6.94,2.3,6.93,5.4,6.93S131.37,34.63,131.37,30.75Z" style="fill: #fff"/>
          <path d="M148.37,26.33a.55.55,0,0,1,.53.53l.2,1.57c.05.32-.23.43-.58.3a5.38,5.38,0,0,0-2.09-.35h-.76a.56.56,0,0,0-.55.58V39a.56.56,0,0,1-.56.53h-2.77a.55.55,0,0,1-.53-.53V29a.56.56,0,0,0-.55-.58H140a5.29,5.29,0,0,0-2.09.35c-.36.13-.63,0-.58-.3l.2-1.57a.55.55,0,0,1,.53-.53Z" style="fill: #fff"/>
          <path d="M155,43.42a.56.56,0,0,1-.58.56H151.7a.56.56,0,0,1-.58-.56V29.06a3.11,3.11,0,0,0-.58-2.09c-.23-.33-.13-.61.15-.61h3.45a.56.56,0,0,1,.56.55v.38c0,.46.28.43.58.18A6.08,6.08,0,0,1,159.36,26c3.78,0,6.35,3.12,6.35,7s-2.57,7-6.35,7a6,6,0,0,1-3.88-1.31c-.35-.28-.53,0-.53.1Zm0-12V34.5a2.13,2.13,0,0,0,.28,1,3.66,3.66,0,0,0,3.07,2c1.94,0,3.46-1.72,3.46-4.57s-1.52-4.53-3.46-4.53a3.73,3.73,0,0,0-3.07,2A2.09,2.09,0,0,0,155,31.45Z" style="fill: #fff"/>
          <path d="M179.5,26.33a.55.55,0,0,1,.52.53V39a.55.55,0,0,1-.52.53h-2.8a.55.55,0,0,1-.56-.53V32.13c0-.2-.17-.25-.27-.07l-3.81,7c-.15.28-.33.46-.61.46h-2.74a.55.55,0,0,1-.53-.53V29a3.21,3.21,0,0,0-.58-2.09c-.23-.33-.13-.61.15-.61h3.7a.57.57,0,0,1,.58.53v6.91c0,.2.18.25.28.08l3.81-7.06c.15-.28.33-.46.6-.46Z" style="fill: #fff"/>
          <path d="M183.38,29a3.16,3.16,0,0,0-.58-2.09c-.22-.33-.12-.61.15-.61h4.47a.76.76,0,0,1,.68.51l2.62,7.59a.18.18,0,0,0,.17.15.19.19,0,0,0,.16-.15l2.64-7.59a.8.8,0,0,1,.68-.51h3.48a.5.5,0,0,1,.51.51V39.06a.48.48,0,0,1-.51.51H195a.51.51,0,0,1-.53-.51V32.59c0-.26-.3-.28-.38-.05l-2.32,6.52a.78.78,0,0,1-.7.51H189a.77.77,0,0,1-.68-.51L186,32.54a.18.18,0,1,0-.35.07v6.45a.5.5,0,0,1-.5.51h-1.26a.48.48,0,0,1-.51-.51Z" style="fill: #fff"/>
          <path d="M201.67,29a5,5,0,0,0-1.39-2.09c-.3-.3-.18-.61.2-.61h3.43c.5,0,.86.11,1,.51l2.49,6.8a.22.22,0,0,0,.18.18c.1,0,.15-.07.18-.18l2.49-6.8c.13-.4.28-.51.73-.51h1.44c.3,0,.38.23.28.51l-6.18,16.64c-.15.4-.25.5-.73.5h-1.41c-.35,0-.48-.23-.38-.5l1.41-3.61a1,1,0,0,0,0-1Z" style="fill: #fff"/>
          <path d="M226.46,26.33a.55.55,0,0,1,.53.53V39a.55.55,0,0,1-.53.53h-2.8a.55.55,0,0,1-.55-.53V32.13c0-.2-.18-.25-.28-.07l-3.81,7c-.15.28-.33.46-.6.46h-2.75a.55.55,0,0,1-.53-.53V29a3.16,3.16,0,0,0-.58-2.09c-.23-.33-.13-.61.15-.61h3.71a.57.57,0,0,1,.58.53v6.91c0,.2.17.25.27.08l3.81-7.06c.15-.28.33-.46.6-.46Zm-9.81-4.16a.5.5,0,0,1,.31-.62l1.58-.56a.38.38,0,0,1,.51.25c.32,1.06,1,2.17,1.89,2.17s1.56-1.11,1.89-2.17a.37.37,0,0,1,.5-.25l1.59.56a.49.49,0,0,1,.3.62,4.56,4.56,0,0,1-8.57,0Z" style="fill: #fff"/>
          <path d="M248.36,26.33a.56.56,0,0,1,.53.53V39a.55.55,0,0,1-.53.53h-2.8A.56.56,0,0,1,245,39V29a.56.56,0,0,0-.55-.58h-3a.52.52,0,0,0-.53.58V39a.56.56,0,0,1-.57.53h-2.75A.55.55,0,0,1,237,39V29a3.16,3.16,0,0,0-.58-2.09c-.23-.33-.13-.61.15-.61Z" style="fill: #fff"/>
          <path d="M256.05,43.42a.56.56,0,0,1-.58.56H252.8a.56.56,0,0,1-.58-.56V29.06a3.11,3.11,0,0,0-.58-2.09c-.23-.33-.12-.61.15-.61h3.46a.55.55,0,0,1,.55.55v.38c0,.46.28.43.58.18A6.1,6.1,0,0,1,260.46,26c3.79,0,6.36,3.12,6.36,7s-2.57,7-6.36,7a6,6,0,0,1-3.88-1.31c-.35-.28-.53,0-.53.1Zm0-12V34.5a2.13,2.13,0,0,0,.28,1,3.66,3.66,0,0,0,3.08,2c1.94,0,3.45-1.72,3.45-4.57s-1.51-4.53-3.45-4.53a3.74,3.74,0,0,0-3.08,2A2.09,2.09,0,0,0,256.05,31.45Z" style="fill: #fff"/>
          <path d="M280.6,26.33a.56.56,0,0,1,.53.53V39a.55.55,0,0,1-.53.53h-2.8a.56.56,0,0,1-.56-.53V32.13c0-.2-.17-.25-.27-.07l-3.81,7c-.15.28-.33.46-.6.46h-2.75a.55.55,0,0,1-.53-.53V29a3.16,3.16,0,0,0-.58-2.09c-.23-.33-.13-.61.15-.61h3.71a.56.56,0,0,1,.57.53v6.91c0,.2.18.25.28.08l3.81-7.06c.15-.28.33-.46.6-.46Z" style="fill: #fff"/>
          <path d="M285.64,29.33a.42.42,0,0,1-.73,0l-.55-1.14a.63.63,0,0,1,.07-.83,6.06,6.06,0,0,1,4-1.41c2.8,0,4.59,1.64,4.59,3.43a3.41,3.41,0,0,1-1.46,2.8c-.23.15-.2.28,0,.38a3.63,3.63,0,0,1,2.22,3.22c0,2.3-2.25,4.11-5.1,4.11s-4.61-1.13-5.44-2.49c-.08-.16-.13-.41.3-.63l.88-.48c.33-.18.56.1.71.3a3.26,3.26,0,0,0,2.44,1.23,2,2,0,0,0,2.17-2.29,1.83,1.83,0,0,0-2-2h-.4c-.36,0-.66-.1-.66-.48V32a.57.57,0,0,1,.56-.53h.4a1.59,1.59,0,0,0,1.54-1.79,1.48,1.48,0,0,0-1.62-1.64A2.28,2.28,0,0,0,285.64,29.33Z" style="fill: #fff"/>
          <path d="M307.54,26.33a.55.55,0,0,1,.52.53V39a.55.55,0,0,1-.52.53h-2.8a.55.55,0,0,1-.56-.53V32.13c0-.2-.17-.25-.27-.07l-3.81,7c-.15.28-.33.46-.61.46h-2.74a.55.55,0,0,1-.53-.53V29a3.21,3.21,0,0,0-.58-2.09c-.23-.33-.13-.61.15-.61h3.7a.57.57,0,0,1,.58.53v6.91c0,.2.18.25.28.08l3.81-7.06c.15-.28.32-.46.6-.46Z" style="fill: #fff"/>
          <path d="M127.61,59.27a3.16,3.16,0,0,0-.58-2.09c-.23-.33-.13-.61.15-.61h9.4a.57.57,0,0,1,.56.53V67.21a.56.56,0,0,0,.55.56h.88a.54.54,0,0,1,.58.53l-.25,4.28a.57.57,0,0,1-.58.56h-1.13c-.33,0-.51-.26-.58-.56l-.51-2.19a.66.66,0,0,0-.6-.58h-7.56a.67.67,0,0,0-.61.58l-.5,2.19c-.08.3-.23.56-.56.56h-1.18a.57.57,0,0,1-.56-.56l-.25-4.28a.53.53,0,0,1,.55-.53h.86c.48,0,.63-.08.76-.53a23.67,23.67,0,0,0,1.16-6.73Zm5.09,8.5a.57.57,0,0,0,.58-.56v-8a.54.54,0,0,0-.58-.58h-2.27a.55.55,0,0,0-.53.58v1.31a23,23,0,0,1-1.06,6.73c-.1.35,0,.53.41.53Z" style="fill: #fff"/>
          <path d="M140.69,69.76l-.28-1.49c0-.3.15-.53.51-.45,1.05.17,1.71-.78,2-1.59a15.26,15.26,0,0,0,.53-4.59V59.27a3.16,3.16,0,0,0-.58-2.09c-.22-.33-.12-.61.15-.61h10a.56.56,0,0,1,.55.53V69.28a.55.55,0,0,1-.55.53h-2.75a.56.56,0,0,1-.58-.53V59.2a.55.55,0,0,0-.53-.58h-2.85a.57.57,0,0,0-.58.58v2.69a14.34,14.34,0,0,1-.83,5.35,4.45,4.45,0,0,1-3.78,2.82A.35.35,0,0,1,140.69,69.76Z" style="fill: #fff"/>
          <path d="M160.23,69.35c-.23.41-.43.46-.88.46h-3c-.28,0-.46-.2-.28-.46l2.62-4.26c.2-.32.05-.5-.25-.7a4,4,0,0,1-2.12-3.48,4.4,4.4,0,0,1,4.46-4.34H167a.56.56,0,0,1,.55.53V69.28a.55.55,0,0,1-.55.53h-2.75a.56.56,0,0,1-.56-.53V65.67c0-.27-.12-.52-.4-.52h-.23a.71.71,0,0,0-.78.45Zm3.5-10.08a.58.58,0,0,0-.53-.65h-1.31c-.95,0-1.66.9-1.66,2.22s.71,2.24,1.66,2.24h1.31a.6.6,0,0,0,.53-.66Z" style="fill: #fff"/>
          <path d="M181.45,69.28a.55.55,0,0,1-.56.53h-2.77a.55.55,0,0,1-.53-.53v-10a3.16,3.16,0,0,0-.58-2.09c-.23-.33-.12-.61.15-.61h3.73a.57.57,0,0,1,.56.56v4.18c0,.23.07.33.25.33a.62.62,0,0,0,.5-.3l3.66-4.26c.35-.4.58-.51.86-.51h1.94c.33,0,.4.31.15.61l-3.93,4.64a.42.42,0,0,0,0,.6l5.06,6.86a.31.31,0,0,1-.22.53h-3a1.29,1.29,0,0,1-1.16-.51l-3.43-4.89a.52.52,0,0,0-.48-.27c-.12,0-.22.1-.22.35Z" style="fill: #fff"/>
          <path d="M191.79,59.27a3.16,3.16,0,0,0-.58-2.09c-.22-.33-.12-.61.16-.61h3.73a.56.56,0,0,1,.55.56V69.28a.55.55,0,0,1-.55.53h-2.78a.55.55,0,0,1-.53-.53Zm4.11-6a2.27,2.27,0,1,1-2.27-2.25A2.26,2.26,0,0,1,195.9,53.3Z" style="fill: #fff"/>
          <path d="M202.21,56.57a.57.57,0,0,1,.58.53v4.34a.52.52,0,0,0,.53.58h3a.56.56,0,0,0,.55-.58V57.1a.56.56,0,0,1,.56-.53h2.79a.55.55,0,0,1,.53.53V69.28a.55.55,0,0,1-.53.53h-2.79a.55.55,0,0,1-.56-.53V64.64a.56.56,0,0,0-.55-.58h-3a.52.52,0,0,0-.53.58v4.64a.56.56,0,0,1-.58.53h-2.75a.55.55,0,0,1-.53-.53v-10a3.16,3.16,0,0,0-.58-2.09c-.22-.33-.12-.61.16-.61Z" style="fill: #fff"/>
          <path d="M228.25,63.2c0,4-3,7-7.49,7s-7.46-3-7.46-7,3-7,7.46-7S228.25,59.2,228.25,63.2Zm-4,0c0-2.84-1.49-4.91-3.51-4.91s-3.48,2.07-3.48,4.91,1.52,4.89,3.48,4.89S224.27,66,224.27,63.2Z" style="fill: #fff"/>
          <path d="M230.72,59.27a3.16,3.16,0,0,0-.58-2.09c-.22-.33-.12-.61.16-.61h4.46a.76.76,0,0,1,.68.51l2.62,7.59a.18.18,0,0,0,.18.15s.12,0,.15-.15L241,57.08a.81.81,0,0,1,.68-.51h3.48a.49.49,0,0,1,.51.51V69.3a.48.48,0,0,1-.51.51h-2.82a.51.51,0,0,1-.53-.51V62.83c0-.26-.3-.28-.38,0l-2.32,6.52a.77.77,0,0,1-.7.51h-2.12a.77.77,0,0,1-.68-.51l-2.29-6.52a.18.18,0,1,0-.36.07V69.3a.5.5,0,0,1-.5.51h-1.26a.48.48,0,0,1-.51-.51Z" style="fill: #fff"/>
          <path d="M262.86,67.11a3.11,3.11,0,0,0,.58,2.09c.22.33.12.61-.16.61h-3.45a.56.56,0,0,1-.55-.56v-.37c0-.46-.28-.43-.58-.18a6.13,6.13,0,0,1-4.09,1.46c-3.78,0-6.35-3.12-6.35-7s2.57-7,6.35-7a6,6,0,0,1,3.89,1.31c.35.28.52,0,.52-.1V57.1a.57.57,0,0,1,.56-.53h2.75a.56.56,0,0,1,.53.53ZM259,64.72v-3a2.1,2.1,0,0,0-.27-1,3.66,3.66,0,0,0-3.08-2c-1.94,0-3.45,1.72-3.45,4.56s1.51,4.54,3.45,4.54a3.74,3.74,0,0,0,3.08-2A2.09,2.09,0,0,0,259,64.72Z" style="fill: #fff"/>
          <path d="M269.51,56.57a.57.57,0,0,1,.58.53v4.34a.52.52,0,0,0,.53.58h3a.57.57,0,0,0,.56-.58V57.1a.56.56,0,0,1,.55-.53h2.8a.55.55,0,0,1,.53.53V69.28a.55.55,0,0,1-.53.53h-2.8a.55.55,0,0,1-.55-.53V64.64a.57.57,0,0,0-.56-.58h-3a.52.52,0,0,0-.53.58v4.64a.57.57,0,0,1-.58.53h-2.75a.55.55,0,0,1-.53-.53v-10a3.16,3.16,0,0,0-.58-2.09c-.23-.33-.13-.61.15-.61Z" style="fill: #fff"/>
          <path d="M281.41,59.27a3.16,3.16,0,0,0-.58-2.09c-.22-.33-.12-.61.16-.61h3.73a.56.56,0,0,1,.55.56V69.28a.55.55,0,0,1-.55.53h-2.78a.55.55,0,0,1-.53-.53Zm4.11-6a2.27,2.27,0,1,1-2.27-2.25A2.26,2.26,0,0,1,285.52,53.3Z" style="fill: #fff"/>
          <path d="M288.53,59.27a3.16,3.16,0,0,0-.58-2.09c-.22-.33-.12-.61.15-.61h7.06c2.27,0,4,1.57,4,3.31a3.19,3.19,0,0,1-1.41,2.57c-.23.15-.18.25,0,.38a3.79,3.79,0,0,1,2.15,3.3c0,1.91-1.94,3.68-4.54,3.68h-6.33a.55.55,0,0,1-.53-.53Zm3.86,1.89a.54.54,0,0,0,.53.56h1.18a1.47,1.47,0,0,0,1.24-1.57,1.41,1.41,0,0,0-1.41-1.53h-1a.51.51,0,0,0-.53.53Zm0,6a.55.55,0,0,0,.53.56h1.36a1.82,1.82,0,0,0,1.64-1.94,1.9,1.9,0,0,0-1.64-2h-1.36a.52.52,0,0,0-.53.53Z" style="fill: #fff"/>
        </g>
        <g>
          <path d="M81.27,49.48H72.45V34.82a4.28,4.28,0,0,0-4.28-4.27H4.28A4.28,4.28,0,0,0,0,34.82V85.9a4.28,4.28,0,0,0,4.28,4.27H68.17a4.28,4.28,0,0,0,4.28-4.27V71.24h8.82l15.1,8.12v-38Z" style="fill: #fde619"/>
          <path d="M49.41,63.87,34.93,74.38A3.31,3.31,0,0,1,33,75a3.34,3.34,0,0,1-1.5-.36,3.31,3.31,0,0,1-1.8-2.94v-21A3.31,3.31,0,0,1,34.93,48L49.41,58.52a3.28,3.28,0,0,1,1.36,2.67A3.34,3.34,0,0,1,49.41,63.87Z" style="fill: #ed1d24"/>
          <g>
            <path d="M10.54,6.94C2.31,17.8,16.46,32.28,36.23,27.7,36.23,6,18.77-3.92,10.54,6.94Z" style="fill: none;stroke: #fde619;stroke-linecap: round;stroke-linejoin: round;stroke-width: 5px"/>
            <path d="M61.91,6.94C70.14,17.8,56,32.28,36.23,27.7,36.23,6,53.68-3.92,61.91,6.94Z" style="fill: none;stroke: #fde619;stroke-linecap: round;stroke-linejoin: round;stroke-width: 5px"/>
          </g>
        </g>
      </g>
    </g>
  </g>
</svg>
