<svg xmlns="http://www.w3.org/2000/svg" width="370.02" height="87.48" viewBox="0 0 370.02 87.48">
  <title>Asset 2</title>
  <g id="Layer_2" data-name="Layer 2">
    <g id="prizes_copy_4" data-name="prizes copy 4">
      <g>
        <g>
          <path d="M173.9,22a3.16,3.16,0,0,0-.58-2.09c-.23-.33-.13-.6.15-.6H181c3.18,0,6.08,2.49,6.08,5.59s-2.9,5.55-6.08,5.55h-2.42a.54.54,0,0,0-.53.53v5.44a.55.55,0,0,1-.55.53h-3.1a.55.55,0,0,1-.53-.53Zm6.2,6.18c1.56,0,2.67-1.49,2.67-3.3s-1.11-3.33-2.67-3.33h-1.49a.52.52,0,0,0-.53.53v5.57a.52.52,0,0,0,.53.53Z" style="fill: #fff"/>
          <path d="M188.24,30.37c0-4.09,3-7,7.36-7s7.26,2.9,7.26,7v.07a.86.86,0,0,1-.8.81h-9.41c-.22,0-.35.13-.3.4a4.1,4.1,0,0,0,4,3.61,4.86,4.86,0,0,0,4-2,.38.38,0,0,1,.56-.05l1,.76a.52.52,0,0,1,.08.65,7.34,7.34,0,0,1-6.18,2.72C191.44,37.32,188.24,34.45,188.24,30.37Zm4.16-1.62c-.05.33.08.43.28.43h5.67c.23,0,.33-.12.28-.48a3.46,3.46,0,0,0-3.13-3.25C193.91,25.45,192.65,26.84,192.4,28.75Z" style="fill: #fff"/>
          <path d="M212.75,35.26a5.3,5.3,0,0,0,4.09-1.87.58.58,0,0,1,.78-.1l.81.63a.56.56,0,0,1,.1.78,7.88,7.88,0,0,1-6.31,2.62c-4.53,0-7.58-3.12-7.58-6.95s2.87-7,7.56-7a7.49,7.49,0,0,1,6.38,3,.63.63,0,0,1-.13.78l-1,1.19a.44.44,0,0,1-.78-.13,4.48,4.48,0,0,0-4.06-2.8,4.08,4.08,0,0,0-3.86,3.38c-.05.28,0,.45.3.45h5.8a.45.45,0,0,1,.43.46v1a.44.44,0,0,1-.43.45h-5.72c-.25,0-.45.1-.38.5A4.19,4.19,0,0,0,212.75,35.26Z" style="fill: #fff"/>
          <path d="M220.12,30.37c0-3.83,2.87-7,7.56-7a7.49,7.49,0,0,1,6.38,3,.63.63,0,0,1-.13.78l-1,1.19a.44.44,0,0,1-.78-.13,4.48,4.48,0,0,0-4.06-2.8c-2,0-4,1.77-4,4.77s1.82,5,4.13,5a5.3,5.3,0,0,0,4.09-1.87.58.58,0,0,1,.78-.1l.81.63a.56.56,0,0,1,.1.78,7.88,7.88,0,0,1-6.31,2.62C223.17,37.32,220.12,34.2,220.12,30.37Z" style="fill: #fff"/>
          <path d="M246.68,23.74c.3,0,.48.22.53.53l.2,1.56c.05.33-.23.43-.58.3a5.59,5.59,0,0,0-2.09-.35H244a.57.57,0,0,0-.56.58V36.44a.55.55,0,0,1-.55.53H240.1a.55.55,0,0,1-.53-.53V26.36a.56.56,0,0,0-.56-.58h-.75a5.61,5.61,0,0,0-2.1.35c-.35.13-.63,0-.58-.3l.21-1.56c.05-.31.22-.53.53-.53Z" style="fill: #fff"/>
          <path d="M253.26,40.83a.56.56,0,0,1-.58.55H250a.56.56,0,0,1-.58-.55V26.46a3.21,3.21,0,0,0-.58-2.09c-.23-.33-.13-.61.15-.61h3.45a.57.57,0,0,1,.56.56v.38c0,.45.27.42.58.17a6.08,6.08,0,0,1,4.08-1.46c3.78,0,6.35,3.13,6.35,7s-2.57,7-6.35,7A6,6,0,0,1,253.79,36c-.35-.28-.53,0-.53.1Zm0-12v3.06a2.09,2.09,0,0,0,.28,1,3.66,3.66,0,0,0,3.07,2c1.94,0,3.46-1.71,3.46-4.56s-1.52-4.54-3.46-4.54a3.73,3.73,0,0,0-3.07,2A2.09,2.09,0,0,0,253.26,28.85Z" style="fill: #fff"/>
          <path d="M265.75,26.43a5,5,0,0,0-1.38-2.09c-.3-.3-.18-.6.2-.6H268c.5,0,.85.1,1,.5l2.49,6.81a.21.21,0,0,0,.18.17c.1,0,.15-.07.17-.17l2.5-6.81c.13-.4.28-.5.73-.5h1.44c.3,0,.38.22.28.5l-6.18,16.64c-.15.4-.25.5-.73.5h-1.41c-.36,0-.48-.22-.38-.5l1.41-3.61a1,1,0,0,0,0-1Z" style="fill: #fff"/>
          <path d="M290.54,23.74a.55.55,0,0,1,.53.53V36.44a.55.55,0,0,1-.53.53h-2.79a.55.55,0,0,1-.56-.53v-6.9c0-.21-.18-.26-.28-.08l-3.8,7.06a.7.7,0,0,1-.61.45h-2.74a.55.55,0,0,1-.53-.53v-10a3.21,3.21,0,0,0-.58-2.09c-.23-.33-.13-.6.15-.6h3.7a.56.56,0,0,1,.58.53v6.9c0,.21.18.26.28.08l3.81-7.06c.15-.28.32-.45.6-.45Zm-9.8-4.16A.5.5,0,0,1,281,19l1.59-.56a.37.37,0,0,1,.5.26c.33,1.05,1,2.16,1.89,2.16s1.57-1.11,1.89-2.16a.38.38,0,0,1,.51-.26L289,19a.51.51,0,0,1,.3.63,4.56,4.56,0,0,1-8.57,0Z" style="fill: #fff"/>
          <path d="M304.93,36.44a.55.55,0,0,1-.55.53H301.6a.55.55,0,0,1-.53-.53v-10a3.16,3.16,0,0,0-.58-2.09c-.22-.33-.12-.6.16-.6h3.73a.55.55,0,0,1,.55.55v4.19c0,.22.08.32.25.32a.65.65,0,0,0,.51-.3l3.65-4.26c.36-.4.58-.5.86-.5h1.94c.33,0,.4.3.15.6L308.36,29a.44.44,0,0,0,0,.61l5.07,6.85a.31.31,0,0,1-.23.53h-3a1.28,1.28,0,0,1-1.15-.5l-3.43-4.89a.52.52,0,0,0-.48-.28c-.13,0-.23.1-.23.35Z" style="fill: #fff"/>
          <path d="M328.76,30.37c0,4-3,7-7.48,7s-7.47-3-7.47-6.95,3-7,7.47-7S328.76,26.36,328.76,30.37Zm-4,0c0-2.85-1.49-4.92-3.5-4.92s-3.48,2.07-3.48,4.92,1.51,4.89,3.48,4.89S324.78,33.16,324.78,30.37Z" style="fill: #fff"/>
          <path d="M332.75,26.43a3.21,3.21,0,0,0-.58-2.09c-.23-.33-.13-.6.15-.6h9.4a.55.55,0,0,1,.55.53v10.1a.57.57,0,0,0,.56.56h.88a.55.55,0,0,1,.58.53L344,39.74a.56.56,0,0,1-.58.56h-1.14c-.32,0-.5-.25-.58-.56l-.5-2.19a.67.67,0,0,0-.6-.58h-7.57a.66.66,0,0,0-.6.58L332,39.74c-.07.31-.22.56-.55.56h-1.19a.56.56,0,0,1-.55-.56l-.25-4.28a.54.54,0,0,1,.55-.53h.86c.48,0,.63-.08.76-.53a23.61,23.61,0,0,0,1.16-6.73Zm5.09,8.5a.56.56,0,0,0,.58-.56v-8a.55.55,0,0,0-.58-.58h-2.27a.55.55,0,0,0-.53.58v1.31A22.94,22.94,0,0,1,334,34.4c-.1.35,0,.53.4.53Z" style="fill: #fff"/>
          <path d="M150.64,54a.54.54,0,0,1,.55.53v4.33c0,.36.19.58.5.58h2.87a.55.55,0,0,0,.53-.58V54.51a.54.54,0,0,1,.53-.53h2.65a.54.54,0,0,1,.51.53V66.68a.54.54,0,0,1-.51.53h-2.65a.54.54,0,0,1-.53-.53V62a.56.56,0,0,0-.53-.58h-2.87c-.31,0-.5.23-.5.58v4.64a.54.54,0,0,1-.55.53H148a.53.53,0,0,1-.5-.53v-10a3.24,3.24,0,0,0-.56-2.09c-.21-.33-.12-.6.15-.6Z" style="fill: #fff"/>
          <path d="M175.07,64.51a3.32,3.32,0,0,0,.55,2.1c.22.32.12.6-.14.6H172.2a.54.54,0,0,1-.53-.55v-.38c0-.45-.26-.43-.55-.18a5.61,5.61,0,0,1-3.88,1.46c-3.59,0-6-3.12-6-7s2.44-7,6-7a5.49,5.49,0,0,1,3.69,1.32c.33.27.5,0,.5-.11v-.32A.54.54,0,0,1,172,54h2.61a.54.54,0,0,1,.5.53Zm-3.64-2.39v-3a2.2,2.2,0,0,0-.26-1,3.47,3.47,0,0,0-2.92-2c-1.85,0-3.28,1.72-3.28,4.57s1.43,4.53,3.28,4.53a3.54,3.54,0,0,0,2.92-2A2.2,2.2,0,0,0,171.43,62.12Z" style="fill: #fff"/>
          <path d="M183.78,60.61a6.82,6.82,0,0,1,7.19-7,7,7,0,0,1,6.05,3,.65.65,0,0,1-.12.78L196,58.62a.41.41,0,0,1-.74-.13,4.26,4.26,0,0,0-3.86-2.8c-1.94,0-3.8,1.77-3.8,4.77s1.72,5,3.92,5a4.92,4.92,0,0,0,3.88-1.87.53.53,0,0,1,.74-.1l.77.63a.58.58,0,0,1,.1.78,7.31,7.31,0,0,1-6,2.62A6.89,6.89,0,0,1,183.78,60.61Z" style="fill: #fff"/>
          <path d="M212.4,64.51a3.26,3.26,0,0,0,.55,2.1c.21.32.12.6-.15.6h-3.28a.54.54,0,0,1-.52-.55v-.38c0-.45-.27-.43-.55-.18a5.65,5.65,0,0,1-3.88,1.46c-3.59,0-6-3.12-6-7s2.45-7,6-7a5.48,5.48,0,0,1,3.68,1.32c.34.27.51,0,.51-.11v-.32a.54.54,0,0,1,.52-.53h2.61a.54.54,0,0,1,.51.53Zm-3.64-2.39v-3a2.09,2.09,0,0,0-.27-1,3.44,3.44,0,0,0-2.92-2c-1.84,0-3.28,1.72-3.28,4.57s1.44,4.53,3.28,4.53a3.53,3.53,0,0,0,2.92-2A2.09,2.09,0,0,0,208.76,62.12Z" style="fill: #fff"/>
          <path d="M226.36,54a.54.54,0,0,1,.5.53V66.68a.54.54,0,0,1-.5.53H223.7a.54.54,0,0,1-.52-.53v-6.9c0-.21-.17-.26-.27-.08l-3.61,7.06c-.14.28-.31.45-.58.45h-2.61a.54.54,0,0,1-.5-.53v-10a3.31,3.31,0,0,0-.55-2.09c-.21-.33-.12-.6.14-.6h3.52a.55.55,0,0,1,.56.53v6.9c0,.21.16.26.26.08l3.61-7.06c.15-.28.31-.45.58-.45Zm-9.31-4.16a.51.51,0,0,1,.29-.63l1.5-.56a.35.35,0,0,1,.48.26c.31,1,1,2.16,1.8,2.16s1.48-1.11,1.79-2.16a.35.35,0,0,1,.48-.26l1.51.56a.52.52,0,0,1,.29.63,4.26,4.26,0,0,1-8.14,0Z" style="fill: #fff"/>
          <path d="M239.12,54c.28,0,.45.22.5.53l.19,1.56c.05.33-.21.43-.55.3a5.06,5.06,0,0,0-2-.35h-.72a.55.55,0,0,0-.52.58V66.68a.54.54,0,0,1-.53.53h-2.63a.54.54,0,0,1-.51-.53V56.6a.54.54,0,0,0-.52-.58h-.72a5.06,5.06,0,0,0-2,.35c-.33.13-.6,0-.55-.3l.19-1.56c0-.31.22-.53.51-.53Z" style="fill: #fff"/>
          <path d="M241.74,56.67a3.31,3.31,0,0,0-.55-2.09c-.22-.33-.12-.6.14-.6h3.55a.54.54,0,0,1,.52.55V66.68a.54.54,0,0,1-.52.53h-2.64a.54.54,0,0,1-.5-.53Zm3.9-6a2.16,2.16,0,1,1-2.15-2.24A2.19,2.19,0,0,1,245.64,50.7Z" style="fill: #fff"/>
          <path d="M268,64.51a3.26,3.26,0,0,0,.55,2.1c.21.32.12.6-.14.6H265.1a.54.54,0,0,1-.52-.55v-.38c0-.45-.27-.43-.55-.18a5.61,5.61,0,0,1-3.88,1.46c-3.59,0-6-3.12-6-7s2.44-7,6-7a5.53,5.53,0,0,1,3.69,1.32c.33.27.5,0,.5-.11v-.32a.54.54,0,0,1,.53-.53h2.6a.54.54,0,0,1,.51.53Zm-3.64-2.39v-3a2.2,2.2,0,0,0-.26-1,3.47,3.47,0,0,0-2.93-2c-1.84,0-3.28,1.72-3.28,4.57s1.44,4.53,3.28,4.53a3.54,3.54,0,0,0,2.93-2A2.2,2.2,0,0,0,264.34,62.12Z" style="fill: #fff"/>
          <path d="M274.37,55.31a5.41,5.41,0,0,1,3.3-1.08c4,0,7,2.57,7,6.48s-2.83,6.85-7.14,6.85a6.67,6.67,0,0,1-7.06-6.85V60c0-5.75,2.63-9.68,8-9.68,1.08,0,1.75-.31,2-1,.21-.38.38-.43.76-.25l1.8.85c.33.16.48.36.31.74-.58,1.38-1.68,2.21-4.48,2.21-2.27,0-3.95.53-4.79,2.17C274,55.29,274.13,55.49,274.37,55.31Zm6.49,5.57c0-2.64-1.37-4.61-3.36-4.61-1.84,0-3.28,2-3.28,4.61s1.44,4.62,3.28,4.62S280.86,63.53,280.86,60.88Z" style="fill: #fff"/>
          <path d="M300.51,60.61a7.1,7.1,0,1,1-7.11-7A6.73,6.73,0,0,1,300.51,60.61Zm-3.79,0c0-2.85-1.41-4.92-3.32-4.92s-3.31,2.07-3.31,4.92,1.44,4.89,3.31,4.89S296.72,63.41,296.72,60.61Z" style="fill: #fff"/>
          <path d="M309.24,56.67a3.25,3.25,0,0,0-.55-2.09c-.21-.33-.12-.6.15-.6h6.7a3.6,3.6,0,0,1,3.81,3.3A3.26,3.26,0,0,1,318,59.85c-.22.15-.17.25,0,.38a3.8,3.8,0,0,1,2,3.3c0,1.92-1.85,3.68-4.31,3.68h-6a.54.54,0,0,1-.51-.53Zm3.67,1.9a.53.53,0,0,0,.5.55h1.13a1.45,1.45,0,0,0,1.17-1.56A1.38,1.38,0,0,0,314.37,56h-1a.5.5,0,0,0-.5.53Zm0,6.05a.52.52,0,0,0,.5.55h1.29a1.79,1.79,0,0,0,1.56-1.94c0-1-.65-2-1.56-2h-1.29a.5.5,0,0,0-.5.53Z" style="fill: #fff"/>
          <path d="M331.84,56.7c0,1,1.58,1.41,3,2.19,2.32,1.29,3.3,2.73,3.08,4.67-.26,2.32-1.93,4-4.88,4a6.22,6.22,0,0,1-4.88-2.31,1,1,0,0,1-.12-.86l.74-1.72a.39.39,0,0,1,.74.13c.43,1.29,1.72,2.7,3.09,2.7s1.92-.63,1.92-1.46c0-1.19-1.49-1.67-2.57-2.35-1.7-1.06-3.42-1.74-3.3-4.51.1-2.14,1.94-3.56,4.5-3.56A5.79,5.79,0,0,1,337,55a.69.69,0,0,1,.09.83l-.62,1.51a.47.47,0,0,1-.79-.1,3.26,3.26,0,0,0-2.46-1.59C332.3,55.69,331.84,56.12,331.84,56.7Z" style="fill: #fff"/>
          <path d="M354.78,67.21a.54.54,0,0,1-.5-.53V58.59c0-1.81-.53-2.47-1.51-2.47s-1.94,1.39-1.94,3.2v7.36a.51.51,0,0,1-.5.53h-2.66a.54.54,0,0,1-.5-.53v-8c0-1.81-.53-2.47-1.51-2.47s-1.91,1.39-1.91,3.18v7.33a.53.53,0,0,1-.53.53h-2.63a.54.54,0,0,1-.51-.53v-10a3.25,3.25,0,0,0-.55-2.09c-.21-.33-.12-.6.15-.6H343a.54.54,0,0,1,.53.55v.18c0,.38.12.4.33.2a3.78,3.78,0,0,1,3-1.29,3.43,3.43,0,0,1,2.9,1.39c.14.2.26.25.5,0a5.08,5.08,0,0,1,3.54-1.42c2.45,0,4.19,1.37,4.19,4.42v8.64a.54.54,0,0,1-.52.53Z" style="fill: #fff"/>
          <path d="M363.91,56.7c0,1,1.58,1.41,3,2.19,2.32,1.29,3.3,2.73,3.09,4.67-.27,2.32-1.94,4-4.89,4a6.22,6.22,0,0,1-4.88-2.31,1,1,0,0,1-.12-.86l.74-1.72a.39.39,0,0,1,.74.13c.43,1.29,1.73,2.7,3.09,2.7s1.92-.63,1.92-1.46c0-1.19-1.49-1.67-2.56-2.35-1.7-1.06-3.43-1.74-3.31-4.51.1-2.14,1.94-3.56,4.5-3.56A5.79,5.79,0,0,1,369.1,55a.69.69,0,0,1,.1.83l-.63,1.51c-.16.28-.62.2-.79-.1a3.24,3.24,0,0,0-2.46-1.59C364.36,55.69,363.91,56.12,363.91,56.7Z" style="fill: #fff"/>
        </g>
        <g>
          <g>
            <path d="M65.51,71.33H17.22a13.42,13.42,0,0,0-8.77,3.93l-7.4,8.29c-1.92,2.16-1.13,3.93,1.76,3.93h125.4c2.89,0,3.69-1.77,1.76-3.93l-7.39-8.29a13.47,13.47,0,0,0-8.77-3.93H65.51" style="fill: #fde619"/>
            <g>
              <path d="M65.51,65.31H16.23A4.29,4.29,0,0,1,12,61V4.28A4.29,4.29,0,0,1,16.23,0h98.56a4.28,4.28,0,0,1,4.28,4.28V61a4.28,4.28,0,0,1-4.28,4.28H65.51" style="fill: #fde619"/>
              <path d="M65.51,5.26a2.16,2.16,0,1,1-2.16,2.16A2.16,2.16,0,0,1,65.51,5.26Z" style="fill: #ed1d24"/>
            </g>
          </g>
          <g>
            <path d="M36.25,32.92l-2.09.57-.55-2.4,3.45-1.15h1.81V43.41H36.25Z" style="fill: #ed1d24"/>
            <path d="M41.55,41.08l4-3.65c1.5-1.38,2.08-2.1,2.08-3.21A1.56,1.56,0,0,0,46,32.48c-.93,0-1.57.58-2.46,1.8L41.7,32.62c1.19-1.8,2.34-2.77,4.49-2.77A3.9,3.9,0,0,1,50.33,34c0,2.24-1,3.34-3.16,5.18l-2,1.68h5.24v2.54h-8.9Z" style="fill: #ed1d24"/>
            <path d="M52.48,41.33,54.3,39.4A3.57,3.57,0,0,0,57.21,41a1.58,1.58,0,0,0,1.7-1.66c0-1.09-.88-1.7-2.36-1.7h-1.1L55,35.77l2.87-3.21H53.18V30h8.14v2.21l-3,3.23a3.56,3.56,0,0,1,3.24,3.78,4.12,4.12,0,0,1-4.34,4.38A5.63,5.63,0,0,1,52.48,41.33Z" style="fill: #ed1d24"/>
            <path d="M69.79,40.53H63.91l-.43-2.09,6.6-8.5h2.24v8.2h1.62v2.39H72.32v2.88H69.79Zm0-2.39V34l-3.2,4.17Z" style="fill: #ed1d24"/>
            <path d="M75.62,41.63l1.6-2.12A4,4,0,0,0,80.09,41a1.78,1.78,0,0,0,2-1.89c0-1.14-.87-1.81-2.13-1.81a4.84,4.84,0,0,0-2,.49l-1.53-1.12L76.77,30h7.4v2.58H79l-.14,2.31a5.24,5.24,0,0,1,1.59-.23C82.82,34.7,84.7,36,84.7,39a4.31,4.31,0,0,1-4.57,4.62A5.9,5.9,0,0,1,75.62,41.63Z" style="fill: #ed1d24"/>
            <path d="M88.46,42.21c-.88-1-1.43-2.41-1.43-5.1,0-4.13,1.68-7.3,5.28-7.3a5.21,5.21,0,0,1,3.76,1.47l-1.39,2.27a3.51,3.51,0,0,0-2.46-1.07c-1.49,0-2.25,1.34-2.42,3.1a3.89,3.89,0,0,1,2.49-.86A4,4,0,0,1,96.52,39a4.45,4.45,0,0,1-4.59,4.62A4.34,4.34,0,0,1,88.46,42.21Zm5.43-3.1a1.91,1.91,0,0,0-2.1-2,1.88,1.88,0,0,0-2.06,2,1.94,1.94,0,0,0,2.1,2A1.9,1.9,0,0,0,93.89,39.11Z" style="fill: #ed1d24"/>
          </g>
        </g>
      </g>
    </g>
  </g>
</svg>
