<svg id="Слой_1" data-name="Слой 1" xmlns="http://www.w3.org/2000/svg" viewBox="0 0 297.83 90.16"><title>step3</title><path d="M81.27,49.48H72.45V34.82a4.28,4.28,0,0,0-4.28-4.27H4.28A4.28,4.28,0,0,0,0,34.82V85.9a4.28,4.28,0,0,0,4.28,4.27H68.17a4.28,4.28,0,0,0,4.28-4.27V71.24h8.82l15.1,8.12v-38Z" transform="translate(0 -0.01)" style="fill:#fde619"/><path d="M49.41,63.87,34.93,74.38A3.34,3.34,0,0,1,33,75a3.28,3.28,0,0,1-1.5-.36,3.32,3.32,0,0,1-1.8-2.94v-21A3.31,3.31,0,0,1,34.93,48L49.41,58.52a3.28,3.28,0,0,1,1.36,2.67A3.34,3.34,0,0,1,49.41,63.87Z" transform="translate(0 -0.01)" style="fill:#ed1d24"/><path d="M10.54,6.94C2.31,17.8,16.46,32.28,36.23,27.7,36.23,6,18.77-3.92,10.54,6.94Zm51.37,0C70.14,17.8,56,32.28,36.23,27.7,36.23,6,53.68-3.92,61.91,6.94Z" transform="translate(0 -0.01)" style="fill:none;stroke:#fde619;stroke-linecap:round;stroke-linejoin:round;stroke-width:5px"/><path d="M135.89,30.77c0,5.17-4.13,9.15-9.93,9.15s-9.85-4-9.85-9.15,4.13-9.2,9.85-9.2S135.89,25.55,135.89,30.77Zm-4.46,0c0-3.89-2.29-6.94-5.47-6.94s-5.39,3.05-5.39,6.94,2.29,6.93,5.39,6.93,5.47-3.07,5.47-7Zm17-4.44a.55.55,0,0,1,.53.53l.2,1.57c.05.32-.22.43-.58.3a5.17,5.17,0,0,0-2.09-.35h-.75a.56.56,0,0,0-.56.56V39a.54.54,0,0,1-.55.53h-2.78a.55.55,0,0,1-.53-.53V29a.56.56,0,0,0-.54-.58H140a5.54,5.54,0,0,0-2.09.35c-.35.13-.63,0-.58-.3l.2-1.57a.55.55,0,0,1,.53-.53ZM155,43.42a.58.58,0,0,1-.58.56h-2.68a.58.58,0,0,1-.58-.56h0V29.06A3.15,3.15,0,0,0,150.6,27c-.22-.33-.12-.61.16-.61h3.45a.55.55,0,0,1,.55.55h0v.38c0,.46.28.43.58.18a6.13,6.13,0,0,1,4.09-1.5c3.78,0,6.35,3.12,6.35,7s-2.57,7-6.35,7a6,6,0,0,1-3.89-1.31c-.35-.28-.52,0-.52.1Zm0-12V34.5a2.2,2.2,0,0,0,.27,1,3.67,3.67,0,0,0,3.08,2c1.94,0,3.45-1.72,3.45-4.57s-1.51-4.53-3.45-4.53a3.73,3.73,0,0,0-3.08,2,2.13,2.13,0,0,0-.27,1.05Zm24.56-5.09a.55.55,0,0,1,.53.53V39a.55.55,0,0,1-.53.53h-2.8a.54.54,0,0,1-.55-.53V32.13c0-.2-.18-.25-.28-.07l-3.81,7c-.15.28-.32.46-.6.46h-2.75a.55.55,0,0,1-.53-.53V29a3.19,3.19,0,0,0-.58-2.09c-.23-.33-.12-.61.15-.61h3.71a.57.57,0,0,1,.58.53v6.91c0,.2.17.25.27.08l3.81-7.06c.15-.28.33-.46.61-.46ZM183.45,29a3.19,3.19,0,0,0-.58-2.09c-.23-.33-.13-.61.15-.61h4.46a.77.77,0,0,1,.68.51l2.62,7.59a.18.18,0,0,0,.18.15.16.16,0,0,0,.15-.15l2.65-7.59a.78.78,0,0,1,.68-.51h3.48a.49.49,0,0,1,.5.48V39.06a.48.48,0,0,1-.45.51h-2.88a.52.52,0,0,1-.53-.51h0V32.59a.19.19,0,0,0-.37-.05l-2.32,6.52a.78.78,0,0,1-.71.51H189a.77.77,0,0,1-.68-.51L186,32.54c-.08-.23-.38-.18-.35.07v6.45a.51.51,0,0,1-.51.51H184a.48.48,0,0,1-.5-.46v0Zm18.28,0a5.07,5.07,0,0,0-1.38-2.09c-.31-.3-.18-.61.2-.61H204c.51,0,.86.11,1,.51l2.5,6.8a.19.19,0,0,0,.18.18c.1,0,.15-.07.17-.18l2.5-6.8c.12-.4.27-.51.73-.51h1.44c.3,0,.37.23.27.51L206.6,43.48c-.15.4-.26.5-.73.5h-1.42c-.35,0-.48-.23-.37-.5l1.41-3.61a1,1,0,0,0,0-1Zm24.79-2.67a.55.55,0,0,1,.53.53V39a.55.55,0,0,1-.53.53h-2.8a.54.54,0,0,1-.55-.53V32.13c0-.2-.18-.25-.28-.07l-3.8,7c-.16.28-.33.46-.61.46h-2.75a.55.55,0,0,1-.53-.53V29a3.19,3.19,0,0,0-.58-2.09c-.22-.33-.12-.61.16-.61h3.7a.57.57,0,0,1,.58.53v6.91c0,.2.18.25.28.08l3.8-7.06c.16-.28.33-.46.61-.46Zm-9.8-4.16a.49.49,0,0,1,.3-.62l1.59-.56a.36.36,0,0,1,.48.2s0,0,0,0c.33,1.06,1,2.17,1.89,2.17s1.56-1.11,1.89-2.17a.38.38,0,0,1,.47-.26h0l1.58.56a.5.5,0,0,1,.31.62,4.56,4.56,0,0,1-8.57,0ZM240.91,39a.55.55,0,0,1-.56.53h-2.77a.55.55,0,0,1-.53-.53V29a3.19,3.19,0,0,0-.58-2.09c-.22-.33-.12-.61.15-.61h3.73a.57.57,0,0,1,.56.56V31c0,.23.07.33.25.33a.61.61,0,0,0,.5-.3l3.66-4.26c.35-.4.58-.51.86-.51h1.94c.33,0,.4.31.15.61l-3.93,4.64a.44.44,0,0,0,0,.6L249.4,39a.31.31,0,0,1,0,.44.31.31,0,0,1-.22.09h-3A1.3,1.3,0,0,1,245,39l-3.43-4.89a.51.51,0,0,0-.47-.27c-.13,0-.23.1-.23.35Zm14.18,4.42a.58.58,0,0,1-.58.56h-2.68a.58.58,0,0,1-.58-.56h0V29.06a3.12,3.12,0,0,0-.58-2.09c-.22-.33-.12-.61.16-.61h3.45a.55.55,0,0,1,.55.55h0v.38c0,.46.28.43.58.18A6.12,6.12,0,0,1,259.5,26c3.78,0,6.35,3.12,6.35,7s-2.57,7-6.35,7a6,6,0,0,1-3.88-1.31c-.36-.28-.53,0-.53.1Zm0-12V34.5a2.2,2.2,0,0,0,.27,1,3.67,3.67,0,0,0,3.08,2c1.94,0,3.45-1.72,3.45-4.57s-1.51-4.53-3.45-4.53a3.73,3.73,0,0,0-3.08,2,2.13,2.13,0,0,0-.27,1.05ZM267.58,29a5.07,5.07,0,0,0-1.38-2.09c-.31-.3-.18-.61.2-.61h3.42c.51,0,.86.11,1,.51l2.5,6.8a.2.2,0,0,0,.17.18c.11,0,.16-.07.18-.18l2.5-6.8c.12-.4.27-.51.73-.51h1.43c.31,0,.38.23.28.51l-6.17,16.64c-.16.4-.26.5-.74.5h-1.4c-.35,0-.48-.23-.37-.5l1.41-3.61a1,1,0,0,0,0-1ZM291,26.33a.55.55,0,0,1,.53.53l.2,1.57c0,.32-.23.43-.58.3a5.54,5.54,0,0,0-2.09-.35h-.76a.56.56,0,0,0-.55.57h0V39a.56.56,0,0,1-.56.53h-2.77a.55.55,0,0,1-.53-.53V29a.56.56,0,0,0-.54-.58h-.77a5.17,5.17,0,0,0-2.09.35c-.36.13-.63,0-.58-.3l.2-1.57c.05-.3.22-.53.53-.53ZM293.72,29a3.19,3.19,0,0,0-.58-2.09c-.23-.33-.13-.61.15-.61H297a.57.57,0,0,1,.56.56V39a.56.56,0,0,1-.56.53h-2.77a.55.55,0,0,1-.53-.53Zm4.11-6a2.27,2.27,0,1,1-2.29-2.25h0A2.26,2.26,0,0,1,297.83,23v0ZM139.76,69.28a.54.54,0,0,1-.55.53h-2.77a.55.55,0,0,1-.53-.53v-10a3.19,3.19,0,0,0-.58-2.09c-.23-.33-.13-.61.15-.61h3.73a.56.56,0,0,1,.55.56v4.18c0,.23.08.33.26.33a.64.64,0,0,0,.5-.3l3.66-4.26c.35-.4.58-.51.85-.51h2c.33,0,.41.31.15.61l-3.93,4.64a.43.43,0,0,0,0,.6l5.07,6.86a.31.31,0,0,1-.23.53h-3a1.28,1.28,0,0,1-1.16-.51l-3.43-4.89a.53.53,0,0,0-.48-.27c-.12,0-.23.1-.23.35Zm10.35-10a3.19,3.19,0,0,0-.58-2.09c-.23-.33-.13-.61.15-.61h3.73a.57.57,0,0,1,.56.56V69.28a.56.56,0,0,1-.56.53h-2.77a.55.55,0,0,1-.53-.53Zm4.11-6a2.27,2.27,0,1,1-2.32-2.22h.1a2.26,2.26,0,0,1,2.22,2.25Zm6.31,3.3a.57.57,0,0,1,.58.53v4.34a.53.53,0,0,0,.46.58h3.07a.56.56,0,0,0,.56-.56V57.1a.57.57,0,0,1,.55-.53h2.8a.55.55,0,0,1,.53.53V69.28a.55.55,0,0,1-.53.53h-2.8a.54.54,0,0,1-.55-.53V64.64a.56.56,0,0,0-.54-.58h-3a.51.51,0,0,0-.53.51v4.71a.56.56,0,0,1-.58.53h-2.75a.55.55,0,0,1-.53-.53v-10a3.19,3.19,0,0,0-.58-2.09c-.22-.33-.12-.61.15-.61Zm26,6.63c0,4-3,7-7.49,7s-7.46-3-7.46-7,3-7,7.46-7S186.57,59.2,186.57,63.2Zm-4,0c0-2.84-1.48-4.91-3.5-4.91s-3.48,2.07-3.48,4.91,1.51,4.89,3.48,4.89,3.51-2.09,3.51-4.89Zm23.84-6.63a.55.55,0,0,1,.53.53V69.28a.55.55,0,0,1-.53.53h-2.8a.54.54,0,0,1-.55-.53V59.2a.56.56,0,0,0-.54-.58h-3a.5.5,0,0,0-.53.48.33.33,0,0,0,0,.1V69.28a.56.56,0,0,1-.58.53h-2.75a.55.55,0,0,1-.53-.53v-10a3.19,3.19,0,0,0-.58-2.09c-.22-.33-.12-.61.15-.61Zm7.7,17.1a.56.56,0,0,1-.57.55h-2.68a.56.56,0,0,1-.58-.54h0V59.3a3.19,3.19,0,0,0-.58-2.09c-.23-.33-.13-.61.15-.61h3.45a.56.56,0,0,1,.56.55v.38c0,.46.27.43.57.18a6.11,6.11,0,0,1,4.09-1.46c3.78,0,6.35,3.12,6.35,7s-2.57,7-6.35,7a6,6,0,0,1-3.88-1.31c-.36-.28-.53,0-.53.1Zm0-12v3a2.2,2.2,0,0,0,.27,1,3.68,3.68,0,0,0,3.08,2c1.94,0,3.45-1.72,3.45-4.57s-1.51-4.53-3.45-4.53a3.73,3.73,0,0,0-3.08,2,2.09,2.09,0,0,0-.27,1.12Zm24.54-5.1a.55.55,0,0,1,.53.53V69.28a.55.55,0,0,1-.53.53h-2.8a.54.54,0,0,1-.55-.53V62.37c0-.2-.18-.25-.28-.07l-3.8,7c-.16.28-.33.46-.61.46h-2.75a.55.55,0,0,1-.53-.53v-10a3.19,3.19,0,0,0-.58-2.09c-.22-.33-.12-.61.16-.61h3.7a.57.57,0,0,1,.58.53V64c0,.2.18.25.28.08l3.8-7.06c.16-.28.33-.46.61-.46Zm5,3a.42.42,0,0,1-.57.16.41.41,0,0,1-.16-.16l-.56-1.13a.64.64,0,0,1,.08-.84,6,6,0,0,1,4-1.41c2.8,0,4.58,1.64,4.58,3.43a3.36,3.36,0,0,1-1.46,2.8c-.22.15-.2.28,0,.38A3.59,3.59,0,0,1,251.83,66c0,2.3-2.24,4.11-5.09,4.11s-4.61-1.13-5.45-2.49c-.07-.16-.12-.41.31-.63l.88-.48c.33-.18.55.1.7.3a3.26,3.26,0,0,0,2.45,1.23,2,2,0,0,0,2.17-2.29,1.83,1.83,0,0,0-1.64-2,2.16,2.16,0,0,0-.36,0h-.41c-.35,0-.65-.1-.65-.48v-1a.57.57,0,0,1,.55-.53h.4a1.59,1.59,0,0,0,1.55-1.63.86.86,0,0,0,0-.16,1.48,1.48,0,0,0-1.3-1.64h-.31A2.27,2.27,0,0,0,243.7,59.57Zm21.89-3a.55.55,0,0,1,.53.53V69.28a.55.55,0,0,1-.53.53h-2.8a.54.54,0,0,1-.55-.53V62.37c0-.2-.18-.25-.28-.07l-3.81,7c-.15.28-.32.46-.6.46H254.8a.55.55,0,0,1-.53-.53v-10a3.19,3.19,0,0,0-.58-2.09c-.22-.33-.12-.61.15-.61h3.71a.57.57,0,0,1,.58.53V64c0,.2.18.25.28.08l3.8-7.06c.15-.28.33-.46.61-.46Zm8.56,11.35a2.27,2.27,0,1,1-2.29-2.25h0a2.26,2.26,0,0,1,2.27,2.25Zm-4.49-15a.91.91,0,0,1,.94-.78h2.54c.63,0,1,.36,1,.78l-.71,10.57a.88.88,0,0,1-1,.78H271.3a.86.86,0,0,1-1-.68s0-.07,0-.1Z" transform="translate(0 -0.01)" style="fill:#fff"/></svg>