<?xml version="1.0" encoding="utf-8"?>
<!-- Generator: Adobe Illustrator 22.0.1, SVG Export Plug-In . SVG Version: 6.00 Build 0)  -->
<svg version="1.1" id="Слой_1" xmlns="http://www.w3.org/2000/svg" xmlns:xlink="http://www.w3.org/1999/xlink" x="0px" y="0px"
	 viewBox="0 0 297.8 90.2" style="enable-background:new 0 0 297.8 90.2;" xml:space="preserve">
<style type="text/css">
	.st0{fill:#FDE619;}
	.st1{fill:#ED1D24;}
	.st2{fill:none;stroke:#FDE619;stroke-width:5;stroke-linecap:round;stroke-linejoin:round;}
	.st3{fill:#FFFFFF;}
</style>
<title>Asset 3</title>
<g id="Layer_2">
	<g id="prizes_copy_5">
		<g>
			<g>
				<path class="st0" d="M81.3,49.5h-8.8V34.8c0-2.4-1.9-4.3-4.3-4.3H4.3c-2.4,0-4.3,1.9-4.3,4.3v51.1c0,2.4,1.9,4.3,4.3,4.3h63.9
					c2.4,0,4.3-1.9,4.3-4.3V71.2h8.8l15.1,8.1v-38L81.3,49.5z"/>
				<path class="st1" d="M49.4,63.9L34.9,74.4C34.4,74.8,33.7,75,33,75c-0.5,0-1-0.1-1.5-0.4c-1.1-0.6-1.8-1.7-1.8-2.9v-21
					c0-1.8,1.5-3.3,3.3-3.3c0.7,0,1.4,0.2,1.9,0.6l14.5,10.5c0.9,0.6,1.4,1.6,1.4,2.7C50.8,62.2,50.3,63.2,49.4,63.9z"/>
				<g>
					<path class="st2" d="M10.5,6.9c-8.2,10.9,5.9,25.3,25.7,20.8C36.2,6,18.8-3.9,10.5,6.9z"/>
					<path class="st2" d="M61.9,6.9c8.2,10.9-5.9,25.3-25.7,20.8C36.2,6,53.7-3.9,61.9,6.9z"/>
				</g>
			</g>
			<g>
				<path class="st3" d="M135.9,30.8c0,5.2-4.1,9.1-9.9,9.1s-9.8-4-9.8-9.1s4.1-9.2,9.8-9.2C131.7,21.6,135.9,25.5,135.9,30.8z
					 M131.4,30.8c0-3.9-2.3-6.9-5.5-6.9s-5.4,3-5.4,6.9s2.3,6.9,5.4,6.9C129.1,37.7,131.4,34.6,131.4,30.8L131.4,30.8z"/>
				<path class="st3" d="M148.4,26.3c0.3,0,0.5,0.2,0.5,0.5l0.2,1.6c0.1,0.3-0.2,0.4-0.6,0.3c-0.7-0.3-1.4-0.4-2.1-0.4h-0.8
					c-0.3,0-0.6,0.3-0.6,0.6c0,0,0,0,0,0v10c0,0.3-0.3,0.5-0.6,0.5h-2.8c-0.3,0-0.5-0.2-0.5-0.5V29c0-0.3-0.2-0.6-0.5-0.6
					c0,0,0,0,0,0H140c-0.7,0-1.4,0.1-2.1,0.4c-0.4,0.1-0.6,0-0.6-0.3l0.2-1.6c0-0.3,0.2-0.5,0.5-0.5L148.4,26.3z"/>
				<path class="st3" d="M155,43.4c0,0.3-0.3,0.6-0.6,0.6c0,0,0,0,0,0h-2.7c-0.3,0-0.6-0.2-0.6-0.6c0,0,0,0,0,0V29.1
					c0.1-0.7-0.1-1.5-0.6-2.1c-0.2-0.3-0.1-0.6,0.2-0.6h3.4c0.3,0,0.6,0.2,0.6,0.5v0v0.4c0,0.5,0.3,0.4,0.6,0.2
					c1.1-1,2.6-1.5,4.1-1.5c3.8,0,6.4,3.1,6.4,7s-2.6,7-6.4,7c-1.4,0-2.8-0.4-3.9-1.3c-0.4-0.3-0.5,0-0.5,0.1L155,43.4z M155,31.4
					v3.1c0,0.4,0.1,0.7,0.3,1c0.6,1.2,1.8,1.9,3.1,2c1.9,0,3.4-1.7,3.4-4.6s-1.5-4.5-3.4-4.5c-1.3,0.1-2.5,0.8-3.1,2
					C155.1,30.7,155,31.1,155,31.4L155,31.4z"/>
				<path class="st3" d="M179.6,26.3c0.3,0,0.5,0.2,0.5,0.5V39c0,0.3-0.2,0.5-0.5,0.5h-2.8c-0.3,0-0.5-0.2-0.6-0.5v-6.9
					c0-0.2-0.2-0.3-0.3-0.1l-3.8,7c-0.1,0.3-0.3,0.5-0.6,0.5h-2.8c-0.3,0-0.5-0.2-0.5-0.5V29c0.1-0.7-0.1-1.5-0.6-2.1
					c-0.2-0.3-0.1-0.6,0.1-0.6h3.7c0.3,0,0.6,0.2,0.6,0.5v6.9c0,0.2,0.2,0.3,0.3,0.1l3.8-7.1c0.1-0.3,0.3-0.5,0.6-0.5L179.6,26.3z"
					/>
				<path class="st3" d="M183.4,29c0.1-0.7-0.2-1.5-0.6-2.1c-0.2-0.3-0.1-0.6,0.1-0.6h4.5c0.3,0,0.6,0.2,0.7,0.5l2.6,7.6
					c0,0.1,0.1,0.1,0.2,0.2c0,0,0.1,0,0.1-0.2l2.6-7.6c0.1-0.3,0.4-0.5,0.7-0.5h3.5c0.3,0,0.5,0.2,0.5,0.5c0,0,0,0,0,0v12.3
					c0,0.3-0.2,0.5-0.4,0.5c0,0,0,0-0.1,0h-2.8c-0.3,0-0.5-0.2-0.5-0.5c0,0,0,0,0,0v-6.5c0-0.3-0.3-0.3-0.4,0l-2.3,6.5
					c-0.1,0.3-0.4,0.5-0.7,0.5H189c-0.3,0-0.6-0.2-0.7-0.5l-2.3-6.5c-0.1-0.2-0.4-0.2-0.4,0.1v6.5c0,0.3-0.2,0.5-0.5,0.5H184
					c-0.3,0-0.5-0.2-0.5-0.5c0,0,0,0,0-0.1L183.4,29z"/>
				<path class="st3" d="M201.7,29c-0.3-0.8-0.8-1.5-1.4-2.1c-0.3-0.3-0.2-0.6,0.2-0.6h3.5c0.5,0,0.9,0.1,1,0.5l2.5,6.8
					c0,0.1,0.1,0.2,0.2,0.2c0.1,0,0.1-0.1,0.2-0.2l2.5-6.8c0.1-0.4,0.3-0.5,0.7-0.5h1.4c0.3,0,0.4,0.2,0.3,0.5l-6.2,16.7
					c-0.1,0.4-0.3,0.5-0.7,0.5h-1.4c-0.4,0-0.5-0.2-0.4-0.5l1.4-3.6c0.2-0.3,0.2-0.7,0-1L201.7,29z"/>
				<path class="st3" d="M226.5,26.3c0.3,0,0.5,0.2,0.5,0.5V39c0,0.3-0.2,0.5-0.5,0.5h-2.8c-0.3,0-0.5-0.2-0.6-0.5v-6.9
					c0-0.2-0.2-0.3-0.3-0.1l-3.8,7c-0.2,0.3-0.3,0.5-0.6,0.5h-2.8c-0.3,0-0.5-0.2-0.5-0.5V29c0.1-0.7-0.1-1.5-0.6-2.1
					c-0.2-0.3-0.1-0.6,0.2-0.6h3.7c0.3,0,0.6,0.2,0.6,0.5v6.9c0,0.2,0.2,0.3,0.3,0.1l3.8-7.1c0.2-0.3,0.3-0.5,0.6-0.5L226.5,26.3z
					 M216.7,22.2c-0.1-0.3,0-0.5,0.3-0.6l1.6-0.6c0.2-0.1,0.4,0,0.5,0.2c0,0,0,0,0,0c0.3,1.1,1,2.2,1.9,2.2s1.6-1.1,1.9-2.2
					c0.1-0.2,0.3-0.3,0.5-0.3c0,0,0,0,0,0l1.6,0.6c0.3,0.1,0.4,0.4,0.3,0.6c-0.9,2.4-3.5,3.6-5.8,2.7
					C218.2,24.4,217.2,23.4,216.7,22.2z"/>
				<path class="st3" d="M240.9,39c0,0.3-0.3,0.5-0.6,0.5h-2.8c-0.3,0-0.5-0.2-0.5-0.5V29c0.1-0.7-0.1-1.5-0.6-2.1
					c-0.2-0.3-0.1-0.6,0.1-0.6h3.7c0.3,0,0.6,0.3,0.6,0.6V31c0,0.2,0.1,0.3,0.3,0.3c0.2,0,0.4-0.1,0.5-0.3l3.7-4.3
					c0.4-0.4,0.6-0.5,0.9-0.5h1.9c0.3,0,0.4,0.3,0.1,0.6l-3.9,4.6c-0.2,0.2-0.2,0.4,0,0.6l5.1,6.9c0.1,0.1,0.1,0.3,0,0.4
					c-0.1,0.1-0.1,0.1-0.2,0.1h-3c-0.4,0-0.9-0.1-1.2-0.5l-3.4-4.9c-0.1-0.2-0.3-0.3-0.5-0.3c-0.1,0-0.2,0.1-0.2,0.3L240.9,39z"/>
				<path class="st3" d="M255.1,43.4c0,0.3-0.3,0.6-0.6,0.6c0,0,0,0,0,0h-2.7c-0.3,0-0.6-0.2-0.6-0.6c0,0,0,0,0,0V29.1
					c0.1-0.7-0.1-1.5-0.6-2.1c-0.2-0.3-0.1-0.6,0.2-0.6h3.4c0.3,0,0.6,0.2,0.6,0.5v0v0.4c0,0.5,0.3,0.4,0.6,0.2
					c1.1-1,2.6-1.5,4.1-1.5c3.8,0,6.4,3.1,6.4,7s-2.6,7-6.4,7c-1.4,0-2.8-0.4-3.9-1.3c-0.4-0.3-0.5,0-0.5,0.1V43.4z M255.1,31.4v3.1
					c0,0.4,0.1,0.7,0.3,1c0.6,1.2,1.8,1.9,3.1,2c1.9,0,3.5-1.7,3.5-4.6s-1.5-4.5-3.5-4.5c-1.3,0.1-2.5,0.8-3.1,2
					C255.2,30.7,255.1,31.1,255.1,31.4L255.1,31.4z"/>
				<path class="st3" d="M267.6,29c-0.3-0.8-0.8-1.5-1.4-2.1c-0.3-0.3-0.2-0.6,0.2-0.6h3.4c0.5,0,0.9,0.1,1,0.5l2.5,6.8
					c0,0.1,0.1,0.2,0.2,0.2c0.1,0,0.2-0.1,0.2-0.2l2.5-6.8c0.1-0.4,0.3-0.5,0.7-0.5h1.4c0.3,0,0.4,0.2,0.3,0.5l-6.2,16.6
					c-0.2,0.4-0.3,0.5-0.7,0.5h-1.4c-0.4,0-0.5-0.2-0.4-0.5l1.4-3.6c0.2-0.3,0.2-0.7,0-1L267.6,29z"/>
				<path class="st3" d="M291,26.3c0.3,0,0.5,0.2,0.5,0.5l0.2,1.6c0,0.3-0.2,0.4-0.6,0.3c-0.7-0.3-1.4-0.4-2.1-0.4h-0.8
					c-0.3,0-0.6,0.3-0.6,0.6c0,0,0,0,0,0v10c0,0.3-0.3,0.5-0.6,0.5h-2.8c-0.3,0-0.5-0.2-0.5-0.5V29c0-0.3-0.2-0.6-0.5-0.6
					c0,0,0,0,0,0h-0.8c-0.7,0-1.4,0.1-2.1,0.4c-0.4,0.1-0.6,0-0.6-0.3l0.2-1.6c0-0.3,0.2-0.5,0.5-0.5L291,26.3z"/>
				<path class="st3" d="M293.7,29c0.1-0.7-0.1-1.5-0.6-2.1c-0.2-0.3-0.1-0.6,0.1-0.6h3.7c0.3,0,0.6,0.3,0.6,0.6V39
					c0,0.3-0.3,0.5-0.6,0.5h-2.8c-0.3,0-0.5-0.2-0.5-0.5L293.7,29z M297.8,23c0,1.3-1,2.3-2.2,2.3s-2.3-1-2.3-2.2
					c0-1.3,1-2.3,2.2-2.3c0,0,0,0,0,0C296.8,20.7,297.8,21.8,297.8,23C297.8,23,297.8,23,297.8,23L297.8,23z"/>
				<path class="st3" d="M139.8,69.3c0,0.3-0.3,0.5-0.6,0.5h-2.8c-0.3,0-0.5-0.2-0.5-0.5v-10c0.1-0.7-0.1-1.5-0.6-2.1
					c-0.2-0.3-0.1-0.6,0.1-0.6h3.7c0.3,0,0.6,0.3,0.6,0.6v4.2c0,0.2,0.1,0.3,0.3,0.3c0.2,0,0.4-0.1,0.5-0.3l3.7-4.3
					c0.4-0.4,0.6-0.5,0.9-0.5h2c0.3,0,0.4,0.3,0.1,0.6l-3.9,4.6c-0.2,0.2-0.2,0.4,0,0.6l5.1,6.9c0.1,0.1,0.1,0.3,0,0.4
					c-0.1,0.1-0.1,0.1-0.2,0.1h-3c-0.4,0-0.9-0.1-1.2-0.5l-3.4-4.9c-0.1-0.2-0.3-0.3-0.5-0.3c-0.1,0-0.2,0.1-0.2,0.3L139.8,69.3z"/>
				<path class="st3" d="M150.1,59.3c0.1-0.7-0.1-1.5-0.6-2.1c-0.2-0.3-0.1-0.6,0.1-0.6h3.7c0.3,0,0.6,0.3,0.6,0.6v12.1
					c0,0.3-0.3,0.5-0.6,0.5h-2.8c-0.3,0-0.5-0.2-0.5-0.5L150.1,59.3z M154.2,53.3c0,1.3-1,2.3-2.2,2.3c-1.3,0-2.3-1-2.3-2.2
					c0-1.3,1-2.3,2.2-2.3c0,0,0.1,0,0.1,0C153.2,51.1,154.2,52.1,154.2,53.3L154.2,53.3z"/>
				<path class="st3" d="M160.5,56.6c0.3,0,0.6,0.2,0.6,0.5v4.3c0,0.3,0.2,0.5,0.5,0.6c0,0,0,0,0.1,0h3c0.3,0,0.6-0.3,0.6-0.6
					c0,0,0,0,0,0v-4.3c0-0.3,0.3-0.5,0.6-0.5h2.8c0.3,0,0.5,0.2,0.5,0.5v12.2c0,0.3-0.2,0.5-0.5,0.5h-2.8c-0.3,0-0.5-0.2-0.6-0.5
					v-4.6c0-0.3-0.2-0.6-0.5-0.6c0,0,0,0,0,0h-3c-0.3,0-0.5,0.2-0.5,0.5c0,0,0,0,0,0.1v4.6c0,0.3-0.3,0.5-0.6,0.5h-2.8
					c-0.3,0-0.5-0.2-0.5-0.5v-10c0.1-0.7-0.1-1.5-0.6-2.1c-0.2-0.3-0.1-0.6,0.1-0.6L160.5,56.6z"/>
				<path class="st3" d="M186.6,63.2c0,4-3,7-7.5,7s-7.5-3-7.5-7s3-7,7.5-7S186.6,59.2,186.6,63.2z M182.6,63.2
					c0-2.8-1.5-4.9-3.5-4.9s-3.5,2.1-3.5,4.9s1.5,4.9,3.5,4.9S182.6,66,182.6,63.2L182.6,63.2z"/>
				<path class="st3" d="M206.4,56.6c0.3,0,0.5,0.2,0.5,0.5v12.2c0,0.3-0.2,0.5-0.5,0.5h-2.8c-0.3,0-0.5-0.2-0.6-0.5V59.2
					c0-0.3-0.2-0.6-0.5-0.6c0,0,0,0,0,0h-3c-0.3,0-0.5,0.2-0.5,0.5c0,0,0,0.1,0,0.1v10.1c0,0.3-0.3,0.5-0.6,0.5h-2.8
					c-0.3,0-0.5-0.2-0.5-0.5v-10c0.1-0.7-0.1-1.5-0.6-2.1c-0.2-0.3-0.1-0.6,0.1-0.6L206.4,56.6z"/>
				<path class="st3" d="M214.1,73.7c0,0.3-0.3,0.6-0.6,0.6c0,0,0,0,0,0h-2.7c-0.3,0-0.6-0.2-0.6-0.5c0,0,0,0,0,0V59.3
					c0.1-0.7-0.1-1.5-0.6-2.1c-0.2-0.3-0.1-0.6,0.1-0.6h3.4c0.3,0,0.6,0.2,0.6,0.5v0.4c0,0.5,0.3,0.4,0.6,0.2c1.1-1,2.6-1.5,4.1-1.5
					c3.8,0,6.4,3.1,6.4,7s-2.6,7-6.4,7c-1.4,0-2.8-0.4-3.9-1.3c-0.4-0.3-0.5,0-0.5,0.1L214.1,73.7z M214.1,61.7v3
					c0,0.4,0.1,0.7,0.3,1c0.6,1.2,1.8,1.9,3.1,2c1.9,0,3.4-1.7,3.4-4.6s-1.5-4.5-3.4-4.5c-1.3,0.1-2.5,0.8-3.1,2
					C214.2,60.9,214.1,61.3,214.1,61.7L214.1,61.7z"/>
				<path class="st3" d="M238.6,56.6c0.3,0,0.5,0.2,0.5,0.5v12.2c0,0.3-0.2,0.5-0.5,0.5h-2.8c-0.3,0-0.5-0.2-0.6-0.5v-6.9
					c0-0.2-0.2-0.3-0.3-0.1l-3.8,7c-0.2,0.3-0.3,0.5-0.6,0.5h-2.8c-0.3,0-0.5-0.2-0.5-0.5v-10c0.1-0.7-0.1-1.5-0.6-2.1
					c-0.2-0.3-0.1-0.6,0.2-0.6h3.7c0.3,0,0.6,0.2,0.6,0.5V64c0,0.2,0.2,0.3,0.3,0.1l3.8-7.1c0.2-0.3,0.3-0.5,0.6-0.5L238.6,56.6z"/>
				<path class="st3" d="M243.7,59.6c-0.1,0.2-0.4,0.3-0.6,0.2c-0.1,0-0.1-0.1-0.2-0.2l-0.6-1.1c-0.2-0.3-0.2-0.6,0.1-0.8
					c1.1-0.9,2.5-1.4,4-1.4c2.8,0,4.6,1.6,4.6,3.4c0,1.1-0.5,2.2-1.5,2.8c-0.2,0.2-0.2,0.3,0,0.4c1.3,0.5,2.2,1.8,2.2,3.2
					c0,2.3-2.2,4.1-5.1,4.1s-4.6-1.1-5.4-2.5c-0.1-0.2-0.1-0.4,0.3-0.6l0.9-0.5c0.3-0.2,0.6,0.1,0.7,0.3c0.6,0.8,1.5,1.2,2.4,1.2
					c1.1,0.1,2.1-0.7,2.2-1.8c0-0.2,0-0.3,0-0.5c0.1-1-0.6-1.9-1.6-2c-0.1,0-0.2,0-0.4,0h-0.4c-0.4,0-0.6-0.1-0.6-0.5v-1
					c0-0.3,0.3-0.5,0.6-0.5h0.4c0.9,0,1.6-0.7,1.6-1.6c0-0.1,0-0.1,0-0.2c0.1-0.8-0.5-1.5-1.3-1.6c-0.1,0-0.2,0-0.3,0
					C244.8,58.4,244.1,58.8,243.7,59.6z"/>
				<path class="st3" d="M265.6,56.6c0.3,0,0.5,0.2,0.5,0.5v12.2c0,0.3-0.2,0.5-0.5,0.5h-2.8c-0.3,0-0.5-0.2-0.5-0.5v-6.9
					c0-0.2-0.2-0.3-0.3-0.1l-3.8,7c-0.1,0.3-0.3,0.5-0.6,0.5h-2.8c-0.3,0-0.5-0.2-0.5-0.5v-10c0.1-0.7-0.1-1.5-0.6-2.1
					c-0.2-0.3-0.1-0.6,0.1-0.6h3.7c0.3,0,0.6,0.2,0.6,0.5V64c0,0.2,0.2,0.3,0.3,0.1l3.8-7.1c0.1-0.3,0.3-0.5,0.6-0.5L265.6,56.6z"/>
				<path class="st3" d="M274.1,67.9c0,1.3-1,2.3-2.2,2.3c-1.3,0-2.3-1-2.3-2.2s1-2.3,2.2-2.3c0,0,0,0,0,0
					C273.1,65.7,274.1,66.7,274.1,67.9C274.1,67.9,274.1,67.9,274.1,67.9z M269.7,52.9c0.1-0.5,0.5-0.8,0.9-0.8h2.5
					c0.6,0,1,0.4,1,0.8l-0.7,10.6c-0.1,0.5-0.5,0.8-1,0.8c0,0,0,0,0,0h-1.1c-0.5,0.1-0.9-0.2-1-0.7c0,0,0-0.1,0-0.1L269.7,52.9z"/>
			</g>
		</g>
	</g>
</g>
</svg>
