<svg xmlns="http://www.w3.org/2000/svg" viewBox="0 0 621.04 268.97"><title>Vector Smart Object21111112</title><path d="M614,132,602.16,64.77A12.45,12.45,0,0,0,597,56.7L581.18,45.6A12.52,12.52,0,0,0,574,43.34a12.24,12.24,0,0,0-2.17.19L531.5,50.64A12.51,12.51,0,0,0,524,55.07l-8.85-6.2A12.52,12.52,0,0,0,508,46.61a12.16,12.16,0,0,0-2.17.19L478.9,51.54a12.55,12.55,0,0,0-8.07,5.14l-8.38,12-12-8.38A12.49,12.49,0,0,0,443.31,58a12.24,12.24,0,0,0-2.17.19l-26.87,4.74a12.45,12.45,0,0,0-8.07,5.14l-7,10L379.4,81.6a12.52,12.52,0,0,0-8.66,6.06,12.52,12.52,0,0,0-10.21-2.73l-10.78,1.9a12.5,12.5,0,0,0-8.66,6.06,12.51,12.51,0,0,0-8-2.93,13.47,13.47,0,0,0-2.18.19L319,92.25A12.44,12.44,0,0,0,313,90.68a13.36,13.36,0,0,0-2.18.18l-20.18,3.56a12.5,12.5,0,0,0-9.15,7,12.5,12.5,0,0,0-11-3.46l-20.24,3.57a12.49,12.49,0,0,0-8.42,19l27.73,44.18,1.33,7.53a12.33,12.33,0,0,0-2.3-2.08,12.52,12.52,0,0,0-7.17-2.26,12.24,12.24,0,0,0-2.17.19l-14.64,2.58-10.91-61.86a12.51,12.51,0,0,0-12.3-10.33,13.47,13.47,0,0,0-2.18.19L199,102.2a12.5,12.5,0,0,0-10.14,14.48l10.91,61.86-9.08,1.6-10.91-61.86a12.5,12.5,0,0,0-14.48-10.14l-15.52,2.74a15.65,15.65,0,0,0,1.11-3.81L157.27,66c.07-.46.12-.91.15-1.36a16.61,16.61,0,0,0,1.3-2.6l3.8-9.59a15.4,15.4,0,0,0-8.33-20.08L99,10.51a14.66,14.66,0,0,0-5.44-1,15.49,15.49,0,0,0-14.37,10L75.42,29a12.47,12.47,0,0,0-.22,8.6l1.17,3.48a15.17,15.17,0,0,0-7.91,11.17S62.1,93.47,62.1,93.51a15.3,15.3,0,0,0,12.77,17.26l36.34,5.61L93.8,119.44a12.5,12.5,0,0,0-8.07,5.15l-7.45,10.63a12.51,12.51,0,0,0-6.88-.73L51.25,138a12.45,12.45,0,0,0-6.41,3.23,12.31,12.31,0,0,0-4.9-1,12.46,12.46,0,0,0-2.19.19L17.6,144A12.5,12.5,0,0,0,7.46,158.48l16.59,94.09A12.5,12.5,0,0,0,36.36,262.9a12.24,12.24,0,0,0,2.17-.19l20.15-3.56a12.43,12.43,0,0,0,6.43-3.23,12.48,12.48,0,0,0,4.9,1,12.24,12.24,0,0,0,2.17-.19l20.15-3.55a12.51,12.51,0,0,0,10.14-14.49l-.91-5.18,3.85,2.7a12.52,12.52,0,0,0,7.17,2.26,12.16,12.16,0,0,0,2.17-.19l26.88-4.73a12.5,12.5,0,0,0,8.06-5.15l3.13-4.46a12.5,12.5,0,0,0,13.34,6.69l47.1-8.3a12.81,12.81,0,0,0,3.29-1.07,10.86,10.86,0,0,0,1.28.07,12.43,12.43,0,0,0,2.18-.19l47.1-8.31a12.5,12.5,0,0,0,9.52-7.88l.29,1.62a12.5,12.5,0,0,0,12.31,10.33,12.24,12.24,0,0,0,2.17-.19l20.15-3.55a12.5,12.5,0,0,0,10.14-14.48l-7.39-41.9,1.58-7.38,19.43,52a12.5,12.5,0,0,0,13.88,7.94l21.5-3.79a12.59,12.59,0,0,0,5.17-2.19,12.63,12.63,0,0,0,3.43.48,13.47,13.47,0,0,0,2.18-.19L403,199.85a12.5,12.5,0,0,0,10.33-12.19l.15-16.62,10.6,7.42c-.16.18-.32.34-.47.53A12.49,12.49,0,0,0,423,193.6l12.64,19.29-13.47,16.94A12.5,12.5,0,0,0,432,250.11a12.37,12.37,0,0,0,3.17-.41l21.08-5.53L469,263.4A12.51,12.51,0,0,0,479.4,269a12.68,12.68,0,0,0,3.38-.46A12.49,12.49,0,0,0,491.89,257l.95-23L515,227.65a12.51,12.51,0,0,0,.94-23.74l-21.5-8,1-22.71a13,13,0,0,0-.21-2.87,12.49,12.49,0,0,0,2.45.25,12.24,12.24,0,0,0,2.17-.19l26.87-4.74a12.45,12.45,0,0,0,8.07-5.14l2.7-3.86.44,2.49a12.5,12.5,0,0,0,12.31,10.33,12.24,12.24,0,0,0,2.17-.19l40.34-7.11a12.48,12.48,0,0,0,8-5.07l11.13-15.65A12.44,12.44,0,0,0,614,132Z" fill="#b1181e"/><path d="M53.42,150.36l20.15-3.56,16.59,94.07L70,244.42,63.5,207.54,50,209.92l6.51,36.92L36.36,250.4,19.77,156.31l20.15-3.55,6.53,37L60,187.39ZM122.84,127l15.85,11.09,11.86,67.28-11.1,15.85L112.58,226,96.74,214.88,84.88,147.6,96,131.76Zm-3.13,21.33-13.5,2.38,9.49,53.81,13.5-2.38Zm47.8-27.9L147.36,124,164,218.32l47.1-8.3-3.55-20.15-26.95,4.75Zm53.85-9.5-20.15,3.56,16.63,94.32,47.1-8.31-3.55-20.15-26.95,4.75Zm71.42-4.22-5.47,28.08-14.68-24.52-20.24,3.57,29,46.24,7.81,44.3,20.15-3.55-7.81-44.3L313,103.18Zm87.2,41.2L362.7,97.24l-10.78,1.9L353,152.68l-20-50.21L313,106l34,91,21.5-3.79-.12-32.18,10.9,30.28,21.56-3.81.89-97.19-20.18,3.56Zm63.33-77.42L459.15,81.6,471,148.88l-11.09,15.85-26.88,4.74-15.84-11.1L405.35,91.09l11.09-15.84Zm-3.13,21.33-13.5,2.38L436.16,148l13.51-2.38ZM508,59.11l15.84,11.1,11.86,67.28-11.09,15.84-26.87,4.74L481.84,147,470,79.7l11.09-15.85Zm-3.14,21.34-13.5,2.38,9.49,53.81,13.5-2.39Zm85-13.51,11.86,67.26-11.12,15.65L550.25,157,533.67,63,574,55.84Zm-19,10.23-13.5,2.38,9.48,53.81L580.37,131Z" fill="#fff"/><rect x="-442.07" y="-2010.01" width="5094.33" height="2865.56" fill="none"/></svg>