<svg xmlns="http://www.w3.org/2000/svg" viewBox="0 0 253.19 119.68"><title>Vector Smart Object21111112</title><path d="M167.79,113.29a26.81,26.81,0,0,1-9.55-1.72,13.4,13.4,0,0,1-5.49,1.16h-3.28a13.38,13.38,0,0,1-7-2,13.41,13.41,0,0,1-7,2H132a13.3,13.3,0,0,1-9.91-4.41,13.37,13.37,0,0,1-9.94,4.41h-3.4a13.49,13.49,0,0,1-3.78-.54,13.63,13.63,0,0,1-3.8.54H97.93a13.39,13.39,0,0,1-7-2,13.39,13.39,0,0,1-7,2H80.49A13.35,13.35,0,0,1,67.15,99.39V78a13.11,13.11,0,0,1,.36-11.34,13.35,13.35,0,0,1,1-1.62,13.2,13.2,0,0,1-4.69-1.57,29,29,0,0,1-10.26,1.84,28,28,0,0,1-17.63-6.08,13.44,13.44,0,0,1-10.87,5.52H21.71A13.36,13.36,0,0,1,8.37,51.39V30a13.12,13.12,0,0,1,.38-11.31,12.92,12.92,0,0,1,11.48-6.92H36.31a13.6,13.6,0,0,1,6.36,1.56,29.1,29.1,0,0,1,24.09,1,12.93,12.93,0,0,1,7.81-2.6H92.08a13.3,13.3,0,0,1,7.54,2.33A29,29,0,0,1,124,13.65a13,13,0,0,1,6.8-1.91h11.56A21.89,21.89,0,0,1,149.67,13a13,13,0,0,1,5.57-1.25h4.88a13.34,13.34,0,0,1,7,2,13.4,13.4,0,0,1,7-2h3.28a13.41,13.41,0,0,1,3.06.35,13,13,0,0,1,3-.35h4.88a13.35,13.35,0,0,1,7,2,13.46,13.46,0,0,1,7.06-2H206a13.4,13.4,0,0,1,6-6,13.09,13.09,0,0,1,1.45-.61l2.11-.74a13.07,13.07,0,0,1,8-.27,13.07,13.07,0,0,1,8,.27l2.11.74a12.94,12.94,0,0,1,1.44.61,13.29,13.29,0,0,1,7,8.74,13.33,13.33,0,0,1,5.35,10.68V51.39a13.39,13.39,0,0,1-13.42,13.34H230.8a13.33,13.33,0,0,1-7-2,13.45,13.45,0,0,1-7,2h-3.4a13.49,13.49,0,0,1-3.78-.54,13.63,13.63,0,0,1-3.8.54H202.5a13.39,13.39,0,0,1-7-2,13.38,13.38,0,0,1-7,2h-3.4a13.14,13.14,0,0,1-2.45-.22,19,19,0,0,1,6.48,14.57,18.4,18.4,0,0,1-.73,5.11,19.88,19.88,0,0,1,1.8,8.25C190.16,104.33,180.54,113.29,167.79,113.29Z" fill="#b1181e"/><path d="M37.31,25.08l.36,2.4c.08.56-.32.76-.88.56a11.33,11.33,0,0,0-3.52-.6H26.83a.84.84,0,0,0-.84.92v23a.89.89,0,0,1-.92.84H21.71a.87.87,0,0,1-.84-.84V28.52A5,5,0,0,0,20,25.2c-.36-.52-.15-1,.28-1H36.31A1,1,0,0,1,37.31,25.08Zm31.46,13.2c0,8.2-6.36,14.51-15.2,14.51S38.49,46.48,38.49,38.28s6.36-14.6,15.08-14.6S68.77,30,68.77,38.28Zm-5.6,0c0-6.36-4-11.36-9.6-11.36s-9.48,5-9.48,11.36,4,11.35,9.48,11.35S63.17,44.6,63.17,38.24ZM78.76,28.16a.65.65,0,0,1,.72-.72H87a.9.9,0,0,1,.88.92v23a.87.87,0,0,0,.84.84h3.4a.88.88,0,0,0,.88-.84V25.12a.89.89,0,0,0-.88-.88H74.57c-.44,0-.6.44-.25,1a4.93,4.93,0,0,1,1,3.32v5c0,3.08-.16,8.6-1.55,12.24-.52,1.52-1.72,3.44-3.48,3.07a.69.69,0,0,0-.88.84L69.69,52a.61.61,0,0,0,.72.6C78.12,52,78.76,39.76,78.76,34ZM97.14,38.28c0-8.28,6.36-14.6,15.07-14.6s15.2,6.32,15.2,14.6-6.36,14.51-15.2,14.51S97.14,46.48,97.14,38.28Zm5.6,0c0,6.36,4,11.35,9.47,11.35s9.6-5,9.6-11.35-4-11.36-9.6-11.36S102.74,31.88,102.74,38.24Zm27.78-13c-.36-.52-.2-1,.24-1h11.56c4.87,0,8.15,3.24,8.15,7.32a6.62,6.62,0,0,1-2.84,5.4c-.24.2-.28.48,0,.64a7.59,7.59,0,0,1,4.16,6.6c0,4.39-3.56,8-8.8,8H132.28a.87.87,0,0,1-.84-.84V28.52A5,5,0,0,0,130.52,25.2Zm6,10.08a.63.63,0,0,0,.52.68h3.79a4.06,4.06,0,0,0,4.2-4.24,4,4,0,0,0-4.2-4.28H137.2a.65.65,0,0,0-.64.72Zm0,13.08a.62.62,0,0,0,.52.67h4.07a4.72,4.72,0,0,0,5.12-5,4.7,4.7,0,0,0-4.83-4.92H137.2a.64.64,0,0,0-.64.68Zm40.91-24.12h-3.28a.9.9,0,0,0-.92.88V35.48a.88.88,0,0,1-.84.88H161.88a.83.83,0,0,1-.84-.88V25.12a.9.9,0,0,0-.92-.88h-4.88c-.44,0-.6.44-.24,1a5,5,0,0,1,.92,3.32V51.39a.87.87,0,0,0,.84.84h3.36a.89.89,0,0,0,.92-.84v-11a.83.83,0,0,1,.84-.88h10.55a.88.88,0,0,1,.84.88v11a.89.89,0,0,0,.92.84h3.28a.89.89,0,0,0,.92-.84V25.12A.9.9,0,0,0,177.47,24.24Zm28.31,0H202.5a1.24,1.24,0,0,0-1,.68L189.82,44.16c-.16.28-.48.2-.48-.12V25.12a.9.9,0,0,0-.92-.88h-4.88c-.44,0-.6.44-.24,1a5,5,0,0,1,.92,3.32V51.39a.87.87,0,0,0,.84.84h3.4a1.26,1.26,0,0,0,1-.68L201.1,32.28c.16-.28.48-.2.48.12v19a.89.89,0,0,0,.92.84h3.28a.89.89,0,0,0,.92-.84V25.12A.9.9,0,0,0,205.78,24.24Zm17.82-1.92a6.85,6.85,0,0,0,6.4-4.48.77.77,0,0,0-.44-1l-2.16-.76a.58.58,0,0,0-.8.44c-.52,1.76-1.6,3.12-3,3.12s-2.48-1.36-3-3.12a.58.58,0,0,0-.8-.44l-2.16.76a.77.77,0,0,0-.44,1A6.85,6.85,0,0,0,223.6,22.32Zm10.48,1.92H230.8a1.24,1.24,0,0,0-1,.68L218.12,44.16c-.16.28-.48.2-.48-.12V25.12a.9.9,0,0,0-.92-.88h-4.88c-.44,0-.6.44-.24,1a5,5,0,0,1,.92,3.32V51.39a.87.87,0,0,0,.84.84h3.4a1.26,1.26,0,0,0,1-.68L229.4,32.28c.16-.28.48-.2.48.12v19a.89.89,0,0,0,.92.84h3.28a.89.89,0,0,0,.92-.84V25.12A.9.9,0,0,0,234.08,24.24Zm-132.87,48H79c-.44,0-.6.44-.24,1a5,5,0,0,1,.92,3.32V99.39a.87.87,0,0,0,.84.84h3.36a.89.89,0,0,0,.92-.84V76.32a.83.83,0,0,1,.84-.88H96.17a.88.88,0,0,1,.84.88V99.39a.89.89,0,0,0,.92.84h3.28a.89.89,0,0,0,.92-.84V73.12A.9.9,0,0,0,101.21,72.24ZM127.59,81a9,9,0,0,1-9.16,8.72h-4.52a.84.84,0,0,0-.84.84v8.79a.88.88,0,0,1-.88.84h-3.4a.87.87,0,0,1-.84-.84V76.52A5,5,0,0,0,107,73.2c-.36-.52-.2-1,.24-1h11.16A9,9,0,0,1,127.59,81Zm-5.36,0a5.31,5.31,0,0,0-5.2-5.6h-3.12a.79.79,0,0,0-.84.88v9.32a.79.79,0,0,0,.84.88H117A5.26,5.26,0,0,0,122.23,81Zm30.52-8.8h-3.28a1.24,1.24,0,0,0-1,.68L136.8,92.16c-.16.28-.48.2-.48-.12V73.12a.9.9,0,0,0-.92-.88h-4.88c-.44,0-.6.44-.24,1a5,5,0,0,1,.92,3.32V99.39a.87.87,0,0,0,.84.84h3.4a1.26,1.26,0,0,0,1-.68l11.63-19.27c.16-.28.48-.2.48.12v19a.89.89,0,0,0,.92.84h3.28a.89.89,0,0,0,.92-.84V73.12A.9.9,0,0,0,152.75,72.24Zm20.6,13.28c-.32-.16-.32-.44,0-.64a7.51,7.51,0,0,0,3.28-5.8c0-4.36-3.48-7.4-9.24-7.4a10.18,10.18,0,0,0-7.8,3.2,1.09,1.09,0,0,0,.08,1.32l1,1.6a.77.77,0,0,0,1.36-.2,4.94,4.94,0,0,1,4.6-2.72c2.84,0,4.6,1.76,4.6,4.32A4.44,4.44,0,0,1,166.91,84h-1.6a.91.91,0,0,0-.92.92v1.4a.9.9,0,0,0,.92.88h1.6c3.44,0,5.2,2,5.2,5.08a5,5,0,0,1-5.2,5.35,8.67,8.67,0,0,1-6.6-3.31.73.73,0,0,0-1.08-.25l-1.4.92a.65.65,0,0,0-.24,1c2,3.08,5.84,4.88,10.2,4.88,6.12,0,9.87-3.71,9.87-8.35A7.92,7.92,0,0,0,173.35,85.52Z" fill="#fde619"/><rect x="-442.07" y="-1416.79" width="5094.33" height="2865.56" fill="none"/></svg>