<svg xmlns="http://www.w3.org/2000/svg" viewBox="0 0 751.9 615.21"><title>hollywood-bg-01</title><path d="M392.24,1528.63c-3.27,0-6.53,0-9.75-.05s-6.48.05-9.75.05h-2.12A1075.85,1075.85,0,0,1,244.78,1521C144,1515,34.94,1492.1-62.35,1456.48c-201.59-38.94-392.84-139.2-538.63-282.39-127.17-124.9-224.53-288.78-274.17-461.48a1074.79,1074.79,0,0,1-46.79-174.77l-16.6-94.13c-45.58-258.61,6.63-522.87,147-744.21C-622.18-678.68-245.12-923,169.32-923a1050.54,1050.54,0,0,1,299.41,43.46c32-3.51,64.35-5.58,96.26-6.16,28.24-2.28,56.75-3.44,84.75-3.44,216.54,0,424.76,65.64,602.15,189.82l16,11.24c229.68,160.74,383,401.42,431.7,677.7l11.86,67.27c27.71,157.38,15.7,338.38-32.94,496.74-10.48,70.77-28.78,144.25-51.57,207l-13.64,36.77C1480.4,1151.65,1168.42,1409,799,1469.29c-90.67,29.17-194.6,48.26-285.4,52.43a1076.56,1076.56,0,0,1-119.35,6.89h-2Z" fill="#ed1d24"/><path d="M392.24,1516.13c-3.27,0-6.53,0-9.75-.05s-6.48.05-9.75.05h-2.12a1063.48,1063.48,0,0,1-124.73-7.61c-100.11-5.9-208.32-28.65-304.89-64.11-199.57-38.34-388.91-137.48-533.22-279.22-125.77-123.52-222-285.6-271-456.41a1062.74,1062.74,0,0,1-46.38-173.09l-16.6-94.13c-45.09-255.86,6.65-517.23,145.73-736.1,167.19-374.2,539.91-615.92,949.82-615.92a1037.83,1037.83,0,0,1,298.27,43.67c32.54-3.65,65.51-5.8,98-6.37,28-2.27,56.34-3.43,84.14-3.43,214,0,419.7,64.86,595,187.56l16,11.23C1487.71-519,1639.2-281.16,1687.33-8.17l11.86,67.27c27.44,155.84,15.46,335-32.86,491.8-10.34,70.26-28.47,143.22-51.09,205.53l-13.61,36.69c-131.5,350.36-440.11,604.7-805.56,664-90,29.06-193.27,48.05-283.46,52.15a1063.38,1063.38,0,0,1-118.35,6.86Z" fill="#b1181e"/><path d="M392.24,1503.63c-3.27,0-6.53,0-9.75-.05s-6.48.05-9.75.05h-2.12A1050.87,1050.87,0,0,1,247,1496.06c-99.4-5.81-206.81-28.43-302.65-63.74-197.57-37.74-385-135.76-527.82-276.06-124.36-122.14-219.49-282.41-267.89-451.34a1049.41,1049.41,0,0,1-46-171.41l-16.6-94.13c-44.61-253.1,6.7-511.61,144.46-728C-604.45-658.8-236.06-898,169.32-898a1025.15,1025.15,0,0,1,297.12,43.88c33.12-3.8,66.67-6,99.77-6.59,27.83-2.27,55.93-3.42,83.53-3.42,211.38,0,414.64,64.08,587.82,185.3l16,11.23C1477.8-510.65,1627.47-275.71,1675-6l11.86,67.27C1714,215.56,1702.09,393,1654.1,548.12c-10.2,69.76-28.16,142.18-50.61,204l-13.58,36.61c-130.06,346.52-435.32,597.85-796.78,656.16-89.42,29-191.94,47.85-281.51,51.87a1050.4,1050.4,0,0,1-117.36,6.83Z" fill="#ed1d24"/><path d="M392.24,1491.13c-3.27,0-6.53,0-9.75-.05s-6.48.05-9.75.05h-2.12a1036,1036,0,0,1-122.49-7.53c-98.68-5.73-205.31-28.22-300.41-63.37-195.55-37.15-381-134-522.42-272.89-123-120.76-217-279.24-264.75-446.28A1037.37,1037.37,0,0,1-885,531.33l-16.6-94.13c-44.12-250.35,6.72-506,143.19-719.9,162.83-366.21,526.88-602.79,927.74-602.79a1012.38,1012.38,0,0,1,296,44.1c33.69-4,67.83-6.25,101.54-6.81,27.63-2.26,55.52-3.41,82.91-3.41,208.8,0,409.59,63.29,580.65,183l16,11.23c221.48,155,369.32,387.09,416.29,653.49l11.86,67.27c26.9,152.76,15,328.36-32.69,481.92-10.06,69.25-27.85,141.14-50.14,202.54L1578.2,784.4c-128.62,342.69-430.51,591-788,648.32-88.8,28.85-190.6,47.64-279.57,51.59a1037.45,1037.45,0,0,1-116.37,6.8h-2Z" fill="#b1181e"/><path d="M392.24,1478.63c-3.27,0-6.54,0-9.75-.05s-6.48.05-9.75.05h-2.12a1025.83,1025.83,0,0,1-121.38-7.48c-98-5.64-203.8-28-298.16-63-193.53-36.55-377.11-132.31-517-269.72-121.55-119.38-214.45-276.05-261.61-441.21A1024.19,1024.19,0,0,1-872.7,529.16L-889.3,435c-43.64-247.6,6.77-500.34,141.92-711.79C-586.72-639-227-873,169.33-873a1000,1000,0,0,1,294.83,44.32,1011.51,1011.51,0,0,1,103.3-7.05c27.42-2.26,55.11-3.4,82.29-3.4,206.22,0,404.53,62.51,573.48,180.78l16,11.23C1458-494,1604-264.78,1650.4-1.67l11.86,67.27c26.63,151.22,14.74,325-32.61,477-9.91,68.75-27.54,140.1-49.66,201l-13.52,36.44c-127.18,338.85-425.69,584.17-779.22,640.48C699.07,1449.3,598,1468,509.63,1471.86a1024.54,1024.54,0,0,1-115.38,6.77Z" fill="#ed1d24"/><path d="M392.24,1466.13c-3.27,0-6.54,0-9.75-.05s-6.48.05-9.75.05h-2.12a1011.46,1011.46,0,0,1-120.27-7.44c-97.25-5.56-202.28-27.79-295.92-62.63-191.53-36-373.18-130.58-511.61-266.55-120.15-118-211.92-272.87-258.47-436.14A1010.91,1010.91,0,0,1-860.39,527L-877,432.87C-920.14,188-870.2-61.83-736.33-270.82-577.86-629-222.47-860.47,169.32-860.47A987.53,987.53,0,0,1,463-815.92a995.4,995.4,0,0,1,105.06-7.29c27.22-2.25,54.69-3.39,81.68-3.39,203.65,0,399.47,61.73,566.31,178.52l16,11.23c216,151.18,360.2,377.53,406,637.36L1650,67.78c26.36,149.68,14.5,321.66-32.53,472.05-9.77,68.25-27.22,139.07-49.18,199.55l-13.49,36.36c-125.74,335-420.9,577.32-770.44,632.64-87.55,28.65-187.94,47.23-275.67,51a1011.76,1011.76,0,0,1-114.38,6.74h-2Z" fill="#b1181e"/><path d="M392.24,1453.63c-3.27,0-6.54,0-9.75-.05s-6.48.05-9.75.05h-2.12a998.81,998.81,0,0,1-119.15-7.4c-96.55-5.47-200.77-27.57-293.68-62.26-189.52-35.35-369.25-128.86-506.21-263.38C-667.16,1004-757.82,850.89-803.75,689.51a998.9,998.9,0,0,1-44.33-164.7l-16.6-94.12c-42.67-242.09,6.84-489.08,139.39-695.58C-569-619.13-217.95-848,169.33-848a974.82,974.82,0,0,1,292.54,44.79,981.32,981.32,0,0,1,106.82-7.53c27-2.25,54.28-3.39,81.06-3.39,201.07,0,394.42,61,559.14,176.26l16,11.22c213.27,149.26,355.64,372.75,400.87,629.29l11.86,67.27c26.09,148.14,14.26,318.32-32.45,467.11-9.63,67.74-26.91,138-48.69,198.05L1543,771.38c-124.3,331.18-416.08,570.48-761.66,624.79-86.93,28.55-186.6,47-273.72,50.75a998.88,998.88,0,0,1-113.39,6.7h-2Z" fill="#ed1d24"/><path d="M392.24,1441.13c-3.27,0-6.54,0-9.76-.05s-6.48.05-9.75.05h-2.12a986.69,986.69,0,0,1-118-7.35c-95.83-5.39-199.26-27.35-291.44-61.89-187.5-34.75-365.32-127.13-500.81-260.21C-657,996.43-746.55,845.16-791.85,685.66a985.92,985.92,0,0,1-43.92-163l-16.6-94.12c-42.18-239.34,6.86-483.44,138.12-687.47,154.11-350.27,500.81-576.52,883.57-576.52a962.45,962.45,0,0,1,291.4,45,971.41,971.41,0,0,1,108.59-7.79c26.8-2.24,53.87-3.38,80.44-3.38,198.49,0,389.36,60.17,552,174l16,11.22c210.54,147.35,351.08,368,395.73,621.22l11.86,67.27c25.82,146.6,14,315-32.37,462.17-9.48,67.23-26.59,137-48.21,196.56L1531.33,767c-122.86,327.33-411.26,563.63-752.88,617-86.3,28.45-185.26,46.83-271.77,50.47a986.1,986.1,0,0,1-112.41,6.67h-2Z" fill="#b1181e"/><path d="M392.24,1428.63c-3.27,0-6.54,0-9.76-.05s-6.48.05-9.75.05h-2.12a974.21,974.21,0,0,1-116.92-7.31c-95.12-5.3-197.75-27.14-289.19-61.53-185.48-34.15-361.39-125.4-495.41-257-115.93-113.86-204.36-263.33-249-420.94a973.11,973.11,0,0,1-43.51-161.33l-16.6-94.12C-881.76,189.78-833.15-51.45-703.2-253A952.82,952.82,0,0,1,169.32-823a949.79,949.79,0,0,1,290.25,45.29,958.29,958.29,0,0,1,110.35-8.05c26.59-2.24,53.45-3.37,79.83-3.37,195.91,0,384.3,59.39,544.8,171.74l16,11.22C1418.38-460.7,1557.09-242.95,1601.16,7L1613,74.28c25.54,145.06,13.77,311.64-32.3,457.23-9.34,66.72-26.27,136-47.73,195.06l-13.39,36.11c-121.42,323.49-406.48,556.78-744.1,609.1-85.68,28.35-183.92,46.63-269.82,50.2a973.33,973.33,0,0,1-111.42,6.64h-2Z" fill="#ed1d24"/><path d="M392.24,1416.13c-3.27,0-6.54,0-9.76-.05s-6.48.05-9.75.05h-2.12a960,960,0,0,1-115.81-7.27c-94.41-5.21-196.24-26.92-286.95-61.16-183.48-33.54-357.46-123.67-490-253.86C-636.68,981.36-724,833.68-768.06,678a959.49,959.49,0,0,1-43.1-159.66l-16.6-94.12C-869,190.35-820.81-48-692.17-247.08A940.13,940.13,0,0,1,169.31-810.47a937.26,937.26,0,0,1,289.1,45.55,944.68,944.68,0,0,1,112.12-8.32c26.38-2.23,53-3.36,79.21-3.36,193.33,0,379.25,58.61,537.64,169.48l16,11.22c205.07,143.53,342,358.42,385.45,605.09l11.86,67.27C1626,220,1614.24,384.77,1568.49,528.75c-9.19,66.21-26,134.91-47.24,193.57l-13.36,36c-120,319.65-401.66,549.93-735.32,601.25C687.52,1387.85,590,1406,504.7,1409.52a960.72,960.72,0,0,1-110.43,6.61Z" fill="#b1181e"/><path d="M392.24,1403.63c-3.27,0-6.54,0-9.76-.05s-6.48.05-9.75.05h-2.12a947.3,947.3,0,0,1-114.69-7.23c-93.7-5.12-194.74-26.71-284.7-60.8-181.47-32.94-353.53-121.94-484.61-250.68-113.12-111.1-199.32-257-242.76-410.81a946.56,946.56,0,0,1-42.69-158L-815.44,422c-40.73-231.09,7-466.55,134.33-663.15A927.48,927.48,0,0,1,169.32-798a924.68,924.68,0,0,1,288,45.82,930.57,930.57,0,0,1,113.88-8.6c26.18-2.23,52.62-3.35,78.59-3.35,190.76,0,374.19,57.83,530.47,167.22l16,11.22C1398.56-444,1533.62-232,1576.53,11.36l11.86,67.27c25,142,13.28,305-32.15,447.34-9,65.7-25.63,133.88-46.76,192.08l-13.33,36c-118.53,315.81-396.87,543.08-726.54,593.41-84.42,28.16-181.24,46.23-265.91,49.64a948,948,0,0,1-109.44,6.58Z" fill="#ed1d24"/><path d="M392.24,1391.13c-3.27,0-6.54,0-9.76-.05s-6.48.05-9.75.05h-2.12A935.15,935.15,0,0,1,257,1384c-93-5-193.23-26.49-282.46-60.44C-204.89,1291.17-375,1203.3-504.64,1076c-111.71-109.71-196.8-253.8-239.62-405.74A933.4,933.4,0,0,1-786.54,514l-16.6-94.12c-40.24-228.34,7-460.93,133.07-655A914.89,914.89,0,0,1,169.31-785.47a912,912,0,0,1,286.8,46.1,918.28,918.28,0,0,1,115.65-8.89c26-2.22,52.2-3.35,78-3.35a908.09,908.09,0,0,1,523.3,165l16,11.21c199.6,139.7,332.84,348.86,375.17,589l11.86,67.27c24.73,140.45,13,301.63-32.07,442.4-8.89,65.2-25.31,132.84-46.27,190.58l-13.3,35.87c-117.09,312-392,536.24-717.76,585.56-83.79,28.06-179.89,46-263.95,49.37a935.39,935.39,0,0,1-108.46,6.55h-2Z" fill="#b1181e"/><path d="M392.24,1378.63c-3.27,0-6.54,0-9.76-.05s-6.48.05-9.75.05h-2.12a922.8,922.8,0,0,1-112.47-7.14c-92.28-5-191.72-26.27-280.21-60.08-177.45-31.74-345.67-118.48-473.81-244.33C-606.18,958.74-690.15,816.46-732.35,666.4a921.21,921.21,0,0,1-41.87-154.62l-16.59-94.12c-39.76-225.58,7-455.28,131.81-646.93A902.19,902.19,0,0,1,169.33-773,899.47,899.47,0,0,1,455-726.58a903.88,903.88,0,0,1,117.41-9.18c25.76-2.22,51.79-3.34,77.36-3.34a895.64,895.64,0,0,1,516.13,162.7l16,11.21c196.87,137.78,328.28,344.08,370,580.88L1563.78,83c24.46,138.92,12.8,298.29-32,437.46-8.74,64.69-25,131.8-45.78,189.09l-13.27,35.79c-115.65,308.13-387.26,529.39-709,577.71-83.16,28-178.55,45.84-262,49.1a922.8,922.8,0,0,1-107.47,6.53h-2Z" fill="#ed1d24"/><path d="M392.24,1366.13c-3.27,0-6.54,0-9.76-.06s-6.48.06-9.75.06h-2.12a910.72,910.72,0,0,1-111.36-7.1c-91.56-4.86-190.21-26-278-59.72-175.44-31.13-341.74-116.74-468.41-241.15C-596,951.2-678.88,810.72-720.45,662.55a908.33,908.33,0,0,1-41.46-152.94l-16.59-94.12c-39.27-222.83,7.09-449.65,130.55-638.83A889.57,889.57,0,0,1,169.33-760.48a886.91,886.91,0,0,1,284.5,46.69A894.23,894.23,0,0,1,573-723.28c25.56-2.21,51.38-3.33,76.74-3.33a883.22,883.22,0,0,1,509,160.44l16,11.21c194.13,135.87,323.72,339.3,364.89,572.81l11.86,67.27c24.19,137.38,12.55,295-31.93,432.51-8.59,64.19-24.66,130.77-45.29,187.6L1461,741c-114.21,304.3-382.44,522.54-700.21,569.85-82.54,27.87-177.21,45.65-260,48.82a910.24,910.24,0,0,1-106.49,6.5h-2Z" fill="#b1181e"/><path d="M392.24,1353.63c-3.27,0-6.55,0-9.76-.06s-6.48.06-9.75.06h-2.12a896.32,896.32,0,0,1-110.25-7.06c-90.85-4.77-188.7-25.83-275.71-59.36-173.43-30.52-337.82-115-463-238C-585.86,943.66-667.59,805-708.55,658.7a896.46,896.46,0,0,1-41.06-151.26l-16.59-94.11c-38.79-220.08,7.13-444,129.29-630.72A876.89,876.89,0,0,1,169.32-748a874,874,0,0,1,283.35,47,879.53,879.53,0,0,1,121-9.81c25.36-2.21,51-3.33,76.13-3.33a870.77,870.77,0,0,1,501.79,158.18l16,11.21c191.4,134,319.17,334.52,359.75,564.74l11.86,67.27c23.92,135.85,12.31,291.61-31.86,427.57-8.44,63.68-24.34,129.73-44.8,186.12l-13.21,35.62c-112.77,300.46-377.65,515.69-691.43,562-81.91,27.78-175.86,45.46-258.07,48.55a898,898,0,0,1-105.5,6.47Z" fill="#ed1d24"/><path d="M392.24,1341.13c-3.27,0-6.55,0-9.76-.06s-6.48.06-9.75.06h-2.12a884,884,0,0,1-109.13-7c-90.15-4.67-187.18-25.61-273.47-59-171.42-29.91-333.89-113.26-457.61-234.78-106.09-104.2-186.71-241.08-227-385.48A883.37,883.37,0,0,1-737.3,505.27l-16.59-94.11c-38.3-217.33,7.17-438.4,128-622.61a864.31,864.31,0,0,1,795.19-524,861.53,861.53,0,0,1,282.2,47.33,867.94,867.94,0,0,1,122.71-10.14c25.15-2.2,50.56-3.32,75.51-3.32a858.38,858.38,0,0,1,494.63,155.92l16,11.21C1349.05-402.43,1475-204.73,1515,22.21l11.86,67.27c23.65,134.31,12.06,288.27-31.79,422.62-8.29,63.17-24,128.69-44.31,184.63l-13.18,35.54c-111.33,296.62-372.83,508.85-682.66,554.14-81.27,27.69-174.51,45.27-256.11,48.28a885.47,885.47,0,0,1-104.52,6.44Z" fill="#b1181e"/><path d="M392.24,1328.63c-3.27,0-6.55,0-9.76-.06s-6.47.06-9.75.06h-2.12a870.21,870.21,0,0,1-108-7c-89.43-4.58-185.68-25.4-271.22-58.64-169.41-29.3-330-111.52-452.22-231.6C-565.53,928.59-645,793.51-684.74,651A870.3,870.3,0,0,1-725,503.1L-741.57,409c-37.82-214.58,7.2-432.76,126.78-614.5A851.6,851.6,0,0,1,169.33-723a849.08,849.08,0,0,1,281,47.66,854.73,854.73,0,0,1,124.48-10.48c24.95-2.2,50.15-3.32,74.9-3.32a845.9,845.9,0,0,1,487.46,153.67l16,11.2c185.93,130.13,310,325,349.48,548.61l11.86,67.27c23.38,132.77,11.81,284.94-31.73,417.68C1474.69,572,1459.14,637,1439,692.46l-13.15,35.46c-109.89,292.78-368,502-673.88,546.29-80.64,27.6-173.16,45.09-254.15,48a871.17,871.17,0,0,1-103.54,6.41Z" fill="#ed1d24"/><path d="M392.24,1316.13c-3.28,0-6.55,0-9.76-.06s-6.47.06-9.75.06h-2.12a858.13,858.13,0,0,1-106.91-6.94C175,1304.7,79.53,1284-5.27,1250.9c-167.4-28.69-326-109.78-446.82-228.41C-555.38,921.05-633.76,787.77-672.85,647.15a858.47,858.47,0,0,1-39.84-146.22l-16.59-94.11C-766.61,195-722-20.31-603.76-199.57a839,839,0,0,1,773.07-510.9,836.46,836.46,0,0,1,279.89,48,840.57,840.57,0,0,1,126.25-10.83c24.75-2.2,49.74-3.31,74.28-3.31A833.4,833.4,0,0,1,1130-525.19l16,11.2c183.2,128.22,305.49,320.19,344.34,540.54l11.86,67.27c23.11,131.24,11.57,281.6-31.66,412.73-8,62.16-23.35,126.62-43.32,181.65l-13.12,35.38C1305.66,1012.52,1050.9,1218.72,749,1262c-80,27.52-171.81,44.9-252.19,47.75a858.66,858.66,0,0,1-102.55,6.39h-2Z" fill="#b1181e"/><path d="M392.24,1303.63c-3.28,0-6.55,0-9.76-.06s-6.47.06-9.75.06h-2.12a844.18,844.18,0,0,1-105.8-6.9c-88-4.4-182.66-25-266.71-57.93-165.38-28.08-322.11-108-441.43-225.22C-545.2,913.51-622.47,782-660.93,643.3a844.78,844.78,0,0,1-39.43-144.54l-16.59-94.11c-36.85-209.08,7.28-421.5,124.27-598.27C-462.6-500-163.63-698,169.33-698A824.15,824.15,0,0,1,448.07-649.6a827.72,827.72,0,0,1,128-11.19c24.54-2.19,49.33-3.3,73.67-3.3a821,821,0,0,1,473.12,149.15l16,11.2c180.47,126.3,300.93,315.41,339.2,532.47L1489.93,96c22.84,129.71,11.32,278.26-31.6,407.78-7.82,61.66-23,125.59-42.82,180.16l-13.09,35.29c-107,285.09-358.42,488.28-656.34,530.57-79.37,27.43-170.46,44.72-250.22,47.48a846.48,846.48,0,0,1-101.58,6.36h-2Z" fill="#ed1d24"/><path d="M392.24,1291.13c-3.28,0-6.56,0-9.76-.06s-6.47.06-9.75.06h-2.12a832,832,0,0,1-104.69-6.86c-87.31-4.3-181.15-24.74-264.46-57.58-163.37-27.46-318.18-106.28-436-222C-535,906-611.2,776.3-649,639.45a830.73,830.73,0,0,1-39-142.87l-16.59-94.11c-36.36-206.33,7.32-415.87,123-590.16,127.89-302.42,422.52-497.79,751-497.79A811.27,811.27,0,0,1,446.9-636.74a815.09,815.09,0,0,1,129.79-11.57c24.34-2.19,48.91-3.3,73-3.3a808.51,808.51,0,0,1,466,146.89l16,11.2C1309.4-369.13,1428-182.89,1465.73,30.89l11.86,67.27c22.57,128.17,11.07,274.93-31.54,402.83-7.67,61.16-22.68,124.56-42.33,178.68l-13.06,35.21C1285.09,996.14,1037,1196.31,743.1,1237.59c-78.74,27.35-169.11,44.54-248.25,47.21a834.39,834.39,0,0,1-100.59,6.33Z" fill="#b1181e"/><path d="M392.24,1278.63c-3.28,0-6.56,0-9.76-.06s-6.47.06-9.75.06h-2.12A820,820,0,0,1,267,1271.81c-86.6-4.21-179.64-24.52-262.2-57.23-161.37-26.84-314.25-104.53-430.64-218.84-99.07-97.3-174.11-225.19-211.32-360.14a818.71,818.71,0,0,1-38.62-141.19l-16.59-94.11c-35.88-203.58,7.37-410.24,121.77-582C-444.87-480.21-154.58-673,169.32-673a799.14,799.14,0,0,1,276.43,49.12,802.7,802.7,0,0,1,131.56-12c24.13-2.19,48.5-3.3,72.44-3.3a796.08,796.08,0,0,1,458.78,144.63l16,11.19c175,122.48,291.81,305.85,328.92,516.34l11.86,67.27c22.3,126.65,10.83,271.58-31.48,397.88-7.51,60.65-22.35,123.53-41.83,177.19l-13,35.13c-104.13,277.43-348.83,474.59-638.79,514.85-78.1,27.27-167.75,44.36-246.29,47a820.18,820.18,0,0,1-99.62,6.31h-2Z" fill="#ed1d24"/><path d="M392.24,1266.13c-3.28,0-6.56,0-9.76-.06s-6.47.06-9.75.06h-2.12a806.11,806.11,0,0,1-102.47-6.78c-85.89-4.11-178.13-24.3-259.94-56.88C-151.16,1176.24-302.13,1099.7-417,986.83c-97.67-95.93-171.59-222-208.17-355.07a805.77,805.77,0,0,1-38.21-139.51L-680,398.14C-715.42,197.3-672.61-6.48-559.5-175.8-436-470.26-150-660.47,169.33-660.47A786.48,786.48,0,0,1,444.6-610.95l2.3-.41a788.65,788.65,0,0,1,131-11.95c23.92-2.18,48.08-3.29,71.82-3.29a783.69,783.69,0,0,1,451.62,142.37l16,11.19C1289.61-352.48,1404.61-172,1441.14,35.23L1453,102.5c22,125.11,10.58,268.25-31.42,392.93-7.35,60.15-22,122.5-41.32,175.71l-13,35.05c-102.69,273.6-344,467.74-630,507-77.47,27.19-166.4,44.19-244.31,46.68a808.23,808.23,0,0,1-98.64,6.28h-2.05Z" fill="#b1181e"/><path d="M392.24,1253.63c-3.28,0-6.56,0-9.76-.06s-6.47.06-9.75.06h-2.12a794.06,794.06,0,0,1-101.36-6.74c-85.18-4-176.61-24.08-257.68-56.54-157.35-25.61-306.41-101-419.86-212.45-96.27-94.55-169.06-218.83-205-350a793.78,793.78,0,0,1-37.81-137.83L-667.72,396c-34.91-198.08,7.45-399,119.27-565.82C-427.13-460.34-145.53-648,169.32-648A773.93,773.93,0,0,1,443.4-598.07l5.67-1a776.49,776.49,0,0,1,129.48-11.76c23.71-2.18,47.67-3.29,71.2-3.29A771.27,771.27,0,0,1,1094.2-474l16,11.19c169.53,118.65,282.7,296.29,318.65,500.2l11.86,67.27c21.76,123.58,10.33,264.91-31.36,388-7.19,59.64-21.67,121.46-40.82,174.23l-13,35c-101.25,269.76-339.22,460.89-621.25,499.12-76.83,27.12-165,44-242.34,46.42a796.36,796.36,0,0,1-97.66,6.26h-2Z" fill="#ed1d24"/><path d="M392.24,1241.13c-3.28,0-6.56,0-9.76-.07s-6.47.07-9.75.07h-2.12a782.16,782.16,0,0,1-100.25-6.7c-84.47-3.92-175.1-23.86-255.42-56.19C-140.4,1153.25-287.54,1079-399.53,969c-94.86-93.17-166.54-215.65-201.88-344.94a779.37,779.37,0,0,1-37.4-136.15l-16.59-94.11c-34.43-195.33,7.49-393.35,118-557.7C-418.25-450.43-141-635.47,169.33-635.47a761.43,761.43,0,0,1,272.86,50.33l9.05-1.6a764.33,764.33,0,0,1,127.92-11.58c23.5-2.18,47.25-3.28,70.59-3.28A758.8,758.8,0,0,1,1087-463.75l16,11.19C1269.8-335.82,1381.14-161,1416.51,39.57l11.86,67.27c21.49,122,10.08,261.58-31.31,383-7,59.14-21.32,120.43-40.31,172.75l-12.94,34.88c-99.81,265.92-334.42,454-612.48,491.25-76.19,27-163.68,43.85-240.37,46.16a782.28,782.28,0,0,1-96.68,6.23h-2Z" fill="#b1181e"/><path d="M392.24,1228.63c-3.3,0-6.58,0-9.76-.07s-6.45.07-9.75.07h-2.12a766.9,766.9,0,0,1-99.15-6.67c-83.76-3.82-173.59-23.64-253.16-55.85-153.33-24.36-298.56-97.5-409.07-206-93.46-91.79-164-212.48-198.74-339.87a767.42,767.42,0,0,1-37-134.47l-16.59-94.1C-677,199-635.57,3.91-526.32-158c116.93-282.52,389.85-465,695.64-465a749,749,0,0,1,271.61,50.74l12.47-2.2a751.08,751.08,0,0,1,126.37-11.39c23.29-2.18,46.83-3.28,70-3.28a746.38,746.38,0,0,1,430.11,135.59l16,11.18C1259.88-327.5,1369.4-155.59,1404.19,41.74L1416.05,109c21.22,120.52,9.83,258.24-31.26,378.07-6.86,58.63-21,119.4-39.81,171.26l-12.91,34.8c-98.38,262.09-329.63,447.19-603.71,483.38-75.56,27-162.32,43.68-238.4,45.9a770.39,770.39,0,0,1-95.7,6.21Z" fill="#ed1d24"/><path d="M392.24,1216.13c-3.29,0-6.57,0-9.76-.07s-6.46.07-9.75.07h-2.12a755.09,755.09,0,0,1-98-6.63c-83.06-3.72-172.07-23.41-250.9-55.51C-129.64,1130.26-273,1058.26-382,951.15c-92.06-90.41-161.5-209.29-195.59-334.81a755.49,755.49,0,0,1-36.6-132.79l-16.59-94.1C-664.26,199.61-623.23,7.37-515.26-152-400.52-430.56-132-610.47,169.31-610.47a736.55,736.55,0,0,1,270.33,51.16l15.92-2.81a739,739,0,0,1,124.81-11.2c23.09-2.18,46.42-3.28,69.36-3.28a733.88,733.88,0,0,1,422.94,133.33l16,11.18c161.33,112.91,269,282,303.23,476l11.86,67.27c21,119,9.58,254.9-31.21,373.12-6.69,58.13-20.63,118.37-39.29,169.78l-12.88,34.71c-96.94,258.27-324.81,440.34-594.95,475.51-74.91,26.9-161,43.52-236.42,45.64a756.55,756.55,0,0,1-94.73,6.19Z" fill="#b1181e"/><path d="M392.24,1203.63c-3.25,0-6.53,0-9.76-.07s-6.5.07-9.75.07h-2.12a743.3,743.3,0,0,1-96.93-6.59c-82.35-3.62-170.56-23.2-248.64-55.17-149.31-23.1-290.71-94-398.3-199.63-90.65-89-159-206.11-192.44-329.74a741.83,741.83,0,0,1-36.19-131.11l-16.59-94.1c-33-187.09,7.62-376.44,114.3-533.35C-391.64-420.64-127.42-598,169.32-598a724.09,724.09,0,0,1,267.75,51.08l1.28.51,19.41-3.42a727.82,727.82,0,0,1,123.25-11c22.88-2.17,46-3.28,68.74-3.28A721.43,721.43,0,0,1,1065.52-433l16,11.18c158.6,111,264.46,277.18,298.09,467.93l11.86,67.27c20.69,117.47,9.33,251.56-31.16,368.16-6.53,57.62-20.28,117.33-38.78,168.31l-12.85,34.63c-95.5,254.42-320,433.48-586.18,467.64-74.28,26.84-159.6,43.36-234.44,45.39a744.88,744.88,0,0,1-93.75,6.17h-2Z" fill="#ed1d24"/><path d="M392.24,1191.13c-3.26,0-6.54,0-9.76-.07s-6.49.07-9.75.07h-2.12a731.55,731.55,0,0,1-95.82-6.55c-81.65-3.51-169-23-246.37-54.84-147.3-22.47-286.79-92.19-392.91-196.42-89.25-87.65-156.45-202.93-189.29-324.67a729.09,729.09,0,0,1-35.79-129.43l-16.59-94.1c-32.49-184.33,7.66-370.8,113.06-525.23,110.36-270.6,370.23-445.35,662.43-445.35a711.71,711.71,0,0,1,263.14,50.2l4.57,1.81,22.89-4a714.75,714.75,0,0,1,121.7-10.83c22.68-2.17,45.59-3.27,68.12-3.27a709,709,0,0,1,408.61,128.81l16,11.18c155.86,109.08,259.9,272.4,293,459.86l11.86,67.27c20.42,115.93,9.07,248.22-31.12,363.2-6.36,57.12-19.93,116.31-38.27,166.83l-12.82,34.54c-94.05,250.58-315.21,426.62-577.42,459.76C645.86,1166.64,561.27,1183.07,487,1185a731.28,731.28,0,0,1-92.78,6.14Z" fill="#b1181e"/><path d="M392.24,1178.63c-3.25,0-6.53,0-9.76-.07s-6.5.07-9.75.07h-2.12a716.47,716.47,0,0,1-94.72-6.52c-80.94-3.41-167.54-22.75-244.1-54.51-145.29-21.84-282.86-90.41-387.53-193.21-87.84-86.27-153.93-199.76-186.14-319.61A716.39,716.39,0,0,1-577.27,477l-16.59-94.1c-32-181.58,7.71-365.17,111.83-517.1C-373.86-400.78-118.34-573,169.32-573a699.21,699.21,0,0,1,258.54,49.32l7.86,3.11,26.37-4.65a701.7,701.7,0,0,1,120.14-10.64c22.47-2.17,45.18-3.27,67.51-3.27a696.62,696.62,0,0,1,401.44,126.55l16,11.17C1220.26-294.21,1322.47-133.76,1355,50.42l11.86,67.27c20.15,114.41,8.81,244.89-31.07,358.24-6.18,56.61-19.57,115.27-37.75,165.35l-12.79,34.46c-92.61,246.74-310.41,419.76-568.66,451.88-73,26.72-156.87,43.05-230.47,44.88a717.93,717.93,0,0,1-91.81,6.12h-2Z" fill="#ed1d24"/><path d="M392.24,1166.13c-3.21,0-6.49,0-9.76-.07s-6.54.07-9.74.07h-2.12a704.81,704.81,0,0,1-93.61-6.48c-80.23-3.3-166-22.53-241.83-54.18-143.28-21.2-278.94-88.63-382.14-190-86.44-84.9-151.41-196.58-183-314.54a703.72,703.72,0,0,1-35-126.07l-16.59-94.1c-31.52-178.83,7.75-359.53,110.59-509C-365-390.84-113.8-560.47,169.34-560.47A687,687,0,0,1,423.28-512l11.17,4.42,3-.53,26.87-4.74a688.69,688.69,0,0,1,118.58-10.45c22.27-2.17,44.77-3.27,66.89-3.27A684.17,684.17,0,0,1,1044-402.31l16,11.17c150.39,105.26,250.79,262.85,282.68,443.73l11.86,67.27c19.88,112.88,8.56,241.56-31,353.28-6,56.1-19.21,114.24-37.23,163.88l-12.76,34.38c-91.17,242.9-305.61,412.9-559.89,444-72.36,26.66-155.5,42.9-228.48,44.63a706.47,706.47,0,0,1-90.84,6.1Z" fill="#b1181e"/><path d="M392.24,1153.63c-3.21,0-6.49,0-9.76-.07s-6.54.07-9.74.07h-2.12a691.81,691.81,0,0,1-92.51-6.45c-79.52-3.2-164.51-22.3-239.56-53.85-141.27-20.56-275-86.85-376.76-186.77C-423.25,823-487.1,713.16-518,597.09A691.09,691.09,0,0,1-552.64,472.7l-16.59-94.1c-31-176.08,7.8-353.88,109.36-500.86C-356.1-380.92-109.28-548,169.33-548A674.27,674.27,0,0,1,418.67-500.4l14.5,5.74q3.21-.6,6.41-1.16l26.87-4.74a675.66,675.66,0,0,1,117-10.26c22.06-2.17,44.36-3.27,66.28-3.27a671.75,671.75,0,0,1,387.1,122l15.94,11.17C1200.46-277.55,1299-122.82,1330.34,54.77L1342.2,122c19.61,111.36,8.31,238.22-31,348.31-5.83,55.59-18.84,113.21-36.7,162.41l-12.73,34.29c-89.73,239.07-300.83,406-551.13,436.12-71.72,26.61-154.14,42.76-226.49,44.38a693.16,693.16,0,0,1-89.87,6.08Z" fill="#ed1d24"/><path d="M392.24,1141.13c-3.18,0-6.46,0-9.76-.07s-6.57.07-9.74.07h-2.12a678.76,678.76,0,0,1-91.41-6.42c-78.82-3.09-163-22.08-237.29-53.53-139.27-19.92-271.1-85.06-371.38-183.55-83.63-82.14-146.36-190.22-176.69-304.4a677.67,677.67,0,0,1-34.19-122.71l-16.59-94.1C-587.48,203.1-549.08,28.18-448.8-116.31c101.57-254.68,344-419.16,618.12-419.16a661.88,661.88,0,0,1,244.73,46.69l17.88,7.07c3.28-.63,6.57-1.24,9.82-1.81l26.87-4.74a664,664,0,0,1,115.07-10.07h.4c21.85-2.17,43.94-3.27,65.67-3.27a659.33,659.33,0,0,1,379.93,119.77l15.94,11.17C1190.56-269.23,1287.3-117.37,1318,56.94l11.86,67.27c19.34,109.83,8,234.89-31,343.35-5.65,55.09-18.48,112.18-36.17,160.94l-12.69,34.21C1161.76,898,954,1061.9,707.68,1090.94c-71.08,26.56-152.76,42.62-224.5,44.13a680.1,680.1,0,0,1-88.9,6.07h-2Z" fill="#b1181e"/><path d="M392.24,1128.63c-3.13,0-6.42,0-9.76-.07s-6.62.07-9.74.07h-2.12a667,667,0,0,1-90.3-6.38c-78.12-3-161.47-21.85-235-53.21-137.27-19.27-267.18-83.27-366-180.32-82.23-80.76-143.84-187-173.54-299.34a665.91,665.91,0,0,1-33.79-121l-16.59-94.1c-30.06-170.56,7.91-342.61,106.9-484.61C-338.34-361-100.1-523,169.33-523a649.39,649.39,0,0,1,240.13,45.81l21.28,8.42c4.4-.87,8.82-1.7,13.19-2.47L470.8-476a650.91,650.91,0,0,1,112.9-9.88h1c21.65-2.17,43.53-3.27,65.06-3.27A646.79,646.79,0,0,1,1022.53-371.6l15.94,11.16c142.19,99.52,237.11,248.51,267.27,419.53l11.86,67.27c19.07,108.32,7.79,231.55-30.94,338.38-5.47,54.58-18.11,111.15-35.64,159.47l-12.66,34.12c-86.86,231.41-291.23,392.34-533.62,420.34-70.43,26.51-151.39,42.48-222.5,43.89a667,667,0,0,1-87.94,6h-2.06Z" fill="#ed1d24"/><path d="M392.24,1116.13c-3.13,0-6.41,0-9.76-.08s-6.62.08-9.74.08h-2.12a654.19,654.19,0,0,1-89.2-6.35c-77.41-2.87-160-21.63-232.74-52.89-135.25-18.62-263.26-81.47-360.61-177.08-80.82-79.38-141.32-183.87-170.38-294.27A652.59,652.59,0,0,1-515.7,466.19l-16.59-94.09c-29.56-167.71,7.94-336.88,105.59-476.35l.09-.12.43-1.08c97.39-246,331.15-405,595.52-405a637.13,637.13,0,0,1,235.53,44.93l24.72,9.78c5.51-1.12,11.06-2.18,16.52-3.14L473-463.62a638.85,638.85,0,0,1,110.73-9.69h1.62a642.53,642.53,0,0,1,64.44-3.27,634.36,634.36,0,0,1,365.59,115.25l15.93,11.16c139.46,97.6,232.55,243.73,262.13,411.46l11.86,67.27c18.8,106.79,7.53,228.21-30.91,333.41-5.28,54.07-17.73,110.12-35.11,158l-12.63,34c-85.42,227.58-286.43,385.48-524.87,412.45-69.79,26.47-150,42.35-220.5,43.65a654.15,654.15,0,0,1-87,6h-2Z" fill="#b1181e"/><path d="M392.24,1103.63c-3.17,0-6.46,0-9.76-.08s-6.57.08-9.74.08h-2.12a639.65,639.65,0,0,1-88.1-6.32c-76.71-2.75-158.44-21.4-230.46-52.58-133.25-18-259.34-79.67-355.24-173.85-79.42-78-138.79-180.69-167.23-289.21A639.09,639.09,0,0,1-503.4,464L-520,369.91c-29-164.42,7.78-330.27,103.52-467l.93-1.32,1-2.46C-319.08-342.11-89.88-498,169.33-498a624.64,624.64,0,0,1,230.93,44.05l28.08,11.11,1.08-.16c6.27-1.3,12.61-2.52,18.86-3.63l26.87-4.74a626.59,626.59,0,0,1,108.55-9.5h2.24a630.17,630.17,0,0,1,63.82-3.28,622,622,0,0,1,358.43,113L1024.12-340c136.73,95.69,228,239,257,403.4L1293,130.69c18.54,105.27,7.27,224.88-30.89,328.44-5.1,53.57-17.35,109.09-34.57,156.54l-12.6,34c-84,223.75-281.65,378.62-516.11,404.55-69.15,26.43-148.63,42.23-218.5,43.41a641.26,641.26,0,0,1-86,6h-2.05Z" fill="#ed1d24"/><path d="M392.24,1091.13c-3.18,0-6.47,0-9.76-.08s-6.57.08-9.74.08h-2.12a626.79,626.79,0,0,1-87-6.29c-76-2.64-156.93-21.18-228.18-52.27A617.45,617.45,0,0,1-294.42,862c-78-76.63-136.27-177.51-164.08-284.14a627.46,627.46,0,0,1-32.6-116l-16.59-94.09c-28.4-161.13,7.63-323.67,101.45-457.67l1.76-2.5,1.52-3.85c93.59-236.43,318.22-389.2,572.28-389.2A612.15,612.15,0,0,1,395.65-442.3l31.21,12.35,4.72-.7c6.29-1.31,12.63-2.53,18.86-3.63L477.3-439a613.47,613.47,0,0,1,106.38-9.31h2.85a615.12,615.12,0,0,1,63.21-3.28A609.55,609.55,0,0,1,1001-340.87l15.93,11.16c134,93.78,223.44,234.18,251.85,395.33l11.86,67.27c18.27,103.75,7,221.55-30.87,323.47-4.91,53.06-17,108.06-34,155.07l-12.57,33.87C1120.62,865.22,926.32,1017.06,695.81,1042c-68.5,26.4-147.25,42.11-216.49,43.17a628.58,628.58,0,0,1-85.05,6h-2Z" fill="#b1181e"/><path d="M392.24,1078.63c-3.21,0-6.5,0-9.76-.08s-6.54.08-9.74.08h-2.12a614,614,0,0,1-85.9-6.26c-75.3-2.52-155.42-20.95-225.89-52A604.66,604.66,0,0,1-285.65,853.05C-362.27,777.8-419.4,678.71-446.57,574a614.29,614.29,0,0,1-32.2-114.31l-16.59-94.09C-523.18,207.72-487.89,48.51-396-82.76c.81-1.16,1.68-2.39,2.59-3.66l2.08-5.26C-299.62-323.31-79.55-473,169.34-473a599.7,599.7,0,0,1,221.73,42.3l34.36,13.6c2.79-.44,5.59-.86,8.33-1.25,6.28-1.31,12.62-2.54,18.86-3.64l26.86-4.74a601.41,601.41,0,0,1,104.21-9.12h3.46a603.52,603.52,0,0,1,62.6-3.28A597.1,597.1,0,0,1,993.84-330.63l15.92,11.15C1141-227.61,1228.64-90.08,1256.47,67.78l11.86,67.27c18,102.23,6.75,218.21-30.86,318.5-4.71,52.56-16.58,107-33.48,153.61L1191.45,641c-81.11,216.09-272.07,364.9-498.61,388.74-67.84,26.37-145.86,42-214.48,42.94a616,616,0,0,1-84.09,6h-2Z" fill="#ed1d24"/><path d="M392.24,1066.13c-3.19,0-6.48,0-9.76-.08s-6.56.08-9.74.08h-2.12a601.4,601.4,0,0,1-84.8-6.23c-74.6-2.4-153.9-20.72-223.61-51.66A591.89,591.89,0,0,1-276.9,844.13c-75.22-73.87-131.23-171.16-157.77-274a602,602,0,0,1-31.81-112.63l-16.59-94.09c-27.24-154.56,7.32-310.46,97.31-439,1.05-1.51,2.21-3.14,3.4-4.8l2.64-6.68c89.79-226.83,305.3-373.4,549-373.4A587.35,587.35,0,0,1,386.43-419L424-404.19c4-.65,8-1.26,11.92-1.82,6.27-1.32,12.62-2.55,18.86-3.65l26.87-4.74a589.18,589.18,0,0,1,102-8.93l4.08,0a591.62,591.62,0,0,1,62-3.29A584.68,584.68,0,0,1,986.67-320.39l15.92,11.15c128.53,90,214.32,224.62,241.58,379.19L1256,137.22c17.74,100.72,6.49,214.88-30.85,313.53-4.52,52.05-16.19,106-32.93,152.15l-12.51,33.7c-79.68,212.26-267.26,358-489.86,380.83-67.19,26.34-144.47,41.88-212.47,42.71a603.7,603.7,0,0,1-83.13,6h-2Z" fill="#b1181e"/><path d="M392.24,1053.63c-3.19,0-6.47,0-9.76-.08s-6.56.08-9.74.08h-2.12a588.88,588.88,0,0,1-83.7-6.2c-73.9-2.28-152.39-20.5-221.32-51.36A579.06,579.06,0,0,1-268.14,835.22c-73.82-72.5-128.7-168-154.61-268.94a587.93,587.93,0,0,1-31.41-110.95l-16.59-94.09C-497.41,210-463.59,57.39-375.51-68.41c1.29-1.85,2.73-3.87,4.22-5.93l3.22-8.13C-280.18-304.5-69.23-448,169.34-448a574.86,574.86,0,0,1,212.52,40.54l40.79,16.14c5.19-.88,10.36-1.68,15.46-2.41,6.28-1.32,12.62-2.55,18.86-3.65l26.87-4.74a576.05,576.05,0,0,1,99.87-8.74l4.69,0a577.45,577.45,0,0,1,61.38-3.29,572.23,572.23,0,0,1,329.75,104L995.42-299c125.79,88,209.76,219.84,236.44,371.13l11.86,67.27c17.47,99.2,6.22,211.55-30.85,308.55-4.32,51.55-15.79,105-32.38,150.69L1168,632.26c-78.24,208.43-262.48,351.17-481.12,372.92-66.54,26.32-143.08,41.78-210.45,42.49a590,590,0,0,1-82.18,6h-2Z" fill="#ed1d24"/><path d="M392.24,1041.13c-3.21,0-6.5,0-9.76-.09s-6.53.09-9.74.09h-2.12A576.43,576.43,0,0,1,288,1035c-73.21-2.15-150.87-20.27-219-51.07A566.25,566.25,0,0,1-259.38,826.3c-72.42-71.12-126.18-164.81-151.45-263.88a575.71,575.71,0,0,1-31-109.27l-16.59-94.09c-26.08-148,7-297.25,93.17-420.31,1.53-2.19,3.25-4.6,5-7l3.79-9.58c86-217.23,292.38-357.6,525.78-357.6a562.56,562.56,0,0,1,207.92,39.66l44.05,17.43h0c6.29-1.1,12.65-2.11,18.92-3,6.28-1.33,12.63-2.56,18.86-3.66L486-389.79a563.91,563.91,0,0,1,97.7-8.55l5.29,0a566,566,0,0,1,60.77-3.3A559.74,559.74,0,0,1,972.33-299.92l15.92,11.15c123.06,86.13,205.2,215.06,231.3,363.06l11.86,67.27c17.2,97.69,5.95,208.22-30.85,303.57-4.11,51-15.39,104-31.82,149.23L1156.3,627.9c-76.8,204.6-257.69,344.3-472.38,365-65.89,26.31-141.68,41.69-208.43,42.26a577.76,577.76,0,0,1-81.23,6h-2Z" fill="#b1181e"/><path d="M392.24,1028.63c-3.2,0-6.48,0-9.76-.09s-6.55.09-9.74.09h-2.12a563.86,563.86,0,0,1-81.5-6.14c-72.51-2-149.36-20-216.73-50.79a553.47,553.47,0,0,1-323-154.32c-71-69.75-123.66-161.63-148.29-258.81A562.8,562.8,0,0,1-429.54,451l-16.59-94.09c-25.5-144.69,6.85-290.64,91.1-411,1.79-2.55,3.78-5.34,5.83-8.14l4.37-11.06C-260.74-285.71-58.92-423,169.33-423a549.87,549.87,0,0,1,203.32,38.79L420-365.45l3.53-.62c6.3-1.1,12.65-2.11,18.92-3,6.26-1.33,12.61-2.57,18.86-3.67l26.87-4.74a550.67,550.67,0,0,1,95.52-8.36c1.87,0,3.87,0,5.91,0a554.76,554.76,0,0,1,60.16-3.31,547.31,547.31,0,0,1,315.41,99.43l15.91,11.15c120.32,84.21,200.64,210.29,226.16,355l11.86,67.27c16.94,96.18,5.69,204.89-30.85,298.59-3.9,50.54-15,102.94-31.25,147.78l-12.41,33.45C1069.23,824.33,891.69,961,681,980.63c-65.23,26.31-140.29,41.6-206.4,42a564.19,564.19,0,0,1-80.27,6Z" fill="#ed1d24"/><path d="M392.24,1016.13c-3.2,0-6.48,0-9.76-.09s-6.55.09-9.75.09h-2.12A551.85,551.85,0,0,1,290.2,1010c-71.81-1.9-147.85-19.81-214.44-50.51a540.75,540.75,0,0,1-317.64-151C-311.48,740.09-363,650-387,554.72a550.68,550.68,0,0,1-30.24-105.91l-16.59-94.09c-24.92-141.4,6.69-284,89-401.63,2-2.9,4.31-6.07,6.64-9.24.36-.94.73-1.87,1.09-2.79l3.85-9.73C-251-276.3-53.76-410.46,169.33-410.46a537.42,537.42,0,0,1,198.72,37.91l50.63,20,7-1.24c6.29-1.1,12.65-2.1,18.92-3,6.26-1.34,12.6-2.57,18.86-3.68l26.87-4.74a538.61,538.61,0,0,1,93.35-8.17c2.06,0,4.27,0,6.52.05a541,541,0,0,1,59.55-3.32A534.94,534.94,0,0,1,958-279.42l15.91,11.14C1091.52-186,1170-62.77,1195,78.64l11.86,67.27c16.67,94.67,5.42,201.56-30.87,293.6-3.69,50-14.56,101.92-30.68,146.33l-12.38,33.37C1059,816.15,884.77,949.77,678,968.35c-64.58,26.31-138.89,41.52-204.37,41.83a552.33,552.33,0,0,1-79.32,6Z" fill="#b1181e"/><path d="M392.24,1003.63c-3.22,0-6.5,0-9.76-.09s-6.53.09-9.75.09h-2.12a539.54,539.54,0,0,1-79.31-6.09C220.18,995.78,145,978,79.17,947.31A527.92,527.92,0,0,1-233.11,799.55c-68.22-67-118.61-155.28-142-248.68a537.49,537.49,0,0,1-29.85-104.23l-16.59-94.09c-24.34-138.11,6.54-277.43,87-392.29,2.27-3.25,4.83-6.79,7.45-10.34.55-1.44,1.11-2.87,1.67-4.27l3.85-9.72C-241.3-266.9-48.6-398,169.33-398a525.12,525.12,0,0,1,194.12,37l53.93,21.34,10.5-1.85c6.28-1.1,12.64-2.1,18.92-3,6.25-1.34,12.59-2.58,18.85-3.68l26.87-4.74a526.38,526.38,0,0,1,91.18-8c2.24,0,4.67,0,7.12.06a527.57,527.57,0,0,1,58.94-3.33,522.47,522.47,0,0,1,301.08,94.91L966.75-258c114.86,80.39,191.52,200.73,215.88,338.86l11.86,67.27c16.4,93.16,5.14,198.22-30.89,288.61-3.47,49.54-14.14,100.91-30.1,144.88l-12.35,33.28C1048.66,808,877.83,938.55,675,956.07c-63.93,26.31-137.49,41.45-202.33,41.62a539.22,539.22,0,0,1-78.38,5.95h-2Z" fill="#ed1d24"/><path d="M392.24,991.13c-3.21,0-6.49,0-9.75-.09s-6.54.09-9.75.09h-2.12a526,526,0,0,1-78.21-6.07c-70.43-1.63-144.82-19.35-209.83-50A515.17,515.17,0,0,1-224.34,790.63C-291.16,725-340.43,638.52-363.14,547A524.08,524.08,0,0,1-392.6,444.47l-16.59-94.09c-23.76-134.83,6.38-270.83,84.89-382.95,2.52-3.6,5.36-7.53,8.27-11.43.74-1.94,1.49-3.87,2.23-5.75l3.85-9.72c78.4-198,266.53-326,479.29-326a512.54,512.54,0,0,1,189.51,36.15l55.08,21.79,2.12.85,14-2.47c6.28-1.1,12.63-2.1,18.92-3,6.25-1.35,12.59-2.59,18.85-3.69l26.87-4.74a513.33,513.33,0,0,1,89-7.79c2.42,0,5.08,0,7.73.07a516.79,516.79,0,0,1,58.33-3.34,510.05,510.05,0,0,1,293.91,92.65l15.91,11.14c112.12,78.47,187,196,210.74,330.79l11.86,67.27c16.14,91.65,4.87,194.89-30.91,283.62-3.25,49-13.71,99.89-29.51,143.44l-12.32,33.2C1038.39,799.79,870.9,927.32,672,943.77c-63.23,26.31-136.1,41.39-200.29,41.41a526.34,526.34,0,0,1-77.43,6Z" fill="#b1181e"/><path d="M392.24,978.63c-3.22,0-6.5,0-9.75-.1s-6.53.1-9.75.1h-2.12a512.74,512.74,0,0,1-77.12-6C223.76,971.09,150.19,953.46,86,922.87A502.37,502.37,0,0,1-215.59,781.71C-281,717.46-329.15,632.77-351.23,543.16A511.06,511.06,0,0,1-380.3,442.29l-16.59-94.09C-420.07,216.66-390.66,84-314.07-25.41c2.77-4,5.89-8.26,9.09-12.52.92-2.44,1.86-4.87,2.79-7.24l3.84-9.71C-221.85-248.12-38.28-373,169.32-373a500.24,500.24,0,0,1,184.91,35.27l55.08,21.8c1.73.69,3.52,1.41,5.35,2.16l17.55-3.1c6.27-1.1,12.62-2.09,18.92-2.95,6.26-1.35,12.6-2.6,18.85-3.7l26.87-4.74a501.1,501.1,0,0,1,86.84-7.6c2.61,0,5.48,0,8.34.08a503.71,503.71,0,0,1,57.72-3.35,497.63,497.63,0,0,1,286.74,90.39l15.9,11.14C1061.78-161,1134.8-46.4,1158,85.15l11.86,67.27c15.87,90.14,4.59,191.56-30.95,278.63-3,48.53-13.26,98.87-28.92,142l-12.29,33.11C1028.09,791.62,864,916.09,669,931.47c-62.25,26.2-134.08,41.21-197.42,41.21h-.82a513.45,513.45,0,0,1-76.49,6Z" fill="#ed1d24"/><path d="M392.24,966.13c-3.22,0-6.5,0-9.75-.1s-6.53.1-9.75.1h-2.12a499.39,499.39,0,0,1-76-6c-69.05-1.34-141.79-18.88-205.21-49.46A489.56,489.56,0,0,1-206.82,772.79c-64-62.88-111-145.76-132.47-233.48A499,499,0,0,1-368,440.12L-384.57,346c-22.6-128.25,6.07-257.62,80.75-364.27,3-4.31,6.43-9,9.92-13.61,1.1-2.95,2.23-5.88,3.35-8.72l3.84-9.7c74.6-188.44,253.6-310.2,456.05-310.2a487.6,487.6,0,0,1,180.31,34.4l55.08,21.8c2.75,1.09,5.6,2.26,8.51,3.48l21.15-3.73c6.26-1.1,12.62-2.09,18.92-3,6.27-1.36,12.61-2.61,18.85-3.71L499-315.92a488,488,0,0,1,84.67-7.41c2.79,0,5.87,0,8.95.09a490.86,490.86,0,0,1,57.11-3.36,485.18,485.18,0,0,1,279.57,88.13l15.9,11.14c106.65,74.65,177.85,186.39,200.46,314.65l11.86,67.27c15.61,88.63,4.31,188.23-31,273.63-2.78,48-12.81,97.85-28.31,140.56l-12.26,33c-68.18,181.63-229,303.05-420,317.36-61.23,26.08-132,41-194.43,41H469.8a500.65,500.65,0,0,1-75.53,6Z" fill="#b1181e"/><path d="M392.24,953.63c-3.22,0-6.5,0-9.75-.1s-6.53.1-9.75.1h-2.12a487.66,487.66,0,0,1-74.93-6C227.33,946.43,155.41,929,92.8,898.41A476.76,476.76,0,0,1-198.07,763.88c-62.62-61.5-108.51-142.58-129.3-228.42A486.36,486.36,0,0,1-355.68,438l-16.59-94.09c-22-125,5.92-251,78.67-354.93,3.26-4.66,7-9.71,10.76-14.7,1.27-3.45,2.58-6.87,3.9-10.21l3.84-9.7C-202.4-229.32-28-348,169.33-348A475.3,475.3,0,0,1,345-314.46l55.08,21.8c3.73,1.48,7.63,3.09,11.63,4.82l24.81-4.38c6.26-1.1,12.62-2.08,18.92-2.94,6.27-1.37,12.61-2.62,18.85-3.72l26.87-4.74a475.8,475.8,0,0,1,82.49-7.22c3,0,6.28,0,9.57.11a478.26,478.26,0,0,1,56.5-3.38,472.66,472.66,0,0,1,272.4,85.87l15.9,11.14C1042-144.37,1111.35-35.49,1133.38,89.49l11.86,67.27c15.34,87.13,4,184.9-31,268.63-2.54,47.52-12.35,96.84-27.7,139.12l-12.23,32.94C1007.53,775.25,850.08,893.62,663,906.84c-60.2,26-129.84,40.83-191.43,40.83h-2.75a487.9,487.9,0,0,1-74.56,6h-2Z" fill="#ed1d24"/><path d="M392.24,941.13c-3.22,0-6.5,0-9.75-.1s-6.53.1-9.75.1h-2.12a473.59,473.59,0,0,1-73.84-6c-67.68-1-138.76-18.41-200.57-49A464,464,0,0,1-189.31,755c-61.21-60.12-106-139.41-126.13-223.35a473.24,473.24,0,0,1-27.93-95.82L-360,341.69C-381.41,220-354.2,97.29-283.36-3.9c3.52-5,7.51-10.46,11.6-15.78,1.43-3.93,2.92-7.86,4.44-11.7l3.84-9.69c70.8-178.84,240.68-294.4,432.8-294.4a462.81,462.81,0,0,1,171.11,32.64L395.52-281c4.65,1.84,9.67,3.95,14.69,6.16l28.52-5c6.25-1.1,12.61-2.08,18.92-2.92,6.27-1.38,12.6-2.63,18.84-3.73l26.87-4.74a463.66,463.66,0,0,1,80.32-7c3.18,0,6.68,0,10.18.12a465.87,465.87,0,0,1,55.89-3.39A460.24,460.24,0,0,1,915-218l15.9,11.13C1032.07-136,1099.61-30,1121.06,91.66l11.86,67.27c15.08,85.63,3.74,181.57-31.1,263.63-2.29,47-11.88,95.82-27.08,137.69l-12.19,32.86C997.24,767.08,843.14,882.39,660,894.53c-59.17,25.85-127.72,40.65-188.43,40.65h-3.73a475.08,475.08,0,0,1-73.58,6Z" fill="#b1181e"/><path d="M392.24,928.63c-3.23,0-6.51,0-9.75-.11s-6.52.11-9.75.11h-2.12a462,462,0,0,1-72.75-6c-67-.88-137.25-18.17-198.24-48.76A451.24,451.24,0,0,1-180.55,746c-59.81-58.75-103.46-136.24-123-218.29a461.21,461.21,0,0,1-27.55-94.14l-16.59-94.09c-20.87-118.38,5.6-237.8,74.53-336.25,3.78-5.4,8.06-11.19,12.45-16.86,1.59-4.44,3.27-8.87,5-13.2l3.83-9.69C-183-210.52-17.64-323,169.32-323a450.51,450.51,0,0,1,166.51,31.76l55.09,21.8c5.63,2.23,11.7,4.81,17.75,7.54,1.81-.35,3.6-.68,5.35-1l26.88-4.74c6.25-1.1,12.61-2.08,18.92-2.91,6.27-1.38,12.6-2.64,18.84-3.74L505.53-279a450.53,450.53,0,0,1,78.15-6.84c3.38,0,7.09.05,10.79.14a453.8,453.8,0,0,1,55.27-3.41A447.79,447.79,0,0,1,907.8-207.75l15.9,11.13c98.45,68.9,164.17,172.06,185,290.45l11.86,67.27c14.81,84.13,3.45,178.25-31.18,258.62-2,46.51-11.4,94.81-26.45,136.26l-12.16,32.77C987,758.91,836.19,871.15,657,882.2,598.86,908,531.42,922.68,471.58,922.68h-4.72a462.38,462.38,0,0,1-72.58,6Z" fill="#ed1d24"/><path d="M392.24,916.13c-3.23,0-6.51,0-9.75-.11s-6.52.11-9.75.11h-2.12a448.28,448.28,0,0,1-71.66-6c-66.31-.72-135.73-17.93-195.91-48.54a438.48,438.48,0,0,1-274.84-124.5c-58.42-57.38-100.93-133.06-119.79-213.22a448,448,0,0,1-27.17-92.46l-16.59-94.09c-20.29-115.1,5.45-231.19,72.46-326.91,4-5.75,8.6-11.92,13.31-17.94,1.76-4.95,3.6-9.89,5.5-14.7l3.83-9.68c67-169.24,227.76-278.6,409.56-278.6a437.93,437.93,0,0,1,161.9,30.88l55.09,21.8c6.62,2.62,13.75,5.69,20.82,9,3.09-.62,6.12-1.2,9.05-1.71l26.88-4.74c6.25-1.1,12.61-2.07,18.92-2.9,6.26-1.39,12.6-2.65,18.84-3.75l26.87-4.74a438.39,438.39,0,0,1,76-6.65c3.57,0,7.49.06,11.4.16a439.81,439.81,0,0,1,54.66-3.43,435.43,435.43,0,0,1,250.9,79.09l15.89,11.13c95.74,67,159.63,167.28,179.93,282.38l11.86,67.27c14.55,82.64,3.15,174.93-31.26,253.61-1.77,46-10.91,93.8-25.8,134.84l-12.13,32.69C976.68,750.74,829.25,859.91,654,869.85c-57.1,25.65-123.44,40.33-182.41,40.33h-5.73a449.63,449.63,0,0,1-71.57,6Z" fill="#b1181e"/><path d="M392.24,903.63c-3.23,0-6.51,0-9.75-.11-3.24.08-6.52.11-9.75.11h-2.12a435.89,435.89,0,0,1-70.57-6c-65.63-.55-134.22-17.69-193.57-48.34A425.72,425.72,0,0,1-163,728.2c-57-56-98.4-129.89-116.61-208.16a435,435,0,0,1-26.79-90.77L-323,335.18c-19.71-111.81,5.29-224.59,70.39-317.57,4.28-6.12,9.16-12.65,14.18-19,1.91-5.47,3.93-10.91,6-16.2l3.83-9.68C-163.5-191.72-7.31-298,169.33-298a425.48,425.48,0,0,1,157.3,30l55.09,21.8c7.62,3,15.8,6.59,23.89,10.41,4.39-.93,8.67-1.77,12.76-2.49L445.25-243c6.25-1.1,12.61-2.07,18.92-2.89,6.26-1.4,12.6-2.66,18.83-3.76l26.87-4.74a425.35,425.35,0,0,1,73.81-6.46c3.77,0,7.9.06,12,.19a428.16,428.16,0,0,1,54-3.46,423,423,0,0,1,243.73,76.83l15.89,11.13c93,65.08,155.05,162.5,174.76,274.31L1096,165.43c14.29,81.15,2.86,171.6-31.36,248.59-1.5,45.51-10.4,92.79-25.15,133.42l-12.1,32.61C966.39,742.58,822.3,848.67,651,857.5c-56.05,25.55-121.29,40.18-179.39,40.18h-6.76a436.85,436.85,0,0,1-70.55,6Z" fill="#ed1d24"/><path d="M392.24,891.13c-3.21,0-6.49,0-9.75-.12-3.26.08-6.54.12-9.75.12h-2.12a423.47,423.47,0,0,1-69.48-6c-64.95-.38-132.7-17.44-191.22-48.15A412.93,412.93,0,0,1-154.27,719.29c-55.62-54.63-95.87-126.71-113.43-203.1a421.31,421.31,0,0,1-26.42-89.09L-310.71,333c-19.13-108.52,5.14-218,68.32-308.23,4.53-6.47,9.71-13.38,15-20.08,2.05-6,4.24-11.92,6.53-17.71l3.83-9.68c63.2-159.64,214.83-262.79,386.31-262.79A413,413,0,0,1,322-256.35l55.1,21.8c8.62,3.42,17.86,7.5,26.95,11.92,5.65-1.26,11.27-2.39,16.46-3.3l26.88-4.74c6.25-1.1,12.61-2.06,18.93-2.88,6.26-1.41,12.59-2.68,18.83-3.78l26.87-4.74a413.2,413.2,0,0,1,71.64-6.27c4,0,8.31.07,12.62.21a415,415,0,0,1,53.44-3.48A410.53,410.53,0,0,1,886.31-177l15.89,11.13c90.25,63.16,150.49,157.72,169.63,266.25l11.86,67.27c14,79.66,2.56,168.28-31.46,243.57-1.21,45-9.88,91.77-24.48,132l-12.07,32.52C956.1,734.41,815.35,837.43,648,845.13c-55,25.47-119.13,40-176.37,40h-7.79a424,424,0,0,1-69.51,6Z" fill="#b1181e"/><path d="M392.24,878.63c-3.23,0-6.51,0-9.75-.12-3.24.08-6.52.12-9.75.12h-2.12a410.46,410.46,0,0,1-68.4-6c-64.28-.19-131.18-17.2-188.87-48A400.19,400.19,0,0,1-145.52,710.36c-54.22-53.26-93.34-123.54-110.25-198a409.18,409.18,0,0,1-26-87.4l-16.59-94.09c-18.55-105.23,5-211.38,66.25-298.89,4.79-6.84,10.27-14.11,15.94-21.14,2.19-6.49,4.55-12.94,7-19.22l3.83-9.67C-144.06-172.93,3-273,169.33-273a400.53,400.53,0,0,1,148.1,28.25l55.1,21.8c9.64,3.82,19.93,8.44,30,13.47,6.9-1.62,13.8-3,20.17-4.17l26.88-4.74c6.26-1.1,12.62-2.06,18.93-2.86,6.25-1.41,12.58-2.69,18.83-3.79l26.87-4.74a401.06,401.06,0,0,1,69.47-6.08c4.16,0,8.72.08,13.23.24a402.14,402.14,0,0,1,52.83-3.51A398.11,398.11,0,0,1,879.14-166.8L895-155.67C982.54-94.42,1041-2.73,1059.52,102.51l11.86,67.27c13.77,78.18,2.25,165-31.59,238.55-.92,44.49-9.34,90.76-23.79,130.6l-12,32.44c-58.14,154.87-195.56,254.81-359,261.38-53.94,25.4-117,39.93-173.34,39.93h-8.82a410.48,410.48,0,0,1-68.49,6Z" fill="#ed1d24"/><path d="M392.24,866.13c-3.23,0-6.51,0-9.75-.13-3.24.08-6.52.13-9.75.13h-2.12a396.42,396.42,0,0,1-67.31-6c-63.6,0-129.71-17-186.51-47.82A387.46,387.46,0,0,1-136.76,701.45c-52.82-51.88-90.82-120.37-107.06-193a396.36,396.36,0,0,1-25.69-85.72l-16.59-94.09A385,385,0,0,1-221.92,39.12c5-7.2,10.83-14.84,16.84-22.2,2.32-7,4.84-14,7.52-20.73l3.83-9.67c59.4-150,201.91-247,363.06-247a388.23,388.23,0,0,1,143.5,27.37l55.1,21.8c10.66,4.22,22,9.4,33.07,15.07,8.15-2,16.32-3.75,23.89-5.08L451.77-206c6.26-1.1,12.62-2.06,18.93-2.85,6.25-1.43,12.58-2.7,18.83-3.81l26.87-4.74a387.93,387.93,0,0,1,67.3-5.89c4.36,0,9.12.09,13.85.27a389.46,389.46,0,0,1,52.22-3.54A385.61,385.61,0,0,1,872-156.56l15.89,11.13C972.66-86.1,1029.25,2.73,1047.23,104.68L1059.09,172c13.51,76.7,1.94,161.64-31.73,233.51-.61,44-8.78,89.76-23.09,129.19l-12,32.35C935.55,718.06,801.47,814.9,641.91,820.33,589,845.66,527.13,860.16,471.6,860.16h-6.17l-3.67,0a398.18,398.18,0,0,1-67.46,6h-2.06Z" fill="#b1181e"/><path d="M392.24,853.63c-3.21,0-6.49,0-9.75-.13-3.26.09-6.54.13-9.75.13h-2.12a383.74,383.74,0,0,1-66.22-6h-1.07c-62.59,0-127.47-16.92-183.07-47.68A374.63,374.63,0,0,1-128,692.53C-179.42,642-216.28,575.32-231.87,504.62a383.37,383.37,0,0,1-25.33-84l-16.59-94.09A372.6,372.6,0,0,1-211.68,46.29c5.3-7.57,11.41-15.57,17.75-23.25,2.44-7.52,5.12-15,8-22.25l3.83-9.67C-124.61-154.12,13.34-248,169.33-248a375.49,375.49,0,0,1,138.89,26.5l55.1,21.81a370.29,370.29,0,0,1,36.11,16.74c9.39-2.44,18.84-4.51,27.61-6.06l26.88-4.74c6.25-1.1,12.62-2.05,18.93-2.83,6.25-1.44,12.58-2.72,18.82-3.82l26.87-4.74a375.78,375.78,0,0,1,65.13-5.7c4.56,0,9.53.1,14.46.3a377.29,377.29,0,0,1,51.6-3.57,373.17,373.17,0,0,1,215,67.79l15.88,11.12a372.32,372.32,0,0,1,154.24,242l11.86,67.27c13.25,75.23,1.62,158.33-31.89,228.48-.28,43.48-8.2,88.75-22.37,127.8l-12,32.27c-55.27,147.23-186,241-341.68,245.26-51.79,25.28-112.58,39.74-167.26,39.74h-6.17l-4.7,0a385.23,385.23,0,0,1-66.44,6Z" fill="#ed1d24"/><path d="M392.24,841.13c-3.22,0-6.5,0-9.76-.13-3.25.09-6.53.13-9.75.13h-2.12a371,371,0,0,1-65.11-6h-2.19c-61.58,0-125.22-16.87-179.6-47.57a362,362,0,0,1-243-104c-50-49.14-85.76-114-100.68-182.85a370.67,370.67,0,0,1-25-82.35l-16.59-94.09a360.2,360.2,0,0,1,60-270.87c5.56-7.94,12-16.3,18.67-24.29,2.55-8,5.39-16,8.45-23.78l3.82-9.66c55.6-140.44,189-231.19,339.82-231.19A363.2,363.2,0,0,1,303.6-209.85L358.7-188a361.41,361.41,0,0,1,39.16,18.46c10.62-2.9,21.36-5.34,31.34-7.1l26.88-4.74c6.25-1.1,12.62-2,18.94-2.82,6.25-1.45,12.57-2.74,18.82-3.84l26.87-4.74a362.66,362.66,0,0,1,63-5.51c4.76,0,9.94.12,15.07.34a365.26,365.26,0,0,1,51-3.61,360.8,360.8,0,0,1,207.89,65.53l15.88,11.12a360,360,0,0,1,149.07,234l11.86,67.27c13,73.76,1.3,155-32.08,223.43.06,43-7.59,87.74-21.63,126.41l-11.94,32.19c-53.84,143.41-181.27,234.06-333,237.19-50.7,25.23-110.38,39.67-164.21,39.67h-6.17c-1.87,0-3.79,0-5.72,0a372.4,372.4,0,0,1-65.41,6h-2Z" fill="#b1181e"/><path d="M392.24,828.63c-3.21,0-6.49,0-9.76-.14-3.26.09-6.54.14-9.75.14h-2.12a358.27,358.27,0,0,1-64-6h-3.32c-60.58,0-123-16.84-176.12-47.48A349.27,349.27,0,0,1-110.48,674.69,355.53,355.53,0,0,1-208,496.9a357.84,357.84,0,0,1-24.61-80.66l-16.59-94.09a347.76,347.76,0,0,1,58-261.53c5.82-8.32,12.57-17,19.61-25.33,2.65-8.57,5.64-17.07,8.9-25.31l3.82-9.66C-105.16-135.33,23.66-223,169.34-223A350.71,350.71,0,0,1,299-198.23l55.11,21.81a349,349,0,0,1,42.19,20.26,344.62,344.62,0,0,1,35.08-8.22l26.88-4.74c6.25-1.1,12.61-2,18.94-2.8,6.25-1.46,12.58-2.75,18.82-3.85l26.87-4.74a350.51,350.51,0,0,1,60.79-5.32c4.95,0,10.35.13,15.69.38a352.18,352.18,0,0,1,50.38-3.65A348.35,348.35,0,0,1,850.5-125.83l15.88,11.12A347.61,347.61,0,0,1,1010.31,111.2l11.86,67.27c12.73,72.29,1,151.69-32.28,218.38.41,42.46-7,86.74-20.86,125L957.12,554c-52.41,139.6-176.51,227.14-324.36,229.09-49.61,25.2-108.16,39.62-161.14,39.62h-6.17c-2.05,0-4.16,0-6.29-.06h-.56a359.76,359.76,0,0,1-64.29,6Z" fill="#ed1d24"/><path d="M392.24,816.13c-3.21,0-6.49,0-9.76-.14-3.26.09-6.54.14-9.75.14h-2.12a345.58,345.58,0,0,1-62.83-6h-4.47c-59.57,0-120.75-16.82-172.64-47.42a336.66,336.66,0,0,1-232.4-97A342.77,342.77,0,0,1-196,493a344.4,344.4,0,0,1-24.26-79L-236.86,320A335.33,335.33,0,0,1-181,67.78c6.09-8.69,13.16-17.76,20.56-26.36,2.74-9.1,5.87-18.12,9.33-26.85l3.82-9.66c51.8-130.85,176.06-215.39,316.57-215.39a338.41,338.41,0,0,1,125.09,23.86l55.11,21.81a339.53,339.53,0,0,1,45.22,22.15,331.9,331.9,0,0,1,38.82-9.41l26.88-4.74c6.24-1.1,12.61-2,18.94-2.78,6.25-1.47,12.57-2.77,18.81-3.87l26.88-4.74a338.43,338.43,0,0,1,58.61-5.13c5.14,0,10.75.14,16.3.42a339.4,339.4,0,0,1,49.76-3.69,335.91,335.91,0,0,1,193.55,61l15.88,11.12A335.18,335.18,0,0,1,998,113.37l11.86,67.27c12.48,70.84.62,148.39-32.51,213.32.79,42-6.31,85.73-20.07,123.65l-11.88,32c-50.94,135.69-171.79,220.2-315.72,221-48.5,25.19-105.92,39.59-158.06,39.59h-6.17c-2.05,0-4.15,0-6.27-.06l-1.83,0a346.66,346.66,0,0,1-63,6h-2Z" fill="#b1181e"/><path d="M392.24,803.63c-3.2,0-6.48,0-9.76-.15-3.27.1-6.55.15-9.75.15h-2.12a332.75,332.75,0,0,1-61.66-6h-5.64c-58.41,0-118.26-16.74-168.81-47.19l-1.08-.2A324.12,324.12,0,0,1-93,656.85,330,330,0,0,1-184,489.17,331.84,331.84,0,0,1-208,411.89l-16.59-94.09A322.94,322.94,0,0,1-170.73,75a327.67,327.67,0,0,1,21.54-27.38c2.81-9.63,6.08-19.17,9.74-28.4l3.82-9.66C-85.73-116.54,34-198,169.32-198a326,326,0,0,1,120.49,23l55.11,21.81a329,329,0,0,1,48.24,24.12,323.54,323.54,0,0,1,42.58-10.7l26.88-4.74c6.24-1.1,12.61-2,18.95-2.76,6.25-1.49,12.57-2.8,18.81-3.89l26.88-4.74a325.21,325.21,0,0,1,56.44-4.94c5.34,0,11.16.16,16.92.47a327.08,327.08,0,0,1,49.15-3.74,323.48,323.48,0,0,1,186.38,58.75L852-94.24A322.77,322.77,0,0,1,985.68,115.53l11.86,67.27c12.22,69.39.27,145.08-32.78,208.25,1.18,41.44-5.62,84.73-19.25,122.28l-11.85,31.93c-49.29,131.29-166.53,212.82-306,212.82h-1.1c-47.37,25.18-103.66,39.59-155,39.59h-6.17c-2.05,0-4.16,0-6.28-.06l-3.08,0a333.88,333.88,0,0,1-61.78,6h-2.05Z" fill="#ed1d24"/><path d="M392.24,791.13c-3.2,0-6.48,0-9.76-.15-3.27.1-6.55.15-9.75.15h-2.12a321.07,321.07,0,0,1-60.49-6h-6.81c-57,0-115.23-16.52-164.29-46.56l-4.38-.82A311.69,311.69,0,0,1-84.2,647.94a317.16,317.16,0,0,1-87.86-162.62,319.32,319.32,0,0,1-23.58-75.59l-16.59-94.09A310.5,310.5,0,0,1-160.47,82.13a317.77,317.77,0,0,1,22.53-28.39,313.82,313.82,0,0,1,10.12-30l3.82-9.66C-76-107.13,39.13-185.47,169.33-185.47a313.38,313.38,0,0,1,115.88,22.11l55.11,21.81a315.73,315.73,0,0,1,51.24,26.21,312.13,312.13,0,0,1,46.34-12.1l26.88-4.74c6.23-1.09,12.6-2,19-2.74,6.25-1.5,12.57-2.82,18.8-3.92l26.88-4.74a313.15,313.15,0,0,1,54.27-4.75c5.54,0,11.57.18,17.53.52a314,314,0,0,1,48.53-3.79A311,311,0,0,1,829-95.1L844.83-84a310.35,310.35,0,0,1,128.51,201.7L985.2,185c12,67.95-.09,141.77-33.07,203.17,1.61,40.93-4.89,83.73-18.39,120.93l-11.82,31.85C874.52,667.2,761.76,745.61,627.64,745.61H623.4C577.17,770.8,522,785.2,471.57,785.2H465.4c-2,0-4.16,0-6.28-.06q-2.13,0-4.29.06h-.05a321.14,321.14,0,0,1-60.52,5.95h-2Z" fill="#b1181e"/><path d="M392.24,778.63c-3.19,0-6.47,0-9.75-.16-3.28.11-6.56.16-9.75.16h-2.12a308.08,308.08,0,0,1-59.32-6l-3.07,0h-4.91c-55.57,0-112.2-16.3-159.75-46-2.58-.45-5.16-.93-7.69-1.43h-.46A299.22,299.22,0,0,1-75.43,639a304.26,304.26,0,0,1-84.64-157.57,306.12,306.12,0,0,1-23.25-73.9l-16.59-94.09A298.11,298.11,0,0,1-150.22,89.29,304.73,304.73,0,0,1-126.66,59.9a301.94,301.94,0,0,1,10.49-31.54l3.82-9.65C-66.25-97.74,44.32-173,169.35-173a300.88,300.88,0,0,1,111.28,21.23l55.12,21.81A304.81,304.81,0,0,1,390-101.53a301.31,301.31,0,0,1,50.12-13.61L467-119.88c6.24-1.1,12.61-2,19-2.71,6.23-1.51,12.55-2.84,18.79-3.94l26.88-4.74a300.11,300.11,0,0,1,52.1-4.56c5.74,0,12,.2,18.15.58a301.31,301.31,0,0,1,47.91-3.85,298.46,298.46,0,0,1,172,54.24l15.88,11.12A297.94,297.94,0,0,1,961.06,119.89l11.86,67.27c11.71,66.51-.46,138.47-33.41,198.08,2.06,40.41-4.12,82.73-17.5,119.58l-11.79,31.76C864.7,657.81,756.44,733.1,627.66,733.1h-2.52c-1.61,0-3.24,0-4.88,0-45.07,25.21-99,39.63-148.67,39.63h-6.17c-2.06,0-4.17,0-6.28-.07-1.55,0-3.13,0-4.71.06l-1.22.07a307.7,307.7,0,0,1-58.93,5.88Z" fill="#ed1d24"/><path d="M392.24,766.13c-3.18,0-6.46-.06-9.75-.17-3.29.11-6.57.17-9.75.17h-2.12a295.19,295.19,0,0,1-58.15-6c-1.41,0-2.83,0-4.24,0h-4.91a292.66,292.66,0,0,1-155.21-45.36c-3.71-.61-7.4-1.29-11-2H135.4A286.76,286.76,0,0,1-66.68,630.1,291.5,291.5,0,0,1-148.1,477.59,293.57,293.57,0,0,1-171,405.39l-16.59-94.09A285.67,285.67,0,0,1-140,96.47a293.77,293.77,0,0,1,24.47-30.24l.42-1.22A287.37,287.37,0,0,1-104.57,33l3.82-9.65C-56.55-88.34,49.46-160.48,169.33-160.48A288.59,288.59,0,0,1,276-140.13l55.12,21.81a293.76,293.76,0,0,1,57.21,30.75,290.14,290.14,0,0,1,53.92-15.27l26.88-4.74c6.25-1.1,12.63-2,19-2.69,6.22-1.53,12.54-2.86,18.79-4L533.77-119a287.88,287.88,0,0,1,49.93-4.37c5.95,0,12.4.22,18.77.64a289.15,289.15,0,0,1,47.29-3.92,286,286,0,0,1,164.87,52L830.5-63.53A285.52,285.52,0,0,1,948.73,122l11.86,67.27c11.46,65.08-.85,135.17-33.78,193,2.54,39.9-3.31,81.73-16.56,118.25L898.49,532.2c-43.63,116.21-147.4,188.37-270.84,188.37h-2.52c-2.65,0-5.34,0-8-.11-43.89,25.26-96.7,39.7-145.5,39.7h-6.17c-2.06,0-4.17,0-6.28-.07-1.69,0-3.41.06-5.13.07l-2.39.14a295.18,295.18,0,0,1-57.34,5.8h-2Z" fill="#b1181e"/><path d="M392.24,753.63c-3.18,0-6.46-.06-9.75-.17-3.29.12-6.57.17-9.75.17h-2.12a282.17,282.17,0,0,1-56.85-6h-.83c-1.56,0-3.14,0-4.71,0h-4.91A279.61,279.61,0,0,1,152.68,702.9c-4.82-.75-9.61-1.62-14.3-2.6h-3A274.37,274.37,0,0,1-57.92,621.19,278.61,278.61,0,0,1-136.1,473.73a280.43,280.43,0,0,1-22.61-70.5l-16.59-94.09a273.27,273.27,0,0,1,45.55-205.49,281.65,281.65,0,0,1,25.22-30.87c.45-1.38.92-2.75,1.39-4.11a276.39,276.39,0,0,1,10.2-31.1l3.82-9.65C-46.82-78.93,54.63-148,169.34-148A276.13,276.13,0,0,1,271.42-128.5l55.12,21.81A281.41,281.41,0,0,1,386.7-73.43a279.45,279.45,0,0,1,57.73-17.09l26.88-4.74c6.25-1.1,12.63-2,19-2.66,6.22-1.55,12.54-2.89,18.78-4l26.88-4.74a275.82,275.82,0,0,1,47.76-4.18c6.15,0,12.82.25,19.39.72a276.32,276.32,0,0,1,46.67-4,273.61,273.61,0,0,1,157.7,49.72l15.87,11.12a273.13,273.13,0,0,1,113.09,177.5l11.86,67.27c11.21,63.67-1.26,131.88-34.21,187.85,3.06,39.38-2.43,80.74-15.57,116.93l-11.73,31.6C845,639.06,745.75,708.09,627.65,708.09h-2.52c-3.71,0-7.47-.08-11.23-.23-42.69,25.34-94.32,39.82-142.32,39.82h-6.17c-2.06,0-4.17,0-6.28-.07-1.83,0-3.69.07-5.56.07-1.17.08-2.36.15-3.55.21a282.73,282.73,0,0,1-55.74,5.74Z" fill="#ed1d24"/><path d="M392.24,741.13c-3.19,0-6.47-.06-9.75-.18-3.28.12-6.56.18-9.75.18h-2.12a269.3,269.3,0,0,1-55.47-6l-2.22,0c-1.56,0-3.13,0-4.7,0h-4.91a266.59,266.59,0,0,1-146.07-44.24c-5.89-.86-11.89-1.94-17.58-3.15h-4.28A261.91,261.91,0,0,1-49.17,612.26,265.81,265.81,0,0,1-124.1,469.84,268.12,268.12,0,0,1-146.41,401L-163,307a260.83,260.83,0,0,1,43.48-196.15,269,269,0,0,1,26-31.48c.75-2.36,1.53-4.71,2.34-7a263.35,263.35,0,0,1,9.86-30.14l3.82-9.64c40.4-102,137.29-168,246.83-168a263.84,263.84,0,0,1,97.48,18.59l55.12,21.81a270.18,270.18,0,0,1,63.1,36,268.16,268.16,0,0,1,61.56-19.1l26.88-4.74c6.25-1.1,12.62-2,19-2.63,6.21-1.57,12.52-2.92,18.78-4l26.88-4.74a262.7,262.7,0,0,1,45.59-4c6.36,0,13.24.28,20,.8l.46-.08a263.64,263.64,0,0,1,45.59-4A261.22,261.22,0,0,1,800.29-54.15L816.16-43A260.72,260.72,0,0,1,924.1,126.39L936,193.66c11,62.26-1.68,128.59-34.7,182.72,3.62,38.85-1.5,79.74-14.52,115.63l-11.69,31.51C835.2,629.67,740.4,695.58,627.65,695.58h-2.52c-4.76,0-9.6-.13-14.43-.4-41.46,25.45-91.92,40-139.12,40h-6.17c-2.07,0-4.18,0-6.28-.08s-4,.07-6,.08c-1.55.1-3.13.2-4.72.28a269.76,269.76,0,0,1-54.15,5.67h-2Z" fill="#b1181e"/><path d="M392.24,728.63c-3.2,0-6.48-.06-9.75-.19-3.27.13-6.55.19-9.75.19h-2.12a256.19,256.19,0,0,1-54.09-6c-1.2,0-2.4,0-3.6,0-1.56,0-3.13,0-4.7,0h-4.91A253.58,253.58,0,0,1,161.85,679c-7-1-14.09-2.2-20.84-3.67H135.4A249.47,249.47,0,0,1-40.4,603.35,253,253,0,0,1-112.08,466a255.18,255.18,0,0,1-22-67.1l-16.59-94.09A248.4,248.4,0,0,1-109.27,118,255,255,0,0,1-82.46,85.9c1-3.35,2.11-6.69,3.26-10a251.2,251.2,0,0,1,9.51-29.19l3.82-9.64C-27.37-60.13,65-123,169.34-123a251.15,251.15,0,0,1,92.88,17.72l55.13,21.82a261.55,261.55,0,0,1,66,38.88,259.32,259.32,0,0,1,65.42-21.34l26.88-4.74c6.25-1.1,12.62-2,19-2.59,6.21-1.59,12.52-3,18.77-4.06L540.29-82a250.64,250.64,0,0,1,43.42-3.8c6.56,0,13.65.31,20.61.89l2-.36a251.5,251.5,0,0,1,43.42-3.8,248.79,248.79,0,0,1,143.37,45.2L809-32.78A248.26,248.26,0,0,1,911.82,128.58l11.86,67.27c10.72,60.88-2.13,125.32-35.25,177.57,4.23,38.32-.48,78.74-13.41,114.34l-11.66,31.43c-38,101.11-128.29,163.9-235.71,163.9h-2.52c-5.84,0-11.76-.21-17.65-.63-40.21,25.59-89.48,40.21-135.89,40.21h-6.17c-2.06,0-4.17,0-6.28-.08s-4.22.08-6.29.08h-.12c-1.93.13-3.91.25-5.9.34a256.81,256.81,0,0,1-52.54,5.61h-2.05Z" fill="#ed1d24"/><path d="M392.24,716.13c-3.2,0-6.48-.07-9.75-.2-3.27.13-6.55.2-9.75.2h-2.12a243.29,243.29,0,0,1-52.71-6h-.3c-1.55,0-3.11,0-4.68,0s-3.13,0-4.71,0h-4.91A240.57,240.57,0,0,1,166.45,667c-8.06-1-16.31-2.42-24.1-4.17h-7a237.05,237.05,0,0,1-167-68.37,240.16,240.16,0,0,1-68.41-132.33,242.24,242.24,0,0,1-21.73-65.4l-16.59-94.09A236,236,0,0,1-99,125.13,242.53,242.53,0,0,1-71.39,92.47c1.27-4.35,2.66-8.67,4.15-12.9a239.81,239.81,0,0,1,9.17-28.24l3.81-9.64C-17.66-50.76,70.1-110.5,169.33-110.5A238.77,238.77,0,0,1,257.6-93.66l55.13,21.82c24,9.52,48.3,24.36,68.89,42.09a246.8,246.8,0,0,1,69.31-23.86l26.88-4.74c6.25-1.1,12.63-2,19-2.56,6.21-1.62,12.51-3,18.76-4.1l26.88-4.74a237.51,237.51,0,0,1,41.25-3.61c6.74,0,14,.34,21.16,1L608.5-73a239.36,239.36,0,0,1,41.25-3.61A236.35,236.35,0,0,1,786-33.67l15.87,11.11a235.9,235.9,0,0,1,97.67,153.29L911.35,198a239.5,239.5,0,0,1-35.89,172.4,244.24,244.24,0,0,1-12.21,113.08l-11.63,31.34c-36.08,96.09-121.89,155.76-224,155.76h-2.52c-6.92,0-13.93-.31-20.9-.92-38.93,25.79-87,40.5-132.65,40.5h-6.17c-2,0-4.15,0-6.28-.08s-4.24.08-6.29.08h-.55c-2.33.16-4.7.3-7.08.4a244.07,244.07,0,0,1-50.94,5.55h-2Z" fill="#b1181e"/><path d="M392.24,703.63c-3.21,0-6.49-.07-9.75-.21-3.27.14-6.54.21-9.75.21h-2.12a230.4,230.4,0,0,1-51.3-6h-1.71c-1.55,0-3.12,0-4.68,0s-3.13,0-4.7,0h-4.91a227.6,227.6,0,0,1-132.24-42.76,237.58,237.58,0,0,1-27.39-4.64l-2.85,0h-5.45A224.63,224.63,0,0,1-22.89,585.51,227.31,227.31,0,0,1-88,458.22a229.34,229.34,0,0,1-21.47-63.69l-16.59-94.09A223.57,223.57,0,0,1-88.8,132.31,230.2,230.2,0,0,1-60.27,99.09c1.48-5.36,3.15-10.68,5-15.86a227.87,227.87,0,0,1,8.82-27.29l3.81-9.64C-7.94-41.34,75.26-98,169.33-98A226.27,226.27,0,0,1,253-82l55.13,21.82a235.1,235.1,0,0,1,69.6,43.7q3-.15,6-.22a233.5,233.5,0,0,1,69.34-24.56L480-46c6.26-1.1,12.65-1.94,19-2.51,6.2-1.65,12.5-3,18.75-4.14l26.88-4.74a225.45,225.45,0,0,1,39.08-3.42c6.92,0,14.37.37,21.68,1.08l5.31-.94a226.14,226.14,0,0,1,39.08-3.42,223.93,223.93,0,0,1,129,40.68l15.87,11.11a223.4,223.4,0,0,1,92.52,145.22l11.86,67.27a226.54,226.54,0,0,1-36.63,167.21,230.79,230.79,0,0,1-10.91,111.83l-11.6,31.26C805.72,601.55,724.4,658.09,627.67,658.09h-2.52a228.19,228.19,0,0,1-24.18-1.3c-37.59,26-84.54,40.88-129.37,40.88h-6.17c-2,0-4.15,0-6.28-.09s-4.24.09-6.29.09h-1c-2.72.2-5.48.35-8.25.46a231.53,231.53,0,0,1-49.33,5.49h-2.05Z" fill="#ed1d24"/><path d="M392.24,691.13c-3.22,0-6.49-.08-9.76-.22-3.26.15-6.54.22-9.75.22h-2.12a217.53,217.53,0,0,1-49.85-6H317.6c-1.55,0-3.11,0-4.68,0s-3.13,0-4.7,0h-4.91a214.63,214.63,0,0,1-127.59-42.35A223.73,223.73,0,0,1,145,637.76c-1.42,0-2.83,0-4.2,0h-5.45A212.21,212.21,0,0,1-14.14,576.6,214.48,214.48,0,0,1-76,454.34a216.61,216.61,0,0,1-21.22-62l-16.59-94.09a211.18,211.18,0,0,1,35.2-158.79,217.32,217.32,0,0,1,29.45-33.74c1.65-6.38,3.6-12.7,5.81-18.86a212,212,0,0,1,8.48-26.33L-31,50.93C1.78-31.94,80.42-85.47,169.33-85.47A213.82,213.82,0,0,1,248.4-70.39l55.13,21.82A221.65,221.65,0,0,1,373.15-3.69c4.42-.33,8.85-.51,13.22-.56l1.06-.21A220.35,220.35,0,0,1,455.26-29l26.88-4.74c6.26-1.1,12.65-1.93,19-2.47,6.19-1.68,12.49-3.08,18.74-4.19l26.88-4.74a213.22,213.22,0,0,1,36.91-3.23,216.14,216.14,0,0,1,22.14,1.19l7-1.24a214,214,0,0,1,36.91-3.23A211.41,211.41,0,0,1,771.6-13.19L787.47-2.08a211,211,0,0,1,87.38,137.15l11.86,67.27a213.91,213.91,0,0,1-36.08,160l-1.4,2a217.25,217.25,0,0,1-9.5,110.6l-11.57,31.17c-32.3,86-109.13,139.46-200.53,139.46h-2.52a215.61,215.61,0,0,1-24.31-1.39c-1.44.16-2.89.31-4.33.45-36,25.79-81.33,40.52-124.91,40.52h-6.17c-2.05,0-4.17,0-6.28-.09s-4.22.09-6.28.09h-1.44c-3.1.23-6.26.4-9.4.5a218.46,218.46,0,0,1-47.72,5.44h-2Z" fill="#b1181e"/><path d="M392.24,678.63c-3.21,0-6.49-.08-9.75-.24-3.26.16-6.54.24-9.75.24h-2.12a204.71,204.71,0,0,1-48.36-6H317.6c-1.54,0-3.11,0-4.67,0s-3.13,0-4.7,0h-4.91a201.62,201.62,0,0,1-122.92-42,209.92,209.92,0,0,1-34-5.46c-1.87,0-3.73.08-5.55.08h-5.45A201.13,201.13,0,0,1-63.86,450.44a203.5,203.5,0,0,1-21-60.25l-16.59-94.09A198.73,198.73,0,0,1-68.31,146.65a204.61,204.61,0,0,1,30.43-34.24,205,205,0,0,1,6.56-21.89,200.49,200.49,0,0,1,8.13-25.38l3.81-9.63C11.51-22.54,85.58-73,169.33-73a201.52,201.52,0,0,1,74.47,14.2l55.13,21.82A208.14,208.14,0,0,1,368.52,9.26c6.4-.65,12.81-1,19.15-1,1.37-.28,2.75-.55,4.13-.8a207.67,207.67,0,0,1,65.65-24.1l26.88-4.74c6.27-1.1,12.66-1.91,19-2.42,6.18-1.71,12.47-3.13,18.73-4.24L549-32.81a200,200,0,0,1,34.73-3,203.6,203.6,0,0,1,22.56,1.31L615-36.09a201.66,201.66,0,0,1,34.73-3A199,199,0,0,1,764.44-3L780.31,8.14a198.6,198.6,0,0,1,82.24,129.09l11.86,67.27a201.29,201.29,0,0,1-34,150.63L836,361.44a203.82,203.82,0,0,1-8,109.23l-11.54,31.09C786,582.8,713.7,633.09,627.65,633.09h-2.52a204.09,204.09,0,0,1-24.3-1.47c-2.94.35-5.92.65-8.88.88-34.42,25.58-78.06,40.18-120.36,40.18h-6.17c-2.06,0-4.18,0-6.29-.1s-4.21.1-6.28.1h-1.91c-3.49.27-7,.45-10.55.55a205.7,205.7,0,0,1-46.11,5.4Z" fill="#ed1d24"/><path d="M392.24,666.13c-3.22,0-6.5-.08-9.75-.25-3.26.17-6.54.25-9.75.25h-2.12A192.11,192.11,0,0,1,324,660.24l-.77-.06H317.6c-1.54,0-3.11,0-4.67-.06s-3.13.06-4.7.06h-4.91A189,189,0,0,1,185.1,618.46a195.58,195.58,0,0,1-37.35-5.79c-2.31.08-4.63.13-6.9.13H135.4A188.64,188.64,0,0,1-51.74,446.54,190.59,190.59,0,0,1-72.53,388l-16.59-94.09A186.34,186.34,0,0,1-58.06,153.82a191,191,0,0,1,31.47-34.69,191.71,191.71,0,0,1,7.25-25,188.06,188.06,0,0,1,7.78-24.43l3.81-9.63c29-73.25,98.51-120.58,177.1-120.58a188.87,188.87,0,0,1,69.87,13.33l55.14,21.82A194.6,194.6,0,0,1,363.85,22.4a188,188,0,0,1,24.89-1.67H389c2.06-.43,4.12-.83,6.15-1.19l1.05-.19a194.15,194.15,0,0,1,63.45-23.7l26.87-4.74c6.27-1.1,12.67-1.89,19-2.36a191.1,191.1,0,0,1,18.72-4.3l26.88-4.74a187.92,187.92,0,0,1,32.56-2.85,192,192,0,0,1,22.92,1.44l10.58-1.87a188.44,188.44,0,0,1,32.56-2.85A186.56,186.56,0,0,1,757.29,7.28l15.87,11.11a186.21,186.21,0,0,1,77.1,121l11.86,67.27a188.68,188.68,0,0,1-31.84,141.21l-7.7,10.83a190.36,190.36,0,0,1-6.32,107.7l-11.51,31c-28.53,76-96.38,123.16-177.09,123.16h-2.52a190.4,190.4,0,0,1-24.3-1.57c-4.46.57-9,1-13.46,1.25-32.78,25.4-74.74,39.9-115.79,39.9h-6.17c-2.06,0-4.18,0-6.29-.1s-4.21.1-6.28.1h-2.39c-3.87.3-7.79.5-11.68.58a192.68,192.68,0,0,1-44.5,5.36h-2Z" fill="#b1181e"/><path d="M392.24,653.63c-3.22,0-6.5-.09-9.75-.27-3.25.18-6.53.27-9.75.27h-2.12a179.83,179.83,0,0,1-44.56-5.77l-2.31-.18H317.6c-1.54,0-3.11,0-4.67-.06s-3.13.06-4.7.06h-4.91a176.44,176.44,0,0,1-110.4-39q-1.54-1.25-3.09-2.55a180.27,180.27,0,0,1-40.28-5.94l-1.77-.06c-2.33.09-4.66.14-6.94.14h-5.45a176.14,176.14,0,0,1-175-157.67,177.88,177.88,0,0,1-20.63-56.78l-16.59-94.09A173.9,173.9,0,0,1-47.84,161a178.32,178.32,0,0,1,32.6-35.09A177.76,177.76,0,0,1-7.37,97.82,177.45,177.45,0,0,1,.05,74.33L3.86,64.7C31-3.74,95.9-48,169.33-48a176.49,176.49,0,0,1,65.26,12.45L289.73-13.7A180.76,180.76,0,0,1,359,35.77a177.22,177.22,0,0,1,29.69-2.54h1.56c2.35-.51,4.7-1,7-1.39l3.33-.59A181,181,0,0,1,461.8,8l26.88-4.74a179.17,179.17,0,0,1,19-2.29,178.6,178.6,0,0,1,18.71-4.37l26.88-4.74a175.78,175.78,0,0,1,30.39-2.66,179.66,179.66,0,0,1,23.22,1.58l12.45-2.2a176.3,176.3,0,0,1,30.39-2.66A174.14,174.14,0,0,1,750.12,17.52L766,28.63a173.77,173.77,0,0,1,72,113l11.86,67.27a176.12,176.12,0,0,1-29.72,131.8l-11,15.53a176.83,176.83,0,0,1-4.54,106L793,493.07c-26.64,71-90,115-165.37,115h-2.52a178.47,178.47,0,0,1-24.3-1.68A179.29,179.29,0,0,1,582.76,608c-31.11,25.28-71.36,39.7-111.18,39.7h-6.17c-2.05,0-4.17,0-6.29-.11s-4.22.11-6.28.11H450c-4.25.34-8.55.55-12.81.61a179.9,179.9,0,0,1-42.88,5.33h-2Z" fill="#ed1d24"/><path d="M392.24,641.13c-3.23,0-6.5-.1-9.75-.29-3.25.19-6.52.29-9.75.29h-2.12a166.54,166.54,0,0,1-42.53-5.67c-1.28-.08-2.58-.18-3.87-.29H317.6c-1.54,0-3.11,0-4.67-.07s-3.12.07-4.7.07h-4.91A163.94,163.94,0,0,1,200.77,599c-2.08-1.68-4.15-3.43-6.17-5.24a166.42,166.42,0,0,1-43.23-6c-1.19,0-2.39-.06-3.58-.11-2.32.1-4.65.15-6.94.15H135.4A163.64,163.64,0,0,1-27.42,438.7a164.7,164.7,0,0,1-20.5-55l-16.59-94.09A161.42,161.42,0,0,1-37.59,168.15,165.29,165.29,0,0,1-3.76,132.73a166.27,166.27,0,0,1,8.37-31.27,163.21,163.21,0,0,1,7.07-22.54l3.81-9.62C40.68,5.66,101.06-35.47,169.33-35.47A164,164,0,0,1,230-23.9L285.13-2.08A167.18,167.18,0,0,1,354,49.34l6.46-1.14a164.12,164.12,0,0,1,28.22-2.47l2.85,0c2.63-.6,5.27-1.13,7.89-1.59l5.7-1A168,168,0,0,1,464,20.28l26.88-4.74a163.35,163.35,0,0,1,19.06-2.21,164.2,164.2,0,0,1,18.69-4.45l26.88-4.74a162.65,162.65,0,0,1,28.22-2.47A166.88,166.88,0,0,1,607.14,3.4L621.53.86A162.48,162.48,0,0,1,742.94,27.77L758.8,38.88a161.38,161.38,0,0,1,66.82,104.88L837.48,211a163.57,163.57,0,0,1-27.59,122.39l-11.14,15.67q-1.66,2.36-3.44,4.66a163.39,163.39,0,0,1-2.56,104.15l-11.44,30.84C756.56,554.67,697.69,595.6,627.66,595.6h-2.52a164.77,164.77,0,0,1-24.29-1.81,165,165,0,0,1-22.74,1.8,165.34,165.34,0,0,1-106.52,39.59h-6.17c-2.05,0-4.16,0-6.29-.12-2.11.08-4.22.12-6.28.12h-3.4c-4.62.39-9.3.6-13.92.63a167,167,0,0,1-41.25,5.32Z" fill="#b1181e"/><path d="M392.24,628.63c-3.23,0-6.51-.11-9.75-.31-3.25.21-6.52.31-9.75.31h-2.12a153.65,153.65,0,0,1-40.5-5.57c-1.82-.1-3.64-.23-5.44-.39h-7.09c-1.53,0-3.1,0-4.68-.07s-3.13.07-4.69.07h-4.91a151.38,151.38,0,0,1-94.71-33.43c-3.14-2.53-6.21-5.22-9.16-8l-2.29,0H195a154.16,154.16,0,0,1-41.86-6c-1.79,0-3.6-.07-5.4-.15-2.32.11-4.65.16-6.94.16h-5.45A151.12,151.12,0,0,1-15.21,434.78a151.89,151.89,0,0,1-20.42-53.26l-16.59-94.09A149,149,0,0,1-27.37,175.34,152.29,152.29,0,0,1,7.79,139.7l.51-3.29a152.6,152.6,0,0,1,8.29-31.27A150.3,150.3,0,0,1,23.3,83.55l3.81-9.62c23.3-58.85,79.13-96.88,142.23-96.88A151.74,151.74,0,0,1,225.4-12.26L280.54,9.56A153.61,153.61,0,0,1,348.65,63l14-2.47a151.89,151.89,0,0,1,26.05-2.28c1.38,0,2.77,0,4.15.06,2.9-.69,5.84-1.3,8.75-1.81l8.16-1.44a154.62,154.62,0,0,1,56.36-22.45L493,27.84a149.45,149.45,0,0,1,19.08-2.11,150.83,150.83,0,0,1,18.68-4.54l26.88-4.74a150.5,150.5,0,0,1,26.05-2.28,153.78,153.78,0,0,1,23.6,1.9l16.41-2.89a151,151,0,0,1,26-2.28,149.28,149.28,0,0,1,86,27.12l15.86,11.11a149,149,0,0,1,61.68,96.81l11.86,67.27a151,151,0,0,1-25.47,113l-11.14,15.66c-2.29,3.23-4.73,6.38-7.28,9.42A150.09,150.09,0,0,1,781,453.64l-11.41,30.75c-22.87,60.9-77.25,98.7-141.93,98.7h-2.52a152.16,152.16,0,0,1-24.29-2,153.47,153.47,0,0,1-24.41,2h-3.08a152,152,0,0,1-101.77,39.59h-6.17c-2.06,0-4.18,0-6.29-.13-2.09.08-4.2.13-6.27.13h-3.92c-4.83.42-9.72.63-14.55.63h-.48a154.12,154.12,0,0,1-39.61,5.32Z" fill="#ed1d24"/><path d="M392.24,616.13c-3.24,0-6.52-.12-9.75-.34-3.24.23-6.51.34-9.75.34h-2.12a140.81,140.81,0,0,1-38.45-5.48c-2.34-.11-4.69-.28-7-.49-.86,0-1.71,0-2.56,0h-5c-1.54,0-3.12,0-4.68-.08s-3.13.08-4.69.08h-4.91a138.85,138.85,0,0,1-86.86-30.66,140.26,140.26,0,0,1-12.06-11c-2.41.13-4.84.19-7.24.19H195a140.6,140.6,0,0,1-40-6h-.29c-2.3,0-4.63-.06-6.94-.17-2.31.12-4.64.17-6.94.17h-5.45a138.6,138.6,0,0,1-138.3-132,138.87,138.87,0,0,1-20.4-51.46L-39.9,285.25A136.59,136.59,0,0,1-17.12,182.5a139,139,0,0,1,36.46-35.62l1.32-8.59a140.62,140.62,0,0,1,7.92-29.53,139.12,139.12,0,0,1,6.34-20.65l3.8-9.61c21.4-54.06,72.66-89,130.6-89A139.24,139.24,0,0,1,220.78-.67l55.15,21.82A139.85,139.85,0,0,1,342.79,76.7c.61-.12,1.21-.23,1.82-.33l20.22-3.56a138.67,138.67,0,0,1,23.88-2.09c1.72,0,3.47,0,5.21.1l.49,0c3.1-.77,6.25-1.44,9.38-2l10.73-1.89a141.6,141.6,0,0,1,53.78-22l26.88-4.74a137.94,137.94,0,0,1,19.09-2,137.91,137.91,0,0,1,18.66-4.65l26.88-4.74a137.46,137.46,0,0,1,23.88-2.09,141,141,0,0,1,23.67,2.08l18.51-3.26A137.48,137.48,0,0,1,728.6,48.25l15.86,11.1A136.55,136.55,0,0,1,801,148.09l11.86,67.27a138.35,138.35,0,0,1-23.35,103.56l-11.14,15.66a140.81,140.81,0,0,1-11.5,14.12,136.8,136.8,0,0,1,2.37,100.66L757.86,480c-21,55.87-70.87,90.55-130.21,90.55h-2.52A138.71,138.71,0,0,1,601,568.46l-.36,0a140.92,140.92,0,0,1-24.18,2.1h-2.52c-1.8,0-3.61,0-5.42-.11a138.67,138.67,0,0,1-96.91,39.69h-6.17c-2.08,0-4.19,0-6.3-.14-2.1.09-4.21.14-6.27.14h-4.44c-4.66.42-9.37.64-14,.64-.7,0-1.41,0-2.12,0a141.2,141.2,0,0,1-38,5.33h-2Z" fill="#b1181e"/><path d="M392.24,603.63c-3.24,0-6.51-.13-9.76-.38-3.24.25-6.51.38-9.75.38h-2.12a128.37,128.37,0,0,1-36.4-5.4c-2.87-.1-5.75-.3-8.6-.58-1,0-2,0-3,0h-5c-1.54,0-3.11,0-4.68-.09s-3.14.09-4.69.09h-4.91a125.85,125.85,0,0,1-93.51-41.62c-1-.05-1.93-.12-2.9-.19-3.24.25-6.52.38-9.75.38H195a127.81,127.81,0,0,1-38.15-6h-2.17c-2.3,0-4.63-.06-6.94-.19-2.31.13-4.64.19-6.94.19h-5.45A126.09,126.09,0,0,1,9.46,426.81,126.15,126.15,0,0,1-11,377.16l-16.59-94.09A124.2,124.2,0,0,1-6.88,189.66a125.63,125.63,0,0,1,37.71-35.29L33,140.19a128.05,128.05,0,0,1,7.56-27.78,125,125,0,0,1,6-19.7l3.8-9.61A127.7,127.7,0,0,1,216.18,11l55.15,21.83A126.6,126.6,0,0,1,336.59,90.9l.22,0c3.3-.86,6.65-1.6,10-2.19L367,85.13a126.36,126.36,0,0,1,21.71-1.9c1.87,0,3.76,0,5.65.13.74-.09,1.49-.17,2.23-.24,3.1-.79,6.25-1.48,9.37-2l10.78-1.9,2.6-.43A128.19,128.19,0,0,1,470.48,57.2l26.88-4.74a125.69,125.69,0,0,1,19.12-1.87,126.16,126.16,0,0,1,18.64-4.78L562,41.07a125.32,125.32,0,0,1,21.71-1.9,128.2,128.2,0,0,1,23.64,2.28l20.72-3.65a125,125,0,0,1,93.39,20.7l15.86,11.1a124.16,124.16,0,0,1,51.4,80.68l11.86,67.27a125.78,125.78,0,0,1-21.23,94.14l-11.14,15.66a126.16,126.16,0,0,1-16.29,18.71,125.16,125.16,0,0,1,5.6,99.05l-11.35,30.58c-19.09,50.84-64.49,82.4-118.49,82.4h-2.52a126.52,126.52,0,0,1-23.38-2.18c-.84.05-1.69.1-2.52.13a128,128,0,0,1-22.8,2.05h-2.52c-3.44,0-6.91-.15-10.38-.43a125.4,125.4,0,0,1-91.95,40h-6.17c-2.07,0-4.19,0-6.3-.15-2.1.1-4.21.15-6.27.15h-4.94c-4.49.43-9,.65-13.53.65-1.25,0-2.51,0-3.78-.05a128.5,128.5,0,0,1-36.32,5.37h-2.06Z" fill="#ed1d24"/><path d="M392.24,591.13c-3.24,0-6.51-.14-9.76-.42-3.24.28-6.51.42-9.75.42h-2.12a115.29,115.29,0,0,1-34.34-5.35c-3.4-.08-6.82-.3-10.2-.65-1.17,0-2.34,0-3.49,0h-5c-1.55,0-3.12,0-4.68-.1s-3.15.1-4.69.1H303.3a113.27,113.27,0,0,1-87.62-41.44c-2.92,0-5.87-.16-8.79-.41-3.24.28-6.52.42-9.75.42H195a115,115,0,0,1-36.17-6H154.7c-2.3,0-4.63-.07-6.94-.21-2.31.14-4.64.21-6.94.21h-5.45A113.58,113.58,0,0,1,21.92,424.35v-1.61A112.93,112.93,0,0,1,1.29,375L-15.3,280.9A112.57,112.57,0,0,1,42.24,162.24l3.11-20.14a115.82,115.82,0,0,1,7.21-26,112.37,112.37,0,0,1,5.59-18.76L62,87.7A115.22,115.22,0,0,1,211.56,22.58l55.15,21.83a114.33,114.33,0,0,1,62.49,59.81c0,.08.07.17.11.25,3.16-.54,6.41-1,9.66-1.23,3.29-.89,6.63-1.64,10-2.23l20.21-3.56a114,114,0,0,1,19.54-1.71c2,0,4.05.06,6.09.17,1.32-.17,2.65-.31,4-.43,3.09-.82,6.24-1.52,9.37-2.07l10.78-1.9c1.75-.31,3.51-.57,5.27-.8a115.08,115.08,0,0,1,48.46-21.19l26.88-4.74a113.21,113.21,0,0,1,19.14-1.71,114,114,0,0,1,18.61-5l26.88-4.74a113.09,113.09,0,0,1,19.54-1.71,114.78,114.78,0,0,1,23.48,2.5l23-4.06a113.52,113.52,0,0,1,19.54-1.71,111.94,111.94,0,0,1,64.52,20.34l15.86,11.1a111.71,111.71,0,0,1,46.26,72.61l11.86,67.27a113.25,113.25,0,0,1-19.1,84.73L758,320.11a112.44,112.44,0,0,1-22,23.13,113.38,113.38,0,0,1,9.69,97.61l-11.32,30.5c-17.2,45.82-58.11,74.25-106.78,74.25h-2.52a114.18,114.18,0,0,1-22.59-2.26c-1.57.12-3.13.21-4.69.26a115.44,115.44,0,0,1-21.41,2H573.9a112.79,112.79,0,0,1-15.45-1.07,113.49,113.49,0,0,1-86.87,40.65h-6.17c-2.08,0-4.19-.06-6.3-.17-2.1.11-4.2.17-6.27.17h-3.11l-2.33,0a129.1,129.1,0,0,1-13,.66c-1.8,0-3.62,0-5.45-.12a115.32,115.32,0,0,1-34.64,5.43h-2Z" fill="#b1181e"/><path d="M392.24,578.63c-3.25,0-6.52-.16-9.76-.47-3.24.31-6.51.47-9.75.47h-2.12a102.12,102.12,0,0,1-32.26-5.32,111.06,111.06,0,0,1-11.81-.71c-1.32,0-2.65.08-4,.08h-5c-1.53,0-3.11,0-4.68-.11s-3.15.11-4.69.11h-4.91a100.85,100.85,0,0,1-81.53-41.48c-1,0-2.07,0-3.09,0h-2c-3.24,0-6.52-.16-9.76-.47-3.24.31-6.51.47-9.75.47H195a102.17,102.17,0,0,1-34.08-6h-6.24c-2.3,0-4.63-.08-6.94-.24-2.31.16-4.64.24-6.94.24h-5.45A101.06,101.06,0,0,1,34.43,424.35v-5.89a100,100,0,0,1-20.82-45.64L-3,278.73a100.07,100.07,0,0,1,56.6-108.2L57.71,144a102.54,102.54,0,0,1,6.88-24.28,100.45,100.45,0,0,1,5.19-17.82l3.8-9.6A102.72,102.72,0,0,1,207,34.2L262.12,56a101.89,101.89,0,0,1,55.69,53.31c1.35,3,2.56,6.08,3.61,9.21l9.58-1.69a99.61,99.61,0,0,1,10.16-1.26,101.23,101.23,0,0,1,10-2.29l20.2-3.56a100.82,100.82,0,0,1,17.37-1.52c2.16,0,4.35.07,6.53.21,1.89-.26,3.8-.46,5.7-.61,3.09-.86,6.23-1.57,9.36-2.12l10.78-1.9c2.65-.46,5.33-.83,8-1.08A101.8,101.8,0,0,1,474.8,81.82l26.88-4.74a100.48,100.48,0,0,1,17.37-1.52l1.81,0a101.14,101.14,0,0,1,18.58-5.15l26.88-4.74a100,100,0,0,1,17.37-1.52,102,102,0,0,1,23.19,2.75l25.5-4.5A100,100,0,0,1,707.1,79L723,90.08a99.29,99.29,0,0,1,41.12,64.54l11.86,67.27a100.7,100.7,0,0,1-17,75.32l-11.14,15.66a99.9,99.9,0,0,1-29.09,27.26c1.08,1.39,2.13,2.8,3.15,4.25A100.81,100.81,0,0,1,734,436.59L722.7,467c-15.32,40.79-51.73,66.1-95.06,66.1h-2.52a101.66,101.66,0,0,1-21.8-2.37c-2.29.21-4.58.35-6.87.4a102.59,102.59,0,0,1-20,2H573.9a101.07,101.07,0,0,1-20.71-2.16,101,101,0,0,1-81.62,41.75H465.4c-2.08,0-4.2-.06-6.3-.19-2.09.13-4.2.19-6.27.19h-3.11c-.94,0-1.88,0-2.82,0a116.93,116.93,0,0,1-12.54.67c-2.37,0-4.76-.07-7.15-.22a102.37,102.37,0,0,1-32.95,5.53Z" fill="#ed1d24"/><path d="M392.24,566.13a91,91,0,0,1-9.76-.53,90.72,90.72,0,0,1-9.75.53h-2.12a89.34,89.34,0,0,1-30.16-5.32h-1.32a100.37,100.37,0,0,1-12.13-.74c-1.48.07-2.95.11-4.41.11h-5c-1.54,0-3.11,0-4.68-.12-1.57.08-3.14.12-4.69.12h-4.91a88.43,88.43,0,0,1-75.2-41.94,87.58,87.58,0,0,1-9.42.51h-2a91,91,0,0,1-9.76-.53,90.72,90.72,0,0,1-9.75.53H195a89.43,89.43,0,0,1-32-6c-1,0-2,0-3,0h-5.36c-2.3,0-4.63-.09-6.94-.27-2.31.18-4.64.27-6.94.27h-5.45a88.55,88.55,0,0,1-88.45-88.45V413.88a88.39,88.39,0,0,1-21-43.21L9.34,276.56a87.54,87.54,0,0,1,55.58-97.19c1.21-7.88,5.16-33.46,5.16-33.46a90.11,90.11,0,0,1,6.56-22.53,87.78,87.78,0,0,1,4.78-16.88l3.8-9.6A90.23,90.23,0,0,1,202.38,45.82l55.16,21.83a89.44,89.44,0,0,1,48.88,46.8,91.49,91.49,0,0,1,5.28,15.26q4.16.69,8.21,1.79l13.27-2.34A87.92,87.92,0,0,1,343.35,128a90.08,90.08,0,0,1,10-2.37l20.2-3.56a88.6,88.6,0,0,1,15.2-1.33c2.31,0,4.64.09,7,.28,2.47-.37,5-.64,7.44-.81a86.74,86.74,0,0,1,9.35-2.18l10.78-1.9a86.87,86.87,0,0,1,9.51-1.14l1.76-.5A88.59,88.59,0,0,1,477,94.11l26.88-4.74A88.25,88.25,0,0,1,519.06,88q2,0,4,.09a88.49,88.49,0,0,1,18.54-5.42L568.49,78a87.9,87.9,0,0,1,15.2-1.33,89,89,0,0,1,22.74,3l28.13-5a88.08,88.08,0,0,1,15.2-1.33,87.07,87.07,0,0,1,50.18,15.82l15.85,11.1a86.9,86.9,0,0,1,36,56.47l11.86,67.27A88.06,88.06,0,0,1,748.77,290l-11.13,15.66a87,87,0,0,1-39.43,30.8,88.15,88.15,0,0,1,24,95.9L711,462.65c-13.43,35.76-45.36,58-83.34,58h-2.52a88.57,88.57,0,0,1-20.28-2.35l-1.19-.12c-2.85.31-5.72.49-8.59.53a90.19,90.19,0,0,1-18.64,2h-2.52a88.84,88.84,0,0,1-26.26-4,88.22,88.22,0,0,1-76.06,43.6h-6.17c-2.09,0-4.2-.07-6.3-.22-2.09.14-4.19.22-6.26.22h-3.11c-1.09,0-2.2,0-3.31-.06a105.56,105.56,0,0,1-12.05.69c-2.95,0-5.92-.13-8.88-.38a89.58,89.58,0,0,1-31.22,5.69h-2.05Z" fill="#b1181e"/><path d="M392.24,553.63a77.63,77.63,0,0,1-9.76-.62,77.47,77.47,0,0,1-9.75.62h-2.12a76.54,76.54,0,0,1-28-5.38c-1.15,0-2.31.07-3.45.07a86.05,86.05,0,0,1-11.68-.79c-1.63.1-3.25.16-4.86.16h-5c-1.54,0-3.11-.05-4.68-.14-1.56.1-3.14.14-4.69.14H303.3a76,76,0,0,1-67.66-41.49c-1.37-.32-2.73-.68-4.07-1.07a75.68,75.68,0,0,1-12.9,1.12h-2a77.63,77.63,0,0,1-9.76-.62,77.59,77.59,0,0,1-9.75.62H195a76.51,76.51,0,0,1-29.83-6.12c-1.71.12-3.43.17-5.13.17h-5.36c-2.3,0-4.63-.11-6.94-.32-2.31.21-4.64.32-6.94.32h-5.45a76,76,0,0,1-76-75.95V408.87a75.17,75.17,0,0,1-21.2-40.39L21.62,274.39a75,75,0,0,1,54.43-85.47c.73-4.77,5-32.19,6.34-41.1a77.66,77.66,0,0,1,6.26-20.77A75.41,75.41,0,0,1,93,111.11l3.8-9.6A77.74,77.74,0,0,1,197.74,57.45L252.9,79.28A77,77,0,0,1,295,119.58a78.68,78.68,0,0,1,6.16,21.54,74.5,74.5,0,0,1,18.05,3.21l16.13-2.84a75.06,75.06,0,0,1,10.19-1.09,75.29,75.29,0,0,1,9.95-2.46l20.2-3.56a75.38,75.38,0,0,1,13-1.14,73.68,73.68,0,0,1,7.41.37,76.83,76.83,0,0,1,9.19-1,77,77,0,0,1,9.34-2.27l10.78-1.9a76.32,76.32,0,0,1,9.53-1.06c1.86-.58,3.75-1.09,5.65-1.52a75.54,75.54,0,0,1,38.56-19.41L506,101.71a75.2,75.2,0,0,1,13-1.14c2.08,0,4.18.09,6.26.26a74.84,74.84,0,0,1,18.47-5.78l26.88-4.74a74.78,74.78,0,0,1,13-1.14,75.85,75.85,0,0,1,22.07,3.33l31-5.46a75,75,0,0,1,56,12.42l15.85,11.1A74.46,74.46,0,0,1,739.46,159l11.86,67.27a75.47,75.47,0,0,1-12.74,56.49l-11.13,15.66a74.58,74.58,0,0,1-48.1,30.39l-13.77,2.43a75.52,75.52,0,0,1,44.93,96.86L699.28,458.3c-11.54,30.74-39,49.8-71.62,49.8h-2.52a76.08,76.08,0,0,1-18.24-2.21c-1.08-.09-2.16-.21-3.23-.34a77.35,77.35,0,0,1-9.75.62h-.23a77.25,77.25,0,0,1-17.25,1.94h-2.52a76.26,76.26,0,0,1-32.39-7.26,74.74,74.74,0,0,1-4.15,8.54,75.72,75.72,0,0,1-65.8,38.29h-6.17c-2.09,0-4.21-.08-6.31-.25-2.08.17-4.18.25-6.26.25h-3.11c-1.26,0-2.53,0-3.8-.09a91.92,91.92,0,0,1-22.22.11,76.59,76.59,0,0,1-29.44,5.93Z" fill="#ed1d24"/><path d="M392.24,541.13a65,65,0,0,1-9.76-.74,64.72,64.72,0,0,1-9.75.74h-2.12a63.55,63.55,0,0,1-25.86-5.53c-1.88.14-3.76.21-5.63.21a75.34,75.34,0,0,1-11.24-.85c-1.77.15-3.54.22-5.3.22h-5c-1.55,0-3.12-.06-4.68-.17-1.56.12-3.14.17-4.69.17H303.3a63.54,63.54,0,0,1-59-40.08,63.14,63.14,0,0,1-12-2.86,63.45,63.45,0,0,1-13.63,1.5h-2a65,65,0,0,1-9.76-.74,64.72,64.72,0,0,1-9.75.74H195a63.77,63.77,0,0,1-27.1-6.09l-1.29-.19a62.66,62.66,0,0,1-6.56.34H154.7a64.7,64.7,0,0,1-6.94-.38,64.55,64.55,0,0,1-6.94.38h-5.45a63.52,63.52,0,0,1-63.45-63.45v-17.5c-.28-1.36-.51-2.72-.7-4.09a62,62,0,0,1-20.69-36.45L33.94,272.22a62.49,62.49,0,0,1,50.69-72.4l3-.54a67.34,67.34,0,0,1,.65-7.87c0-.27,6.43-41.69,6.43-41.69a65.06,65.06,0,0,1,6-19,62.43,62.43,0,0,1,3.87-15l3.8-9.6A65.22,65.22,0,0,1,169.3,64.52a64.43,64.43,0,0,1,23.84,4.55L248.3,90.9a64.58,64.58,0,0,1,35.28,33.8A65.56,65.56,0,0,1,289.33,154a63.29,63.29,0,0,1,7.76-.49,62.33,62.33,0,0,1,21.17,3.68l19.24-3.39a63.36,63.36,0,0,1,10.21-.95,62.5,62.5,0,0,1,9.93-2.6l20.19-3.56a63.15,63.15,0,0,1,10.86-1,64,64,0,0,1,7.81.49l1.43-.25a64,64,0,0,1,9.55-.94,63.38,63.38,0,0,1,9.32-2.39l10.78-1.9a64,64,0,0,1,9.55-.94,63.38,63.38,0,0,1,9.32-2.39l.3,0a62.44,62.44,0,0,1,34.57-18.61L508.2,114a63,63,0,0,1,10.85-1,62.26,62.26,0,0,1,8.53.58A62.13,62.13,0,0,1,546,107.35l26.88-4.74a62.6,62.6,0,0,1,10.85-1,63.29,63.29,0,0,1,21.14,3.68l34.06-6a62.48,62.48,0,0,1,46.69,10.35l15.85,11.1a62.09,62.09,0,0,1,25.7,40.34L739,228.39a62.91,62.91,0,0,1-10.62,47.07l-11.13,15.65a62.15,62.15,0,0,1-40.09,25.33l-27.35,4.82c0,.63,0,1.25,0,1.88a62.88,62.88,0,0,1-2.82,16.34,63,63,0,0,1,51.79,84.28l-11.19,30.16c-9.65,25.71-32.6,41.65-59.9,41.65h-2.52a63.49,63.49,0,0,1-16.2-2.09c-1.76-.12-3.53-.32-5.27-.59a64.72,64.72,0,0,1-9.75.74h-1.71a64.56,64.56,0,0,1-15.77,1.94h-2.52a63.38,63.38,0,0,1-30.69-7.93l-1.45-.07c-1.26.07-2.52.11-3.76.11h-5.28a63,63,0,0,1-61.14,47.47H465.4c-2.1,0-4.22-.1-6.31-.3q-3.12.3-6.26.3h-3.11c-1.41,0-2.84,0-4.26-.14a80.56,80.56,0,0,1-11.1.78,79.12,79.12,0,0,1-12.5-1,63.6,63.6,0,0,1-27.6,6.31h-2Z" fill="#b1181e"/><path d="M392.24,528.63a51.32,51.32,0,0,1-9.76-.93,51.14,51.14,0,0,1-9.75.93h-2.12A50.84,50.84,0,0,1,347,522.81a62.92,62.92,0,0,1-7.88.5,61.06,61.06,0,0,1-10.82-1,52.08,52.08,0,0,1-5.72.32h-5c-1.55,0-3.12-.07-4.68-.21-1.56.14-3.13.21-4.69.21H303.3a51,51,0,0,1-49.65-39.5h-.74a51.15,51.15,0,0,1-19.86-4,51.41,51.41,0,0,1-14.38,2.09h-2a51.32,51.32,0,0,1-9.76-.93,51.14,51.14,0,0,1-9.75.93H195a51,51,0,0,1-23.45-5.73c-1.55-.17-3.1-.4-4.63-.68a51.2,51.2,0,0,1-6.88.47h-5.36a52.09,52.09,0,0,1-6.94-.47,52,52,0,0,1-6.94.47h-5.45a51,51,0,0,1-51-50.95V405.51a51,51,0,0,1-1.25-9.26,49.63,49.63,0,0,1-20.33-32.11L46.24,270.05a50,50,0,0,1,40.55-57.92l14.13-2.49a52,52,0,0,1-.23-16.43c0-.29,4.92-31.89,6.41-41.57a52.66,52.66,0,0,1,5.83-17.24,50,50,0,0,1,3.32-14.09l3.8-9.6A52.79,52.79,0,0,1,169.29,77a51.93,51.93,0,0,1,19.24,3.67l55.17,21.83c26.35,10.43,39.54,40.08,30.12,66.81l14.57-2.57a51,51,0,0,1,8.7-.76,50.11,50.11,0,0,1,20,4.14c.79-.18,1.57-.34,2.37-.48l20.25-3.57a50.31,50.31,0,0,1,8.69-.76q.78,0,1.56,0a50.16,50.16,0,0,1,9.89-2.82L380,159a50.9,50.9,0,0,1,8.68-.76,50,50,0,0,1,8,.65l3.39-.6a50.75,50.75,0,0,1,8.69-.76h.89A50.12,50.12,0,0,1,419,155l10.78-1.9a50.93,50.93,0,0,1,8.69-.76h.89a49.91,49.91,0,0,1,9.29-2.57l4.64-.82a49.6,49.6,0,0,1,30.23-17.84l26.88-4.74a50.24,50.24,0,0,1,19.53.42,50.1,50.1,0,0,1,18.23-7.08L575,114.94a50.55,50.55,0,0,1,8.68-.76,50,50,0,0,1,19.85,4.11l37.53-6.62a50.55,50.55,0,0,1,8.68-.76,49.78,49.78,0,0,1,28.67,9l15.85,11.1a49.67,49.67,0,0,1,20.56,32.27l11.86,67.27a50.33,50.33,0,0,1-8.49,37.66L707.05,283.9A49.72,49.72,0,0,1,675,304.16L636.34,311a50,50,0,0,1-9.73,40.65c1.34.06,2.68.17,4,.32a52.7,52.7,0,0,1,6.29-.37h2.57a50.54,50.54,0,0,1,47.5,68L675.81,449.6c-7.77,20.68-26.22,33.5-48.18,33.5h-2.52a51.13,51.13,0,0,1-14.15-2,52.75,52.75,0,0,1-7.33-.87,51.14,51.14,0,0,1-9.75.93h-3.29a51.93,51.93,0,0,1-14.19,1.95h-2.52a51.34,51.34,0,0,1-27.21-7.88H545.5c-1.25,0-2.5-.05-3.76-.14-1.25.09-2.52.14-3.77.14h-5c-1.27,0-2.56-.05-3.83-.14-1.28.1-2.56.14-3.83.14h-3.3a50.55,50.55,0,0,1-50.51,47.47h-6.17a53.33,53.33,0,0,1-6.32-.37,52.16,52.16,0,0,1-6.25.37h-3.11c-1.57,0-3.14-.07-4.71-.22a67.53,67.53,0,0,1-10.66.85,65.93,65.93,0,0,1-14.05-1.5l-.79.13a50.92,50.92,0,0,1-25.25,6.68h-2Z" fill="#ed1d24"/><path d="M392.24,516.13a38.79,38.79,0,0,1-9.76-1.23,38.72,38.72,0,0,1-9.75,1.23h-2.12a38.58,38.58,0,0,1-20.51-5.95h-1.65l-1.29,0a50.21,50.21,0,0,1-8,.65,49.16,49.16,0,0,1-10.44-1.12,39,39,0,0,1-6.1.49h-5a40.68,40.68,0,0,1-4.68-.28,38.59,38.59,0,0,1-4.69.28H303.3a38.5,38.5,0,0,1-38.45-38.45V470a39.59,39.59,0,0,1-7.17.66H252.9a38.34,38.34,0,0,1-19.08-5.06,38.66,38.66,0,0,1-15.16,3.12h-2a38.79,38.79,0,0,1-9.76-1.23,38.72,38.72,0,0,1-9.75,1.23H195a38.69,38.69,0,0,1-19.7-5.44,54.64,54.64,0,0,1-8.11-1.17,38.91,38.91,0,0,1-7.15.67h-5.36a38.45,38.45,0,0,1-6.94-.63,38.45,38.45,0,0,1-6.94.63h-5.45A38.5,38.5,0,0,1,96.9,424.35V404a38,38,0,0,1-1-14.67,36.36,36.36,0,0,1-5.38-3.15A37.26,37.26,0,0,1,75.13,362L58.54,267.88A37.5,37.5,0,0,1,89,224.44l20.15-3.55a37.9,37.9,0,0,1,6.53-.57h.27c.53-.2,1.07-.39,1.61-.56A40.07,40.07,0,0,1,113.05,195c0-.21,6.39-41.45,6.39-41.45a40.38,40.38,0,0,1,5.8-15.44,37.61,37.61,0,0,1,2.62-13.2l3.8-9.6a40.36,40.36,0,0,1,37.62-25.78,39.64,39.64,0,0,1,14.64,2.79l55.17,21.83c20.58,8.15,30.61,31.71,22.37,52.52l-3.79,9.59c-.11.27-.22.55-.34.83l-1.8,11.65a37.38,37.38,0,0,1,14.86-6.1l20.15-3.55a37.82,37.82,0,0,1,6.53-.57,37.32,37.32,0,0,1,18.7,5,38,38,0,0,1,5.8-1.5l20.25-3.57a37,37,0,0,1,10.31-.37,37.21,37.21,0,0,1,9.83-3.18l20.19-3.56a37.49,37.49,0,0,1,14.45.28l5.63-1a37.53,37.53,0,0,1,6.52-.57c1,0,2.08,0,3.12.13a37.81,37.81,0,0,1,9.23-2.89l10.78-1.9a37.7,37.7,0,0,1,6.52-.57c1,0,2.08,0,3.12.13a37.54,37.54,0,0,1,9.23-2.89l9.58-1.69,1.09-1.55a37.26,37.26,0,0,1,24.2-15.42l26.88-4.74a37.55,37.55,0,0,1,19.78,1.85,37.31,37.31,0,0,1,18-8.51l26.88-4.74a37.52,37.52,0,0,1,24.57,4.06l1.16-.22L643.19,124a37.5,37.5,0,0,1,28,6.21l15.85,11.1a37.26,37.26,0,0,1,15.42,24.2l11.86,67.27A37.76,37.76,0,0,1,708,261l-11.13,15.65a37.3,37.3,0,0,1-24.05,15.2L632.46,299a37.5,37.5,0,0,1-6.51.57,38.16,38.16,0,0,1-8.35-.93,37.52,37.52,0,0,1-20.05,58.16l-4.78,1.36-.2,5c0,.37,0,.74-.06,1.11,1-.08,2-.12,3-.12h16.8c1,0,1.94,0,2.91.11s1.94-.11,2.91-.11h6.13a41,41,0,0,1,6.38.49,40.92,40.92,0,0,1,6.28-.49h2.57a38,38,0,0,1,35.75,51.19l-11.13,30c-5.88,15.65-19.84,25.35-36.46,25.35h-2.52A38.19,38.19,0,0,1,613,468.67a38.75,38.75,0,0,1-9.39-1.23,38.72,38.72,0,0,1-9.75,1.23h-2.12c-.92,0-1.84,0-2.77-.1a39.5,39.5,0,0,1-12.6,2h-2.52a38.57,38.57,0,0,1-23.32-7.88H545.5c-1.25,0-2.51-.06-3.76-.18-1.25.12-2.51.18-3.77.18h-5a37.78,37.78,0,0,1-3.83-.19,37.78,37.78,0,0,1-3.83.19h-4.91a38.14,38.14,0,0,1-7-.64,46.2,46.2,0,0,1-5,.84,38,38,0,0,1-36.91,47.27h-6.17a40.11,40.11,0,0,1-6.32-.49,40.5,40.5,0,0,1-6.24.49h-3.11a37.92,37.92,0,0,1-5.11-.34,54.32,54.32,0,0,1-24.05-.82,45.23,45.23,0,0,1-5.31.88,38.61,38.61,0,0,1-21,6.22h-2Zm-50.88-152a37.72,37.72,0,0,1,10.09,1.37,38.34,38.34,0,0,1,10.49-1.45h16.8a38.67,38.67,0,0,1,7.37.71,54.49,54.49,0,0,1,18.6-.94,38.12,38.12,0,0,1,22.91-7.65h19.64A38.45,38.45,0,0,1,471,364.31c.77.14,1.54.3,2.3.47,1.21-.24,2.44-.42,3.67-.54-.25-.36-.5-.72-.73-1.08a37.46,37.46,0,0,1-4.41-31.65l-10.32,1.82a38.56,38.56,0,0,1-5.47.56,37.69,37.69,0,0,1-5.32,1.35L429.27,339a37.46,37.46,0,0,1-22.06-2.81,37.24,37.24,0,0,1-15.59,6.62l-20.15,3.55a37.5,37.5,0,0,1-24.25-3.89l-47.14,8.31c-1.12.2-2.26.34-3.4.44-1.1.3-2.23.55-3.35.75l-47.11,8.31a37.89,37.89,0,0,1-14.62-.3,37.56,37.56,0,0,1-9.91,3.21l-5.28.93a38.58,38.58,0,0,1,6.52.7,54.46,54.46,0,0,1,22.75-.27,38.07,38.07,0,0,1,5.44-.39h6.17l1.29,0a50.21,50.21,0,0,1,8-.65,48.28,48.28,0,0,1,13.31,1.85,53.16,53.16,0,0,1,14.17-1.89,54.48,54.48,0,0,1,10.4,1,38.31,38.31,0,0,1,5.36-.37h4a38.86,38.86,0,0,1,4.82.3,38.1,38.1,0,0,1,4.78-.3h4.91a38.1,38.1,0,0,1,4.78.3,38.74,38.74,0,0,1,4.82-.3h3.38Z" fill="#b1181e"/><path d="M702.08,234.91l-11.86-67.27a24.79,24.79,0,0,0-10.28-16.13l-15.85-11.1a24.85,24.85,0,0,0-14.34-4.52,25.27,25.27,0,0,0-4.34.38l-40.33,7.11a25,25,0,0,0-5.27,1.54L598,143.68a24.85,24.85,0,0,0-14.34-4.52,25.27,25.27,0,0,0-4.34.38l-26.88,4.74a24.79,24.79,0,0,0-16.13,10.28l-1.21,1.73-1.73-1.21a24.85,24.85,0,0,0-14.34-4.52,25.27,25.27,0,0,0-4.34.38l-26.87,4.74A24.79,24.79,0,0,0,471.73,166l-4.06,5.79L453,174.34a24.93,24.93,0,0,0-9.11,3.54,25.12,25.12,0,0,0-5.41-.59,25.48,25.48,0,0,0-4.35.38l-10.78,1.9a24.93,24.93,0,0,0-9.11,3.54,25.12,25.12,0,0,0-5.41-.59,25.48,25.48,0,0,0-4.35.38l-8.31,1.46a25,25,0,0,0-7.44-1.13,25.36,25.36,0,0,0-4.34.38l-20.18,3.56a24.93,24.93,0,0,0-9.7,3.94,24.72,24.72,0,0,0-10.44-.39l-20.25,3.57a25.06,25.06,0,0,0-9.34,3.69,24.93,24.93,0,0,0-17.33-7,25.68,25.68,0,0,0-4.36.38l-20.15,3.55A24.79,24.79,0,0,0,257,204.56a25,25,0,0,0-13.68-4.07c-.72,0-1.45,0-2.17.09l4.18-27.08q.44-.92.81-1.86l3.8-9.59c5.7-14.41-1.18-30.69-15.35-36.3l-55.17-21.83a27.14,27.14,0,0,0-10-1.91,27.93,27.93,0,0,0-26,17.88l-3.8,9.59A25,25,0,0,0,138,141.84a27.89,27.89,0,0,0-6.14,13.58l-6.38,41.34a27.88,27.88,0,0,0,19.3,30.5l-20,3.52a24.8,24.8,0,0,0-6.62,2.15c-.83-.08-1.67-.13-2.52-.13a25.68,25.68,0,0,0-4.36.38l-20.15,3.55a25,25,0,0,0-20.28,29l16.59,94.09a25,25,0,0,0,24.62,20.66h.13c-.41.63-.8,1.28-1.15,1.95a25.43,25.43,0,0,0-1.65,19.79v22.15a26,26,0,0,0,25.95,25.95h5.45a26.16,26.16,0,0,0,6.94-.94,26.1,26.1,0,0,0,6.94.94h5.36a26,26,0,0,0,7.3-1,40.65,40.65,0,0,0,11.67,1.67h.26a26,26,0,0,0,15.74,5.32h2.12a25.9,25.9,0,0,0,9.74-1.87,26,26,0,0,0,9.76,1.87h2a26,26,0,0,0,15.77-5.32h.45a26.15,26.15,0,0,0,18,7.25h4.78a25.92,25.92,0,0,0,18.41-7.6,26,26,0,0,0,1.25,6.89v14.27a26,26,0,0,0,25.95,26h4.91a26.22,26.22,0,0,0,4.69-.42,26.11,26.11,0,0,0,4.68.42h5a26,26,0,0,0,6.4-.8,36.1,36.1,0,0,0,10.13,1.44,37.46,37.46,0,0,0,7.26-.71c.69.05,1.38.08,2.07.08h5.65a26,26,0,0,0,16.52,5.95h2.12a25.9,25.9,0,0,0,9.74-1.87,26,26,0,0,0,9.76,1.87h2a26.05,26.05,0,0,0,16.58-5.95,34.8,34.8,0,0,0,9.95-1.66,41.49,41.49,0,0,0,23.53,1.1,25.68,25.68,0,0,0,5.41.57h3.11a27.42,27.42,0,0,0,6.23-.71,28.13,28.13,0,0,0,6.34.71h6.17A25.47,25.47,0,0,0,494.07,460a25.5,25.5,0,0,0,2.26-9.81h2.83a25.72,25.72,0,0,0,4.89.46c.65,0,1.4,0,2.05-.08l.4,0a33.57,33.57,0,0,0,6.8-1.35,26,26,0,0,0,7.2,1h4.91a25.68,25.68,0,0,0,3.83-.28,25.68,25.68,0,0,0,3.83.28H538a26.21,26.21,0,0,0,3.76-.27,26.21,26.21,0,0,0,3.76.27h9.76a25.84,25.84,0,0,0,18.62,7.88h2.52a26.91,26.91,0,0,0,11-2.31,25.73,25.73,0,0,0,4.38.37h2.12a25.9,25.9,0,0,0,9.74-1.87,26,26,0,0,0,9.76,1.87h1.85a25.87,25.87,0,0,0,9.86,1.94h2.52a25.9,25.9,0,0,0,24.74-17.2l11.1-29.9a25.53,25.53,0,0,0-24-34.43h-2.57a27.56,27.56,0,0,0-6.26.71,28.73,28.73,0,0,0-6.4-.71h-6.13a26.54,26.54,0,0,1-5.82,0H595.5a25.85,25.85,0,0,0-3.63.26,25.85,25.85,0,0,0-3.63-.26h-2.57a27.56,27.56,0,0,0-6.26.71,27.47,27.47,0,0,0-4.39-.63,25,25,0,0,0,5.06-14.08l.58-14,13.47-3.84A25,25,0,0,0,596,297.25l-13-4.83.25-5.66L604.61,283a25.12,25.12,0,0,0,5.52-1.64c.48.39,1,.77,1.49,1.13A24.85,24.85,0,0,0,626,287a25.27,25.27,0,0,0,4.34-.38l40.33-7.11a24.84,24.84,0,0,0,16-10.13l11.13-15.65A25,25,0,0,0,702.08,234.91ZM513.56,376.56h-6a25.62,25.62,0,0,0-4.47.39,26,26,0,0,0-4.5-.39H480.73a25.58,25.58,0,0,0-7.51,1.12,40.25,40.25,0,0,0-7.61-1.53,26.07,26.07,0,0,0-18.35-7.47H427.62a25.47,25.47,0,0,0-19.1,8.56,41.05,41.05,0,0,0-10.4-1.31,40.62,40.62,0,0,0-11.87,1.73,25.93,25.93,0,0,0-7.5-1.1H362a25.5,25.5,0,0,0-10.43,2.2,25.66,25.66,0,0,0-10.14-2.12H338a26.78,26.78,0,0,0-4.83.44,26.13,26.13,0,0,0-4.77-.44h-4.91a26.21,26.21,0,0,0-4.77.44,26.78,26.78,0,0,0-4.83-.44h-4a26.57,26.57,0,0,0-5.65.61A41,41,0,0,0,294.11,376a40.47,40.47,0,0,0-14.25,2.55,35.92,35.92,0,0,0-13.23-2.5,37.46,37.46,0,0,0-7.26.71c-.69,0-1.38-.08-2.07-.08h-6.17a25.69,25.69,0,0,0-5.73.65A41.1,41.1,0,0,0,235,376a40.58,40.58,0,0,0-11.87,1.73,25.93,25.93,0,0,0-7.5-1.1h-16.8a25.56,25.56,0,0,0-7.65,1.16A40.66,40.66,0,0,0,179.05,376h-.92a26,26,0,0,0-8.37-5.39l.5-.09A25,25,0,0,0,188.78,356a24.19,24.19,0,0,0,3.9-.38l26.87-4.74A25,25,0,0,0,230,346.43a25.07,25.07,0,0,0,9.7,1.94,25.68,25.68,0,0,0,4.36-.38l47.11-8.3a25.32,25.32,0,0,0,3.33-.83,26.12,26.12,0,0,0,3.41-.36l47.11-8.31a25.59,25.59,0,0,0,4.37-1.18c.4.32.81.62,1.23.92A24.85,24.85,0,0,0,365,334.45a25.1,25.1,0,0,0,4.34-.38l20.15-3.55a24.91,24.91,0,0,0,16.13-10.29,25.06,25.06,0,0,0,17.17,6.86,25.48,25.48,0,0,0,4.35-.38l21.49-3.79a25,25,0,0,0,5.28-1.55c.38,0,.77,0,1.16,0a25.39,25.39,0,0,0,4.35-.38l21.56-3.8a25,25,0,0,0,11.53-5.3l3.49,5.33-7.85,9.87a25,25,0,0,0,19.57,40.55,25.26,25.26,0,0,0,6.35-.82l12.45-3.27,2.54,3.82A29.14,29.14,0,0,0,513.56,376.56Z" fill="#ed1d24"/><rect x="16.63" y="-9.19" width="740" height="673.87" fill="none"/><rect x="-2160.54" y="-1308.11" width="5094.33" height="2865.56" fill="none"/><rect x="-573.37" y="-415.33" width="1920" height="1080" fill="none"/><path d="M480.83,443.58a.22.22,0,0,0,0-.42l-1.29-.45c-1-.33.54-2.91,1.29-2.19l1,.9a.23.23,0,0,0,.36-.21l-.24-1.32c-.12-.54.54-.78,1.23-.78s1.41.27,1.29.75l-.24,1.35a.2.2,0,0,0,.33.18l1-.9c.84-.78,2.25,1.92,1.29,2.22l-1.29.45c-.21.06-.15.33,0,.39l1.29.45c1.05.33-.51,2.88-1.26,2.22l-1.05-.9a.19.19,0,0,0-.33.18l.24,1.35c.12.54-.54.78-1.23.78s-1.47-.27-1.32-.78l.3-1.35c.06-.18-.21-.33-.36-.18l-1.05.87c-.81.78-2.25-1.86-1.29-2.16Z" fill="#fff"/><path d="M492,443.58a.22.22,0,0,0,0-.42l-1.29-.45c-1-.33.54-2.91,1.29-2.19l1,.9a.23.23,0,0,0,.36-.21l-.24-1.32c-.12-.54.54-.78,1.23-.78s1.41.27,1.29.75l-.24,1.35a.2.2,0,0,0,.33.18l1-.9c.84-.78,2.25,1.92,1.29,2.22l-1.29.45c-.21.06-.15.33,0,.39L498,444c1.05.33-.51,2.88-1.26,2.22l-1.05-.9a.19.19,0,0,0-.33.18l.24,1.35c.12.54-.54.78-1.23.78s-1.47-.27-1.32-.78l.3-1.35c.06-.18-.21-.33-.36-.18l-1.05.87c-.81.78-2.25-1.86-1.29-2.16Z" fill="#fff"/><path d="M503.15,443.58a.22.22,0,0,0,0-.42l-1.29-.45c-1-.33.54-2.91,1.29-2.19l1,.9a.23.23,0,0,0,.36-.21l-.24-1.32c-.12-.54.54-.78,1.23-.78s1.41.27,1.29.75l-.24,1.35a.2.2,0,0,0,.33.18l1-.9c.84-.78,2.25,1.92,1.29,2.22l-1.29.45c-.21.06-.15.33,0,.39l1.29.45c1.05.33-.51,2.88-1.26,2.22l-1.05-.9a.19.19,0,0,0-.33.18l.24,1.35c.12.54-.54.78-1.23.78s-1.47-.27-1.32-.78l.3-1.35c.06-.18-.21-.33-.36-.18l-1.05.87c-.81.78-2.25-1.86-1.29-2.16Z" fill="#fff"/></svg>