<svg xmlns="http://www.w3.org/2000/svg" viewBox="0 0 82.81 91.78"><title>Vector Smart Object21111112</title><path d="M72.28,43.07l-45.16-7H27L13.62,34a2.76,2.76,0,0,0-3.14,2.3L4.13,77.45h0a2.75,2.75,0,0,0,2.3,3.12l58.66,9a2.76,2.76,0,0,0,3.14-2.3l6.34-41.1A2.75,2.75,0,0,0,72.28,43.07ZM23.8,49.5,14.28,48l6.37-9.68,9.51,1.47ZM48.47,66.71a2.37,2.37,0,0,1-1.26,1.74L35.83,74.31a2.34,2.34,0,0,1-1.44.23,2.22,2.22,0,0,1-1-.42,2.35,2.35,0,0,1-.95-2.27L34.71,57a2.37,2.37,0,0,1,1.6-1.88,2.35,2.35,0,0,1,2.4.57l9.08,9A2.36,2.36,0,0,1,48.47,66.71ZM42.78,52.43,33.27,51l6.36-9.68,9.51,1.47Zm19,2.93-9.51-1.47,6.36-9.68,9.52,1.47Zm17.5-29.25L24.09,4.28A2.89,2.89,0,0,0,20.5,6.19l-3.79,9.6L18,19.64,73.18,41.47a2.88,2.88,0,0,0,3.58-1.91l3.8-9.6A2.89,2.89,0,0,0,79.26,26.11ZM30.77,21.47l-8.95-3.54,8.35-8,8.95,3.54Zm17.86,7.07-9-3.54L48,17,57,20.52Zm17.86,7.07-8.95-3.55,8.35-8,9,3.54Z" fill="#fff"/><rect x="-988.26" y="-1388.25" width="5094.33" height="2865.56" fill="none"/></svg>