<svg xmlns="http://www.w3.org/2000/svg" viewBox="0 0 552.26 129"><title>Vector Smart Object21111112</title><path d="M281.87,121.69a13.32,13.32,0,0,1-9.78-4.18,13.21,13.21,0,0,1-9.73,4.18h-2.12A13.49,13.49,0,0,1,248.6,115a13.15,13.15,0,0,1-4.35.73h-6.17a13.39,13.39,0,0,1-2.71-.27,24.32,24.32,0,0,1-6.62.91,23.38,23.38,0,0,1-10.11-2.27,13.39,13.39,0,0,1-6.42,1.63h-5a13.43,13.43,0,0,1-4.68-.83,13.49,13.49,0,0,1-4.69.83h-4.91a13.46,13.46,0,0,1-13.45-13.44V85.72A13.2,13.2,0,0,1,179.71,74a12.89,12.89,0,0,1,4.74-5h-.72a27,27,0,0,1-14.36-4,23.18,23.18,0,0,1-10,3.8,13.56,13.56,0,0,1-12.09,7.41h-4.77a13.56,13.56,0,0,1-12.28-7.81,28.62,28.62,0,0,1-5.7.56,29,29,0,0,1-5.16-.46,13.55,13.55,0,0,1-11.1,5.78h-2a13.29,13.29,0,0,1-9.77-4.19,13.23,13.23,0,0,1-9.73,4.19H84.66a13.46,13.46,0,0,1-11-5.74,28.82,28.82,0,0,1-5,.42,27.51,27.51,0,0,1-11.89-2.61,13.59,13.59,0,0,1-7.07,2H44.34a13.59,13.59,0,0,1-6.94-1.9,13.59,13.59,0,0,1-6.94,1.9H25A13.47,13.47,0,0,1,11.56,54.91V30.45a13.23,13.23,0,0,1,.22-11.69A13,13,0,0,1,23.3,11.82H49.7a13.59,13.59,0,0,1,12.37,8,28.87,28.87,0,0,1,6.59-.75,27.43,27.43,0,0,1,12.42,2.86,13.06,13.06,0,0,1,7.32-2.23h16.8a13.46,13.46,0,0,1,7.24,2.1,27.38,27.38,0,0,1,12.13-2.73,27.88,27.88,0,0,1,10.47,2,13,13,0,0,1,5.71-1.31h6.17a13.47,13.47,0,0,1,2.71.28,24.27,24.27,0,0,1,6.62-.91,23.27,23.27,0,0,1,13.06,4,27,27,0,0,1,14.42-4,27.91,27.91,0,0,1,10.14,1.85,13.41,13.41,0,0,1,5.62-1.22h4a13.93,13.93,0,0,1,4.85.86,13.39,13.39,0,0,1,4.75-.86H218a13.29,13.29,0,0,1,4.74.86,14,14,0,0,1,4.86-.86H231a13.14,13.14,0,0,1,10.28,5,13,13,0,0,1,10.3-5.05h16.81a13.43,13.43,0,0,1,7.23,2.11A27.42,27.42,0,0,1,287.74,19a26.73,26.73,0,0,1,16.49,5.43,13,13,0,0,1,13-12.68h19.64A13.58,13.58,0,0,1,349,19.05c.62,0,1.26-.06,1.9-.06a27.47,27.47,0,0,1,12.26,2.79,13.05,13.05,0,0,1,7.2-2.16H388.2a13.5,13.5,0,0,1,4.52.78,13,13,0,0,1,4.45-.78h12.69a16.58,16.58,0,0,1,30.31,0h5.88a20.81,20.81,0,0,1,5.84.83,13.41,13.41,0,0,1,4.66-.83h6.12A15.07,15.07,0,0,1,469.12,21a14.25,14.25,0,0,1,6.21-1.37h2.57a13.26,13.26,0,0,1,3.63.51,13.25,13.25,0,0,1,3.62-.51H502a13.15,13.15,0,0,1,2.9.32,13.38,13.38,0,0,1,2.91-.32h6.13A15,15,0,0,1,520.34,21a14.32,14.32,0,0,1,6.21-1.37h2.57a13.07,13.07,0,0,1,10.72,5.53,13.27,13.27,0,0,1,1.53,12.14L530.3,67.11a13.47,13.47,0,0,1-13,9h-2.52a13.43,13.43,0,0,1-7.3-2.15,13.33,13.33,0,0,1-2.38.21h-2A13.28,13.28,0,0,1,493.27,70a13.25,13.25,0,0,1-9.74,4.18h-2.12a13.49,13.49,0,0,1-6.11-1.46,13.6,13.6,0,0,1-9.25,3.4h-2.52a13.26,13.26,0,0,1-10.89-5.61,12.56,12.56,0,0,1-1.47-2.78,22.23,22.23,0,0,1-4.72.51h-11.3a13.3,13.3,0,0,1-3.76-.54,13.37,13.37,0,0,1-3.77.54h-4.95a13.37,13.37,0,0,1-3.82-.56,13.56,13.56,0,0,1-3.84.56H410.1a13.54,13.54,0,0,1-7.16-2,20.62,20.62,0,0,1-8,2.43l-.2,0c-.32,0-.75,0-1.07,0a13.5,13.5,0,0,1-3.84-.55,14.06,14.06,0,0,1-1.61.1h-4.91a13.56,13.56,0,0,1-7.16-2,20.62,20.62,0,0,1-8,2.43l-.2,0c-.33,0-.75,0-1.08,0h-.12A13,13,0,0,1,371,87.64l-2.1,3,3.25,5.06.2.32a13,13,0,0,1-11.17,19.74H355a14.36,14.36,0,0,1-6.35-1.38,14.24,14.24,0,0,1-6.22,1.38h-3.11a13.14,13.14,0,0,1-5.39-1.15,27.9,27.9,0,0,1-10,1.79A27.21,27.21,0,0,1,310.53,113a21.75,21.75,0,0,1-10.73,2.79h-4.69a13.54,13.54,0,0,1-11.22,6ZM294,43.83" fill="#b1181e"/><path d="M213.16,80.54V102.3a1,1,0,0,1-.94.94h-5a1,1,0,0,1-1-.94V94a1,1,0,0,0-1-1h-5.41a.93.93,0,0,0-1,1v8.29a1,1,0,0,1-1,.94h-4.91a1,1,0,0,1-.95-.94V84.41a5.6,5.6,0,0,0-1-3.73c-.4-.59-.22-1.09.27-1.09h6.63a1,1,0,0,1,1,1v7.75a.93.93,0,0,0,1,1h5.41a1,1,0,0,0,1-1V80.54a1,1,0,0,1,1-1h5A1,1,0,0,1,213.16,80.54Zm31.36,21.62c.41.59.23,1.08-.27,1.08h-6.17a1,1,0,0,1-1-1v-.67c0-.81-.5-.77-1-.32a10.89,10.89,0,0,1-7.3,2.62c-6.76,0-11.35-5.59-11.35-12.44S222,79,228.75,79a10.73,10.73,0,0,1,6.94,2.35c.63.49.95,0,.95-.18v-.59a1,1,0,0,1,1-1h4.91a1,1,0,0,1,.94,1V98.43A5.6,5.6,0,0,0,244.52,102.16Zm-7.88-13.47a3.7,3.7,0,0,0-.5-1.84,6.53,6.53,0,0,0-5.5-3.56c-3.46,0-6.17,3.06-6.17,8.15s2.71,8.11,6.17,8.11c2.21,0,4.15-1.4,5.5-3.56a3.71,3.71,0,0,0,.5-1.85Zm48.74,11.85-.45,7.66a1,1,0,0,1-1,1h-2c-.59,0-.9-.45-1-1l-.9-3.92a1.2,1.2,0,0,0-1.08-1H265.33a1.21,1.21,0,0,0-1.08,1l-.9,3.92c-.13.54-.41,1-1,1h-2.12a1,1,0,0,1-1-1l-.45-7.66a1,1,0,0,1,1-.94h1.53c.86,0,1.13-.14,1.35-.95a42.07,42.07,0,0,0,2.08-12V84.41a5.6,5.6,0,0,0-1-3.73c-.4-.59-.22-1.09.27-1.09h16.81a1,1,0,0,1,1,1V98.61a1,1,0,0,0,1,1h1.57A1,1,0,0,1,285.38,100.54Zm-10.5-16.26a1,1,0,0,0-1-1h-4.06a1,1,0,0,0-.94,1v2.34a41,41,0,0,1-1.9,12c-.18.63.05.95.73.95h6.17a1,1,0,0,0,1-1Zm33,12.39c0,3.42-3.47,6.57-8.11,6.57H288.49a1,1,0,0,1-.95-.94V84.41a5.67,5.67,0,0,0-1-3.73c-.41-.59-.23-1.09.27-1.09h12.61c4.06,0,7.16,2.8,7.16,5.91A5.72,5.72,0,0,1,304,90.09c-.4.27-.31.45.05.68A6.78,6.78,0,0,1,307.91,96.67Zm-13.47-8.88a1,1,0,0,0,.94,1h2.12A2.63,2.63,0,0,0,299.71,86a2.53,2.53,0,0,0-2.53-2.75h-1.8a.92.92,0,0,0-.94,1Zm6.3,8.34c0-1.85-1.21-3.65-2.92-3.65h-2.44a.91.91,0,0,0-.94.94v5.19a1,1,0,0,0,.94,1h2.44C299.53,99.6,300.74,97.93,300.74,96.13Zm36.63-4.69c0,7.17-5.36,12.44-13.38,12.44s-13.34-5.27-13.34-12.44S316.06,79,324,79,337.37,84.28,337.37,91.44Zm-7.12,0c0-5.09-2.66-8.78-6.26-8.78s-6.22,3.69-6.22,8.78,2.71,8.74,6.22,8.74S330.25,96.44,330.25,91.44ZM354.31,91a1,1,0,0,1,0-1.35l6.49-9.19a.52.52,0,0,0-.45-.86h-3.11a1.79,1.79,0,0,0-1.58.86l-3.78,5.41c-.36.49-.68.45-1,0l-3.34-5.36a1.44,1.44,0,0,0-1.57-.86h-7.17c-.72,0-.94.54-.22,1.09a13.67,13.67,0,0,1,3.29,3.73L346,91a1,1,0,0,1,0,1.35l-7.12,10.09a.5.5,0,0,0,.45.81h3.11a1.76,1.76,0,0,0,1.58-.85l4.41-6.31c.36-.49.63-.49.95,0l4.05,6.31a1.42,1.42,0,0,0,1.58.85h6.17c.5,0,.72-.35.45-.81ZM49.7,24.32H23.3c-.5,0-.68.5-.27,1.09a5.67,5.67,0,0,1,1,3.73V54.91a1,1,0,0,0,1,1h5.45a1,1,0,0,0,1-1V29.28a.93.93,0,0,1,.94-1h9.91a1,1,0,0,1,.95,1V54.91a1,1,0,0,0,1,1H49.7a1,1,0,0,0,1-1V25.32A1,1,0,0,0,49.7,24.32ZM82,44.06c0,7.16-5.36,12.43-13.38,12.43S55.33,51.22,55.33,44.06s5.41-12.48,13.33-12.48S82,36.89,82,44.06Zm-7.11,0c0-5.09-2.66-8.79-6.27-8.79s-6.21,3.7-6.21,8.79,2.7,8.74,6.21,8.74S74.93,49.06,74.93,44.06Zm34.87,9.1-.45,7.66a1,1,0,0,1-1,1h-2c-.58,0-.9-.45-1-1l-.9-3.92a1.2,1.2,0,0,0-1.09-1H89.75a1.19,1.19,0,0,0-1.08,1l-.9,3.92c-.14.54-.41,1-1,1H84.66a1,1,0,0,1-1-1l-.45-7.66a1,1,0,0,1,1-.95h1.53c.86,0,1.13-.13,1.35-.94a42.05,42.05,0,0,0,2.07-12V37a5.7,5.7,0,0,0-1-3.74c-.41-.59-.23-1.08.27-1.08h16.8a1,1,0,0,1,1,.94V51.22a1,1,0,0,0,1,1h1.58A1,1,0,0,1,109.8,53.16ZM99.3,36.89a1,1,0,0,0-1-1H94.21a1,1,0,0,0-.95,1v2.35a41,41,0,0,1-1.89,12c-.18.63,0,.94.72.94h6.17a1,1,0,0,0,1-1ZM138,44.06c0,7.16-5.36,12.43-13.38,12.43s-13.33-5.27-13.33-12.43,5.41-12.48,13.33-12.48S138,36.89,138,44.06Zm-7.11,0c0-5.09-2.66-8.79-6.27-8.79s-6.21,3.7-6.21,8.79,2.7,8.74,6.21,8.74S130.84,49.06,130.84,44.06Zm36.76,0c0,6.84-4.6,12.48-11.35,12.48a10.71,10.71,0,0,1-6.94-2.35c-.63-.49-.95,0-.95.18v8.38a1,1,0,0,1-1,1h-4.77a1,1,0,0,1-1-1V37.07a5.72,5.72,0,0,0-1-3.74c-.41-.58-.23-1.08.27-1.08h6.17a1,1,0,0,1,1,1v.68c0,.81.5.77,1,.32a10.88,10.88,0,0,1,7.3-2.62C163,31.62,167.6,37.21,167.6,44.06Zm-7.08,0c0-5-2.7-8.11-6.17-8.11-2.21,0-4.14,1.39-5.49,3.56a3.7,3.7,0,0,0-.5,1.84V46.8a3.71,3.71,0,0,0,.5,1.85,6.5,6.5,0,0,0,5.49,3.56C157.82,52.21,160.52,49.15,160.52,44.06Zm23.21,12.43c-7.93,0-13.34-5.27-13.34-12.43s5.41-12.48,13.34-12.48,13.38,5.31,13.38,12.48S191.74,56.49,183.73,56.49ZM190,44.06c0-5.09-2.66-8.79-6.26-8.79s-6.22,3.7-6.22,8.79,2.7,8.74,6.22,8.74S190,49.06,190,44.06Zm8.15,11.8h5.32a2.3,2.3,0,0,0,2.07-.9l5.32-8.74a.92.92,0,0,1,.85-.5c.23,0,.41.18.41.63v8.56a1,1,0,0,0,1,1H218a1,1,0,0,0,1-1V46.35c0-.45.18-.63.41-.63a.92.92,0,0,1,.85.5L225.58,55a2.3,2.3,0,0,0,2.07.9H233a.55.55,0,0,0,.4-1l-8.51-12.25a.77.77,0,0,1,0-1.08l6.39-8.29c.46-.54.32-1.08-.27-1.08h-3.37c-.5,0-.91.18-1.54.9l-5.72,7.61a1.14,1.14,0,0,1-.9.54c-.31,0-.45-.18-.45-.58V33.2a1,1,0,0,0-1-1H213.1a1,1,0,0,0-1,1v7.48c0,.4-.14.58-.45.58a1.14,1.14,0,0,1-.9-.54L205,33.11c-.64-.72-1-.9-1.54-.9h-4c-.72,0-.94.54-.18,1.08A19.55,19.55,0,0,1,202.74,37l3.51,4.55a.77.77,0,0,1,0,1.08l-8.51,12.25A.55.55,0,0,0,198.14,55.86Zm68.29-.08H252.91a1.19,1.19,0,0,0-1.08,1l-.9,3.92c-.13.54-.4,1-1,1h-2.12a1,1,0,0,1-1-1l-.45-7.66a1,1,0,0,1,1-.94h1.54c.85,0,1.12-.14,1.35-1a42.4,42.4,0,0,0,2.07-12V37a5.61,5.61,0,0,0-1-3.74c-.4-.59-.22-1.09.27-1.09h16.81a1,1,0,0,1,1,1V51.14a1,1,0,0,0,1,1h1.58a1,1,0,0,1,1,.94l-.45,7.66a1,1,0,0,1-1,1h-2c-.59,0-.9-.45-1-1l-.9-3.92A1.17,1.17,0,0,0,266.43,55.78Zm-4-19a1,1,0,0,0-1-1h-4.06a1,1,0,0,0-.94,1v2.34a41.29,41.29,0,0,1-1.89,12c-.18.63,0,1,.72,1h6.17a1,1,0,0,0,1-1ZM274.4,44c0-7.16,5.41-12.48,13.34-12.48S301.12,36.81,301.12,44s-5.36,12.44-13.38,12.44S274.4,51.14,274.4,44Zm7.12,0c0,5,2.7,8.74,6.22,8.74S294,49,294,44s-2.66-8.78-6.26-8.78S281.52,38.88,281.52,44Zm56.9-15.67-.4-3.11a1.08,1.08,0,0,0-1.13-1H317.25c-.5,0-.72.5-.32,1.08a5.63,5.63,0,0,1,1,3.74V54.83a1,1,0,0,0,.94,1h5.5a1,1,0,0,0,1-1V29.29a1,1,0,0,1,.94-1h7.08a12.77,12.77,0,0,1,4,.68C338.06,29.15,338.51,28.93,338.42,28.3ZM364.28,44c0,7.17-5.36,12.44-13.38,12.44S337.57,51.14,337.57,44,343,31.49,350.9,31.49,364.28,36.81,364.28,44Zm-7.12,0c0-5.09-2.65-8.78-6.26-8.78s-6.22,3.69-6.22,8.78,2.71,8.74,6.22,8.74S357.16,49,357.16,44Zm31-11.85H370.36c-.49,0-.67.5-.27,1.09a5.61,5.61,0,0,1,1,3.74v4.23a27.21,27.21,0,0,1-.95,8.2c-.54,1.44-1.71,3.15-3.6,2.84a.68.68,0,0,0-.9.81l.49,2.66a.64.64,0,0,0,.77.54,8,8,0,0,0,6.76-5,25.68,25.68,0,0,0,1.48-9.55V36.81a1,1,0,0,1,1-1h5.09a1,1,0,0,1,.95,1v18a1,1,0,0,0,1,1h4.91a1,1,0,0,0,1-1V33.07A1,1,0,0,0,388.2,32.12Zm26.81,0H397.17c-.5,0-.68.5-.27,1.09a5.67,5.67,0,0,1,1,3.74v4.23a27.21,27.21,0,0,1-.95,8.2c-.54,1.44-1.71,3.15-3.6,2.84a.68.68,0,0,0-.91.81l.5,2.66a.63.63,0,0,0,.77.54,7.93,7.93,0,0,0,6.75-5A25.48,25.48,0,0,0,402,41.63V36.81a1,1,0,0,1,1-1h5.09a1,1,0,0,1,.94,1v18a1,1,0,0,0,1,1H415a1,1,0,0,0,1-1V33.07A1,1,0,0,0,415,32.12Zm10-9.86a4,4,0,1,0,4.06,4A4,4,0,0,0,425,22.26Zm2.61,9.86H421c-.5,0-.68.5-.27,1.09a5.68,5.68,0,0,1,1,3.74V54.83a1,1,0,0,0,.95,1h4.95a1,1,0,0,0,1-1V33.12A1,1,0,0,0,427.62,32.12ZM454.56,49.2c0,3.42-3.46,6.58-8.11,6.58h-11.3a1,1,0,0,1-.95-1V37a5.61,5.61,0,0,0-1-3.74c-.4-.59-.22-1.09.27-1.09h12.62c4.05,0,7.16,2.8,7.16,5.91a5.72,5.72,0,0,1-2.52,4.59c-.41.27-.32.45,0,.68A6.76,6.76,0,0,1,454.56,49.2Zm-13.47-8.88a1,1,0,0,0,1,1h2.12a2.63,2.63,0,0,0,2.2-2.8,2.52,2.52,0,0,0-2.52-2.75H442a.93.93,0,0,0-1,.95Zm6.31,8.34c0-1.85-1.22-3.65-2.93-3.65H442a.93.93,0,0,0-1,1v5.18a1,1,0,0,0,1,1h2.43C446.18,52.13,447.4,50.46,447.4,48.66Zm30.5-16.54h-2.57c-.81,0-1.08.18-1.3.91l-4.46,12.16c-.05.18-.14.31-.32.31a.37.37,0,0,1-.31-.31L464.48,33c-.27-.73-.91-.91-1.81-.91h-6.12c-.68,0-.9.55-.36,1.09A9,9,0,0,1,458.66,37l6.72,17.56a1.76,1.76,0,0,1,0,1.81l-2.53,6.44c-.18.49,0,.9.68.9h2.52c.86,0,1-.18,1.31-.9L478.4,33C478.58,32.53,478.44,32.12,477.9,32.12Zm28.65,21-.45,7.66a1,1,0,0,1-1,1h-2c-.59,0-.9-.45-1-1l-.9-3.92a1.17,1.17,0,0,0-1.08-1H486.51a1.2,1.2,0,0,0-1.09,1l-.9,3.92c-.13.54-.4,1-1,1h-2.12a1,1,0,0,1-1-1L480,53.07a1,1,0,0,1,1-.94h1.54c.85,0,1.12-.14,1.35-1a42.4,42.4,0,0,0,2.07-12V37a5.61,5.61,0,0,0-1-3.74c-.4-.59-.22-1.09.27-1.09H502a1,1,0,0,1,1,1V51.14a1,1,0,0,0,1,1h1.58A1,1,0,0,1,506.55,53.07ZM496.06,36.81a1,1,0,0,0-1-1h-4a1,1,0,0,0-1,1v2.34a41.29,41.29,0,0,1-1.89,12c-.18.63,0,1,.72,1H495a1,1,0,0,0,1-1Zm33.06-4.69h-2.57c-.81,0-1.08.18-1.3.91l-4.46,12.16c0,.18-.14.31-.32.31a.37.37,0,0,1-.31-.31L515.7,33c-.27-.73-.9-.91-1.8-.91h-6.13c-.68,0-.9.55-.36,1.09A9,9,0,0,1,509.89,37l6.71,17.56a1.76,1.76,0,0,1,0,1.81l-2.52,6.44c-.18.49,0,.9.67.9h2.52c.86,0,1-.18,1.31-.9l11-29.73C529.8,32.53,529.66,32.12,529.12,32.12Z" fill="#fff"/></svg>