<svg xmlns="http://www.w3.org/2000/svg" viewBox="0 0 316.48 255.56"><title>3</title><path d="M60.35,251.51a37.5,37.5,0,0,1-37.46-37.46V123.32a71.48,71.48,0,0,1,106.62-95.2,71.48,71.48,0,0,1,113.66,85.41,36.28,36.28,0,0,1,.69,4.15h9.76L293.92,96a12.5,12.5,0,0,1,18.42,11V215.48a12.5,12.5,0,0,1-18.42,11l-40.3-21.68h-9.54v9.24a37.5,37.5,0,0,1-37.46,37.46Z" fill="#008453"/><path d="M256.77,130.18H231.58V121.8a24.88,24.88,0,0,0-2.15-10.15,59,59,0,1,0-99.92-62,59,59,0,1,0-93.91,69,25.12,25.12,0,0,0-.21,3.15v92.25a25,25,0,0,0,25,25H206.62a25,25,0,0,0,25-25V192.31h25.19l43.07,23.17V107Z" fill="#fff"/><rect x="-112.92" y="-1484.25" width="5094.33" height="2865.56" fill="none"/></svg>