<svg xmlns="http://www.w3.org/2000/svg" viewBox="0 0 610.51 618.24"><title>megogo-bg</title><path d="M183.44,1515.32c-296.34,0-592.94-146.22-774.07-381.56a1019.06,1019.06,0,0,1-76.52-111.85C-777.64,861.62-843.6,652.47-843.6,462.33V426.38c0-100.74,18.31-211.32,51.57-311.54a1027.57,1027.57,0,0,1,78.25-312.1A1037.46,1037.46,0,0,1-164.2-745.53,1026.67,1026.67,0,0,1,237.86-826.9c16.55,0,34.62.48,52.31,1.39,17.69-.91,35.76-1.39,52.31-1.39A1034.78,1034.78,0,0,1,1012-580.74a1055.5,1055.5,0,0,1,77.42,73.18C1302.88-325.7,1435.5-40.37,1435.5,237.25v17.89c12,62.69,18.61,129.84,18.61,189.22A995.15,995.15,0,0,1,1307.8,964.15c-52,102-125.36,200-206.64,276-184.26,172.37-425.1,267.3-678.15,267.3H410.9l-4.3,0-4.3,0h-5.36c-2.29,0-4.61,0-6.94,0s-4.64,0-6.94,0h-5.45c-4.37,0-8.7,0-12.89-.09s-8.54.09-13,.09H340.44c-3.26,0-6.58,0-9.89,0s-6.63,0-9.89,0h-5l-4.34,0a998.61,998.61,0,0,1-122.93,7.91h-4.95Z" fill="#00aa4f"/><path d="M183.44,1502.82c-292.58,0-585.39-144.35-764.21-376.75a1008.47,1008.47,0,0,1-75.84-110.89c-109.27-158.33-174.5-365-174.5-552.84V426.39c0-99.95,18.25-209.62,51.39-309a1014.9,1014.9,0,0,1,77.43-309.76A1025,1025,0,0,1-159.34-734a1014.14,1014.14,0,0,1,397.2-80.38c16.54,0,34.62.49,52.31,1.41,17.69-.92,35.76-1.41,52.31-1.41A1022.29,1022.29,0,0,1,1003.87-571.2a1045,1045,0,0,1,76.93,72.76C1291.9-318.9,1423-37.06,1423,237.26v19.08c12,62.28,18.61,129,18.61,188A982.66,982.66,0,0,1,1296.9,958.06c-51.36,100.86-123.89,197.79-204.27,273C910.69,1401.23,672.89,1495,423,1495H410.9l-4.3,0-4.3,0h-5.36c-2.29,0-4.61,0-6.94,0s-4.64,0-6.94,0h-5.45c-4.34,0-8.67,0-12.89-.09s-8.56.09-13,.09H340.44c-3.26,0-6.58,0-9.89,0s-6.63,0-9.89,0h-5l-4.65,0h-.5a985.57,985.57,0,0,1-122.13,7.9h-4.94Z" fill="#008453"/><path d="M183.44,1490.32c-288.81,0-577.86-142.52-754.35-371.94a992.94,992.94,0,0,1-75.16-109.94c-108-156.39-172.53-360.5-172.53-546.11V426.38c0-99.16,18.18-207.92,51.22-306.42a1002.49,1002.49,0,0,1,76.61-307.42,1012.49,1012.49,0,0,1,536.32-535,1001.78,1001.78,0,0,1,392.33-79.4c16.54,0,34.61.49,52.31,1.43,17.7-.93,35.77-1.43,52.31-1.43A1009.79,1009.79,0,0,1,995.79-561.68a1032.52,1032.52,0,0,1,76.43,72.34c208.69,177.23,338.3,455.57,338.3,726.6v20.28c12,61.87,18.61,128.17,18.61,186.84A970.11,970.11,0,0,1,1286,952c-50.73,99.75-122.41,195.61-201.89,270-179.61,168-414.38,260.55-661.07,260.55H410.9l-4.3,0-4.3,0h-5.36c-2.29,0-4.61,0-6.94,0s-4.64,0-6.94,0h-5.45c-4.35,0-8.69,0-12.89-.09s-8.55.09-13,.09H340.44c-3.26,0-6.58,0-9.89,0s-6.63,0-9.89,0h-5l-4.65,0h-1.34a972.12,972.12,0,0,1-121.28,7.9h-4.95Z" fill="#00aa4f"/><path d="M183.44,1477.82c-285.06,0-570.33-140.68-744.5-367.13a981.07,981.07,0,0,1-74.47-109c-106.81-154.43-170.58-356-170.58-539.38V426.37c0-98.37,18.12-206.22,51.05-303.86a990,990,0,0,1,75.78-305.09A1000,1000,0,0,1-149.59-711a989.28,989.28,0,0,1,387.46-78.41c16.54,0,34.61.5,52.31,1.44,17.7-.94,35.77-1.44,52.31-1.44a997.3,997.3,0,0,1,645.2,237.23,1018.11,1018.11,0,0,1,75.94,71.92C1269.9-305.36,1398-30.49,1398,237.24v21.48c12,61.46,18.61,127.33,18.61,185.63a957.69,957.69,0,0,1-141.55,501.46c-50.1,98.66-120.94,193.44-199.51,266.94-177.29,165.85-409,257.18-652.53,257.18H410.9l-4.3,0-4.3,0h-5.36c-2.29,0-4.61,0-6.94,0s-4.64,0-6.94,0h-5.45c-4.33,0-8.67,0-12.89-.09s-8.57.09-13,.09H340.44c-3.26,0-6.58,0-9.89,0s-6.63,0-9.89,0h-5l-4.66,0-2.17,0a960.4,960.4,0,0,1-120.44,7.89Z" fill="#008453"/><path d="M183.44,1465.32c-281.3,0-562.79-138.83-734.64-362.31A967.45,967.45,0,0,1-625,995C-730.58,842.5-793.61,643.41-793.61,462.33V426.38c0-97.58,18.06-204.52,50.88-301.3a977.7,977.7,0,0,1,75-302.75A987.49,987.49,0,0,1-144.73-699.48,977,977,0,0,1,237.86-776.9c16.54,0,34.61.51,52.31,1.46,17.7-1,35.77-1.46,52.31-1.46a984.75,984.75,0,0,1,637.1,234.25,1005.75,1005.75,0,0,1,75.44,71.5c203.86,172.58,330.48,444,330.48,708.39v22.69c12,61.05,18.61,126.49,18.61,184.42a945.06,945.06,0,0,1-140,495.34c-49.47,97.56-119.47,191.27-197.14,263.92-175,163.67-403.67,253.81-644,253.81H410.9l-4.3,0-4.3,0h-5.36c-2.29,0-4.61,0-6.94,0s-4.64,0-6.94,0h-5.45c-4.36,0-8.69,0-12.89-.09s-8.6.09-13,.09H340.44c-3.26,0-6.58,0-9.89-.05s-6.63.05-9.89.05h-5l-4.67,0-3,0a947.41,947.41,0,0,1-119.61,7.89h-4.95Z" fill="#00aa4f"/><path d="M183.44,1452.82c-277.55,0-555.26-137-724.78-357.5a954.17,954.17,0,0,1-73.1-107.08C-718.81,837.71-781.1,641.15-781.1,462.33V426.38c0-96.79,18-202.82,50.71-298.74a964.79,964.79,0,0,1,74.12-300.41A975.05,975.05,0,0,1-139.85-688a964.41,964.41,0,0,1,377.72-76.43c16.54,0,34.61.51,52.31,1.48,17.69-1,35.76-1.48,52.31-1.48a972.24,972.24,0,0,1,629,231.28,993.47,993.47,0,0,1,75,71.08C1247.9-291.76,1373-23.88,1373,237.25v23.91c12,60.63,18.61,125.64,18.61,183.2a932.56,932.56,0,0,1-138.39,489.23c-48.85,96.46-118,189.1-194.76,260.91C885.83,1356,660.16,1444.94,423,1444.94H410.9l-4.3,0-4.3,0h-5.36c-2.29,0-4.61,0-6.94,0s-4.64,0-6.94,0h-5.45c-4.36,0-8.7,0-12.9-.09s-8.59.09-13,.09H340.44c-3.26,0-6.58,0-9.89-.06s-6.63.06-9.89.06h-5l-4.68,0-3.81,0a934.24,934.24,0,0,1-118.78,7.88Z" fill="#008453"/><path d="M183.44,1440.32c-273.79,0-547.73-135.15-714.93-352.69A942.88,942.88,0,0,1-603.91,981.5C-707,832.93-768.61,638.88-768.61,462.33V426.38c0-96,17.94-201.11,50.54-296.18a952.41,952.41,0,0,1,73.29-298.08A962.52,962.52,0,0,1-135-676.45,952.05,952.05,0,0,1,237.86-751.9c16.54,0,34.61.52,52.31,1.5,17.69-1,35.77-1.5,52.31-1.5A959.75,959.75,0,0,1,963.39-523.6a981.37,981.37,0,0,1,74.46,70.66c199,168,322.66,432.34,322.66,690.17v25.14c12,60.21,18.61,124.78,18.61,182a920,920,0,0,1-136.8,483.12c-48.22,95.36-116.53,186.93-192.38,257.89C879.62,1344.68,657,1432.42,423,1432.42H410.9l-4.3,0-4.3,0h-5.36c-2.29,0-4.61,0-6.94,0s-4.64,0-6.94,0h-5.45c-4.34,0-8.68,0-12.9-.09s-8.62.09-13,.09H340.44c-3.26,0-6.58,0-9.89-.06s-6.63.06-9.89.06h-5l-4.68,0-4.63,0a921.36,921.36,0,0,1-118,7.88h-4.95Z" fill="#00aa4f"/><path d="M183.44,1427.82c-270,0-540.19-133.3-705.06-347.87a930.29,930.29,0,0,1-71.74-105.18C-695.27,828.15-756.1,636.63-756.1,462.33V426.38c0-95.21,17.88-199.41,50.38-293.61A940,940,0,0,1-633.27-163a950.06,950.06,0,0,1,503.16-502,939.51,939.51,0,0,1,368-74.46c16.54,0,34.61.52,52.31,1.52,17.7-1,35.77-1.52,52.31-1.52A947.18,947.18,0,0,1,955.3-514.07a967.44,967.44,0,0,1,74,70.25C1225.9-278.19,1348-17.29,1348,237.25v26.38c12,59.79,18.61,123.92,18.61,180.73a907.49,907.49,0,0,1-135.22,477c-47.59,94.26-115.05,184.76-190,254.87-168,157.15-387.6,243.7-618.37,243.7H410.9l-4.3,0-4.3,0h-5.36c-2.29,0-4.61,0-6.94,0s-4.64,0-6.94,0h-5.45c-4.29,0-8.63,0-12.9-.09s-8.67.09-13,.09H340.44c-3.26,0-6.58,0-9.89-.06s-6.63.06-9.89.06h-5l-4.68,0-4.69,0h-.76a908.56,908.56,0,0,1-117.14,7.88Z" fill="#008453"/><path d="M183.44,1415.32c-266.27,0-532.65-131.44-695.2-343A917.73,917.73,0,0,1-582.82,968c-100.69-144.67-160.79-333.67-160.79-505.7V426.39c0-94.42,17.83-197.7,50.22-291a927.69,927.69,0,0,1,71.61-293.42A937.43,937.43,0,0,1-125.25-653.42a927.18,927.18,0,0,1,363.11-73.47c16.54,0,34.61.53,52.31,1.54,17.7-1,35.77-1.54,52.31-1.54A934.76,934.76,0,0,1,947.2-504.54a955.5,955.5,0,0,1,73.47,69.83C1214.9-271.4,1335.51-14,1335.51,237.24v27.63c12,59.37,18.61,123.05,18.61,179.49a894.9,894.9,0,0,1-133.64,470.9c-47,93.16-113.58,182.59-187.62,251.85-165.67,155-382.25,240.33-609.83,240.33H410.9l-4.3,0-4.3,0h-5.36c-2.29,0-4.61,0-6.94,0s-4.64,0-6.94,0h-5.45c-4.3,0-8.64,0-12.89-.1s-8.66.1-13,.1H340.44c-3.26,0-6.58,0-9.89-.06s-6.63.06-9.89.06h-5l-4.68,0-4.69,0H304.7a895.7,895.7,0,0,1-116.31,7.88Z" fill="#00aa4f"/><path d="M183.44,1402.82c-262.51,0-525.12-129.61-685.35-338.25A902.36,902.36,0,0,1-572.27,961.3c-99.46-142.72-158.83-329.2-158.83-499V426.38c0-93.62,17.77-196,50.06-288.48a915.11,915.11,0,0,1,70.77-291.09,925,925,0,0,1,489.9-488.73A914.64,914.64,0,0,1,237.87-714.4c16.54,0,34.61.54,52.31,1.56,17.7-1,35.77-1.56,52.31-1.56A922.17,922.17,0,0,1,939.11-495a941.89,941.89,0,0,1,73,69.42C1203.89-264.6,1323-10.69,1323,237.25v28.88c12,58.93,18.61,122.18,18.61,178.23a882.41,882.41,0,0,1-132.06,464.79c-46.33,92.06-112.11,180.42-185.25,248.83-163.35,152.8-376.89,237-601.29,237H410.9l-4.3,0-4.3,0h-5.36c-2.29,0-4.61,0-6.94,0s-4.64,0-6.94,0h-5.45c-4.28,0-8.62,0-12.89-.1s-8.68.1-13,.1H340.44c-3.26,0-6.58,0-9.89-.06s-6.63.06-9.89.06h-5l-4.68,0-4.69,0h-2.41a883.12,883.12,0,0,1-115.49,7.89h-4.95Z" fill="#008453"/><path d="M183.44,1390.32c-258.75,0-517.58-127.76-675.49-333.43a892.05,892.05,0,0,1-69.68-102.32C-660,813.8-718.6,629.84-718.6,462.34V426.39c0-92.84,17.72-194.31,49.9-285.91a902.32,902.32,0,0,1,69.93-288.76A912.53,912.53,0,0,1-115.5-630.39a902.29,902.29,0,0,1,353.37-71.5c16.54,0,34.61.55,52.31,1.58,17.7-1,35.77-1.58,52.31-1.58A909.68,909.68,0,0,1,931-485.49a930.28,930.28,0,0,1,72.49,69c189.4,158.68,307,409.1,307,653.73V267.4c12,58.5,18.61,121.3,18.61,177a869.85,869.85,0,0,1-130.47,458.68c-45.7,91-110.63,178.24-182.87,245.82-161,150.63-371.53,233.58-592.76,233.58H410.9l-4.3,0-4.3,0h-5.36c-2.29,0-4.61,0-6.94,0s-4.64,0-6.94,0h-5.45c-4.27,0-8.61,0-12.89-.1s-8.69.1-13,.1H340.44c-3.26,0-6.58,0-9.89-.06s-6.63.06-9.89.06h-5l-4.68,0-4.69,0H303a870.41,870.41,0,0,1-114.65,7.89h-4.95Z" fill="#00aa4f"/><path d="M183.44,1377.82c-255,0-510-125.92-665.64-328.63a876.55,876.55,0,0,1-69-101.37C-648.2,809-706.1,627.56-706.1,462.32V426.37c0-92.05,17.66-192.6,49.75-283.34A890.1,890.1,0,0,1-587.27-143.4,900,900,0,0,1-110.63-618.89a889.74,889.74,0,0,1,348.5-70.51c16.54,0,34.61.55,52.31,1.6,17.7-1.05,35.77-1.6,52.31-1.6A897.16,897.16,0,0,1,922.92-476a915,915,0,0,1,72,68.59C1181.88-251,1298-4.09,1298,237.24v31.42c12,58.07,18.61,120.41,18.61,175.69a857.36,857.36,0,0,1-128.89,452.57c-45.07,89.86-109.15,176.07-180.49,242.8C848.54,1288.18,641.06,1369.93,423,1369.93H410.9l-4.3,0-4.3,0h-5.36c-2.29,0-4.61,0-6.94,0s-4.64,0-6.94,0h-5.45c-4.26,0-8.59,0-12.89-.1s-8.71.1-13,.1H340.44c-3.26,0-6.58,0-9.89-.06s-6.63.06-9.89.06h-5l-4.68,0-4.69,0H302.2a857.8,857.8,0,0,1-113.81,7.89Z" fill="#008453"/><path d="M183.44,1365.32c-251.23,0-502.5-124.08-655.79-323.82a863.58,863.58,0,0,1-68.3-100.41c-95.79-136.86-153-315.79-153-478.76V426.38c0-91.26,17.61-190.9,49.6-280.77A877.48,877.48,0,0,1-575.77-138.5a887.53,887.53,0,0,1,470-468.88A877.37,877.37,0,0,1,237.86-676.9c16.55,0,34.62.56,52.31,1.62,17.69-1.06,35.76-1.62,52.31-1.62A884.64,884.64,0,0,1,914.81-466.45a903.44,903.44,0,0,1,71.5,68.18C1170.88-244.23,1285.5-.8,1285.5,237.24v32.7c12,57.63,18.61,119.52,18.61,174.41a844.7,844.7,0,0,1-127.32,446.46c-44.44,88.76-107.68,173.9-178.1,239.78C842.32,1276.87,637.87,1357.43,423,1357.43H410.9l-4.3,0-4.3,0h-5.36c-2.29,0-4.61,0-6.94,0s-4.64,0-6.94,0h-5.45c-4.28,0-8.61,0-12.89-.1s-8.69.1-13,.1H340.44c-3.26,0-6.58,0-9.89-.06s-6.63.06-9.89.06h-5l-4.68,0-4.69,0h-4.94a845.13,845.13,0,0,1-113,7.89Z" fill="#00aa4f"/><path d="M183.44,1352.82c-247.46,0-495-122.23-645.93-319a852.93,852.93,0,0,1-67.62-99.46c-94.55-134.9-151-311.32-151-472V426.39c0-90.47,17.56-189.2,49.46-278.2a864.8,864.8,0,0,1,67.38-281.78A875,875,0,0,1-100.89-595.86,864.66,864.66,0,0,1,237.86-664.4c16.55,0,34.62.57,52.31,1.65,17.69-1.08,35.76-1.65,52.31-1.65A872.16,872.16,0,0,1,906.72-456.93a892.08,892.08,0,0,1,71,67.77C1159.88-237.44,1273,2.5,1273,237.23v34c12,57.19,18.61,118.61,18.61,173.12a832.22,832.22,0,0,1-125.74,440.35c-43.81,87.66-106.2,171.73-175.72,236.76-154,144.11-355.46,223.47-567.14,223.47H410.9l-4.3,0-4.3,0h-5.36c-2.29,0-4.61,0-6.94,0s-4.64,0-6.94,0h-5.45c-4.32,0-8.65,0-12.88-.1s-8.65.1-13,.1H340.44c-3.26,0-6.58,0-9.89-.06s-6.63.06-9.89.06h-5l-4.68,0-4.69,0H300.5a832.32,832.32,0,0,1-112.11,7.89h-4.95Z" fill="#008453"/><path d="M183.44,1340.32c-243.7,0-487.41-120.38-636.07-314.19a838.68,838.68,0,0,1-66.94-98.52c-93.33-133-149-306.84-149-465.28V426.38c0-89.69,17.5-187.49,49.31-275.62A852.55,852.55,0,0,1-552.78-128.7,862.47,862.47,0,0,1-96-584.35a852.43,852.43,0,0,1,333.9-67.55c16.54,0,34.62.58,52.31,1.67,17.69-1.09,35.76-1.67,52.31-1.67A859.61,859.61,0,0,1,898.62-447.4,877.42,877.42,0,0,1,969.14-380C1148.89-230.63,1260.5,5.81,1260.5,237.25v35.3c12,56.74,18.61,117.71,18.61,171.82A819.7,819.7,0,0,1,1155,878.61c-43.18,86.56-104.72,169.55-173.34,233.75-151.73,141.93-350.11,220.1-558.6,220.1H410.9l-4.3,0-4.3,0h-5.36c-2.29,0-4.61,0-6.94,0s-4.64,0-6.94,0h-5.45c-4.31,0-8.64,0-12.88-.1s-8.66.1-13,.1H340.44c-3.26,0-6.58,0-9.89-.06s-6.64.06-9.89.06h-5l-4.68,0-4.69,0h-6.65a819.7,819.7,0,0,1-111.25,7.89h-4.95Z" fill="#00aa4f"/><path d="M183.44,1327.82c-239.93,0-479.87-118.54-626.21-309.37A826.56,826.56,0,0,1-509,920.87c-92.1-131-147.08-302.37-147.08-458.54V426.38c0-88.9,17.46-185.79,49.18-273A840.05,840.05,0,0,1-541.27-123.8a850,850,0,0,1,450.11-449,840.16,840.16,0,0,1,329-66.56c16.54,0,34.61.58,52.31,1.69,17.7-1.11,35.77-1.69,52.31-1.69A847.14,847.14,0,0,1,890.53-437.87a867.89,867.89,0,0,1,70,67C1137.89-223.83,1248,9.12,1248,237.25v36.61c12,56.29,18.61,116.79,18.61,170.5A807.16,807.16,0,0,1,1144,872.49c-42.55,85.46-103.24,167.38-171,230.73C823.68,1243,628.33,1320,423,1320H410.9l-4.3,0-4.3,0h-5.36c-2.29,0-4.61,0-6.94,0s-4.64,0-6.94,0h-5.45c-4.33,0-8.66,0-12.88-.11s-8.65.11-13,.11H340.44c-3.26,0-6.58,0-9.89-.07s-6.64.07-9.89.07h-5l-4.68,0-4.69,0H298.8a807.24,807.24,0,0,1-110.41,7.89h-4.95Z" fill="#008453"/><path d="M183.44,1315.32c-236.16,0-472.32-116.69-616.35-304.55a813.27,813.27,0,0,1-65.58-96.64c-90.87-129-145.12-297.89-145.12-451.8V426.38c0-88.11,17.41-184.09,49-270.46a827.3,827.3,0,0,1,64.8-274.83A837.56,837.56,0,0,1-86.29-561.33,827.61,827.61,0,0,1,237.86-626.9c16.55,0,34.62.59,52.31,1.72,17.69-1.12,35.76-1.72,52.31-1.72A834.57,834.57,0,0,1,882.43-428.35,853.4,853.4,0,0,1,952-361.8c174.91,144.74,283.54,374.21,283.54,599v37.93c12,55.84,18.61,115.86,18.61,169.18a794.69,794.69,0,0,1-121,422c-41.92,84.36-101.77,165.21-168.58,227.71C817.45,1231.66,625.14,1307.43,423,1307.43H410.9l-4.3,0-4.3,0h-5.36c-2.29,0-4.61,0-6.94,0s-4.64,0-6.94,0h-5.45c-4.3,0-8.63,0-12.87-.11s-8.67.11-13,.11H340.44c-3.26,0-6.58,0-9.89-.07s-6.64.07-9.89.07h-5l-4.68,0-4.69,0H298a793.6,793.6,0,0,1-109.58,7.9Z" fill="#00aa4f"/><path d="M183.44,1302.82C-49,1302.82-281.34,1188-423,1003.08a801.11,801.11,0,0,1-64.9-95.69C-577.6,780.31-631.11,614-631.11,462.33V426.38c0-87.33,17.36-182.38,48.91-267.88A814.93,814.93,0,0,1-518.27-114,825,825,0,0,1-81.43-549.81,815.2,815.2,0,0,1,237.86-614.4c16.55,0,34.62.6,52.31,1.74,17.69-1.14,35.75-1.74,52.31-1.74A822.13,822.13,0,0,1,874.34-418.83a839.1,839.1,0,0,1,69,66.15C1115.88-210.26,1223,15.7,1223,237.24v39.27c12,55.38,18.61,114.93,18.61,167.85A782.16,782.16,0,0,1,1122.2,860.27c-41.28,83.26-100.29,163-166.19,224.69-144.75,135.41-334,210-533,210H410.9l-4.3,0-4.3,0h-5.36c-2.29,0-4.61,0-6.94,0s-4.64,0-6.94,0h-5.45c-4.3,0-8.63,0-12.87-.11s-8.67.11-13,.11H340.44c-3.23,0-6.55,0-9.89-.07s-6.67.07-9.89.07h-5l-4.68,0-4.69,0h-4.91l-3.83,0h-.47a780.76,780.76,0,0,1-108.69,7.9Z" fill="#008453"/><path d="M183.44,1290.32c-228.64,0-457.24-113-596.63-294.92a787.75,787.75,0,0,1-64.21-94.74c-88.42-125.12-141.2-288.93-141.2-438.32V426.39c0-86.54,17.31-180.67,48.78-265.29a802.5,802.5,0,0,1,63.06-270.2A812.48,812.48,0,0,1-76.54-538.29a802.75,802.75,0,0,1,314.41-63.6c16.55,0,34.62.61,52.31,1.77,17.69-1.16,35.75-1.77,52.31-1.77A809.6,809.6,0,0,1,866.25-409.3a826.62,826.62,0,0,1,68.55,65.74C1104.88-203.47,1210.51,19,1210.51,237.24v40.61c12,54.92,18.61,114,18.61,166.5a769.71,769.71,0,0,1-117.84,409.8c-40.65,82.16-98.81,160.86-163.81,221.67C805,1209.06,618.79,1282.43,423,1282.43H410.9l-4.3,0-4.3,0h-5.36c-2.29,0-4.61,0-6.94,0s-4.64,0-6.94,0h-5.45c-4.32,0-8.65,0-12.88-.11s-8.66.11-13,.11H340.44c-3.25,0-6.57,0-9.89-.07s-6.64.07-9.89.07h-5l-4.68,0-4.69,0h-4.91l-3.82,0h-1.43a768.79,768.79,0,0,1-107.75,7.89h-4.94Z" fill="#00aa4f"/><path d="M183.44,1277.82c-224.87,0-449.7-111.16-586.77-290.1a774.77,774.77,0,0,1-63.53-93.81c-87.2-123.16-139.25-284.45-139.25-431.58V426.38c0-85.76,17.27-179,48.66-262.7a790.13,790.13,0,0,1,62.18-267.89A800,800,0,0,1-71.68-526.79,790.39,790.39,0,0,1,237.86-589.4c16.56,0,34.63.62,52.31,1.8,17.68-1.18,35.75-1.8,52.31-1.8A797.07,797.07,0,0,1,858.15-399.78a816,816,0,0,1,68.06,65.34C1093.88-196.68,1198,22.29,1198,237.24v42c12,54.45,18.61,113,18.61,165.15a757.08,757.08,0,0,1-116.27,403.69c-40,81.06-97.33,158.69-161.43,218.65C798.82,1197.76,615.6,1269.94,423,1269.94H410.9l-4.3,0-4.3,0h-5.36c-2.29,0-4.61,0-6.94,0s-4.64,0-6.94,0h-5.45c-4.29,0-8.62,0-12.87-.11-4.32.08-8.69.11-13,.11H340.44c-3.25,0-6.58,0-9.89-.07s-6.64.07-9.89.07h-5l-4.68,0-4.69,0h-4.91l-3.83,0h-2.34a755.59,755.59,0,0,1-106.82,7.89Z" fill="#008453"/><path d="M183.44,1265.32C-37.68,1265.32-258.73,1156-393.47,980a762.39,762.39,0,0,1-62.85-92.86c-86-121.2-137.29-280-137.29-424.84V426.38c0-85,17.23-177.27,48.54-260.11a777.66,777.66,0,0,1,61.3-265.59,787.57,787.57,0,0,1,417-416A777.85,777.85,0,0,1,237.86-576.9c16.56,0,34.63.63,52.31,1.82,17.68-1.19,35.74-1.82,52.31-1.82A784.54,784.54,0,0,1,850.05-390.26a805.34,805.34,0,0,1,67.57,64.94c165.27,135.43,267.89,350.9,267.89,562.56v43.33c12,54,18.61,112.09,18.61,163.78a744.62,744.62,0,0,1-114.69,397.58c-39.38,80-95.84,156.52-159,215.63-137.78,128.89-318,199.87-507.36,199.87H410.9l-4.3,0-4.3,0h-5.36c-2.29,0-4.61,0-6.94,0s-4.64,0-6.94,0h-5.45c-4.29,0-8.62,0-12.88-.12-4.32.08-8.68.12-13,.12H340.44c-3.23,0-6.55,0-9.89-.07s-6.66.07-9.89.07h-5l-4.68,0-4.69,0h-4.91l-3.83,0-3.27,0a742.57,742.57,0,0,1-105.89,7.88h-4.95Z" fill="#00aa4f"/><path d="M183.44,1252.82c-217.36,0-434.63-107.47-567-280.48a748.59,748.59,0,0,1-62.16-91.92C-530.52,761.18-581.1,604.93-581.1,462.33V426.38c0-84.19,17.19-175.56,48.42-257.52A765.11,765.11,0,0,1-472.26-94.42,775,775,0,0,1-61.93-503.76,765.26,765.26,0,0,1,237.86-564.4c16.56,0,34.63.64,52.31,1.85,17.68-1.21,35.74-1.85,52.31-1.85A772,772,0,0,1,842-380.73,790.16,790.16,0,0,1,909-316.19c162.85,133.1,264,345.08,264,553.43V282c12,53.51,18.61,111.13,18.61,162.4a732.09,732.09,0,0,1-113.12,391.47c-38.75,78.85-94.36,154.34-156.66,212.62-135.46,126.71-312.61,196.5-498.82,196.5H410.9l-4.3,0-4.3,0h-5.36c-2.29,0-4.61,0-6.94,0s-4.64,0-6.94,0h-5.45c-4.31,0-8.64,0-12.87-.12-4.3.08-8.67.12-13,.12H340.44c-3.25,0-6.58,0-9.89-.07s-6.64.07-9.89.07h-5l-4.68,0-4.69,0h-4.91l-3.83,0-3.83,0h-.36a729.62,729.62,0,0,1-105,7.88Z" fill="#008453"/><path d="M183.44,1240.32c-213.6,0-427.09-105.62-557.19-275.66a734.58,734.58,0,0,1-61.48-91c-83.52-117.28-133.37-271-133.37-411.35V426.38c0-83.41,17.15-173.86,48.31-254.93a752.56,752.56,0,0,1,59.53-261A762.51,762.51,0,0,1-57.07-492.26,752.94,752.94,0,0,1,237.86-551.9c16.56,0,34.63.65,52.31,1.88,17.68-1.23,35.74-1.88,52.31-1.88A759.55,759.55,0,0,1,833.86-371.21a776.71,776.71,0,0,1,66.58,64.14C1060.87-176.3,1160.5,32.18,1160.5,237.24v46.1c12,53,18.61,110.16,18.61,161a719.55,719.55,0,0,1-111.54,385.36c-38.11,77.76-92.88,152.17-154.27,209.6C780.17,1163.85,606.05,1232.44,423,1232.44H410.9l-4.3,0-4.3,0h-5.36c-2.29,0-4.61,0-6.94,0s-4.64,0-6.94,0h-5.45c-4.29,0-8.62,0-12.87-.12-4.32.08-8.69.12-13,.12H340.44c-3.25,0-6.58,0-9.89-.07s-6.64.07-9.89.07h-5l-4.68,0-4.69,0h-4.91l-3.83,0-3.83,0h-1.28a716.9,716.9,0,0,1-104,7.88Z" fill="#00aa4f"/><path d="M183.44,1227.82C-26.4,1227.82-236.11,1124-363.9,957a721.6,721.6,0,0,1-60.79-90C-507,751.61-556.11,600.41-556.11,462.33V426.38c0-82.63,17.11-172.15,48.21-252.33A740.28,740.28,0,0,1-449.26-84.63,750,750,0,0,1-52.2-480.74,740.62,740.62,0,0,1,237.86-539.4c16.57,0,34.64.66,52.31,1.91,17.67-1.25,35.74-1.91,52.31-1.91A747,747,0,0,1,825.76-361.68a763.6,763.6,0,0,1,66.09,63.75C1049.86-169.5,1148,35.48,1148,237.25v47.5c12,52.55,18.61,109.17,18.61,159.61a707,707,0,0,1-110,379.25c-37.48,76.66-91.4,150-151.88,206.58C774,1152.56,602.86,1219.94,423,1219.94H410.9l-4.3,0-4.3,0h-5.36c-2.29,0-4.61,0-6.94,0s-4.64,0-6.94,0h-5.45c-4.29,0-8.62,0-12.86-.12-4.32.08-8.69.12-13,.12H340.44c-3.24,0-6.57,0-9.89-.07s-6.65.07-9.89.07h-5l-4.68,0-4.69,0h-4.91l-3.83,0-3.83,0h-2.21a704.15,704.15,0,0,1-103.12,7.88Z" fill="#008453"/><path d="M183.44,1215.32c-206.07,0-412-101.94-537.49-266a707.54,707.54,0,0,1-60.09-89.08c-81.07-113.35-129.46-262-129.46-397.86V426.38c0-81.85,17.08-170.44,48.11-249.72a727.68,727.68,0,0,1,57.73-256.4A737.54,737.54,0,0,1-47.33-469.23,728.12,728.12,0,0,1,237.86-526.9c16.57,0,34.64.67,52.31,1.95,17.67-1.27,35.73-1.95,52.31-1.95A734.52,734.52,0,0,1,817.67-352.16a750.51,750.51,0,0,1,65.6,63.35c155.6,126.09,252.23,327.57,252.23,526.05v48.92c12,52.06,18.61,108.18,18.61,158.2a694.39,694.39,0,0,1-108.39,373.13c-36.84,75.55-89.91,147.83-149.49,203.56C767.75,1141.24,599.69,1207.43,423,1207.43H410.9l-4.3,0-4.3,0h-5.36c-2.29,0-4.61,0-6.94,0s-4.64,0-6.94,0h-5.45c-4.26,0-8.59,0-12.86-.12-4.3.08-8.68.12-13,.12H340.44c-3.21,0-6.54,0-9.89-.07s-6.68.07-9.89.07h-5l-4.68,0-4.69,0h-4.91l-3.83,0-3.83,0h-3.15a691.39,691.39,0,0,1-102.18,7.88h-4.95Z" fill="#00aa4f"/><path d="M183.44,1202.82c-202.31,0-404.47-100.09-527.63-261.24a697.28,697.28,0,0,1-59.41-88.13c-79.85-111.38-127.5-257.54-127.5-391.11V426.39c0-81.07,17-168.74,48-247.12a715.18,715.18,0,0,1,56.83-254.1A725.07,725.07,0,0,1-42.45-457.71a715.75,715.75,0,0,1,280.32-56.68c16.57,0,34.64.68,52.31,2,17.67-1.3,35.73-2,52.31-2A721.94,721.94,0,0,1,809.58-342.62a737.72,737.72,0,0,1,65.11,63C1027.87-155.91,1123,42.07,1123,237.26v50.35c12,51.57,18.61,107.19,18.61,156.77a681.87,681.87,0,0,1-106.82,367C998.6,885.85,946.37,957.05,887.69,1012,761.53,1130,596.51,1195,423,1195H410.9l-4.3,0-4.3,0h-5.36c-2.29,0-4.61,0-6.94,0s-4.64,0-6.94,0h-5.45c-4.24,0-8.57,0-12.86-.13-4.32.08-8.69.13-13,.13H340.44c-3.22,0-6.55,0-9.89-.08s-6.67.08-9.89.08h-5l-4.68,0-4.69,0h-4.91l-3.83,0-3.83,0h-4.1a678.61,678.61,0,0,1-101.23,7.88h-4.95Z" fill="#008453"/><path d="M183.44,1190.32c-198.54,0-396.93-98.26-517.77-256.42A683.31,683.31,0,0,1-393,846.7C-471.67,737.28-518.6,593.65-518.6,462.33V426.38c0-80.29,17-167,47.93-244.51A702.81,702.81,0,0,1-414.75-69.94,712.48,712.48,0,0,1-37.59-446.2a703.21,703.21,0,0,1,275.45-55.69c16.58,0,34.65.7,52.31,2,17.66-1.32,35.73-2,52.31-2a709.47,709.47,0,0,1,459,168.79,726.5,726.5,0,0,1,64.62,62.57c150.77,121.41,244.4,315.88,244.4,507.78V289c12,51.08,18.61,106.18,18.61,155.33a669.27,669.27,0,0,1-105.25,360.91c-35.56,73.35-86.94,143.48-144.72,197.53C755.3,1118.65,593.31,1182.45,423,1182.45H410.9l-4.3,0-4.3,0h-5.36c-2.29,0-4.61,0-6.94,0s-4.64,0-6.94,0h-5.45c-4.24,0-8.57,0-12.86-.13-4.32.08-8.69.13-13,.13H340.44c-3.2,0-6.53,0-9.89-.08s-6.69.08-9.89.08h-5l-4.68,0-4.69,0h-4.91l-3.83,0-3.83,0h-5.06a665.72,665.72,0,0,1-100.27,7.88h-4.95Z" fill="#00aa4f"/><path d="M183.44,1177.82c-194.79,0-389.4-96.42-507.92-251.61a670.8,670.8,0,0,1-58-86.26c-77.4-107.45-123.59-248.56-123.59-377.62V426.38c0-79.51,17-165.31,47.85-241.9A690.54,690.54,0,0,1-403.26-65,700,700,0,0,1-32.72-434.7a690.85,690.85,0,0,1,270.58-54.7c16.58,0,34.65.71,52.31,2,17.66-1.34,35.72-2,52.31-2a697,697,0,0,1,450.9,165.81,712.62,712.62,0,0,1,64.13,62.18C1005.87-142.35,1098,48.63,1098,237.23v53.24c12,50.58,18.61,105.16,18.61,153.87a656.77,656.77,0,0,1-103.68,354.8C978,871.39,927.48,940.44,870.6,993.65,749.09,1107.32,590.13,1169.92,423,1169.92H410.9l-4.3,0-4.3,0h-5.36c-2.29,0-4.61,0-6.94,0s-4.64,0-6.94,0h-5.45c-4.24,0-8.56,0-12.86-.13-4.33.09-8.7.13-13,.13H340.44c-3.17,0-6.49,0-9.89-.08s-6.73.08-9.89.08h-5l-4.68,0-4.69,0h-4.91l-3.83,0-3.83,0h-6a653,653,0,0,1-99.3,7.88h-4.95Z" fill="#008453"/><path d="M183.44,1165.32c-191,0-381.87-94.57-498.06-246.8A658.3,658.3,0,0,1-372,833.2c-76.18-105.49-121.64-244.07-121.64-370.87V426.38c0-78.73,17-163.61,47.78-239.28A678.15,678.15,0,0,1-391.76-60.15a687.52,687.52,0,0,1,363.91-363,678.35,678.35,0,0,1,265.71-53.72c16.59,0,34.65.72,52.31,2.09,17.66-1.37,35.72-2.09,52.31-2.09A684.46,684.46,0,0,1,785.29-314.07a700.44,700.44,0,0,1,63.64,61.8c145.94,116.72,236.58,304.19,236.58,489.51V292c12,50.07,18.61,104.13,18.61,152.4A644.19,644.19,0,0,1,1002,793c-34.29,71.15-84,139.13-139.94,191.5C742.88,1096,587,1157.44,423,1157.44H410.9l-4.3,0-4.3,0h-5.36c-2.29,0-4.61,0-6.94,0s-4.64,0-6.94,0h-5.45c-4.23,0-8.56,0-12.86-.13-4.33.09-8.7.13-13,.13H340.44c-3.18,0-6.5,0-9.89-.08s-6.72.08-9.89.08h-5l-4.68,0-4.69,0h-4.91l-3.83,0-3.83,0h-7a640.56,640.56,0,0,1-98.36,7.89Z" fill="#00aa4f"/><path d="M183.44,1152.82c-187.28,0-374.33-92.72-488.2-242a644,644,0,0,1-56.66-84.39C-436.37,722.93-481.1,586.87-481.1,462.33V426.38c0-77.95,16.93-161.9,47.71-236.66a665.47,665.47,0,0,1,53.14-245A675,675,0,0,1-23-411.66a666,666,0,0,1,260.85-52.73c16.59,0,34.66.73,52.31,2.12,17.65-1.39,35.72-2.12,52.31-2.12A671.93,671.93,0,0,1,777.21-304.53a687,687,0,0,1,63.15,61.41C983.89-128.74,1073,55.22,1073,237.24v56.2c12,49.56,18.61,103.09,18.61,150.92A631.72,631.72,0,0,1,991.09,786.94c-33.65,70-82.47,137-137.55,188.48C736.68,1084.74,583.78,1145,423,1145H410.9l-4.3,0-4.3,0h-5.36c-2.29,0-4.62,0-6.94,0s-4.64,0-6.94,0h-5.45c-4.23,0-8.55,0-12.86-.14-4.33.09-8.71.14-13,.14H340.44c-3.19,0-6.52,0-9.89-.08s-6.7.08-9.89.08h-5l-4.68,0-4.69,0h-4.91l-3.83,0-3.83,0H285.8a627.07,627.07,0,0,1-97.41,7.9h-4.95Z" fill="#008453"/><path d="M183.44,1140.32c-183.52,0-366.79-90.88-478.34-237.17a631.74,631.74,0,0,1-56-83.45C-424.6,718.16-468.61,584.62-468.61,462.33V426.38c0-77.18,16.91-160.19,47.65-234a653.1,653.1,0,0,1,52.2-242.7A662.48,662.48,0,0,1-18.12-400.15a653.63,653.63,0,0,1,256-51.74c16.59,0,34.66.75,52.31,2.16,17.65-1.42,35.71-2.16,52.31-2.16A659.4,659.4,0,0,1,769.09-295a673.9,673.9,0,0,1,62.66,61c141.12,112,228.75,292.49,228.75,471.22V295c12,49.05,18.61,102,18.61,149.42a619.23,619.23,0,0,1-99,336.47c-33,68.95-81,134.79-135.15,185.46-114.54,107.15-264.4,166.15-422,166.15H410.9l-4.3,0-4.3,0h-5.36c-2.29,0-4.62,0-6.94,0s-4.64,0-6.94,0h-5.45c-4.22,0-8.55,0-12.86-.14-4.34.09-8.71.14-13,.14H340.44c-3.17,0-6.5,0-9.89-.08s-6.72.08-9.89.08h-5l-4.68,0-4.69,0h-4.91l-3.83,0-3.83,0h-5.05l-3.52,0h-.34a614.35,614.35,0,0,1-96.43,7.9h-4.94Z" fill="#00aa4f"/><path d="M183.44,1127.82c-179.75,0-359.25-89-468.48-232.36a618.33,618.33,0,0,1-55.29-82.52c-72.5-99.57-115.77-230.58-115.77-350.62V426.37c0-76.4,16.89-158.48,47.6-231.4A640.65,640.65,0,0,1-357.25-45.46a650,650,0,0,1,344-343.19,641.1,641.1,0,0,1,251.11-50.76c16.6,0,34.66.76,52.31,2.21,17.65-1.44,35.71-2.21,52.31-2.21A646.92,646.92,0,0,1,761-285.5a662.4,662.4,0,0,1,62.18,60.66C961.9-115.15,1048,61.8,1048,237.23v59.21c12,48.53,18.61,101,18.61,147.9a606.64,606.64,0,0,1-97.41,330.35c-32.37,67.84-79.49,132.61-132.76,182.44-112.22,105-259,162.78-413.43,162.78H410.9l-4.3,0-4.3,0h-5.36c-2.29,0-4.62,0-6.94,0s-4.64,0-6.94,0h-5.45c-4.22,0-8.54-.05-12.85-.14-4.34.09-8.72.14-13,.14H340.44c-3.17,0-6.5,0-9.89-.08s-6.72.08-9.89.08h-5l-4.68,0-4.69,0h-4.91l-3.83,0-3.83,0h-5.05l-3.51,0h-1.4a602.21,602.21,0,0,1-95.37,7.89h-4.95Z" fill="#008453"/><path d="M183.44,1115.32c-176,0-351.7-87.18-458.63-227.54a606.19,606.19,0,0,1-54.6-81.58c-71.28-97.61-113.82-226.09-113.82-343.86V426.39c0-75.63,16.88-156.77,47.56-228.76A628.32,628.32,0,0,1-345.76-40.54,637.48,637.48,0,0,1-8.38-377.11a628.77,628.77,0,0,1,246.24-49.77c16.6,0,34.67.78,52.31,2.25,17.64-1.47,35.7-2.25,52.31-2.25A634.36,634.36,0,0,1,752.9-275.94a649.67,649.67,0,0,1,61.69,60.28C950.88-108.31,1035.5,65.13,1035.5,237.27V298c12,48,18.61,99.91,18.61,146.37a594.17,594.17,0,0,1-95.84,324.24c-31.72,66.75-78,130.44-130.36,179.43C718,1050.85,574.23,1107.46,423,1107.46H410.9l-4.3,0-4.3,0h-5.36c-2.29,0-4.62,0-6.94,0s-4.64,0-6.94,0h-5.45c-4.21,0-8.53,0-12.86-.15-4.35.1-8.72.15-13,.15H340.44c-3.2,0-6.52,0-9.89-.09s-6.69.09-9.89.09h-5l-4.68,0-4.69,0h-4.91l-3.83,0-3.83,0h-5.05l-3.51,0-2.45,0a589,589,0,0,1-94.32,7.89h-4.95Z" fill="#00aa4f"/><path d="M183.44,1102.82c-172.22,0-344.17-85.34-448.77-222.73a592.39,592.39,0,0,1-53.91-80.65C-389.3,703.81-431.1,577.85-431.1,462.33V426.38c0-74.86,16.87-155,47.53-226.12A616.06,616.06,0,0,1-334.24-35.66,625,625,0,0,1-3.5-365.62,616.23,616.23,0,0,1,237.87-414.4c16.61,0,34.67.79,52.31,2.29,17.64-1.5,35.7-2.29,52.31-2.29a621.93,621.93,0,0,1,402.33,148A637.25,637.25,0,0,1,806-206.53c133.88,105,217,274.93,217,443.77v62.29c12,47.46,18.61,98.83,18.61,144.82a581.63,581.63,0,0,1-94.28,318.13c-31.08,65.64-76.5,128.27-128,176.41-107.57,100.62-248.33,156-396.35,156H410.9l-4.3,0-4.3,0h-5.36c-2.29,0-4.62,0-6.94,0s-4.64,0-6.94,0h-5.45c-4.2,0-8.53,0-12.85-.15-4.35.1-8.73.15-13,.15H340.45c-3.18,0-6.51,0-9.89-.09s-6.71.09-9.89.09h-5l-4.68,0-4.69,0h-4.91l-3.83,0-3.83,0h-5.05l-3.51,0-3.49,0a576.08,576.08,0,0,1-93.28,7.88h-5Z" fill="#008453"/><path d="M183.44,1090.32c-168.47,0-336.64-83.5-438.91-217.92a580.44,580.44,0,0,1-53.22-79.71C-377.53,699-418.6,575.6-418.6,462.34V426.39c0-74.08,16.86-153.34,47.51-223.47A603.5,603.5,0,0,1-322.74-30.75,612.51,612.51,0,0,1,1.37-354.09a603.87,603.87,0,0,1,236.5-47.79c16.61,0,34.67.81,52.31,2.34,17.64-1.53,35.7-2.34,52.31-2.34a609.33,609.33,0,0,1,394.23,145,623.9,623.9,0,0,1,60.71,59.54C928.89-94.7,1010.51,71.72,1010.51,237.27v63.86c12,46.92,18.61,97.73,18.61,143.26a569.09,569.09,0,0,1-92.71,312C906,821,861.4,882.5,810.84,929.8c-105.24,98.45-243,152.67-387.81,152.67H410.9l-4.3,0-4.3,0h-5.36c-2.29,0-4.62,0-6.94,0s-4.64,0-6.94,0h-5.45c-4.2,0-8.52,0-12.85-.15-4.36.1-8.73.15-13,.15H340.44c-3.18,0-6.5,0-9.89-.09s-6.71.09-9.89.09h-5l-4.68,0-4.69,0h-4.91l-3.83,0-3.83,0h-5.05l-3.51,0-3.51,0h-1a563.35,563.35,0,0,1-92.24,7.88h-4.95Z" fill="#00aa4f"/><path d="M183.44,1077.82c-164.71,0-329.09-81.65-429-213.1a567.35,567.35,0,0,1-52.54-78.79c-67.61-91.69-108-212.59-108-323.59V426.39c0-73.32,16.85-151.62,47.49-220.82.82-328.22,268.09-595,596.48-595,16.61,0,34.68.82,52.31,2.39,17.63-1.56,35.69-2.39,52.31-2.39a596.86,596.86,0,0,1,386.14,142,611.89,611.89,0,0,1,60.22,59.17C917.89-87.92,998,75,998,237.24v65.44c12,46.38,18.61,96.63,18.61,141.68a556.59,556.59,0,0,1-91.15,305.91C895.68,813.71,852,874.19,802.3,920.65,699.38,1016.92,564.69,1070,423,1070H410.9l-4.3,0-4.3,0h-5.36c-2.29,0-4.62,0-6.94,0s-4.64,0-6.94,0h-5.45c-4.22,0-8.54,0-12.86-.16-4.33.1-8.71.16-13,.16H340.44c-3.19,0-6.52,0-9.89-.09s-6.7.09-9.89.09h-5l-4.68,0-4.69,0h-4.91l-3.83,0-3.83,0h-5.05l-3.51,0-3.51,0h-2.07a550.44,550.44,0,0,1-91.18,7.88h-5Z" fill="#008453"/><path d="M183.44,1065.32c-160.94,0-321.55-79.8-419.19-208.29a552.44,552.44,0,0,1-51.84-77.86c-66.39-89.71-106-208.08-106-316.84V426.38c0-72.55,16.85-149.9,47.49-218.16v-1.14c0-322,262-584,584-584,16.62,0,34.68.84,52.31,2.44,17.63-1.59,35.69-2.44,52.31-2.44a584.38,584.38,0,0,1,378,139,598,598,0,0,1,59.73,58.81c126.64,98,205.25,257.35,205.25,416.3v67c12,45.83,18.61,95.5,18.61,140.08a544.08,544.08,0,0,1-89.59,299.79c-29.15,62.34-72,121.75-120.77,167.36C693.17,1005.61,561.5,1057.43,423,1057.43H410.9l-4.3,0-4.3,0h-5.36c-2.29,0-4.62,0-6.94,0s-4.64,0-6.94,0h-5.45c-4.23,0-8.55,0-12.85-.16-4.32.11-8.7.16-13,.16H340.44c-3.17,0-6.5,0-9.89-.09s-6.72.09-9.89.09h-5l-4.68,0-4.69,0h-4.91l-3.83,0-3.83,0h-5.05l-3.51,0-3.51,0h-3.14a537.71,537.71,0,0,1-90.12,7.89Z" fill="#00aa4f"/><path d="M183.44,1052.82c-157.18,0-314-78-409.33-203.48A540.92,540.92,0,0,1-277,772.41C-342.21,684.67-381.1,568.83-381.1,462.33V426.38c0-71.78,16.86-148.19,47.51-215.5,0-1.29,0-2.56,0-3.8C-333.61-108-77.25-364.4,237.87-364.4c16.62,0,34.68.86,52.31,2.49,17.63-1.63,35.69-2.49,52.31-2.49a571.85,571.85,0,0,1,370,136.06,584.44,584.44,0,0,1,59.24,58.45C895.89-74.3,973,81.58,973,237.24V305.9c12,45.27,18.61,94.37,18.61,138.46a531.6,531.6,0,0,1-88,293.68c-28.5,61.24-70.51,119.58-118.37,164.35C687,994.32,558.32,1044.94,423,1044.94H410.9l-4.3,0-4.3,0h-5.36c-2.29,0-4.62,0-6.94,0s-4.64,0-6.94,0h-5.45c-4.23,0-8.55,0-12.85-.16-4.32.11-8.7.16-13,.16H340.44c-3.17,0-6.49,0-9.89-.1s-6.72.1-9.89.1h-5l-4.68,0-4.69,0h-4.91l-3.83,0-3.83,0h-5.05l-3.51,0-3.51,0h-4.21a525,525,0,0,1-89,7.89h-5Z" fill="#008453"/><path d="M183.44,1040.32C30,1040.32-123,964.2-216,841.65a527.37,527.37,0,0,1-50.46-76c-63.95-85.76-102.1-199.07-102.1-303.31V426.38c0-71,16.87-146.48,47.54-212.83q0-3.33-.05-6.47c0-308.22,250.76-559,559-559,16.63,0,34.69.88,52.31,2.54,17.62-1.66,35.68-2.54,52.31-2.54A559.32,559.32,0,0,1,704.34-218.82a572.17,572.17,0,0,1,58.75,58.09c121.8,93.25,197.42,245.61,197.42,398v70.3c12,44.7,18.61,93.22,18.61,136.82a519,519,0,0,1-86.48,287.57c-27.85,60.14-69,117.4-116,161.33C680.74,983,555.14,1032.44,423,1032.44H410.9l-4.3,0-4.3,0h-5.36c-2.29,0-4.62,0-6.94,0s-4.64,0-6.94,0h-5.45c-4.21,0-8.53-.06-12.85-.17-4.35.11-8.72.17-13,.17H340.44c-3.19,0-6.51,0-9.89-.1s-6.7.1-9.89.1h-5l-4.68,0-4.69,0h-4.91l-3.83,0-3.83,0h-5.05l-3.51,0-3.51,0h-5.3a512.36,512.36,0,0,1-88,7.89h-4.95Z" fill="#00aa4f"/><path d="M183.44,1027.82c-149.66,0-298.94-74.27-389.61-193.85a515.34,515.34,0,0,1-49.77-75.09c-62.72-83.77-100.15-194.56-100.15-296.55V426.38c0-70.26,16.89-144.78,47.59-210.16-.06-3.17-.09-6.23-.09-9.13,0-301.33,245.15-546.48,546.48-546.48,16.63,0,34.69.9,52.31,2.6,17.61-1.7,35.67-2.6,52.31-2.6A546.84,546.84,0,0,1,696.27-209.28a559.24,559.24,0,0,1,58.26,57.74C873.93-60.65,948,88.19,948,237.25v72c12,44.13,18.61,92.05,18.61,135.16a506.5,506.5,0,0,1-84.92,281.45c-27.2,59-67.5,115.23-113.56,158.32C674.54,971.72,552,1020,423,1020H410.9l-4.3,0-4.3,0h-5.36c-2.29,0-4.62,0-6.94-.05s-4.64.05-6.94.05h-5.45c-4.21,0-8.53-.06-12.85-.17-4.34.11-8.71.17-13,.17H340.44c-3.2,0-6.53,0-9.89-.1s-6.69.1-9.89.1h-5l-4.68,0-4.69,0h-4.91l-3.83,0-3.83,0h-5.05l-3.51,0-3.51,0h-6.37a499,499,0,0,1-86.89,7.89h-4.95Z" fill="#008453"/><path d="M183.44,1015.32c-145.9,0-291.4-72.44-379.76-189a501.84,501.84,0,0,1-49.08-74.17c-61.51-81.79-98.21-190-98.21-289.78V426.38c0-69.51,16.91-143.06,47.65-207.49-.1-4.09-.16-8.12-.16-11.81,0-294.44,239.54-534,534-534,16.64,0,34.7.92,52.31,2.66,17.61-1.74,35.67-2.66,52.31-2.66A534.31,534.31,0,0,1,688.14-199.77a548.59,548.59,0,0,1,57.78,57.39c117,88.53,189.59,233.86,189.59,379.62v73.64c12,43.54,18.61,90.87,18.61,133.48A494,494,0,0,1,870.75,719.7c-26.55,57.94-66,113.06-111.15,155.3C668.3,960.4,548.77,1007.44,423,1007.44H410.9l-4.3,0-4.3,0h-5.36c-2.29,0-4.62,0-6.94-.05s-4.64.05-6.94.05h-5.45c-4.23,0-8.55-.06-12.85-.18-4.32.12-8.69.18-13,.18H340.44c-3.22,0-6.54,0-9.89-.1s-6.67.1-9.89.1h-5l-4.68,0-4.69,0h-4.91l-3.83,0-3.83,0h-5.05l-3.51,0-3.51,0h-3.79l-3.43,0h-.25a486.45,486.45,0,0,1-85.8,7.9Z" fill="#00aa4f"/><path d="M183.44,1002.82c-142.15,0-283.86-70.58-369.9-184.22a488.79,488.79,0,0,1-48.39-73.25c-60.29-79.8-96.26-185.52-96.26-283V426.38c0-68.76,16.94-141.36,47.73-204.8-.16-5-.24-10-.24-14.5,0-287.54,233.93-521.48,521.48-521.48,16.65,0,34.7.94,52.31,2.72,17.61-1.78,35.66-2.72,52.31-2.72A521.78,521.78,0,0,1,680.05-190.24a534.4,534.4,0,0,1,57.29,57.05C851.9-47,923,94.77,923,237.24v75.34c12,43,18.61,89.68,18.61,131.77A481.47,481.47,0,0,1,859.8,713.58c-25.89,56.83-64.48,110.88-108.74,152.29-89,83.23-205.47,129.07-328,129.07H410.9l-4.3,0-4.3,0h-5.36c-2.29,0-4.62,0-6.94-.05s-4.64.05-6.94.05h-5.45c-4.22,0-8.54-.06-12.85-.18-4.33.12-8.7.18-13,.18H340.44c-3.23,0-6.56,0-9.89-.11s-6.66.11-9.89.11h-5l-4.68,0-4.69,0h-4.91l-3.83,0-3.83,0h-5.05l-3.51,0-3.51,0h-3.79l-3.42,0H273a474.06,474.06,0,0,1-84.62,7.89Z" fill="#008453"/><path d="M183.44,990.32c-138.38,0-276.32-68.74-360-179.41a475.6,475.6,0,0,1-47.69-72.33c-59.07-77.81-94.31-181-94.31-276.25V426.38c0-68,17-139.65,47.83-202.11-.22-5.92-.34-11.81-.34-17.19,0-280.65,228.33-509,509-509a515,515,0,0,1,52.31,2.79,517.78,517.78,0,0,1,52.31-2.79A509.32,509.32,0,0,1,672-180.72,523.28,523.28,0,0,1,728.76-124C840.9-40.21,910.51,98.07,910.51,237.24v77.07c12,42.36,18.61,88.47,18.61,130.05a469,469,0,0,1-80.27,263.11c-25.24,55.73-63,108.71-106.33,149.27-86.65,81-200.11,125.69-319.5,125.69H410.9l-4.3,0-4.3,0h-5.36c-2.29,0-4.62,0-6.94,0s-4.64,0-6.94,0h-5.45c-4.22,0-8.54-.06-12.85-.19-4.32.12-8.7.19-13,.19H340.44c-3.24,0-6.57,0-9.89-.11s-6.65.11-9.89.11h-5l-4.68,0-4.69,0h-4.91l-3.83,0-3.83,0h-5.05l-3.51,0-3.51,0h-3.79l-3.42,0-2.62,0a460.89,460.89,0,0,1-83.43,7.88h-4.95Z" fill="#00aa4f"/><path d="M183.44,977.82c-134.62,0-268.79-66.9-350.18-174.6a463,463,0,0,1-47-71.42C-271.59,656-306.1,555.32-306.1,462.33V426.38c0-67.27,17-137.94,48-199.41-.3-6.85-.46-13.66-.46-19.89,0-273.76,222.72-496.48,496.48-496.48a506.59,506.59,0,0,1,52.31,2.85,503.81,503.81,0,0,1,52.31-2.85A496.78,496.78,0,0,1,663.87-171.19a509,509,0,0,1,56.31,56.38C829.9-33.39,898,101.36,898,237.24v78.81c12,41.75,18.61,87.24,18.61,128.3a456.41,456.41,0,0,1-78.73,257C813.31,756,776.44,807.89,734,847.61c-84.32,78.88-194.76,122.32-311,122.32H410.9l-4.3,0-4.3,0h-5.36c-2.29,0-4.62,0-6.94-.06s-4.64.06-6.94.06h-5.45c-4.24,0-8.56-.06-12.85-.19-4.31.13-8.68.19-13,.19H340.44c-3.26,0-6.59,0-9.89-.11s-6.63.11-9.89.11h-5l-4.68,0-4.69,0h-4.91l-3.83,0-3.83,0h-5.05l-3.51,0-3.51,0h-3.79l-3.42,0-3.42,0h-.37a448.06,448.06,0,0,1-82.26,7.88h-4.95Z" fill="#008453"/><path d="M183.44,965.32c-130.86,0-261.25-65.05-340.32-169.78A449.83,449.83,0,0,1-203.18,725c-56.64-73.83-90.42-171.95-90.42-262.7V426.38c0-66.53,17.06-136.23,48.09-196.69-.39-7.77-.6-15.52-.6-22.61,0-266.87,217.11-484,484-484A490.7,490.7,0,0,1,290.17-274a490.56,490.56,0,0,1,52.31-2.93A484.23,484.23,0,0,1,655.76-161.67a496.78,496.78,0,0,1,55.82,56C818.9-26.57,885.51,104.66,885.51,237.24v80.59c12,41.14,18.61,86,18.61,126.53a443.85,443.85,0,0,1-77.18,250.88C803,748.76,767,799.6,725.43,838.48,643.43,915.19,536,957.43,423,957.43H410.9l-4.3,0-4.3,0h-5.36c-2.29,0-4.62,0-6.94-.06s-4.64.06-6.94.06h-5.45c-4.25,0-8.57-.07-12.85-.2-4.32.13-8.7.2-13,.2H340.44c-3.28,0-6.6,0-9.89-.12-3.29.08-6.61.12-9.89.12h-5l-4.68,0-4.69,0h-4.91l-3.83,0-3.83,0h-5.05l-3.51,0-3.51,0h-3.79l-3.42,0-3.42,0h-1.55a435.31,435.31,0,0,1-81.08,7.88h-4.95Z" fill="#00aa4f"/><path d="M183.44,952.82c-127.1,0-253.71-63.21-330.46-165a438.06,438.06,0,0,1-45.61-69.6c-55.42-71.84-88.48-167.42-88.48-255.92V426.38c0-65.79,17.12-134.52,48.25-194-.5-8.7-.76-17.39-.76-25.34,0-260,211.5-471.48,471.48-471.48a480.57,480.57,0,0,1,52.31,3,478.07,478.07,0,0,1,52.31-3A471.75,471.75,0,0,1,647.66-152.15,484.25,484.25,0,0,1,703-96.41C807.89-19.74,873,108,873,237.24v82.39c12,40.52,18.61,84.73,18.61,124.73A431.4,431.4,0,0,1,816,689.13c-23.26,52.43-58.41,102.19-99.08,140.24C637.21,903.9,532.85,945,423,945H410.9l-4.3,0-4.3,0h-5.36c-2.29,0-4.62,0-6.94-.06s-4.64.06-6.94.06h-5.45c-4.24,0-8.56-.07-12.85-.2-4.33.13-8.71.2-13,.2H340.44c-3.28,0-6.61,0-9.89-.12-3.28.08-6.61.12-9.89.12h-5l-4.68,0-4.69,0h-4.91l-3.83,0-3.83,0h-5.05l-3.51,0-3.51,0h-3.79l-3.42,0L271,945h-2.75a422.56,422.56,0,0,1-79.88,7.89h-4.95Z" fill="#008453"/><path d="M183.44,940.32C60.1,940.32-62.73,879-137.16,780.17a423.6,423.6,0,0,1-44.91-68.7c-54.2-69.84-86.54-162.88-86.54-249.14V426.38c0-65.06,17.18-132.8,48.45-191.22-.63-9.62-1-19.26-1-28.08,0-253.08,205.9-459,459-459a468.49,468.49,0,0,1,52.31,3.08,466.11,466.11,0,0,1,52.31-3.08A459.24,459.24,0,0,1,639.58-142.62,471.94,471.94,0,0,1,694.42-87.2c102.49,74.28,166.1,198.45,166.1,324.44v84.21c12,39.88,18.61,83.45,18.61,122.9A418.87,418.87,0,0,1,805,683c-22.59,51.33-56.88,100-96.65,137.22C631,892.58,529.67,932.43,423,932.43H410.9l-4.3,0-4.3,0h-5.36c-2.29,0-4.63,0-6.94-.06s-4.64.06-6.94.06h-5.45c-4.25,0-8.57-.07-12.85-.21-4.32.14-8.7.21-13,.21H340.44c-3.27,0-6.6,0-9.89-.12-3.29.08-6.62.12-9.89.12h-5l-4.68,0-4.69,0h-4.91l-3.83,0-3.83,0h-5.05l-3.51,0-3.51,0h-3.79l-3.42,0-3.42,0h-4a409.8,409.8,0,0,1-78.67,7.89Z" fill="#00aa4f"/><path d="M183.44,927.82c-119.58,0-238.63-59.52-310.74-155.34a411.3,411.3,0,0,1-44.21-67.79c-53-67.84-84.6-158.34-84.6-242.36V426.38c0-64.32,17.26-131.09,48.67-188.46-.77-10.56-1.17-21.14-1.17-30.84,0-246.19,200.29-446.48,446.48-446.48a452.69,452.69,0,0,1,52.31,3.17,454.79,454.79,0,0,1,52.31-3.17,446.71,446.71,0,0,1,289,106.3A457.92,457.92,0,0,1,685.83-78C785.9-6.09,848,114.53,848,237.24v86.07c12,39.24,18.61,82.14,18.61,121a406.4,406.4,0,0,1-72.57,232.53c-21.93,50.23-55.35,97.85-94.23,134.21-75,70.18-173.33,108.84-276.8,108.84H410.9l-4.3,0-4.3,0h-5.36c-2.29,0-4.63,0-6.94-.06s-4.64.06-6.94.06h-5.45c-4.25,0-8.56-.07-12.84-.21-4.33.14-8.7.21-13,.21H340.44c-3.28,0-6.61,0-9.89-.13-3.28.08-6.6.13-9.89.13h-5l-4.68,0-4.69,0h-4.91l-3.83,0-3.83,0h-5.05l-3.51,0-3.51,0h-3.79l-3.42,0-3.42,0h-5.16a396.66,396.66,0,0,1-77.47,7.9Z" fill="#008453"/><path d="M183.44,915.32c-115.82,0-231.09-57.67-300.88-150.53a398.41,398.41,0,0,1-43.5-66.89c-51.78-65.84-82.66-153.8-82.66-235.57V426.38c0-63.59,17.35-129.36,48.92-185.68-.93-11.49-1.42-23-1.42-33.62,0-239.3,194.68-434,434-434a442.14,442.14,0,0,1,52.31,3.26,442.14,442.14,0,0,1,52.31-3.26A434.21,434.21,0,0,1,623.4-123.57a445.79,445.79,0,0,1,53.86,54.82c97.67,69.5,158.27,186.58,158.27,306V325.2c12,38.58,18.61,80.82,18.61,119.16a393.92,393.92,0,0,1-71,226.42c-21.26,49.12-53.82,95.68-91.79,131.2-72.7,68-168,105.46-268.26,105.46H410.9l-4.3,0-4.3,0h-5.36c-2.26,0-4.6,0-6.94-.07s-4.67.07-6.94.07h-5.45c-4.23,0-8.55-.07-12.84-.22-4.34.15-8.72.22-13,.22H340.44c-3.28,0-6.61,0-9.89-.13-3.28.09-6.61.13-9.89.13h-5l-4.68,0-4.69,0h-4.91l-3.83,0-3.83,0h-5.05l-3.51,0-3.51,0h-3.79l-3.42,0-3.42,0h-2.25l-4.11,0a384.44,384.44,0,0,1-76.27,7.91h-4.95Z" fill="#00aa4f"/><path d="M183.44,902.82c-112.07,0-223.56-55.83-291-145.71a385.22,385.22,0,0,1-42.8-66c-50.56-63.83-80.72-149.25-80.72-228.78V426.39c0-62.87,17.45-127.64,49.2-182.88-1.12-12.42-1.71-24.93-1.71-36.42,0-232.4,189.07-421.48,421.48-421.48A429.92,429.92,0,0,1,290.18-211a429.92,429.92,0,0,1,52.31-3.35A421.7,421.7,0,0,1,615.29-114a433.4,433.4,0,0,1,53.37,54.53C763.92,7.59,823,121.13,823,237.25v89.87c12,37.92,18.61,79.47,18.61,117.25a381.34,381.34,0,0,1-69.52,220.3c-20.58,48-52.28,93.5-89.36,128.19C612.37,858.7,520.14,895,423,895H410.9l-4.3,0-4.3,0h-5.36c-2.25,0-4.58,0-6.94-.07s-4.68.07-6.93.07h-5.45c-4.23,0-8.55-.08-12.84-.23-4.34.15-8.72.23-13,.23H340.45c-3.29,0-6.62-.05-9.89-.14-3.27.09-6.6.14-9.89.14h-5l-4.68,0-4.69,0h-4.91l-3.83,0-3.83,0h-5.05l-3.51,0-3.51,0h-3.79l-3.42,0L271,895h-2.25c-1.72,0-3.5,0-5.31,0a371,371,0,0,1-75.06,7.92h-5Z" fill="#008453"/><path d="M183.44,890.32c-108.31,0-216-54-281.16-140.9a372,372,0,0,1-42.09-65.1c-49.35-61.82-78.79-144.7-78.79-222V426.39c0-62.14,17.56-125.91,49.52-180.06-1.33-13.36-2-26.84-2-39.24,0-225.51,183.47-409,409-409a416.52,416.52,0,0,1,52.31,3.45,416.52,416.52,0,0,1,52.31-3.45A409.17,409.17,0,0,1,607.2-104.51a419.46,419.46,0,0,1,52.87,54.25c92.84,64.7,150.45,174.69,150.45,287.52v91.82c12,37.24,18.61,78.1,18.61,115.3a368.89,368.89,0,0,1-68,214.18c-19.91,46.92-50.74,91.33-86.92,125.18C606.16,847.4,517,882.46,423,882.46H410.9l-4.3,0-4.3,0h-5.36c-2.25,0-4.59,0-6.94-.07s-4.68.07-6.93.07h-5.45c-4.24,0-8.55-.08-12.84-.24-4.33.16-8.71.24-13,.24H340.45c-3.27,0-6.6-.05-9.89-.14-3.29.09-6.61.14-9.89.14h-5l-4.68,0-4.69,0h-4.91l-3.83,0-3.83,0h-5.05l-3.51,0-3.51,0h-3.79l-3.42,0-3.42,0h-2.25c-2.1,0-4.29,0-6.52-.06a358.42,358.42,0,0,1-73.85,8h-5Z" fill="#00aa4f"/><path d="M183.44,877.82C78.89,877.82-25,825.68-87.86,741.73a359.06,359.06,0,0,1-41.38-64.21c-48.15-59.8-76.86-140.13-76.86-215.18V426.39c0-61.43,17.69-124.18,49.89-177.22a392.16,392.16,0,0,1-2.4-42.08c0-218.62,177.86-396.48,396.48-396.48a403.73,403.73,0,0,1,52.31,3.56,403.73,403.73,0,0,1,52.31-3.56A396.69,396.69,0,0,1,599.1-95a407.43,407.43,0,0,1,52.38,54C741.91,21.28,798,127.72,798,237.25v93.8c12,36.55,18.61,76.7,18.61,113.31a356.39,356.39,0,0,1-66.48,208.06c-19.23,45.83-49.19,89.17-84.47,122.17C600,836.08,513.78,869.94,423,869.94H410.9l-4.3,0-4.3,0h-5.36c-2.27,0-4.61,0-6.94-.07s-4.66.07-6.93.07h-5.45c-4.25,0-8.56-.08-12.83-.25-4.32.16-8.7.25-13,.25H340.45c-3.28,0-6.6-.05-9.89-.15-3.29.1-6.61.15-9.89.15h-5l-4.68,0-4.69,0h-4.91l-3.83,0-3.83,0h-5.05l-3.51,0-3.51,0h-3.79l-3.42,0-3.42,0h-2.25c-2.13,0-4.34,0-6.6-.07l-1.35,0a345.41,345.41,0,0,1-72.43,7.93Z" fill="#008453"/><path d="M183.44,865.32C82.65,865.32-17.51,815-78,734a346,346,0,0,1-40.67-63.33c-46.94-57.78-74.93-135.57-74.93-208.38V426.38c0-60.72,17.84-122.45,50.3-174.35a381.33,381.33,0,0,1-2.81-44.95c0-211.73,172.25-384,384-384a391.93,391.93,0,0,1,52.31,3.67,391.93,391.93,0,0,1,52.31-3.67A384.2,384.2,0,0,1,591-85.48a394.63,394.63,0,0,1,51.88,53.72c88,59.88,142.63,162.76,142.63,269v95.82c12,35.84,18.61,75.28,18.61,111.29a343.91,343.91,0,0,1-65,201.94c-18.54,44.72-47.63,87-82,119.17-63.4,59.31-146.54,92-234.1,92H410.9l-4.3,0-4.3,0h-5.36c-2.3,0-4.63,0-6.94-.07s-4.64.07-6.94.07h-5.45c-4.24,0-8.56-.09-12.83-.26-4.33.17-8.71.26-13,.26H340.44c-3.27,0-6.6-.05-9.89-.15-3.29.1-6.62.15-9.89.15h-5l-4.68,0-4.69,0h-4.91l-3.83,0-3.83,0h-5.05l-3.51,0-3.51,0h-3.79l-3.42,0-3.42,0h-2.25c-2.13,0-4.35,0-6.6-.07l-2.79,0a332.42,332.42,0,0,1-71,7.91Z" fill="#00aa4f"/><path d="M183.44,852.82c-97,0-193.41-48.45-251.58-126.47a332.92,332.92,0,0,1-39.95-62.45c-45.74-55.76-73-131-73-201.57V426.38c0-60,18-120.71,50.77-171.45a369.65,369.65,0,0,1-3.28-47.85C-133.61,2.25,33-164.4,237.87-164.4a379.27,379.27,0,0,1,52.31,3.79,379.16,379.16,0,0,1,52.31-3.79A371.62,371.62,0,0,1,582.91-75.95,382.54,382.54,0,0,1,634.3-22.47C719.92,35,773,134.3,773,237.24v97.88c12,35.12,18.61,73.83,18.61,109.24a331.38,331.38,0,0,1-63.47,195.81c-17.85,43.62-46.07,84.82-79.57,116.16C587.51,813.47,507.4,844.94,423,844.94H410.9l-4.3,0-4.3,0h-5.36c-2.28,0-4.61,0-6.94-.08s-4.66.08-6.94.08h-5.45c-4.23,0-8.54-.09-12.83-.27-4.34.18-8.72.27-13,.27H340.44c-3.27,0-6.59-.05-9.89-.16-3.3.1-6.62.16-9.89.16h-5c-1.54,0-3.11,0-4.68,0s-3.14,0-4.69,0h-4.91l-3.83,0c-1.28,0-2.55,0-3.83,0h-5.05l-3.51,0-3.51,0h-3.79l-3.42,0-3.42,0h-2.25c-2.13,0-4.35,0-6.6-.07l-4.24.06a319.68,319.68,0,0,1-69.54,7.89Z" fill="#008453"/><path d="M183.44,840.32c-93.28,0-185.88-46.61-241.73-121.66a320.29,320.29,0,0,1-39.23-61.58c-44.54-53.73-71.09-126.41-71.09-194.75V426.38a306,306,0,0,1,51.3-168.51,359.3,359.3,0,0,1-3.81-50.79c0-197.94,161-359,359-359A365.88,365.88,0,0,1,290.17-148a365.88,365.88,0,0,1,52.31-3.92A359.19,359.19,0,0,1,574.81-66.43,368.78,368.78,0,0,1,625.7-13.18c83.21,55,134.81,150.77,134.81,250.42v100c12,34.39,18.61,72.35,18.61,107.14a318.92,318.92,0,0,1-62,189.69c-17.16,42.52-44.5,82.66-77.1,113.16-58.76,55-135.83,85.23-217,85.23H410.9l-4.3,0-4.3,0h-5.36c-2.29,0-4.62,0-6.94-.08s-4.64.08-6.94.08h-5.45c-4.23,0-8.54-.09-12.82-.28-4.34.18-8.72.28-13,.28H340.44c-3.25,0-6.58-.05-9.89-.16-3.31.11-6.64.16-9.89.16h-5c-1.54,0-3.11,0-4.68,0s-3.14,0-4.69,0h-4.91c-1.28,0-2.55,0-3.83,0s-2.55,0-3.83,0h-5.05l-3.51,0-3.51,0h-3.79l-3.42,0-3.42,0h-2.25c-2.13,0-4.35,0-6.59-.08-1.91,0-3.82.07-5.69.07a307.18,307.18,0,0,1-68.09,7.89Z" fill="#00aa4f"/><path d="M183.44,827.82C93.91,827.82,5.1,783.05-48.43,711a306.89,306.89,0,0,1-38.5-60.71c-43.34-51.7-69.18-121.82-69.18-187.93V426.39a292.72,292.72,0,0,1,51.9-165.54,346.64,346.64,0,0,1-4.4-53.76c0-191,155.43-346.48,346.48-346.48a353.44,353.44,0,0,1,52.31,4.06,353.33,353.33,0,0,1,52.31-4.06,346.61,346.61,0,0,1,224.23,82.5,355.7,355.7,0,0,1,50.38,53C697.9,48.73,748,140.91,748,237.26V339.38c12,33.64,18.61,70.83,18.61,105a306.46,306.46,0,0,1-60.48,183.56c-16.46,41.42-42.92,80.49-74.63,110.16C575.08,790.89,501,820,423,820H410.9l-4.3,0-4.3,0h-5.36c-2.3,0-4.63,0-6.94-.08s-4.64.08-6.94.08h-5.45c-4.22,0-8.53-.1-12.82-.29-4.35.19-8.73.29-13,.29H340.44c-3.26,0-6.58-.06-9.89-.17-3.31.11-6.63.17-9.89.17h-5c-1.54,0-3.11,0-4.68,0s-3.14,0-4.69,0h-4.91c-1.28,0-2.55,0-3.83,0s-2.55,0-3.83,0h-5.05l-3.51,0-3.51,0h-3.79l-3.42,0L271,820h-2.25c-2.14,0-4.35,0-6.59-.08s-4.5.08-6.7.08H255a294.2,294.2,0,0,1-66.64,7.88h-5Z" fill="#008453"/><path d="M183.44,815.32c-85.77,0-170.81-42.92-222-112a294.18,294.18,0,0,1-37.77-59.85c-42.15-49.65-67.27-117.22-67.27-181.1V426.39A279.53,279.53,0,0,1-91,263.87a335.49,335.49,0,0,1-5.08-56.78c0-184.16,149.82-334,334-334a340.59,340.59,0,0,1,52.31,4.21,340.59,340.59,0,0,1,52.31-4.21A334.1,334.1,0,0,1,558.61-47.37,342.91,342.91,0,0,1,608.49,5.47c78.4,50.14,127,138.73,127,231.78v104.3c12,32.87,18.61,69.29,18.61,102.81a294,294,0,0,1-59,177.43C679.35,662.11,653.77,700.11,623,729,568.84,779.57,497.83,807.44,423,807.44H410.9l-4.3,0-4.3,0h-5.36c-2.29,0-4.62,0-6.94-.09s-4.65.09-6.94.09h-5.45c-4.23,0-8.54-.1-12.81-.3-4.36.2-8.75.3-13.05.3H340.44c-3.27,0-6.59-.06-9.89-.18-3.29.12-6.62.18-9.89.18h-5c-1.54,0-3.11,0-4.68,0s-3.14,0-4.69,0h-4.91c-1.28,0-2.55,0-3.83,0s-2.55,0-3.83,0h-5.05l-3.51,0-3.51,0h-3.79l-3.42,0-3.43,0h-2.25c-2.14,0-4.35,0-6.59-.08s-4.5.08-6.7.08h-1.91a281.41,281.41,0,0,1-65.17,7.88Z" fill="#00aa4f"/><path d="M183.44,802.82c-82,0-163.27-41.07-212.14-107.22a280.69,280.69,0,0,1-37-59c-41-47.6-65.37-112.6-65.37-174.26V426.39A266.34,266.34,0,0,1-77.76,266.93a323.9,323.9,0,0,1-5.84-59.84c0-177.26,144.21-321.48,321.48-321.48A328.59,328.59,0,0,1,290.19-110a328.59,328.59,0,0,1,52.31-4.37,321.57,321.57,0,0,1,208,76.55,330.33,330.33,0,0,1,49.37,52.66C675.91,62.5,723,147.5,723,237.25V343.79c12,32.09,18.61,67.71,18.61,100.57a281.66,281.66,0,0,1-57.16,170.81l-.37.5c-15,39.22-39.72,76.15-69.66,104.16C562.66,768.27,494.68,795,423,795H410.9c-1.42,0-2.86,0-4.3,0s-2.88,0-4.3,0h-5.36c-2.31,0-4.64,0-6.94-.09s-4.63.09-6.94.09h-5.45c-4.22,0-8.53-.11-12.81-.31-4.37.21-8.75.31-13.05.31H340.44c-3.26,0-6.58-.06-9.89-.19-3.31.13-6.63.19-9.89.19h-5c-1.54,0-3.11,0-4.68,0s-3.14,0-4.69,0h-4.91c-1.28,0-2.55,0-3.83,0s-2.55,0-3.83,0h-5.05l-3.51,0c-1.17,0-2.35,0-3.51,0h-3.79l-3.42,0L271,795h-2.25c-2.12,0-4.34,0-6.59-.08s-4.51.08-6.7.08h-3.41a268.67,268.67,0,0,1-63.67,7.88h-4.95Z" fill="#008453"/><path d="M183.44,790.32c-78.26,0-155.73-39.23-202.28-102.41a268,268,0,0,1-36.29-58.17c-39.78-45.55-63.47-108-63.47-167.41V426.38A253.21,253.21,0,0,1-64.39,270a312.2,312.2,0,0,1-6.71-63c0-170.37,138.61-309,309-309a315.21,315.21,0,0,1,52.31,4.55,315.21,315.21,0,0,1,52.31-4.55A309.07,309.07,0,0,1,542.44-28.33,317.34,317.34,0,0,1,591.3,24.18c73.6,45.21,119.22,126.6,119.22,213.06V346.07c12,31.28,18.61,66.09,18.61,98.28a269.3,269.3,0,0,1-54.64,163.29l-1.44,1.89c-14.31,38.13-38.11,74-67.15,101.16C556.44,757,491.5,782.44,423,782.44H410.9c-1.42,0-2.86,0-4.3,0s-2.88,0-4.3,0h-5.36c-2.3,0-4.63,0-6.94-.1s-4.64.1-6.94.1h-5.45c-4.23,0-8.53-.11-12.8-.33-4.36.22-8.75.33-13.06.33H340.44c-3.27,0-6.59-.07-9.89-.2-3.3.13-6.62.2-9.89.2h-5c-1.54,0-3.11,0-4.68,0s-3.14,0-4.69,0h-4.91c-1.28,0-2.55,0-3.83,0s-2.55,0-3.83,0h-5.05l-3.51,0c-1.17,0-2.35,0-3.51,0h-3.79l-3.42,0c-1.15,0-2.29,0-3.43,0h-2.25c-2.13,0-4.35,0-6.59-.09s-4.53.09-6.7.09h-5a255.85,255.85,0,0,1-62.13,7.88Z" fill="#00aa4f"/><path d="M183.44,777.82c-74.5,0-148.2-37.39-192.42-97.6a255.11,255.11,0,0,1-35.54-57.34c-38.6-43.48-61.59-103.33-61.59-160.55V426.38a240.31,240.31,0,0,1,55.2-153.15,300.37,300.37,0,0,1-7.71-66.15c0-163.48,133-296.48,296.48-296.48a302.88,302.88,0,0,1,52.31,4.73,302.88,302.88,0,0,1,52.31-4.73A296.54,296.54,0,0,1,534.33-18.8a304.74,304.74,0,0,1,48.34,52.38A238.64,238.64,0,0,1,698,237.25V345.72c0,.88,0,1.77,0,2.67,12,30.47,18.62,64.45,18.62,96a256.75,256.75,0,0,1-52.13,155.76c-.81,1.08-1.65,2.17-2.51,3.27-13.58,37-36.48,71.83-64.64,98.17C550.18,745.66,488.28,770,423,770H410.9c-1.42,0-2.86,0-4.3,0s-2.88,0-4.3,0h-5.36c-2.3,0-4.63,0-6.94-.1s-4.64.1-6.94.1h-5.45c-4.22,0-8.52-.12-12.8-.35-4.37.23-8.76.35-13.06.35H340.44c-3.27,0-6.6-.07-9.89-.21-3.29.14-6.62.21-9.89.21h-5c-1.54,0-3.11,0-4.68-.05s-3.14.05-4.69.05h-4.91c-1.28,0-2.56,0-3.83,0s-2.55,0-3.83,0h-5.05q-1.76,0-3.51,0c-1.17,0-2.35,0-3.51,0h-3.79l-3.42,0c-1.15,0-2.29,0-3.43,0h-2.25c-2.13,0-4.34,0-6.59-.09s-4.54.09-6.7.09h-6.54a243,243,0,0,1-60.54,7.88h-4.95Z" fill="#008453"/><path d="M183.44,765.32c-70.75,0-140.67-35.54-182.56-92.79A241.54,241.54,0,0,1-33.89,616c-37.42-41.4-59.71-98.68-59.71-153.68V426.38A227.77,227.77,0,0,1-39,278.47q.84-1,1.71-2a288.27,288.27,0,0,1-8.85-69.41c0-156.59,127.39-284,284-284A290.64,290.64,0,0,1,290.17-72a290.64,290.64,0,0,1,52.31-4.94A284,284,0,0,1,526.23-9.28,291.53,291.53,0,0,1,574.05,43l1.85,1.09A226.11,226.11,0,0,1,685.5,237.24V345.71c0,1.64,0,3.31-.06,5,12,29.65,18.66,62.8,18.66,93.67A244.39,244.39,0,0,1,654.49,592.6c-1.17,1.55-2.37,3.11-3.6,4.65-12.84,35.94-34.83,69.67-62.11,95.19-44.81,41.92-103.69,65-165.78,65H410.9c-1.42,0-2.86,0-4.3,0s-2.89,0-4.3,0h-5.36c-2.3,0-4.63,0-6.94-.11s-4.64.11-6.94.11h-5.45c-4.22,0-8.52-.12-12.79-.37-4.37.24-8.76.37-13.07.37H340.44c-3.27,0-6.6-.07-9.89-.22-3.29.14-6.62.22-9.89.22h-5c-1.54,0-3.11,0-4.68-.05s-3.15.05-4.69.05h-4.91c-1.28,0-2.56,0-3.83,0s-2.55,0-3.83,0h-5.05l-3.51,0-3.51,0h-3.79l-3.42,0-3.43,0h-2.25c-2.14,0-4.35,0-6.58-.1s-4.53.1-6.71.1H247.3a230.13,230.13,0,0,1-58.92,7.88Z" fill="#00aa4f"/><path d="M183.44,752.82c-67,0-133.13-33.7-172.69-88a228.61,228.61,0,0,1-34-55.72c-36.26-39.3-57.85-94-57.85-146.79V426.39A215.19,215.19,0,0,1-29.47,286.61c1.94-2.26,3.95-4.52,6-6.74A276.31,276.31,0,0,1-33.6,207.1c0-149.72,121.77-271.5,271.46-271.5a276.83,276.83,0,0,1,52.31,5.17,277.65,277.65,0,0,1,52.31-5.17A271.59,271.59,0,0,1,518.14.24a278.66,278.66,0,0,1,47.29,52.21c1.38.78,2.74,1.58,4.07,2.37A213.53,213.53,0,0,1,673,237.24V345.71q0,3.62-.13,7.28c12.09,28.82,18.73,61.14,18.73,91.36a232,232,0,0,1-47.09,140.71c-1.51,2-3.08,4-4.7,6-12.08,34.85-33.17,67.52-59.56,92.21C537.76,723,481.92,744.93,423,744.93H410.9c-1.42,0-2.86,0-4.3,0s-2.89,0-4.3,0h-5.36c-2.29,0-4.62,0-6.94-.11s-4.65.11-6.94.11h-5.45c-4.22,0-8.52-.13-12.78-.39-4.37.26-8.76.39-13.08.39H340.44c-3.27,0-6.59-.08-9.89-.23-3.3.15-6.62.23-9.89.23h-5c-1.54,0-3.11,0-4.68,0s-3.15,0-4.69,0h-4.91c-1.28,0-2.56,0-3.83,0s-2.55,0-3.83,0h-5.05l-3.51,0-3.51,0h-3.79l-3.42,0-3.43,0h-2.25c-2.14,0-4.35,0-6.58-.1s-4.53.1-6.71.1h-9.84a217.33,217.33,0,0,1-57.24,7.88h-4.95Z" fill="#008453"/><path d="M183.44,740.32c-63.25,0-125.6-31.85-162.83-83.16A215.45,215.45,0,0,1-12.6,602.22c-35.11-37.19-56-89.3-56-139.89V426.38A202.73,202.73,0,0,1-20,294.72c3.31-3.87,6.84-7.68,10.55-11.39a264.35,264.35,0,0,1-11.69-76.25c0-142.8,116.18-259,259-259a265,265,0,0,1,52.31,5.41,265,265,0,0,1,52.31-5.41A259,259,0,0,1,510.05,9.77,265.86,265.86,0,0,1,556.8,62c2.13,1.17,4.24,2.38,6.3,3.61a201,201,0,0,1,97.42,171.69V345.72c0,3.17-.08,6.38-.23,9.59,12.16,28,18.84,59.48,18.84,89.05a219.6,219.6,0,0,1-44.57,133.19c-1.86,2.47-3.82,5-5.83,7.39-11.31,33.76-31.48,65.37-57,89.24-40.16,37.57-93,58.26-148.71,58.26H410.9c-1.42,0-2.86,0-4.3-.05s-2.89.05-4.31.05h-5.36c-2.3,0-4.63,0-6.94-.12-2.31.08-4.64.12-6.94.12H377.6c-4.22,0-8.52-.14-12.77-.41-4.37.27-8.77.41-13.09.41H340.43c-3.27,0-6.59-.08-9.89-.24-3.3.16-6.62.24-9.89.24h-5c-1.54,0-3.11,0-4.68-.05s-3.15.05-4.69.05h-4.91c-1.28,0-2.56,0-3.83,0s-2.55,0-3.83,0h-5l-3.51,0-3.51,0h-3.79l-3.42,0-3.43,0h-2.25c-2.15,0-4.36,0-6.58-.11s-4.52.11-6.71.11H243.9a204.51,204.51,0,0,1-55.52,7.88Z" fill="#00aa4f"/><path d="M183.44,727.82c-59.5,0-118.06-30-153-78.35A202.6,202.6,0,0,1-1.92,595.3c-34-35.07-54.18-84.57-54.18-133V426.39A190.22,190.22,0,0,1-10.47,302.85,186.14,186.14,0,0,1,4.87,287,255.16,255.16,0,0,1-8.6,207.09C-8.62,71.17,102-39.4,237.86-39.4a251.38,251.38,0,0,1,52.31,5.69,252.06,252.06,0,0,1,52.31-5.69A246.53,246.53,0,0,1,502,19.29a252.47,252.47,0,0,1,46.2,52.19c2.9,1.53,5.76,3.14,8.53,4.8a188.42,188.42,0,0,1,91.33,161V345.71c0,3.94-.13,7.93-.38,11.91a214.85,214.85,0,0,1,19,86.74,207.22,207.22,0,0,1-42,125.67c-2.22,2.94-4.56,5.88-7,8.75a206.24,206.24,0,0,1-54.4,86.27c-37.84,35.4-87.62,54.89-140.17,54.89H410.9c-1.42,0-2.86,0-4.3-.05s-2.89.05-4.31.05h-5.36c-2.29,0-4.62,0-6.94-.13-2.32.09-4.65.13-6.94.13H377.6c-4.22,0-8.51-.15-12.76-.44-4.37.29-8.77.44-13.1.44H340.43c-3.27,0-6.6-.09-9.89-.26-3.29.17-6.62.26-9.89.26h-5c-1.54,0-3.11,0-4.68-.06s-3.15.06-4.69.06h-4.91c-1.28,0-2.56,0-3.83,0s-2.55,0-3.83,0h-5l-3.51,0-3.51,0h-3.79l-3.42,0-3.43,0h-2.25c-2.14,0-4.35,0-6.57-.12-2.27.08-4.53.12-6.72.12h-13.3a191.61,191.61,0,0,1-53.78,7.9h-4.94Z" fill="#008453"/><path d="M183.44,715.32c-55.75,0-110.53-28.17-143.1-73.54A189.61,189.61,0,0,1,8.77,588.35c-32.84-32.92-52.37-79.81-52.37-126V426.39A177.7,177.7,0,0,1-1,311a180.51,180.51,0,0,1,20.45-20.26,241.89,241.89,0,0,1-15.6-83.64c0-129,105-234,234-234a239.17,239.17,0,0,1,52.31,6,239.17,239.17,0,0,1,52.31-6A234,234,0,0,1,493.85,28.82a239.57,239.57,0,0,1,45.63,52.26c3.67,1.86,7.29,3.85,10.78,5.94A175.84,175.84,0,0,1,635.5,237.25V345.72c0,4.71-.19,9.48-.58,14.22a201.6,201.6,0,0,1,19.19,84.42A194.75,194.75,0,0,1,614.57,562.5c-2.58,3.42-5.31,6.81-8.16,10.1a193.15,193.15,0,0,1-51.78,83.32c-35.51,33.22-82.26,51.52-131.63,51.52H410.9c-1.42,0-2.86,0-4.3-.05s-2.89.05-4.31.05h-5.36c-2.28,0-4.61-.05-6.94-.14-2.32.09-4.66.14-6.94.14H377.6c-4.22,0-8.5-.16-12.75-.47-4.36.31-8.77.47-13.11.47H340.43c-3.27,0-6.59-.09-9.89-.28-3.29.19-6.62.28-9.89.28h-5c-1.54,0-3.11,0-4.68-.06s-3.15.06-4.69.06h-4.91c-1.28,0-2.56,0-3.83,0s-2.55,0-3.83,0h-5c-1.17,0-2.34,0-3.51,0s-2.35,0-3.51,0h-3.79l-3.42,0-3.43,0h-2.25c-2.15,0-4.35,0-6.57-.12-2.27.08-4.53.12-6.72.12h-11c-1.27,0-2.56,0-3.83,0h-.3a179,179,0,0,1-52,7.92h-4.94Z" fill="#00aa4f"/><path d="M183.44,702.82c-52,0-103-26.32-133.23-68.73a176.76,176.76,0,0,1-30.72-52.72c-31.73-30.75-50.6-75-50.6-119V426.39A165.2,165.2,0,0,1,8.52,319.1a169.29,169.29,0,0,1,25-23.7v-3A229,229,0,0,1,16.38,207.1C16.38,85,115.73-14.38,237.86-14.38A225.78,225.78,0,0,1,290.17-8a226.32,226.32,0,0,1,52.31-6.33A221.51,221.51,0,0,1,485.76,38.36a226.54,226.54,0,0,1,45,52.39c4.46,2.14,8.84,4.5,13.05,7A163.29,163.29,0,0,1,623,237.26V345.73a163.72,163.72,0,0,1-.84,16.54,188.34,188.34,0,0,1,19.45,82.11,182.37,182.37,0,0,1-37,110.62c-2.94,3.9-6.09,7.74-9.37,11.44a180.11,180.11,0,0,1-49.12,80.38C512.91,677.87,469.2,695,423,695H410.9c-1.41,0-2.86,0-4.3-.06s-2.89.06-4.3.06h-5.36c-2.29,0-4.62-.05-6.94-.15-2.32.1-4.65.15-6.94.15h-5.45c-4.21,0-8.49-.17-12.73-.5-4.37.33-8.78.5-13.13.5H340.44c-3.27,0-6.59-.1-9.89-.3-3.3.2-6.62.3-9.89.3h-5c-1.53,0-3.1,0-4.68-.07s-3.15.07-4.69.07h-4.91c-1.28,0-2.56,0-3.83,0s-2.55,0-3.83,0h-5.05c-1.17,0-2.34,0-3.51,0s-2.35,0-3.51,0h-3.79c-1.13,0-2.28,0-3.42,0s-2.29,0-3.43,0h-2.25c-2.15,0-4.35,0-6.56-.13-2.27.09-4.53.13-6.73.13H244.52c-1.27,0-2.56,0-3.83,0l-2.31,0a165.8,165.8,0,0,1-50,7.89h-4.94Z" fill="#008453"/><path d="M183.44,690.32c-48.25,0-95.46-24.48-123.36-63.92a163.52,163.52,0,0,1-29.83-52c-30.65-28.55-48.86-70.16-48.86-112V426.38A152.74,152.74,0,0,1,18,327.21a155.73,155.73,0,0,1,28-25.52V289.83a215.8,215.8,0,0,1-17.17-82.75c0-115.24,93.75-209,209-209a212.93,212.93,0,0,1,52.31,6.71A213.35,213.35,0,0,1,342.48-1.9,208.94,208.94,0,0,1,477.66,47.87a213.37,213.37,0,0,1,44.44,52.6,150.08,150.08,0,0,1,88.4,136.78V345.72a152.68,152.68,0,0,1-1.18,18.86,175,175,0,0,1,19.79,79.79,170,170,0,0,1-34.5,103.09c-3.31,4.39-6.87,8.67-10.63,12.76a167.07,167.07,0,0,1-46.42,77.45C506.69,666.54,466,682.45,423,682.45H410.9c-1.41,0-2.86,0-4.3-.06s-2.89.06-4.3.06h-5.36c-2.29,0-4.62-.05-6.94-.16-2.32.11-4.65.16-6.94.16h-5.45c-4.21,0-8.48-.18-12.72-.54-4.38.36-8.79.54-13.14.54H340.44c-3.27,0-6.59-.11-9.89-.33-3.3.22-6.62.33-9.89.33h-5c-1.52,0-3.09,0-4.68-.07s-3.16.07-4.69.07h-4.91c-1.28,0-2.56,0-3.83-.05s-2.55.05-3.83.05h-5.05c-1.17,0-2.34,0-3.51,0s-2.35,0-3.51,0h-3.79c-1.13,0-2.28,0-3.42,0s-2.29,0-3.43,0h-2.25c-2.16,0-4.36-.05-6.56-.14-2.26.09-4.52.14-6.73.14H244.52c-1.27,0-2.56,0-3.83-.05s-2.56.05-3.83.05h-.49a153.12,153.12,0,0,1-48,7.88h-4.95Z" fill="#00aa4f"/><path d="M183.44,677.82c-44.5,0-87.92-22.63-113.49-59.11a150.52,150.52,0,0,1-28.89-51.43A141.94,141.94,0,0,1-6.1,462.33V426.38a140.17,140.17,0,0,1,33.63-91,142.56,142.56,0,0,1,31-27V287.25a202.47,202.47,0,0,1-17.17-80.16c0-108.34,88.14-196.48,196.48-196.48a200.19,200.19,0,0,1,52.31,7.14,200.13,200.13,0,0,1,52.31-7.14A196.46,196.46,0,0,1,469.57,57.4a200.15,200.15,0,0,1,43.8,52.91A137.54,137.54,0,0,1,598,237.25V345.72a138.9,138.9,0,0,1-1.63,21.18,161.66,161.66,0,0,1,20.24,77.47,157.6,157.6,0,0,1-32,95.57A160.7,160.7,0,0,1,572.69,554,154,154,0,0,1,529,628.55c-28.54,26.7-66.19,41.4-106,41.4H410.9c-1.41,0-2.85,0-4.3-.07s-2.89.07-4.3.07h-5.36c-2.29,0-4.63-.06-6.94-.17-2.31.12-4.64.17-6.94.17h-5.45c-4.2,0-8.47-.2-12.7-.59-4.38.39-8.8.59-13.16.59H340.44c-3.27,0-6.59-.12-9.89-.35-3.3.24-6.62.35-9.89.35h-5c-1.53,0-3.1,0-4.68-.08s-3.15.08-4.69.08h-4.91c-1.28,0-2.56,0-3.83-.05s-2.55.05-3.83.05h-5.05c-1.17,0-2.34,0-3.51,0s-2.35,0-3.51,0h-3.79c-1.13,0-2.28,0-3.42,0s-2.29,0-3.43,0h-2.25c-2.16,0-4.36-.05-6.55-.16-2.26.1-4.52.16-6.74.16H244.52c-1.27,0-2.56,0-3.83-.05s-2.56.05-3.83.05h-2.57a140.26,140.26,0,0,1-45.9,7.88h-4.95Z" fill="#008453"/><path d="M183.44,665.32c-40.76,0-80.39-20.79-103.61-54.3a137.41,137.41,0,0,1-27.9-50.87A128.67,128.67,0,0,1,6.4,462.32V426.37A127.71,127.71,0,0,1,37,343.45a129.26,129.26,0,0,1,34-28.1v-30.8a189.29,189.29,0,0,1-17.17-77.48c0-101.45,82.53-184,184-184a187.06,187.06,0,0,1,52.31,7.64,187.32,187.32,0,0,1,52.31-7.64,183.93,183.93,0,0,1,119,43.82,187,187,0,0,1,43.13,53.35,125.09,125.09,0,0,1,80.91,117V345.7a124.82,124.82,0,0,1-2.22,23.5,148.35,148.35,0,0,1,20.82,75.15,145.22,145.22,0,0,1-29.46,88,146.74,146.74,0,0,1-13.32,15.33A140.89,140.89,0,0,1,520.5,619.4c-26.22,24.53-60.83,38-97.47,38H410.9c-1.42,0-2.86,0-4.3-.07s-2.88.07-4.3.07h-5.36c-2.3,0-4.63-.06-6.94-.19-2.31.13-4.64.19-6.94.19h-5.45c-4.2,0-8.46-.22-12.68-.64-4.38.43-8.81.64-13.18.64H340.44c-3.27,0-6.59-.13-9.89-.39-3.3.26-6.62.39-9.89.39h-5c-1.52,0-3.1,0-4.68-.09s-3.16.09-4.69.09h-4.91c-1.28,0-2.57,0-3.83-.06s-2.55.06-3.83.06h-5.05c-1.17,0-2.35,0-3.52,0s-2.35,0-3.51,0h-3.79c-1.13,0-2.28,0-3.42,0s-2.29,0-3.43,0h-2.25c-2.16,0-4.35-.06-6.54-.17-2.26.11-4.53.17-6.75.17h-11c-1.27,0-2.56,0-3.83-.06s-2.56.06-3.83.06H232.1a127.43,127.43,0,0,1-43.72,7.88h-4.94Z" fill="#00aa4f"/><path d="M183.44,652.82a114.86,114.86,0,0,1-93.73-49.49A124.78,124.78,0,0,1,62.88,553a115.39,115.39,0,0,1-44-90.62V426.38A115.35,115.35,0,0,1,83.55,322.87v-41.1a176.11,176.11,0,0,1-17.17-74.69c0-94.55,76.92-171.48,171.48-171.48a174.22,174.22,0,0,1,52.31,8.21,174.22,174.22,0,0,1,52.31-8.21A171.39,171.39,0,0,1,453.37,76.44a173.75,173.75,0,0,1,42.42,54A112.59,112.59,0,0,1,573,237.24V345.71a112.22,112.22,0,0,1-3,25.82,135,135,0,0,1,21.6,72.83,132.73,132.73,0,0,1-27,80.52,134.29,134.29,0,0,1-14.8,16.56,127.88,127.88,0,0,1-37.92,68.83A129.54,129.54,0,0,1,423,644.93H410.9c-1.41,0-2.86,0-4.3-.08s-2.89.08-4.3.08h-5.36c-2.3,0-4.63-.07-6.94-.21-2.31.14-4.64.21-6.94.21h-5.45a114.43,114.43,0,0,1-12.66-.71,124.2,124.2,0,0,1-13.2.71H340.44c-3.28,0-6.6-.15-9.89-.43-3.29.29-6.61.43-9.89.43h-5c-1.53,0-3.1,0-4.68-.1s-3.15.1-4.69.1h-4.91c-1.27,0-2.56,0-3.83-.07s-2.56.07-3.83.07h-5.05c-1.17,0-2.35,0-3.52,0s-2.35,0-3.51,0h-3.79c-1.13,0-2.28,0-3.42,0s-2.29,0-3.43,0h-2.25c-2.15,0-4.35-.06-6.53-.19-2.26.13-4.53.19-6.76.19h-11c-1.26,0-2.55,0-3.83-.07s-2.57.07-3.83.07h-4.91l-2.09,0a114.44,114.44,0,0,1-41.48,7.9h-4.93Z" fill="#008453"/><path d="M183.44,640.32A102,102,0,0,1,99.6,595.65a111.89,111.89,0,0,1-25.65-50,102.18,102.18,0,0,1-42.56-83.31V426.39A102.86,102.86,0,0,1,96.05,331V278.89A162.91,162.91,0,0,1,78.88,207.1c0-87.66,71.32-159,159-159A161.14,161.14,0,0,1,290.17,57a161.14,161.14,0,0,1,52.31-8.88A159.43,159.43,0,0,1,486.92,140.8a100,100,0,0,1,73.58,96.45V345.72a99.23,99.23,0,0,1-4,28.13,121.66,121.66,0,0,1,22.64,70.51,121.3,121.3,0,0,1-40.82,90.75,114.87,114.87,0,0,1-34.89,66A117.06,117.06,0,0,1,423,632.44H410.9c-1.42,0-2.87,0-4.3-.09s-2.88.09-4.3.09h-5.36c-2.3,0-4.63-.08-6.94-.24-2.31.16-4.64.24-6.94.24h-5.45a100.75,100.75,0,0,1-12.62-.8,110.7,110.7,0,0,1-13.24.8H340.44c-3.28,0-6.6-.16-9.89-.49-3.29.32-6.61.49-9.89.49h-5c-1.53,0-3.1,0-4.68-.11s-3.15.11-4.69.11h-4.91c-1.27,0-2.55,0-3.83-.07s-2.56.07-3.83.07h-5.05c-1.16,0-2.34,0-3.52-.06s-2.35.06-3.51.06h-3.79c-1.13,0-2.28,0-3.42-.06s-2.29.06-3.43.06h-2.25c-2.16,0-4.35-.07-6.52-.21-2.26.14-4.53.21-6.77.21h-11c-1.26,0-2.54,0-3.83-.07s-2.57.07-3.83.07h-4.91c-1.44,0-2.89,0-4.34-.09a101.62,101.62,0,0,1-39.22,8h-4.94Z" fill="#00aa4f"/><path d="M183.44,627.82A89.24,89.24,0,0,1,109.5,588a100.36,100.36,0,0,1-24.31-49.78,90.09,90.09,0,0,1-41.3-75.84V426.39a90.34,90.34,0,0,1,64.66-86.51v-64A149.73,149.73,0,0,1,91.38,207.1c0-80.77,65.71-146.48,146.48-146.48a148.19,148.19,0,0,1,52.31,9.68,148.19,148.19,0,0,1,52.31-9.68A147,147,0,0,1,478,151.52a87,87,0,0,1,27.42,10.63A87.92,87.92,0,0,1,548,237.26V345.73a86.58,86.58,0,0,1-5.47,30.44,108.74,108.74,0,0,1-16,152.53A102,102,0,0,1,494.87,592,104.64,104.64,0,0,1,423,620H410.9c-1.42,0-2.87,0-4.3-.1s-2.88.1-4.3.1h-5.36c-2.3,0-4.63-.09-6.94-.27-2.31.18-4.64.27-6.94.27h-5.45a88.39,88.39,0,0,1-12.58-.9,98.21,98.21,0,0,1-13.28.9H340.44a91.19,91.19,0,0,1-9.89-.55,88.73,88.73,0,0,1-9.89.55h-5c-1.54,0-3.11,0-4.68-.12-1.57.08-3.14.12-4.69.12h-4.91c-1.27,0-2.56,0-3.83-.08s-2.56.08-3.83.08h-5.05c-1.16,0-2.34,0-3.52-.07s-2.35.07-3.51.07h-3.79c-1.13,0-2.28,0-3.42-.07s-2.3.07-3.43.07h-2.25c-2.15,0-4.33-.08-6.5-.24-2.27.16-4.55.24-6.79.24h-11c-1.27,0-2.55,0-3.83-.08s-2.56.08-3.83.08h-4.91c-1.91,0-3.84-.06-5.77-.19l-1.3.15a89,89,0,0,1-36.49,7.93h-4.94Z" fill="#008453"/><path d="M183.44,615.32a76.41,76.41,0,0,1-64-35.05,88.11,88.11,0,0,1-22.72-49.79,77.48,77.48,0,0,1-40.3-68.14V426.39a77.81,77.81,0,0,1,64.82-76.63h0c-.1-1.88-.15-3.67-.15-5.45V272.7a136.53,136.53,0,0,1-17.17-65.6c0-73.88,60.1-134,134-134a135,135,0,0,1,52.31,10.65,134.21,134.21,0,0,1,178.71,79,75,75,0,0,1,66.63,74.53V345.73A74.51,74.51,0,0,1,528,378.45a96.27,96.27,0,0,1-13.4,143.72c-2.79,48.26-42,85.29-91.55,85.29H410.9c-1.43,0-2.87,0-4.3-.12-1.43.08-2.88.12-4.31.12h-5.36c-2.3,0-4.63-.11-6.94-.32-2.31.21-4.64.32-6.94.32H377.6a76.3,76.3,0,0,1-12.53-1,86,86,0,0,1-13.33,1H340.43a76.28,76.28,0,0,1-9.89-.65,76.16,76.16,0,0,1-9.89.65h-5c-1.54,0-3.11-.05-4.68-.14-1.56.1-3.14.14-4.69.14h-4.91c-1.26,0-2.55,0-3.83-.1s-2.57.1-3.83.1h-5c-1.16,0-2.34,0-3.52-.08s-2.36.08-3.51.08h-3.79c-1.13,0-2.28,0-3.42-.08s-2.29.08-3.43.08h-2.25c-2.14,0-4.32-.09-6.48-.28-2.27.18-4.56.28-6.81.28H244.5c-1.26,0-2.55,0-3.83-.1s-2.57.1-3.83.1h-4.91c-2,0-4.07-.08-6.11-.25-1.07.14-2.15.27-3.21.37l-1.09.09a76.13,76.13,0,0,1-33.16,7.67h-4.92Z" fill="#00aa4f"/><path d="M183.44,602.82a63.54,63.54,0,0,1-54.09-30.25,75.11,75.11,0,0,1-20.69-50.19A65,65,0,0,1,68.9,462.33V426.38a65.28,65.28,0,0,1,65.2-65.2h1.12c-.44-2.27-.8-4.55-1.07-6.86l0-.34c-.14-1.31-.25-2.54-.34-3.83,0-.39-.05-.73-.07-1.08-.09-1.67-.13-3.23-.13-4.79V269.34a123.34,123.34,0,0,1-17.17-62.26A121.46,121.46,0,0,1,290.19,97.45a121.68,121.68,0,0,1,169.39,77.3h.94a62.5,62.5,0,0,1,62.5,62.5V345.71a62.62,62.62,0,0,1-10.73,35,84.34,84.34,0,0,1,29.34,63.68,83.16,83.16,0,0,1-16.87,50.43,84.83,84.83,0,0,1-22.52,20.65c0,.4,0,.8,0,1.19,0,43.91-34.79,78.31-79.21,78.31H410.9c-1.43,0-2.87-.05-4.3-.15-1.43.1-2.87.15-4.31.15h-5.36a64.7,64.7,0,0,1-6.94-.38,64.55,64.55,0,0,1-6.94.38H377.6a63.59,63.59,0,0,1-12.46-1.24,73.1,73.1,0,0,1-13.4,1.24H340.43a62.91,62.91,0,0,1-9.89-.78,64.13,64.13,0,0,1-9.89.78h-5c-1.55,0-3.12-.06-4.68-.17-1.56.12-3.14.17-4.69.17h-4.91c-1.26,0-2.55,0-3.83-.12-1.28.08-2.57.12-3.83.12h-5c-1.16,0-2.34,0-3.52-.1s-2.35.1-3.51.1h-3.79c-1.13,0-2.28,0-3.42-.09s-2.3.09-3.43.09h-2.25a63.47,63.47,0,0,1-6.45-.33c-2.28.22-4.57.33-6.84.33H244.5c-1.27,0-2.56,0-3.83-.12-1.27.08-2.56.12-3.83.12h-4.91a62.93,62.93,0,0,1-6.43-.33c-1.35.21-2.71.37-4.06.5l-1.12.1c-.72,0-1.43.1-2.14.13a63.46,63.46,0,0,1-29.81,7.49h-4.93Z" fill="#008453"/><path d="M183.44,590.32a50.73,50.73,0,0,1-44.13-25.44,62.2,62.2,0,0,1-18.17-44.24,67.21,67.21,0,0,1,.38-7.12,52.79,52.79,0,0,1-40.13-51.18V426.39a52.76,52.76,0,0,1,52.7-52.7h8.22a53.15,53.15,0,0,1,9.76.91l.36-.07a74.65,74.65,0,0,1-5.87-21.63s0-.3,0-.36c-.12-1.07-.21-2.15-.29-3.29,0-.31,0-.58-.06-.85-.08-1.45-.12-2.78-.12-4.11V265.8A109,109,0,0,1,237.86,98.09a108.83,108.83,0,0,1,52.31,13.38,108.83,108.83,0,0,1,52.31-13.38c53.54,0,98.44,39.13,107.37,90.3a50,50,0,0,1,60.66,48.85V345.71A50.29,50.29,0,0,1,494,382.86a71.43,71.43,0,0,1,35.16,61.5,70.67,70.67,0,0,1-14.36,42.9,72.28,72.28,0,0,1-25.54,21.15,66.21,66.21,0,0,1,.51,8.22c0,36.9-29.3,65.81-66.71,65.81H410.9c-1.43,0-2.87-.06-4.3-.18-1.43.12-2.87.18-4.31.18h-5.36A52.09,52.09,0,0,1,390,582a52,52,0,0,1-6.94.47H377.6a50.62,50.62,0,0,1-12.37-1.53,59.63,59.63,0,0,1-13.49,1.53H340.43a51.18,51.18,0,0,1-9.89-1,51.18,51.18,0,0,1-9.89,1h-5c-1.55,0-3.12-.07-4.68-.21-1.56.14-3.13.21-4.69.21h-4.91c-1.27,0-2.55-.05-3.83-.14-1.28.1-2.56.14-3.83.14h-5c-1.17,0-2.35,0-3.52-.12q-1.75.12-3.51.12h-3.79c-1.13,0-2.28,0-3.42-.12-1.15.08-2.29.12-3.43.12h-2.25a50.68,50.68,0,0,1-6.4-.4,59,59,0,0,1-6.89.4H244.5c-1.27,0-2.55-.05-3.83-.14-1.27.1-2.56.14-3.83.14h-4.91a50.49,50.49,0,0,1-6.73-.45c-1.63.29-3.29.52-4.94.68l-.92.08c-1.3.1-2.62.15-3.86.15h-.69a51.35,51.35,0,0,1-26.43,7.43h-4.92Z" fill="#00aa4f"/><path d="M183.44,577.82a38.33,38.33,0,0,1-34.1-20.65,49.23,49.23,0,0,1-15.7-36.53,51.13,51.13,0,0,1,3.24-18.1H134.1a40.24,40.24,0,0,1-40.2-40.2V426.39a40.24,40.24,0,0,1,40.2-40.2h8.22a40,40,0,0,1,9.76,1.2,40,40,0,0,1,9.76-1.2h8.22a40.85,40.85,0,0,1,4.95.3l-.69-.79c-.28-.32-.56-.64-.83-1A62.14,62.14,0,0,1,159,351.41l0-.24c-.1-.92-.18-1.85-.25-2.84,0-.24,0-.43-.05-.63-.06-1.19-.1-2.31-.1-3.41V262A96.49,96.49,0,0,1,290.19,126,96.48,96.48,0,0,1,439,206.25l3.78-2a37.51,37.51,0,0,1,55.27,33V345.71a37.5,37.5,0,0,1-55.26,33L424.64,369a62.39,62.39,0,0,1-9.5,15.37c-1.08,1.31-2.2,2.58-3.38,3.81a60,60,0,0,1,14.16,6.52,58.93,58.93,0,1,1,48.89,106,53.43,53.43,0,0,1,2.42,15.9c0,29.9-23.81,53.31-54.21,53.31H410.9a38.73,38.73,0,0,1-4.3-.24,38.78,38.78,0,0,1-4.31.24h-5.36a38.45,38.45,0,0,1-6.94-.63,38.45,38.45,0,0,1-6.94.63H377.6a38.43,38.43,0,0,1-12.21-2,46.87,46.87,0,0,1-13.65,2H340.43a37.82,37.82,0,0,1-9.89-1.3,38.25,38.25,0,0,1-9.89,1.3h-5a40.68,40.68,0,0,1-4.68-.28,38.59,38.59,0,0,1-4.69.28h-4.91a37.63,37.63,0,0,1-3.83-.19,37.63,37.63,0,0,1-3.83.19h-5c-1.17,0-2.35,0-3.52-.16-1.17.11-2.34.16-3.51.16h-3.79q-1.71,0-3.42-.15c-1.14.1-2.29.15-3.43.15h-2.25a38.17,38.17,0,0,1-6.33-.52,47.64,47.64,0,0,1-7,.52H244.5a37.92,37.92,0,0,1-3.83-.19,37.78,37.78,0,0,1-3.83.19h-4.91a38.14,38.14,0,0,1-7-.64,45.78,45.78,0,0,1-5.84.92l-.71.06c-.95.07-2,.11-2.9.11a38.14,38.14,0,0,1-4.14-.22,38.76,38.76,0,0,1-23,7.65h-4.93Z" fill="#008453"/><path d="M504.11,444.35A46.46,46.46,0,0,0,426,410.43,47,47,0,0,0,394,398c-5.77,0-18.74.18-30.52.36,17.21-1.76,32.26-10,42-21.93a49.8,49.8,0,0,0,11-23.65c.07-.4.12-.81.18-1.22s.1-.6.14-.9l31.82,17.12a25,25,0,0,0,36.84-22V237.24a25,25,0,0,0-36.84-22l-25,13.46a84,84,0,0,0-133.47-87.31A84,84,0,0,0,171.05,258v86.31c0,.91,0,1.82.08,2.72l0,.45c.05.78.11,1.55.2,2.32a1.36,1.36,0,0,1,0,.2A49.71,49.71,0,0,0,183,376.67c.3.36.61.7.91,1.05l.14.16c11.12,12.65,28.36,20.8,47.68,20.8H200.36a27.48,27.48,0,0,0-15.16,4.55A27.53,27.53,0,0,0,170,398.68h-8.22a27.66,27.66,0,0,0-9.76,1.78,27.66,27.66,0,0,0-9.76-1.78h-8.22a27.74,27.74,0,0,0-27.7,27.7v35.95a27.74,27.74,0,0,0,27.7,27.7h8.22a27.66,27.66,0,0,0,9.76-1.78,28.07,28.07,0,0,0,6.41,1.57A26.36,26.36,0,0,0,157,494a37.82,37.82,0,0,0,2.5,55.39,25.88,25.88,0,0,0,23.93,15.89h5A26.2,26.2,0,0,0,207,557.44h3.62a26.46,26.46,0,0,0,4.88.46c.62,0,1.34,0,2-.07l.47,0a33.67,33.67,0,0,0,6.81-1.35,26,26,0,0,0,7.2,1h4.91a25.68,25.68,0,0,0,3.83-.28,25.68,25.68,0,0,0,3.83.28h10.95a34.29,34.29,0,0,0,7.1-.74,26.08,26.08,0,0,0,6.19.74H271a26.12,26.12,0,0,0,3.43-.23,26,26,0,0,0,3.42.23h3.79a25.88,25.88,0,0,0,3.51-.24,25.8,25.8,0,0,0,3.52.24h5.05a25.78,25.78,0,0,0,3.83-.28,25.68,25.68,0,0,0,3.83.28h4.91A26.22,26.22,0,0,0,311,557a26.11,26.11,0,0,0,4.68.42h5a25.82,25.82,0,0,0,9.89-2,25.82,25.82,0,0,0,9.89,2h11.31a34.32,34.32,0,0,0,13.93-2.91,25.87,25.87,0,0,0,11.93,2.91h5.45a26.16,26.16,0,0,0,6.94-.94,26.1,26.1,0,0,0,6.94.94h5.36a25.85,25.85,0,0,0,4.31-.36,25.61,25.61,0,0,0,4.29.36H423c23.39,0,41.71-17.93,41.71-40.81a40.14,40.14,0,0,0-9.32-25.93c.77,0,1.53.06,2.31.06A46.47,46.47,0,0,0,504.11,444.35Z" fill="#00aa4f"/><rect x="-4.75" y="-30.69" width="590" height="673.87" fill="none"/><rect x="-1227.96" y="-1389.74" width="5094.33" height="2865.56" fill="none"/><rect x="359.21" y="-496.96" width="1920" height="1080" fill="none"/><path d="M447.56,503.33a.22.22,0,0,0,0-.42l-1.29-.45c-1-.33.54-2.91,1.29-2.19l1,.9a.23.23,0,0,0,.36-.21l-.24-1.32c-.12-.54.54-.78,1.23-.78s1.41.27,1.29.75L451,501a.2.2,0,0,0,.33.18l1-.9c.84-.78,2.25,1.92,1.29,2.22l-1.29.45c-.21.06-.15.33,0,.39l1.29.45c1.05.33-.51,2.88-1.26,2.22l-1.05-.9a.19.19,0,0,0-.33.18l.24,1.35c.12.54-.54.78-1.23.78s-1.47-.27-1.32-.78l.3-1.35c.06-.18-.21-.33-.36-.18l-1.05.87c-.81.78-2.25-1.86-1.29-2.16Z" fill="#fff"/></svg>