<svg xmlns="http://www.w3.org/2000/svg" viewBox="0 0 380.31 147.06"><title>Vector Smart Object2111111</title><path d="M68.34,145.25a13.47,13.47,0,0,1-13.26-11.18c-7.1-4.12-11.54-11.77-11.54-21,0-8.57,3.84-15.79,10.1-20.1a12.94,12.94,0,0,1,13-13.22h6.67a13.47,13.47,0,0,1,8.5,3,16.56,16.56,0,0,1,25.85,6h14.13a13.37,13.37,0,0,1,3,.33,13.21,13.21,0,0,1,2.95-.33h6.67a13.47,13.47,0,0,1,8.89,3.34A13,13,0,0,1,152,88.72h8a13.59,13.59,0,0,1,6.22,1.5,13.59,13.59,0,0,1,6.22-1.5h6.21a13.37,13.37,0,0,1,3,.33,13.23,13.23,0,0,1,3-.33h6.62a13.34,13.34,0,0,1,4.71.84,13.5,13.5,0,0,1,4.71-.84h4.95a13.4,13.4,0,0,1,9.1,3.55,13,13,0,0,1,9-3.55h12.61a20.47,20.47,0,0,1,11.65,3.58,12.94,12.94,0,0,1,12.9-11.47H268a13.53,13.53,0,0,1,6.94,1.91,13.5,13.5,0,0,1,6.93-1.91h5.36a13.72,13.72,0,0,1,3.48.45,13.37,13.37,0,0,1,3.42-.45h13.83c16.38,0,29.21,12.4,29.21,28.23s-12.83,28.31-29.21,28.31H295.8a13.53,13.53,0,0,1-4.29-.7,13.67,13.67,0,0,1-4.32.7h-5.36a13.59,13.59,0,0,1-6.93-1.9,13.62,13.62,0,0,1-6.94,1.9h-5.45a13.45,13.45,0,0,1-11.07-5.81,21.35,21.35,0,0,1-14.79,5.81H225.34a13.44,13.44,0,0,1-9.89-4.34,13.44,13.44,0,0,1-9.89,4.34h-5a13.48,13.48,0,0,1-4.68-.84,13.35,13.35,0,0,1-4.69.84h-4.91a13.09,13.09,0,0,1-3.83-.56,13.09,13.09,0,0,1-3.83.56h-5a13.17,13.17,0,0,1-3.52-.47,13.32,13.32,0,0,1-3.51.47h-3.79a13,13,0,0,1-3.41-.45,13.44,13.44,0,0,1-3.43.45h-2.26a13.4,13.4,0,0,1-5.82-1.33,21.46,21.46,0,0,1-7.47,1.33H129.43a13.48,13.48,0,0,1-3.83-.55,13.43,13.43,0,0,1-3.83.55h-4.91a13.54,13.54,0,0,1-7.16-2,20.72,20.72,0,0,1-8,2.43l-.22,0c-.32,0-.73,0-1,0a13.58,13.58,0,0,1-3.8-.53,15,15,0,0,1-1.51.08h-5a13.14,13.14,0,0,1-4.27-.7,13.51,13.51,0,0,1-12.58,8.58Z" fill="#008453"/><path d="M342.62,70.68a33.94,33.94,0,0,1-31.8-22.16c-4.15,13.31-16.07,22.16-31.34,22.16-14.29,0-26.31-8.06-31.65-19.89a33.9,33.9,0,0,1-61.67.14c-4.77,12-16.15,19.75-30.48,19.75A34.53,34.53,0,0,1,127,56a15.21,15.21,0,0,1-15.16,14H85.27A15.21,15.21,0,0,1,70.11,55.84,15.21,15.21,0,0,1,55,70H46.73A15.15,15.15,0,0,1,37,66.42,15.15,15.15,0,0,1,27.21,70H19a15.21,15.21,0,0,1-15.2-15.2v-36A15.21,15.21,0,0,1,19,3.61h8.22A15.2,15.2,0,0,1,37,7.16a15.2,15.2,0,0,1,9.76-3.55H55A15.2,15.2,0,0,1,70.11,17.74,15.2,15.2,0,0,1,85.27,3.61h26.52A15.2,15.2,0,0,1,127,17.78,34.07,34.07,0,0,1,155.12,2.89c11.7,0,22.65,5.88,28.59,15.34a15.13,15.13,0,0,1,2.07,5.29,33.89,33.89,0,0,1,62.1-.64,34.12,34.12,0,0,1,31-20c11.69,0,22.65,5.88,28.59,15.34a15.18,15.18,0,0,1,2.32,8.05c.13.19.26.38.38.58a33.89,33.89,0,1,1,32.41,43.82Z" fill="#008453"/><path d="M75.09,101.26q-.81-.06-.81-.81V93.24a1,1,0,0,0-1-1H66.62c-.49,0-.67.5-.27,1.08a5.65,5.65,0,0,1,1,3.74v3.38a.72.72,0,0,1-.77.81c-6.71.59-10.58,5.45-10.58,11.81s3.87,11.21,10.58,11.75a.73.73,0,0,1,.77.82v6.17a1,1,0,0,0,1,.94h5a1,1,0,0,0,1-.94v-6.17c0-.5.27-.77.81-.82,6.67-.58,10.55-5.4,10.55-11.75S81.76,101.85,75.09,101.26Zm-7.7,19.24c0,.59-.31.81-.63.72-2.21-.77-3.74-3.78-3.74-8.2s1.53-7.39,3.74-8.11c.32,0,.63.14.63.72Zm7.52.67c-.31.1-.63-.13-.63-.72V105.63c0-.58.32-.76.63-.72,2.21.72,3.74,3.7,3.74,8.11S77.12,120.41,74.91,121.17Zm21.18-19v21.71a1,1,0,0,1-1,1h-5a1,1,0,0,1-1-1V106a5.62,5.62,0,0,0-1-3.74c-.41-.59-.23-1.08.27-1.08H95.1A1,1,0,0,1,96.09,102.21Zm.45-6.85a4.06,4.06,0,1,1-4.06-4A4,4,0,0,1,96.54,95.36Zm26.22,6.8v21.76a1,1,0,0,1-1,1h-4.91a1,1,0,0,1-1-1v-18a1,1,0,0,0-.95-1h-5.09a1,1,0,0,0-1,1v4.82a25.45,25.45,0,0,1-1.49,9.55,7.93,7.93,0,0,1-6.76,5,.63.63,0,0,1-.76-.54l-.5-2.66a.68.68,0,0,1,.9-.81c1.9.32,3.07-1.4,3.61-2.84a27.51,27.51,0,0,0,.94-8.2V106a5.68,5.68,0,0,0-1-3.74c-.41-.59-.23-1.08.27-1.08h17.84A1,1,0,0,1,122.76,102.16ZM140.37,109h-4.05a1,1,0,0,1-.95-1.08v-5.77a1,1,0,0,0-1-.94h-6.67c-.49,0-.67.49-.27,1.08a5.61,5.61,0,0,1,1,3.74v17.88a1,1,0,0,0,1,1h10.94c4.64,0,8.52-3.51,8.52-7.88S145,109,140.37,109Zm-2.16,12.21h-1.94a1,1,0,0,1-.9-1v-6.53a1,1,0,0,1,.9-1h1.94c2.12,0,3.47,1.71,3.47,4.15S140.33,121.22,138.21,121.22Zm41.31-19.1V124a.85.85,0,0,1-.9.9h-5a.91.91,0,0,1-1-.9V112.39c.05-.45-.54-.5-.67-.09L167.81,124a1.41,1.41,0,0,1-1.26.9h-3.79a1.38,1.38,0,0,1-1.21-.9l-4.1-11.67a.32.32,0,1,0-.63.14V124a.9.9,0,0,1-.9.9h-2.26a.85.85,0,0,1-.9-.9V106a5.68,5.68,0,0,0-1-3.74c-.41-.59-.23-1.08.27-1.08h8a1.36,1.36,0,0,1,1.22.9l4.68,13.56a.3.3,0,0,0,.59,0l4.73-13.56a1.4,1.4,0,0,1,1.22-.9h6.21A.87.87,0,0,1,179.52,102.12Zm27,0v21.76a1,1,0,0,1-.95,1h-5a1,1,0,0,1-1-1V111.58c0-.36-.31-.45-.49-.14l-6.81,12.62c-.27.49-.58.81-1.08.81h-4.91a1,1,0,0,1-.94-1V106a5.67,5.67,0,0,0-1-3.74c-.41-.59-.23-1.08.27-1.08h6.62a1,1,0,0,1,1,.94v12.35c0,.36.31.45.49.13L199.53,102c.27-.5.58-.81,1.08-.81h4.95A1,1,0,0,1,206.51,102.16Zm34.42,10.23c-.36-.22-.45-.4-.05-.68a5.69,5.69,0,0,0,2.52-4.59c0-3.11-3.1-5.9-7.16-5.9H223.63c-.5,0-.68.49-.27,1.08a5.68,5.68,0,0,1,1,3.74v17.88a1,1,0,0,0,1,1h11.31c4.64,0,8.11-3.15,8.11-6.58A6.78,6.78,0,0,0,240.93,112.39Zm-9.64-6.58a.91.91,0,0,1,.94-.94H234a2.52,2.52,0,0,1,2.53,2.74,2.64,2.64,0,0,1-2.21,2.8h-2.12a1,1,0,0,1-.94-1Zm3.38,15.41h-2.44a1,1,0,0,1-.94-1v-5.18a.92.92,0,0,1,.94-1h2.44c1.71,0,2.92,1.8,2.92,3.65S236.38,121.22,234.67,121.22Zm53.56-26.89v29.59a1,1,0,0,1-1,1h-5.36a1,1,0,0,1-1-1V111.76a1,1,0,0,0-.95-1h-9.91a.93.93,0,0,0-.95,1v12.16a1,1,0,0,1-1,1h-5.45a1,1,0,0,1-.95-1V98.15a5.6,5.6,0,0,0-1-3.73c-.4-.59-.22-1.09.27-1.09H268a1,1,0,0,1,1,1v11.48a.93.93,0,0,0,.95,1h9.91a1,1,0,0,0,.95-1V94.33a1,1,0,0,1,1-1h5.36A1,1,0,0,1,288.23,94.33Zm19.69-1H294.09c-.5,0-.68.5-.27,1.09a5.67,5.67,0,0,1,1,3.73v25.77a1,1,0,0,0,.95,1h12.12c9.55,0,16.71-7.07,16.71-15.81S317.47,93.33,307.92,93.33Zm-1.13,27.53h-3.56a.93.93,0,0,1-.94-1V98.38a1,1,0,0,1,.94-1h3.56c5.77,0,9.91,4.6,9.91,11.76S312.56,120.86,306.79,120.86Z" fill="#fff"/><path d="M46.73,18.81H55v36H46.73V33.86l-9.3,15.26h-.92l-9.3-15.26V54.77H19v-36h8.22l9.76,16Zm38.54,36h26.52V46.86H93.49V40.49h18.3V32.68H93.49v-6h18.3V18.81H85.27Zm70.11-12.84H165c-1.28,3.44-4.42,5.54-9.19,5.54-7,0-11.3-4.47-11.3-10.58,0-6.32,4.52-10.78,10.58-10.78,4.06,0,7.29,1.84,8.78,4.21l7-4a18.4,18.4,0,0,0-15.72-8.22,18.65,18.65,0,0,0-18.85,18.75c0,10.32,8.11,18.64,19.41,18.64,10.07,0,17.72-6.67,17.72-17.66V34.73h-18Zm80.28-5.14A18.7,18.7,0,1,1,217,18.09,18.53,18.53,0,0,1,235.66,36.79Zm-8.22,0a10.48,10.48,0,1,0-20.95,0,10.48,10.48,0,1,0,20.95,0Zm51.73,5.14h9.61c-1.29,3.44-4.42,5.54-9.2,5.54-7,0-11.3-4.47-11.3-10.58,0-6.32,4.52-10.78,10.58-10.78,4.06,0,7.3,1.84,8.79,4.21l7-4a18.38,18.38,0,0,0-15.71-8.22,18.65,18.65,0,0,0-18.85,18.75c0,10.32,8.11,18.64,19.41,18.64,10.07,0,17.72-6.67,17.72-17.66V34.73h-18Zm82.14-5.14a18.7,18.7,0,1,1-18.69-18.7A18.53,18.53,0,0,1,361.31,36.79Zm-8.21,0a10.48,10.48,0,1,0-21,0,10.48,10.48,0,1,0,21,0Z" fill="#fff"/><rect x="-14.02" y="-1437.31" width="5094.33" height="2865.56" fill="none"/><path d="M332.46,95.77a.22.22,0,0,0,0-.42l-1.29-.45c-1-.33.54-2.91,1.29-2.19l1,.9a.23.23,0,0,0,.36-.21l-.24-1.32c-.12-.54.54-.78,1.23-.78s1.41.27,1.29.75l-.24,1.35a.2.2,0,0,0,.33.18l1-.9c.84-.78,2.25,1.92,1.29,2.22l-1.29.45c-.21.06-.15.33,0,.39l1.29.45c1.05.33-.51,2.88-1.26,2.22l-1.05-.9a.19.19,0,0,0-.33.18l.24,1.35c.12.54-.54.78-1.23.78s-1.47-.27-1.32-.78l.3-1.35c.06-.18-.21-.33-.36-.18l-1.05.87c-.81.78-2.25-1.86-1.29-2.16Z" fill="#fff"/></svg>