<svg xmlns="http://www.w3.org/2000/svg" viewBox="0 0 331.52 65.67"><title>title-megogo</title><g id="Layer_35_copy_2" data-name="Layer 35 copy 2"><path d="M311.68,63.15a13.3,13.3,0,0,1-10.93-5.78,13.33,13.33,0,0,1-10.94,5.78h-1.56a13.3,13.3,0,0,1-11.2-6,29.28,29.28,0,0,1-5.59.53,28.55,28.55,0,0,1-9.91-1.74,13.06,13.06,0,0,1-5.41,1.18h-4.28a15.23,15.23,0,0,1-7.24-1.8,13.32,13.32,0,0,1-6.72,1.8h-3.36a13.3,13.3,0,0,1-9.45-3.94,13.42,13.42,0,0,1-9.51,3.94H212.3a13.4,13.4,0,0,1-7-2,13.37,13.37,0,0,1-7,2h-3.36a13.59,13.59,0,0,1-3.08-.36,13.59,13.59,0,0,1-3.08.36h-15.6a12.58,12.58,0,0,1-2.39-.22,12.23,12.23,0,0,1-2.35.22h-4.16a15,15,0,0,1-6.41-1.39,13.33,13.33,0,0,1-6,1.39h-3.28a13.44,13.44,0,0,1-5.94-1.38,15.22,15.22,0,0,1-6.42,1.38h-4.15a13.16,13.16,0,0,1-5.54-1.23,29,29,0,0,1-10.11,1.79,28.55,28.55,0,0,1-9.91-1.74,13.06,13.06,0,0,1-5.41,1.18H96.81a15.23,15.23,0,0,1-7.24-1.8,13.32,13.32,0,0,1-6.72,1.8H79.49a13.3,13.3,0,0,1-8.1-2.75,13.25,13.25,0,0,1-8.1,2.75H59.53a13.83,13.83,0,0,1-9.42-3.73,13.79,13.79,0,0,1-9.41,3.73h-2a13.58,13.58,0,0,1-4.32-.71,25.24,25.24,0,0,1-8,1.27C17.76,57.63,10,53.69,5.74,47.1A13,13,0,0,1,9,29.26c-.12-.16-.23-.33-.34-.51l-1-1.51A13.59,13.59,0,0,1,8.3,11.53l.11-.15c4-4.93,10.52-7.87,17.54-7.87A23.69,23.69,0,0,1,39,7.15a13,13,0,0,1,8.44-3.08h5.28a14,14,0,0,1,13,9A13.19,13.19,0,0,1,66.53,11,12.92,12.92,0,0,1,78,4.07h4.83a13.36,13.36,0,0,1,6.73,1.81,14.83,14.83,0,0,1,7.19-1.81h2.48a13.12,13.12,0,0,1,6.22,1.58,29.1,29.1,0,0,1,21.58-.13,13.09,13.09,0,0,1,6-1.45h3.08a15.1,15.1,0,0,1,6.45,1.41,13.38,13.38,0,0,1,6-1.41h3.28a13.38,13.38,0,0,1,6,1.41,15.07,15.07,0,0,1,6.45-1.41h2.24a13.13,13.13,0,0,1,2.52.25,13.42,13.42,0,0,1,2.54-.25h16.52a13.61,13.61,0,0,1,2.65.26,13.08,13.08,0,0,1,2.59-.26h4.88a13.28,13.28,0,0,1,7,2,13.32,13.32,0,0,1,7-2h3.28a13.42,13.42,0,0,1,8.82,3.3,13,13,0,0,1,8.66-3.3h4.84a13.36,13.36,0,0,1,6.73,1.81,14.83,14.83,0,0,1,7.19-1.81h2.48a13.12,13.12,0,0,1,6.22,1.58A29,29,0,0,1,285,6.85a13,13,0,0,1,8-2.78h17.11A13.4,13.4,0,0,1,323.5,17.45V33.19h0A13.28,13.28,0,0,1,327,43l-.39,7.45,0,.38a13.34,13.34,0,0,1-13.34,12.34Z" fill="#008453"/><path d="M36.27,36.77c0,4.64-3.76,8.36-9.88,8.36-4.36,0-8.2-1.8-10.2-4.88a.64.64,0,0,1,.24-1l1.4-.92a.73.73,0,0,1,1.08.24,8.68,8.68,0,0,0,6.6,3.32,5,5,0,0,0,5.2-5.36c0-3-1.76-5.08-5.2-5.08h-1.6a.9.9,0,0,1-.92-.88v-1.4a.91.91,0,0,1,.92-.92h1.6a4.44,4.44,0,0,0,4.28-4.76c0-2.56-1.76-4.32-4.6-4.32a4.94,4.94,0,0,0-4.6,2.72.77.77,0,0,1-1.36.2l-1-1.6a1.09,1.09,0,0,1-.08-1.32A10.18,10.18,0,0,1,26,16c5.76,0,9.24,3,9.24,7.4a7.51,7.51,0,0,1-3.28,5.8c-.28.2-.28.48,0,.64A7.93,7.93,0,0,1,36.27,36.77Zm27.66,7a.61.61,0,0,1-.64.84H59.53a1.42,1.42,0,0,1-1.2-.84l-2.28-6.36a.91.91,0,0,0-1-.6H45.3c-.57,0-.92.16-1.08.6L41.9,43.73a1.37,1.37,0,0,1-1.2.84h-2c-.56,0-.84-.4-.68-.84l8.71-22.88a5.8,5.8,0,0,0,.44-2,2.64,2.64,0,0,0-.28-1.28.63.63,0,0,1,.52-1h5.28a1.41,1.41,0,0,1,1.28.88Zm-9.56-11L50.53,21.85a.34.34,0,0,0-.32-.28.38.38,0,0,0-.36.28L45.93,32.69c-.2.56,0,.88.52.88h7.36C54.37,33.57,54.57,33.25,54.37,32.69Zm36-2.8c-.4-.48-.48-.68-.12-1.12l9.16-11.32c.4-.48.28-.88-.2-.88H96.77a2.19,2.19,0,0,0-1.88.88L86.37,28.09a1,1,0,0,1-.8.4h-1.2c-.4,0-.6-.24-.6-.68V17.45a.9.9,0,0,0-.92-.88H78c-.44,0-.64.44-.29,1a5,5,0,0,1,.92,3.32V43.73a.88.88,0,0,0,.84.84h3.36a.89.89,0,0,0,.92-.84V32.41a.65.65,0,0,1,.64-.72h.76a1,1,0,0,1,.72.4l9,11.64a2.43,2.43,0,0,0,2,.84h4.28c.48,0,.68-.4.32-.84Zm41.2.72c0,8.2-6.36,14.52-15.2,14.52s-15.08-6.32-15.08-14.52S107.69,16,116.41,16,131.61,22.33,131.61,30.61Zm-5.6,0c0-6.36-4-11.36-9.6-11.36s-9.48,5-9.48,11.36,4,11.36,9.48,11.36S126,36.93,126,30.57Zm32.92-.68a.94.94,0,0,1-.2-1.12l8-11.32c.4-.48.28-.88-.2-.88h-2.24a2,2,0,0,0-1.88.88L155,28.09a1,1,0,0,1-.8.4h-.8c-.4,0-.6-.24-.6-.68V17.45a.9.9,0,0,0-.92-.88h-3.28a.9.9,0,0,0-.92.88V27.81c0,.44-.2.68-.6.68h-.8a1,1,0,0,1-.8-.4L138,17.45a2,2,0,0,0-1.88-.88h-3.08c-.6,0-.72.68,0,1a9,9,0,0,1,2.8,2.88l5.84,8.28a.94.94,0,0,1-.2,1.12l-9.76,13.84c-.36.44-.16.84.33.84h4.15a2,2,0,0,0,1.84-.84l7.88-11.64a.84.84,0,0,1,.72-.4H147a.65.65,0,0,1,.64.72V43.73a.89.89,0,0,0,.92.84h3.28a.89.89,0,0,0,.92-.84V32.41a.65.65,0,0,1,.64-.72h.36a.84.84,0,0,1,.72.4l7.88,11.64a2,2,0,0,0,1.84.84h4.16c.48,0,.68-.4.32-.84Zm29.78,11.48H178.23a.83.83,0,0,1-.84-.88V32.77a.85.85,0,0,1,.84-.88h8A.88.88,0,0,0,187,31V29.53a.87.87,0,0,0-.84-.84h-8a.85.85,0,0,1-.84-.88V20.65a.88.88,0,0,1,.84-.88h6.84a11.33,11.33,0,0,1,3.52.6c.56.2,1,0,.88-.56l-.36-2.4a1,1,0,0,0-1-.84H171.59c-.44,0-.6.44-.24,1a5,5,0,0,1,.92,3.32V43.73a.87.87,0,0,0,.84.84h15.6a.88.88,0,0,0,.88-.84V42.25A.89.89,0,0,0,188.71,41.37Zm26.87-24.8H212.3a.9.9,0,0,0-.92.88V27.81a.88.88,0,0,1-.84.88H200a.84.84,0,0,1-.84-.88V17.45a.89.89,0,0,0-.91-.88h-4.88c-.44,0-.6.44-.24,1a5,5,0,0,1,.92,3.32V43.73a.87.87,0,0,0,.84.84h3.36a.88.88,0,0,0,.91-.84v-11a.84.84,0,0,1,.84-.88h10.56a.88.88,0,0,1,.84.88v11a.89.89,0,0,0,.92.84h3.28a.89.89,0,0,0,.92-.84V17.45A.9.9,0,0,0,215.58,16.57Zm29.88,13.32c-.4-.48-.48-.68-.12-1.12l9.16-11.32c.4-.48.28-.88-.2-.88h-2.48a2.19,2.19,0,0,0-1.88.88l-8.52,10.64a1,1,0,0,1-.8.4h-1.2c-.4,0-.6-.24-.6-.68V17.45a.9.9,0,0,0-.92-.88h-4.84c-.43,0-.63.44-.28,1a5,5,0,0,1,.92,3.32V43.73a.87.87,0,0,0,.84.84h3.36a.89.89,0,0,0,.92-.84V32.41a.65.65,0,0,1,.64-.72h.76a1,1,0,0,1,.72.4l9,11.64a2.43,2.43,0,0,0,2,.84h4.28c.48,0,.68-.4.32-.84Zm41.2.72c0,8.2-6.36,14.52-15.2,14.52s-15.08-6.32-15.08-14.52S262.74,16,271.46,16,286.66,22.33,286.66,30.61Zm-5.6,0c0-6.36-4-11.36-9.6-11.36s-9.48,5-9.48,11.36,4,11.36,9.48,11.36S281.06,36.93,281.06,30.57Zm33.46,11.68-.4,7.52a.92.92,0,0,1-.88.88h-1.56c-.48,0-.76-.4-.87-.88l-1.21-4.28a1.25,1.25,0,0,0-1.08-.92H293a1.27,1.27,0,0,0-1.08.92l-1.2,4.28c-.12.48-.4.88-.88.88h-1.56a.92.92,0,0,1-.88-.88l-.4-7.52a.77.77,0,0,1,.76-.88h1.56c.8,0,1-.12,1.2-.8a50.5,50.5,0,0,0,3.2-16.84V20.85a5,5,0,0,0-.92-3.32c-.36-.52-.2-1,.24-1h17.11a.89.89,0,0,1,.88.88v23a.86.86,0,0,0,.88.88h1.76A.86.86,0,0,1,314.52,42.25Zm-8.63-21.56a.9.9,0,0,0-.88-.92h-6.88a.9.9,0,0,0-.88.92v2.36a57,57,0,0,1-2.88,17.52.59.59,0,0,0,.6.8h10a.86.86,0,0,0,.88-.88Z" fill="#fde619"/></g><g id="Layer_1_copy_16" data-name="Layer 1 copy 16"><rect x="32.66" y="-1288.82" width="5094.33" height="2865.56" fill="none"/></g></svg>